<?xml version="1.0" encoding="UTF-8"?>
<svg width="16px" height="16px" viewBox="0 0 16 16" version="1.1" xmlns="http://www.w3.org/2000/svg" xmlns:xlink="http://www.w3.org/1999/xlink">
    <title>backward</title>
    <g id="backward" stroke="none" stroke-width="1" fill="none" fill-rule="evenodd">
        <g fill-rule="nonzero">
            <rect id="矩形" opacity="0" x="0" y="0" width="16" height="16"></rect>
            <path d="M7.5875,3.9046875 L3.096875,7.78125 C2.9671875,7.8921875 2.9671875,8.10625 3.096875,8.2171875 L7.5875,12.0953125 C7.7546875,12.2390625 8,12.109375 8,11.8765625 L8,4.121875 C8,3.890625 7.7546875,3.759375 7.5875,3.9046875 L7.5875,3.9046875 Z M12.5875,3.9046875 L8.096875,7.78125 C8.0328125,7.8375 8,7.91875 8,8 C8,8.08125 8.0328125,8.1625 8.096875,8.21875 L12.5875,12.096875 C12.7546875,12.240625 13,12.1109375 13,11.878125 L13,4.121875 C13,3.890625 12.7546875,3.759375 12.5875,3.9046875 Z" id="形状" fill="#000000"></path>
        </g>
    </g>
</svg>