<?xml version="1.0" encoding="UTF-8"?>
<svg width="16px" height="16px" viewBox="0 0 16 16" version="1.1" xmlns="http://www.w3.org/2000/svg" xmlns:xlink="http://www.w3.org/1999/xlink">
    <title>column-width</title>
    <g id="column-width" stroke="none" stroke-width="1" fill="none" fill-rule="evenodd">
        <g fill-rule="nonzero">
            <rect id="矩形" opacity="0" x="0" y="0" width="16" height="16"></rect>
            <path d="M2.8125,2.75 L1.875,2.75 C1.80625,2.75 1.75,2.80625 1.75,2.875 L1.75,13.125 C1.75,13.19375 1.80625,13.25 1.875,13.25 L2.8125,13.25 C2.88125,13.25 2.9375,13.19375 2.9375,13.125 L2.9375,2.875 C2.9375,2.80625 2.88125,2.75 2.8125,2.75 Z M14.125,2.75 L13.1875,2.75 C13.11875,2.75 13.0625,2.80625 13.0625,2.875 L13.0625,13.125 C13.0625,13.19375 13.11875,13.25 13.1875,13.25 L14.125,13.25 C14.19375,13.25 14.25,13.19375 14.25,13.125 L14.25,2.875 C14.25,2.80625 14.19375,2.75 14.125,2.75 Z M12.2703125,7.8796875 L10.2765625,6.30625 C10.203125,6.2484375 10.09375,6.3 10.09375,6.3953125 L10.09375,7.4375 L5.90625,7.4375 L5.90625,6.45625 C5.90625,6.3625 5.796875,6.309375 5.7234375,6.3671875 L3.7296875,7.9421875 C3.671875,7.9875 3.671875,8.075 3.7296875,8.11875 L5.721875,9.69375 C5.7953125,9.7515625 5.9046875,9.7 5.9046875,9.6046875 L5.9046875,8.5625 L10.0921875,8.5625 L10.0921875,9.54375 C10.0921875,9.6375 10.2015625,9.690625 10.275,9.6328125 L12.2671875,8.0578125 C12.3265625,8.0125 12.3265625,7.925 12.2703125,7.8796875 L12.2703125,7.8796875 Z" id="形状" fill="#000000"></path>
        </g>
    </g>
</svg>