<?xml version="1.0" encoding="UTF-8"?>
<svg width="16px" height="16px" viewBox="0 0 16 16" version="1.1" xmlns="http://www.w3.org/2000/svg" xmlns:xlink="http://www.w3.org/1999/xlink">
    <title>component-fill</title>
    <g id="component-fill" stroke="none" stroke-width="1" fill="none" fill-rule="evenodd">
        <g fill-rule="nonzero">
            <rect id="矩形" opacity="0" x="0" y="0" width="16" height="16"></rect>
            <path d="M13.75,1.75 L2.25,1.75 C1.9734375,1.75 1.75,1.9734375 1.75,2.25 L1.75,13.75 C1.75,14.0265625 1.9734375,14.25 2.25,14.25 L13.75,14.25 C14.0265625,14.25 14.25,14.0265625 14.25,13.75 L14.25,2.25 C14.25,1.9734375 14.0265625,1.75 13.75,1.75 Z M10.8671875,5.7140625 L7.5765625,10.2765625 C7.378125,10.553125 6.9671875,10.553125 6.76875,10.2765625 L4.8203125,7.5765625 C4.7609375,7.49375 4.8203125,7.378125 4.921875,7.378125 L5.6546875,7.378125 C5.8140625,7.378125 5.965625,7.4546875 6.059375,7.5859375 L7.171875,9.1296875 L9.628125,5.7234375 C9.721875,5.59375 9.871875,5.515625 10.0328125,5.515625 L10.765625,5.515625 C10.8671875,5.515625 10.9265625,5.63125 10.8671875,5.7140625 Z" id="形状" fill="#000000"></path>
        </g>
    </g>
</svg>