<?xml version="1.0" standalone="no"?><!DOCTYPE svg PUBLIC "-//W3C//DTD SVG 1.1//EN" "http://www.w3.org/Graphics/SVG/1.1/DTD/svg11.dtd"><svg class="icon" width="200px" height="200.00px" viewBox="0 0 1024 1024" version="1.1" xmlns="http://www.w3.org/2000/svg"><path fill="#000000" d="M881.28 112a31.36 31.36 0 0 1 30.72 32v608a31.36 31.36 0 0 1-30.72 32H142.72a31.36 31.36 0 0 1-30.72-32v-608c0-17.664 13.76-32 30.72-32h738.56zM838.4 185.6H185.6v524.8h652.8V185.6z m-83.52 118.72l36.8 36.8c3.2 3.008 3.2 8.128 0.128 11.2L540.736 590.72a8 8 0 0 1-11.328 0L414.912 476.224l-131.008 124.8a8 8 0 0 1-11.264 0l-36.8-36.8a8 8 0 0 1 0-11.264l173.44-167.232a8 8 0 0 1 11.264 0L535.04 500.096l208.576-195.776a8 8 0 0 1 11.264 0z m157.12 543.68v54.4a9.6 9.6 0 0 1-9.6 9.6H121.6a9.6 9.6 0 0 1-9.6-9.6v-54.4a9.6 9.6 0 0 1 9.6-9.6h780.8a9.6 9.6 0 0 1 9.6 9.6z" /></svg>