<?xml version="1.0" encoding="UTF-8"?>
<svg width="16px" height="16px" viewBox="0 0 16 16" version="1.1" xmlns="http://www.w3.org/2000/svg" xmlns:xlink="http://www.w3.org/1999/xlink">
    <title>fall</title>
    <g id="fall" stroke="none" stroke-width="1" fill="none" fill-rule="evenodd">
        <g fill-rule="nonzero">
            <rect id="矩形" opacity="0" x="0" y="0" width="16" height="16"></rect>
            <path d="M14.4671875,12.5625 L14.0921875,9.45 C14.0796875,9.346875 13.953125,9.303125 13.8796875,9.3765625 L12.953125,10.3046875 L8.7140625,6.0671875 C8.615625,5.9703125 8.4578125,5.9703125 8.3609375,6.0671875 L6.7703125,7.65625 L2.446875,3.3328125 C2.3984375,3.284375 2.31875,3.284375 2.2703125,3.3328125 L1.5671875,4.0390625 C1.51875,4.0875 1.51875,4.1671875 1.5671875,4.215625 L6.59375,9.2453125 C6.690625,9.34375 6.85,9.34375 6.946875,9.2453125 L8.5375,7.65625 L12.0703125,11.1875 L11.14375,12.1140625 C11.0703125,12.1875 11.1140625,12.3140625 11.2171875,12.3265625 L14.3296875,12.7015625 C14.409375,12.7125 14.478125,12.64375 14.4671875,12.5625 L14.4671875,12.5625 Z" id="路径" fill="#000000"></path>
        </g>
    </g>
</svg>