<?xml version="1.0" encoding="UTF-8"?>
<svg width="16px" height="16px" viewBox="0 0 16 16" version="1.1" xmlns="http://www.w3.org/2000/svg" xmlns:xlink="http://www.w3.org/1999/xlink">
    <title>field-time</title>
    <g id="field-time" stroke="none" stroke-width="1" fill="none" fill-rule="evenodd">
        <g fill="#000000" fill-rule="nonzero">
            <rect id="矩形" opacity="0" x="0" y="0" width="16" height="16"></rect>
            <path d="M14.765625,6.4375 L10.765625,6.4375 C10.696875,6.4375 10.640625,6.49375 10.640625,6.5625 L10.640625,7.3125 C10.640625,7.38125 10.696875,7.4375 10.765625,7.4375 L14.765625,7.4375 C14.834375,7.4375 14.890625,7.38125 14.890625,7.3125 L14.890625,6.5625 C14.890625,6.49375 14.834375,6.4375 14.765625,6.4375 Z M12.671875,8.5625 L10.765625,8.5625 C10.696875,8.5625 10.640625,8.61875 10.640625,8.6875 L10.640625,9.4375 C10.640625,9.50625 10.696875,9.5625 10.765625,9.5625 L12.671875,9.5625 C12.740625,9.5625 12.796875,9.50625 12.796875,9.4375 L12.796875,8.6875 C12.796875,8.61875 12.740625,8.5625 12.671875,8.5625 Z M7.4578125,5.0390625 L6.78125,5.0390625 C6.684375,5.0390625 6.60625,5.1171875 6.60625,5.2140625 L6.60625,9.0890625 C6.60625,9.1453125 6.6328125,9.196875 6.678125,9.2296875 L9.0046875,10.9265625 C9.0828125,10.9828125 9.1921875,10.9671875 9.2484375,10.8890625 L9.65,10.340625 L9.65,10.3390625 C9.70625,10.2609375 9.6890625,10.1515625 9.6109375,10.0953125 L7.63125,8.6640625 L7.63125,5.2140625 C7.6328125,5.1171875 7.553125,5.0390625 7.4578125,5.0390625 L7.4578125,5.0390625 Z M12.575,10.5296875 L11.671875,10.5296875 C11.584375,10.5296875 11.5015625,10.575 11.4546875,10.65 C11.25625,10.9640625 11.025,11.2546875 10.759375,11.5203125 C10.3015625,11.978125 9.76875,12.3375 9.1765625,12.5875 C8.5625,12.846875 7.9109375,12.978125 7.2390625,12.978125 C6.565625,12.978125 5.9140625,12.846875 5.3015625,12.5875 C4.709375,12.3375 4.1765625,11.978125 3.71875,11.5203125 C3.2609375,11.0625 2.9015625,10.5296875 2.6515625,9.9375 C2.3921875,9.325 2.2609375,8.6734375 2.2609375,8 C2.2609375,7.3265625 2.3921875,6.6765625 2.6515625,6.0625 C2.9015625,5.4703125 3.2609375,4.9375 3.71875,4.4796875 C4.1765625,4.021875 4.709375,3.6625 5.3015625,3.4125 C5.9140625,3.153125 6.5671875,3.021875 7.2390625,3.021875 C7.9125,3.021875 8.5640625,3.153125 9.1765625,3.4125 C9.76875,3.6625 10.3015625,4.021875 10.759375,4.4796875 C11.025,4.7453125 11.25625,5.0359375 11.4546875,5.35 C11.5015625,5.425 11.584375,5.4703125 11.671875,5.4703125 L12.575,5.4703125 C12.6828125,5.4703125 12.7515625,5.3578125 12.703125,5.2625 C11.684375,3.2359375 9.61875,1.91875 7.3125,1.8921875 C3.9359375,1.85 1.13125,4.6140625 1.12498933,7.9875 C1.11875,11.3671875 3.8578125,14.109375 7.2375,14.109375 C9.5734375,14.109375 11.6734375,12.7875 12.703125,10.7375 C12.7515625,10.6421875 12.68125,10.5296875 12.575,10.5296875 Z" id="形状"></path>
        </g>
    </g>
</svg>