<?xml version="1.0" encoding="utf-8"?>
<!-- Generator: Adobe Illustrator 26.3.1, SVG Export Plug-In . SVG Version: 6.00 Build 0)  -->
<svg version="1.1" id="Layer_1" xmlns="http://www.w3.org/2000/svg" xmlns:xlink="http://www.w3.org/1999/xlink" x="0px" y="0px"
	 viewBox="0 0 16 16" style="enable-background:new 0 0 16 16;" xml:space="preserve">
<path id="形状结合" d="M6.2,2.4c0.1,0,0.2,0,0.3,0.1l0.1,0.1l1.6,1.6l6.2,0c0.3,0,0.5,0.2,0.6,0.5l0,0.1V7h-1.1l0-1.6L8,5.3
	c-0.1,0-0.2,0-0.3-0.1L7.6,5.1L6,3.6H2.1v8.9l5.1,0v1.1H1.6c-0.3,0-0.5-0.2-0.6-0.5L1,13V3c0-0.3,0.2-0.5,0.5-0.6l0.1,0H6.2z
	 M11.2,6.5c1.4,0,2.6,1.2,2.6,2.6c0,1.2-0.9,2.3-2,2.5l0,0.8l2,0v1.1H8.6v-1.1l2,0l0-0.8c-1.1-0.3-1.9-1.2-2-2.4l0-0.2
	C8.6,7.6,9.7,6.5,11.2,6.5z M11.2,7.6c-0.8,0-1.4,0.6-1.4,1.4s0.6,1.4,1.4,1.4s1.4-0.6,1.4-1.4S11.9,7.6,11.2,7.6z M11.2,8.5
	c0.3,0,0.6,0.3,0.6,0.6c0,0.3-0.3,0.6-0.6,0.6c-0.3,0-0.6-0.3-0.6-0.6C10.6,8.7,10.8,8.5,11.2,8.5z"/>
</svg>
