<?xml version="1.0" encoding="UTF-8"?>
<svg width="16px" height="16px" viewBox="0 0 16 16" version="1.1" xmlns="http://www.w3.org/2000/svg" xmlns:xlink="http://www.w3.org/1999/xlink">
    <title>phone</title>
    <g id="phone" stroke="none" stroke-width="1" fill="none" fill-rule="evenodd">
        <g fill-rule="nonzero">
            <rect id="矩形" opacity="0" x="0" y="0" width="16" height="16"></rect>
            <path d="M13.7046875,3.7296875 L12.040625,2.0671875 C11.8375,1.8640625 11.565625,1.75 11.278125,1.75 C10.990625,1.75 10.71875,1.8625 10.515625,2.0671875 L8.7234375,3.85625 C8.5203125,4.059375 8.40625,4.3328125 8.40625,4.6203125 C8.40625,4.909375 8.51875,5.1796875 8.7234375,5.384375 L10.1234375,6.7859375 C9.8015625,7.5328125 9.3484375,8.2015625 8.7734375,8.775 C8.2,9.3515625 7.5296875,9.80625 6.7859375,10.128125 L5.3859375,8.7265625 C5.1828125,8.5234375 4.9109375,8.409375 4.6234375,8.409375 C4.334375,8.409375 4.0640625,8.521875 3.8609375,8.7265625 L2.0671875,10.515625 C1.8640625,10.71875 1.75,10.9921875 1.75,11.2796875 C1.75,11.56875 1.8625,11.8390625 2.0671875,12.04375 L3.7296875,13.70625 C4.0765625,14.053125 4.5546875,14.2515625 5.0453125,14.2515625 C5.146875,14.2515625 5.2453125,14.24375 5.3453125,14.2265625 C7.4140625,13.8859375 9.4671875,12.784375 11.125,11.128125 C12.78125,9.46875 13.88125,7.415625 14.225,5.3453125 C14.3234375,4.7578125 14.1265625,4.153125 13.7046875,3.7296875 Z M13.1171875,5.159375 C12.8125,7.0015625 11.821875,8.8390625 10.3296875,10.33125 C8.8375,11.8234375 7.0015625,12.8140625 5.159375,13.11875 C4.928125,13.1578125 4.690625,13.0796875 4.521875,12.9125 L2.8890625,11.2796875 L4.6203125,9.546875 L6.4921875,11.421875 L6.50625,11.4359375 L6.84375,11.3109375 C8.9171875,10.546875 10.5453125,8.91875 11.3078125,6.8453125 L11.4328125,6.5078125 L9.5453125,4.621875 L11.2765625,2.8890625 L12.909375,4.521875 C13.078125,4.690625 13.15625,4.928125 13.1171875,5.159375 Z" id="形状" fill="#000000"></path>
        </g>
    </g>
</svg>