<?xml version="1.0" encoding="UTF-8"?>
<svg width="16px" height="16px" viewBox="0 0 16 16" version="1.1" xmlns="http://www.w3.org/2000/svg" xmlns:xlink="http://www.w3.org/1999/xlink">
    <title>redo</title>
    <g id="redo" stroke="none" stroke-width="1" fill="none" fill-rule="evenodd">
        <g fill-rule="nonzero">
            <rect id="矩形" opacity="0" x="0" y="0" width="16" height="16"></rect>
            <path d="M11.846875,13.1109375 C13.309375,11.9671875 14.25,10.1859375 14.25,8.1859375 C14.25,4.734375 11.4609375,1.9421875 8.009375,1.93749412 C4.553125,1.9328125 1.75,4.73125 1.75,8.1859375 C1.75,10.1421875 2.6484375,11.8875 4.05625,13.0328125 C4.1109375,13.0765625 4.190625,13.0671875 4.234375,13.0125 L4.85,12.2234375 C4.8921875,12.1703125 4.8828125,12.09375 4.83125,12.05 C4.7046875,11.946875 4.5828125,11.8359375 4.465625,11.71875 C4.00625,11.259375 3.6453125,10.725 3.39375,10.1296875 C3.13125,9.515625 3,8.8609375 3,8.1859375 C3,7.5109375 3.13125,6.85625 3.3921875,6.240625 C3.64375,5.6453125 4.0046875,5.1109375 4.4640625,4.6515625 C4.9234375,4.1921875 5.4578125,3.83125 6.053125,3.5796875 C6.6703125,3.31875 7.325,3.1875 8,3.1875 C8.675,3.1875 9.3296875,3.31875 9.9453125,3.5796875 C10.540625,3.83125 11.075,4.1921875 11.534375,4.6515625 C11.99375,5.1109375 12.3546875,5.6453125 12.60625,6.240625 C12.8671875,6.85625 12.9984375,7.5109375 12.9984375,8.1859375 C12.9984375,8.8609375 12.8671875,9.515625 12.60625,10.13125 C12.3546875,10.7265625 11.99375,11.2609375 11.534375,11.7203125 C11.3890625,11.865625 11.2359375,12.0015625 11.0765625,12.1265625 L10.440625,11.3125 C10.3765625,11.2296875 10.2453125,11.2578125 10.2203125,11.359375 L9.6015625,13.89375 C9.5828125,13.971875 9.6421875,14.0484375 9.721875,14.0484375 L12.33125,14.0609375 C12.4359375,14.0609375 12.4953125,13.940625 12.4296875,13.859375 L11.846875,13.1109375 Z" id="路径" fill="#000000"></path>
        </g>
    </g>
</svg>