<?xml version="1.0" encoding="UTF-8"?>
<svg width="16px" height="16px" viewBox="0 0 16 16" version="1.1" xmlns="http://www.w3.org/2000/svg" xmlns:xlink="http://www.w3.org/1999/xlink">
    <title>scan</title>
    <g id="scan" stroke="none" stroke-width="1" fill="none" fill-rule="evenodd">
        <g fill-rule="nonzero">
            <rect id="矩形" opacity="0" x="0" y="0" width="16" height="16"></rect>
            <path d="M2.125,6 L3,6 C3.06875,6 3.125,5.94375 3.125,5.875 L3.125,3.125 L5.875,3.125 C5.94375,3.125 6,3.06875 6,3 L6,2.125 C6,2.05625 5.94375,2 5.875,2 L3.0625,2 C2.475,2 2,2.475 2,3.0625 L2,5.875 C2,5.94375 2.05625,6 2.125,6 Z M10.125,3.125 L12.875,3.125 L12.875,5.875 C12.875,5.94375 12.93125,6 13,6 L13.875,6 C13.94375,6 14,5.94375 14,5.875 L14,3.0625 C14,2.475 13.525,2 12.9375,2 L10.125,2 C10.05625,2 10,2.05625 10,2.125 L10,3 C10,3.06875 10.05625,3.125 10.125,3.125 Z M5.875,12.875 L3.125,12.875 L3.125,10.125 C3.125,10.05625 3.06875,10 3,10 L2.125,10 C2.05625,10 2,10.05625 2,10.125 L2,12.9375 C2,13.525 2.475,14 3.0625,14 L5.875,14 C5.94375,14 6,13.94375 6,13.875 L6,13 C6,12.93125 5.94375,12.875 5.875,12.875 Z M13.875,10 L13,10 C12.93125,10 12.875,10.05625 12.875,10.125 L12.875,12.875 L10.125,12.875 C10.05625,12.875 10,12.93125 10,13 L10,13.875 C10,13.94375 10.05625,14 10.125,14 L12.9375,14 C13.525,14 14,13.525 14,12.9375 L14,10.125 C14,10.05625 13.94375,10 13.875,10 Z M14.125,7.4375 L1.875,7.4375 C1.80625,7.4375 1.75,7.49375 1.75,7.5625 L1.75,8.4375 C1.75,8.50625 1.80625,8.5625 1.875,8.5625 L14.125,8.5625 C14.19375,8.5625 14.25,8.50625 14.25,8.4375 L14.25,7.5625 C14.25,7.49375 14.19375,7.4375 14.125,7.4375 Z" id="形状" fill="#000000"></path>
        </g>
    </g>
</svg>