<?xml version="1.0" encoding="UTF-8"?>
<svg width="16px" height="16px" viewBox="0 0 16 16" version="1.1" xmlns="http://www.w3.org/2000/svg" xmlns:xlink="http://www.w3.org/1999/xlink">
    <title>sort-ascending</title>
    <g id="sort-ascending" stroke="none" stroke-width="1" fill="none" fill-rule="evenodd">
        <g fill-rule="nonzero">
            <rect id="矩形" opacity="0" x="0" y="0" width="16" height="16"></rect>
            <path d="M13.11875,6.778125 L11.703125,2.3515625 C11.684375,2.290625 11.628125,2.25 11.5640625,2.25 L10.3546875,2.25 C10.290625,2.25 10.2359375,2.290625 10.215625,2.3515625 L8.7890625,6.778125 C8.784375,6.7921875 8.78125,6.8078125 8.78125,6.8234375 C8.78125,6.903125 8.846875,6.96875 8.9265625,6.96875 L9.8078125,6.96875 C9.8734375,6.96875 9.9296875,6.925 9.9484375,6.8625 L10.221875,5.9 L11.6125,5.9 L11.8828125,6.8609375 C11.9,6.9234375 11.9578125,6.9671875 12.0234375,6.9671875 L12.9796875,6.9671875 C12.9953125,6.9671875 13.009375,6.965625 13.0234375,6.9609375 C13.0609375,6.9484375 13.090625,6.9234375 13.109375,6.8890625 C13.1265625,6.8546875 13.1296875,6.815625 13.11875,6.778125 Z M10.3640625,5.0859375 L10.8765625,3.259375 L10.975,3.259375 L11.4765625,5.0859375 L10.3640625,5.0859375 L10.3640625,5.0859375 Z M12.60625,12.7875 L10.58125,12.7875 L10.58125,12.78125 L12.653125,9.8296875 C12.6703125,9.8046875 12.6796875,9.7765625 12.6796875,9.7453125 L12.6796875,9.1765625 C12.6796875,9.096875 12.6140625,9.03125 12.534375,9.03125 L9.346875,9.03125 C9.2671875,9.03125 9.2015625,9.096875 9.2015625,9.1765625 L9.2015625,9.8484375 C9.2015625,9.928125 9.2671875,9.99375 9.346875,9.99375 L11.2625,9.99375 L11.2625,10 L9.1828125,12.9515625 C9.165625,12.9765625 9.15625,13.0046875 9.15625,13.0359375 L9.15625,13.6046875 C9.15625,13.684375 9.221875,13.75 9.3015625,13.75 L12.6046875,13.75 C12.684375,13.75 12.7500273,13.684375 12.7500273,13.6046875 L12.7500273,12.9328125 C12.7515625,12.853125 12.6859375,12.7875 12.60625,12.7875 Z M6.5,10.96875 L5.3125,10.96875 L5.3125,2.6875 C5.3125,2.61875 5.25625,2.5625 5.1875,2.5625 L4.3125,2.5625 C4.24375,2.5625 4.1875,2.61875 4.1875,2.6875 L4.1875,10.96875 L3,10.96875 C2.8953125,10.96875 2.8359375,11.090625 2.9015625,11.171875 L4.6515625,13.3890625 C4.7015625,13.453125 4.7984375,13.453125 4.8484375,13.3890625 L6.5984375,11.171875 C6.6625,11.090625 6.6046875,10.96875 6.5,10.96875 Z" id="形状" fill="#000000"></path>
        </g>
    </g>
</svg>