<?xml version="1.0" standalone="no"?><!DOCTYPE svg PUBLIC "-//W3C//DTD SVG 1.1//EN" "http://www.w3.org/Graphics/SVG/1.1/DTD/svg11.dtd"><svg t="1650966173658" class="icon" viewBox="0 0 1024 1024" version="1.1" xmlns="http://www.w3.org/2000/svg" p-id="84488" xmlns:xlink="http://www.w3.org/1999/xlink" width="200" height="200"><defs><style type="text/css">@font-face { font-family: feedback-iconfont; src: url("//at.alicdn.com/t/font_1031158_u69w8yhxdu.woff2?t=1630033759944") format("woff2"), url("//at.alicdn.com/t/font_1031158_u69w8yhxdu.woff?t=1630033759944") format("woff"), url("//at.alicdn.com/t/font_1031158_u69w8yhxdu.ttf?t=1630033759944") format("truetype"); }
</style></defs><path d="M416 128a256 256 0 0 1 138.624 471.232c100.992 38.272 168.96 123.776 204.032 256.576a32 32 0 0 1-24.96 39.68l-5.76 0.512H104.064a32 32 0 0 1-30.72-40.192c35.008-132.8 103.04-218.304 203.968-256.64A256 256 0 0 1 416 128zM704 192a224 224 0 0 1 114.24 416.704c84.992 44.096 141.568 133.12 169.728 266.88a17.088 17.088 0 0 1-16.768 20.416H806.4c-29.312-137.088-85.504-260.608-192-300.8 67.2-45.12 104.448-139.776 96-243.2-6.272-76.864-35.2-110.528-64-155.328 14.592-3.072 41.984-4.672 57.6-4.672z" p-id="84489"></path></svg>