<?xml version="1.0" encoding="UTF-8"?>
<svg width="16px" height="16px" viewBox="0 0 16 16" version="1.1" xmlns="http://www.w3.org/2000/svg" xmlns:xlink="http://www.w3.org/1999/xlink">
    <title>vertical-left</title>
    <g id="vertical-left" stroke="none" stroke-width="1" fill="none" fill-rule="evenodd">
        <g fill-rule="nonzero">
            <rect id="矩形" opacity="0" x="0" y="0" width="16" height="16"></rect>
            <path d="M11.90625,2.5625 L10.90625,2.5625 C10.8375,2.5625 10.78125,2.61875 10.78125,2.6875 L10.78125,13.4375 C10.78125,13.50625 10.8375,13.5625 10.90625,13.5625 L11.90625,13.5625 C11.975,13.5625 12.03125,13.50625 12.03125,13.4375 L12.03125,2.6875 C12.03125,2.61875 11.975,2.5625 11.90625,2.5625 Z M3.96875,2.5625 L3.96875,3.69375 C3.96875,3.8421875 4.034375,3.98125 4.146875,4.0765625 L8.821875,8 L4.146875,11.9234375 C4.034375,12.01875 3.96875,12.1578125 3.96875,12.30625 L3.96875,13.4375 C3.96875,13.54375 4.0921875,13.6015625 4.1734375,13.5328125 L10.765625,8 L4.1734375,2.4671875 C4.0921875,2.3984375 3.96875,2.45625 3.96875,2.5625 Z" id="形状" fill="#000000"></path>
        </g>
    </g>
</svg>