<?xml version="1.0" encoding="UTF-8"?>
<svg width="300px" height="300px" viewBox="0 0 440 440" version="1.1" xmlns="http://www.w3.org/2000/svg" xmlns:xlink="http://www.w3.org/1999/xlink">
    <title>404</title>
    <defs>
        <linearGradient x1="84.1795738%" y1="50%" x2="9.69601562%" y2="63.2053639%" id="linearGradient-1">
            <stop stop-color="#F5F8FD" offset="0%"></stop>
            <stop stop-color="#F8FCFF" offset="100%"></stop>
        </linearGradient>
        <linearGradient x1="0%" y1="12.2270113%" x2="100%" y2="12.2270113%" id="linearGradient-2">
            <stop stop-color="#FFFFFF" offset="0%"></stop>
            <stop stop-color="#E8ECF5" offset="1.35199415%"></stop>
            <stop stop-color="#E8EFF5" offset="44.5445371%"></stop>
            <stop stop-color="#F0F8FD" offset="47.7886202%"></stop>
            <stop stop-color="#DDE7ED" offset="51.5633153%"></stop>
            <stop stop-color="#D6E3EF" offset="98.5646709%"></stop>
            <stop stop-color="#EFF4F7" offset="100%"></stop>
        </linearGradient>
        <linearGradient x1="0%" y1="44.6683903%" x2="100%" y2="44.3984426%" id="linearGradient-3">
            <stop stop-color="#F7FBFF" offset="0%"></stop>
            <stop stop-color="#E2EFFF" offset="1.02641373%"></stop>
            <stop stop-color="#E2EFFF" offset="2.48923189%"></stop>
            <stop stop-color="#E2EFFF" offset="42.4244364%"></stop>
            <stop stop-color="#BAD5FE" offset="47.3335808%"></stop>
            <stop stop-color="#92BAFF" offset="50.8995302%"></stop>
            <stop stop-color="#BAD5FE" offset="96.4993553%"></stop>
            <stop stop-color="#BAD5FE" offset="98.2405648%"></stop>
            <stop stop-color="#E3EEFF" offset="100%"></stop>
        </linearGradient>
        <linearGradient x1="79.1635533%" y1="0%" x2="2.21622707%" y2="144.913377%" id="linearGradient-4">
            <stop stop-color="#D7E6F9" offset="0%"></stop>
            <stop stop-color="#4084FF" offset="100%"></stop>
        </linearGradient>
        <linearGradient x1="56.3811554%" y1="87.8951039%" x2="50%" y2="19.2272009%" id="linearGradient-5">
            <stop stop-color="#4184FE" stop-opacity="0" offset="0%"></stop>
            <stop stop-color="#4184FE" stop-opacity="0.5" offset="100%"></stop>
        </linearGradient>
        <linearGradient x1="20.0176105%" y1="50%" x2="100%" y2="50%" id="linearGradient-6">
            <stop stop-color="#000000" stop-opacity="0.1" offset="0%"></stop>
            <stop stop-color="#000000" stop-opacity="0" offset="100%"></stop>
        </linearGradient>
        <linearGradient x1="24.4644786%" y1="51.6730673%" x2="66.7063015%" y2="55.7066893%" id="linearGradient-7">
            <stop stop-color="#000000" stop-opacity="0.05" offset="0%"></stop>
            <stop stop-color="#000000" stop-opacity="0" offset="100%"></stop>
        </linearGradient>
        <linearGradient x1="24.4644786%" y1="51.3601482%" x2="66.7063015%" y2="54.639349%" id="linearGradient-8">
            <stop stop-color="#000000" stop-opacity="0.05" offset="0%"></stop>
            <stop stop-color="#000000" stop-opacity="0" offset="100%"></stop>
        </linearGradient>
        <linearGradient x1="24.4644786%" y1="54.2837863%" x2="66.7063015%" y2="64.6116284%" id="linearGradient-9">
            <stop stop-color="#000000" stop-opacity="0.05" offset="0%"></stop>
            <stop stop-color="#000000" stop-opacity="0" offset="100%"></stop>
        </linearGradient>
        <linearGradient x1="20.0176105%" y1="50%" x2="100%" y2="50%" id="linearGradient-10">
            <stop stop-color="#000000" stop-opacity="0.1" offset="0%"></stop>
            <stop stop-color="#000000" stop-opacity="0" offset="100%"></stop>
        </linearGradient>
        <linearGradient x1="0%" y1="49.9951406%" x2="95.9988243%" y2="49.9951406%" id="linearGradient-11">
            <stop stop-color="#BAD5FE" offset="0%"></stop>
            <stop stop-color="#92BAFF" offset="100%"></stop>
        </linearGradient>
        <linearGradient x1="0%" y1="49.9951406%" x2="95.9988243%" y2="49.9951406%" id="linearGradient-12">
            <stop stop-color="#BAD5FE" offset="0%"></stop>
            <stop stop-color="#92BAFF" offset="100%"></stop>
        </linearGradient>
        <linearGradient x1="0%" y1="12.2270113%" x2="100%" y2="12.2270113%" id="linearGradient-13">
            <stop stop-color="#FFFFFF" offset="0%"></stop>
            <stop stop-color="#F0F8FD" offset="29.3870192%"></stop>
            <stop stop-color="#E8EFF5" offset="66.3379589%"></stop>
            <stop stop-color="#D6E3EF" offset="98.5646709%"></stop>
            <stop stop-color="#EFF4F7" offset="100%"></stop>
        </linearGradient>
        <linearGradient x1="0%" y1="49.9951406%" x2="95.9988243%" y2="49.9951406%" id="linearGradient-14">
            <stop stop-color="#BAD5FE" offset="0%"></stop>
            <stop stop-color="#92BAFF" offset="100%"></stop>
        </linearGradient>
        <linearGradient x1="0%" y1="49.9951406%" x2="95.9988243%" y2="49.9951406%" id="linearGradient-15">
            <stop stop-color="#BAD5FE" offset="0%"></stop>
            <stop stop-color="#92BAFF" offset="100%"></stop>
        </linearGradient>
        <linearGradient x1="0%" y1="49.9951406%" x2="95.9988243%" y2="49.9951406%" id="linearGradient-16">
            <stop stop-color="#BAD5FE" offset="0%"></stop>
            <stop stop-color="#92BAFF" offset="100%"></stop>
        </linearGradient>
        <linearGradient x1="50%" y1="74.9992602%" x2="50%" y2="100%" id="linearGradient-17">
            <stop stop-color="#C2C5C8" offset="0%"></stop>
            <stop stop-color="#A5A7AD" offset="100%"></stop>
        </linearGradient>
        <linearGradient x1="34.9772876%" y1="40.7866307%" x2="50%" y2="68.1015169%" id="linearGradient-18">
            <stop stop-color="#AEB0B5" offset="0%"></stop>
            <stop stop-color="#A6A7AB" offset="100%"></stop>
        </linearGradient>
        <linearGradient x1="75.2525548%" y1="54.2123461%" x2="0.548853587%" y2="52.2202015%" id="linearGradient-19">
            <stop stop-color="#F8F8F8" offset="0%"></stop>
            <stop stop-color="#B6B6B6" offset="100%"></stop>
        </linearGradient>
        <linearGradient x1="41.7994177%" y1="55.5024327%" x2="50%" y2="68.1015169%" id="linearGradient-20">
            <stop stop-color="#ADAFB2" offset="0%"></stop>
            <stop stop-color="#A3A4AA" offset="100%"></stop>
        </linearGradient>
        <linearGradient x1="39.4351389%" y1="3.95073095%" x2="57.3657886%" y2="100%" id="linearGradient-21">
            <stop stop-color="#DFDFDF" offset="0%"></stop>
            <stop stop-color="#CFD2E1" offset="39.9557474%"></stop>
            <stop stop-color="#D5D7DD" offset="100%"></stop>
        </linearGradient>
        <linearGradient x1="56.5320889%" y1="1.95363366%" x2="54.6652806%" y2="100%" id="linearGradient-22">
            <stop stop-color="#C0C5D1" offset="0%"></stop>
            <stop stop-color="#DADCE1" offset="83.1926409%"></stop>
            <stop stop-color="#FFFFFF" offset="100%"></stop>
        </linearGradient>
        <linearGradient x1="24.4644786%" y1="50.4413585%" x2="66.7063015%" y2="51.5054361%" id="linearGradient-23">
            <stop stop-color="#000000" stop-opacity="0.05" offset="0%"></stop>
            <stop stop-color="#000000" stop-opacity="0" offset="100%"></stop>
        </linearGradient>
        <linearGradient x1="24.4644786%" y1="50.2923902%" x2="66.7063015%" y2="50.997318%" id="linearGradient-24">
            <stop stop-color="#000000" stop-opacity="0.05" offset="0%"></stop>
            <stop stop-color="#000000" stop-opacity="0" offset="100%"></stop>
        </linearGradient>
        <linearGradient x1="62.5177893%" y1="23.0386796%" x2="50%" y2="71.6994669%" id="linearGradient-25">
            <stop stop-color="#000000" stop-opacity="0.1" offset="0%"></stop>
            <stop stop-color="#000000" stop-opacity="0" offset="100%"></stop>
        </linearGradient>
    </defs>
    <g id="404" stroke="none" stroke-width="1" fill="none" fill-rule="evenodd">
        <g id="编组-7备份-2" transform="translate(21.718240, 78.919727)">
            <g id="编组-6备份-2" transform="translate(264.415189, 61.300000)">
                <g id="编组-4备份" transform="translate(0.000000, 31.127939)">
                    <path d="M40.8276112,38.2337933 L103.873947,20.6648426 C105.86368,20.1103693 107.926166,21.2738767 108.480639,23.2636092 C108.660341,23.9084701 108.663665,24.5897438 108.490265,25.2363277 L91.454267,88.7611986 C90.6916169,91.6050149 88.4285261,93.8000718 85.5627626,94.4755906 L24.8579074,108.78496 C22.8474617,109.258863 20.8334992,108.013249 20.3595962,106.002803 C20.2236486,105.426071 20.22668,104.82529 20.3684404,104.249959 L35.2074465,44.0262259 C35.8982388,41.2226629 38.0461751,39.0088885 40.8276112,38.2337933 Z" id="矩形" fill="url(#linearGradient-1)" transform="translate(64.546702, 64.546702) rotate(-315.000000) translate(-64.546702, -64.546702) "></path>
                    <path d="M7.19993494,80.2135531 L57.7998287,111.631303 L57.7998287,111.631303 C60.5193089,113.319843 63.9445553,113.385628 66.7268668,111.802757 L121.238609,80.7907371 C123.741948,79.3707858 125.286869,76.7140079 125.285805,73.8359954 C125.282479,67.309809 125.281799,64.2197332 125.283764,64.5657679 C125.288298,65.1956582 125.131786,65.8350133 124.800125,66.4229312 C124.470892,67.0065446 123.991049,67.4910932 123.410677,67.826006 L66.83144,100.475913 C64.0469739,102.082732 60.6049451,102.030204 57.870806,100.339169 L5.20630635,67.7667461 C4.05784043,67.0564323 3.42749027,65.8258792 3.43138694,64.5677511 L3.41990326,73.4066953 C3.4163039,76.177105 4.84630919,78.752174 7.19993494,80.2135531 Z" id="路径" fill="url(#linearGradient-2)"></path>
                </g>
                <g id="编组-5" transform="translate(0.000000, 15.622616)">
                    <path d="M40.8276112,38.2337933 L103.873947,20.6648426 C105.86368,20.1103693 107.926166,21.2738767 108.480639,23.2636092 C108.660341,23.9084701 108.663665,24.5897438 108.490265,25.2363277 L91.454267,88.7611986 C90.6916169,91.6050149 88.4285261,93.8000718 85.5627626,94.4755906 L24.8579074,108.78496 C22.8474617,109.258863 20.8334992,108.013249 20.3595962,106.002803 C20.2236486,105.426071 20.22668,104.82529 20.3684404,104.249959 L35.2074465,44.0262259 C35.8982388,41.2226629 38.0461751,39.0088885 40.8276112,38.2337933 Z" id="矩形备份-4" fill="#92BAFF" transform="translate(64.546702, 64.546702) rotate(-315.000000) translate(-64.546702, -64.546702) "></path>
                    <path d="M7.19993494,80.2206228 L57.7998287,111.638372 L57.7998287,111.638372 C60.5193089,113.326912 63.9445553,113.392698 66.7268668,111.809826 L121.238609,80.7978068 C123.741948,79.3778555 125.286869,76.7210776 125.285805,73.8430651 C125.282479,67.3168787 125.281799,64.2268029 125.283764,64.5728376 C125.288298,65.2027279 125.131786,65.842083 124.800125,66.4300009 C124.470892,67.0136142 123.991049,67.4981628 123.410677,67.8330756 L66.83144,100.482983 C64.0469739,102.089801 60.6049451,102.037274 57.870806,100.346239 L5.20630635,67.7738158 C4.05784043,67.063502 3.42749027,65.8329488 3.43138694,64.5748208 L3.41990326,73.4137649 C3.4163039,76.1841746 4.84630919,78.7592437 7.19993494,80.2206228 Z" id="路径备份-2" fill="url(#linearGradient-3)"></path>
                </g>
                <g id="编组-4">
                    <path d="M40.8276112,38.2337933 L103.873947,20.6648426 C105.86368,20.1103693 107.926166,21.2738767 108.480639,23.2636092 C108.660341,23.9084701 108.663665,24.5897438 108.490265,25.2363277 L91.454267,88.7611986 C90.6916169,91.6050149 88.4285261,93.8000718 85.5627626,94.4755906 L24.8579074,108.78496 C22.8474617,109.258863 20.8334992,108.013249 20.3595962,106.002803 C20.2236486,105.426071 20.22668,104.82529 20.3684404,104.249959 L35.2074465,44.0262259 C35.8982388,41.2226629 38.0461751,39.0088885 40.8276112,38.2337933 Z" id="矩形" fill="url(#linearGradient-1)" transform="translate(64.546702, 64.546702) rotate(-315.000000) translate(-64.546702, -64.546702) "></path>
                    <path d="M7.19993494,79.8329454 L57.7998287,111.250695 L57.7998287,111.250695 C60.5193089,112.939235 63.9445553,113.005021 66.7268668,111.422149 L121.238609,80.4101294 C123.741948,78.9901781 125.286869,76.3334002 125.285805,73.4553877 C125.282479,66.9292014 125.281799,63.8391255 125.283764,64.1851602 C125.288298,64.8150506 125.131786,65.4544056 124.800125,66.0423235 C124.470892,66.6259369 123.991049,67.1104855 123.410677,67.4453983 L66.83144,100.095306 C64.0469739,101.702124 60.6049451,101.649597 57.870806,99.9585614 L5.20630635,67.3861384 C4.05784043,66.6758246 3.42749027,65.4452715 3.43138694,64.1871434 L3.41990326,73.0260876 C3.4163039,75.7964973 4.84630919,78.3715663 7.19993494,79.8329454 Z" id="路径" fill="url(#linearGradient-2)"></path>
                </g>
            </g>
            <path d="M278.350764,178.038877 L306.484514,195.436536 L247.012273,230.49719 L247.012273,230.49719 C231.587307,239.563498 214.829496,244.60881 196.73884,245.633126 C178.648184,246.657442 160.223999,242.075275 141.466285,231.886625 L172.134846,214.406789 C186.655235,222.626494 201.38726,222.143214 216.330921,212.95695 C216.330921,212.95695 216.333296,212.955698 216.338018,212.953244 L278.350764,178.038877 Z" id="形状结合备份" fill="#F0F6FF"></path>
            <g id="编组-8" transform="translate(55.714854, 99.600000)">
                <g id="编组-6备份-3">
                    <g id="编组-4备份" transform="translate(0.000000, 31.289834)">
                        <path d="M40.8276112,38.2337933 L103.873947,20.6648426 C105.86368,20.1103693 107.926166,21.2738767 108.480639,23.2636092 C108.660341,23.9084701 108.663665,24.5897438 108.490265,25.2363277 L91.454267,88.7611986 C90.6916169,91.6050149 88.4285261,93.8000718 85.5627626,94.4755906 L24.8579074,108.78496 C22.8474617,109.258863 20.8334992,108.013249 20.3595962,106.002803 C20.2236486,105.426071 20.22668,104.82529 20.3684404,104.249959 L35.2074465,44.0262259 C35.8982388,41.2226629 38.0461751,39.0088885 40.8276112,38.2337933 Z" id="矩形" fill="url(#linearGradient-1)" transform="translate(64.546702, 64.546702) rotate(-315.000000) translate(-64.546702, -64.546702) "></path>
                        <path d="M7.19993494,80.2135531 L57.7998287,111.631303 L57.7998287,111.631303 C60.5193089,113.319843 63.9445553,113.385628 66.7268668,111.802757 L121.238609,80.7907371 C123.741948,79.3707858 125.286869,76.7140079 125.285805,73.8359954 C125.282479,67.309809 125.281799,64.2197332 125.283764,64.5657679 C125.288298,65.1956582 125.131786,65.8350133 124.800125,66.4229312 C124.470892,67.0065446 123.991049,67.4910932 123.410677,67.826006 L66.83144,100.475913 C64.0469739,102.082732 60.6049451,102.030204 57.870806,100.339169 L5.20630635,67.7667461 C4.05784043,67.0564323 3.42749027,65.8258792 3.43138694,64.5677511 L3.41990326,73.4066953 C3.4163039,76.177105 4.84630919,78.752174 7.19993494,80.2135531 Z" id="路径" fill="url(#linearGradient-2)"></path>
                    </g>
                    <g id="编组-5" transform="translate(0.000000, 15.784510)">
                        <path d="M40.8276112,38.2337933 L103.873947,20.6648426 C105.86368,20.1103693 107.926166,21.2738767 108.480639,23.2636092 C108.660341,23.9084701 108.663665,24.5897438 108.490265,25.2363277 L91.454267,88.7611986 C90.6916169,91.6050149 88.4285261,93.8000718 85.5627626,94.4755906 L24.8579074,108.78496 C22.8474617,109.258863 20.8334992,108.013249 20.3595962,106.002803 C20.2236486,105.426071 20.22668,104.82529 20.3684404,104.249959 L35.2074465,44.0262259 C35.8982388,41.2226629 38.0461751,39.0088885 40.8276112,38.2337933 Z" id="矩形备份-4" fill="#92BAFF" transform="translate(64.546702, 64.546702) rotate(-315.000000) translate(-64.546702, -64.546702) "></path>
                        <path d="M7.19993494,80.2206228 L57.7998287,111.638372 L57.7998287,111.638372 C60.5193089,113.326912 63.9445553,113.392698 66.7268668,111.809826 L121.238609,80.7978068 C123.741948,79.3778555 125.286869,76.7210776 125.285805,73.8430651 C125.282479,67.3168787 125.281799,64.2268029 125.283764,64.5728376 C125.288298,65.2027279 125.131786,65.842083 124.800125,66.4300009 C124.470892,67.0136142 123.991049,67.4981628 123.410677,67.8330756 L66.83144,100.482983 C64.0469739,102.089801 60.6049451,102.037274 57.870806,100.346239 L5.20630635,67.7738158 C4.05784043,67.063502 3.42749027,65.8329488 3.43138694,64.5748208 L3.41990326,73.4137649 C3.4163039,76.1841746 4.84630919,78.7592437 7.19993494,80.2206228 Z" id="路径备份-2" fill="url(#linearGradient-3)"></path>
                    </g>
                    <g id="编组-4">
                        <path d="M40.8276112,38.2337933 L103.873947,20.6648426 C105.86368,20.1103693 107.926166,21.2738767 108.480639,23.2636092 C108.660341,23.9084701 108.663665,24.5897438 108.490265,25.2363277 L91.454267,88.7611986 C90.6916169,91.6050149 88.4285261,93.8000718 85.5627626,94.4755906 L24.8579074,108.78496 C22.8474617,109.258863 20.8334992,108.013249 20.3595962,106.002803 C20.2236486,105.426071 20.22668,104.82529 20.3684404,104.249959 L35.2074465,44.0262259 C35.8982388,41.2226629 38.0461751,39.0088885 40.8276112,38.2337933 Z" id="矩形" fill="url(#linearGradient-1)" transform="translate(64.546702, 64.546702) rotate(-315.000000) translate(-64.546702, -64.546702) "></path>
                        <path d="M7.19993494,79.9948397 L57.7998287,111.412589 L57.7998287,111.412589 C60.5193089,113.101129 63.9445553,113.166915 66.7268668,111.584043 L121.238609,80.5720238 C123.741948,79.1520724 125.286869,76.4952945 125.285805,73.6172821 C125.282479,67.0910957 125.281799,64.0010199 125.283764,64.3470546 C125.288298,64.9769449 125.131786,65.6162999 124.800125,66.2042178 C124.470892,66.7878312 123.991049,67.2723798 123.410677,67.6072926 L66.83144,100.2572 C64.0469739,101.864018 60.6049451,101.811491 57.870806,100.120456 L5.20630635,67.5480327 C4.05784043,66.837719 3.42749027,65.6071658 3.43138694,64.3490377 L3.41990326,73.1879819 C3.4163039,75.9583916 4.84630919,78.5334607 7.19993494,79.9948397 Z" id="路径" fill="url(#linearGradient-2)"></path>
                    </g>
                </g>
                <g id="编组-15" transform="translate(32.346453, 10.191619)">
                    <g id="编组-12" transform="translate(23.940563, 37.000000) scale(-1, 1) translate(-23.940563, -37.000000) ">
                        <g id="编组-9">
                            <path d="M3.91828995,74 L1.02973798,72.5924453 C0.397897981,72.2845577 -0.00602310708,71.6017068 0,70.8519689 L0.374152205,25.8621431 C0.379797885,25.1829014 0.721858468,24.5591681 1.27015802,24.2283135 L41.0251548,0.239377226 C41.3685761,0.0321501519 41.766569,-0.0436607842 42.1547519,0.0242080359 L46.9015778,0.854129899 C46.9890951,0.905476404 46.9789933,0.945002995 46.8712723,0.972709671 C46.7635514,1.00041635 46.640807,1.05225366 46.5030393,1.12822161 L4.16436648,26.2908314 C3.6107856,26.6198341 3.26443816,27.2465115 3.25852383,27.9298535 L2.87476872,72.2689797 C2.98742705,72.7561625 3.1175645,73.1061868 3.26518106,73.3190526 C3.41279762,73.5319183 3.63050058,73.7589008 3.91828995,74 Z" id="路径-20" fill="url(#linearGradient-4)"></path>
                            <path d="M3.90980582,26.535234 L45.9392518,1.51375647 C46.5732449,1.13632005 47.3699886,1.38643199 47.7188286,2.07239713 C47.8252975,2.28175945 47.8811258,2.51684415 47.8811258,2.75580623 L47.8811258,47.1249948 C47.8811258,47.6416017 47.6213962,48.1173102 47.2032132,48.3666275 L5.1737672,73.4242471 C4.53998698,73.8021018 3.74310251,73.5525157 3.39387592,72.8667808 C3.28715843,72.6572324 3.23119325,72.4218693 3.23119325,72.1826144 L3.23119325,27.7772838 C3.23119325,27.2603672 3.49123159,26.7844247 3.90980582,26.535234 Z" id="路径-19" stroke="#FFFFFF" fill="url(#linearGradient-5)" stroke-linejoin="round"></path>
                        </g>
                        <path d="M35.8690099,39.6861302 L35.7505608,53.4703508 C35.7466231,53.9929534 35.5878386,54.4015342 35.3092565,54.6059007 C35.0306744,54.8102671 34.6552018,54.7936146 34.2657219,54.5596212 L16.6433851,44.0059501 C15.8645946,43.540443 15.2280457,42.3397062 15.1934952,41.2709876 L15.3124941,27.4227773 L35.8690099,39.6861302 Z M28.3849426,39.22978 C28.4951779,39.1310742 28.4931518,38.8772566 28.3773038,38.6499141 C28.2571651,38.4141514 28.0601113,38.2961397 27.9371717,38.3863276 L25.5335827,40.1487081 L23.1857443,35.5407911 L23.1725848,35.5159856 C23.0516249,35.2968646 22.864161,35.1902378 22.7456121,35.2772047 C22.6226726,35.3673925 22.620402,35.6316277 22.7405406,35.8673903 L25.0887129,40.4750623 L22.6857913,42.2387141 L22.673081,42.2490338 C22.5628456,42.3477396 22.5648717,42.6015571 22.6807197,42.8288997 C22.8008584,43.0646624 22.9979123,43.182674 23.1208519,43.0924862 L25.5234472,41.3281941 L27.8722793,45.9380226 L27.8854387,45.9628282 C28.0063987,46.1819491 28.1938625,46.288576 28.3124114,46.2016091 C28.435351,46.1114212 28.4376216,45.8471861 28.3174829,45.6114235 L25.968317,41.0018399 L28.3849426,39.22978 Z M34.4687554,30.9321047 C34.857952,31.1656049 35.2293156,31.5967272 35.5011959,32.1306881 C35.7730033,32.6644217 35.9232093,33.2572886 35.9187264,33.7789786 L35.8848377,37.7226929 L15.3297672,25.4126654 L15.3646241,21.3562735 C15.4182039,20.3395849 16.0701532,19.9110844 16.8495307,20.3802975 L34.4687554,30.9321047 Z M17.6505962,22.8386409 L17.4815563,22.7373925 C17.3135418,22.6507408 17.1531986,22.6507457 17.0315919,22.7401824 C16.8897173,22.8445251 16.814189,23.0605764 16.824153,23.3335678 L16.8232464,23.4468585 C16.831676,23.678084 16.9009332,23.9344913 17.0196988,24.1677913 C17.1582588,24.4399746 17.3509584,24.6546846 17.5491325,24.7576975 L17.6336712,24.8082398 C17.8017583,24.8949166 17.9621804,24.8949924 18.083921,24.8056841 C18.2259518,24.701491 18.301727,24.4856174 18.2920759,24.2126779 L18.292986,24.0992803 C18.2845439,23.867833 18.2151589,23.6111643 18.0961918,23.3777008 C17.9573969,23.1053268 17.7644112,22.8906298 17.566059,22.7879269 L17.6505962,22.8386409 Z M19.8529992,24.1576168 L19.6839593,24.0563684 C19.5159449,23.9697167 19.3556016,23.9697216 19.2339949,24.0591583 C19.0921204,24.163501 19.0165921,24.3795523 19.0265561,24.6525437 C19.0123685,24.9109489 19.083542,25.2145838 19.2221019,25.4867672 C19.3606619,25.7589505 19.5533615,25.9736605 19.7515356,26.0766734 L19.8360743,26.1272157 C20.0041614,26.2138925 20.1645834,26.2139683 20.2863241,26.12466 C20.4283549,26.0204669 20.5041301,25.8045933 20.494479,25.5316538 L20.4953891,25.4182562 C20.486947,25.1868089 20.417562,24.9301402 20.2985949,24.6966767 C20.1598,24.4243027 19.9668143,24.2096057 19.768462,24.1069028 L19.8529992,24.1576168 Z M22.0554023,25.4765927 L21.8863264,25.3753365 C21.7182394,25.2886596 21.5578173,25.2885838 21.4360766,25.3778922 C21.2940459,25.4820853 21.2182707,25.6979589 21.2279218,25.9708983 L21.2270117,26.084296 C21.2354538,26.3157432 21.3048388,26.5724119 21.4238059,26.8058754 C21.5626008,27.0782495 21.7555864,27.2929464 21.9539387,27.3956493 L22.0384774,27.4461916 C22.2065644,27.5328684 22.3669865,27.5329442 22.4887272,27.4436359 C22.630758,27.3394428 22.7065331,27.1235692 22.6968821,26.8506297 L22.6977922,26.7372321 C22.68935,26.5057848 22.619965,26.2491161 22.500998,26.0156526 C22.3622031,25.7432786 22.1692174,25.5285816 21.9708651,25.4258787 L22.0554023,25.4765927 Z M27.1101514,28.5036963 C26.620498,28.2104525 26.3728502,28.3921256 26.3672081,29.0487158 C26.3615659,29.705306 26.6035716,30.180223 27.093225,30.4734668 L33.6993969,34.4297732 C34.1890503,34.7230171 34.4366981,34.5413439 34.4423402,33.8847537 C34.4479824,33.2281635 34.2059767,32.7532465 33.7163233,32.4600027 L27.1101514,28.5036963 Z" id="形状结合备份-2" fill="#FFFFFF" fill-rule="nonzero" transform="translate(25.556160, 37.469210) scale(-1, 1) translate(-25.556160, -37.469210) "></path>
                    </g>
                    <path d="M69.4004978,41.9735079 L47.6386402,41.9735079 L47.8811258,70.7990365 C47.8738168,71.1929747 47.80345,71.5206439 47.6700256,71.7820444 C47.5366011,72.0434448 47.3160995,72.2856343 47.0085208,72.5086129 L43.9628359,74 L67.1417969,74 L69.4004978,41.9735079 Z" id="路径-12" fill="url(#linearGradient-6)"></path>
                </g>
            </g>
            <g id="编组-14" transform="translate(0.000000, 143.301929)">
                <g id="编组-6">
                    <polygon id="路径-8" fill="#BAD5FE" points="15.8115716 0 -5.67756122e-14 8.63273826 15.8115716 17.2654765 31.9618282 8.81023699"></polygon>
                    <polygon id="路径-9" fill="#E2EFFF" points="0 8.63273826 0 27.7352436 15.8115716 36.3870603 15.8115716 17.2654765"></polygon>
                    <polygon id="路径-10" fill="#92BAFF" points="31.9618282 27.2322085 15.8115716 36.3870603 15.8115716 17.2654765 31.9618282 8.81023699"></polygon>
                </g>
                <path d="M15.8115716,36.3870603 L55.7148537,36.3870603 C55.7148537,25.3366172 55.7148537,19.8113957 55.7148537,19.8113957 C55.7148537,19.8113957 47.7971785,19.8113957 31.9618282,19.8113957 L31.9618282,27.2322085 L15.8115716,36.3870603 Z" id="路径-11" fill="url(#linearGradient-7)"></path>
            </g>
            <path d="M117.99148,243.896524 L194.671238,243.445969 C226.324913,212.744309 242.15175,197.39348 242.15175,197.39348 C242.15175,197.39348 221.768884,197.39348 181.003152,197.39348 L181.003152,204.134107 C180.980796,205.472713 180.815551,206.586298 180.507418,207.474864 C179.944459,209.098272 178.844992,210.453792 177.209016,211.541424 L122.411207,242.712337 C121.917802,242.994424 121.348915,243.238968 120.704547,243.445969 C120.060178,243.652969 119.155823,243.803155 117.99148,243.896524 Z" id="路径-11备份-3" fill="url(#linearGradient-8)"></path>
            <path d="M326.601578,205.487401 L389.703487,205.036845 C394.276842,174.335186 396.56352,158.984356 396.56352,158.984356 C396.56352,158.984356 394.246763,158.984356 389.61325,158.984356 L389.61325,165.724984 C389.590893,167.063589 389.425649,168.177175 389.117516,169.06574 C388.554557,170.689148 387.455089,172.044668 385.819113,173.1323 L331.021304,204.303214 C330.5279,204.585301 329.959013,204.829845 329.314645,205.036845 C328.670276,205.243846 327.76592,205.394031 326.601578,205.487401 Z" id="路径-11备份-4" fill="url(#linearGradient-9)"></path>
            <g id="编组-7备份" transform="translate(179.949690, 245.773485)">
                <g id="编组-6">
                    <polygon id="路径-8" fill="#BAD5FE" points="15.8115716 0 -5.67756122e-14 8.63273826 15.8115716 17.2654765 31.9618282 8.81023699"></polygon>
                    <polygon id="路径-9" fill="#E2EFFF" points="0 8.63273826 0 27.7352436 15.8115716 36.3870603 15.8115716 17.2654765"></polygon>
                    <polygon id="路径-10" fill="#92BAFF" points="31.9618282 27.2322085 15.8115716 36.3870603 15.8115716 17.2654765 31.9618282 8.81023699"></polygon>
                </g>
                <path d="M15.8115716,36.3870603 L55.7148537,36.3870603 C55.7148537,25.3366172 55.7148537,19.8113957 55.7148537,19.8113957 C55.7148537,19.8113957 47.7971785,19.8113957 31.9618282,19.8113957 L31.9618282,27.2322085 L15.8115716,36.3870603 Z" id="路径-11" fill="url(#linearGradient-7)"></path>
            </g>
            <g id="编组-13" transform="translate(97.640988, 174.584275)">
                <path d="M1.12817175,36.5321315 L11.7196425,43.1602231 C12.1374645,43.4216941 12.3372634,44.0813735 12.1659058,44.6336582 C11.9945482,45.185943 11.5169238,45.4216941 11.0991018,45.1602231 L0.507630979,38.5321315 C0.0898089931,38.2706605 -0.109989867,37.6109812 0.0613677345,37.0586964 C0.232725336,36.5064117 0.710349761,36.2706605 1.12817175,36.5321315 Z" id="矩形" fill="#FFFFFF"></path>
                <path d="M1.12817175,20.7725396 L11.7196425,27.4006311 C12.1374645,27.6621021 12.3372634,28.3217815 12.1659058,28.8740662 C11.9945482,29.426351 11.5169238,29.6621021 11.0991018,29.4006311 L0.507630979,22.7725396 C0.0898089931,22.5110686 -0.109989867,21.8513892 0.0613677345,21.2991045 C0.232725336,20.7468197 0.710349761,20.5110686 1.12817175,20.7725396 Z" id="矩形备份-6" fill="#92BAFF"></path>
                <path d="M1.12817175,51.6978563 L11.7196425,58.3259478 C12.1374645,58.5874188 12.3372634,59.2470982 12.1659058,59.799383 C11.9945482,60.3516677 11.5169238,60.5874188 11.0991018,60.3259478 L0.507630979,53.6978563 C0.0898089931,53.4363853 -0.109989867,52.7767059 0.0613677345,52.2244212 C0.232725336,51.6721364 0.710349761,51.4363853 1.12817175,51.6978563 Z" id="矩形备份-7" fill="#92BAFF"></path>
                <path d="M76.5185542,2.58398476 C77.184693,2.21642513 77.6898456,1.37844699 77.646844,0.712308197 C77.6038424,0.0461694055 77.0289706,-0.195876831 76.3628318,0.171682797 C75.696693,0.539242425 75.1915405,1.37722056 75.234542,2.04335936 C75.2775436,2.70949815 75.8524154,2.95154438 76.5185542,2.58398476 Z" id="椭圆形" fill="#92BAFF"></path>
                <path d="M72.8664136,4.66216496 C73.5325524,4.29460534 74.0377049,3.4566272 73.9947033,2.79048841 C73.9517017,2.12434961 73.3768299,1.88230338 72.7106911,2.24986301 C72.0445523,2.61742263 71.5393998,3.45540077 71.5824014,4.12153956 C71.6254029,4.78767836 72.2002748,5.02972459 72.8664136,4.66216496 Z" id="椭圆形备份" fill="#92BAFF"></path>
                <path d="M69.2142729,6.73752182 C69.8804117,6.36996219 70.3855642,5.53198405 70.3425626,4.86584526 C70.2995611,4.19970647 69.7246892,3.95766023 69.0585504,4.32521986 C68.3924116,4.69277948 67.8872591,5.53075762 67.9302607,6.19689642 C67.9732622,6.86303521 68.5481341,7.10508144 69.2142729,6.73752182 Z" id="椭圆形备份-2" fill="#92BAFF"></path>
                <g id="编组-11" transform="translate(67.927707, 15.900000)" fill="#FFFFFF">
                    <path d="M8.59084746,2.58398476 C9.25698625,2.21642513 9.76213878,1.37844699 9.71913722,0.712308197 C9.67613565,0.0461694055 9.1012638,-0.195876831 8.43512501,0.171682797 C7.76898622,0.539242425 7.26383369,1.37722056 7.30683526,2.04335936 C7.34983682,2.70949815 7.92470867,2.95154438 8.59084746,2.58398476 Z" id="椭圆形"></path>
                    <path d="M4.93870678,4.66216496 C5.60484557,4.29460534 6.1099981,3.4566272 6.06699654,2.79048841 C6.02399497,2.12434961 5.44912313,1.88230338 4.78298433,2.24986301 C4.11684554,2.61742263 3.61169301,3.45540077 3.65469458,4.12153956 C3.69769615,4.78767836 4.27256799,5.02972459 4.93870678,4.66216496 Z" id="椭圆形备份"></path>
                    <path d="M1.28656611,6.73752182 C1.9527049,6.36996219 2.45785743,5.53198405 2.41485586,4.86584526 C2.37185429,4.19970647 1.79698245,3.95766023 1.13084366,4.32521986 C0.464704865,4.69277948 -0.0404476645,5.53075762 0.00255390242,6.19689642 C0.0455554693,6.86303521 0.620427314,7.10508144 1.28656611,6.73752182 Z" id="椭圆形备份-2"></path>
                </g>
                <g id="编组-11备份" transform="translate(67.927707, 30.800000)" fill="#FFFFFF">
                    <path d="M8.59084746,2.58398476 C9.25698625,2.21642513 9.76213878,1.37844699 9.71913722,0.712308197 C9.67613565,0.0461694055 9.1012638,-0.195876831 8.43512501,0.171682797 C7.76898622,0.539242425 7.26383369,1.37722056 7.30683526,2.04335936 C7.34983682,2.70949815 7.92470867,2.95154438 8.59084746,2.58398476 Z" id="椭圆形"></path>
                    <path d="M4.93870678,4.66216496 C5.60484557,4.29460534 6.1099981,3.4566272 6.06699654,2.79048841 C6.02399497,2.12434961 5.44912313,1.88230338 4.78298433,2.24986301 C4.11684554,2.61742263 3.61169301,3.45540077 3.65469458,4.12153956 C3.69769615,4.78767836 4.27256799,5.02972459 4.93870678,4.66216496 Z" id="椭圆形备份"></path>
                    <path d="M1.28656611,6.73752182 C1.9527049,6.36996219 2.45785743,5.53198405 2.41485586,4.86584526 C2.37185429,4.19970647 1.79698245,3.95766023 1.13084366,4.32521986 C0.464704865,4.69277948 -0.0404476645,5.53075762 0.00255390242,6.19689642 C0.0455554693,6.86303521 0.620427314,7.10508144 1.28656611,6.73752182 Z" id="椭圆形备份-2"></path>
                </g>
            </g>
            <g id="编组-13备份" transform="translate(308.027030, 135.831754)">
                <path d="M1.12817175,36.5321315 L11.7196425,43.1602231 C12.1374645,43.4216941 12.3372634,44.0813735 12.1659058,44.6336582 C11.9945482,45.185943 11.5169238,45.4216941 11.0991018,45.1602231 L0.507630979,38.5321315 C0.0898089931,38.2706605 -0.109989867,37.6109812 0.0613677345,37.0586964 C0.232725336,36.5064117 0.710349761,36.2706605 1.12817175,36.5321315 Z" id="矩形" fill="#FFFFFF"></path>
                <path d="M1.12817175,20.7725396 L11.7196425,27.4006311 C12.1374645,27.6621021 12.3372634,28.3217815 12.1659058,28.8740662 C11.9945482,29.426351 11.5169238,29.6621021 11.0991018,29.4006311 L0.507630979,22.7725396 C0.0898089931,22.5110686 -0.109989867,21.8513892 0.0613677345,21.2991045 C0.232725336,20.7468197 0.710349761,20.5110686 1.12817175,20.7725396 Z" id="矩形备份-6" fill="#92BAFF"></path>
                <path d="M1.12817175,51.6978563 L11.7196425,58.3259478 C12.1374645,58.5874188 12.3372634,59.2470982 12.1659058,59.799383 C11.9945482,60.3516677 11.5169238,60.5874188 11.0991018,60.3259478 L0.507630979,53.6978563 C0.0898089931,53.4363853 -0.109989867,52.7767059 0.0613677345,52.2244212 C0.232725336,51.6721364 0.710349761,51.4363853 1.12817175,51.6978563 Z" id="矩形备份-7" fill="#92BAFF"></path>
                <path d="M76.5185542,2.58398476 C77.184693,2.21642513 77.6898456,1.37844699 77.646844,0.712308197 C77.6038424,0.0461694055 77.0289706,-0.195876831 76.3628318,0.171682797 C75.696693,0.539242425 75.1915405,1.37722056 75.234542,2.04335936 C75.2775436,2.70949815 75.8524154,2.95154438 76.5185542,2.58398476 Z" id="椭圆形" fill="#92BAFF"></path>
                <path d="M72.8664136,4.66216496 C73.5325524,4.29460534 74.0377049,3.4566272 73.9947033,2.79048841 C73.9517017,2.12434961 73.3768299,1.88230338 72.7106911,2.24986301 C72.0445523,2.61742263 71.5393998,3.45540077 71.5824014,4.12153956 C71.6254029,4.78767836 72.2002748,5.02972459 72.8664136,4.66216496 Z" id="椭圆形备份" fill="#92BAFF"></path>
                <path d="M69.2142729,6.73752182 C69.8804117,6.36996219 70.3855642,5.53198405 70.3425626,4.86584526 C70.2995611,4.19970647 69.7246892,3.95766023 69.0585504,4.32521986 C68.3924116,4.69277948 67.8872591,5.53075762 67.9302607,6.19689642 C67.9732622,6.86303521 68.5481341,7.10508144 69.2142729,6.73752182 Z" id="椭圆形备份-2" fill="#92BAFF"></path>
                <g id="编组-11" transform="translate(67.927707, 15.900000)" fill="#FFFFFF">
                    <path d="M8.59084746,2.58398476 C9.25698625,2.21642513 9.76213878,1.37844699 9.71913722,0.712308197 C9.67613565,0.0461694055 9.1012638,-0.195876831 8.43512501,0.171682797 C7.76898622,0.539242425 7.26383369,1.37722056 7.30683526,2.04335936 C7.34983682,2.70949815 7.92470867,2.95154438 8.59084746,2.58398476 Z" id="椭圆形"></path>
                    <path d="M4.93870678,4.66216496 C5.60484557,4.29460534 6.1099981,3.4566272 6.06699654,2.79048841 C6.02399497,2.12434961 5.44912313,1.88230338 4.78298433,2.24986301 C4.11684554,2.61742263 3.61169301,3.45540077 3.65469458,4.12153956 C3.69769615,4.78767836 4.27256799,5.02972459 4.93870678,4.66216496 Z" id="椭圆形备份"></path>
                    <path d="M1.28656611,6.73752182 C1.9527049,6.36996219 2.45785743,5.53198405 2.41485586,4.86584526 C2.37185429,4.19970647 1.79698245,3.95766023 1.13084366,4.32521986 C0.464704865,4.69277948 -0.0404476645,5.53075762 0.00255390242,6.19689642 C0.0455554693,6.86303521 0.620427314,7.10508144 1.28656611,6.73752182 Z" id="椭圆形备份-2"></path>
                </g>
                <g id="编组-11备份" transform="translate(67.927707, 30.800000)" fill="#FFFFFF">
                    <path d="M8.59084746,2.58398476 C9.25698625,2.21642513 9.76213878,1.37844699 9.71913722,0.712308197 C9.67613565,0.0461694055 9.1012638,-0.195876831 8.43512501,0.171682797 C7.76898622,0.539242425 7.26383369,1.37722056 7.30683526,2.04335936 C7.34983682,2.70949815 7.92470867,2.95154438 8.59084746,2.58398476 Z" id="椭圆形"></path>
                    <path d="M4.93870678,4.66216496 C5.60484557,4.29460534 6.1099981,3.4566272 6.06699654,2.79048841 C6.02399497,2.12434961 5.44912313,1.88230338 4.78298433,2.24986301 C4.11684554,2.61742263 3.61169301,3.45540077 3.65469458,4.12153956 C3.69769615,4.78767836 4.27256799,5.02972459 4.93870678,4.66216496 Z" id="椭圆形备份"></path>
                    <path d="M1.28656611,6.73752182 C1.9527049,6.36996219 2.45785743,5.53198405 2.41485586,4.86584526 C2.37185429,4.19970647 1.79698245,3.95766023 1.13084366,4.32521986 C0.464704865,4.69277948 -0.0404476645,5.53075762 0.00255390242,6.19689642 C0.0455554693,6.86303521 0.620427314,7.10508144 1.28656611,6.73752182 Z" id="椭圆形备份-2"></path>
                </g>
            </g>
            <g id="飞机" transform="translate(306.484514, 52.910672)">
                <polygon id="路径-12" fill="url(#linearGradient-10)" points="60.5416739 57.6609518 35.3657198 49.2938271 26.5623128 57.6609518 21.4977488 75.8591419 21.4977488 88 52.9281768 91.8302868"></polygon>
                <path d="M18.5741889,82.0624616 C18.5741889,82.0624616 16.8251578,82.0832421 16.3749121,80.8641155 C16.2999258,80.6789278 16.2071322,80.50146 16.0978379,80.334211 L14.5912468,77.9271286 C14.5912468,77.9271286 12.1668472,75.1563863 13.2058756,72.3856439 L23.9425022,72.3856439 C23.9425022,72.3856439 24.6871392,74.7130675 23.6238668,76.320098 C22.5605944,77.9271286 19.7863887,81.7368993 19.7863887,81.7368993 C19.4291395,81.9758183 19.0030678,82.0902489 18.5741889,82.0624616 L18.5741889,82.0624616 Z" id="路径" fill="url(#linearGradient-11)" fill-rule="nonzero"></path>
                <ellipse id="椭圆形" fill="url(#linearGradient-12)" fill-rule="nonzero" cx="18.5741889" cy="72.3856439" rx="5.3683133" ry="2.42439956"></ellipse>
                <path d="M13.8985612,2.42439956 C13.8985612,2.42439956 15.6302751,0 19.4400459,0 C21.7143995,0.013748333 23.8676209,1.027029 25.3278734,2.77074235 C25.3278734,2.77074235 37.1035284,15.2390829 37.1035284,33.9415938 C36.7571856,39.8294213 36.7571856,55.7611898 23.9425022,69.9612444 C22.2107882,72.0393011 21.8021037,72.5449616 18.7161894,72.8116455 C15.6302751,73.0783295 13.8985612,70.266026 13.8985612,70.266026 C13.8985612,70.266026 7.66439088,63.3807313 2.46924898,46.7562772 C1.77656339,42.9465064 -3.07223572,21.1269104 13.8985612,2.42439956 Z" id="路径" fill="url(#linearGradient-13)"></path>
                <path d="M3.70222932,50.4759988 C3.70222932,50.4759988 0.391192214,49.5270195 0.0448494202,58.5319322 C-0.301493374,67.5368448 1.47178173,79.9601608 1.47178173,79.9601608 L1.77656339,79.6588426 L5.93267692,65.458788 C5.93267692,65.458788 6.21667801,63.152145 9.01859121,62.746924 L3.70222932,50.4759988 Z" id="路径" fill="url(#linearGradient-14)" fill-rule="nonzero"></path>
                <path d="M34.9679764,49.3046503 C34.9679764,49.3046503 38.4314044,48.6119647 38.0850616,58.3095629 C37.7387188,68.0071612 35.660662,80.4755017 35.660662,80.4755017 L35.3143192,80.1291589 L31.8508913,65.2779799 C31.8508913,65.2779799 31.1582057,62.1193337 29.7728345,61.7729909 L34.9679764,49.3046503 Z" id="路径" fill="url(#linearGradient-15)" fill-rule="nonzero"></path>
                <path d="M19.7863887,58.1855894 C19.7863887,58.1855894 21.1717598,56.8002182 22.557131,58.5319322 C23.9425022,60.2636461 23.9632828,81.7888508 22.9034738,86.6134059 C22.557131,88.3174124 21.5181026,87.9710696 21.5181026,87.9710696 C21.5181026,87.9710696 20.1327315,88.3174124 19.7863887,81.7368993 C19.7863887,79.3124998 20.4790743,61.9953601 19.4400459,60.6099889 C19.0937031,59.9173033 19.7863887,58.1855894 19.7863887,58.1855894 Z" id="路径" fill="url(#linearGradient-16)" fill-rule="nonzero"></path>
                <path d="M19.3499967,60.2082313 L19.3499967,69.0780702 L19.8729744,78.1522514 C19.8729744,78.1522514 20.6418554,62.5806794 19.3499967,60.2082313 Z" id="路径" fill="#699BFF" fill-rule="nonzero"></path>
                <circle id="椭圆形" stroke="#D0D6DF" stroke-width="3" fill="#FFFFFF" cx="20.1000555" cy="24.7044428" r="6.06207693"></circle>
            </g>
            <g id="编组-3" transform="translate(116.458113, 34.239048)">
                <g id="编组">
                    <polygon id="路径备份" fill="#F9F9F9" points="53.5471074 6.36737521 41.5646207 12.7347504 30.964779 6.84638635 43.4367614 0"></polygon>
                    <polygon id="路径-2备份" fill="#DFE3E9" points="30.964779 6.84638635 0 48.2165432 0 66.1724746 36.898203 87.8265362 36.898203 108.944846 47.0666414 115.215409 47.0666414 59.0322189 36.898203 53.1936637 36.898203 77.2575745 8.41150406 61.0308977 8.41150406 56.3859784 41.5646207 12.7347504"></polygon>
                    <polygon id="路径-3备份" fill="#F9F9F9" points="36.898203 53.1936637 48.5428078 46.5477474 59.0431719 52.7899831 47.0666414 59.0322189"></polygon>
                    <polygon id="路径-4备份" fill="#D0D6DF" points="59.0431719 52.7899831 59.0431719 108.206748 47.0666414 115.215409 47.0666414 59.0322189"></polygon>
                    <polygon id="路径-5备份-2" fill="url(#linearGradient-17)" points="41.5646207 12.7347504 53.5471074 6.36737521 21.2065851 49.5405635 8.41150406 56.3859784"></polygon>
                    <polygon id="路径-7备份" fill="#FFFFFF" points="36.898203 63.6095983 8.41150406 61.0308977 36.898203 77.2575745"></polygon>
                    <polygon id="路径-8备份-2" fill="url(#linearGradient-18)" points="21.2065851 49.5405635 8.41150406 56.3859784 8.41150406 61.0308977 21.2065851 54.5402742"></polygon>
                    <polygon id="路径-6备份" fill="url(#linearGradient-19)" points="8.41150406 61.0308977 21.2065851 54.5402742 36.898203 63.6095983"></polygon>
                </g>
                <g id="编组备份-2" transform="translate(141.960605, 88.760684)">
                    <polygon id="路径备份" fill="#F9F9F9" points="53.5471074 6.36737521 41.5646207 12.7347504 30.964779 6.84638635 43.4367614 0"></polygon>
                    <polygon id="路径-2备份" fill="#DFE3E9" points="30.964779 6.84638635 0 48.2165432 0 66.1724746 36.898203 87.8265362 36.898203 108.944846 47.0666414 115.215409 47.0666414 59.0322189 36.898203 53.1936637 36.898203 77.2575745 8.41150406 61.0308977 8.41150406 56.3859784 41.5646207 12.7347504"></polygon>
                    <polygon id="路径-3备份" fill="#F9F9F9" points="36.898203 53.1936637 48.5428078 46.5477474 59.0431719 52.7899831 47.0666414 59.0322189"></polygon>
                    <polygon id="路径-4备份" fill="#D0D6DF" points="59.0431719 52.7899831 59.0431719 108.206748 47.0666414 115.215409 47.0666414 59.0322189"></polygon>
                    <polygon id="路径-5备份-2" fill="url(#linearGradient-17)" points="41.5646207 12.7347504 53.5471074 6.36737521 21.2065851 49.5405635 8.41150406 56.3859784"></polygon>
                    <polygon id="路径-7备份" fill="#FFFFFF" points="36.898203 63.6095983 8.41150406 61.0308977 36.898203 77.2575745"></polygon>
                    <polygon id="路径-8备份-2" fill="url(#linearGradient-20)" points="21.2065851 49.5405635 8.41150406 56.3859784 8.41150406 61.0308977 21.2065851 54.5402742"></polygon>
                    <polygon id="路径-6备份" fill="url(#linearGradient-19)" points="8.41150406 61.0308977 21.2065851 54.5402742 36.898203 63.6095983"></polygon>
                </g>
                <g id="编组-2" transform="translate(71.140305, 33.907495)">
                    <path d="M5.27556574,9.69533598 C11.1639886,4.63138967 24.7396431,8.6356705 30.7831442,12.7798954 L30.7831442,12.7798954 L31.2348621,13.0933436 C44.4248683,22.3545407 52.2913199,37.4684741 52.2913249,53.6080581 L52.2913249,53.6080581 L52.2913249,102.055702 C52.2913249,117.508614 40.2995435,120.996489 25.2962232,112.075305 C12.1986103,104.287282 5.27556574,97.5911964 1.31845138,79.8935593 L1.31845138,79.8935593 L1.28410621,79.73959 C0.963383504,78.2960425 0.482834872,75.9101806 0.0241096261,67.808513 C0.0138824995,67.3057097 0.0068257822,65.6040238 0.00293947411,62.7034552 L0.00222687433,62.1270844 C0.00211470584,62.0285276 0.00200583643,61.9287231 0.00190026609,61.8276712 L0.00103920802,60.8845202 C0.00095343212,60.775983 0.000870955293,60.6661983 0.000791777539,60.5551661 L0.000791777539,50.4051017 C0.000870955293,50.2341877 0.00095343212,50.0620262 0.00103920802,49.8886171 L0.00190026609,48.2942521 C0.00200583643,48.1133578 0.00211470584,47.9312159 0.00222687433,47.7478266 L0.00293947411,46.63252 C0.0068257822,40.7927554 0.0138824995,33.7541081 0.0241096261,25.5165782 C0.0241096261,18.2036967 1.774595,12.9299493 5.27556574,9.69533598 Z M13.6756646,21.0009619 C11.6572464,22.7548697 10.6480373,26.9276196 10.6480373,33.5192115 C10.642466,37.9347314 10.6381009,41.9019321 10.634942,45.4208136 L10.6340722,46.4140091 C10.6336538,46.9045073 10.6332599,47.3858561 10.6328907,47.8580555 L10.632185,48.7902553 C10.6320729,48.9435887 10.6319635,49.0959055 10.6318568,49.2472058 L10.6312497,50.142808 C10.6311539,50.2900418 10.6310609,50.4362591 10.6309707,50.5814597 L10.6300189,52.2750709 C10.6299505,52.4121388 10.6298849,52.5481901 10.629822,52.6832248 L10.6290835,54.6325002 C10.629048,54.757369 10.6290151,54.8812211 10.628985,55.0040566 L10.628985,58.6886041 C10.6290151,58.7890745 10.629048,58.8885283 10.6290835,58.9869655 L10.629822,60.3872786 C10.6298849,60.4755498 10.6299505,60.5628045 10.6300189,60.6490425 L10.6309707,61.6351022 C10.6310609,61.7132075 10.6311539,61.7902962 10.6312497,61.8663682 L10.6318568,62.3106014 C10.6319635,62.3826071 10.6320729,62.4535962 10.632185,62.5235687 L10.6328907,62.9312044 C10.6332599,63.1289227 10.6336538,63.3174916 10.6340722,63.4969111 L10.634942,63.843551 C10.6381009,65.0140937 10.642466,65.7363171 10.6480373,66.0102212 C10.6480373,90.9017132 17.46311,99.782849 27.8252129,104.192703 C34.852167,107.183201 41.9472492,106.103248 41.9472492,94.849771 L41.9472492,47.209905 C41.3812095,36.6718806 37.3206987,28.8125201 29.7657167,23.6318237 C25.0515684,20.3991792 18.936655,16.5000779 13.6756646,21.0009619 Z" id="形状结合" fill="#DFE3E9"></path>
                    <path d="M17.262901,1.914301 C19.1184737,0.709574801 21.2742881,0.0486088192 23.4862279,0.00574610856 C30.7594194,-0.134842793 37.9972583,2.30438895 45.1997444,7.32344134 C52.2913249,12.2652091 57.0778916,20.174471 59.7950826,25.6225529 C61.1958741,28.4311987 62.5270801,32.7457705 63.7887004,38.5662681 C64.4097971,41.4321159 64.7231674,44.3560986 64.7231674,47.2884772 L64.7231674,94.4644427 C64.2654724,102.839235 61.2129921,108.227678 55.5657264,110.629773 C55.5657264,110.629773 52.8847395,111.925678 47.5227657,114.517489 C50.5338583,112.133715 52.2913249,107.971482 52.2913249,102.055702 C52.2913249,102.055702 52.2913249,85.9064935 52.2913249,53.6080761 C52.2913249,37.2850806 44.2450754,22.0111787 30.7831442,12.7798954 C25.2830297,9.00828836 13.5778903,5.3365593 7.07281952,8.52680706 L17.262901,1.914301 Z" id="路径" fill="url(#linearGradient-21)"></path>
                    <path d="M41.7858426,97.6000641 C41.8096112,97.4116141 41.8308383,97.219375 41.8494682,97.0232992 C40.9744449,106.232226 34.3702768,106.97812 27.8252129,104.192703 C17.46311,99.782849 10.6480373,90.9017132 10.6480373,66.0102212 C10.6395451,65.592713 10.6338553,64.1335589 10.630968,61.6327588 L10.6304739,61.1665897 C10.6303967,61.0869818 10.6303221,61.0064174 10.63025,60.9248965 L10.6291151,59.3542162 C10.6291151,59.2612171 10.6291151,59.1672615 10.6291151,59.0723493 L10.6291151,54.523608 C10.6291151,54.4019134 10.6291151,54.2792623 10.6291151,54.1556547 L10.63025,51.8274137 C10.6303221,51.6923279 10.6303967,51.5562856 10.6304739,51.4192867 L10.630968,50.5858155 C10.6338553,45.9385934 10.6395451,40.2497254 10.6480373,33.5192115 C10.6480373,26.9276196 11.66584,22.8293285 13.6756646,21.0009619 C17.7749034,17.2718248 23.1237737,19.8272648 23.1237737,19.8272648 L23.1237737,66.7100255 C23.1237767,67.1063053 23.138881,67.5024411 23.1690109,67.8975739 C23.5894101,73.4028964 24.3652618,77.5891947 25.496566,80.4564687 C29.2029329,89.8502017 36.1630711,95.3199224 41.7858426,97.6000641 C41.8285608,97.6173872 41.9043842,97.6442337 41.9472492,97.6614139" id="路径" fill="url(#linearGradient-22)"></path>
                </g>
            </g>
            <path d="M163.524755,149.454457 L187.231289,149.454457 C193.326847,144.782017 196.374626,142.445796 196.374626,142.445796 C196.374626,142.445796 189.416846,142.445796 175.501285,142.445796 L163.524755,149.454457 Z" id="路径-11备份-5" fill="url(#linearGradient-23)"></path>
            <path d="M305.396302,238.215141 L329.102836,238.215141 C335.198394,233.542701 338.246173,231.20648 338.246173,231.20648 C338.246173,231.20648 331.288393,231.20648 317.372832,231.20648 L305.396302,238.215141 Z" id="路径-11备份-6" fill="url(#linearGradient-23)"></path>
            <path d="M228.724856,185.011597 L254.660323,185.011597 C259.158586,181.227904 261.407717,179.336058 261.407717,179.336058 C261.407717,179.336058 254.94602,179.336058 242.022626,179.336058 C237.421665,181.554708 235.121184,182.664032 235.121184,182.664032 C234.706019,182.99644 233.767684,183.591992 233.225023,183.85255 C231.8505,184.512528 230.350444,184.898876 228.724856,185.011597 Z" id="路径-11备份" fill="url(#linearGradient-24)"></path>
            <g id="飞船" transform="translate(180.071615, 0.000000)">
                <polygon id="路径-21" fill="url(#linearGradient-25)" points="64.9567561 86 67.276094 48.5643964 25.5364502 38.0905002 8.96957189 75.3152449"></polygon>
                <g id="编组-10" transform="translate(-0.000000, 0.000000)">
                    <path d="M25.1602365,37.7471304 C39.8104415,43.209843 53.9339377,46.5932248 67.5307252,47.897276 C67.5307252,47.897276 59.9379707,57.9855367 45.3316008,55.4193785 C35.5940209,53.7086065 28.8702328,47.8178571 25.1602365,37.7471304 Z" id="路径-16" fill="#F9F9F9" transform="translate(46.345481, 46.792250) rotate(1.000000) translate(-46.345481, -46.792250) "></path>
                    <circle id="椭圆形" fill="#BAD5FE" cx="65.4637619" cy="6.36537452" r="2.26804858"></circle>
                    <circle id="椭圆形备份-3" fill="#BAD5FE" cx="47.0480883" cy="2.26804858" r="2.26804858"></circle>
                    <path d="M44.8949328,44.0089361 C71.465233,49.8735094 94.7168006,50.6265415 96.8287626,45.6908805 C98.9407247,40.7552194 79.1133241,31.9998995 52.543024,26.1353262 C25.9727238,20.2707529 2.72115617,19.5177208 0.609194114,24.4533819 C-1.50276794,29.389043 18.3246326,38.1443628 44.8949328,44.0089361 Z" id="椭圆形" fill="#BAD5FE" transform="translate(48.718978, 35.072131) rotate(2.000000) translate(-48.718978, -35.072131) "></path>
                    <path d="M46.4509943,38.1831707 C62.2094406,41.6613611 75.9995963,42.1079732 77.2521693,39.1807067 C78.5047423,36.2534402 66.7454086,31.0607914 50.9869624,27.582601 C35.2285162,24.1044106 21.4383604,23.6577985 20.1857874,26.585065 C18.9332145,29.5123315 30.6925481,34.7049803 46.4509943,38.1831707 Z" id="椭圆形" fill="#92BAFF" transform="translate(48.718978, 32.882886) rotate(2.000000) translate(-48.718978, -32.882886) "></path>
                    <path d="M25.815109,27.4593696 C41.4824609,35.9057873 56.9210101,39.6259259 72.1307564,38.6197852 C72.1307564,38.6197852 72.1307564,18.1080542 53.2610366,14.4181705 C40.6812233,11.958248 31.5325808,16.3053144 25.815109,27.4593696 Z" id="路径-15" fill="#F9F9F9"></path>
                    <path d="M65.213756,20.7870244 C62.4657899,17.8762681 58.6261198,15.467287 53.2610366,14.4181705 C48.6337476,13.5133262 44.4707036,13.5294825 40.7719045,14.4666393 C40.7559225,14.4706887 40.740002,14.4746771 40.724143,14.4786049 C45.3536067,20.9904959 55.1671656,23.2616483 65.290753,20.8730694 L65.213756,20.7870244 Z" id="路径" fill="#BAD5FE"></path>
                    <line x1="47.9152176" y1="13.7514419" x2="47.1891021" y2="4.09732594" id="路径-17" stroke="#BAD5FE"></line>
                    <line x1="58.3041355" y1="16.1607445" x2="64.9567561" y2="7.3344189" id="路径-18" stroke="#BAD5FE"></line>
                </g>
            </g>
        </g>
    </g>
</svg>