<?xml version="1.0" encoding="UTF-8"?>
<svg width="197px" height="174px" viewBox="0 0 197 174" version="1.1" xmlns="http://www.w3.org/2000/svg" xmlns:xlink="http://www.w3.org/1999/xlink">
    <title>形状结合</title>
    <g id="页面规范" stroke="none" stroke-width="1" fill="none" fill-rule="evenodd">
        <g id="cute首页" transform="translate(-861.000000, -138.000000)" fill="#333333" fill-rule="nonzero">
            <g id="编组-4" transform="translate(808.000000, 138.808000)">
                <path d="M115.905,63.922 L115.905,67.882 C115.905,69.862 115.53,71.737 114.78,73.507 C114.03,75.277 112.995,76.852 111.675,78.232 C110.355,79.612 108.81,80.707 107.04,81.517 C105.27,82.327 103.365,82.732 101.325,82.732 C99.585,82.732 97.815,82.492 96.015,82.012 C94.215,81.532 92.595,80.692 91.155,79.492 C89.715,78.292 88.53,76.747 87.6,74.857 C86.67,72.967 86.205,70.552 86.205,67.612 L86.205,32.332 C86.205,30.232 86.565,28.282 87.285,26.482 C88.005,24.682 89.025,23.122 90.345,21.802 C91.665,20.482 93.24,19.447 95.07,18.697 C96.9,17.947 98.925,17.572 101.145,17.572 C105.465,17.572 108.975,18.982 111.675,21.802 C112.995,23.182 114.03,24.817 114.78,26.707 C115.53,28.597 115.905,30.652 115.905,32.872 L115.905,36.472 L106.725,36.472 L106.725,33.412 C106.725,31.612 106.215,30.052 105.195,28.732 C104.175,27.412 102.795,26.752 101.055,26.752 C98.775,26.752 97.26,27.457 96.51,28.867 C95.76,30.277 95.385,32.062 95.385,34.222 L95.385,66.982 C95.385,68.842 95.79,70.402 96.6,71.662 C97.41,72.922 98.865,73.552 100.965,73.552 C101.565,73.552 102.21,73.447 102.9,73.237 C103.59,73.027 104.235,72.682 104.835,72.202 C105.375,71.722 105.825,71.062 106.185,70.222 C106.545,69.382 106.725,68.332 106.725,67.072 L106.725,63.922 L115.905,63.922 Z M153.075,18.112 L153.075,67.792 C153.075,69.892 152.7,71.827 151.95,73.597 C151.2,75.367 150.135,76.942 148.755,78.322 C147.375,79.702 145.785,80.782 143.985,81.562 C142.185,82.342 140.265,82.732 138.225,82.732 C136.185,82.732 134.28,82.342 132.51,81.562 C130.74,80.782 129.165,79.702 127.785,78.322 C126.405,76.942 125.325,75.367 124.545,73.597 C123.765,71.827 123.375,69.892 123.375,67.792 L123.375,18.112 L132.555,18.112 L132.555,66.892 C132.555,69.172 133.095,70.852 134.175,71.932 C135.255,73.012 136.605,73.552 138.225,73.552 C139.845,73.552 141.195,73.012 142.275,71.932 C143.355,70.852 143.895,69.172 143.895,66.892 L143.895,18.112 L153.075,18.112 Z M167.745,82.192 L167.745,26.752 L157.125,26.752 L157.125,18.112 L187.545,18.112 L187.545,26.752 L176.925,26.752 L176.925,82.192 L167.745,82.192 Z M191.595,82.192 L191.595,18.112 L218.955,18.112 L218.955,26.752 L200.775,26.752 L200.775,45.562 L216.615,45.562 L216.615,54.202 L200.775,54.202 L200.775,73.012 L218.955,73.012 L218.955,82.192 L191.595,82.192 Z M53.4,172.192 L53.4,108.112 L66.99,108.112 C72.27,108.112 76.275,109.552 79.005,112.432 C81.735,115.312 83.1,119.392 83.1,124.672 L83.1,154.642 C83.1,160.642 81.645,165.067 78.735,167.917 C75.825,170.767 71.64,172.192 66.18,172.192 L53.4,172.192 Z M62.58,116.752 L62.58,163.552 L66.81,163.552 C69.39,163.552 71.22,162.907 72.3,161.617 C73.38,160.327 73.92,158.302 73.92,155.542 L73.92,124.672 C73.92,122.152 73.41,120.202 72.39,118.822 C71.37,117.442 69.51,116.752 66.81,116.752 L62.58,116.752 Z M91.74,172.192 L91.74,108.112 L119.1,108.112 L119.1,116.752 L100.92,116.752 L100.92,135.562 L116.76,135.562 L116.76,144.202 L100.92,144.202 L100.92,163.012 L119.1,163.012 L119.1,172.192 L91.74,172.192 Z M154.74,126.562 L145.56,126.562 L145.56,124.492 C145.56,122.392 145.065,120.577 144.075,119.047 C143.085,117.517 141.42,116.752 139.08,116.752 C137.82,116.752 136.8,116.992 136.02,117.472 C135.24,117.952 134.61,118.552 134.13,119.272 C133.65,120.052 133.32,120.937 133.14,121.927 C132.96,122.917 132.87,123.952 132.87,125.032 C132.87,126.292 132.915,127.342 133.005,128.182 C133.095,129.022 133.32,129.772 133.68,130.432 C134.04,131.092 134.565,131.662 135.255,132.142 C135.945,132.622 136.89,133.102 138.09,133.582 L145.11,136.372 C147.15,137.152 148.8,138.067 150.06,139.117 C151.32,140.167 152.31,141.382 153.03,142.762 C153.69,144.202 154.14,145.837 154.38,147.667 C154.62,149.497 154.74,151.582 154.74,153.922 C154.74,156.622 154.47,159.127 153.93,161.437 C153.39,163.747 152.52,165.712 151.32,167.332 C150.06,169.012 148.41,170.332 146.37,171.292 C144.33,172.252 141.84,172.732 138.9,172.732 C136.68,172.732 134.61,172.342 132.69,171.562 C130.77,170.782 129.12,169.702 127.74,168.322 C126.36,166.942 125.265,165.337 124.455,163.507 C123.645,161.677 123.24,159.682 123.24,157.522 L123.24,154.102 L132.42,154.102 L132.42,156.982 C132.42,158.662 132.915,160.177 133.905,161.527 C134.895,162.877 136.56,163.552 138.9,163.552 C140.46,163.552 141.675,163.327 142.545,162.877 C143.415,162.427 144.09,161.782 144.57,160.942 C145.05,160.102 145.335,159.097 145.425,157.927 C145.515,156.757 145.56,155.452 145.56,154.012 C145.56,152.332 145.5,150.952 145.38,149.872 C145.26,148.792 145.02,147.922 144.66,147.262 C144.24,146.602 143.685,146.062 142.995,145.642 C142.305,145.222 141.39,144.772 140.25,144.292 L133.68,141.592 C129.72,139.972 127.065,137.827 125.715,135.157 C124.365,132.487 123.69,129.142 123.69,125.122 C123.69,122.722 124.02,120.442 124.68,118.282 C125.34,116.122 126.33,114.262 127.65,112.702 C128.91,111.142 130.515,109.897 132.465,108.967 C134.415,108.037 136.74,107.572 139.44,107.572 C141.72,107.572 143.805,107.992 145.695,108.832 C147.585,109.672 149.22,110.782 150.6,112.162 C153.36,115.042 154.74,118.342 154.74,122.062 L154.74,126.562 Z M161.85,172.192 L161.85,108.112 L171.03,108.112 L171.03,172.192 L161.85,172.192 Z M179.4,123.232 C179.4,120.652 179.85,118.372 180.75,116.392 C181.65,114.412 182.85,112.762 184.35,111.442 C185.79,110.182 187.425,109.222 189.255,108.562 C191.085,107.902 192.93,107.572 194.79,107.572 C196.65,107.572 198.495,107.902 200.325,108.562 C202.155,109.222 203.82,110.182 205.32,111.442 C206.76,112.762 207.93,114.412 208.83,116.392 C209.73,118.372 210.18,120.652 210.18,123.232 L210.18,126.472 L201,126.472 L201,123.232 C201,121.012 200.385,119.377 199.155,118.327 C197.925,117.277 196.47,116.752 194.79,116.752 C193.11,116.752 191.655,117.277 190.425,118.327 C189.195,119.377 188.58,121.012 188.58,123.232 L188.58,157.072 C188.58,159.292 189.195,160.927 190.425,161.977 C191.655,163.027 193.11,163.552 194.79,163.552 C196.47,163.552 197.925,163.027 199.155,161.977 C200.385,160.927 201,159.292 201,157.072 L201,145.012 L193.71,145.012 L193.71,136.912 L210.18,136.912 L210.18,157.072 C210.18,159.772 209.73,162.082 208.83,164.002 C207.93,165.922 206.76,167.512 205.32,168.772 C203.82,170.092 202.155,171.082 200.325,171.742 C198.495,172.402 196.65,172.732 194.79,172.732 C192.93,172.732 191.085,172.402 189.255,171.742 C187.425,171.082 185.79,170.092 184.35,168.772 C182.85,167.512 181.65,165.922 180.75,164.002 C179.85,162.082 179.4,159.772 179.4,157.072 L179.4,123.232 Z M217.92,172.192 L217.92,108.112 L226.74,108.112 L240.6,146.722 L240.78,146.722 L240.78,108.112 L249.96,108.112 L249.96,172.192 L241.32,172.192 L227.28,133.672 L227.1,133.672 L227.1,172.192 L217.92,172.192 Z M68.656,0 L71.368,0 L70.72,4.032 L73.864,4.032 L74.488,0 L77.2,0 L76.552,4.032 L79.216,4.032 L78.952,5.64 L76.312,5.64 L75.88,8.424 L78.52,8.424 L78.256,10.032 L75.616,10.032 L74.92,14.4 L72.208,14.4 L72.904,10.032 L69.784,10.032 L69.088,14.4 L66.376,14.4 L67.072,10.032 L64.432,10.032 L64.672,8.424 L67.336,8.424 L67.768,5.64 L65.104,5.64 L65.368,4.032 L68.008,4.032 L68.656,0 Z M73.6,5.64 L70.48,5.64 L70.024,8.424 L73.168,8.424 L73.6,5.64 Z" id="形状结合"></path>
            </g>
        </g>
    </g>
</svg>