<?xml version="1.0" encoding="UTF-8"?>
<svg width="300px" height="300px" viewBox="0 0 440 440" version="1.1" xmlns="http://www.w3.org/2000/svg" xmlns:xlink="http://www.w3.org/1999/xlink">
    <title>暂无数据</title>
    <defs>
        <linearGradient x1="0%" y1="61.4544525%" x2="100%" y2="50%" id="linearGradient-1">
            <stop stop-color="#000000" stop-opacity="0.1" offset="0%"></stop>
            <stop stop-color="#000000" stop-opacity="0" offset="100%"></stop>
        </linearGradient>
        <linearGradient x1="50%" y1="0%" x2="50%" y2="100%" id="linearGradient-2">
            <stop stop-color="#E8EEF5" offset="0%"></stop>
            <stop stop-color="#CBD9E6" offset="100%"></stop>
        </linearGradient>
        <linearGradient x1="38.3472057%" y1="0%" x2="61.6527943%" y2="100%" id="linearGradient-3">
            <stop stop-color="#F9F9F9" offset="0%"></stop>
            <stop stop-color="#F9F9F9" stop-opacity="0.6" offset="100%"></stop>
        </linearGradient>
        <linearGradient x1="24.4644786%" y1="52.0161295%" x2="66.7063015%" y2="56.8768452%" id="linearGradient-4">
            <stop stop-color="#000000" stop-opacity="0.05" offset="0%"></stop>
            <stop stop-color="#000000" stop-opacity="0" offset="100%"></stop>
        </linearGradient>
        <linearGradient x1="50%" y1="50%" x2="50%" y2="90.5225806%" id="linearGradient-5">
            <stop stop-color="#DCE2EA" offset="0%"></stop>
            <stop stop-color="#DFE3E9" offset="100%"></stop>
        </linearGradient>
        <linearGradient x1="0%" y1="40.0322055%" x2="100%" y2="53.9872944%" id="linearGradient-6">
            <stop stop-color="#D0D6DF" offset="0%"></stop>
            <stop stop-color="#F7FAFF" offset="100%"></stop>
        </linearGradient>
        <linearGradient x1="6.46961413%" y1="34.7800238%" x2="107.979838%" y2="62.1931032%" id="linearGradient-7">
            <stop stop-color="#E8ECF2" offset="0%"></stop>
            <stop stop-color="#E6E9EF" offset="100%"></stop>
        </linearGradient>
        <linearGradient x1="66.607955%" y1="15.8461736%" x2="33.6299754%" y2="95.0858405%" id="linearGradient-8">
            <stop stop-color="#DFE3E9" offset="0%"></stop>
            <stop stop-color="#EEEFF1" offset="99.9399038%"></stop>
        </linearGradient>
        <linearGradient x1="75.0868056%" y1="0%" x2="50%" y2="88.2405977%" id="linearGradient-9">
            <stop stop-color="#D0D6DF" offset="0%"></stop>
            <stop stop-color="#DFE3E9" offset="100%"></stop>
        </linearGradient>
        <linearGradient x1="20.0176105%" y1="50%" x2="100%" y2="50%" id="linearGradient-10">
            <stop stop-color="#000000" stop-opacity="0.15" offset="0%"></stop>
            <stop stop-color="#000000" stop-opacity="0" offset="100%"></stop>
        </linearGradient>
        <linearGradient x1="76.0885338%" y1="0%" x2="27.1595228%" y2="98.137709%" id="linearGradient-11">
            <stop stop-color="#92BAFF" offset="0%"></stop>
            <stop stop-color="#D6E5FF" offset="100%"></stop>
        </linearGradient>
        <linearGradient x1="24.4644786%" y1="52.621775%" x2="66.7063015%" y2="58.9426504%" id="linearGradient-12">
            <stop stop-color="#000000" stop-opacity="0.05" offset="0%"></stop>
            <stop stop-color="#000000" stop-opacity="0" offset="100%"></stop>
        </linearGradient>
        <linearGradient x1="0%" y1="45.1765254%" x2="100%" y2="44.9323054%" id="linearGradient-13">
            <stop stop-color="#F7FBFF" offset="0%"></stop>
            <stop stop-color="#E2EFFF" offset="1.02641373%"></stop>
            <stop stop-color="#E2EFFF" offset="2.48923189%"></stop>
            <stop stop-color="#E2EFFF" offset="42.4244364%"></stop>
            <stop stop-color="#BAD5FE" offset="47.3335808%"></stop>
            <stop stop-color="#92BAFF" offset="50.8995302%"></stop>
            <stop stop-color="#BAD5FE" offset="96.4993553%"></stop>
            <stop stop-color="#BAD5FE" offset="98.2405648%"></stop>
            <stop stop-color="#E3EEFF" offset="100%"></stop>
        </linearGradient>
        <linearGradient x1="0%" y1="57.3964497%" x2="100%" y2="50%" id="linearGradient-14">
            <stop stop-color="#000000" stop-opacity="0.05" offset="0%"></stop>
            <stop stop-color="#000000" stop-opacity="0" offset="100%"></stop>
        </linearGradient>
        <linearGradient x1="0%" y1="12.2270113%" x2="100%" y2="12.2270113%" id="linearGradient-15">
            <stop stop-color="#FFFFFF" offset="0%"></stop>
            <stop stop-color="#E8ECF5" offset="1.35199415%"></stop>
            <stop stop-color="#E8EFF5" offset="44.5445371%"></stop>
            <stop stop-color="#F0F8FD" offset="47.7886202%"></stop>
            <stop stop-color="#DDE7ED" offset="51.5633153%"></stop>
            <stop stop-color="#D6E3EF" offset="98.5646709%"></stop>
            <stop stop-color="#EFF4F7" offset="100%"></stop>
        </linearGradient>
        <linearGradient x1="84.1795738%" y1="50%" x2="9.69601562%" y2="54.753931%" id="linearGradient-16">
            <stop stop-color="#F5F8FD" offset="0%"></stop>
            <stop stop-color="#F8FCFF" offset="100%"></stop>
        </linearGradient>
        <linearGradient x1="24.4644786%" y1="51.6730673%" x2="66.7063015%" y2="55.7066893%" id="linearGradient-17">
            <stop stop-color="#000000" stop-opacity="0.05" offset="0%"></stop>
            <stop stop-color="#000000" stop-opacity="0" offset="100%"></stop>
        </linearGradient>
    </defs>
    <g id="暂无数据" stroke="none" stroke-width="1" fill="none" fill-rule="evenodd">
        <g id="编组" transform="translate(41.000000, 76.000000)">
            <g id="编组-3" transform="translate(217.118530, 0.000000)">
                <path d="M86.3608413,175.860765 L128.16323,175.860765 C128.16323,138.853364 128.16323,120.349664 128.16323,120.349664 C128.16323,120.349664 89.1632304,120.186697 11.1632304,119.860765 L86.3608413,175.860765 Z" id="路径-11备份" fill="url(#linearGradient-1)"></path>
                <polygon id="路径-53" fill="#92BAFF" points="30.5885599 39.8607647 105.16323 83.7811503 105.16323 158.261331 104.071359 158.860765 104.071359 84.7749666 29.1632304 40.6578714"></polygon>
                <polygon id="路径-53备份" fill="#BAD5FE" points="29.1632304 40.8607647 104.16323 84.9021336 104.16323 158.860765 29.1632304 114.819396"></polygon>
                <path d="M83.1632304,175.860765 C29.7449896,142.39722 3.03586923,125.665448 3.03586923,125.665448 C1.08303396,123.453823 0.125859591,117.519119 0.164346126,107.860765 L78.7297954,155.338696 C78.6723123,160.855593 78.9796557,165.286037 79.6518255,168.630027 C80.0921893,170.8208 80.6608565,172.80374 81.5289649,174.192978 C81.8336113,174.680505 82.3783664,175.236434 83.1632304,175.860765 Z" id="路径-51" fill="url(#linearGradient-2)"></path>
                <path d="M80.1205011,168.335736 C80.7769107,171.240534 81.478938,173.996775 83.7631401,175.506717 C88.4462463,177.15631 90.9711787,173.041516 91.3379372,163.162335 L91.3379372,62.1036896 C91.5646619,51.6490054 92.9594321,46.7357622 95.5222477,47.3639601 C98.0850633,47.9921579 99.5065913,52.4682581 99.7868316,60.7922608 L99.7868316,66.2493024 L101.132574,66.2777019 L101.132574,64.6037935 C101.42589,52.9914364 99.6144224,46.487372 95.6981711,45.0916003 C91.7819199,43.6958287 89.7053511,48.6298149 89.4684649,59.8935589 C89.4684649,124.044911 89.4684649,158.162072 89.4684649,162.245042 C89.4684649,168.369497 87.2825484,175.183697 83.7631401,172.868315 C81.416868,171.324727 80.3130016,165.265947 80.451541,154.691974 L79.1640114,155.154249 C79.1452617,161.037108 79.4640916,165.430937 80.1205011,168.335736 Z" id="路径" fill="#D9E5EE"></path>
                <path d="M90.1632304,61.0438685 C90.4351203,51.1777906 91.7559917,46.3001598 94.1165771,46.9119966 C96.5484266,47.5423042 97.897311,52.0334372 98.1632304,60.3853958 L98.1632304,65.8607647 L90.1632304,61.0438685 Z" id="路径" fill="#CBD9E6"></path>
                <path d="M95.6701686,44.9114752 C91.9197315,43.5079785 89.9310848,48.4692726 89.7042284,59.7953577 C89.7042284,124.301766 89.7042284,158.607754 89.7042284,162.713322 C89.7042284,168.871674 87.6108636,175.723588 84.2404672,173.395391 C81.9935363,171.84326 80.9364077,165.750946 81.0690813,155.11845 L12.1632304,113.253943 L12.1632304,12.3444835 C12.1632304,1.75086278 14.9688664,-2.10048817 20.5801383,0.790430602 C26.1914103,3.68134938 51.5084906,18.5249447 96.1632304,45.1315469 L95.6701686,44.9114752 Z" id="路径" fill="url(#linearGradient-3)"></path>
                <polygon id="路径-52" fill="#F6F9FE" points="78.9183417 155.860765 80.1632304 155.389899 2.25298876 107.880562 0.163230375 107.860765"></polygon>
                <path d="M53.1632304,121.64399 L53.1632304,88.6534078 C53.1632304,88.0169134 53.5465763,87.6988345 54.0194574,87.9429586 C54.0410132,87.9540867 54.0625612,87.9663065 54.0840556,87.9795919 L78.1632304,102.862619 L78.1632304,137.060981 C78.1632304,137.703209 77.7764309,138.024154 77.2992896,137.77783 C77.2752058,137.765397 77.2511326,137.751614 77.227133,137.736517 L53.8701806,123.04359 C53.4705392,122.792191 53.1632304,122.18379 53.1632304,121.64399 Z" id="路径-54" fill="#F7FAFE"></path>
                <path d="M77.1632304,137.860765 C77.3051498,137.792345 77.4084598,137.712618 77.4731603,137.621583 C77.5378609,137.530547 77.5817543,137.387155 77.6048407,137.191407 L77.6048407,104.158194 C77.5738996,103.938055 77.5347587,103.769146 77.4874181,103.651469 C77.4400774,103.533791 77.3502797,103.382189 77.2180249,103.196663 L82.9232747,102.874322 L83.1632304,102.860765 L83.1632304,103.220045 L83.1632304,135.963226 C83.1632304,136.327707 82.9773602,136.591133 82.6745052,136.655874 L77.6048407,137.739612 L77.1632304,137.860765 Z" id="路径-55" fill="#DAE5ED"></path>
                <path d="M54.1632304,87.8607647 L54.3342146,87.9301657 L78.021721,103.336416 C78.1230557,103.409934 78.2025521,103.478776 78.2602101,103.542943 C78.3178681,103.60711 78.394252,103.713051 78.4893617,103.860765 L82.9790424,103.514187 L83.1632304,103.499968 L82.8071625,103.267722 L60.8145597,88.9229904 C60.5318216,88.7385738 60.2474813,88.6262468 59.975371,88.5914738 L54.410063,87.8802829 L54.1632304,87.8607647 Z" id="路径-56" fill="#E8EEF5"></path>
                <path d="M22.1632304,101.64399 L22.1632304,68.6534078 C22.1632304,68.0169134 22.5465763,67.6988345 23.0194574,67.9429586 C23.0410132,67.9540867 23.0625612,67.9663065 23.0840556,67.9795919 L47.1632304,82.8626192 L47.1632304,117.060981 C47.1632304,117.703209 46.7764309,118.024154 46.2992896,117.77783 C46.2752058,117.765397 46.2511326,117.751614 46.227133,117.736517 L22.8701806,103.04359 C22.4705392,102.792191 22.1632304,102.18379 22.1632304,101.64399 Z" id="路径-54" fill="#BAD5FE"></path>
                <path d="M47.1632304,117.860765 C47.295026,117.793052 47.3909665,117.714148 47.4510516,117.624053 C47.5111368,117.533958 47.5518992,117.392048 47.5733387,117.198321 L47.5733387,84.5063231 C47.5446048,84.2884575 47.508256,84.1212937 47.4642923,84.0048318 C47.4203287,83.8883699 47.3369367,83.7383338 47.2141161,83.5547235 L48.9403918,82.8741819 L49.1632304,82.8607647 L49.1632304,83.2163336 L49.1632304,115.847894 C49.1632304,116.078092 49.092682,116.271616 48.9630747,116.39695 L47.5733387,117.740863 L47.1632304,117.860765 Z" id="路径-55" fill="#699BFF"></path>
                <path d="M23.1632304,67.8607647 L23.3343716,67.9301657 L47.0436313,83.3364158 C47.1450591,83.4099335 47.2246284,83.4787759 47.2823394,83.542943 C47.3400504,83.6071101 47.4165044,83.7130507 47.5117014,83.8607647 L48.9788733,83.1218052 L49.1632304,83.1075869 L48.8068355,82.8753407 L26.7956216,68.5316422 C26.5115927,68.3465536 26.2259572,68.2340866 25.9527101,68.1997516 L23.4102896,67.8802829 L23.1632304,67.8607647 Z" id="路径-56" fill="#92BAFF"></path>
                <polygon id="路径-57" fill="#BAD5FE" points="21.1632304 23.8607647 21.1632304 31.5481014 77.1632304 63.8607647 77.1632304 56.3066144"></polygon>
                <polygon id="路径-57备份" fill="#BAD5FE" points="22.1632304 38.8607647 22.1632304 42.0746854 63.1632304 65.8607647 63.1632304 62.7476402"></polygon>
                <polygon id="路径-57备份-2" fill="#BAD5FE" points="22.1632304 49.8607647 22.1632304 53.2789118 54.1632304 72.8607647 54.1632304 69.5255907"></polygon>
                <path d="M28.5138641,82.4644957 C25.4892666,84.2993666 25.4892666,89.559677 27.9072019,94.367813 C30.367568,99.2603235 34.6163951,102.196008 37.8125966,100.257034 C40.8371942,98.4221627 40.8371942,93.1618523 38.4192588,88.3537164 C36.0053148,83.5535174 31.8697621,80.6369985 28.6958863,82.359929 L28.5138641,82.4644957 Z M35.4830003,89.7719579 C37.2490628,93.2838254 37.2490628,96.8258448 36.0896624,97.5291946 C35.1018661,98.1284408 32.5670923,96.3770643 30.8434605,92.9495714 C29.077398,89.4377039 29.077398,85.8956845 30.2367983,85.1923347 C31.2245946,84.5930885 33.7593684,86.344465 35.4830003,89.7719579 Z" id="椭圆形" fill="#FFFFFF" fill-rule="nonzero"></path>
                <path d="M35.124762,98.010971 C35.9279715,97.6766608 36.8900777,97.9194697 37.3511447,98.5500613 L37.4315621,98.6727953 L40.98537,104.762424 C41.4059704,105.483145 41.0551088,106.355354 40.2016987,106.710558 C39.3984892,107.044869 38.436383,106.80206 37.975316,106.171468 L37.8948986,106.048734 L34.3410908,99.9591049 C33.9204903,99.2383848 34.2713519,98.3661755 35.124762,98.010971 Z" id="路径-58" fill="#FFFFFF" fill-rule="nonzero"></path>
            </g>
            <g id="编组-2" transform="translate(55.281760, 61.436674)">
                <path d="M90.7161972,193.39497 L215.326358,193.39497 C215.326358,155.513481 215.326358,136.572736 215.326358,136.572736 C215.326358,136.572736 196.074407,136.572736 157.570505,136.572736 L157.570505,154.600493 L90.7161972,193.39497 Z" id="路径-11" fill="url(#linearGradient-4)"></path>
                <polygon id="路径-59" fill="#BAD5FE" transform="translate(123.949504, 22.111239) rotate(-24.000000) translate(-123.949504, -22.111239) " points="140.97533 5.48786044 124.459948 38.7346175 106.923679 29.8502683"></polygon>
                <polygon id="路径-60" fill="#E2EFFF" transform="translate(121.863993, 37.729407) rotate(-24.000000) translate(-121.863993, -37.729407) " points="113.095858 32.0487837 113.095858 34.481855 130.121683 43.4100293 130.632128 40.933133"></polygon>
                <polygon id="路径-61" fill="#BAD5FE" transform="translate(112.023600, 20.122870) rotate(-24.000000) translate(-112.023600, -20.122870) " points="139.135538 10.1666591 84.9116619 19.5154694 97.9400157 30.0790803"></polygon>
                <polygon id="路径-62" fill="#E2EFFF" transform="translate(95.731967, 34.172781) rotate(-24.000000) translate(-95.731967, -34.172781) " points="89.2177899 27.3565523 89.2177899 30.2475263 102.246144 40.9890095 102.246144 37.9201632"></polygon>
                <polygon id="路径" fill="#BAD5FE" transform="translate(111.486520, 41.954302) rotate(-24.000000) translate(-111.486520, -41.954302) " points="106.773226 32.184957 106.773226 51.7236466 116.199814 42.8755956"></polygon>
                <polygon id="路径" fill="#699BFF" transform="translate(120.148734, 22.356507) rotate(-24.000000) translate(-120.148734, -22.356507) " points="108.97756 37.6580373 110.757734 35.9818029 106.694845 33.8504567 106.694845 31.4173854 140.746495 7.05497754 99.5509728 26.9673987"></polygon>
                <polygon id="路径-63" fill="#E2EFFF" transform="translate(132.230159, 19.780104) rotate(-24.000000) translate(-132.230159, -19.780104) " points="124.227691 35.1650346 123.717247 37.6419309 140.743072 1.91827746"></polygon>
                <polygon id="路径-39" fill="#F9F9F9" points="19.9376257 80.8386936 91.2473117 125.607042 164.485412 82.6788099 93.3209699 37.8814889"></polygon>
                <polygon id="路径-41" fill="#E8ECF2" points="90.7161972 193.39497 18.9407445 148.879082 18.9407445 79.750503 90.7161972 124.26639"></polygon>
                <polygon id="路径-41备份" fill="url(#linearGradient-5)" points="90.7161972 194.391851 157.507243 155.603282 157.507243 121.619517 98.960967 155.603282 90.7161972 132.369061"></polygon>
                <polygon id="路径-42" fill="url(#linearGradient-6)" points="164.869039 82.7411469 177.444869 107.274411 100.208539 150.529074 90.7161972 124.953263"></polygon>
                <polygon id="路径-43" fill="url(#linearGradient-7)" points="177.444869 110.893728 177.444869 107.663179 100.253529 150.644369 90.7161972 125.40663 90.7161972 132.44981 99.0542515 155.513481"></polygon>
                <polygon id="路径-44" fill="#E5E9F0" points="93.706841 42.8658954 93.706841 119.585472 92.084874 120.622636 90.1625881 119.502292 27.912676 81.0443999"></polygon>
                <polygon id="路径-45" fill="#D7DDE6" points="93.706841 42.8658954 93.706841 119.625754 156.510362 82.7882718"></polygon>
                <polygon id="路径-46" fill="url(#linearGradient-8)" points="18.9407445 79.750503 0 107.876661 2.40594072 110.653823 18.9407445 86.3528858"></polygon>
                <polygon id="路径-47" fill="url(#linearGradient-9)" points="2.99064386 110.653823 19.9376257 100.849278 19.9376257 86.728672"></polygon>
                <polygon id="路径-48" fill="#E2EFFF" points="28.9095573 133.582093 28.9095573 140.348464 78.7536217 171.463581 78.7536217 164.664864"></polygon>
                <polygon id="路径-49" fill="#BAD5FE" points="28.9095573 134.000737 31.3660976 132.585211 80.7473843 163.029123 78.2140031 164.485412"></polygon>
                <polygon id="路径-50" fill="#92BAFF" points="77.7567404 164.0999 80.7473843 162.49165 80.7473843 169.872748 77.7567404 171.463581"></polygon>
                <polygon id="路径-11" fill="url(#linearGradient-10)" points="77.7567404 171.031784 83.7380281 173.457344 83.7380281 164.022499 80.5678053 162.49165 80.5678053 169.517513"></polygon>
                <polygon id="路径-48" fill="#E2EFFF" points="28.9095573 107.663179 28.9095573 114.429551 78.7536217 145.544668 78.7536217 138.74595"></polygon>
                <polygon id="路径-49" fill="#BAD5FE" points="28.9095573 108.081823 31.3660976 106.666298 80.7473843 137.11021 78.2140031 138.566499"></polygon>
                <polygon id="路径-50" fill="#92BAFF" points="77.7567404 139.177868 80.7473843 137.569618 80.7473843 144.950716 77.7567404 146.541549"></polygon>
                <polygon id="路径-11" fill="url(#linearGradient-10)" points="77.7567404 146.109751 83.7380281 148.535312 83.7380281 139.100467 80.5678053 137.569618 80.5678053 144.595481"></polygon>
                <path d="M117.568037,56.6566584 C116.364074,57.4938991 115.198835,58.3201472 114.072313,59.1354147 C113.595263,59.4806575 113.488412,60.1472578 113.833654,60.6243082 C114.178897,61.1013586 114.845498,61.2082098 115.322548,60.862967 C116.438082,60.0556516 117.592414,59.2371374 118.785535,58.4074363 C119.268999,58.0712336 119.388378,57.4067625 119.052175,56.9232985 C118.715972,56.4398345 118.051501,56.3204557 117.568037,56.6566584 Z M110.626148,61.6866588 C109.44798,62.5799808 108.318972,63.4594112 107.239107,64.3249785 C106.779623,64.6932781 106.705704,65.3643289 107.074004,65.8238124 C107.442303,66.2832959 108.113354,66.3572151 108.572837,65.9889155 C109.637503,65.1355311 110.751421,64.2678554 111.914576,63.3859167 C112.383813,63.0301272 112.475781,62.3613109 112.119991,61.8920738 C111.764202,61.4228367 111.095385,61.3308693 110.626148,61.6866588 Z M103.925738,67.0694002 C102.7875,68.0459275 101.71613,69.0037392 100.711596,69.9429193 C100.281443,70.3450866 100.258757,71.0198151 100.660924,71.4499675 C101.063092,71.88012 101.73782,71.9028064 102.167973,71.5006391 C103.149821,70.5826687 104.198599,69.6450544 105.314279,68.6878801 C105.76121,68.304445 105.812684,67.6313003 105.429248,67.1843695 C105.045813,66.7374386 104.372669,66.6859651 103.925738,67.0694002 Z M97.6274228,72.9870388 C96.5645397,74.1010203 95.6038068,75.1871138 94.7452077,76.2456643 C94.3742532,76.7030071 94.4442847,77.3744748 94.9016275,77.7454293 C95.3589703,78.1163838 96.030438,78.0463523 96.4013925,77.5890095 C97.2227637,76.5763565 98.145736,75.5329508 99.1702933,74.4591375 C99.5768022,74.0330856 99.5609594,73.3581617 99.1349074,72.9516529 C98.7088555,72.545144 98.0339317,72.5609868 97.6274228,72.9870388 Z M92.1740767,79.811423 C91.3082758,81.1962137 90.6377193,82.5320297 90.1639697,83.8204996 C89.9607525,84.3731953 90.2440608,84.9859837 90.7967564,85.1892009 C91.349452,85.3924181 91.9622404,85.1091099 92.1654576,84.5564143 C92.5859348,83.4128306 93.1910103,82.2074595 93.9822467,80.9419298 C94.2944275,80.4426174 94.1427274,79.7847722 93.6434151,79.4725914 C93.1441027,79.1604106 92.4862575,79.3121107 92.1740767,79.811423 Z M89.3146565,88.4627019 C89.3473147,89.9725028 89.7131553,91.3953585 90.4095641,92.718307 L90.5431426,92.9151087 C90.617456,93.0019019 90.6945266,93.0866176 90.7742949,93.1692416 C91.1833044,93.5928935 91.8583098,93.6047636 92.2819617,93.1957541 C92.7056136,92.7867446 92.7174837,92.1117392 92.3084742,91.6880873 L92.1629964,91.5281705 L91.3530695,92.2216396 L92.2965749,91.7249721 C91.7546195,90.6954343 91.4721827,89.5969593 91.4466502,88.4165851 C91.4339155,87.8278513 90.9463288,87.3609119 90.357595,87.3736466 C89.7688612,87.3863814 89.3019217,87.8739681 89.3146565,88.4627019 Z M95.2257631,95.3196863 C96.658465,95.5725457 98.2452331,95.5813141 99.8225924,95.3619618 C100.405851,95.2808521 100.812924,94.7422749 100.731814,94.159016 C100.650704,93.5757572 100.112127,93.1686849 99.5288681,93.2497946 C98.1639588,93.439603 96.7999469,93.4320655 95.5964012,93.2196502 C95.0164922,93.1173013 94.463413,93.5044402 94.3610641,94.0843492 C94.2587152,94.6642581 94.6458541,95.2173374 95.2257631,95.3196863 Z M104.224726,94.0660607 C106.069609,93.1583727 107.292069,91.9216304 107.538065,90.4398305 L107.5847,90.0634367 C107.64463,89.4776227 107.218317,88.9541436 106.632503,88.8942134 C106.046689,88.8342832 105.52321,89.2605962 105.46328,89.8464102 L105.42943,90.1234842 C105.323353,90.7592853 104.573612,91.5177863 103.283307,92.15262 C102.754925,92.4125856 102.537331,93.0516676 102.797296,93.5800496 C103.057262,94.1084317 103.696344,94.3260263 104.224726,94.0660607 Z M105.997515,85.1762873 C105.104777,84.4656908 103.976896,84.0668786 102.120643,83.6791806 C101.893534,83.6317979 101.671413,83.5935471 101.446885,83.5630203 C100.863382,83.483687 100.326047,83.8923974 100.246713,84.4759006 C100.16738,85.0594037 100.576091,85.5967388 101.159594,85.6760721 C101.334334,85.6998298 101.507012,85.729566 101.684882,85.7666761 L101.986013,85.8312829 L102.536882,85.9604336 C103.572631,86.2197101 104.222605,86.4890725 104.669457,86.8447556 C105.130192,87.2114886 105.800987,87.1352852 106.16772,86.6745504 C106.534453,86.2138156 106.45825,85.5430203 105.997515,85.1762873 Z M96.6865761,84.0689383 C95.1277795,84.6203349 93.7345412,85.5288553 92.6815715,86.6912603 C92.2862277,87.1276924 92.3195362,87.80198 92.7559683,88.1973238 C93.1924003,88.5926677 93.8666879,88.5593591 94.2620317,88.1229271 C95.0728194,87.2278741 96.1658635,86.5151081 97.3977265,86.0793585 C97.9528887,85.8829797 98.2437401,85.2737354 98.0473614,84.7185732 C97.8509826,84.163411 97.2417383,83.8725596 96.6865761,84.0689383 Z M90.0607126,90.2569767 C89.3179126,91.3656357 88.5319037,92.5961632 87.7426229,93.8921281 C87.4363184,94.3950668 87.5957219,95.0510879 88.0986605,95.3573924 C88.6015992,95.6636968 89.2576203,95.5042933 89.5639248,95.0013547 C90.337292,93.7315193 91.1067417,92.5269157 91.8323245,91.4439542 C92.1600993,90.9547371 92.0292244,90.2924343 91.5400073,89.9646595 C91.0507902,89.6368847 90.3884874,89.7677596 90.0607126,90.2569767 Z M85.5745882,97.6115534 C84.8692262,98.8774159 84.1928156,100.150497 83.5544263,101.418465 C83.289614,101.944434 83.5013238,102.58549 84.0272935,102.850302 C84.5532632,103.115115 85.1943187,102.903405 85.459131,102.377435 C86.0837808,101.136757 86.7462309,99.8899507 87.4374054,98.6495496 C87.7240401,98.1351469 87.5393977,97.4857777 87.0249949,97.1991429 C86.5105921,96.9125082 85.8612229,97.0971506 85.5745882,97.6115534 Z M81.7029022,105.329515 C81.0962433,106.702588 80.5516264,108.044226 80.075092,109.347194 C79.8728269,109.900239 80.15719,110.512538 80.7102348,110.714803 C81.2632796,110.917069 81.8755792,110.632705 82.0778443,110.079661 C82.537811,108.821993 83.0650174,107.523245 83.6534897,106.191334 C83.8914745,105.652694 83.6477455,105.023116 83.1091056,104.785131 C82.5704658,104.547146 81.9408871,104.790875 81.7029022,105.329515 Z" id="路径-64" fill="url(#linearGradient-11)" fill-rule="nonzero" transform="translate(99.626529, 83.622835) rotate(-15.000000) translate(-99.626529, -83.622835) "></path>
            </g>
            <g id="编组-4" transform="translate(238.818450, 193.336874)">
                <path d="M45.4633095,76.5238904 L120.46331,76.5238904 C120.46331,50.5238904 120.46331,37.5238904 120.46331,37.5238904 C120.46331,37.5238904 107.284479,37.5238904 80.926818,37.5238904 L90.2944821,43.9360642 L90.2944821,50.2129721 L45.4633095,76.5238904 Z" id="路径-11备份-2" fill="url(#linearGradient-12)"></path>
                <path d="M1.54788688,49.1801132 C0.92966564,48.7896796 0.533796858,48.1289442 0.472111931,47.4019215 L0.463309541,47.2021523 L0.463309541,42.5238904 L0.466788415,42.56136 C0.506490396,42.8069772 0.623245778,43.0349639 0.801590001,43.2099928 L0.915863478,43.3083726 L0.954871336,43.337756 L43.8183267,70.1926905 C44.4492016,70.5879481 45.2474043,70.6000866 45.8900063,70.2241952 L89.9233864,44.4667773 L89.9233864,44.4667773 L90.054051,44.3701577 C90.2748856,44.1817069 90.4178263,43.915779 90.4541597,43.6257928 L90.4633095,43.4790422 L90.4633095,48.2810917 C90.4633095,49.0468666 90.0921166,49.7594049 89.4778747,50.1930581 L89.3193249,50.2955307 L45.8962654,75.9037011 C45.2505736,76.2844892 44.4461593,76.2722402 43.812361,75.8719689 L1.54788688,49.1801132 L1.54788688,49.1801132 Z" id="路径" fill="url(#linearGradient-13)"></path>
                <polygon id="路径" fill="#BAD5FE" points="8.46330954 42.8888525 45.4633095 21.5238904 45.4633095 27.0790359 8.46330954 48.5238904"></polygon>
                <polygon id="路径" fill="#699BFF" transform="translate(63.463310, 35.523890) scale(-1, 1) translate(-63.463310, -35.523890) " points="45.4633095 44.5675991 81.4633095 21.5238904 81.4633095 27.1556889 46.6410143 49.5238904 45.4633095 48.7220936"></polygon>
                <path d="M45.1531121,15.7015837 C45.4722347,15.5175328 45.8667063,15.5238445 46.1797773,15.7180107 L46.1797773,15.7180107 L89.7365984,42.7318897 C89.8766629,42.8187575 89.9930852,42.9388979 90.0755082,43.0816232 C90.3517023,43.559886 90.1878932,44.1714941 89.7096304,44.4476882 L89.7096304,44.4476882 L44.8636809,70.3459692 C44.5448602,70.5300863 44.1506579,70.5241275 43.8375479,70.3304579 L43.8375479,70.3304579 L0.191816754,43.3340422 C0.0511390476,43.2470281 -0.0657566565,43.126476 -0.148397912,42.9831857 C-0.424321392,42.5047668 -0.260166391,41.8932514 0.218252545,41.617328 L0.218252545,41.617328 Z M45.0098877,21.2804624 L9.54844221,41.7325071 C9.07002328,42.0084306 8.90586828,42.6199459 9.18179176,43.0983648 C9.26443301,43.2416551 9.38132872,43.3622073 9.52200642,43.4492214 L43.9620222,64.7515792 C44.2751322,64.9452487 44.6693345,64.9512075 44.9881552,64.7670904 L80.3794407,44.3288241 C80.8577035,44.05263 81.0215126,43.4410219 80.7453186,42.9627591 C80.6628955,42.8200338 80.5464732,42.6998934 80.4064087,42.6130256 L46.0365529,21.2968895 C45.7234819,21.1027232 45.3290103,21.0964116 45.0098877,21.2804624 Z" id="形状结合" fill="#92BAFF"></path>
                <path d="M13.4633095,47.0859619 L17.6198106,49.5238904 C49.5154766,39.9574389 65.4633095,35.1742131 65.4633095,35.1742131 C65.4633095,35.1742131 61.5431688,33.2907722 53.7028874,29.5238904 L42.2523902,29.5238904 L13.4633095,47.0859619 Z" id="路径-11备份-2" fill="url(#linearGradient-14)"></path>
                <path d="M10.3550731,34.8097144 C9.84675789,34.4996642 9.52126578,33.9749626 9.47054706,33.397621 L9.46330954,33.2389807 L9.46330954,29.5238904 L9.46616995,29.5536457 C9.4988138,29.7486946 9.59481267,29.9297429 9.74145125,30.0687364 L9.83540944,30.1468615 L9.86748257,30.1701954 L44.9538562,51.4012243 C45.5720462,51.7752957 46.3439374,51.786841 46.9730385,51.4314255 L83.0193728,31.0667711 L83.0193728,31.0667711 L83.1268081,30.9900438 C83.3083832,30.8403918 83.4259122,30.6292137 83.4557864,30.3989306 L83.4633095,30.2823933 L83.4633095,34.0957856 C83.4633095,34.7039009 83.1581064,35.2697402 82.6530631,35.6141118 L82.5226999,35.6954871 L46.979245,55.9402833 C46.3470119,56.3003898 45.56909,56.2887365 44.9479271,55.909854 L10.3550731,34.8097144 L10.3550731,34.8097144 Z" id="路径" fill="url(#linearGradient-15)"></path>
                <polygon id="路径" fill="#E8EDF5" points="15.4633095 28.932378 45.4633095 11.5238904 45.4633095 16.0503052 15.4633095 33.5238904"></polygon>
                <polygon id="路径" fill="#D8E4EE" transform="translate(60.463310, 24.023890) scale(-1, 1) translate(-60.463310, -24.023890) " points="45.4633095 30.9485438 75.4633095 12.5238904 75.4633095 17.0343686 45.4633095 35.5238904"></polygon>
                <path d="M46.0311554,6.69762037 C46.3490354,6.51545499 46.7410836,6.52170886 47.0529916,6.71392048 L47.0529916,6.71392048 L82.8645064,28.7825729 C82.980892,28.8542949 83.0774988,28.9539775 83.145539,29.0725532 C83.3709327,29.4653535 83.2352229,29.9664987 82.8424226,30.1918925 L82.8424226,30.1918925 L45.9696875,51.3499317 C45.6521077,51.532163 45.2603274,51.5262587 44.9483832,51.3345404 L44.9483832,51.3345404 L9.06358357,29.2800408 C8.94669518,29.2082022 8.84970042,29.1081828 8.78148379,28.9891443 C8.55631155,28.596217 8.69230389,28.0951483 9.08523119,27.8699761 L9.08523119,27.8699761 Z M45.9131017,11.2667337 L17.0387845,27.8135471 C16.5596048,28.0881474 16.3937605,28.6992068 16.6683608,29.1783864 C16.7515518,29.3235554 16.8698381,29.4455302 17.0123849,29.5331383 L45.050982,46.765427 C45.3629262,46.9571454 45.7547065,46.9630496 46.0722862,46.7808183 L74.8894816,30.2451491 C75.3685064,29.9702787 75.5340061,29.3591259 75.2591357,28.8801012 C75.1761599,28.7354968 75.0583467,28.6139326 74.9164131,28.5264667 L46.9349378,11.2830339 C46.6230298,11.0908222 46.2309816,11.0845684 45.9131017,11.2667337 Z" id="形状结合" fill="url(#linearGradient-16)"></path>
                <polygon id="路径-8" fill="#BAD5FE" points="45.7884665 -0.476109627 29.4633095 8.52389037 45.7884665 17.5238904 62.4633095 8.70894042"></polygon>
                <polygon id="路径-9" fill="#E2EFFF" points="28.4633095 9.52389037 28.4633095 28.7954888 45.4633095 37.5238904 45.4633095 18.2330446"></polygon>
                <polygon id="路径-10" fill="#92BAFF" points="61.4633095 28.2285539 44.4633095 37.5238904 44.4633095 18.1088787 61.4633095 9.52389037"></polygon>
            </g>
            <g id="编组-14" transform="translate(0.000000, 140.221656)">
                <g id="编组-6">
                    <polygon id="路径-8" fill="#BAD5FE" points="15.8115716 0 -5.67756122e-14 8.63273826 15.8115716 17.2654765 31.9618282 8.81023699"></polygon>
                    <polygon id="路径-9" fill="#E2EFFF" points="0 8.63273826 0 27.7352436 15.8115716 36.3870603 15.8115716 17.2654765"></polygon>
                    <polygon id="路径-10" fill="#92BAFF" points="31.9618282 27.2322085 15.8115716 36.3870603 15.8115716 17.2654765 31.9618282 8.81023699"></polygon>
                </g>
                <path d="M15.8115716,36.3870603 L55.7148537,36.3870603 C55.7148537,25.3366172 55.7148537,19.8113957 55.7148537,19.8113957 C55.7148537,19.8113957 47.7971785,19.8113957 31.9618282,19.8113957 L31.9618282,27.2322085 L15.8115716,36.3870603 Z" id="路径-11" fill="url(#linearGradient-17)"></path>
            </g>
            <g id="编组-7备份" transform="translate(198.949690, 251.693212)">
                <g id="编组-6">
                    <polygon id="路径-8" fill="#BAD5FE" points="15.8115716 0 -5.67756122e-14 8.63273826 15.8115716 17.2654765 31.9618282 8.81023699"></polygon>
                    <polygon id="路径-9" fill="#E2EFFF" points="0 8.63273826 0 27.7352436 15.8115716 36.3870603 15.8115716 17.2654765"></polygon>
                    <polygon id="路径-10" fill="#92BAFF" points="31.9618282 27.2322085 15.8115716 36.3870603 15.8115716 17.2654765 31.9618282 8.81023699"></polygon>
                </g>
                <path d="M15.8115716,36.3870603 L55.7148537,36.3870603 C55.7148537,25.3366172 55.7148537,19.8113957 55.7148537,19.8113957 C55.7148537,19.8113957 47.7971785,19.8113957 31.9618282,19.8113957 L31.9618282,27.2322085 L15.8115716,36.3870603 Z" id="路径-11" fill="url(#linearGradient-17)"></path>
            </g>
        </g>
    </g>
</svg>