<?xml version="1.0" encoding="UTF-8"?>
<svg width="400px" height="265px" viewBox="0 0 400 265" version="1.1" xmlns="http://www.w3.org/2000/svg" xmlns:xlink="http://www.w3.org/1999/xlink">
    <title>编组 3</title>
    <defs>
        <linearGradient x1="50%" y1="58.0998402%" x2="29.0596957%" y2="41.9001598%" id="linearGradient-1">
            <stop stop-color="#F2F2F2" stop-opacity="0" offset="0%"></stop>
            <stop stop-color="#E4E4E4" stop-opacity="0.8" offset="100%"></stop>
        </linearGradient>
        <linearGradient x1="68.7014022%" y1="100%" x2="37.124508%" y2="0%" id="linearGradient-2">
            <stop stop-color="#FFFFFF" offset="0%"></stop>
            <stop stop-color="#E8E8E8" offset="100%"></stop>
        </linearGradient>
        <linearGradient x1="109.293263%" y1="73.3913471%" x2="9.17793082%" y2="26.6086529%" id="linearGradient-3">
            <stop stop-color="#FFFFFF" offset="0%"></stop>
            <stop stop-color="#E8E8E8" offset="100%"></stop>
        </linearGradient>
        <linearGradient x1="109.293263%" y1="77.7414361%" x2="9.17793082%" y2="22.2585639%" id="linearGradient-4">
            <stop stop-color="#FFFFFF" offset="0%"></stop>
            <stop stop-color="#E8E8E8" offset="100%"></stop>
        </linearGradient>
        <linearGradient x1="109.293263%" y1="64.3569627%" x2="9.17793082%" y2="35.6430373%" id="linearGradient-5">
            <stop stop-color="#FFFFFF" offset="0%"></stop>
            <stop stop-color="#E8E8E8" offset="100%"></stop>
        </linearGradient>
        <linearGradient x1="109.293263%" y1="59.0354337%" x2="9.17793082%" y2="40.9645663%" id="linearGradient-6">
            <stop stop-color="#FFFFFF" offset="0%"></stop>
            <stop stop-color="#E8E8E8" offset="100%"></stop>
        </linearGradient>
        <linearGradient x1="8.4152772%" y1="79.5688319%" x2="102.03032%" y2="12.7233123%" id="linearGradient-7">
            <stop stop-color="#FFFFFF" offset="0%"></stop>
            <stop stop-color="#C6C6C6" offset="100%"></stop>
            <stop stop-color="#909AA9" offset="100%"></stop>
        </linearGradient>
        <linearGradient x1="8.4152772%" y1="62.1732814%" x2="102.03032%" y2="34.6534482%" id="linearGradient-8">
            <stop stop-color="#FFFFFF" offset="0%"></stop>
            <stop stop-color="#C6C6C6" offset="100%"></stop>
            <stop stop-color="#909AA9" offset="100%"></stop>
        </linearGradient>
        <linearGradient x1="8.4152772%" y1="62.8260272%" x2="102.03032%" y2="33.8305479%" id="linearGradient-9">
            <stop stop-color="#FFFFFF" offset="0%"></stop>
            <stop stop-color="#C6C6C6" offset="100%"></stop>
            <stop stop-color="#909AA9" offset="100%"></stop>
        </linearGradient>
        <linearGradient x1="109.293263%" y1="73.636066%" x2="9.17793082%" y2="26.363934%" id="linearGradient-10">
            <stop stop-color="#FFFFFF" offset="0%"></stop>
            <stop stop-color="#E8E8E8" offset="100%"></stop>
        </linearGradient>
        <linearGradient x1="104.521939%" y1="100%" x2="12.4628797%" y2="0%" id="linearGradient-11">
            <stop stop-color="#FFFFFF" offset="0%"></stop>
            <stop stop-color="#E8E8E8" offset="100%"></stop>
        </linearGradient>
        <linearGradient x1="66.0255196%" y1="100%" x2="38.9667926%" y2="0%" id="linearGradient-12">
            <stop stop-color="#C6C6C6" offset="0%"></stop>
            <stop stop-color="#E7EAF0" offset="100%"></stop>
        </linearGradient>
        <linearGradient x1="50%" y1="0%" x2="50%" y2="100%" id="linearGradient-13">
            <stop stop-color="#EDEDED" offset="0%"></stop>
            <stop stop-color="#D6D6D6" offset="100%"></stop>
        </linearGradient>
        <linearGradient x1="57.7805811%" y1="50%" x2="88.2042321%" y2="68.504089%" id="linearGradient-14">
            <stop stop-color="#EDEDED" offset="0%"></stop>
            <stop stop-color="#F6F5F5" offset="100%"></stop>
        </linearGradient>
        <linearGradient x1="24.6558956%" y1="59.937819%" x2="57.2748664%" y2="50%" id="linearGradient-15">
            <stop stop-color="#E6E5E5" offset="0%"></stop>
            <stop stop-color="#D5D5D5" offset="100%"></stop>
        </linearGradient>
        <linearGradient x1="58.1498703%" y1="142.040501%" x2="58.1498703%" y2="-46.4367349%" id="linearGradient-16">
            <stop stop-color="#EEEEEE" offset="0%"></stop>
            <stop stop-color="#CCCCCC" offset="100%"></stop>
        </linearGradient>
        <linearGradient x1="100%" y1="50%" x2="0.0928758741%" y2="50%" id="linearGradient-17">
            <stop stop-color="#FDFDFD" offset="0.0928758741%"></stop>
            <stop stop-color="#F6F6F6" offset="100%"></stop>
        </linearGradient>
        <linearGradient x1="0%" y1="50%" x2="100%" y2="50%" id="linearGradient-18">
            <stop stop-color="#F7F7F7" offset="0%"></stop>
            <stop stop-color="#F3F3F3" offset="100%"></stop>
        </linearGradient>
    </defs>
    <g id="页面规范" stroke="none" stroke-width="1" fill="none" fill-rule="evenodd">
        <g id="页面规范/空状态/暂无数据" transform="translate(-640.000000, -352.000000)">
            <g id="编组-3" transform="translate(640.000000, 352.000000)">
                <rect id="矩形" x="0" y="0" width="400" height="260"></rect>
                <polygon id="路径-2" fill="url(#linearGradient-1)" points="203.002381 250.096055 314.507351 264.5 354.86427 223.392221 284.99506 203.377371"></polygon>
                <g id="编组-50" transform="translate(75.000000, 9.000000)">
                    <g id="编组-2" transform="translate(120.791713, 0.000000)">
                        <path d="M8.05149368,28.0655701 C-7.24376108,49.9677017 -0.746958293,66.3147091 27.5419021,77.106593" id="路径-2" stroke="url(#linearGradient-2)" stroke-linecap="round"></path>
                        <path d="M2.7877661,73.4171185 C7.96495734,79.8505115 12.6678762,83.0672083 16.8965227,83.0672083" id="路径-3" stroke="url(#linearGradient-3)" stroke-linecap="round"></path>
                        <path d="M123.696699,0 C124.389103,19.4666954 106.095508,33.0977162 68.8159133,40.8930623" id="路径-4" stroke="url(#linearGradient-4)" stroke-linecap="round"></path>
                        <path d="M128.668652,24.4962506 C119.522819,32.1619217 112.370054,35.9947573 107.210359,35.9947573" id="路径-5" stroke="url(#linearGradient-5)" stroke-linecap="round"></path>
                        <path d="M117.528649,69.0079802 C81.5280565,64.6615232 58.9027411,73.9326853 49.6527026,96.8214652" id="路径-6" stroke="url(#linearGradient-6)" stroke-linecap="round"></path>
                        <path d="M7.21066796,43.1100265 C28.4776441,46.441808 37.1829271,52.3259354 33.3265171,60.7624086 C29.4701071,69.1988816 20.764824,63.3147546 7.21066796,43.1100265 Z" id="路径-7" fill="url(#linearGradient-7)" fill-rule="nonzero"></path>
                        <path d="M79.590676,24.4962506 C82.702559,13.4798093 90.8346899,9.80766224 103.987069,13.4798093 C103.420149,18.5335608 95.2880181,22.2057079 79.590676,24.4962506 Z" id="路径-8" fill="url(#linearGradient-8)" fill-rule="nonzero"></path>
                        <path d="M55.0698452,104.966611 C64.7821081,86.0775522 78.3551168,80.6987831 95.7888723,88.8303025 C87.6567414,103.874561 74.0837321,109.253331 55.0698452,104.966611 Z" id="路径-9" fill="url(#linearGradient-9)" fill-rule="nonzero"></path>
                        <path d="M48.9057147,116.006917 C52.5171431,109.113907 57.529896,105.667402 63.9439735,105.667402" id="路径-12" stroke="url(#linearGradient-10)" stroke-linecap="round"></path>
                        <path d="M80.56594,30.245504 C82.9459105,25.1442079 86.0780584,21.8778837 89.9623839,20.4465311" id="路径-10" stroke="url(#linearGradient-11)" stroke-linecap="round"></path>
                        <path d="M27.5419021,58.2709449 C31.9902664,59.3016165 34.2144486,63.5798744 34.2144486,71.1057191" id="路径-11" stroke="url(#linearGradient-12)" stroke-linecap="round"></path>
                    </g>
                    <path d="M10.0378795,175.995187 C5.63103614,178.382175 0,176.513934 0,176.513934 C0,176.513934 1.51301205,170.777019 5.91922892,168.389404 C10.3260723,166.003669 15.9571084,167.87191 15.9571084,167.87191 C15.9571084,167.87191 14.4440964,173.608826 10.0378795,175.995187 Z" id="路径" fill="url(#linearGradient-13)" fill-rule="nonzero"></path>
                    <g id="编组-49" transform="translate(32.067350, 115.794850)" fill-rule="nonzero">
                        <polygon id="路径" fill="url(#linearGradient-14)" points="10.0240964 10.0240964 10.0240964 86.1391411 97.1084337 125.301205 97.1084337 23.7296621"></polygon>
                        <polygon id="路径" fill="url(#linearGradient-15)" points="177.927711 10.0240964 95.8554217 23.7296621 95.8554217 125.301205 177.927711 88.7877272"></polygon>
                        <polygon id="路径" fill="url(#linearGradient-16)" points="95.9952875 0 9.39759036 9.50767332 95.9952875 23.1807229 177.927711 9.50767332"></polygon>
                        <polygon id="路径" fill="url(#linearGradient-17)" points="9.16615303 10.0240964 0 39.1829649 80.0905693 63.9036145 95.8554217 23.6491985"></polygon>
                        <polygon id="路径" fill="url(#linearGradient-18)" points="95.8554217 23.2507397 110.599696 67.6626506 189.204819 36.7882478 177.948937 9.39759036"></polygon>
                    </g>
                    <g id="编组" transform="translate(54.000000, 67.214226)" fill-rule="nonzero">
                        <path d="M21.8942456,44.4609651 C20.0632866,47.4016747 18.1309389,49.3775542 15.6737561,51.8445149 C15.321878,52.1911604 14.4272727,51.8907343 14.0396103,51.7809632 C13.3418181,51.5845308 12.9362637,51.3187692 12.1788311,51.6076405 C11.7556285,51.800189 11.3452943,52.0182324 10.9502397,52.2604895 C10.3400525,52.5961531 9.68326993,52.8451981 9,53 C9.21421995,52.6011724 9.45322041,52.2153019 9.71568431,51.8445149 C10.8369231,50.2615003 12.4770329,49.158012 13.7473726,47.6789911 C15.1129013,46.1066691 16.3586888,44.440309 17.474895,42.6930729 C19.0255443,39.6079277 20.7133665,34.4717964 21.4111587,32.4381426 C22.6039658,29.0063519 23.7192406,23.9279949 24.5720977,21.5476955 C25.4249548,19.1673962 26.957712,18.3412244 28.4666131,18.0812402 C30.2558239,17.7750367 31.3353144,18.295005 30.9059038,20.3171039 C30.1603993,23.875998 26.5342655,37.6378256 21.8942456,44.4609651 Z" id="路径" fill="#FFE5D1"></path>
                        <path d="M26.0538713,100.000664 C24.6128225,101.107629 22.4912786,100.100291 22.3826281,100.205453 C20.6907884,101.721029 18.9175112,103.149154 17.0701905,104.483872 C16.1723943,105.170191 14.7828116,106.083437 15.0287048,107.39519 C15.4804621,109.741956 19.3632879,109.022429 20.8272104,108.302902 C22.2911329,107.583374 23.4920069,106.393387 24.8758711,105.535489 C25.8651625,104.937728 26.8372986,104.633313 26.9916966,103.421186 C27.0889102,102.718263 26.305483,99.9508506 26.0538713,100.000664 Z" id="路径" fill="#88796A"></path>
                        <path d="M26.9783254,104 C26.7888312,105.153792 25.8298761,105.473983 24.8364676,106.05916 C23.423875,106.909322 22.1778076,108.12384 20.7077926,108.819427 C19.3468803,109.481892 15.9532129,110.138835 15,108.466113 C15.5168021,110.724012 19.3526225,110.017383 20.8054108,109.305234 C22.2581991,108.593085 23.4812975,107.40065 24.870921,106.544967 C25.8643296,105.948749 26.8405114,105.64512 26.9955521,104.436122 C27.0050723,104.290561 26.9993008,104.144448 26.9783254,104 Z" id="路径" fill="#403932"></path>
                        <path d="M10.8790509,92.0066522 C9.44415148,93.184272 6.92307329,91.8975069 6.81445541,92.0066522 C5.31841846,93.5351819 3.73404356,94.9737971 2.06956901,96.3150175 C1.17204231,97.0215894 -0.217123231,97.9694297 0.0286961853,99.3366177 C0.480317903,101.77228 4.36197798,101.019752 5.83117774,100.278714 C7.30037751,99.5376747 8.48945747,98.2968655 9.87862301,97.40647 C10.8676174,96.7918099 11.8394616,96.4701186 11.9938133,95.2178204 C12.085281,94.4825261 11.1363037,91.9779297 10.8790509,92.0066522 Z" id="路径" fill="#88796A"></path>
                        <path d="M11.9777462,95 C11.7882612,96.1581042 10.8293525,96.4724468 9.83599194,97.0625285 C8.4234677,97.9062901 7.17746055,99.125057 5.70751663,99.8199195 C4.34667011,100.481693 0.953166761,101.137952 0,99.4669735 C0.522519128,101.722519 4.35241208,101.016627 5.80513009,100.310735 C7.25784811,99.604843 8.48088739,98.4081353 9.87044375,97.5533441 C10.8638043,96.9632624 11.8399389,96.6544346 11.9949721,95.4522121 C12.0053857,95.3013062 11.9996134,95.1497717 11.9777462,95 Z" id="路径" fill="#403932"></path>
                        <path d="M45.6650973,53.5412151 C47.2967183,63.7281299 42.7410455,67.5270368 36.8929417,69.6953359 C32.6589146,71.2499655 26.6061272,73.646199 26.6061272,73.646199 C26.6061272,73.646199 26.6880007,75.8846318 26.7347855,80.8991889 C26.7757223,85.3176098 26.19676,101.454197 26.19676,101.454197 C26.19676,101.454197 23.7581007,102.716603 21.687872,101.401597 C21.687872,101.401597 19.3135419,89.0405385 18.810605,83.4707566 C18.1263768,75.9080097 16.9684523,70.9635863 17.3544271,69.3388231 C17.6936172,67.901083 25.9628358,63.8391749 28.5827863,61.6650313 L11.2665511,67.468592 C11.6107708,69.3462843 11.7772025,71.2522117 11.76364,73.1611078 C11.6057412,79.1575362 11.2782474,92.1381087 11.2782474,92.1381087 C11.2782474,92.1381087 8.89806913,93.8563835 6.87462524,92.1731755 C6.87462524,92.1731755 2.51778796,66.4574984 3.04411729,63.0677046 C3.54705422,59.8357115 18.8339974,53.2373025 21.4948846,50.9638029 C22.4478662,50.1941046 23.6820423,49.8629309 24.8926329,50.0520653 L45.6650973,53.5412151 Z" id="路径" fill="#B8AB9D"></path>
                        <path d="M39.3352446,15 C39.3352446,15 39.0991765,19.8140092 39.2003485,20.22001 C39.3015205,20.6260108 41.3418233,22.0586136 41.9376142,22.5400145 C42.5334051,23.0214154 38.7113503,26.9364229 36.8790123,27.8122246 C35.0466743,28.6880263 29.1393515,26.3796219 29.0100761,23.3926161 C28.8808007,20.4056104 30.0217965,17.9058056 30.9211035,17.7782053 C31.8204105,17.6506051 39.3352446,15 39.3352446,15 Z" id="路径" fill="#FFE5D1"></path>
                        <path d="M40.1298571,21.2951183 C40.1298571,21.2951183 36.6153657,26.5770915 31.6775054,27.0583379 C30.1252717,25.5265657 29.984692,20.0685267 32.1343893,18.3254756 C32.1343893,18.3254756 30.1604166,16.7291459 28.8073374,17.0401954 C27.3546154,17.9200119 26.2733184,19.3019164 25.7673024,20.9253801 C24.5091036,24.5468109 23.913807,28.3660946 24.0100567,32.1994585 C24.0920615,37.3699234 24.0100567,50.4398726 24.0100567,50.4398726 C24.0100567,50.4398726 24.7480999,55.4342717 29.1939315,57.9226679 C32.7515793,59.9349551 36.941224,60.5121498 40.9089027,59.5366042 C43.4041915,58.9497183 44.3296743,57.5529298 45.1907247,55.7394523 C44.9681402,52.1183663 43.5330562,44.6590464 44.1363772,40.1048117 C44.7396983,35.550577 45.7003259,32.1466387 45.9521978,28.4609952 C46.2040697,24.7753517 45.4660265,24.8575157 43.6092035,23.5428913 C42.5049351,22.7106959 41.3421289,21.9594846 40.1298571,21.2951183 L40.1298571,21.2951183 Z" id="路径" fill="#F4F4F4"></path>
                        <polygon id="路径" fill="#3F3429" points="41 65 40.9942796 65.6394009 25 75 25 74.3605991"></polygon>
                        <polygon id="路径" fill="#3F3429" points="25 74.3647463 25 75 0 60.6352537 0.00574977001 60"></polygon>
                        <polygon id="路径" fill="#625547" points="42 64.5683192 25.556271 74 0 59.4316808 16.4378499 50"></polygon>
                        <polygon id="路径" fill="#DADCE5" points="40 62.1817102 25.0584795 71 14 65.1745843 29.4736842 56"></polygon>
                        <path d="M28.7025275,56.5192308 L29,57.7867746 L13.5780946,66 L2,57.5172065 L16.896954,49 L27.6292936,55.0968286 C28.1736966,55.4023954 28.562965,55.9183091 28.7025275,56.5192308 L28.7025275,56.5192308 Z" id="路径" fill="#F4F6F9"></path>
                        <polygon id="路径" fill="#DADCE5" points="29 57 28.9941269 58.9415205 14.3171496 67 14 65.6783626"></polygon>
                        <path d="M25,71.0123958 L25,73 L13,66.1538078 L13,66.1538078 C12.9971872,65.7417552 13.2185075,65.3599185 13.5796793,65.1537525 C13.9408511,64.9475865 14.3862647,64.9488346 14.7462466,65.1570213 L25,71.0123958 Z" id="路径" fill="#E6E9EF"></path>
                        <path d="M14,66.0628803 L14,67 L2,60.0263692 L2,58 L13.063444,64.4320487 C13.6430253,64.7675939 14.0002381,65.389611 14,66.0628803 Z" id="路径" fill="#E6E9EF"></path>
                        <polygon id="路径" fill="#C1C4D3" points="24 56.8489933 23.7267442 57 15 52.1565996 15.1395349 52.0782998 15.2732558 52"></polygon>
                        <polygon id="路径" fill="#C1C4D3" points="25 55.8434004 24.7267442 56 16 51.1510067 16.1337209 51.0782998 16.2732558 51"></polygon>
                        <polygon id="路径" fill="#C1C4D3" points="22 57.8435754 21.7154839 58 13 53.1564246 13.1451613 53.0782123 13.2845161 53"></polygon>
                        <polygon id="路径" fill="#C1C4D3" points="20 58.8434004 19.7211104 59 11 54.1510067 11.1336346 54.0782998 11.2730794 54"></polygon>
                        <polygon id="路径" fill="#C1C4D3" points="19 59.8434004 18.7211104 60 10 55.1565996 10.1394448 55.0782998 10.2788896 55"></polygon>
                        <polygon id="路径" fill="#C1C4D3" points="17 60.8435754 16.7212903 61 8 56.1564246 8.14516129 56.0782123 8.28451613 56"></polygon>
                        <polygon id="路径" fill="#C1C4D3" points="15 61.8434004 14.7211104 62 6 57.1510067 6.1394448 57.0727069 6.27888961 57"></polygon>
                        <polygon id="路径" fill="#C1C4D3" points="14 62.8379888 13.7211104 63 5 58.1564246 5.1394448 58.0782123 5.27888961 58"></polygon>
                        <polygon id="路径" fill="#C1C4D3" points="37 62.8488242 36.7209302 63 28 58.1511758 28.1395349 58.0727884 28.2790698 58"></polygon>
                        <polygon id="路径" fill="#C1C4D3" points="35 63.8434004 34.7153002 64 26 59.1565996 26.1394448 59.0782998 26.2788896 59"></polygon>
                        <polygon id="路径" fill="#C1C4D3" points="33 64.8434004 32.7267442 65 24 60.1565996 24.1395349 60.0782998 24.2790698 60"></polygon>
                        <polygon id="路径" fill="#C1C4D3" points="32 65.8488242 31.7267442 66 23 61.1511758 23.1453488 61.0727884 23.2790698 61"></polygon>
                        <polygon id="路径" fill="#C1C4D3" points="28 67.8434004 27.7265676 68 19 63.1565996 19.1338074 63.0782998 19.2734324 63"></polygon>
                        <polygon id="路径" fill="#C1C4D3" points="30 66.8434004 29.7153002 67 21 62.1565996 21.1394448 62.0782998 21.2788896 62"></polygon>
                        <polygon id="路径" fill="#C1C4D3" points="27 68.8434004 26.7267442 69 18 64.1510067 18.1395349 64.0727069 18.2790698 64"></polygon>
                        <polygon id="路径" fill="#C1C4D3" points="25 69.8434004 24.7153002 70 16 65.1565996 16.1394448 65.0782998 16.2846998 65"></polygon>
                        <polygon id="路径" fill="#C1C4D3" points="40 62 40 64.0148515 25 73 25 70.9851485"></polygon>
                        <path d="M34.3570888,62.5770964 C35.2426483,62.1547888 35.8888674,61.5126498 37.1813056,61.0093517 C38.0846312,60.7311864 38.9055145,60.2470573 39.5747096,59.5978029 C40.4542856,58.7589727 41.9022951,55.5945581 42.9374423,52.505349 C43.9668538,49.0244682 44.3716135,45.3987611 44.1341443,41.7856776 C43.6973481,37.4526858 42.0818004,31.3726132 41.6749217,28.9081879 C41.268043,26.4437626 42.0997509,25.4371664 43.2964529,24.5057756 C44.7025778,23.429759 46.6472186,23.9272721 47.6823658,27.3982935 C49.0220984,32.2282446 49.7988006,37.1879335 49.9979843,42.1848451 C50.039242,45.8959233 49.4468972,49.5881551 48.2448158,53.1127778 C47.1618005,56.387108 45.7496921,58.7416176 43.9366885,61.6977709 C43.4460407,62.5018909 43.2844859,63.2192354 42.5305636,64.8621855 C41.800473,66.5131009 40.6671083,67.9681733 39.227666,69.1026168 C37.9651454,69.9819422 37.3667944,70.103428 37.0736024,69.9356619 C36.7804104,69.7678959 36.7744269,69.3571584 37.3069593,68.8712153 C38.1999217,68.1920857 38.9615895,67.3655907 39.5567591,66.4299302 C39.5567591,66.4299302 38.4557932,67.5001619 37.7317885,68.0844505 C37.0913668,68.6080459 36.3809207,69.0458593 35.6196094,69.3860835 C34.8836377,69.6984755 33.8544739,69.0968317 34.3810228,68.6108887 C34.9075717,68.1249457 35.4401041,67.8993293 36.4932019,67.0142189 C37.0556534,66.5499689 37.5579304,66.0216184 37.9890794,65.4406891 C37.2508688,65.9898381 36.4685382,66.4811953 35.649527,66.9100882 C35.0101113,67.2980971 34.2682614,67.4990054 33.5134139,67.4885918 C33.1244857,67.4885918 32.6517884,66.9505835 33.3817766,66.4357153 C34.1117649,65.9208471 35.0691265,65.6605205 36.1760759,64.5902888 C36.9838497,63.815094 37.4385965,63.161385 37.2112231,63.1440299 C36.9838497,63.1266748 36.5470535,63.6184028 35.6016589,63.9076546 C34.6562643,64.1969064 33.6390676,63.9076546 33.5193974,63.4332817 C33.3997272,62.9589087 33.4715293,62.999404 34.3570888,62.5770964 Z" id="路径" fill="#FFE5D1"></path>
                        <path d="M28.3144728,7.51438474 L28.3144728,7.51438474 C28.9164777,3.70596654 31.7097804,0.814170738 35.7070928,1.0093226 C37.7601163,1.12199235 39.6826607,2.03418353 41.0488122,3.54381258 C42.4149638,5.05344163 43.1119388,7.0358798 42.9853319,9.05194488 C42.8516794,11.3956205 41.6085076,13.5425841 39.6261447,14.8532776 C39.4914837,15.4300723 39.2894778,15.9896649 39.0241398,16.5209389 C37.6094283,18.1472045 33.3351936,19.1525323 32.1010836,18.9810352 C30.5238308,18.7563148 29.693064,18.1117223 28.9164777,16.4144925 C27.5740068,13.3985091 28.0194904,9.40085276 28.3144728,7.51438474 Z" id="路径" fill="#FFE5D1"></path>
                        <path d="M39.480527,15 L39.480527,15 L39.1325551,11.7579787 C39.1325551,11.7579787 41.7566058,4.89896917 35.5615644,6.2142376 C31.4771726,7.08531451 30.4275523,7.46028138 29.2067983,4.69129521 C27.9860443,1.92230903 32.3499546,-0.575547254 37.5581247,0.116699291 C41.2761347,0.511648599 44.0752426,3.72087855 43.9984577,7.50066243 C43.8843686,9.54278974 43.3139228,13.6674254 39.480527,15 Z" id="路径" fill="#806F61"></path>
                        <path d="M51,33.3650383 C51,33.3650383 47.376989,36.8153912 43.0869033,35.8195338 C42.4749082,35.4211908 41,27.3547462 41,27.3547462 C41,27.3547462 41,22.885104 44.5801714,23.0022637 C48.1603427,23.1194234 51,33.3650383 51,33.3650383 Z" id="路径" fill="#EDEDED"></path>
                        <path d="M24.5239274,27 C24.5239274,27 22.7392739,26.9150623 22,25.8674972 C22.1328383,24.1234428 24.4141914,17.4926387 29,17 C27.7427337,17.8566944 26.7449665,19.0305761 26.1122112,20.3975085 C25.2978548,22.4133635 24.5239274,27 24.5239274,27 Z" id="路径" fill="#EDEDED"></path>
                    </g>
                </g>
            </g>
        </g>
    </g>
</svg>