<?xml version="1.0" encoding="UTF-8"?>
<svg width="300px" height="300px" viewBox="0 0 440 440" version="1.1" xmlns="http://www.w3.org/2000/svg" xmlns:xlink="http://www.w3.org/1999/xlink">
    <title>403</title>
    <defs>
        <linearGradient x1="24.4644786%" y1="51.6730673%" x2="66.7063015%" y2="55.7066893%" id="linearGradient-1">
            <stop stop-color="#000000" stop-opacity="0.05" offset="0%"></stop>
            <stop stop-color="#000000" stop-opacity="0" offset="100%"></stop>
        </linearGradient>
        <linearGradient x1="84.1795738%" y1="50%" x2="9.69601562%" y2="63.2053639%" id="linearGradient-2">
            <stop stop-color="#F5F8FD" offset="0%"></stop>
            <stop stop-color="#F8FCFF" offset="100%"></stop>
        </linearGradient>
        <linearGradient x1="0%" y1="12.2270113%" x2="100%" y2="12.2270113%" id="linearGradient-3">
            <stop stop-color="#FFFFFF" offset="0%"></stop>
            <stop stop-color="#E8ECF5" offset="1.35199415%"></stop>
            <stop stop-color="#E8EFF5" offset="44.5445371%"></stop>
            <stop stop-color="#F0F8FD" offset="47.7886202%"></stop>
            <stop stop-color="#DDE7ED" offset="51.5633153%"></stop>
            <stop stop-color="#D6E3EF" offset="98.5646709%"></stop>
            <stop stop-color="#EFF4F7" offset="100%"></stop>
        </linearGradient>
        <linearGradient x1="0%" y1="44.6683903%" x2="100%" y2="44.3984426%" id="linearGradient-4">
            <stop stop-color="#F7FBFF" offset="0%"></stop>
            <stop stop-color="#E2EFFF" offset="1.02641373%"></stop>
            <stop stop-color="#E2EFFF" offset="2.48923189%"></stop>
            <stop stop-color="#E2EFFF" offset="42.4244364%"></stop>
            <stop stop-color="#BAD5FE" offset="47.3335808%"></stop>
            <stop stop-color="#92BAFF" offset="50.8995302%"></stop>
            <stop stop-color="#BAD5FE" offset="96.4993553%"></stop>
            <stop stop-color="#BAD5FE" offset="98.2405648%"></stop>
            <stop stop-color="#E3EEFF" offset="100%"></stop>
        </linearGradient>
        <linearGradient x1="0%" y1="12.2270113%" x2="100%" y2="12.2270113%" id="linearGradient-5">
            <stop stop-color="#FFFFFF" offset="0%"></stop>
            <stop stop-color="#E8ECF5" offset="1.35199415%"></stop>
            <stop stop-color="#E8EFF5" offset="44.5445371%"></stop>
            <stop stop-color="#F0F8FD" offset="47.7886202%"></stop>
            <stop stop-color="#DDE7ED" offset="51.5633153%"></stop>
            <stop stop-color="#D6E3EF" offset="98.5646709%"></stop>
            <stop stop-color="#EFF4F7" offset="100%"></stop>
        </linearGradient>
        <linearGradient x1="34.9772876%" y1="40.7866307%" x2="50%" y2="68.1015169%" id="linearGradient-6">
            <stop stop-color="#C2C5C8" offset="0%"></stop>
            <stop stop-color="#A6A7AB" offset="100%"></stop>
        </linearGradient>
        <linearGradient x1="75.2525548%" y1="54.2123461%" x2="0.548853587%" y2="52.2202015%" id="linearGradient-7">
            <stop stop-color="#F8F8F8" offset="0%"></stop>
            <stop stop-color="#B6B6B6" offset="100%"></stop>
        </linearGradient>
        <linearGradient x1="18.9956531%" y1="7.81807712%" x2="92.7042594%" y2="128.071621%" id="linearGradient-8">
            <stop stop-color="#D0D6DF" offset="0%"></stop>
            <stop stop-color="#FFFFFF" offset="100%"></stop>
        </linearGradient>
        <linearGradient x1="25.1936021%" y1="3.95073095%" x2="67.2949441%" y2="100%" id="linearGradient-9">
            <stop stop-color="#FCFCFC" offset="0%"></stop>
            <stop stop-color="#D7DAE8" offset="76.5105988%"></stop>
            <stop stop-color="#D0D6DF" offset="100%"></stop>
        </linearGradient>
        <linearGradient x1="39.4351389%" y1="3.95073095%" x2="57.3657886%" y2="100%" id="linearGradient-10">
            <stop stop-color="#F9F9F9" offset="0%"></stop>
            <stop stop-color="#EEEEEE" offset="9.22309078%"></stop>
            <stop stop-color="#CFD2E1" offset="39.9557474%"></stop>
            <stop stop-color="#D5D7DD" offset="100%"></stop>
        </linearGradient>
        <linearGradient x1="56.5320889%" y1="1.95363366%" x2="54.6652806%" y2="100%" id="linearGradient-11">
            <stop stop-color="#C0C5D1" offset="0%"></stop>
            <stop stop-color="#DADCE1" offset="83.1926409%"></stop>
            <stop stop-color="#FFFFFF" offset="100%"></stop>
        </linearGradient>
        <linearGradient x1="24.4644786%" y1="52.6784052%" x2="66.7063015%" y2="59.1358112%" id="linearGradient-12">
            <stop stop-color="#000000" stop-opacity="0.05" offset="0%"></stop>
            <stop stop-color="#000000" stop-opacity="0" offset="100%"></stop>
        </linearGradient>
        <linearGradient x1="24.4644786%" y1="50.4552781%" x2="66.7063015%" y2="51.5529146%" id="linearGradient-13">
            <stop stop-color="#000000" stop-opacity="0.05" offset="0%"></stop>
            <stop stop-color="#000000" stop-opacity="0" offset="100%"></stop>
        </linearGradient>
        <linearGradient x1="24.4644786%" y1="50.3860181%" x2="66.7063015%" y2="51.3166747%" id="linearGradient-14">
            <stop stop-color="#000000" stop-opacity="0.05" offset="0%"></stop>
            <stop stop-color="#000000" stop-opacity="0" offset="100%"></stop>
        </linearGradient>
        <linearGradient x1="24.4644786%" y1="50.2923902%" x2="66.7063015%" y2="50.997318%" id="linearGradient-15">
            <stop stop-color="#000000" stop-opacity="0.05" offset="0%"></stop>
            <stop stop-color="#000000" stop-opacity="0" offset="100%"></stop>
        </linearGradient>
        <linearGradient x1="24.4644786%" y1="50.2925227%" x2="66.7063015%" y2="50.9977699%" id="linearGradient-16">
            <stop stop-color="#000000" stop-opacity="0.05" offset="0%"></stop>
            <stop stop-color="#000000" stop-opacity="0" offset="100%"></stop>
        </linearGradient>
        <linearGradient x1="24.4644786%" y1="50.4537723%" x2="66.7063015%" y2="51.5477786%" id="linearGradient-17">
            <stop stop-color="#000000" stop-opacity="0.05" offset="0%"></stop>
            <stop stop-color="#000000" stop-opacity="0" offset="100%"></stop>
        </linearGradient>
        <linearGradient x1="24.4644786%" y1="50.6121523%" x2="66.7063015%" y2="52.087999%" id="linearGradient-18">
            <stop stop-color="#000000" stop-opacity="0.05" offset="0%"></stop>
            <stop stop-color="#000000" stop-opacity="0" offset="100%"></stop>
        </linearGradient>
        <linearGradient x1="24.4644786%" y1="51.0894152%" x2="66.7063015%" y2="53.7159019%" id="linearGradient-19">
            <stop stop-color="#000000" stop-opacity="0.05" offset="0%"></stop>
            <stop stop-color="#000000" stop-opacity="0" offset="100%"></stop>
        </linearGradient>
        <linearGradient x1="0%" y1="50%" x2="91.2028277%" y2="51.6753754%" id="linearGradient-20">
            <stop stop-color="#92BAFF" offset="0%"></stop>
            <stop stop-color="#BAD5FE" offset="49.8115166%"></stop>
            <stop stop-color="#92BAFF" offset="100%"></stop>
        </linearGradient>
        <linearGradient x1="0%" y1="42.5340614%" x2="90.1914527%" y2="45.6770765%" id="linearGradient-21">
            <stop stop-color="#DFE3E9" offset="0%"></stop>
            <stop stop-color="#FFFFFF" offset="51.3740166%"></stop>
            <stop stop-color="#DFE3E9" offset="100%"></stop>
        </linearGradient>
        <linearGradient x1="0%" y1="50%" x2="91.2028277%" y2="52.0823536%" id="linearGradient-22">
            <stop stop-color="#92BAFF" offset="0%"></stop>
            <stop stop-color="#BAD5FE" offset="49.8115166%"></stop>
            <stop stop-color="#92BAFF" offset="100%"></stop>
        </linearGradient>
        <linearGradient x1="0%" y1="31.9119118%" x2="90.1914527%" y2="39.5266455%" id="linearGradient-23">
            <stop stop-color="#DFE3E9" offset="0%"></stop>
            <stop stop-color="#FFFFFF" offset="51.3740166%"></stop>
            <stop stop-color="#DFE3E9" offset="100%"></stop>
        </linearGradient>
        <linearGradient x1="34.5277641%" y1="50%" x2="62.7499974%" y2="54.1975198%" id="linearGradient-24">
            <stop stop-color="#92BAFF" offset="0%"></stop>
            <stop stop-color="#BAD5FE" offset="49.8115166%"></stop>
            <stop stop-color="#92BAFF" offset="100%"></stop>
        </linearGradient>
    </defs>
    <g id="403" stroke="none" stroke-width="1" fill="none" fill-rule="evenodd">
        <g id="编组-3备份" transform="translate(11.811357, 94.974002)">
            <g id="编组-7备份-3" transform="translate(0.000000, 108.562613)">
                <g id="编组-6">
                    <polygon id="路径-8" fill="#BAD5FE" points="15.8115716 0 -5.67756122e-14 8.63273826 15.8115716 17.2654765 31.9618282 8.81023699"></polygon>
                    <polygon id="路径-9" fill="#E2EFFF" points="0 8.63273826 0 27.7352436 15.8115716 36.3870603 15.8115716 17.2654765"></polygon>
                    <polygon id="路径-10" fill="#92BAFF" points="31.9618282 27.2322085 15.8115716 36.3870603 15.8115716 17.2654765 31.9618282 8.81023699"></polygon>
                </g>
                <path d="M15.8115716,36.3870603 L55.7148537,36.3870603 C55.7148537,25.3366172 55.7148537,19.8113957 55.7148537,19.8113957 C55.7148537,19.8113957 47.7971785,19.8113957 31.9618282,19.8113957 L31.9618282,27.2322085 L15.8115716,36.3870603 Z" id="路径-11" fill="url(#linearGradient-1)"></path>
            </g>
            <g id="编组-7备份-3" transform="translate(181.396921, 3.000000)">
                <g id="编组-6">
                    <polygon id="路径-8" fill="#BAD5FE" points="15.8115716 0 -5.67756122e-14 8.63273826 15.8115716 17.2654765 31.9618282 8.81023699"></polygon>
                    <polygon id="路径-9" fill="#E2EFFF" points="0 8.63273826 0 27.7352436 15.8115716 36.3870603 15.8115716 17.2654765"></polygon>
                    <polygon id="路径-10" fill="#92BAFF" points="31.9618282 27.2322085 15.8115716 36.3870603 15.8115716 17.2654765 31.9618282 8.81023699"></polygon>
                </g>
                <path d="M15.8115716,36.3870603 L55.7148537,36.3870603 C55.7148537,25.3366172 55.7148537,19.8113957 55.7148537,19.8113957 C55.7148537,19.8113957 47.7971785,19.8113957 31.9618282,19.8113957 L31.9618282,27.2322085 L15.8115716,36.3870603 Z" id="路径-11" fill="url(#linearGradient-1)"></path>
            </g>
            <g id="编组-6备份-2" transform="translate(287.712426, 46.408215)">
                <g id="编组-4备份" transform="translate(0.000000, 5.961813)">
                    <path d="M40.8276112,38.2337933 L103.873947,20.6648426 C105.86368,20.1103693 107.926166,21.2738767 108.480639,23.2636092 C108.660341,23.9084701 108.663665,24.5897438 108.490265,25.2363277 L91.454267,88.7611986 C90.6916169,91.6050149 88.4285261,93.8000718 85.5627626,94.4755906 L24.8579074,108.78496 C22.8474617,109.258863 20.8334992,108.013249 20.3595962,106.002803 C20.2236486,105.426071 20.22668,104.82529 20.3684404,104.249959 L35.2074465,44.0262259 C35.8982388,41.2226629 38.0461751,39.0088885 40.8276112,38.2337933 Z" id="矩形" fill="url(#linearGradient-2)" transform="translate(64.546702, 64.546702) rotate(-315.000000) translate(-64.546702, -64.546702) "></path>
                    <path d="M7.19993494,80.2135531 L57.7998287,111.631303 L57.7998287,111.631303 C60.5193089,113.319843 63.9445553,113.385628 66.7268668,111.802757 L121.238609,80.7907371 C123.741948,79.3707858 125.286869,76.7140079 125.285805,73.8359954 C125.282479,67.309809 125.281799,64.2197332 125.283764,64.5657679 C125.288298,65.1956582 125.131786,65.8350133 124.800125,66.4229312 C124.470892,67.0065446 123.991049,67.4910932 123.410677,67.826006 L66.83144,100.475913 C64.0469739,102.082732 60.6049451,102.030204 57.870806,100.339169 L5.20630635,67.7667461 C4.05784043,67.0564323 3.42749027,65.8258792 3.43138694,64.5677511 L3.41990326,73.4066953 C3.4163039,76.177105 4.84630919,78.752174 7.19993494,80.2135531 Z" id="路径" fill="url(#linearGradient-3)"></path>
                    <g id="编组-15" transform="translate(43.611842, 74.203814)">
                        <path d="M1.12817175,20.8978563 L11.7196425,27.5259478 C12.1374645,27.7874188 12.3372634,28.4470982 12.1659058,28.999383 C11.9945482,29.5516677 11.5169238,29.7874188 11.0991018,29.5259478 L0.507630979,22.8978563 C0.0898089931,22.6363853 -0.109989867,21.9767059 0.0613677345,21.4244212 C0.232725336,20.8721364 0.710349761,20.6363853 1.12817175,20.8978563 Z" id="矩形备份-7" fill="#92BAFF"></path>
                        <path d="M76.5185542,2.58398476 C77.184693,2.21642513 77.6898456,1.37844699 77.646844,0.712308197 C77.6038424,0.0461694055 77.0289706,-0.195876831 76.3628318,0.171682797 C75.696693,0.539242425 75.1915405,1.37722056 75.234542,2.04335936 C75.2775436,2.70949815 75.8524154,2.95154438 76.5185542,2.58398476 Z" id="椭圆形" fill="#FFFFFF"></path>
                        <path d="M72.8664136,4.66216496 C73.5325524,4.29460534 74.0377049,3.4566272 73.9947033,2.79048841 C73.9517017,2.12434961 73.3768299,1.88230338 72.7106911,2.24986301 C72.0445523,2.61742263 71.5393998,3.45540077 71.5824014,4.12153956 C71.6254029,4.78767836 72.2002748,5.02972459 72.8664136,4.66216496 Z" id="椭圆形备份" fill="#FFFFFF"></path>
                        <path d="M69.2142729,6.73752182 C69.8804117,6.36996219 70.3855642,5.53198405 70.3425626,4.86584526 C70.2995611,4.19970647 69.7246892,3.95766023 69.0585504,4.32521986 C68.3924116,4.69277948 67.8872591,5.53075762 67.9302607,6.19689642 C67.9732622,6.86303521 68.5481341,7.10508144 69.2142729,6.73752182 Z" id="椭圆形备份-2" fill="#FFFFFF"></path>
                    </g>
                </g>
                <g id="编组-5" transform="translate(6.351886, 2.565877)">
                    <path d="M37.2528994,42.5941516 L94.2799262,26.7025854 C95.8759683,26.2578207 97.5303691,27.1911154 97.9751338,28.7871575 C98.1192794,29.3044256 98.1219461,29.8509018 97.9828553,30.369552 L82.5763326,87.8183343 C81.8136825,90.6621506 79.5505917,92.8572076 76.6848282,93.5327263 L21.8196927,106.465555 C20.2070357,106.845691 18.5915577,105.846535 18.2114217,104.233878 C18.1023728,103.771259 18.1048044,103.289349 18.218516,102.827853 L31.6327347,48.3865842 C32.323527,45.5830212 34.4714633,43.3692468 37.2528994,42.5941516 Z" id="矩形备份-8" stroke="#92BAFF" stroke-width="0.5" transform="translate(58.194816, 66.441130) rotate(-315.000000) translate(-58.194816, -66.441130) "></path>
                    <path d="M38.5077819,32.5919463 L91.912777,17.7097218 C93.6152219,17.2353061 95.3799161,18.2308205 95.8543318,19.9332654 C96.0080872,20.485018 96.0109316,21.0679261 95.8625681,21.6211529 L81.4349229,75.419837 C80.6722728,78.2636532 78.4091821,80.4587102 75.5434185,81.134229 L24.1675077,93.2445763 C22.4473402,93.6500548 20.7241637,92.5842887 20.3186852,90.8641213 C20.2023664,90.3706604 20.2049601,89.8566234 20.3262524,89.3643614 L32.8876171,38.3843789 C33.5784094,35.5808159 35.7263457,33.3670416 38.5077819,32.5919463 Z" id="矩形备份-4" fill="#92BAFF" transform="translate(58.194816, 55.324679) rotate(-315.000000) translate(-58.194816, -55.324679) "></path>
                    <path d="M9.58228488,69.0950537 L52.411893,95.6881905 L52.411893,95.6881905 C54.7428312,97.1354827 57.6787001,97.1918695 60.0634926,95.8351484 L106.210981,69.5815975 C108.712579,68.1599208 110.256717,65.5035996 110.255566,62.6262476 C110.253007,57.4889128 110.252536,55.0625238 110.254152,55.3470806 C110.258039,55.8869762 110.123888,56.4349842 109.839612,56.9389042 C109.557418,57.4391346 109.146132,57.854454 108.64868,58.1415165 L60.1531251,86.1266125 C57.7664858,87.5038589 54.8162322,87.4588364 52.4727296,86.0094054 L7.33259919,58.0907233 C6.34821878,57.4818947 5.80792905,56.4271551 5.81126899,55.3487804 L5.8022532,62.2881959 C5.79865384,65.0586055 7.22865913,67.6336746 9.58228488,69.0950537 Z" id="路径备份-2" fill="url(#linearGradient-4)"></path>
                    <g id="编组-16" transform="translate(40.250996, 64.120883)" fill="#FFFFFF">
                        <path d="M0.966985732,17.6843436 L10.0452144,23.3654555 C10.4033407,23.5895692 10.5745935,24.1549978 10.4277184,24.6283756 C10.2808433,25.1017534 9.87145883,25.3038219 9.51333259,25.0797082 L0.435103888,19.3985963 C0.0769776545,19.1744826 -0.0942752132,18.6090541 0.0525999023,18.1356762 C0.199475018,17.6622984 0.608859498,17.4602299 0.966985732,17.6843436 Z" id="矩形"></path>
                        <path d="M65.5860691,2.21480142 C66.1570342,1.89975638 66.5900138,1.18150324 66.553156,0.610538125 C66.5162982,0.039573014 66.0235604,-0.167891193 65.4525953,0.147153849 C64.8816302,0.462198892 64.4486506,1.18045204 64.4855084,1.75141715 C64.5223662,2.32238226 65.015104,2.52984646 65.5860691,2.21480142 Z" id="椭圆形"></path>
                        <path d="M62.4557231,3.99606444 C63.0266882,3.6810194 63.4596677,2.96276625 63.42281,2.39180114 C63.3859522,1.82083603 62.8932144,1.61337182 62.3222493,1.92841687 C61.7512842,2.24346191 61.3183046,2.96171505 61.3551624,3.53268016 C61.3920202,4.10364527 61.884758,4.31110948 62.4557231,3.99606444 Z" id="椭圆形备份"></path>
                        <path d="M59.3253771,5.77490748 C59.8963422,5.45986244 60.3293217,4.7416093 60.292464,4.17064418 C60.2556062,3.59967907 59.7628684,3.39221487 59.1919033,3.70725991 C58.6209382,4.02230495 58.1879586,4.74055809 58.2248164,5.31152321 C58.2616742,5.88248832 58.754412,6.08995252 59.3253771,5.77490748 Z" id="椭圆形备份-2"></path>
                    </g>
                </g>
                <g id="编组-4" transform="translate(14.754789, 0.000000)">
                    <path d="M32.5239173,36.4254276 L80.4417576,23.0722935 C81.8781955,22.6720053 83.3671562,23.5119705 83.7674445,24.9484085 C83.8971756,25.4139497 83.8995756,25.9057784 83.7743939,26.3725636 L70.8317234,74.6339832 C70.0690733,77.4777995 67.8059825,79.6728565 64.940219,80.3483752 L18.8810569,91.2054567 C17.4296656,91.5475792 15.9757354,90.6483391 15.633613,89.1969478 C15.535469,88.7805902 15.5376574,88.3468715 15.6399978,87.9315254 L26.9037526,42.2178602 C27.5945448,39.4142972 29.7424812,37.2005228 32.5239173,36.4254276 Z" id="矩形备份-8" stroke="#FFFFFF" stroke-width="0.5" transform="translate(49.791913, 57.010229) rotate(-315.000000) translate(-49.791913, -57.010229) "></path>
                    <path d="M33.7445987,27.4990762 L78.4675769,15.0362456 C79.9040148,14.6359574 81.3929756,15.4759226 81.7932638,16.9123606 C81.9229949,17.3779018 81.9253949,17.8697305 81.8002132,18.3365157 L69.7214221,63.3766491 C68.958772,66.2204654 66.6956813,68.4155224 63.8299177,69.0910411 L20.8552376,79.2210475 C19.4038463,79.56317 17.9499161,78.6639299 17.6077936,77.2125385 C17.5096497,76.7961809 17.5118381,76.3624622 17.6141785,75.9471162 L28.124434,33.2915088 C28.8152262,30.4879457 30.9631626,28.2741714 33.7445987,27.4990762 Z" id="矩形" fill="url(#linearGradient-2)" transform="translate(49.791913, 47.000000) rotate(-315.000000) translate(-49.791913, -47.000000) "></path>
                    <path d="M9.06373809,58.7697628 L44.8791439,81.0077432 L44.8791439,81.0077432 C46.859347,82.2372621 49.353457,82.2851643 51.3794109,81.1325884 L89.9740879,59.1758719 C92.475745,57.7539318 94.0199978,55.0974269 94.0187627,52.2198935 C94.0168935,48.3360445 94.0166077,46.5083272 94.0179051,46.7367416 C94.0212066,47.1953994 93.9072416,47.6609489 93.6657408,48.0890442 C93.4260082,48.5140052 93.0766083,48.8668316 92.6540072,49.1107001 L51.4555564,72.8848914 C49.4280336,74.0549042 46.9217033,74.0166562 44.9308265,72.7853204 L6.58291078,49.0675497 C5.74664964,48.5503312 5.28765706,47.6542978 5.29049444,46.7381857 L5.2837064,51.9629049 C5.28010705,54.7333146 6.71011234,57.3083837 9.06373809,58.7697628 Z" id="路径" fill="url(#linearGradient-5)"></path>
                    <g id="编组-17" transform="translate(34.548091, 54.270665)" fill="#92BAFF">
                        <path d="M0.821483833,15.1256273 L8.53371563,19.951905 C8.83795478,20.1422964 8.98343931,20.6226452 8.85866442,21.024794 C8.73388954,21.4269429 8.38610495,21.5986062 8.08186581,21.4082148 L0.369634006,16.5819372 C0.0653948622,16.3915458 -0.0800896652,15.911197 0.0446852191,15.5090482 C0.169460103,15.1068993 0.517244689,14.9352359 0.821483833,15.1256273 Z" id="矩形备份-6"></path>
                        <path d="M55.7173634,1.88154127 C56.2024157,1.61390091 56.570245,1.00372299 56.5389332,0.518670734 C56.5076214,0.0336184808 56.0890256,-0.142628682 55.6039733,0.125011677 C55.1189211,0.392652037 54.7510918,1.00282996 54.7824036,1.48788221 C54.8137154,1.97293447 55.2323111,2.14918163 55.7173634,1.88154127 Z" id="椭圆形"></path>
                        <path d="M53.0580391,3.39477846 C53.5430914,3.1271381 53.9109207,2.51696018 53.8796089,2.03190792 C53.8482971,1.54685567 53.4297013,1.37060851 52.944649,1.63824887 C52.4595968,1.90588923 52.0917675,2.51606715 52.1230793,3.0011194 C52.1543911,3.48617165 52.5729869,3.66241882 53.0580391,3.39477846 Z" id="椭圆形备份"></path>
                        <path d="M50.3987148,4.9059598 C50.8837671,4.63831945 51.2515964,4.02814152 51.2202846,3.54308927 C51.1889728,3.05803702 50.770377,2.88178985 50.2853248,3.14943021 C49.8002725,3.41707057 49.4324432,4.02724849 49.463755,4.51230075 C49.4950668,4.997353 49.9136626,5.17360016 50.3987148,4.9059598 Z" id="椭圆形备份-2"></path>
                    </g>
                </g>
            </g>
            <g id="编组-14" transform="translate(122.535694, 0.000000)">
                <g id="编组">
                    <polygon id="路径备份" fill="#F9F9F9" points="54.6088858 6.49363304 42.3888 12.9872661 31.5787755 6.98214243 44.2980631 0"></polygon>
                    <polygon id="路径-2备份" fill="#DFE3E9" points="31.5787755 6.98214243 0 49.1726225 0 67.4845997 37.6298525 89.5680367 37.6298525 111.105099 47.9999195 117.5 47.9999195 60.2027608 37.6298525 54.2484337 37.6298525 78.7895045 8.57829464 62.2410712 8.57829464 57.5040484 42.3888 12.9872661"></polygon>
                    <polygon id="路径-3备份" fill="#F9F9F9" points="37.6298525 54.2484337 49.5053566 47.4707364 60.213931 53.8367486 47.9999195 60.2027608"></polygon>
                    <polygon id="路径-4备份" fill="#D0D6DF" points="60.213931 53.8367486 60.213931 110.352365 47.9999195 117.5 47.9999195 60.2027608"></polygon>
                    <polygon id="路径-5备份-2" fill="#C2C5C8" points="42.3888 12.9872661 54.6088858 6.49363304 21.6270877 50.5228967 8.57829464 57.5040484"></polygon>
                    <polygon id="路径-7备份" fill="#FFFFFF" points="37.6298525 64.8709044 8.57829464 62.2410712 37.6298525 78.7895045"></polygon>
                    <polygon id="路径-8备份-2" fill="url(#linearGradient-6)" points="21.6270877 50.5228967 8.57829464 57.5040484 8.57829464 62.2410712 21.6270877 55.621746"></polygon>
                    <polygon id="路径-6备份" fill="url(#linearGradient-7)" points="8.57829464 62.2410712 21.6270877 55.621746 37.6298525 64.8709044"></polygon>
                </g>
                <g id="编组" transform="translate(139.523377, 71.704058)">
                    <polygon id="路径" fill="#F9F9F9" fill-rule="nonzero" points="0 61.4493721 12.4136766 54.1132573 23.4136663 62.2189531 10.9999897 69.5550679"></polygon>
                    <path d="M48.3999546,96.2729136 C48.1260569,96.358945 47.8465628,96.4260236 47.5634535,96.4736738 L47.4630734,96.4736738 C47.1639012,96.5173785 46.8619986,96.5397417 46.5596522,96.5405939 L46.4676371,96.5405939 C46.1293707,96.5417033 45.7913525,96.5221485 45.4554707,96.4820388 C45.2128854,96.4820388 44.9703001,96.3983887 44.7277147,96.3481987 L44.5604145,96.3481987 L43.8995786,96.1725334 L43.8075635,96.1725334 C43.5566132,96.0972483 43.3056628,96.0052332 43.0547125,95.9048531 C42.9626974,95.9048531 42.8790473,95.837933 42.7870321,95.8044729 L42.2516714,95.5702526 L41.8585159,95.3862224 L41.3984403,95.1520021 C41.21441,95.0599869 41.0303798,94.9512418 40.8379845,94.8424967 L40.436464,94.6166414 C40.0516735,94.3907861 39.658518,94.1398357 39.2569974,93.8721554 C38.8554769,93.604475 38.5961615,93.4204448 38.2615611,93.1694944 C37.9269606,92.9185441 37.42506,92.5086585 36.9817144,92.1656931 L36.5801938,91.8310926 C36.1368483,91.4546671 35.7436927,91.0698766 35.2836171,90.6767211 C34.8570015,90.2668355 34.447116,89.84022 34.0372305,89.4136044 L33.6859,89.0288139 C33.3847596,88.7053668 33.0919842,88.3707663 32.8075738,88.0250126 L32.4646084,87.615127 C32.0881829,87.1550514 31.7201224,86.6782458 31.3687919,86.1930751 C31.0090964,85.6995394 30.666131,85.1892738 30.3315305,84.6706431 L30.0303901,84.2022024 C29.7878048,83.8090469 29.5452195,83.4075264 29.3109991,83.0060058 C29.210619,82.8470706 29.1186039,82.6797704 29.0265888,82.5208352 C28.7170833,81.9603795 28.4075779,81.3999237 28.1231676,80.847833 C27.8387572,80.2957422 27.4539667,79.5177962 27.1528263,78.8485953 C27.0608111,78.6562 26.985526,78.4638048 26.9018759,78.2714095 C26.6927506,77.7862389 26.4836254,77.3010682 26.2995951,76.8158976 C26.20758,76.5984073 26.1239299,76.372552 26.0486448,76.1550617 C25.8144245,75.5276859 25.5885692,74.891945 25.3878089,74.2562042 L25.3376188,74.0889039 C25.1703186,73.5535432 25.0281134,73.0098175 24.8775432,72.4660918 C24.726973,71.922366 24.6600529,71.5794006 24.5513078,71.12769 C24.4425626,70.6759794 24.3840076,70.399934 24.3170875,70.0318735 C24.2501674,69.663813 24.1581523,69.1953724 24.0912322,68.8189469 C24.0243121,68.4425214 23.957392,68.0410009 23.8988369,67.6394803 C23.8402818,67.2379598 23.7984568,66.8531693 23.7566317,66.4600138 C23.7148067,66.0668582 23.6646166,65.6235126 23.6227915,65.2387221 C23.5809665,64.8539316 23.5642365,64.402221 23.5391414,64.0090655 C23.5391414,63.4486097 23.4638563,62.896519 23.4471263,62.3360632 L10.9832597,69.5968929 C10.9832597,69.8980333 10.9832597,70.1991737 10.9832597,70.5003141 C10.9832597,70.8014545 11.0250847,71.0189448 11.0418147,71.2782602 C11.0418147,71.6881457 11.0920048,72.1147613 11.1254649,72.5079168 C11.1254649,72.658487 11.1254649,72.8090572 11.1254649,72.9596274 C11.1254649,73.1101976 11.1923849,73.4698931 11.225845,73.7292085 C11.2704584,74.1251523 11.3206485,74.5183078 11.3764152,74.908675 C11.3764152,75.0592452 11.3764152,75.2014504 11.4266053,75.3436556 C11.4767953,75.4858608 11.5186204,75.8371913 11.5604454,76.0881416 C11.6357305,76.4896621 11.7026506,76.9246427 11.7863007,77.3010682 C11.7863007,77.4432734 11.8281258,77.5938436 11.8615858,77.7360488 C11.8950459,77.878254 11.970331,78.1710294 12.0205211,78.3968847 C12.1292662,78.8402303 12.2296463,79.2919409 12.3467565,79.7352865 C12.3969466,79.8942217 12.4220416,80.0531569 12.4722317,80.2120921 C12.5726118,80.5968826 12.6897219,80.9816731 12.8068321,81.3580986 L12.8570222,81.5253989 C13.0075924,81.9994162 13.1665276,82.4762218 13.3338278,82.9558158 C13.3923829,83.114751 13.459303,83.2653212 13.5178581,83.4242564 C13.5764131,83.5831916 13.6767933,83.859237 13.7688084,84.0850923 C13.9528386,84.5702629 14.1619639,85.0554336 14.3710892,85.5406042 C14.4547393,85.7329995 14.5300244,85.9253947 14.6220395,86.11779 C14.7140546,86.3101853 14.6889596,86.2767252 14.7307847,86.3603753 C14.998465,86.9459261 15.2828754,87.5314769 15.5672858,88.1086627 C15.8516962,88.6858484 16.1612016,89.2546692 16.470707,89.7816649 C16.5627221,89.9406001 16.6631023,90.0995353 16.7551174,90.2668355 C16.9893377,90.6683561 17.231923,91.1033367 17.4745083,91.4630321 L17.7756487,91.9231078 C18.1102492,92.4501035 18.4532146,92.9603691 18.8129101,93.4539048 C19.1642406,93.9390754 19.5323011,94.4075161 19.9087266,94.8759567 C20.0258367,95.0097969 20.1429469,95.1436371 20.251692,95.2858422 C20.5361024,95.6204427 20.8288778,95.9550431 21.1300182,96.2812786 L21.4813487,96.6744341 C21.8912342,97.1010497 22.3178498,97.5109352 22.7277354,97.9291858 C23.1459859,98.3223413 23.5642365,98.7071318 24.0159471,99.0751923 L24.4174676,99.4181578 L24.9110033,99.8196783 C25.1703186,100.028804 25.437999,100.229564 25.6973143,100.421959 C25.9566297,100.614354 26.3581502,100.898765 26.6843856,101.116255 C27.0859062,101.383935 27.4790617,101.626521 27.8722172,101.860741 L27.9976924,101.944391 L28.2653727,102.086596 C28.457768,102.195341 28.6417982,102.304087 28.8258285,102.396102 L29.0182238,102.504847 L29.2859041,102.630322 L29.6790596,102.814352 L29.8630899,102.898002 L30.2144203,103.048573 L30.4821007,103.148953 L30.5741158,103.190778 C30.7916061,103.274428 31.0007314,103.341348 31.2098567,103.408268 L31.3018718,103.408268 L31.7452174,103.542108 L31.9627077,103.542108 L32.1300079,103.583933 L32.2722131,103.583933 L32.7573837,103.667583 L32.8577639,103.667583 L33.2258244,103.667583 C33.3762796,103.675903 33.5270797,103.675903 33.677535,103.667583 C33.7415989,103.671755 33.8058663,103.671755 33.8699302,103.667583 L34.1292456,103.667583 L34.5809562,103.667583 L34.8653666,103.625758 L34.9657467,103.625758 L35.0661268,103.625758 L35.5931225,103.508648 L35.7687878,103.441728 L35.9946431,103.366443 L36.2288634,103.291158 C36.4128936,103.215873 36.5969239,103.132223 36.7725891,103.040208 L49.1862657,95.6957278 C49.0116231,95.876146 48.8243289,96.0438721 48.6258099,96.1976285 C48.5532156,96.2301715 48.4775559,96.2553914 48.3999546,96.2729136 Z" id="路径" fill="url(#linearGradient-8)" fill-rule="nonzero"></path>
                    <path d="M63.9003203,93.9641705 L63.9003203,93.8052353 C63.9003203,93.1694944 63.9003203,92.5253886 63.9003203,91.8812827 C63.9003203,91.8812827 63.9003203,91.8143626 63.9003203,91.7809026 C63.9003203,91.4630321 63.9003203,91.1535267 63.8334002,90.8356563 C63.7664802,90.5177859 63.7915752,90.1497254 63.7581151,89.8067599 C63.7621987,89.7650345 63.7621987,89.7230101 63.7581151,89.6812848 C63.7581151,89.3048593 63.6661,88.9284338 63.61591,88.5436432 C63.5657199,88.1588527 63.5489899,87.9580925 63.5071648,87.6653171 C63.5037425,87.6291495 63.5037425,87.5927395 63.5071648,87.5565719 C63.4151497,86.9710211 63.2980395,86.3938354 63.1892944,85.8082846 C63.1892944,85.6744444 63.1391043,85.5322392 63.1056443,85.390034 L63.1056443,85.390034 C62.938344,84.620453 62.7459488,83.850872 62.5368235,83.0812909 C62.5329236,83.0311766 62.5329236,82.9808351 62.5368235,82.9307207 C62.3862533,82.386995 62.2189531,81.8432693 62.0432879,81.3079086 L61.9178127,80.9147531 C61.8174326,80.6303427 61.7254174,80.3375673 61.6250373,80.0782519 C61.5246572,79.8189366 61.4661021,79.6767314 61.390817,79.4676061 L61.1900567,78.9489754 C60.9558364,78.3383296 60.7048861,77.7276838 60.4455707,77.117038 C60.2364454,76.6402323 60.0273202,76.1717917 59.8098299,75.6949861 C59.8098299,75.602971 59.7178147,75.5193209 59.6759897,75.4273057 C59.5588795,75.1763554 59.4334044,74.91704 59.3079292,74.6660897 C59.182454,74.4151394 58.9565987,73.9466987 58.7642035,73.5870033 L58.3543179,72.8090572 C58.1619227,72.4577268 57.9695274,72.1063963 57.7687671,71.7550658 L57.3170565,70.9687548 C57.1079313,70.6257893 56.898806,70.2744588 56.6813157,69.9314934 L56.196145,69.1535473 C55.9619247,68.8022169 55.7360694,68.4508864 55.4934841,68.0995559 C55.2508988,67.7482255 55.1588837,67.5976553 54.9832184,67.3550699 C54.7322681,66.9870095 54.4729527,66.627314 54.2052724,66.2676185 L53.6950067,65.5649576 L52.7748555,64.377126 L52.3231449,63.7999402 C51.8463392,63.2143894 51.3611686,62.6288386 50.8592679,62.0432879 L38.4455913,69.3877677 C38.947492,69.9733184 39.4326627,70.5588692 39.9094683,71.14442 C40.0684035,71.3368153 40.2106087,71.5292105 40.3611789,71.7216058 C40.6706843,72.1147613 40.9885547,72.5079168 41.2813301,72.9094374 L41.7999608,73.6120983 L42.5695418,74.6911847 L43.0798075,75.4440357 C43.3251812,75.7953662 43.5594015,76.1466967 43.7824685,76.4980272 L44.2676391,77.2759732 C44.4851294,77.6189387 44.6942547,77.9619041 44.90338,78.3132346 L45.3550906,79.0995456 C45.5558508,79.4508761 45.7482461,79.8022066 45.9406414,80.153537 C46.1330366,80.5048675 46.2166867,80.6721677 46.3505269,80.9314831 C46.4843671,81.1907984 46.7185874,81.650874 46.8942526,82.0105695 C47.0699179,82.370265 47.145203,82.5124702 47.2623131,82.7717855 C47.5299935,83.3322413 47.7893088,83.892697 48.0318941,84.4447878 C48.2744795,84.9968785 48.5421598,85.6577144 48.7763801,86.2767252 C48.8516652,86.4440254 48.9102203,86.6196907 48.9771404,86.7953559 C49.1611707,87.2861032 49.3368359,87.7796389 49.5041361,88.2759629 L49.6296113,88.6691184 C49.8220065,89.2546692 49.9976718,89.848585 50.156607,90.4425008 C50.3657323,91.2120818 50.5581275,91.9816628 50.7254277,92.7512439 C50.7254277,92.9018141 50.7756178,93.0440193 50.8090779,93.1945895 C50.926188,93.7717752 51.0349332,94.357326 51.1269483,94.9428768 C51.1771383,95.2691122 51.2105984,95.6037127 51.2524234,95.9299481 C51.2942485,96.2561835 51.3611686,96.6911641 51.3946286,97.0675896 C51.4280887,97.4440151 51.4615487,97.8371707 51.4866438,98.2219612 C51.5117388,98.6067517 51.5368338,98.849337 51.5535638,99.1672074 C51.5535638,99.8364083 51.6037539,100.513974 51.6037539,101.19154 C51.6037539,101.30865 51.6037539,101.42576 51.6037539,101.542871 C51.6037539,102.186976 51.6037539,102.814352 51.5535638,103.424998 L51.5535638,103.935264 C51.5535638,104.46226 51.4782787,104.96416 51.4280887,105.466061 L51.4280887,105.691916 C51.3778986,106.216124 51.3109785,106.726389 51.2273284,107.222713 C51.2273284,107.390013 51.1687733,107.548949 51.1436783,107.716249 C51.1185833,107.883549 51.0349332,108.3018 50.9763781,108.55275 C50.917823,108.8037 50.892728,108.929175 50.8509029,109.113206 C50.8090779,109.297236 50.7421578,109.581646 50.6836027,109.807502 C50.6250476,110.033357 50.5748575,110.175562 50.5246675,110.359592 C50.4744774,110.543623 50.4075573,110.761113 50.3406372,110.953508 C50.2737171,111.145903 50.2235271,111.304839 50.156607,111.480504 C50.0896869,111.656169 50.0227668,111.848564 49.9474817,112.032595 C49.8721966,112.216625 49.8136415,112.350465 49.7467214,112.5094 C49.6798013,112.668335 49.5877862,112.877461 49.5041361,113.044761 L49.2866458,113.471377 C49.1779007,113.672137 49.0775205,113.856167 48.9687754,114.040197 L48.7512851,114.399893 C48.5672549,114.684303 48.3832246,114.951984 48.1908294,115.236394 L48.0569892,115.412059 C47.939879,115.562629 47.8227689,115.69647 47.6972937,115.838675 L47.4296133,116.14818 C47.2957732,116.290385 47.153568,116.41586 47.0197278,116.549701 C46.8858876,116.683541 46.8440626,116.725366 46.7436824,116.809016 C46.5894943,116.949103 46.4275125,117.080364 46.2585118,117.202172 L46.0159265,117.394567 C45.7649761,117.578597 45.5056608,117.754262 45.2379804,117.913197 L57.651657,110.568718 C57.9193373,110.409782 58.1786527,110.234117 58.429603,110.050087 L58.6721884,109.857692 C58.8394886,109.732217 58.9984238,109.606741 59.157359,109.464536 L59.4334044,109.205221 C59.5672445,109.071381 59.7094497,108.945905 59.8432899,108.8037 L60.1109703,108.494195 C60.2280804,108.360355 60.3535556,108.21815 60.4706658,108.067579 L60.4706658,108.067579 C60.4706658,108.067579 60.5292208,107.975564 60.5626809,107.925374 C60.7634411,107.666059 60.9474714,107.398378 61.1315016,107.088873 C61.1315016,107.038683 61.1984217,106.996858 61.2235168,106.946668 L61.3489919,106.729178 C61.4577371,106.545147 61.5581172,106.361117 61.6584973,106.168722 C61.7588775,105.976327 61.7505125,106.018152 61.7923375,105.934501 L61.8759876,105.742106 C61.9680028,105.566441 62.0432879,105.382411 62.126938,105.206745 C62.2105881,105.03108 62.2189531,105.01435 62.2524131,104.91397 C62.2811238,104.851313 62.3062592,104.787078 62.3276982,104.721575 C62.4029833,104.537545 62.4699034,104.353514 62.5368235,104.169484 L62.6622987,103.843249 C62.6779428,103.775259 62.6974936,103.708228 62.7208538,103.642488 C62.7877738,103.450093 62.8463289,103.249333 62.904884,103.048573 C62.9634391,102.847812 62.9801691,102.814352 63.0136291,102.688877 L63.0638192,102.496482 C63.1223743,102.270627 63.1809294,102.036406 63.2311194,101.802186 L63.3314996,101.40903 L63.3314996,101.250095 C63.3900547,100.95732 63.4486097,100.664544 63.4987998,100.363404 L63.5740849,99.9786135 C63.5740849,99.9786135 63.5740849,99.9116934 63.5740849,99.8782334 C63.64937,99.3846977 63.7246551,98.874432 63.7748452,98.3474363 L63.7748452,98.3474363 C63.7748452,98.2805162 63.7748452,98.2219612 63.7748452,98.1550411 C63.8250352,97.6642938 63.8668603,97.1540281 63.9003203,96.624244 C63.8964826,96.5490078 63.8964826,96.4736249 63.9003203,96.3983887 C63.9003203,96.3063736 63.9003203,96.2059935 63.9003203,96.1139784 C63.9003203,95.5033325 63.9505104,94.8759567 63.9505104,94.2318508 C63.8919553,94.0896456 63.9003203,94.0310906 63.9003203,93.9641705 Z" id="路径" fill="#D0D6DF"></path>
                    <path d="M48.3664946,51.2691535 C48.1898957,51.3457202 48.008222,51.4100048 47.8227689,51.4615487 L47.7893088,51.4615487 C47.6144306,51.5118611 47.4351742,51.5454717 47.2539481,51.5619289 L47.2539481,51.5619289 C47.0531878,51.5619289 46.8524276,51.5619289 46.6433023,51.5619289 L46.5931122,51.5619289 C46.366354,51.5612474 46.1399301,51.5444752 45.9155463,51.5117388 C45.689691,51.5117388 45.4638357,51.4364537 45.2212504,51.3778986 L45.1041402,51.3778986 C44.8663182,51.3242952 44.6317224,51.2572679 44.4014793,51.1771383 L44.2341791,51.1185833 C44.0417838,51.0516632 43.8410235,50.9847431 43.6486283,50.901093 L43.3809479,50.7923478 C43.2136477,50.7254277 43.0379825,50.6417776 42.8623172,50.5581275 L42.4858917,50.3824623 L42.0927362,50.173337 C41.8752459,50.0645919 41.6661206,49.9474817 41.4486304,49.8220065 L40.7961595,49.437216 L40.6037642,49.3201059 C40.3109888,49.1277106 40.0014834,48.9353153 39.700343,48.7261901 C39.3992026,48.5170648 38.922397,48.1908294 38.5292415,47.889689 L33.4265846,44.1254339 L21.0129081,51.4699137 L26.1155649,55.2341688 C26.5170854,55.5269442 26.9018759,55.8029895 27.2866664,56.0706699 L27.3619515,56.1208599 C27.6379969,56.3132552 27.9224073,56.4889204 28.1984527,56.6645857 L28.3908479,56.7733308 L28.8760186,57.0744712 L29.0433188,57.1664863 L29.6874246,57.5178168 L29.971835,57.668387 L30.0805802,57.7269421 L30.4570057,57.9026073 L30.8167012,58.0699075 L30.9756364,58.1368276 L31.2433167,58.2455728 L31.5026321,58.3543179 L31.8288675,58.4630631 L31.9961677,58.5216182 L32.0798178,58.5216182 L32.5900835,58.6638233 L32.6988287,58.6638233 L32.8159388,58.6638233 L33.0334291,58.7140134 L33.4349496,58.7809335 L33.5102348,58.7809335 L33.8030101,58.7809335 L34.1543406,58.7809335 L34.4889411,58.7809335 L34.8235415,58.7809335 L34.8820966,58.7809335 L35.158142,58.7809335 L35.4174573,58.7223784 L35.4843774,58.7223784 L35.4843774,58.7223784 C35.6261175,58.6853803 35.7657405,58.6407009 35.9026279,58.5885382 L35.9946431,58.5885382 C36.143829,58.521618 36.2890602,58.4462094 36.4296236,58.3626829 L48.8433002,51.0265681 C48.6897045,51.1175219 48.5304436,51.1985494 48.3664946,51.2691535 L48.3664946,51.2691535 Z" id="路径" fill="#D0D6DF" fill-rule="nonzero"></path>
                    <path d="M24.710243,23.990852 C24.7604331,23.5558715 24.8106231,23.1543509 24.8775432,22.7444654 C24.8734935,22.6859803 24.8734935,22.6272852 24.8775432,22.5688001 C24.9360983,22.1923746 25.0030184,21.8326792 25.0783035,21.4813487 C25.0783035,21.3893336 25.1201285,21.2973184 25.1368586,21.2053033 C25.1954136,20.962718 25.2456037,20.7284977 25.3125238,20.5026424 L25.3794439,20.234962 C25.446364,20.0007417 25.5132841,19.7832514 25.5885692,19.5657611 L25.6387592,19.4151909 C25.7224094,19.1642406 25.8144245,18.9216553 25.9064396,18.687435 C25.9064396,18.6288799 25.9649947,18.5703248 25.9900897,18.5034047 C26.0151847,18.4364846 26.1322949,18.1771693 26.20758,18.0265991 C26.2828651,17.8760289 26.2828651,17.8760289 26.3246902,17.8091088 L26.5505455,17.3908582 L26.6676556,17.198463 C26.8014958,16.9893377 26.943701,16.7802124 27.0859062,16.5961822 C27.1343506,16.5310648 27.1874692,16.469559 27.2448414,16.4121519 C27.3044627,16.3331383 27.3687067,16.2577214 27.4372366,16.1862966 C27.6478103,15.9526723 27.8803069,15.7397839 28.1315326,15.5505558 L28.1984527,15.5003657 C28.3297917,15.4007303 28.4666368,15.3085693 28.6083382,15.2243203 L16.1946616,22.5688001 C15.7616171,22.8336611 15.3674803,23.1574163 15.0235601,23.5307764 C14.9550301,23.6022012 14.8907861,23.6776181 14.8311648,23.7566317 C14.7809747,23.8151868 14.7224197,23.8737419 14.6722296,23.940662 L14.6722296,23.940662 C14.5300244,24.1246922 14.3878192,24.3338175 14.253979,24.5429428 L14.203789,24.6182279 C14.203789,24.6182279 14.203789,24.693513 14.1368689,24.735338 L13.9110136,25.1535886 L13.8357285,25.2874288 C13.8201218,25.3144481 13.8061549,25.342382 13.7939034,25.3710789 C13.7186183,25.5216491 13.6516982,25.6805843 13.5764131,25.8478845 L13.509493,25.9984547 C13.509493,25.9984547 13.509493,25.9984547 13.509493,25.9984547 C13.4174779,26.232675 13.3254628,26.4752604 13.2418127,26.7262107 L13.2418127,26.7262107 C13.2382416,26.7679595 13.2382416,26.809937 13.2418127,26.8516859 C13.1665276,27.0691761 13.0996075,27.2866664 13.0326874,27.5208868 L13.0326874,27.6212669 C13.014821,27.6759784 13.0008445,27.7318845 12.9908623,27.7885671 C12.9350956,28.0172107 12.8765405,28.2514311 12.8151971,28.491228 C12.805215,28.5479107 12.7912384,28.6038167 12.7733721,28.6585283 C12.7733721,28.6585283 12.7733721,28.7338134 12.7733721,28.7672734 C12.698087,29.1186039 12.6311669,29.4782994 12.5726118,29.8547249 C12.5686982,29.871226 12.5686982,29.8884138 12.5726118,29.9049149 C12.5685282,29.9466403 12.5685282,29.9886647 12.5726118,30.0303901 C12.5056917,30.4235456 12.4555016,30.8668912 12.4053116,31.2684118 C12.4011982,31.3185175 12.4011982,31.3688762 12.4053116,31.418982 C12.4007268,31.4494823 12.4007268,31.4804967 12.4053116,31.5109971 C12.4053116,31.8706926 12.3300265,32.2387531 12.3049314,32.6235436 L24.718608,25.2790638 C24.718608,24.8942732 24.7771631,24.5262128 24.8189881,24.1665173 L24.710243,23.990852 Z" id="路径" fill="#D0D6DF" fill-rule="nonzero"></path>
                    <path d="M8.24790101,8.69124661 L20.6615776,1.3467668 C21.0362972,1.129486 21.424688,0.936687708 21.8243141,0.769581028 L9.41063757,8.11406084 C9.01101138,8.28116752 8.62262062,8.47396581 8.24790101,8.69124661" id="路径" fill="#F7F8F9" fill-rule="nonzero"></path>
                    <path d="M62.5786486,49.5208661 L62.5786486,49.395391 C62.5786486,48.7345551 62.5786486,48.0737192 62.5368235,47.4128833 C62.5368235,47.3292332 62.5368235,47.2455831 62.5368235,47.161933 C62.5368235,47.0782829 62.5368235,46.9862677 62.5368235,46.9026176 C62.5368235,46.1832267 62.4531734,45.4638357 62.3778883,44.7444448 L62.3778883,44.7444448 L62.3778883,44.7444448 C62.3026032,43.9999588 62.2022231,43.2554728 62.0934779,42.5109868 C62.0980853,42.4246097 62.0980853,42.3380485 62.0934779,42.2516714 L62.0934779,42.0843712 C61.9680028,41.2980602 61.8257976,40.5201141 61.6584973,39.7421681 C61.6625162,39.6753083 61.6625162,39.6082676 61.6584973,39.5414078 L61.5581172,39.1064272 C61.5079271,38.8554769 61.4493721,38.6045266 61.390817,38.3619412 C61.3322619,38.1193559 61.2653418,37.8433105 61.1984217,37.5923602 C61.1315016,37.3414099 61.0729466,37.0988245 61.0060265,36.8478742 C61.0060265,36.7391291 60.9558364,36.6387489 60.9223764,36.5300038 C60.8889163,36.4212586 60.8470913,36.2874185 60.8136312,36.1619433 C60.7132511,35.8189778 60.6128709,35.4676474 60.5041258,35.1246819 L60.3033655,34.480576 C60.1862554,34.1208806 60.0607802,33.7695501 59.9436701,33.4098546 C59.89348,33.2676494 59.8516549,33.1254442 59.8014649,32.9916041 L59.7512748,32.8577639 C59.5003245,32.163468 59.2326441,31.477537 58.9565987,30.7916061 C58.8980437,30.6410359 58.8311236,30.4988307 58.7725685,30.3482605 C58.4965231,29.6874246 58.2121127,29.0349538 57.9360674,28.3741179 L57.8858773,28.2486427 L57.8858773,28.1984527 C57.7269421,27.8638522 57.5680069,27.5292518 57.4007067,27.1946513 C57.3170565,27.0273511 57.2417714,26.8600509 57.1581213,26.7011157 C56.907171,26.199215 56.6562207,25.6973143 56.3885403,25.1954136 C55.8950046,24.3087225 55.384739,23.4471263 54.8661083,22.5938952 C54.7239031,22.3513098 54.5733329,22.1254545 54.4311277,21.8912342 C53.9877821,21.1969383 53.5444365,20.5193724 53.0843609,19.8501715 C52.9756157,19.6828713 52.8668706,19.5155711 52.7497604,19.3566358 C52.1893047,18.5201347 51.6121189,17.7756487 51.0182031,17.0060677 L50.5832225,16.462342 C50.0980519,15.8516962 49.6045162,15.2494154 49.1026156,14.6638646 C48.9353153,14.4714693 48.7680151,14.2707091 48.5923499,14.0783138 C47.956609,13.3589228 47.3041382,12.6395319 46.6265723,11.953601 C46.5429222,11.8615858 46.450907,11.7779357 46.3588919,11.6859206 C45.9322763,11.25094 45.5223908,10.8494195 45.0623152,10.3977089 L44.5855095,9.97109332 C44.2927341,9.68668294 43.9832287,9.41900258 43.6820883,9.1345922 C43.2052827,8.71634164 42.7284771,8.29809108 42.2433064,7.88820553 L41.2896951,7.10189448 L40.7459694,6.65018388 C40.2022437,6.22356831 39.658518,5.81368276 39.0729672,5.40379722 C38.4874164,4.99391167 37.9687857,4.5672961 37.3999649,4.24106066 L37.3497749,4.24106066 C36.9064293,3.94828527 36.5132738,3.6722399 36.0448331,3.40455955 L35.6935027,3.18706926 L35.191602,2.87756384 C35.0744918,2.81064375 34.9573817,2.76045369 34.8486365,2.6935336 C34.5391311,2.51786836 34.2379907,2.35056814 33.9368503,2.19999794 L33.5520598,1.98250765 L33.2425544,1.84030246 L32.6319086,1.55589208 L32.2387531,1.36349682 L31.8205025,1.1961966 L31.3855219,1.01216635 L31.1262066,0.911786218 C30.8417962,0.803041072 30.5657508,0.71102595 30.2897054,0.619010827 L30.1893253,0.619010827 L30.1893253,0.619010827 L29.3528242,0.368060492 L29.0684138,0.309505413 L28.8258285,0.250950335 L28.5581481,0.192395257 L27.8220272,0.0585550782 L27.671457,0.0585550782 L27.1193662,0 L26.8767809,0 L26.5840055,0 L26.3163251,0 L25.479824,0 L25.1703186,0 L24.9946534,0 L24.7938931,0 L24.4425626,0.050190067 C24.3896871,0.0455208802 24.336503,0.0455208802 24.2836274,0.050190067 L24.1163272,0.050190067 L23.6729816,0.150570201 L23.4973164,0.150570201 L23.3969362,0.150570201 C23.1124447,0.231175824 22.8330991,0.328946802 22.5604351,0.443345592 L22.5604351,0.443345592 C22.3433179,0.526060783 22.1310638,0.621016549 21.9246943,0.727755972 L9.5110177,8.07223578 C9.72014298,7.96349063 9.93763327,7.87147551 10.1551236,7.77946039 C10.3726139,7.68744527 10.7155793,7.57870012 10.9916247,7.49505001 L11.26767,7.41976491 L11.7110156,7.31938477 L12.0372511,7.2608297 C12.15578,7.23543427 12.2759932,7.21866033 12.3969466,7.21063963 L12.756642,7.21063963 L13.0828775,7.21063963 L13.484398,7.21063963 L13.7855384,7.21063963 L14.212154,7.21063963 L14.5049294,7.21063963 C14.7307847,7.21063963 14.948275,7.21063963 15.1741303,7.27755972 C15.5505558,7.32774979 15.9353463,7.40303489 16.3285018,7.486685 L16.5710871,7.53687506 C16.9558776,7.62889019 17.3490332,7.73763533 17.7421887,7.8631105 L17.8425688,7.8631105 C18.2022643,7.98022066 18.5703248,8.11406084 18.9467503,8.25626603 L19.3817309,8.44029627 L20.218232,8.79162674 L20.8205128,9.08440213 L21.5148087,9.4357326 L22.4265949,9.93763327 C22.7026403,10.0965685 22.9870507,10.2555037 23.2630961,10.4311689 L23.6144265,10.6486592 C24.0605605,10.9274929 24.5122711,11.2063266 24.9695583,11.4851603 C25.5132841,11.8448558 26.0570098,12.2296463 26.6425606,12.6395319 C27.3954116,13.1916226 28.1148025,13.7688084 28.8341935,14.3125341 L29.7878048,15.0988452 C30.2729754,15.5087307 30.7581461,15.9353463 31.2265867,16.3452318 C31.5277271,16.6212772 31.8372325,16.8889576 32.1300079,17.1817329 C32.7322887,17.7421887 33.3262045,18.3110095 33.9033903,18.8547352 C33.9954054,18.9467503 34.0874205,19.0304004 34.1710706,19.1224155 C34.8486365,19.8083465 35.5011074,20.5193724 36.1452133,21.2471284 L36.6471139,21.8326792 C37.1490146,22.4182299 37.6425503,23.0205107 38.1277209,23.6311566 C38.2782911,23.8068218 38.4204963,23.990852 38.5627015,24.1748823 C39.1566173,24.9444633 39.7421681,25.7224094 40.3026238,26.5254504 L40.6288593,27.0106211 C41.0889349,27.688187 41.5406455,28.3657529 41.9756261,29.0600488 L42.4106066,29.7543447 C42.9292373,30.5908459 43.439503,31.477537 43.9330387,32.3642282 C44.200719,32.8661289 44.4516694,33.3680296 44.7026197,33.8615652 L44.95357,34.3718309 L45.4303757,35.3672672 L45.5056608,35.5429325 C45.8068012,36.2037683 46.0912116,36.8562392 46.3421619,37.5170751 C46.409082,37.6592803 46.4676371,37.8098505 46.5261921,37.9604207 C46.8106025,38.6463516 47.0699179,39.3322825 47.3208682,40.0265785 L47.5132635,40.5786692 C47.6387386,40.9299997 47.7558488,41.2896951 47.8729589,41.6493906 L48.0737192,42.2851315 C48.1824643,42.6364619 48.2828445,42.9794274 48.3832246,43.3307579 C48.4836047,43.6820883 48.5170648,43.7908335 48.5756199,44.0166888 C48.6341749,44.2425441 48.70946,44.5102244 48.7680151,44.7611748 C48.8265702,45.0121251 48.9018553,45.2714405 48.9604104,45.5307558 C49.0189655,45.7900711 49.0775205,46.0242915 49.1277106,46.2752418 C49.1779007,46.5261921 49.2197257,46.6934924 49.2699158,46.9109826 C49.428851,47.6889287 49.5710562,48.4668747 49.6965314,49.2531858 C49.6965314,49.395391 49.7383564,49.5375962 49.7550864,49.6798013 C49.8638316,50.4159223 49.9642117,51.1687733 50.0394968,51.9132593 L50.0394968,51.9132593 C50.1147819,52.6326503 50.156607,53.3520412 50.198432,54.0714322 L50.198432,54.5733329 C50.198432,55.2425338 50.2402571,55.9033697 50.2402571,56.5642055 L50.2402571,56.8151559 C50.2402571,57.3421516 50.2402571,57.8524173 50.190067,58.3543179 C50.190067,58.4546981 50.190067,58.5634432 50.190067,58.6638233 C50.190067,59.132264 50.1315119,59.5756096 50.0896869,60.0105901 C50.0896869,60.1026053 50.0896869,60.1946204 50.0896869,60.2866355 C50.0896869,60.5877759 50.0144018,60.8889163 49.9725767,61.1733267 C49.9725767,61.3071669 49.9223867,61.441007 49.9056566,61.5664822 C49.8889266,61.6919574 49.8303715,61.9930978 49.7885465,62.2022231 C49.7467214,62.4113483 49.7299914,62.4615384 49.7048964,62.5953786 L49.5794212,63.1140093 C49.5794212,63.2394845 49.5125011,63.3733246 49.4706761,63.4987998 C49.428851,63.624275 49.387026,63.7999402 49.3368359,63.9421454 L49.2113607,64.3185709 C49.1685442,64.4550615 49.1182787,64.5891027 49.0607905,64.7200914 L48.9269503,65.0714219 L48.7512851,65.4562124 C48.701095,65.5649576 48.650905,65.6737027 48.5923499,65.7740828 C48.5337948,65.874463 48.4417797,66.0668582 48.3581296,66.2006984 L48.2242894,66.4349187 C48.0797755,66.668599 47.9234251,66.8947487 47.7558488,67.1124846 L47.5216285,67.38853 L47.3459632,67.6060203 L47.0699179,67.8737006 L46.8858876,68.0493659 C46.7826578,68.1451103 46.6737124,68.2345014 46.5596522,68.3170462 L46.400717,68.4508864 C46.2334167,68.5679966 46.0661165,68.6851067 45.8820863,68.7938519 L58.2957628,61.4493721 C58.4797931,61.3406269 58.6470933,61.2235168 58.8143935,61.1064066 L58.9816938,60.9725664 C59.0933907,60.8903875 59.1995756,60.8009687 59.2995642,60.7048861 C59.3649224,60.6506867 59.4264154,60.5919888 59.4835944,60.5292208 L59.7512748,60.2615405 C59.817053,60.1929157 59.8785142,60.1202797 59.935305,60.0440502 C60.0066447,59.9698761 60.0736747,59.8916745 60.1360653,59.8098299 L60.1360653,59.8098299 C60.2950005,59.5923396 60.4539357,59.3748493 60.6045059,59.132264 C60.646331,59.0737089 60.679791,58.9984238 60.7216161,58.9398687 C60.7634411,58.8813136 60.8805513,58.6554583 60.9558364,58.5048881 L60.9558364,58.437968 L61.0729466,58.1870177 C61.1315016,58.0615425 61.1900567,57.9360674 61.2402468,57.8022272 L61.2904368,57.7102121 C61.2904368,57.626562 61.3489919,57.5345468 61.382452,57.4508967 C61.415912,57.3672466 61.4911971,57.1915814 61.5330222,57.0493762 C61.5519691,57.0152567 61.5660474,56.9786533 61.5748472,56.940631 C61.6076984,56.8530333 61.6356254,56.763667 61.6584973,56.6729507 C61.7086874,56.5307455 61.7505125,56.3801753 61.7923375,56.2296051 C61.8112368,56.1866948 61.8252661,56.1418011 61.8341626,56.0957649 C61.8341626,56.0204798 61.8759876,55.9284647 61.9010827,55.8448146 L62.0265578,55.3261839 C62.0374642,55.2669474 62.0514245,55.2083142 62.0683829,55.1505186 C62.0683829,55.0835986 62.0683829,54.9999484 62.1102079,54.9330284 C62.1102079,54.7239031 62.185493,54.5147778 62.2273181,54.2972875 C62.2273181,54.2220024 62.2273181,54.1550823 62.2691432,54.0714322 L62.2691432,53.904132 C62.2691432,53.6197216 62.3444283,53.3185812 62.3862533,53.0174408 L62.3862533,52.7999505 C62.382811,52.7805839 62.382811,52.760762 62.3862533,52.7413954 C62.4280784,52.3147799 62.4615384,51.8630693 62.4866334,51.4029936 C62.4866334,51.3611686 62.4866334,51.3193435 62.4866334,51.2775185 L62.4866334,51.1938684 C62.4866334,50.6919677 62.4866334,50.190067 62.5368235,49.6547063 L62.5786486,49.5208661 Z" id="路径" fill="url(#linearGradient-9)"></path>
                    <path d="M15.3725987,7.25467413 C18.7186032,7.68965471 22.5079533,9.52159215 26.799204,12.6919314 C33.9523287,17.9326472 39.8570015,24.6914551 44.0896821,32.4835478 C48.1961091,39.9140517 50.3813909,48.2526271 50.4470906,56.7420802 C50.4470906,66.2530979 47.1847362,70.6447288 40.8440578,69.8082277 C40.0887541,69.7050343 39.3421979,69.5456571 38.6105998,69.331422 C42.5643263,73.8253375 45.7980979,78.9045598 48.1969026,84.3884421 C50.5428665,89.6544601 51.759619,95.3535353 51.7687623,101.118464 C51.7687623,110.069026 49.4349242,115.690314 44.9261832,118.082707 C42.9885262,118.917761 40.8548718,119.190266 38.769535,118.869018 C35.1056601,118.383848 30.9147895,116.4348 26.2220182,112.971685 C18.8871769,107.53777 12.8808904,100.510414 8.65549477,92.4188529 C3.60513846,82.8325176 0.747947843,72.2437692 0.2904836,61.4181215 L11.2653783,69.5823724 C11.3698684,76.0317622 12.9705894,82.3687848 15.9414195,88.0941421 C18.2943015,92.9813081 21.7854205,97.2326132 26.1216381,100.491089 C28.8319017,102.481961 31.2242949,103.594508 33.3155477,103.837093 C34.6531151,104.047358 36.0229296,103.830764 37.2303729,103.218082 C39.6311311,101.737475 40.9444379,98.7595313 40.9528029,93.8743648 C41.0295898,88.466903 39.6946523,83.1329193 37.0798027,78.3990941 C34.4523722,73.6671531 30.7996897,69.5828939 26.3893185,66.4454932 L21.1862815,62.6143181 L21.1862815,51.4972182 L26.2889383,55.2614732 C29.2417873,57.4363761 31.7094656,58.6074777 33.6752432,58.9002531 C34.5220843,59.0335779 35.389221,58.9353024 36.1847465,58.6158427 C38.3847445,57.6622314 39.5893061,54.7512076 39.5976711,49.874406 C39.6219007,45.2348751 38.5681,40.6531331 36.519347,36.4903882 C34.2091583,32.0863067 30.889879,28.2912067 26.832664,25.4151134 C24.1140354,23.4075107 21.7467373,22.2698692 19.7725946,22.0105538 C18.7342895,21.8425896 17.6694549,21.9942921 16.7193655,22.4455344 C14.3186073,23.666826 12.8129053,27.0295605 12.4030198,32.7094031 L1.70417049,24.8211976 C2.32318131,15.6196853 4.9330648,10.0987779 9.64256609,8.14136531 C11.4164214,7.26508417 13.4168525,6.95552841 15.3725987,7.25467413 Z" id="路径" fill="#DFE3E9" fill-rule="nonzero"></path>
                </g>
                <g id="编组-2" transform="translate(68.507070, 31.181693)">
                    <path d="M5.27556574,9.69533598 C11.1639886,4.63138967 24.7396431,8.6356705 30.7831442,12.7798954 L30.7831442,12.7798954 L31.2348621,13.0933436 C44.4248683,22.3545407 52.2913199,37.4684741 52.2913249,53.6080581 L52.2913249,53.6080581 L52.2913249,102.055702 C52.2913249,117.508614 40.2995435,120.996489 25.2962232,112.075305 C12.1986103,104.287282 5.27556574,97.5911964 1.31845138,79.8935593 L1.31845138,79.8935593 L1.28410621,79.73959 C0.963383504,78.2960425 0.482834872,75.9101806 0.0241096261,67.808513 C0.0138824995,67.3057097 0.0068257822,65.6040238 0.00293947411,62.7034552 L0.00222687433,62.1270844 C0.00211470584,62.0285276 0.00200583643,61.9287231 0.00190026609,61.8276712 L0.00103920802,60.8845202 C0.00095343212,60.775983 0.000870955293,60.6661983 0.000791777539,60.5551661 L0.000791777539,50.4051017 C0.000870955293,50.2341877 0.00095343212,50.0620262 0.00103920802,49.8886171 L0.00190026609,48.2942521 C0.00200583643,48.1133578 0.00211470584,47.9312159 0.00222687433,47.7478266 L0.00293947411,46.63252 C0.0068257822,40.7927554 0.0138824995,33.7541081 0.0241096261,25.5165782 C0.0241096261,18.2036967 1.774595,12.9299493 5.27556574,9.69533598 Z M13.6756646,21.0009619 C11.6572464,22.7548697 10.6480373,26.9276196 10.6480373,33.5192115 C10.642466,37.9347314 10.6381009,41.9019321 10.634942,45.4208136 L10.6340722,46.4140091 C10.6336538,46.9045073 10.6332599,47.3858561 10.6328907,47.8580555 L10.632185,48.7902553 C10.6320729,48.9435887 10.6319635,49.0959055 10.6318568,49.2472058 L10.6312497,50.142808 C10.6311539,50.2900418 10.6310609,50.4362591 10.6309707,50.5814597 L10.6300189,52.2750709 C10.6299505,52.4121388 10.6298849,52.5481901 10.629822,52.6832248 L10.6290835,54.6325002 C10.629048,54.757369 10.6290151,54.8812211 10.628985,55.0040566 L10.628985,58.6886041 C10.6290151,58.7890745 10.629048,58.8885283 10.6290835,58.9869655 L10.629822,60.3872786 C10.6298849,60.4755498 10.6299505,60.5628045 10.6300189,60.6490425 L10.6309707,61.6351022 C10.6310609,61.7132075 10.6311539,61.7902962 10.6312497,61.8663682 L10.6318568,62.3106014 C10.6319635,62.3826071 10.6320729,62.4535962 10.632185,62.5235687 L10.6328907,62.9312044 C10.6332599,63.1289227 10.6336538,63.3174916 10.6340722,63.4969111 L10.634942,63.843551 C10.6381009,65.0140937 10.642466,65.7363171 10.6480373,66.0102212 C10.6480373,90.9017132 17.46311,99.782849 27.8252129,104.192703 C34.852167,107.183201 41.9472492,106.103248 41.9472492,94.849771 L41.9472492,47.209905 C41.3812095,36.6718806 37.3206987,28.8125201 29.7657167,23.6318237 C25.0515684,20.3991792 18.936655,16.5000779 13.6756646,21.0009619 Z" id="形状结合" fill="#DFE3E9"></path>
                    <path d="M17.262901,1.914301 C19.1184737,0.709574801 21.2742881,0.0486088192 23.4862279,0.00574610856 C30.7594194,-0.134842793 37.9972583,2.30438895 45.1997444,7.32344134 C52.2913249,12.2652091 57.0778916,20.174471 59.7950826,25.6225529 C61.1958741,28.4311987 62.5270801,32.7457705 63.7887004,38.5662681 C64.4097971,41.4321159 64.7231674,44.3560986 64.7231674,47.2884772 L64.7231674,94.4644427 C64.2654724,102.839235 61.2129921,108.227678 55.5657264,110.629773 C55.5657264,110.629773 52.8847395,111.925678 47.5227657,114.517489 C50.5338583,112.133715 52.2913249,107.971482 52.2913249,102.055702 C52.2913249,102.055702 52.2913249,85.9064935 52.2913249,53.6080761 C52.2913249,37.2850806 44.2450754,22.0111787 30.7831442,12.7798954 C25.2830297,9.00828836 13.5778903,5.3365593 7.07281952,8.52680706 L17.262901,1.914301 Z" id="路径" fill="url(#linearGradient-10)"></path>
                    <path d="M41.7858426,97.6000641 C41.8096112,97.4116141 41.8308383,97.219375 41.8494682,97.0232992 C40.9744449,106.232226 34.3702768,106.97812 27.8252129,104.192703 C17.46311,99.782849 10.6480373,90.9017132 10.6480373,66.0102212 C10.6395451,65.592713 10.6338553,64.1335589 10.630968,61.6327588 L10.6304739,61.1665897 C10.6303967,61.0869818 10.6303221,61.0064174 10.63025,60.9248965 L10.6291151,59.3542162 C10.6291151,59.2612171 10.6291151,59.1672615 10.6291151,59.0723493 L10.6291151,54.523608 C10.6291151,54.4019134 10.6291151,54.2792623 10.6291151,54.1556547 L10.63025,51.8274137 C10.6303221,51.6923279 10.6303967,51.5562856 10.6304739,51.4192867 L10.630968,50.5858155 C10.6338553,45.9385934 10.6395451,40.2497254 10.6480373,33.5192115 C10.6480373,26.9276196 11.66584,22.8293285 13.6756646,21.0009619 C17.7749034,17.2718248 23.1237737,19.8272648 23.1237737,19.8272648 L23.1237737,66.7100255 C23.1237767,67.1063053 23.138881,67.5024411 23.1690109,67.8975739 C23.5894101,73.4028964 24.3652618,77.5891947 25.496566,80.4564687 C29.2029329,89.8502017 36.1630711,95.3199224 41.7858426,97.6000641 C41.8285608,97.6173872 41.9043842,97.6442337 41.9472492,97.6614139" id="路径" fill="url(#linearGradient-11)"></path>
                </g>
            </g>
            <path d="M349.898815,165.429489 L390.896775,164.978934 C422.55045,134.277275 438.377287,118.926445 438.377287,118.926445 C438.377287,118.926445 429.888354,118.926445 412.910487,118.926445 L412.910487,125.667072 C412.888131,127.005678 412.722886,128.119263 412.414753,129.007829 C411.851795,130.631237 410.752327,131.986757 409.116351,133.074389 L354.318542,164.245302 C353.825137,164.527389 353.256251,164.771933 352.611882,164.978934 C351.967514,165.185934 351.063158,165.33612 349.898815,165.429489 Z" id="路径-11备份-4" fill="url(#linearGradient-12)"></path>
            <path d="M170.504332,117.519281 L194.210866,117.519281 C200.455924,112.741337 203.578452,110.352365 203.578452,110.352365 C203.578452,110.352365 196.63551,110.352365 182.749625,110.352365 L170.504332,117.519281 Z" id="路径-11备份-5" fill="url(#linearGradient-13)"></path>
            <path d="M303.034303,190.704058 L305.933609,190.704058 L329.016715,190.704058 C335.112273,186.031617 338.160052,183.695397 338.160052,183.695397 C338.160052,183.695397 331.202272,183.695397 317.286711,183.695397 L307.705728,189.37487 C307.187581,189.724286 306.493996,190.021444 305.624974,190.266342 C304.755951,190.511241 303.892394,190.657146 303.034303,190.704058 Z" id="路径-11备份-6" fill="url(#linearGradient-14)"></path>
            <path d="M232.029565,148.090475 L257.965032,148.090475 C262.463295,144.306782 264.712426,142.414936 264.712426,142.414936 C264.712426,142.414936 258.250729,142.414936 245.327335,142.414936 C240.726374,144.633585 238.425893,145.74291 238.425893,145.74291 C238.010728,146.075318 237.072393,146.67087 236.529732,146.931428 C235.155209,147.591406 233.655153,147.977754 232.029565,148.090475 Z" id="路径-11备份" fill="url(#linearGradient-15)"></path>
            <g id="编组-8" transform="translate(39.216337, 26.352029)">
                <polygon id="路径-26" fill="#D0D6DF" points="14.2593649 1.26059785 14.6126438 134.980151 19.9739817 138 19.6098276 4.61780045"></polygon>
                <polygon id="路径-27" fill="#C2C6CD" points="19.9739817 138 21.9228386 137.343839 21.5576633 3.58761455 19.6098276 4.61780045"></polygon>
                <polygon id="路径-28" fill="#F9F9F9" points="14.2593649 1.26059785 19.6098276 4.61780045 21.5576633 3.58761455 15.839987 4.00530342e-18"></polygon>
                <polygon id="路径-22" fill="#DFE3E9" points="0 2.92952026 0 48.9272268 31.5473434 68.4063893 31.5473434 21.8481391"></polygon>
                <polygon id="路径-23" fill="#C2C6CD" points="31.5473434 68.4063893 33.5915092 66.7434637 33.5915092 20.6608748 31.5473434 21.8481391"></polygon>
                <polygon id="路径-24" fill="#F9F9F9" points="0 2.92952026 2.7287251 2.1436219 33.5915092 20.6608748 31.5473434 21.8481391"></polygon>
                <path d="M15.7736717,50.4292997 C21.7044246,54.1135623 26.5122498,50.491368 26.5122498,42.3389023 C26.5122498,34.1864366 21.7044246,24.5908725 15.7736717,20.9066099 C9.84291875,17.2223473 5.03509355,20.8445416 5.03509355,28.9970073 C5.03509355,37.149473 9.84291875,46.7450371 15.7736717,50.4292997 Z" id="椭圆形" stroke="#92BAFF" stroke-width="3"></path>
                <line x1="8.18035026" y1="41.3887297" x2="23.3669931" y2="29.9471799" id="路径-25" stroke="#92BAFF" stroke-width="3"></line>
            </g>
            <path d="M59.199306,164.352029 L93.971322,164.352029 C93.971322,160.325563 93.971322,158.31233 93.971322,158.31233 C93.971322,158.31233 83.0272732,158.31233 61.1391754,158.31233 L61.1391754,163.695868 L59.199306,164.352029 Z" id="路径-11" fill="url(#linearGradient-16)"></path>
            <g id="编组-9" transform="translate(79.604088, 71.071469)">
                <polygon id="路径-35" fill="#DDDFE4" points="6.43678218 103.519269 1.39359421e-14 106.181105 10.0840641 111.644648 16.3487316 108.365494"></polygon>
                <polygon id="路径-36" fill="#D0D6DF" points="10.0956184 113.644648 10.0840641 111.644648 5.73869468e-13 106.181105 0 108.181105"></polygon>
                <polygon id="路径-37" fill="#C2C6CD" points="10.0840641 111.644648 10.0956184 113.644648 16.3487316 110.368013 16.3487316 108.368013"></polygon>
                <polygon id="路径-35" fill="#DDDFE4" points="89.4048573 148.499577 82.9680752 151.161413 93.0521392 156.624956 99.3168067 153.345802"></polygon>
                <polygon id="路径-36" fill="#D0D6DF" points="93.0636936 158.624956 93.0521392 156.624956 82.9680752 151.161413 82.9680752 153.161413"></polygon>
                <polygon id="路径-37" fill="#C2C6CD" points="93.0521392 156.624956 93.0636936 158.624956 99.3168067 155.348321 99.3168067 153.348321"></polygon>
                <polygon id="路径-29" fill="#D0D6DF" points="96.5498237 56.2518178 101.792833 51.0561598 101.792833 93.7014081 96.5498237 98.9298902"></polygon>
                <polygon id="路径-30" fill="#F9F9F9" points="96.5498237 56.2518178 0 3.91512844 6.40816384 -5.68434189e-14 101.792833 51.0561598"></polygon>
                <polygon id="路径-31" fill="#DFE3E9" points="2.84217094e-14 3.91512844 2.84217094e-14 44.4495043 96.5498237 98.9298902 96.5498237 56.2518178"></polygon>
                <polygon id="路径" fill="#BAD5FE" points="18.5830802 13.9373022 24.9598518 10.0055028 36.0627676 15.8527781 29.1231293 19.7075715"></polygon>
                <polygon id="路径" fill="#92BAFF" points="18.5830802 13.9373022 7.45408882 29.357334 11.679931 51.0450581 23.0759425 57.5039338 18.3068593 34.3788492 29.1231293 19.7075715"></polygon>
                <polygon id="路径" fill="#BAD5FE" points="39.1498498 25.2046527 45.7875246 21.0910759 56.9091847 27.0380773 49.7683867 30.9005551"></polygon>
                <polygon id="路径" fill="#92BAFF" points="39.1498498 25.2046527 27.7576061 40.7688116 31.9834484 62.4565358 43.3794598 68.9154115 38.6103767 45.7903269 49.7683867 30.9005551"></polygon>
                <polygon id="路径" fill="#BAD5FE" points="59.4432491 36.0931609 66.0255316 31.8754107 76.9216371 37.7919022 70.168973 41.772285"></polygon>
                <polygon id="路径" fill="#92BAFF" points="59.4432491 36.0931609 47.7558074 52.0739353 51.9816496 73.7616594 63.377661 80.2205351 58.6085779 57.0954505 70.168973 41.772285"></polygon>
                <polygon id="路径" fill="#BAD5FE" points="80.049728 47.2842326 86.8844399 43.1232963 97.7275803 48.8981618 90.5906526 53.0635922"></polygon>
                <polygon id="路径" fill="#92BAFF" points="80.049728 47.2842326 68.3646408 63.681701 72.590483 85.3694252 83.9864944 91.8283009 79.2174113 68.7032163 90.5906526 53.0635922"></polygon>
                <polygon id="路径-33" fill="#D0D6DF" points="4.76580093 47.2290336 4.76580093 106.604865 8.80243137 108.726062 8.80243137 49.4927554"></polygon>
                <polygon id="路径-34" fill="#C2C6CD" points="8.80243137 49.4927554 11.679931 51.0450581 11.679931 107.553521 8.80243137 108.726062"></polygon>
                <polygon id="路径-33" fill="#D0D6DF" points="88.2336333 94.2316707 88.2336333 151.7274 92.2702638 153.936461 92.2702638 96.4909289"></polygon>
                <polygon id="路径-34" fill="#C2C6CD" points="92.2702638 96.4909289 95.1477635 98.1290247 95.1477635 152.4974 92.2702638 153.936461"></polygon>
                <path d="M10.0840641,113.640496 L56.8692682,111.034769 C56.8692682,106.782225 56.8692682,104.277058 56.8692682,103.519269 L11.7213625,106.100115 L16.3487316,108.368013 L16.3487316,110.368013 L10.0840641,113.640496 Z" id="路径-11备份-2" fill="url(#linearGradient-17)"></path>
                <path d="M93.0521392,158.624956 L140.325067,156.315055 C140.325067,149.93624 140.325067,146.746832 140.325067,146.746832 C140.325067,146.746832 125.203543,149.714112 95.30649,151.379244 L99.3168067,153.348321 L99.3168067,155.348321 L93.0521392,158.624956 Z" id="路径-11备份-3" fill="url(#linearGradient-18)"></path>
            </g>
            <g id="编组-7备份-2" transform="translate(197.915210, 213.664936)">
                <g id="编组-6">
                    <polygon id="路径-8" fill="#BAD5FE" points="15.8115716 0 -5.67756122e-14 8.63273826 15.8115716 17.2654765 31.9618282 8.81023699"></polygon>
                    <polygon id="路径-9" fill="#E2EFFF" points="0 8.63273826 0 27.7352436 15.8115716 36.3870603 15.8115716 17.2654765"></polygon>
                    <polygon id="路径-10" fill="#92BAFF" points="31.9618282 27.2322085 15.8115716 36.3870603 15.8115716 17.2654765 31.9618282 8.81023699"></polygon>
                </g>
                <path d="M15.8115716,36.3870603 L55.7148537,36.3870603 C55.7148537,25.3366172 55.7148537,19.8113957 55.7148537,19.8113957 C55.7148537,19.8113957 47.7971785,19.8113957 31.9618282,19.8113957 L31.9618282,27.2322085 L15.8115716,36.3870603 Z" id="路径-11" fill="url(#linearGradient-1)"></path>
            </g>
            <g id="编组-20" transform="translate(220.692949, 122.199727)">
                <g id="编组-7备份-2" transform="translate(0.000000, 53.178154)">
                    <polygon id="路径-8" fill="#F9F9F9" points="37.0606349 0 -2.63331649e-13 19.3916165 36.6679202 39.4114201 74.1212699 19.8032461"></polygon>
                    <polygon id="路径-9" fill="#DFE3E9" points="0 19.3916165 0 30.7577983 36.6679202 50.821846 36.6679202 39.4114201"></polygon>
                    <polygon id="路径-10" fill="#D0D6DF" points="74.1212699 31.2549667 36.6679202 50.821846 36.6679202 39.4114201 74.1212699 19.8032461"></polygon>
                    <path d="M36.6679202,50.821846 L129.205866,50.821846 C129.205866,30.1427794 129.205866,19.8032461 129.205866,19.8032461 C129.205866,19.8032461 110.844334,19.8032461 74.1212699,19.8032461 L74.1212699,31.2549667 L36.6679202,50.821846 Z" id="路径-11" fill="url(#linearGradient-19)"></path>
                </g>
                <g id="编组-19" transform="translate(19.064929, 0.000000)">
                    <path d="M0.00261999716,70.3627691 C-0.138127822,74.9469066 5.39191731,77.5843114 16.5927554,78.2749835 C29.1537531,77.6265837 34.9120966,75.1207552 33.8677858,70.7574982 L30.8402271,57.1275166 C28.1468675,59.8333172 23.3275457,61.1457407 16.3822617,61.0647871 C10.9455359,61.0014172 6.46538115,59.5805999 2.9417974,56.8023352 L0.00261999716,70.3627691 Z" id="路径-40" fill="url(#linearGradient-20)"></path>
                    <path d="M30.8402271,57.1275166 C28.1468675,59.8333172 23.3275457,61.1457407 16.3822617,61.0647871 C10.9455359,61.0014172 6.46538115,59.5805999 2.9417974,56.8023352 L5.64734596,44.0622581 C8.81398043,46.1925807 12.3362719,47.2803424 16.2142203,47.3255434 C22.4465092,47.3981863 26.334704,46.3968005 27.8788049,44.3213858 L30.8402271,57.1275166 Z" id="路径" fill="url(#linearGradient-21)"></path>
                    <path d="M25.0966314,31.8676524 C23.4153701,33.298597 20.3999866,33.9887205 16.0504808,33.9380231 C13.5788481,33.909214 10.9640108,33.1534652 8.20596905,31.6707765 L5.64734596,44.0622581 C8.81398043,46.1925807 12.3362719,47.2803424 16.2142203,47.3255434 C22.4465092,47.3981863 26.334704,46.3968005 27.8788049,44.3213858 L25.0966314,31.8676524 Z" id="路径" fill="url(#linearGradient-22)"></path>
                    <path d="M25.0966314,31.8676524 C23.4153701,33.298597 20.3999866,33.9887205 16.0504808,33.9380231 C13.5788481,33.909214 10.9640108,33.1534652 8.20596905,31.6707765 L11.1170435,17.9146427 C12.2394922,19.329035 13.8274412,20.0481986 15.8808904,20.0721334 C19.0013303,20.1085049 21.011992,19.4312864 21.9128756,18.0404778 L25.0966314,31.8676524 Z" id="路径" fill="url(#linearGradient-23)"></path>
                    <path d="M14.7786426,0.66624758 L11.1170435,17.9146427 C12.2394922,19.329035 13.8274412,20.0481986 15.8808904,20.0721334 C19.0013303,20.1085049 21.011992,19.4312864 21.9128756,18.0404778 L17.9757429,0.703512664 L14.7786426,0.66624758 Z" id="路径" fill="url(#linearGradient-24)"></path>
                    <path d="M16.3859474,1.3695127 C17.2651872,1.37976103 17.974203,1.08155049 17.9696024,0.703441092 C17.9649538,0.325331132 17.2484402,0.0105047601 16.3692004,0.00025642789 C15.4899606,-0.00999190431 14.7809449,0.288218639 14.7855454,0.666328038 C14.790194,1.044438 15.5067076,1.35926437 16.3859474,1.3695127 Z" id="椭圆形" fill="#BAD5FE"></path>
                    <path d="M16.3820264,1.04892433 C16.8495477,1.05437371 17.2265552,0.895805152 17.2241089,0.694751693 C17.2216371,0.493697936 16.8406427,0.326294187 16.3731214,0.320844805 C15.9056001,0.315395422 15.5285926,0.473963978 15.5310389,0.675017437 C15.5335107,0.876071194 15.9145051,1.04347494 16.3820264,1.04892433 Z" id="椭圆形" fill="#92BAFF"></path>
                </g>
            </g>
        </g>
    </g>
</svg>