<?xml version="1.0" encoding="UTF-8"?>
<svg width="417px" height="314px" viewBox="0 0 417 314" version="1.1" xmlns="http://www.w3.org/2000/svg" xmlns:xlink="http://www.w3.org/1999/xlink">
    <title>编组 7</title>
    <defs>
        <rect id="path-1" x="0" y="0" width="137" height="186" rx="8"></rect>
        <filter x="-74.5%" y="-48.4%" width="248.9%" height="209.7%" filterUnits="objectBoundingBox" id="filter-2">
            <feMorphology radius="8" operator="dilate" in="SourceAlpha" result="shadowSpreadOuter1"></feMorphology>
            <feOffset dx="0" dy="12" in="shadowSpreadOuter1" result="shadowOffsetOuter1"></feOffset>
            <feGaussianBlur stdDeviation="24" in="shadowOffsetOuter1" result="shadowBlurOuter1"></feGaussianBlur>
            <feColorMatrix values="0 0 0 0 0   0 0 0 0 0   0 0 0 0 0  0 0 0 0.03 0" type="matrix" in="shadowBlurOuter1" result="shadowMatrixOuter1"></feColorMatrix>
            <feOffset dx="0" dy="9" in="SourceAlpha" result="shadowOffsetOuter2"></feOffset>
            <feGaussianBlur stdDeviation="14" in="shadowOffsetOuter2" result="shadowBlurOuter2"></feGaussianBlur>
            <feColorMatrix values="0 0 0 0 0   0 0 0 0 0   0 0 0 0 0  0 0 0 0.05 0" type="matrix" in="shadowBlurOuter2" result="shadowMatrixOuter2"></feColorMatrix>
            <feMorphology radius="4" operator="erode" in="SourceAlpha" result="shadowSpreadOuter3"></feMorphology>
            <feOffset dx="0" dy="6" in="shadowSpreadOuter3" result="shadowOffsetOuter3"></feOffset>
            <feGaussianBlur stdDeviation="8" in="shadowOffsetOuter3" result="shadowBlurOuter3"></feGaussianBlur>
            <feColorMatrix values="0 0 0 0 0   0 0 0 0 0   0 0 0 0 0  0 0 0 0.08 0" type="matrix" in="shadowBlurOuter3" result="shadowMatrixOuter3"></feColorMatrix>
            <feMerge>
                <feMergeNode in="shadowMatrixOuter1"></feMergeNode>
                <feMergeNode in="shadowMatrixOuter2"></feMergeNode>
                <feMergeNode in="shadowMatrixOuter3"></feMergeNode>
            </feMerge>
        </filter>
        <linearGradient x1="50%" y1="0%" x2="50%" y2="100%" id="linearGradient-3">
            <stop stop-color="#F6BB25" offset="0%"></stop>
            <stop stop-color="#E98510" offset="100%"></stop>
        </linearGradient>
        <rect id="path-4" x="149" y="0" width="140" height="87.003367" rx="8"></rect>
        <filter x="-72.9%" y="-103.4%" width="245.7%" height="334.5%" filterUnits="objectBoundingBox" id="filter-5">
            <feMorphology radius="8" operator="dilate" in="SourceAlpha" result="shadowSpreadOuter1"></feMorphology>
            <feOffset dx="0" dy="12" in="shadowSpreadOuter1" result="shadowOffsetOuter1"></feOffset>
            <feGaussianBlur stdDeviation="24" in="shadowOffsetOuter1" result="shadowBlurOuter1"></feGaussianBlur>
            <feColorMatrix values="0 0 0 0 0   0 0 0 0 0   0 0 0 0 0  0 0 0 0.03 0" type="matrix" in="shadowBlurOuter1" result="shadowMatrixOuter1"></feColorMatrix>
            <feOffset dx="0" dy="9" in="SourceAlpha" result="shadowOffsetOuter2"></feOffset>
            <feGaussianBlur stdDeviation="14" in="shadowOffsetOuter2" result="shadowBlurOuter2"></feGaussianBlur>
            <feColorMatrix values="0 0 0 0 0   0 0 0 0 0   0 0 0 0 0  0 0 0 0.05 0" type="matrix" in="shadowBlurOuter2" result="shadowMatrixOuter2"></feColorMatrix>
            <feMorphology radius="4" operator="erode" in="SourceAlpha" result="shadowSpreadOuter3"></feMorphology>
            <feOffset dx="0" dy="6" in="shadowSpreadOuter3" result="shadowOffsetOuter3"></feOffset>
            <feGaussianBlur stdDeviation="8" in="shadowOffsetOuter3" result="shadowBlurOuter3"></feGaussianBlur>
            <feColorMatrix values="0 0 0 0 0   0 0 0 0 0   0 0 0 0 0  0 0 0 0.08 0" type="matrix" in="shadowBlurOuter3" result="shadowMatrixOuter3"></feColorMatrix>
            <feMerge>
                <feMergeNode in="shadowMatrixOuter1"></feMergeNode>
                <feMergeNode in="shadowMatrixOuter2"></feMergeNode>
                <feMergeNode in="shadowMatrixOuter3"></feMergeNode>
            </feMerge>
        </filter>
        <linearGradient x1="50%" y1="0%" x2="50%" y2="100%" id="linearGradient-6">
            <stop stop-color="#9CDEF0" offset="0%"></stop>
            <stop stop-color="#1CB4F4" offset="100%"></stop>
        </linearGradient>
        <rect id="path-7" x="149" y="99" width="140" height="87.003367" rx="8"></rect>
        <filter x="-72.9%" y="-103.4%" width="245.7%" height="334.5%" filterUnits="objectBoundingBox" id="filter-8">
            <feMorphology radius="8" operator="dilate" in="SourceAlpha" result="shadowSpreadOuter1"></feMorphology>
            <feOffset dx="0" dy="12" in="shadowSpreadOuter1" result="shadowOffsetOuter1"></feOffset>
            <feGaussianBlur stdDeviation="24" in="shadowOffsetOuter1" result="shadowBlurOuter1"></feGaussianBlur>
            <feColorMatrix values="0 0 0 0 0   0 0 0 0 0   0 0 0 0 0  0 0 0 0.03 0" type="matrix" in="shadowBlurOuter1" result="shadowMatrixOuter1"></feColorMatrix>
            <feOffset dx="0" dy="9" in="SourceAlpha" result="shadowOffsetOuter2"></feOffset>
            <feGaussianBlur stdDeviation="14" in="shadowOffsetOuter2" result="shadowBlurOuter2"></feGaussianBlur>
            <feColorMatrix values="0 0 0 0 0   0 0 0 0 0   0 0 0 0 0  0 0 0 0.05 0" type="matrix" in="shadowBlurOuter2" result="shadowMatrixOuter2"></feColorMatrix>
            <feMorphology radius="4" operator="erode" in="SourceAlpha" result="shadowSpreadOuter3"></feMorphology>
            <feOffset dx="0" dy="6" in="shadowSpreadOuter3" result="shadowOffsetOuter3"></feOffset>
            <feGaussianBlur stdDeviation="8" in="shadowOffsetOuter3" result="shadowBlurOuter3"></feGaussianBlur>
            <feColorMatrix values="0 0 0 0 0   0 0 0 0 0   0 0 0 0 0  0 0 0 0.08 0" type="matrix" in="shadowBlurOuter3" result="shadowMatrixOuter3"></feColorMatrix>
            <feMerge>
                <feMergeNode in="shadowMatrixOuter1"></feMergeNode>
                <feMergeNode in="shadowMatrixOuter2"></feMergeNode>
                <feMergeNode in="shadowMatrixOuter3"></feMergeNode>
            </feMerge>
        </filter>
        <linearGradient x1="50%" y1="0%" x2="50%" y2="99.5129138%" id="linearGradient-9">
            <stop stop-color="#BED148" offset="0%"></stop>
            <stop stop-color="#54C838" offset="100%"></stop>
        </linearGradient>
    </defs>
    <g id="页面规范" stroke="none" stroke-width="1" fill="none" fill-rule="evenodd">
        <g id="cute首页" transform="translate(-352.000000, -608.000000)">
            <g id="产品原型" transform="translate(370.000000, 583.000000)">
                <g id="编组-7" transform="translate(46.000000, 77.000000)">
                    <g id="矩形">
                        <use fill="black" fill-opacity="1" filter="url(#filter-2)" xlink:href="#path-1"></use>
                        <use fill="#FFFFFF" fill-rule="evenodd" xlink:href="#path-1"></use>
                    </g>
                    <rect id="矩形" fill="url(#linearGradient-3)" x="13" y="14" width="111" height="160" rx="10"></rect>
                    <g id="矩形备份">
                        <use fill="black" fill-opacity="1" filter="url(#filter-5)" xlink:href="#path-4"></use>
                        <use fill="#FFFFFF" fill-rule="evenodd" xlink:href="#path-4"></use>
                    </g>
                    <rect id="矩形备份" fill="url(#linearGradient-6)" x="161" y="12" width="116" height="63" rx="8"></rect>
                    <g id="矩形备份-2">
                        <use fill="black" fill-opacity="1" filter="url(#filter-8)" xlink:href="#path-7"></use>
                        <use fill="#FFFFFF" fill-rule="evenodd" xlink:href="#path-7"></use>
                    </g>
                    <rect id="矩形备份-2" fill="url(#linearGradient-9)" x="161" y="111" width="116" height="63" rx="8"></rect>
                    <g id="人机交互" transform="translate(171.000000, 22.000000)" fill="#FFFFFF" fill-rule="nonzero">
                        <rect id="矩形" opacity="0" x="0" y="0" width="20" height="20"></rect>
                        <path d="M18.524375,10.45875 C18.019375,8.123125 16.35625,5.805625 14.964375,6.208125 C14.46625,6.351875 14.08375,6.615 13.836875,6.978125 C13.388125,6.77 12.92875,6.75 12.479375,6.948125 C12.1500601,7.08968161 11.8745842,7.33274854 11.693125,7.641875 C11.175625,7.38 10.580625,7.385625 9.956875,7.678125 C9.8242012,7.73939514 9.69830665,7.81438724 9.58125,7.901875 C8.06125,5.75375 6.819375,4.784375 5.7,5.038125 C4.115,5.396875 4.115,6.779375 5.3175,8.59 L7.62625,12.16 C6.359375,11.921875 5.443125,12.12625 4.9,12.851875 C4.011875,14.039375 4.951875,15.13625 7.134375,16.118125 L11.3525,17.994375 C11.6664274,18.1278726 12.029411,17.9849858 12.1681008,17.6733174 C12.3067907,17.3616491 12.1699484,16.9963439 11.860625,16.8525 L7.645,14.9775 C6.794375,14.595 6.2325,14.23625 5.97375,13.93375 C5.82375,13.75875 5.819375,13.71 5.90125,13.600625 C6.21,13.188125 7.169375,13.188125 8.841875,13.811875 C9.405625,14.0225 9.911875,13.3925 9.585,12.886875 L6.363125,7.905 C5.5625,6.699375 5.5625,6.35125 5.97625,6.2575 C6.524375,6.13375 7.6775,7.2225 9.209375,9.58875 C9.324375,9.86 9.50375,10.1425 9.744375,10.428125 C10.241875,11.019375 11.15875,10.35875 10.755625,9.699375 C10.6081887,9.45798912 10.4581802,9.21818379 10.305625,8.98 C10.31625,8.906875 10.38125,8.86 10.4875,8.81 C10.92625,8.604375 11.2,8.6825 11.506875,9.11625 C11.848125,9.5975 12.605,9.381875 12.640625,8.7925 C12.665625,8.37875 12.78,8.18125 12.983125,8.091875 C13.158125,8.015 13.375625,8.08125 13.715,8.404375 C13.8887213,8.56996123 14.141916,8.6214481 14.3665103,8.53685893 C14.5911045,8.45226976 14.7474259,8.24654641 14.76875,8.0075 C14.7975,7.684375 14.945,7.514375 15.311875,7.408125 C15.696875,7.296875 16.935625,9.023125 17.303125,10.7225 C17.5675,11.945 17.5675,13.398125 17.296875,15.080625 C17.2421643,15.4214882 17.4741368,15.7421643 17.815,15.796875 C18.1558632,15.8515857 18.4765393,15.6196132 18.53125,15.27875 C18.824375,13.4525 18.824375,11.845625 18.524375,10.45875 Z M5.875,17.5 L3.208125,17.5 C2.819375,17.5 2.5,17.175625 2.5,16.770625 L2.5,3.229375 C2.5,2.824375 2.819375,2.5 3.208125,2.5 L10.54125,2.5 C10.930625,2.5 11.25,2.824375 11.25,3.229375 C11.25,3.57455297 11.529822,3.854375 11.875,3.854375 C12.220178,3.854375 12.5,3.57455297 12.5,3.229375 C12.5,2.138125 11.625625,1.25 10.541875,1.25 L3.208125,1.25 C2.124375,1.25 1.25,2.138125 1.25,3.229375 L1.25,16.77125 C1.25,17.861875 2.124375,18.75 3.208125,18.75 L5.875,18.75 C6.22017797,18.75 6.5,18.470178 6.5,18.125 C6.5,17.779822 6.22017797,17.5 5.875,17.5 Z" id="形状"></path>
                    </g>
                    <g id="交互" transform="translate(171.000000, 120.000000)" fill-rule="nonzero">
                        <rect id="矩形" fill="#000000" opacity="0" x="0" y="0" width="20" height="20"></rect>
                        <path d="M4.05555555,7.27777777 L7.38888889,7.27777777 C8.33333334,7.27777777 9.05555555,6.55555555 9.05555555,5.61111111 L9.05555555,2.27777777 C9.05555555,1.33333332 8.33333332,0.611111113 7.38888889,0.611111113 L4.05555555,0.611111113 C3.11111109,0.611111113 2.38888889,1.33333334 2.38888889,2.27777777 L2.38888889,5.61111111 C2.38888889,6.55555557 3.16666666,7.27777777 4.05555555,7.27777777 Z M3.5,2.27777777 C3.5,1.94444443 3.72222223,1.72222223 4.05555555,1.72222223 L7.38888889,1.72222223 C7.72222223,1.72222223 7.94444445,1.94444445 7.94444445,2.27777777 L7.94444445,5.61111111 C7.94444445,5.94444445 7.72222223,6.16666666 7.38888889,6.16666666 L4.05555555,6.16666666 C3.72222221,6.16666666 3.5,5.94444443 3.5,5.61111111 L3.5,2.27777777 Z M16.6111111,12.8333333 L12.6111111,12.8333333 C11.8888889,12.8333333 11.2777778,13.4444445 11.2777778,14.1666667 L11.2777778,18.1666667 C11.2777778,18.8888889 11.8888889,19.5 12.6111111,19.5 L16.6111111,19.5 C17.3333333,19.5 17.9444445,18.8888889 17.9444445,18.1666667 L17.9444445,14.1666667 C17.9444445,13.4444444 17.3333333,12.8333333 16.6111111,12.8333333 Z M16.7777778,9.27777777 L16,9.27777777 L17.3888889,11.6666667 L18.7777778,9.27777777 L17.8888889,9.27777777 C17.5,5.33333332 14.1666667,2.27777777 10.1666667,2.27777777 L10.1666667,3.38888889 C13.5555555,3.38888889 16.3888889,6 16.7777778,9.27777777 L16.7777778,9.27777777 Z M3.55555555,10.8888889 L4.33333334,10.8888889 L2.94444445,8.5 L1.55555555,10.8888889 L2.44444445,10.8888889 C2.83333334,14.7777778 6.16666668,17.8333333 10.1666667,17.8333333 L10.1666667,16.7222222 C6.77777777,16.7222222 3.94444443,14.1666667 3.55555555,10.8888889 Z" id="形状" fill="#FFFFFF"></path>
                    </g>
                    <g id="AxureRP" transform="translate(23.000000, 25.000000)" fill-rule="nonzero">
                        <rect id="矩形" fill="#000000" opacity="0" x="0" y="0" width="22" height="22"></rect>
                        <path d="M6.49230957,20.02948 L6.49230957,19.7495117 C6.49432373,17.388916 6.49432373,15.0283203 6.49633789,12.6677246 C6.50036621,9.20135498 6.50640869,5.73498535 6.51043701,2.26861572 C6.51043701,1.98059082 6.51043701,1.98059082 6.80249023,1.98059082 C10.7965698,1.97857666 14.7906494,1.98260498 18.784729,1.96849989 C19.4876709,1.9664917 20.0355225,2.47406006 20.0335138,3.22131348 C20.0133667,8.43597412 20.0214233,13.6486206 20.0214233,18.8632812 C20.0214233,19.5742798 19.5702515,20.0274658 18.8612671,20.02948 C14.8248901,20.0314941 10.786499,20.0314941 6.75012207,20.0314941 C6.6776123,20.02948 6.6071167,20.02948 6.49230957,20.02948 Z M13.1269531,18.5047607 C12.5509033,17.5440063 11.9949951,16.6195068 11.4390869,15.6929932 C11.5901489,15.6386108 11.7271118,15.5983276 11.8580322,15.5419312 C13.151123,14.9900513 13.0765991,13.4351196 12.4683228,12.7966309 C12.069519,12.3796997 11.5679932,12.1843262 11.0161133,12.1561279 C10.1842651,12.1138306 9.34838867,12.1299438 8.51452637,12.1098022 C8.32720947,12.1057739 8.29296875,12.1762695 8.29296875,12.345459 C8.29901123,14.3213501 8.29699707,16.2972412 8.29699707,18.2731323 C8.29699707,18.3416138 8.30505371,18.4121094 8.30908203,18.4866333 L9.46722412,18.4866333 L9.46722412,15.8078003 C9.67468262,15.8078003 9.85998535,15.8198853 10.0432739,15.803772 C10.2104492,15.7876587 10.2970581,15.854126 10.3735962,15.9991455 C10.7945557,16.784668 11.2235718,17.5641479 11.6546021,18.3436279 C11.6888428,18.4060669 11.7553101,18.4926758 11.8076782,18.4946899 C12.2306519,18.5108032 12.6556396,18.5047607 13.1269531,18.5047607 Z M14.6859131,15.8823242 C15.024292,15.8823242 15.3304443,15.8903809 15.6365967,15.8803101 C16.1743774,15.8621826 16.6960449,15.7816162 17.1834717,15.5238037 C18.3234863,14.9195557 18.2771606,13.0725708 17.2902222,12.4924927 C16.9437866,12.2890625 16.571167,12.1682129 16.1763916,12.1541138 C15.3787842,12.1259155 14.5791626,12.131958 13.7815552,12.1118164 C13.5801392,12.1057739 13.5136719,12.1581421 13.5136719,12.3696289 C13.5217285,14.3314209 13.5197144,16.2911987 13.5197144,18.2529907 C13.5197144,18.3295288 13.5257568,18.4060669 13.5297852,18.4906616 L14.6838989,18.4906616 C14.6859131,17.6205444 14.6859131,16.7665405 14.6859131,15.8823242 Z M5.31604004,1.97454834 L5.31604004,20.0214233 C5.24353027,20.0254517 5.17504883,20.0335083 5.10656738,20.0335083 C4.44390869,20.0335083 3.77923584,20.0355225 3.11657715,20.0335083 C2.42370605,20.0314941 1.9664917,19.5722656 1.9664917,18.8753662 C1.96850586,13.6325073 1.97052002,8.38964844 1.97454834,3.14477539 C1.97454834,2.44384766 2.4418335,1.97857666 3.14074707,1.9765625 C3.78930664,1.97454834 4.43988037,1.97454834 5.08843994,1.97454834 L5.31604004,1.97454834 Z" id="形状" fill="#FFFFFF"></path>
                        <path d="M9.46722412,14.822876 L9.46722412,13.0987549 C10.0452881,13.1309814 10.6213379,13.0202026 11.1812744,13.2115479 C11.5337524,13.3323975 11.7130127,13.5881958 11.7190552,13.9285889 C11.7250977,14.3193359 11.5599365,14.5811768 11.1994019,14.7261963 C11.088623,14.7705078 10.9677734,14.8148193 10.8509521,14.8188477 C10.3977661,14.8289185 9.94458008,14.822876 9.46722412,14.822876 Z M14.6959839,14.9316406 L14.6959839,13.0826416 C15.1954956,13.1108398 15.6869507,13.1068115 16.1663208,13.175293 C16.6134644,13.2397461 16.8450928,13.5418701 16.8531494,13.9447021 C16.8632202,14.3878174 16.65979,14.710083 16.206604,14.7946777 C15.7191772,14.8833008 15.213623,14.8873291 14.6959839,14.9316406 Z" id="形状" fill="#FFFFFF"></path>
                    </g>
                </g>
            </g>
        </g>
    </g>
</svg>