<?xml version="1.0" encoding="UTF-8"?>
<svg width="480px" height="480px" viewBox="0 0 480 480" version="1.1" xmlns="http://www.w3.org/2000/svg" xmlns:xlink="http://www.w3.org/1999/xlink">
    <title>数据之翼logo</title>
    <g id="数据之翼logo" stroke="none" stroke-width="1" fill="none" fill-rule="evenodd">
        <g id="DataWings-logo2" transform="translate(0.000000, 160.000000)" fill="#df0629" fill-rule="nonzero">
            <polyline id="Fill-109" points="445.646636 0.27068178 366.926629 111.159984 356.379138 96.2544408 424.510005 0.27068178 390.156642 0.27068178 339.232789 72.0103762 288.492742 0.27068178 254.177406 0.27068178 322.042978 96.2273728 330.616606 108.344894 322.042978 96.2273728 311.436634 111.159984 233.002746 0.27068178 232.811698 0 0 0 19.8418495 27.9524051 141.83201 27.9524051 218.263966 27.9524051 311.394078 159.621046 339.190234 120.462414 366.884074 159.621046 480 0.27068178"></polyline>
            <path d="M231.120334,68.1757176 L231.120334,100.12519 C231.120334,117.728529 216.75369,132.047595 199.090333,132.047595 L141.83201,132.047595 L141.83201,122.339142 L141.892675,122.339142 L141.892675,94.3867368 L141.83201,94.3867368 L141.83201,75.7187165 L141.892675,75.7187165 L141.892675,47.7753342 L141.83201,47.7753342 L113.785048,47.7753342 L33.9115082,47.7753342 L53.7533577,75.7187165 L113.785048,75.7187165 L113.785048,94.3867368 L67.0026862,94.3867368 L86.8409136,122.339142 L113.785048,122.339142 L113.785048,160 L199.090333,160 C229.86177,160 255.292005,136.820617 258.754414,107.063666 L231.248001,68.1757176" id="Fill-110"></path>
        </g>
    </g>
</svg>
