<?xml version="1.0" encoding="UTF-8"?>
<svg width="480px" height="480px" viewBox="0 0 480 480" version="1.1" xmlns="http://www.w3.org/2000/svg" xmlns:xlink="http://www.w3.org/1999/xlink">
    <title>编组</title>
    <defs>
        <linearGradient x1="5.74969885%" y1="13.1832126%" x2="54.7120329%" y2="64.6489643%" id="linearGradient-1">
            <stop stop-color="#FFCB48" offset="0%"></stop>
            <stop stop-color="#FA8334" offset="100%"></stop>
        </linearGradient>
    </defs>
    <g id="页面-2" stroke="none" stroke-width="1" fill="none" fill-rule="evenodd">
        <g id="最终版本" transform="translate(-427.000000, -352.000000)">
            <g id="编组" transform="translate(427.000000, 352.000000)">
                <rect id="矩形" x="0" y="0" width="480" height="480"></rect>
                <path d="M440.561753,232.308988 C472.552668,251.92284 485.542609,278.224063 477.837294,309.657533 C462.683074,371.454396 375.440062,429.028522 270.988713,447.17712 C162.512035,466.024961 70.2578219,433.481811 61.502787,371.925548 C60.9516472,367.179691 61.6397294,364.137765 62.1313741,363.094577 C62.6230188,362.05139 62.8774211,362.229698 64.5158666,364.726929 C65.5859445,366.357885 66.0839326,367.183905 67.4740173,369.221456 C67.7157712,369.575813 67.9469778,369.920696 68.1756626,370.264432 L68.5178016,370.780219 C69.4875215,372.245077 70.4841718,373.764447 72.1238348,375.977631 C94.8504951,409.948329 139.434905,427.686603 205.706676,426.537764 C282.964161,425.198463 363.079788,391.765452 398.591251,346.144151 C426.282588,310.57121 422.150723,282.376443 385.459376,262.250282 C354.202764,245.108576 312.457818,243.198447 262.937389,257.315563 C209.031793,272.682088 171.888895,309.67433 182.964055,336.607147 C188.258423,349.479319 203.369895,356.509325 228.139559,356.969214 L228.959393,356.980177 C246.44653,357.12432 263.732505,351.54274 274.779014,343.485666 L275.10343,343.246519 L274.853039,343.364098 C268.927022,346.121033 262.405228,347.894407 255.37773,348.567362 C241.563222,349.889785 231.261523,346.452329 225.41801,338.811445 C212.058908,321.341728 231.440693,294.519763 263.814588,283.086906 C292.592798,272.924622 318.496944,272.956216 340.422657,282.471704 C361.15536,291.468416 368.442775,306.56446 362.467298,325.876627 C352.867472,356.891684 302.859037,387.504424 249.553203,395.72766 C213.376434,401.30785 182.384096,398.458776 156.430259,387.463783 C114.776926,369.816061 104.185648,333.871983 129.623709,296.800513 C159.575076,253.149439 230.991379,217.820126 305.533296,209.704237 C361.211208,203.641433 406.412691,211.370579 440.561753,232.308988 Z M98.5713093,288.334553 L98.5713093,327.215221 L59.6906414,327.215221 L59.6906414,288.334553 L98.5713093,288.334553 Z M143.580328,208.352972 L143.580328,260.453067 L91.4802325,260.453067 L91.4802325,208.352972 L143.580328,208.352972 Z M69.3336276,208.352972 L69.3336276,260.453067 L17.2335326,260.453067 L17.2335326,208.352972 L69.3336276,208.352972 Z M0,118.695781 L62.9866821,118.695781 L62.9866821,181.682463 L0,181.682463 L0,118.695781 Z M168.777067,28 L236.429429,28 L236.429429,95.6523622 L168.777067,95.6523622 L168.777067,28 Z M262.852282,81.2214998 L330.504645,81.2214998 L330.504645,148.873862 L262.852282,148.873862 L262.852282,81.2214998 Z M49.7795967,28 L117.431959,28 L117.431959,95.6523622 L49.7795967,95.6523622 L49.7795967,28 Z M86.4255363,118.695781 L149.412218,118.695781 L149.412218,181.682463 L86.4255363,181.682463 L86.4255363,118.695781 Z M173.739139,118.695781 L236.725821,118.695781 L236.725821,181.682463 L173.739139,181.682463 L173.739139,118.695781 Z" id="形状结合" fill="#df0629" fill-rule="nonzero"></path>
            </g>
        </g>
    </g>
</svg>
