<?xml version="1.0" encoding="UTF-8"?>
<svg width="16px" height="16px" viewBox="0 0 16 16" version="1.1" xmlns="http://www.w3.org/2000/svg" xmlns:xlink="http://www.w3.org/1999/xlink">
    <title>arrawsalt</title>
    <g id="arrawsalt" stroke="none" stroke-width="1" fill="none" fill-rule="evenodd">
        <g fill-rule="nonzero">
            <rect id="矩形" opacity="0" x="0" y="0" width="16" height="16"></rect>
            <path d="M13.359375,2.5015625 L10.403125,2.86875 C10.3,2.88125 10.2578125,3.00625 10.3296875,3.0796875 L11.184375,3.934375 L8.7859375,6.3328125 C8.7375,6.38125 8.7375,6.4609375 8.7859375,6.509375 L9.490625,7.2140625 C9.5390625,7.2625 9.61875,7.2625 9.6671875,7.2140625 L12.0671875,4.8140625 L12.921875,5.66875 C12.9953125,5.7421875 13.1203125,5.6984375 13.1328125,5.5953125 L13.4984375,2.640625 C13.509375,2.559375 13.440625,2.490625 13.359375,2.5015625 Z M6.509375,8.7859375 C6.4609375,8.7375 6.38125,8.7375 6.3328125,8.7859375 L3.934375,11.1859375 L3.0796875,10.33125 C3.00625,10.2578125 2.88125,10.3015625 2.86875,10.4046875 L2.5015625,13.359375 C2.4921875,13.440625 2.559375,13.5078125 2.640625,13.4984375 L5.596875,13.13125 C5.7,13.11875 5.7421875,12.99375 5.6703125,12.9203125 L4.815625,12.065625 L7.215625,9.665625 C7.2640625,9.6171875 7.2640625,9.5375 7.215625,9.4890625 L6.509375,8.7859375 L6.509375,8.7859375 Z" id="形状" fill="#000000"></path>
        </g>
    </g>
</svg>