<?xml version="1.0" standalone="no"?><!DOCTYPE svg PUBLIC "-//W3C//DTD SVG 1.1//EN" "http://www.w3.org/Graphics/SVG/1.1/DTD/svg11.dtd"><svg class="icon" width="200px" height="200.00px" viewBox="0 0 1024 1024" version="1.1" xmlns="http://www.w3.org/2000/svg"><path fill="#000000" d="M763.264 128l5.952 0.64c17.984 3.2 30.592 18.944 30.336 36.672l-0.64 5.952-25.6 143.104h60.736c14.528 0 27.52 8.576 33.408 21.44l2.112 5.76 75.392 276.8 0.64 3.52a36.8 36.8 0 0 1 0.512 4.16l0.192 1.984v179.008a36.8 36.8 0 0 1-30.848 36.352l-5.952 0.448H100.8l-5.952-0.448a36.8 36.8 0 0 1-30.336-30.336L64 807.04V628.032l1.28-9.6L140.8 341.504l2.112-5.76a36.8 36.8 0 0 1 27.264-20.864l6.144-0.512 60.608-0.064-25.6-143.104-0.512-5.952a36.8 36.8 0 0 1 24.512-35.2l5.76-1.536L247.04 128a36.8 36.8 0 0 1 35.2 24.512l1.536 5.76 27.84 156.096h156.672V164.8a36.8 36.8 0 0 1 73.152-5.952l0.512 5.952-0.064 149.568h156.672l27.968-156.032A36.8 36.8 0 0 1 763.264 128zM137.6 665.92v104.32h735.04l-0.064-104.32H137.6z m395.328 17.152a36.8 36.8 0 0 1 5.952 73.152l-5.952 0.448H393.6a36.8 36.8 0 0 1-5.952-73.088l5.952-0.512h139.328z m-243.456 0a36.8 36.8 0 1 1 0 73.6 36.8 36.8 0 0 1 0-73.6z m-104.128 0a36.8 36.8 0 1 1 0 73.6 36.8 36.8 0 0 1 0-73.6z m676.16-90.752l-55.68-204.288H507.52l-2.432-0.256-2.304 0.256H204.416l-55.744 204.288h712.832z" /></svg>