<?xml version="1.0" standalone="no"?><!DOCTYPE svg PUBLIC "-//W3C//DTD SVG 1.1//EN" "http://www.w3.org/Graphics/SVG/1.1/DTD/svg11.dtd"><svg class="icon" width="200px" height="200.00px" viewBox="0 0 1024 1024" version="1.1" xmlns="http://www.w3.org/2000/svg"><path fill="#000000" d="M770.24 64a30.144 30.144 0 0 1 21.504 8.704l3.84 4.608 141.056 210.432a30.144 30.144 0 0 1 1.6 31.168l1.408-3.456V960H82.88L82.752 311.616a30.144 30.144 0 0 1 1.92-19.456l2.432-4.416 140.48-210.432a30.144 30.144 0 0 1 19.328-12.736l6.016-0.512h517.312z m100.032 270.72H152.192v555.968H870.4l-0.064-555.904z m-382.848 44.096a96.512 96.512 0 0 1 85.44 142.528l88.32 113.92c15.424-7.616 32.64-11.776 50.56-11.648a111.552 111.552 0 0 1 111.552 112.128 112.128 112.128 0 1 1-211.84-51.456L520 566.4a96.32 96.32 0 0 1-46.336 4.352l-70.144 70.08a111.552 111.552 0 1 1-55.616-42.432l64-64a96.448 96.448 0 0 1 75.648-155.52z m224.32 314.112a42.24 42.24 0 0 0-42.24 42.88 42.816 42.816 0 1 0 42.24-42.88z m-400.384-31.36a42.24 42.24 0 1 0 0 84.48 42.24 42.24 0 0 0 0-84.48z m176.064-213.44a27.712 27.712 0 0 0-27.072 27.136 27.136 27.136 0 1 0 27.072-27.136z m262.336-314.752H273.408L185.344 265.472H837.76l-88-132.096z" /></svg>