<?xml version="1.0" encoding="UTF-8"?>
<svg width="16px" height="16px" viewBox="0 0 16 16" version="1.1" xmlns="http://www.w3.org/2000/svg" xmlns:xlink="http://www.w3.org/1999/xlink">
    <title>enter</title>
    <g id="enter" stroke="none" stroke-width="1" fill="none" fill-rule="evenodd">
        <g fill-rule="nonzero">
            <rect id="矩形" opacity="0" x="0" y="0" width="16" height="16"></rect>
            <path d="M13.5,2.65625 L12.5625,2.65625 C12.49375,2.65625 12.4375,2.7125 12.4375,2.78125 L12.4375,10.875 L4.84375,10.875 L4.84375,9.734375 C4.84375,9.6296875 4.721875,9.5703125 4.640625,9.6359375 L2.4234375,11.3859375 C2.359375,11.4359375 2.359375,11.5328125 2.4234375,11.5828125 L4.640625,13.3328125 C4.7234375,13.3984375 4.84375,13.3390625 4.84375,13.234375 L4.84375,12.0625 L12.625,12.0625 C13.1765625,12.0625 13.625,11.6140625 13.625,11.0625 L13.625,2.78125 C13.625,2.7125 13.56875,2.65625 13.5,2.65625 Z" id="路径" fill="#000000"></path>
        </g>
    </g>
</svg>