<?xml version="1.0" standalone="no"?><!DOCTYPE svg PUBLIC "-//W3C//DTD SVG 1.1//EN" "http://www.w3.org/Graphics/SVG/1.1/DTD/svg11.dtd"><svg class="icon" width="200px" height="200.00px" viewBox="0 0 1024 1024" version="1.1" xmlns="http://www.w3.org/2000/svg"><path fill="#000000" d="M191.36 628.864v196.224h196.16v73.6l-232.96-0.064-5.952-0.512a36.8 36.8 0 0 1-30.848-36.288v-232.96h73.6z m714.88 0v232.96a36.8 36.8 0 0 1-30.848 36.288l-5.952 0.512h-232.96v-73.6h196.16V628.928h73.6zM512 304a140.8 140.8 0 0 1 91.264 248 191.04 191.04 0 0 1 99.712 156.928l0.32 11.2h-64a127.36 127.36 0 0 0-254.272-9.472l-0.32 9.472h-64c0-72.64 40.448-135.808 100.096-168.192A140.8 140.8 0 0 1 512 303.936z m0 64a76.8 76.8 0 1 0 0 153.6 76.8 76.8 0 0 0 0-153.6z m-124.48-242.56v73.6H191.36v196.16H117.76v-232.96c0-18.24 13.376-33.472 30.848-36.288l5.952-0.512h232.96z m481.92 0l5.952 0.512a36.8 36.8 0 0 1 30.848 36.288v232.96h-73.6V198.976H636.48v-73.6h232.96z" /></svg>