<?xml version="1.0" encoding="UTF-8"?>
<svg width="16px" height="16px" viewBox="0 0 16 16" version="1.1" xmlns="http://www.w3.org/2000/svg" xmlns:xlink="http://www.w3.org/1999/xlink">
    <title>folder-add</title>
    <g id="folder-add" stroke="none" stroke-width="1" fill="none" fill-rule="evenodd">
        <g fill-rule="nonzero">
            <rect id="矩形" opacity="0" x="0" y="0" width="16" height="16"></rect>
            <path d="M7.5625,6.9234375 L7.5625,8.25 L6.2421875,8.25 C6.178125,8.25 6.125,8.2984375 6.125,8.359375 L6.125,9.015625 C6.125,9.075 6.178125,9.125 6.2421875,9.125 L7.5625,9.125 L7.5625,10.4515625 C7.5625,10.5125 7.6125,10.5625 7.671875,10.5625 L8.328125,10.5625 C8.3890625,10.5625 8.4375,10.5125 8.4375,10.4515625 L8.4375,9.125 L9.7578125,9.125 C9.821875,9.125 9.875,9.075 9.875,9.015625 L9.875,8.359375 C9.875,8.2984375 9.821875,8.25 9.7578125,8.25 L8.4375,8.25 L8.4375,6.9234375 C8.4375,6.8625 8.3890625,6.8125 8.328125,6.8125 L7.671875,6.8125 C7.6125,6.8125 7.5625,6.8625 7.5625,6.9234375 Z M13.75,4.6625 L8.140625,4.6625 L6.3078125,2.909375 C6.284375,2.8875 6.253125,2.875 6.221875,2.875 L2.25,2.875 C1.9734375,2.875 1.75,3.0984375 1.75,3.375 L1.75,12.625 C1.75,12.9015625 1.9734375,13.125 2.25,13.125 L13.75,13.125 C14.0265625,13.125 14.25,12.9015625 14.25,12.625 L14.25,5.1625 C14.25,4.8859375 14.0265625,4.6625 13.75,4.6625 Z M13.125,12 L2.875,12 L2.875,4 L5.8203125,4 L7.6890625,5.7875 L13.125,5.7875 L13.125,12 Z" id="形状" fill="#000000"></path>
        </g>
    </g>
</svg>