<?xml version="1.0" encoding="UTF-8"?>
<svg width="16px" height="16px" viewBox="0 0 16 16" version="1.1" xmlns="http://www.w3.org/2000/svg" xmlns:xlink="http://www.w3.org/1999/xlink">
    <title>forward</title>
    <g id="forward" stroke="none" stroke-width="1" fill="none" fill-rule="evenodd">
        <g fill-rule="nonzero">
            <rect id="矩形" opacity="0" x="0" y="0" width="16" height="16"></rect>
            <path d="M12.903125,7.78125 L8.4125,3.9046875 C8.2453125,3.7609375 8,3.890625 8,4.1234375 L8,11.878125 C8,12.1109375 8.2453125,12.240625 8.4125,12.096875 L12.903125,8.21875 C13.0328125,8.10625 13.0328125,7.89375 12.903125,7.78125 Z M7.903125,7.78125 L3.4125,3.9046875 C3.2453125,3.7609375 3,3.890625 3,4.1234375 L3,11.878125 C3,12.1109375 3.2453125,12.240625 3.4125,12.096875 L7.903125,8.21875 C7.9671875,8.1625 8,8.08125 8,8 C8,7.91875 7.9671875,7.8375 7.903125,7.78125 L7.903125,7.78125 Z" id="形状" fill="#000000"></path>
        </g>
    </g>
</svg>