<?xml version="1.0" encoding="UTF-8"?>
<svg width="16px" height="16px" viewBox="0 0 16 16" version="1.1" xmlns="http://www.w3.org/2000/svg" xmlns:xlink="http://www.w3.org/1999/xlink">
    <title>gift</title>
    <g id="12-icon库" stroke="none" stroke-width="1" fill="none" fill-rule="evenodd">
        <g id="gift" fill-rule="nonzero">
            <g>
                <rect id="矩形" opacity="0" x="0" y="0" width="16" height="16"></rect>
                <path d="M13.75,4.84375 L11.44375,4.84375 C11.65625,4.509375 11.78125,4.1125 11.78125,3.6875 C11.78125,2.4984375 10.8140625,1.53125 9.625,1.53125 C8.978125,1.53125 8.3953125,1.81875 8,2.271875 C7.6046875,1.81875 7.021875,1.53125 6.375,1.53125 C5.1859375,1.53125 4.21875,2.4984375 4.21875,3.6875 C4.21875,4.1125 4.3421875,4.509375 4.55625,4.84375 L2.25,4.84375 C1.9734375,4.84375 1.75,5.0671875 1.75,5.34375 L1.75,8.46875 C1.75,8.5375 1.80625,8.59375 1.875,8.59375 L2.5,8.59375 L2.5,13.96875 C2.5,14.2453125 2.7234375,14.46875 3,14.46875 L13,14.46875 C13.2765625,14.46875 13.5,14.2453125 13.5,13.96875 L13.5,8.59375 L14.125,8.59375 C14.19375,8.59375 14.25,8.5375 14.25,8.46875 L14.25,5.34375 C14.25,5.0671875 14.0265625,4.84375 13.75,4.84375 Z M8.53125,3.6875 C8.53125,3.084375 9.021875,2.59375 9.625,2.59375 C10.228125,2.59375 10.71875,3.084375 10.71875,3.6875 C10.71875,4.290625 10.228125,4.78125 9.625,4.78125 L8.53125,4.78125 L8.53125,3.6875 Z M6.375,2.59375 C6.978125,2.59375 7.46875,3.084375 7.46875,3.6875 L7.46875,4.78125 L6.375,4.78125 C5.771875,4.78125 5.28125,4.290625 5.28125,3.6875 C5.28125,3.084375 5.771875,2.59375 6.375,2.59375 Z M2.8125,7.53125 L2.8125,5.90625 L7.46875,5.90625 L7.46875,7.53125 L2.8125,7.53125 Z M3.5625,8.59375 L7.46875,8.59375 L7.46875,13.40625 L3.5625,13.40625 L3.5625,8.59375 Z M12.4375,13.40625 L8.53125,13.40625 L8.53125,8.59375 L12.4375,8.59375 L12.4375,13.40625 Z M13.1875,7.53125 L8.53125,7.53125 L8.53125,5.90625 L13.1875,5.90625 L13.1875,7.53125 Z" id="形状" fill="#000000"></path>
            </g>
        </g>
    </g>
</svg>