<?xml version="1.0" encoding="UTF-8"?>
<svg width="16px" height="16px" viewBox="0 0 16 16" version="1.1" xmlns="http://www.w3.org/2000/svg" xmlns:xlink="http://www.w3.org/1999/xlink">
    <title>group 2</title>
    <g id="group" stroke="none" stroke-width="1" fill="none" fill-rule="evenodd">
        <g>
            <rect id="矩形" x="0" y="0" width="16" height="16"></rect>
            <path d="M6.19446835,2.42298988 C6.31318125,2.42298988 6.42821708,2.45970565 6.52430356,2.52699507 L6.59257678,2.58309872 L8.23200972,4.15498613 L14.4241131,4.15548613 C14.7099205,4.15548613 14.9470246,4.3640095 14.9915874,4.63721814 L14.9991131,4.73048613 L14.9991131,6.95118165 L13.8491131,6.95118165 L13.8498565,5.30498613 L8,5.30548613 C7.8812871,5.30548613 7.76625126,5.26877036 7.67016479,5.20148094 L7.60189157,5.14537729 L5.96500972,3.57298613 L2.14741907,3.57298613 L2.14741907,12.4260677 L7.2201186,12.4270101 L7.2201186,13.5770101 L1.57214302,13.5770101 C1.28633566,13.5770101 1.04923155,13.3684867 1.0046688,13.0952781 L0.997143018,13.0020101 L0.997143018,2.99798988 C0.997143018,2.71218252 1.2056664,2.47507841 1.47887503,2.43051566 L1.57214302,2.42298988 L6.19446835,2.42298988 Z M11.1505206,6.46449081 C12.5842139,6.46449081 13.746452,7.62672893 13.746452,9.0604223 C13.746452,10.2963158 12.8827884,11.3304898 11.7260799,11.5923255 L11.725143,12.4269899 L13.746452,12.4270101 L13.746452,13.5770101 L8.55458906,13.5770101 L8.55458906,12.4270101 L10.575143,12.4269899 L10.5749612,11.5923255 C9.46986177,11.3421722 8.63224085,10.3870621 8.55969624,9.2245931 L8.55458906,9.0604223 C8.55458906,7.62672893 9.71682718,6.46449081 11.1505206,6.46449081 Z M11.1505206,7.61449081 C10.3519546,7.61449081 9.70458906,8.26185639 9.70458906,9.0604223 C9.70458906,9.85898822 10.3519546,10.5063538 11.1505206,10.5063538 C11.9490865,10.5063538 12.596452,9.85898822 12.596452,9.0604223 C12.596452,8.26185639 11.9490865,7.61449081 11.1505206,7.61449081 Z M11.1505206,8.47286047 C11.475022,8.47286047 11.7380824,8.73592086 11.7380824,9.0604223 C11.7380824,9.38492374 11.475022,9.64798413 11.1505206,9.64798413 C10.8260191,9.64798413 10.5629587,9.38492374 10.5629587,9.0604223 C10.5629587,8.73592086 10.8260191,8.47286047 11.1505206,8.47286047 Z" id="形状结合" fill="#000000" fill-rule="nonzero"></path>
        </g>
    </g>
</svg>