<?xml version="1.0" encoding="UTF-8"?>
<svg width="16px" height="16px" viewBox="0 0 16 16" version="1.1" xmlns="http://www.w3.org/2000/svg" xmlns:xlink="http://www.w3.org/1999/xlink">
    <title>like-fill</title>
    <g id="like-fill" stroke="none" stroke-width="1" fill="none" fill-rule="evenodd">
        <g fill-rule="nonzero">
            <rect id="矩形" opacity="0" x="0" y="0" width="16" height="16"></rect>
            <path d="M13.8421875,8.3390625 C14.1046875,7.9921875 14.25,7.5671875 14.25,7.125 C14.25,6.4234375 13.8578125,5.759375 13.2265625,5.3890625 C13.0640533,5.29374233 12.8790266,5.24357473 12.690625,5.24375 L8.94375,5.24375 L9.0375,3.3234375 C9.059375,2.859375 8.8953125,2.41875 8.5765625,2.0828125 C8.25625,1.746875 7.825,1.5609375 7.359375,1.5609375 C6.546875,1.5609375 5.828125,2.1078125 5.6125,2.890625 L4.2703125,7.75 L4.265625,7.75 L4.265625,14.4375 L11.6453125,14.4375 C11.7890625,14.4375 11.9296875,14.409375 12.059375,14.353125 C12.803125,14.0359375 13.2828125,13.309375 13.2828125,12.503125 C13.2828125,12.30625 13.2546875,12.1125 13.1984375,11.925 C13.4609375,11.578125 13.60625,11.153125 13.60625,10.7109375 C13.60625,10.5140625 13.578125,10.3203125 13.521875,10.1328125 C13.784375,9.7859375 13.9296875,9.3609375 13.9296875,8.91875 C13.9265625,8.721875 13.8984375,8.5265625 13.8421875,8.3390625 Z M1.75,8.25 L1.75,13.9375 C1.75,14.2140625 1.9734375,14.4375 2.25,14.4375 L3.265625,14.4375 L3.265625,7.75 L2.25,7.75 C1.9734375,7.75 1.75,7.9734375 1.75,8.25 Z" id="形状" fill="#000000"></path>
        </g>
    </g>
</svg>