<?xml version="1.0" standalone="no"?><!DOCTYPE svg PUBLIC "-//W3C//DTD SVG 1.1//EN" "http://www.w3.org/Graphics/SVG/1.1/DTD/svg11.dtd"><svg class="icon" width="200px" height="200.00px" viewBox="0 0 1024 1024" version="1.1" xmlns="http://www.w3.org/2000/svg"><path fill="#000000" d="M288.768 488.96L465.28 591.68c9.92 5.76 16.064 16.448 16.064 28.032v205.248c0 11.52-6.144 22.208-16 28.032l-176.64 102.656a31.936 31.936 0 0 1-32.064 0L80 852.992A32.384 32.384 0 0 1 64 824.96V619.712c0-11.584 6.144-22.272 16.064-28.032L256.64 488.96a31.936 31.936 0 0 1 32.128 0z m478.592 0l176.576 102.72c9.92 5.76 16.064 16.448 16.064 28.032v205.248c0 11.52-6.144 22.208-16.064 28.032l-176.576 102.656a31.936 31.936 0 0 1-32.128 0L558.72 852.992a32.384 32.384 0 0 1-16.064-28.032V619.712c0-11.584 6.144-22.272 16-28.032l176.64-102.72a31.936 31.936 0 0 1 32.064 0zM526.464 68.352l176.576 102.656c9.92 5.76 16 16.512 16 28.032v205.248c0 11.584-6.08 22.272-16 28.032L526.4 535.04a31.936 31.936 0 0 1-32.064 0L317.76 432.32a32.384 32.384 0 0 1-16-28.032V199.04c0-11.52 6.08-22.208 16-28.032l176.576-102.656a31.936 31.936 0 0 1 32.128 0z" /></svg>