<?xml version="1.0" encoding="UTF-8"?>
<svg width="16px" height="16px" viewBox="0 0 16 16" version="1.1" xmlns="http://www.w3.org/2000/svg" xmlns:xlink="http://www.w3.org/1999/xlink">
    <title>Partition</title>
    <g id="Partition" stroke="none" stroke-width="1" fill="none" fill-rule="evenodd">
        <g fill-rule="nonzero">
            <rect id="矩形" opacity="0" x="0" y="0" width="16" height="16"></rect>
            <path d="M10.009375,6.715625 L14.0265625,6.715625 C14.15,6.715625 14.25,6.615625 14.25,6.4921875 L14.25,2.4734375 C14.25,2.35 14.15,2.25 14.0265625,2.25 L10.009375,2.25 C9.8859375,2.25 9.7859375,2.35 9.7859375,2.4734375 L9.7859375,3.925 L7.665625,3.925 C7.6046875,3.925 7.5546875,3.975 7.5546875,4.0359375 L7.5546875,7.496875 L6.215625,7.496875 L6.215625,5.9890625 C6.215625,5.865625 6.115625,5.765625 5.9921875,5.765625 L1.9734375,5.765625 C1.85,5.765625 1.75,5.865625 1.75,5.9890625 L1.75,10.0078125 C1.75,10.13125 1.85,10.23125 1.9734375,10.23125 L5.990625,10.23125 C6.1140625,10.23125 6.2140625,10.13125 6.2140625,10.0078125 L6.2140625,8.5 L7.553125,8.5 L7.553125,11.9609375 C7.553125,12.021875 7.603125,12.071875 7.6640625,12.071875 L9.784375,12.071875 L9.784375,13.5234375 C9.784375,13.646875 9.884375,13.746875 10.0078125,13.746875 L14.025,13.746875 C14.1484375,13.746875 14.2484375,13.646875 14.2484375,13.5234375 L14.2484375,9.5078125 C14.2484375,9.384375 14.1484375,9.284375 14.025,9.284375 L10.009375,9.284375 C9.8859375,9.284375 9.7859375,9.384375 9.7859375,9.5078125 L9.7859375,11.0703125 L8.5578125,11.0703125 L8.5578125,4.9296875 L9.7859375,4.9296875 L9.7859375,6.4921875 C9.7859375,6.615625 9.8859375,6.715625 10.009375,6.715625 Z M10.8453125,3.3109375 L13.1890625,3.3109375 L13.1890625,5.65625 L10.8453125,5.65625 L10.8453125,3.3109375 Z M5.1546875,9.171875 L2.8109375,9.171875 L2.8109375,6.828125 L5.1546875,6.828125 L5.1546875,9.171875 Z M10.8453125,10.3453125 L13.1890625,10.3453125 L13.1890625,12.690625 L10.8453125,12.690625 L10.8453125,10.3453125 Z" id="形状" fill="#000000"></path>
        </g>
    </g>
</svg>