<?xml version="1.0" encoding="UTF-8"?>
<svg width="16px" height="16px" viewBox="0 0 16 16" version="1.1" xmlns="http://www.w3.org/2000/svg" xmlns:xlink="http://www.w3.org/1999/xlink">
    <title>poweroff-circle-fill</title>
    <g id="poweroff-circle-fill" stroke="none" stroke-width="1" fill="none" fill-rule="evenodd">
        <g fill-rule="nonzero">
            <rect id="矩形" opacity="0" x="0" y="0" width="16" height="16"></rect>
            <path d="M8,1 C4.134375,1 1,4.134375 1,8 C1,11.865625 4.134375,15 8,15 C11.865625,15 15,11.865625 15,8 C15,4.134375 11.865625,1 8,1 Z M6.75,10.375 C6.75,10.44375 6.69375,10.5 6.625,10.5 L5.875,10.5 C5.80625,10.5 5.75,10.44375 5.75,10.375 L5.75,5.625 C5.75,5.55625 5.80625,5.5 5.875,5.5 L6.625,5.5 C6.69375,5.5 6.75,5.55625 6.75,5.625 L6.75,10.375 Z M10.25,10.375 C10.25,10.44375 10.19375,10.5 10.125,10.5 L9.375,10.5 C9.30625,10.5 9.25,10.44375 9.25,10.375 L9.25,5.625 C9.25,5.55625 9.30625,5.5 9.375,5.5 L10.125,5.5 C10.19375,5.5 10.25,5.55625 10.25,5.625 L10.25,10.375 Z" id="形状" fill="#000000"></path>
        </g>
    </g>
</svg>