<?xml version="1.0" encoding="UTF-8"?>
<svg width="16px" height="16px" viewBox="0 0 16 16" version="1.1" xmlns="http://www.w3.org/2000/svg" xmlns:xlink="http://www.w3.org/1999/xlink">
    <title>send</title>
    <g id="send" stroke="none" stroke-width="1" fill="none" fill-rule="evenodd">
        <g fill-rule="nonzero">
            <rect id="矩形" opacity="0" x="0" y="0" width="16" height="16"></rect>
            <path d="M14.553125,7.7953125 L1.4828125,1.2421875 C1.4296875,1.215625 1.36875,1.209375 1.3109375,1.2234375 C1.178125,1.25625 1.0953125,1.390625 1.128125,1.525 L2.475,7.028125 C2.4953125,7.1109375 2.55625,7.178125 2.6375,7.2046875 L4.9453125,7.996875 L2.6390625,8.7890625 C2.5578125,8.8171875 2.496875,8.8828125 2.478125,8.965625 L1.128125,14.4765625 C1.1140625,14.534375 1.1203125,14.5953125 1.146875,14.646875 C1.2078125,14.7703125 1.3578125,14.8203125 1.4828125,14.759375 L14.553125,8.24375 C14.6015625,8.2203125 14.640625,8.1796875 14.665625,8.1328125 C14.7265625,8.0078125 14.6765625,7.8578125 14.553125,7.7953125 Z M2.66875,12.9109375 L3.4546875,9.6984375 L8.0671875,8.115625 C8.103125,8.103125 8.1328125,8.075 8.1453125,8.0375 C8.1671875,7.971875 8.1328125,7.9015625 8.0671875,7.878125 L3.4546875,6.296875 L2.671875,3.096875 L12.484375,8.0171875 L2.66875,12.9109375 Z" id="形状" fill="#000000"></path>
        </g>
    </g>
</svg>