<?xml version="1.0" standalone="no"?><!DOCTYPE svg PUBLIC "-//W3C//DTD SVG 1.1//EN" "http://www.w3.org/Graphics/SVG/1.1/DTD/svg11.dtd"><svg class="icon" width="200px" height="200.00px" viewBox="0 0 1024 1024" version="1.1" xmlns="http://www.w3.org/2000/svg"><path fill="#000000" d="M512 64.192a227.84 227.84 0 0 1 128 416.32v81.792l174.4 0.064c18.304 0 33.472 13.376 36.352 30.848l0.448 5.952v62.464h20.16c18.304 0 33.472 13.44 36.352 30.848l0.448 6.016v170.624a36.8 36.8 0 0 1-36.8 36.8H152.64a36.8 36.8 0 0 1-36.8-36.8v-170.624c0-20.352 16.448-36.8 36.8-36.8h20.096v-62.528c0-18.304 13.376-33.472 30.848-36.288l6.016-0.512H384V480.512a227.84 227.84 0 0 1 128-416.384z m322.624 671.104H189.504v96.96h645.12v-96.96z m-56.96-99.328h-531.2v25.728h531.2v-25.728zM512 137.792A154.24 154.24 0 0 0 416 412.8l9.408 6.912 32.192 21.952v112.448h108.864V441.6l32.192-21.888A154.24 154.24 0 0 0 512 137.856z" /></svg>