<?xml version="1.0" encoding="UTF-8"?>
<svg width="16px" height="16px" viewBox="0 0 16 16" version="1.1" xmlns="http://www.w3.org/2000/svg" xmlns:xlink="http://www.w3.org/1999/xlink">
    <title>uninstalled</title>
    <g id="uninstalled" stroke="none" stroke-width="1" fill="none" fill-rule="evenodd">
        <g>
            <rect id="矩形" opacity="0" fill-rule="nonzero" x="0" y="0" width="16" height="16"></rect>
            <path d="M8,1 C11.8659932,1 15,4.13400675 15,8 C15,11.8659932 11.8659932,15 8,15 C4.13400675,15 1,11.8659932 1,8 C1,4.13400675 4.13400675,1 8,1 Z M8,2.187 C4.78956875,2.187 2.187,4.78956875 2.187,8 C2.187,11.2104313 4.78956875,13.813 8,13.813 C11.2104312,13.813 13.8129999,11.2104312 13.8129999,8 C13.8129999,4.78956878 11.2104312,2.187 8,2.187 Z M12,5 L12,6 L11.001,6 L11.0011444,11.5 C11.0011444,11.7454599 10.8242692,11.9496084 10.59102,11.9919443 L10.5011444,12 L5.5,12 C5.25454011,12 5.05039163,11.8231248 5.00805567,11.5898756 L5,11.5 L4.999,6 L4,6 L4,5 L12,5 Z M10.001,6 L5.999,6 L6,11 L10.0003199,11 L10.001,6 Z M9.66863164,6.8 C9.69015227,6.79982769 9.71085066,6.80852058 9.72612904,6.82415297 C9.74140742,6.83978536 9.75,6.86106284 9.74938819,6.88392501 C9.74967931,6.90354355 9.74327538,6.92265008 9.73127236,6.93787342 L9.73127236,6.93787342 L8.41840027,8.55099757 L9.72933502,10.1634557 C9.74142904,10.178458 9.74825573,10.1972333 9.74870844,10.2167381 C9.74888526,10.2389897 9.74034823,10.2603734 9.72503114,10.2760454 C9.70971405,10.2917174 9.68891311,10.3003514 9.66734007,10.3000128 L9.66734007,10.3000128 L9.00218599,10.2973277 L7.9999344,9.06517256 L6.99768281,10.2973277 L6.33059138,10.3000128 C6.29914438,10.2999386 6.27058981,10.2810552 6.25742046,10.2516031 C6.24425111,10.2221509 6.24886449,10.187492 6.26924221,10.1627897 L6.26924221,10.1627897 L7.58211431,8.55099757 L6.269888,6.93853945 C6.25697238,6.92255474 6.25051458,6.9039059 6.25051458,6.88392501 C6.25034079,6.86179029 6.25878965,6.84051008 6.2739659,6.82485795 C6.28914216,6.80920583 6.30977539,6.80049205 6.33123716,6.80067129 L6.33123716,6.80067129 L6.99768281,6.80400144 L7.9999344,8.03615654 L9.00347755,6.80266938 Z M10,3.5 L10,4.5 L6,4.5 L6,3.5 L10,3.5 Z" id="形状结合" fill="#000000"></path>
        </g>
    </g>
</svg>