<?xml version="1.0" encoding="UTF-8"?>
<svg width="16px" height="16px" viewBox="0 0 16 16" version="1.1" xmlns="http://www.w3.org/2000/svg" xmlns:xlink="http://www.w3.org/1999/xlink">
    <title>unlike-fill</title>
    <g id="unlike-fill" stroke="none" stroke-width="1" fill="none" fill-rule="evenodd">
        <g fill-rule="nonzero">
            <rect id="矩形" opacity="0" x="0" y="0" width="16" height="16"></rect>
            <path d="M13.8421875,7.6609375 C13.8984375,7.4734375 13.9265625,7.2796875 13.9265625,7.0828125 C13.9265625,6.640625 13.78125,6.215625 13.51875,5.86875 C13.575,5.68125 13.603125,5.4875 13.603125,5.290625 C13.603125,4.8484375 13.4578125,4.4234375 13.1953125,4.0765625 C13.2515625,3.8890625 13.2796875,3.6953125 13.2796875,3.4984375 C13.2796875,2.6921875 12.8,1.965625 12.05625,1.6484375 C11.9265625,1.5921875 11.7875,1.5640625 11.6421875,1.5640625 L4.265625,1.5640625 L4.265625,8.2515625 L4.2703125,8.2515625 L5.6109375,13.1078125 C5.8265625,13.890625 6.5453125,14.4375 7.3578125,14.4375 C7.821875,14.4375 8.2546875,14.253125 8.575,13.915625 C8.8953125,13.5796875 9.059375,13.1390625 9.0359375,12.675 L8.9421875,10.7546875 L12.690625,10.7546875 C12.8796875,10.7546875 13.0640625,10.7046875 13.2265625,10.609375 C13.8578125,10.2421875 14.25,9.5765625 14.25,8.875 C14.25,8.4328125 14.1046875,8.0078125 13.8421875,7.6609375 L13.8421875,7.6609375 Z M1.75,2.0625 L1.75,7.75 C1.75,8.0265625 1.9734375,8.25 2.25,8.25 L3.265625,8.25 L3.265625,1.5625 L2.25,1.5625 C1.9734375,1.5625 1.75,1.7859375 1.75,2.0625 Z" id="形状" fill="#000000"></path>
        </g>
    </g>
</svg>