<?xml version="1.0" encoding="UTF-8"?>
<svg width="104px" height="130px" viewBox="0 0 104 130" version="1.1" xmlns="http://www.w3.org/2000/svg" xmlns:xlink="http://www.w3.org/1999/xlink">
    <title>提交失败</title>
    <defs>
        <linearGradient x1="-0.692725018%" y1="51.345309%" x2="99.3204533%" y2="48.6691576%" id="linearGradient-1">
            <stop stop-color="#000000" stop-opacity="0.1" offset="0%"></stop>
            <stop stop-color="#000000" stop-opacity="0" offset="100%"></stop>
        </linearGradient>
        <linearGradient x1="0.03356974%" y1="49.9571856%" x2="99.9394799%" y2="49.9571856%" id="linearGradient-2">
            <stop stop-color="#E8EEF5" offset="0%"></stop>
            <stop stop-color="#CBD9E6" offset="100%"></stop>
        </linearGradient>
        <linearGradient x1="49.9853437%" y1="-0.0279146909%" x2="49.9853437%" y2="100.026146%" id="linearGradient-3">
            <stop stop-color="#E8EEF5" offset="0%"></stop>
            <stop stop-color="#CBD9E6" offset="100%"></stop>
        </linearGradient>
        <linearGradient x1="47.3626516%" y1="-0.264455188%" x2="53.1168288%" y2="99.7487927%" id="linearGradient-4">
            <stop stop-color="#F9F9F9" offset="0%"></stop>
            <stop stop-color="#F9F9F9" stop-opacity="0.6" offset="100%"></stop>
        </linearGradient>
        <linearGradient x1="52.2098144%" y1="90.2096998%" x2="47.4901504%" y2="3.0448037%" id="linearGradient-5">
            <stop stop-color="#E8EEF5" offset="0%"></stop>
            <stop stop-color="#CBD9E6" offset="100%"></stop>
        </linearGradient>
        <linearGradient x1="-0.0386196769%" y1="50.050501%" x2="99.9941263%" y2="50.050501%" id="linearGradient-6">
            <stop stop-color="#E8EEF5" offset="0%"></stop>
            <stop stop-color="#CBD9E6" offset="100%"></stop>
        </linearGradient>
        <linearGradient x1="-0.0514677104%" y1="50.0020408%" x2="99.9729941%" y2="50.0020408%" id="linearGradient-7">
            <stop stop-color="#E8EEF5" offset="0%"></stop>
            <stop stop-color="#CBD9E6" offset="100%"></stop>
        </linearGradient>
        <linearGradient x1="-0.0665822785%" y1="49.9603636%" x2="100.095949%" y2="49.9603636%" id="linearGradient-8">
            <stop stop-color="#E8EEF5" offset="0%"></stop>
            <stop stop-color="#CBD9E6" offset="100%"></stop>
        </linearGradient>
    </defs>
    <g id="表单" stroke="none" stroke-width="1" fill="none" fill-rule="evenodd">
        <g id="分步表单-提交失败" transform="translate(-763.000000, -240.000000)">
            <g id="提交失败" transform="translate(740.000000, 230.000000)">
                <rect id="矩形" x="0" y="0" width="150" height="150"></rect>
                <g transform="translate(23.370000, 10.515388)" fill-rule="nonzero">
                    <path d="M66.4069438,128.952256 L96.8269438,128.952256 C96.8269438,101.892256 96.8269438,88.3322561 96.8269438,88.3322561 C96.8269438,88.3322561 68.4469438,88.2122561 11.6869438,87.9722561 L66.4069438,128.952256 Z" id="路径-11备份" fill="url(#linearGradient-1)"></path>
                    <g id="编组">
                        <g>
                            <polygon id="路径-53" fill="#CBD9E6" points="1.14 43.9322561 26.16 58.6922561 26.16 83.9522561 25.38 84.4322561 25.38 59.2922561 0 44.3522561"></polygon>
                            <polygon id="路径-53备份" fill="url(#linearGradient-2)" points="0 44.3522561 25.38 59.2922561 25.38 84.4322561 0 69.4322561"></polygon>
                            <polygon id="路径-53_1_" fill="#D83E3A" points="68.22 49.2722561 103.26 70.2122561 103.26 117.072256 100.44 118.692256 100.44 72.0722561 64.68 50.7122561"></polygon>
                            <polygon id="路径-53备份_1_" fill="#F95B53" points="64.68 50.7122561 100.44 72.0722561 100.44 118.692256 64.68 97.2722561"></polygon>
                            <path d="M64.68,128.652256 C25.38,104.292256 5.7,92.1122561 5.7,92.1122561 C4.26,90.4922561 3.54,86.1722561 3.6,79.1522561 L61.44,113.712256 C61.38,117.732256 61.62,120.972256 62.1,123.372256 C62.4,124.992256 62.82,126.432256 63.48,127.452256 C63.72,127.812256 64.08,128.232256 64.68,128.652256 Z" id="路径-51" fill="url(#linearGradient-3)"></path>
                            <path d="M62.1,123.432256 C62.58,125.592256 63.06,127.572256 64.68,128.712256 C67.98,129.912256 69.78,126.912256 70.08,119.652256 L70.08,45.3722561 C70.26,37.6922561 71.22,34.0922561 73.02,34.5722561 C74.82,35.0522561 75.84,38.2922561 76.02,44.4122561 L76.02,48.4322561 L76.98,48.4322561 L76.98,47.2322561 C77.16,38.7122561 75.9,33.9122561 73.14,32.8922561 C70.38,31.8722561 68.88,35.4722561 68.7,43.7522561 C68.7,90.8522561 68.7,115.932256 68.7,118.932256 C68.7,123.432256 67.14,128.412256 64.68,126.732256 C63,125.592256 62.22,121.152256 62.34,113.412256 L61.44,113.772256 C61.38,118.032256 61.62,121.272256 62.1,123.432256 Z" id="路径" fill="#D9E5EE"></path>
                            <path d="M70.08,44.8922561 C70.26,37.6922561 71.28,34.0922561 73.02,34.5722561 C74.82,35.0522561 75.84,38.2922561 76.02,44.4122561 L76.02,48.4322561 L70.08,44.8922561 Z" id="路径_1_" fill="#CBD9E6"></path>
                            <path d="M73.14,32.8922561 C70.38,31.8722561 68.88,35.4722561 68.7,43.7522561 C68.7,90.8522561 68.7,115.932256 68.7,118.932256 C68.7,123.432256 67.14,128.412256 64.68,126.732256 C63,125.592256 62.22,121.152256 62.34,113.412256 L11.28,82.8122561 L11.28,9.1322561 C11.28,1.3922561 13.38,-1.4277439 17.52,0.672256098 C21.66,2.7722561 40.44,13.6322561 73.5,33.0722561 L73.14,32.8922561 Z" id="路径_2_" fill="url(#linearGradient-4)"></path>
                            <polygon id="路径-52" fill="#F6F9FE" points="61.44 113.712256 62.34 113.412256 5.1 79.1522561 3.6 79.1522561"></polygon>
                            <path d="M42,89.0522561 L42,64.7522561 C42,64.2722561 42.3,64.0322561 42.66,64.2122561 C42.66,64.2122561 42.72,64.2122561 42.72,64.2122561 L60.78,75.1922561 L60.78,100.392256 C60.78,100.872256 60.48,101.112256 60.12,100.932256 C60.12,100.932256 60.06,100.932256 60.06,100.872256 L42.54,90.0722561 C42.18,89.8922561 42,89.4722561 42,89.0522561 Z" id="路径-54" fill="#E8EEF5"></path>
                            <path d="M60.42,100.992256 C60.48,100.932256 60.54,100.872256 60.6,100.812256 C60.66,100.752256 60.66,100.632256 60.66,100.512256 L60.66,75.9722561 C60.66,75.7922561 60.6,75.6722561 60.6,75.6122561 C60.6,75.5522561 60.54,75.4322561 60.42,75.2522561 L63.72,75.0122561 L63.84,75.0122561 L63.84,75.2522561 L63.84,99.5522561 C63.84,99.8522561 63.72,100.032256 63.54,100.092256 L60.6,100.872256 L60.42,100.992256 Z" id="路径-55" fill="url(#linearGradient-5)"></path>
                            <path d="M42.48,64.1522561 L42.6,64.2122561 L60.12,74.8922561 C60.18,74.9522561 60.24,75.0122561 60.3,75.0122561 C60.36,75.0122561 60.42,75.1322561 60.48,75.2522561 L63.78,75.0122561 L63.9,75.0122561 L63.66,74.8322561 L47.4,64.8722561 C47.22,64.7522561 46.98,64.6922561 46.8,64.6322561 L42.66,64.1522561 L42.48,64.1522561 Z" id="路径-56" fill="#DAE5ED"></path>
                            <g transform="translate(19.680000, 49.272256)">
                                <path d="M0,24.9 L0,0.6 C0,0.12 0.3,-0.12 0.66,0.06 C0.66,0.06 0.72,0.06 0.72,0.06 L18.78,11.04 L18.78,36.24 C18.78,36.72 18.48,36.96 18.12,36.78 C18.12,36.78 18.06,36.78 18.06,36.72 L0.54,25.92 C0.24,25.74 0,25.26 0,24.9 Z" id="路径-54_1_" fill="#FF8885"></path>
                                <path d="M19.44,10.38 L3.18,0.48 C3,0.36 2.76,0.3 2.58,0.24 L0.72,0 L0.54,0 L0.66,0.06 L18.18,10.74 C18.24,10.8 18.3,10.86 18.36,10.86 C18.42,10.86 18.48,10.98 18.54,11.1 C18.6,11.22 18.66,11.34 18.72,11.46 C18.72,11.52 18.78,11.7 18.78,11.82 L18.78,36.36 C18.78,36.48 18.72,36.6 18.72,36.66 C18.72,36.72 18.6,36.78 18.54,36.84 L18.78,36.72 L19.68,35.7 C19.74,35.58 19.8,35.46 19.8,35.28 L19.8,10.8 L19.8,10.56 L19.44,10.38 Z" id="路径" fill="#F46E6E"></path>
                            </g>
                            <polygon id="路径-57" fill="url(#linearGradient-6)" points="18.66 17.2322561 18.66 22.9922561 59.52 47.1722561 59.52 41.5322561"></polygon>
                            <polygon id="路径-57备份" fill="url(#linearGradient-7)" points="18.66 27.8522561 18.66 30.3122561 49.32 48.4322561 49.32 46.0922561"></polygon>
                            <polygon id="路径-57备份-2" fill="url(#linearGradient-8)" points="18.66 35.7722561 18.66 38.2322561 42.36 52.2722561 42.36 49.8722561"></polygon>
                            <polygon id="路径" fill="#FFFFFF" points="91.74 95.4122561 84.84 85.9922561 90.84 82.0922561 88.2 78.4322561 82.14 82.3322561 75.18 72.8522561 72.12 74.8322561 79.02 84.3122561 72.9 88.2122561 75.6 91.8722561 81.72 87.9722561 88.68 97.3922561"></polygon>
                        </g>
                        <g transform="translate(22.320000, 64.392256)" fill="#FFFFFF" id="路径">
                            <polygon points="1.5 9.54 0 8.58 0 2.04 1.5 2.94"></polygon>
                            <polygon points="4.14 11.28 2.7 10.32 2.7 0.42 4.14 1.32"></polygon>
                            <polygon points="6.84 12.96 5.4 12.06 5.4 0.72 6.84 1.68"></polygon>
                            <polygon points="9.54 14.7 8.1 13.74 8.1 1.5 9.54 2.46"></polygon>
                            <polygon points="12.24 16.44 10.74 15.48 10.74 -1.70530257e-14 12.24 0.96"></polygon>
                        </g>
                    </g>
                </g>
            </g>
        </g>
    </g>
</svg>