<?xml version="1.0" encoding="UTF-8"?>
<svg width="150px" height="150px" viewBox="0 0 150 150" version="1.1" xmlns="http://www.w3.org/2000/svg" xmlns:xlink="http://www.w3.org/1999/xlink">
    <title>Acorn</title>
    <defs>
        <path d="M10,0 L150,0 L150,0 L150,150 L10,150 C4.4771525,150 6.76353751e-16,145.522847 0,140 L0,10 C-6.76353751e-16,4.4771525 4.4771525,1.01453063e-15 10,0 Z" id="path-1"></path>
        <radialGradient cx="50%" cy="50%" fx="50%" fy="50%" r="126.108657%" gradientTransform="translate(0.500000,0.500000),scale(0.598930,1.000000),rotate(90.000000),translate(-0.500000,-0.500000)" id="radialGradient-3">
            <stop stop-color="#FFFFFF" stop-opacity="0.1" offset="0%"></stop>
            <stop stop-color="#FFFFFF" stop-opacity="0.5" offset="100%"></stop>
        </radialGradient>
        <radialGradient cx="60.0160637%" cy="50%" fx="60.0160637%" fy="50%" r="87.4098994%" gradientTransform="translate(0.600161,0.500000),scale(0.661871,1.000000),rotate(92.996090),translate(-0.600161,-0.500000)" id="radialGradient-4">
            <stop stop-color="#FFFFFF" stop-opacity="0.1" offset="0%"></stop>
            <stop stop-color="#FFFFFF" offset="100%"></stop>
        </radialGradient>
        <rect id="path-5" x="0" y="0" width="148.928571" height="98.5714286"></rect>
    </defs>
    <g id="页面规范" stroke="none" stroke-width="1" fill="none" fill-rule="evenodd">
        <g id="cute首页-标准化流程hover" transform="translate(-370.000000, -2305.000000)">
            <g id="Acorn" transform="translate(370.000000, 2305.000000)">
                <mask id="mask-2" fill="white">
                    <use xlink:href="#path-1"></use>
                </mask>
                <use id="矩形" fill="#ECF3FE" xlink:href="#path-1"></use>
                <g id="编组-18" mask="url(#mask-2)">
                    <g transform="translate(-73.306001, -140.392844)">
                        <polygon id="矩形备份-7" fill="#FFE7BD" transform="translate(170.374866, 180.000000) rotate(-330.000000) translate(-170.374866, -180.000000) " points="60.1913645 35.7683775 280.558368 35.7683775 280.558368 324.231622 60.1913645 324.231622"></polygon>
                        <polygon id="矩形" fill="#F7C17F" transform="translate(100.536517, 227.098098) rotate(-330.000000) translate(-100.536517, -227.098098) " points="26.7655885 153.800061 174.307445 153.800061 174.307445 300.396136 26.7655885 300.396136"></polygon>
                        <polygon id="矩形备份-8" fill="#F9965D" transform="translate(266.876383, 154.272951) rotate(-330.000000) translate(-266.876383, -154.272951) " points="206.34639 80.9749136 327.406375 80.9749136 327.406375 227.570989 206.34639 227.570989"></polygon>
                        <polygon id="矩形备份-8" fill="#FFBC95" transform="translate(220.416713, 177.471555) rotate(-330.000000) translate(-220.416713, -177.471555) " points="199.609528 160.447494 241.223898 160.447494 241.223898 194.495615 199.609528 194.495615"></polygon>
                        <path d="M53.7110211,182.339968 L129.746946,182.339968 C137.478932,182.339968 143.746946,188.607982 143.746946,196.339968 L143.746946,283.725266 C143.746946,291.457253 137.478932,297.725266 129.746946,297.725266 L53.7110211,297.725266 C45.9790346,297.725266 39.7110211,291.457253 39.7110211,283.725266 L39.7110211,196.339968 C39.7110211,188.607982 45.9790346,182.339968 53.7110211,182.339968 Z" id="矩形" fill="#EBAE63" transform="translate(91.728983, 240.032617) rotate(-330.000000) translate(-91.728983, -240.032617) "></path>
                    </g>
                </g>
                <g id="编组-42" mask="url(#mask-2)">
                    <g transform="translate(7.499881, 16.071429)">
                        <path d="M170.907712,0.5 C174.911776,0.5 178.536776,2.12296778 181.16076,4.74695167 C183.784744,7.37093556 185.407712,10.9959356 185.407712,14.9999965 L185.407712,14.9999965 L185.406996,116.21399 L199.857262,116.214276 L199.857262,119.5 L16.1545086,119.5 C12.715024,119.5 9.29027035,119.050766 5.9671452,118.163695 L5.9671452,118.163695 L0.739,116.768 L18.8989954,116.198543 L18.8999567,15 C18.8999567,10.9959356 20.5229245,7.37093556 23.1469084,4.74695167 C25.7708923,2.12296778 29.3958923,0.5 33.3999567,0.5 L33.3999567,0.5 Z" id="形状结合" stroke-opacity="0.15" stroke="#FFFFFF" fill="url(#radialGradient-3)"></path>
                        <g id="编组-19" stroke="none" fill="none" transform="translate(27.857262, 9.642857)">
                            <mask id="mask-6" fill="white">
                                <use xlink:href="#path-5"></use>
                            </mask>
                            <use id="矩形" fill="url(#radialGradient-4)" xlink:href="#path-5"></use>
                            <g id="brand" mask="url(#mask-6)">
                                <g transform="translate(23.017819, 14.285714)">
                                    <ellipse id="椭圆形" fill="#44271C" fill-rule="nonzero" opacity="0.1" cx="43.7999514" cy="35.0313709" rx="18.9385509" ry="5.33297106"></ellipse>
                                    <path d="M51.1013525,11.8871436 L49.210966,9.99675715 L52.3760626,5.56562185 C53.1911834,4.42965566 54.8300965,4.29091169 55.8099757,5.27946243 L55.8099757,5.27946243 C56.7985264,6.26801316 56.6597825,7.90692622 55.5238163,8.7133755 L51.1013525,11.8871436 Z" id="路径" fill="#44271C" fill-rule="nonzero"></path>
                                    <path d="M56.2869081,5.97318224 C56.2001931,6.64088756 55.8446617,7.26523539 55.2463283,7.69013877 L50.3902897,11.1760808 L51.1013525,11.8871436 L55.5238163,8.7133755 C56.425652,8.07168467 56.6944685,6.91837548 56.2869081,5.97318224 Z" id="路径" fill="#281611" fill-rule="nonzero"></path>
                                    <path d="M31.8592992,5.0019745 C31.8766422,5.41820639 32.1021011,5.79975229 32.4402895,6.04255422 L38.3282364,10.2482306 C40.7389128,11.9651871 43.0108452,13.8989311 45.1093476,15.988762 C47.20785,18.078593 49.1329225,20.3591968 50.849879,22.7698732 L55.0555554,28.6578201 C55.3157003,29.022023 55.7319322,29.2301389 56.1741786,29.2388104 C57.5789612,29.2734964 59.0010868,28.6925061 59.9983091,27.4958394 C61.1516182,26.1083998 61.3857487,24.1573128 60.7007004,22.4837138 C56.5730675,12.416105 48.5606037,4.43832715 38.4756519,0.354051759 L38.4756519,0.354051759 C36.6806519,-0.374354044 34.6341784,0.041877843 33.2640818,1.41197447 C32.2755311,2.4005252 31.8072702,3.70992135 31.8592992,5.0019745 Z" id="路径" fill="#7A3818" fill-rule="nonzero"></path>
                                    <path d="M53.4253138,28.6751631 L49.7572703,23.5416365 C46.3927292,18.8243418 42.2650964,14.7053804 37.5478016,11.3321678 L32.414275,7.67279578 C31.8592992,7.27390689 31.1048789,7.34327887 30.6279465,7.82021124 L27.1853619,11.2627958 C21.4621735,16.9859843 19.7972459,25.6314674 22.9883571,33.0802839 L22.9883571,33.0802839 C23.231159,33.6439313 23.2571735,34.2769506 23.0577291,34.8579409 C22.4073667,36.8176994 24.2717387,38.6820714 26.2314972,38.0317091 L26.2314972,38.0317091 C26.8124875,37.8409361 27.4455069,37.8669506 28.0091542,38.1097525 L28.0091542,38.1097525 C35.4579707,41.3008637 44.1034539,39.6359361 49.8353138,33.9040762 L53.2692269,30.4701631 C53.7548307,29.9845592 53.8155312,29.2301389 53.4253138,28.6751631 Z M28.685531,14.9308393 C29.7261107,13.8902596 31.4170528,13.8902596 32.4576325,14.9308393 C33.4982122,15.971419 33.4982122,17.6623611 32.4576325,18.7029408 C31.4170528,19.7435205 29.7261107,19.7435205 28.685531,18.7029408 C27.6449513,17.6623611 27.6449513,15.971419 28.685531,14.9308393 Z M26.5436711,26.2211293 C25.5030914,25.1805495 25.5030914,23.4896075 26.5436711,22.4490278 C27.5842508,21.4084481 29.2751929,21.4084481 30.3157726,22.4490278 C31.3563523,23.4896075 31.3563523,25.1805495 30.3157726,26.2211293 C29.2751929,27.261709 27.5929223,27.261709 26.5436711,26.2211293 Z" id="形状" fill="#F7C17F" fill-rule="nonzero"></path>
                                    <path d="M53.4253138,28.6751631 L49.7746133,23.5589795 L47.9449273,26.8888346 C44.0340819,33.9907912 36.195048,37.9970231 28.1565697,37.0084723 C27.5495648,36.9304289 26.9338885,37.0865158 26.4309416,37.4247042 C25.6071494,37.9883516 24.6446131,37.9883516 23.8728498,37.5981342 C24.4971977,38.1097525 25.3556759,38.32654 26.2401687,38.0317091 C26.821159,37.8409361 27.4541784,37.8669506 28.0178257,38.1097525 C35.4666422,41.3008637 44.1121254,39.6359361 49.8439853,33.9040762 L53.2778984,30.4701631 C53.7548307,29.9845592 53.8155312,29.2301389 53.4253138,28.6751631 Z" id="路径" fill="#DBA972" fill-rule="nonzero"></path>
                                    <path d="M60.7007004,22.4837138 C59.8682366,20.4459118 58.8710144,18.4948249 57.7263767,16.6391244 C57.8391061,18.2953804 57.2928018,19.960308 56.1221496,21.1656461 C54.7954105,22.5357428 53.0090819,23.1167331 51.3007969,22.9433031 C51.1707244,22.9346317 51.040652,22.8999457 50.9105795,22.8652597 L55.0468839,28.6578201 C55.3070288,29.022023 55.7232607,29.2301389 56.1655071,29.2388104 C57.5702897,29.2734964 58.9924153,28.6925061 59.9896376,27.4958394 C61.1516182,26.1083998 61.3857487,24.1573128 60.7007004,22.4837138 Z" id="路径" fill="#5E2813" fill-rule="nonzero"></path>
                                    <g id="编组" stroke-width="1" fill="none" fill-rule="evenodd" transform="translate(0.000000, 44.457289)">
                                        <path d="M18.3577773,22.216377 C18.3404343,22.3898069 18.2970768,22.7973673 18.2450479,23.4477297 C18.2277049,23.7945896 18.1496614,24.046063 18.0195889,24.2194929 C17.9242024,24.2801934 17.759444,24.3062079 17.533985,24.3062079 C16.9009657,24.3062079 16.1205309,24.1414495 15.1926807,23.8206041 C14.1781155,23.5171016 13.4930671,23.1528987 13.1375357,22.7366668 C12.9814488,22.5632369 12.8340333,21.9909181 12.6779464,21.0197103 C12.4698304,19.7450002 12.2270285,18.6870774 11.9668836,17.8459422 C11.2384777,17.9413286 10.180555,18.2014736 8.79311541,18.6350485 C7.40567578,19.0599518 6.49516853,19.4241547 6.07893664,19.7103142 C5.79277722,20.5341064 5.41123132,21.5400002 4.93429895,22.7453383 C4.87359847,23.0141548 4.81289799,23.2656282 4.7521975,23.4997586 C4.68282552,23.7338891 4.51806707,23.9333335 4.24925064,24.0894205 C4.18855015,24.1241065 4.11050668,24.150121 3.98910571,24.150121 C3.52951633,24.150121 2.76642454,23.907319 1.69115883,23.4390582 C0.615893121,22.9621258 0.0522457734,22.6499519 0.0175597828,22.4938649 C-0.0604836961,22.2250485 0.121617755,21.5660147 0.563864135,20.5167635 C1.17086897,18.9905799 1.52640037,18.0540581 1.62178685,17.7158697 C1.22289796,17.3169808 1.02345351,16.9180919 1.02345351,16.519203 C1.02345351,16.4238166 1.03212501,16.3197586 1.049468,16.2070291 C1.08415399,15.9815702 1.66514434,15.5653383 2.79243903,14.9756764 L6.47782554,2.36731886 C6.53852602,2.14185992 6.54719752,1.71695654 6.50384003,1.1099517 C6.46915404,0.598333338 6.52118302,0.268816427 6.67726998,0.138743962 C6.77265646,0.0433574883 6.99811539,-2.46458787e-15 7.3623183,-2.46458787e-15 C8.25548255,-2.46458787e-15 9.53886421,0.225458939 11.1951203,0.685048315 C12.8513763,1.14463769 13.8485985,1.55219808 14.169444,1.91640098 C14.2821734,4.03224641 14.7157483,7.20601455 15.4528256,11.4377054 C16.3980189,16.6319325 17.3692266,20.230604 18.3577773,22.216377 Z M10.9002893,13.5188648 C10.6488159,12.3221982 10.5014004,11.5244204 10.4407,11.1428745 C10.232584,9.86816433 10.0851686,8.54142519 10.0157966,7.17132856 C9.63425068,8.10785031 9.1833328,9.39990346 8.67171444,11.0561595 C8.11673859,12.790459 7.82190767,13.8743962 7.78722168,14.3166426 C8.14275308,14.1692272 9.1833328,13.9004107 10.9002893,13.5188648 Z" id="形状" fill="#44271C" fill-rule="nonzero"></path>
                                        <path d="M31.9460141,18.0107006 C31.9460141,18.3749035 31.6338402,18.8605074 31.0008209,19.4675122 C30.4892025,20.5948069 30.0296132,21.4012562 29.6307243,21.8955316 C28.754903,23.0401693 27.6796373,23.7165461 26.3962556,23.924662 C26.1274392,23.959348 25.8759658,23.9853625 25.6244924,23.9853625 C24.5578981,23.9853625 23.2398305,23.4737442 21.6789609,22.4418359 C20.3262073,21.5226572 19.6498305,19.4241547 19.6498305,16.1203141 C19.6498305,13.6836233 20.0227049,11.4723914 20.7684537,9.48661843 C21.5835744,7.33608702 22.5894682,6.21746382 23.7687919,6.13942034 C24.7053136,6.07871986 25.8499513,6.33019329 27.2027049,6.88516914 C28.5554586,7.44014499 29.4746373,8.04714982 29.9515697,8.71485514 C30.3504586,9.26983099 30.549903,9.9982368 30.549903,10.9174155 C30.549903,11.168889 30.53256,11.5244204 30.4892025,11.9926813 C30.4545165,12.4609421 30.4371736,12.790459 30.463188,12.981232 C30.497874,13.4928504 30.5238885,13.7356523 30.5238885,13.6922948 C30.5238885,14.2992996 30.2290576,14.5941306 29.6393958,14.5767876 C28.9543475,14.5594446 28.3039851,14.4553866 27.6969803,14.2646136 C26.873188,13.9784542 26.3789127,13.5882368 26.2141542,13.0939615 C26.1534537,12.9205315 26.2401687,12.6950726 26.4569561,12.4089131 C26.6737436,12.1227537 26.76913,11.8886233 26.7257726,11.6978503 C26.7604585,11.5677779 26.786473,11.2295895 26.786473,10.7006281 C26.786473,9.55599042 26.5870286,8.96632857 26.1881397,8.93164258 C25.5811349,8.89695659 25.060845,9.81613534 24.6446131,11.7065218 C24.2630672,13.3801209 24.0722943,15.2184784 24.0722943,17.1955798 C24.0722943,19.5368842 24.3497822,20.7769084 24.9047581,20.9156523 C25.3470044,21.0110388 25.9106518,20.5341064 26.6217146,19.4848552 C27.2113764,18.591691 27.5322218,17.9846861 27.5755793,17.6725122 C27.6189368,17.3603383 27.6622943,17.0394929 27.7056518,16.7186475 C27.8357243,16.1810146 28.1825842,15.9382127 28.73756,15.9728987 C29.0844199,16.0075847 29.6827533,16.2330436 30.5412315,16.6319325 C31.3997098,17.0308214 31.8506277,17.3343238 31.9026567,17.5337683 C31.9199997,17.7158697 31.9460141,17.8806282 31.9460141,18.0107006 Z" id="路径" fill="#44271C" fill-rule="nonzero"></path>
                                        <path d="M43.8346374,7.20601455 C44.8838886,7.70028992 45.6903379,8.70618364 46.2626568,10.2063527 C46.7742751,11.5764494 47.0344201,13.1980194 47.0344201,15.0710629 C47.0344201,17.6464977 46.5921737,19.8750726 45.7163524,21.7654591 C44.7451447,23.7859181 43.531135,24.7050968 42.0829949,24.5143239 C41.545362,24.3842514 40.7475843,24.2194929 39.6809901,24.02872 C38.9005553,23.9333335 38.198164,23.7859181 37.5651446,23.6038166 C36.4812074,23.3176572 35.6140577,22.3898069 34.9636953,20.8289374 C34.3740335,19.3807973 34.0792026,17.6811837 34.0792026,15.7387682 C34.0792026,13.7790098 34.382705,11.9926813 34.9983813,10.3884542 C35.6834296,8.63681166 36.6459659,7.405459 37.88599,6.70306769 C38.094106,6.59033822 38.3802654,6.52963773 38.7444683,6.52963773 C39.1260142,6.52963773 39.8804345,6.6510387 41.0077292,6.90251213 C41.7274635,6.88516914 42.6726567,6.99789861 43.8346374,7.20601455 Z M40.6348548,9.77277786 C40.1232364,9.77277786 39.6463041,10.3971257 39.2040577,11.6458213 C38.7618113,12.894517 38.5450239,14.0911837 38.5450239,15.2358214 C38.5450239,16.605918 38.7097823,17.9586716 39.0306277,19.2940823 C39.3948306,20.7422224 39.8110625,21.5226572 40.2879949,21.6353866 C40.8949997,21.7654591 41.4413041,21.0804108 41.9182364,19.5802417 C42.3778258,18.1321016 42.6032848,16.5278745 42.6032848,14.776232 C42.6032848,13.8050243 42.4818838,12.842488 42.2304104,11.8886233 C41.892222,10.4838407 41.3632606,9.77277786 40.6348548,9.77277786 Z" id="形状" fill="#44271C" fill-rule="nonzero"></path>
                                        <path d="M60.0763525,8.43736722 C60.154396,8.74086964 60.050338,8.99234307 59.7641786,9.18311602 C59.5387197,9.29584549 59.3132607,9.42591795 59.1051448,9.55599042 C57.9084781,11.3856764 56.2782366,13.8570533 54.2144201,16.9614494 C54.2144201,19.9964736 54.2230916,21.5573432 54.2404346,21.6527296 C54.2577776,21.7481161 54.3271496,21.9909181 54.4572221,22.3811354 C54.578623,22.7713528 54.6393235,23.0835268 54.6393235,23.3089857 C54.6393235,23.6731886 54.4745651,23.9159905 54.1537196,24.0547345 C53.9456037,24.150121 53.6594443,24.1934785 53.2952414,24.1934785 C52.5668356,24.1934785 51.7690578,24.02872 50.8932365,23.7078746 C49.7832848,23.3263287 49.2369805,22.8407248 49.2369805,22.251063 C49.2369805,22.077633 49.3150239,21.8001451 49.4624394,21.4185992 C49.6185264,21.0370533 49.6878983,20.7248794 49.6878983,20.473406 L49.6878983,9.14843003 C49.4797824,8.08183581 49.3757244,7.52685996 49.3757244,7.49217397 C49.3757244,6.90251213 49.6445409,6.52963773 50.1735022,6.37355078 C50.3989612,6.31285029 50.6764491,6.2868358 51.005966,6.2868358 C51.6736713,6.2868358 52.3760626,6.39956527 53.1044684,6.61635271 C53.8415457,6.83314015 54.2751206,7.06727059 54.4051931,7.31874402 C54.4398791,7.3967875 54.4658936,7.49217397 54.4658936,7.60490344 C54.4658936,7.70028992 54.3358211,8.15987929 54.0670047,8.97500007 L54.0670047,10.3450967 C54.526594,9.52997592 54.9688404,8.70618364 55.4110868,7.88239137 C56.0007486,6.85048315 56.442995,6.31285029 56.7291544,6.25214981 C57.1453863,6.17410633 57.7870772,6.42557976 58.6455554,6.99789861 C59.5040337,7.57021745 59.9809661,8.05582132 60.0763525,8.43736722 Z" id="路径" fill="#7A3818" fill-rule="nonzero"></path>
                                        <path d="M74.7745411,21.7567876 C74.930628,22.1209905 75,22.4851934 75,22.8407248 C75,23.4130437 74.7832126,23.8032611 74.3409662,24.011377 C74.2108937,24.0720775 73.9680918,24.098092 73.6299034,24.098092 C72.979541,24.098092 72.2077778,23.994034 71.3146135,23.7945896 C70.4214492,23.5951451 69.8751449,23.3957007 69.6843719,23.2049277 C69.5889855,23.0921983 69.545628,22.9707973 69.545628,22.8320533 C69.545628,22.6239374 69.6843719,22.285749 69.9705314,21.8174881 C70.2566908,21.3492272 70.3954347,21.0110388 70.3954347,20.8029229 C70.4301207,13.2934059 70.3780918,9.50396143 70.2220048,9.45193244 C69.9531884,9.35654597 69.2941545,10.2150242 68.2449033,12.0273672 C67.1349516,13.9350967 66.5886473,15.3745653 66.5886473,16.3457731 L66.5886473,21.6960871 C66.8401207,21.9475606 66.9615217,22.251063 66.9615217,22.6152659 C66.9615217,23.3436717 66.6406763,23.8379471 65.9903139,24.098092 C65.9122705,24.132778 65.799541,24.1587925 65.643454,24.1587925 C65.1318357,24.1587925 64.3774154,24.0373915 63.3801931,23.8032611 C62.3916424,23.5604591 61.8366666,23.3696862 61.7239371,23.2135992 C61.6112076,23.0575123 61.5505071,22.8927538 61.5505071,22.7019809 C61.5505071,22.5112079 61.6632366,22.285749 61.880024,22.0169325 C62.0968115,21.7481161 62.209541,21.5746862 62.209541,21.5053142 L62.209541,8.20323678 C62.209541,8.04714982 62.1314975,7.84770538 61.984082,7.60490344 C61.8279951,7.35343001 61.7846376,7.14531407 61.8453381,6.97188411 C61.9580675,6.57299522 62.2528984,6.31285029 62.7298308,6.20012082 C63.0333332,6.12207734 63.7530675,6.22613532 64.8716907,6.51229474 C66.0943719,6.81579716 66.7620772,7.12797107 66.8748067,7.45748798 C66.9528502,7.66560393 66.9181642,7.97777784 66.7880917,8.40268123 C66.5799758,9.07038655 66.4759178,9.45193244 66.4759178,9.54731892 C66.4759178,9.75543486 66.5106038,9.9895653 66.5886473,10.2323672 C66.8748067,9.27850249 67.2736956,8.42869572 67.7939854,7.69161842 C68.4270048,6.79845416 69.0513526,6.34753628 69.6843719,6.34753628 C70.3347343,6.34753628 71.167198,6.57299522 72.1991063,7.0152416 C73.2310145,7.46615948 73.8206763,7.86504837 73.9680918,8.22925127 C74.5057246,9.45193244 74.7745411,13.9611112 74.7745411,21.7567876 Z" id="路径" fill="#44271C" fill-rule="nonzero"></path>
                                    </g>
                                </g>
                            </g>
                        </g>
                    </g>
                </g>
            </g>
        </g>
    </g>
</svg>