<?xml version="1.0" encoding="UTF-8"?>
<svg width="150px" height="150px" viewBox="0 0 150 150" version="1.1" xmlns="http://www.w3.org/2000/svg" xmlns:xlink="http://www.w3.org/1999/xlink">
    <title>编组 21</title>
    <defs>
        <path d="M10,0 L150,0 L150,0 L150,150 L10,150 C4.4771525,150 6.76353751e-16,145.522847 0,140 L0,10 C-6.76353751e-16,4.4771525 4.4771525,1.01453063e-15 10,0 Z" id="path-1"></path>
        <radialGradient cx="50%" cy="50%" fx="50%" fy="50%" r="126.108657%" gradientTransform="translate(0.500000,0.500000),scale(0.598930,1.000000),rotate(90.000000),translate(-0.500000,-0.500000)" id="radialGradient-3">
            <stop stop-color="#FFFFFF" stop-opacity="0.1" offset="0%"></stop>
            <stop stop-color="#FFFFFF" stop-opacity="0.5" offset="100%"></stop>
        </radialGradient>
        <radialGradient cx="60.0160637%" cy="50%" fx="60.0160637%" fy="50%" r="87.4098994%" gradientTransform="translate(0.600161,0.500000),scale(0.661871,1.000000),rotate(92.996090),translate(-0.600161,-0.500000)" id="radialGradient-4">
            <stop stop-color="#FFFFFF" stop-opacity="0.1" offset="0%"></stop>
            <stop stop-color="#FFFFFF" offset="100%"></stop>
        </radialGradient>
        <rect id="path-5" x="0" y="0" width="148.928571" height="98.5714286"></rect>
    </defs>
    <g id="页面规范" stroke="none" stroke-width="1" fill="none" fill-rule="evenodd">
        <g id="cute首页" transform="translate(-975.000000, -2305.000000)">
            <g id="编组-21" transform="translate(975.000000, 2305.000000)">
                <g id="编组-17备份-2">
                    <mask id="mask-2" fill="white">
                        <use xlink:href="#path-1"></use>
                    </mask>
                    <use id="矩形" fill="#ECF3FE" xlink:href="#path-1"></use>
                    <g id="编组-18" mask="url(#mask-2)">
                        <g transform="translate(-73.306001, -140.392844)">
                            <polygon id="矩形备份-7" fill="#D6EEFF" transform="translate(170.374866, 180.000000) rotate(-330.000000) translate(-170.374866, -180.000000) " points="60.1913645 35.7683775 280.558368 35.7683775 280.558368 324.231622 60.1913645 324.231622"></polygon>
                            <polygon id="矩形" fill="#99D6FF" transform="translate(100.536517, 227.098098) rotate(-330.000000) translate(-100.536517, -227.098098) " points="26.7655885 153.800061 174.307445 153.800061 174.307445 300.396136 26.7655885 300.396136"></polygon>
                            <polygon id="矩形备份-8" fill="#61EED1" transform="translate(266.876383, 154.272951) rotate(-330.000000) translate(-266.876383, -154.272951) " points="206.34639 80.9749136 327.406375 80.9749136 327.406375 227.570989 206.34639 227.570989"></polygon>
                            <polygon id="矩形备份-8" fill="#92F9FC" transform="translate(220.416713, 177.471555) rotate(-330.000000) translate(-220.416713, -177.471555) " points="199.609528 160.447494 241.223898 160.447494 241.223898 194.495615 199.609528 194.495615"></polygon>
                            <path d="M53.7110211,182.339968 L129.746946,182.339968 C137.478932,182.339968 143.746946,188.607982 143.746946,196.339968 L143.746946,283.725266 C143.746946,291.457253 137.478932,297.725266 129.746946,297.725266 L53.7110211,297.725266 C45.9790346,297.725266 39.7110211,291.457253 39.7110211,283.725266 L39.7110211,196.339968 C39.7110211,188.607982 45.9790346,182.339968 53.7110211,182.339968 Z" id="矩形" fill="#7BC5FD" transform="translate(91.728983, 240.032617) rotate(-330.000000) translate(-91.728983, -240.032617) "></path>
                        </g>
                    </g>
                    <g id="编组-42" mask="url(#mask-2)">
                        <g transform="translate(7.499881, 16.071429)">
                            <path d="M170.907712,0.5 C174.911776,0.5 178.536776,2.12296778 181.16076,4.74695167 C183.784744,7.37093556 185.407712,10.9959356 185.407712,14.9999965 L185.407712,14.9999965 L185.406996,116.21399 L199.857262,116.214276 L199.857262,119.5 L16.1545086,119.5 C12.715024,119.5 9.29027035,119.050766 5.9671452,118.163695 L5.9671452,118.163695 L0.739,116.768 L18.8989954,116.198543 L18.8999567,15 C18.8999567,10.9959356 20.5229245,7.37093556 23.1469084,4.74695167 C25.7708923,2.12296778 29.3958923,0.5 33.3999567,0.5 L33.3999567,0.5 Z" id="形状结合" stroke-opacity="0.15" stroke="#FFFFFF" stroke-width="1" fill="url(#radialGradient-3)"></path>
                            <g id="编组-19" stroke="none" stroke-width="1" fill="none" transform="translate(28.000000, 10.000000)">
                                <mask id="mask-6" fill="white">
                                    <use xlink:href="#path-5"></use>
                                </mask>
                                <use id="矩形" fill="url(#radialGradient-4)" xlink:href="#path-5"></use>
                            </g>
                            <rect id="矩形备份-25" stroke="none" fill="#FFFFFF" opacity="0.55" x="55.4242424" y="10" width="40.71" height="45.9642857"></rect>
                            <rect id="矩形备份-22" stroke="none" fill="#FFFFFF" opacity="0.55" x="103.214242" y="63.0357143" width="39.8559441" height="45"></rect>
                            <path d="M142.448826,108.0625 C141.594057,107.922236 140.071674,107.625595 139.526298,107.50396 C133.032641,106.05569 128.131316,100.789947 127.226053,94.2891802 L135.161991,94.2891802 C135.398893,94.2916837 135.613605,94.1521599 135.704608,93.9365779 C135.795611,93.7209959 135.744671,93.4725491 135.575875,93.3087068 L120.292549,78.2722854 C120.006771,77.9925715 119.545515,77.9925715 119.259738,78.2722854 L104.025774,93.3087068 C103.856977,93.4725491 103.806038,93.7209959 103.897041,93.9365779 C103.988044,94.1521599 104.202756,94.2916837 104.439658,94.2891802 L111.935132,94.2891802 C112.005027,97.8682236 112.76129,101.401929 114.16403,104.703904 C114.666677,105.894113 115.241973,106.970933 115.883192,108.0625 L142.448826,108.0625 Z" id="路径" stroke="none" fill="#FFFFFF"></path>
                            <polygon id="矩形备份-26" stroke="none" fill="#FFFFFF" opacity="0.55" points="103.214242 10 143.924242 55.9642857 103.214242 55.9642857"></polygon>
                            <rect id="矩形备份-27" stroke="none" fill="#FFFFFF" opacity="0.55" x="55.4242424" y="63.0357143" width="40.71" height="45.0803571"></rect>
                        </g>
                    </g>
                </g>
                <g id="编组-52备份-3" transform="translate(50.000000, 65.000000)">
                    <g id="编组-43">
                        <rect id="矩形备份-25" fill="#4895F7" x="0" y="0" width="8.21428571" height="9.28571429"></rect>
                        <rect id="形状结合备份-2" fill="#49E1A0" x="9.64285714" y="10.7142857" width="8.21428571" height="9.28571429"></rect>
                        <path d="M17.8028087,20 C17.6249474,19.9707783 17.3081683,19.908978 17.1946859,19.8836375 C15.8434785,19.5819145 14.8236054,18.4848847 14.6352371,17.1305584 L16.286556,17.1305584 C16.3358509,17.1310799 16.3805284,17.1020125 16.3994644,17.0570996 C16.4184003,17.0121866 16.4078008,16.9604269 16.3726774,16.9262931 L13.1925059,13.7937053 C13.133041,13.7354316 13.0370623,13.7354316 12.9775974,13.7937053 L9.80769727,16.9262931 C9.77257385,16.9604269 9.76197433,17.0121866 9.78091031,17.0570996 C9.79984629,17.1020125 9.84452381,17.1310799 9.89381869,17.1305584 L11.4534854,17.1305584 C11.4680292,17.8761924 11.6253932,18.6123811 11.9172769,19.3002925 C12.0218681,19.5482527 12.1415765,19.7725903 12.2750021,20 L17.8028087,20 Z" id="路径" fill="#FA8334"></path>
                        <polygon id="矩形备份-26" fill="#65EBEE" points="9.64285714 0 17.8571429 9.28571429 9.64285714 9.28571429"></polygon>
                        <rect id="矩形备份-27" fill="#3A68FE" x="0" y="10.7142857" width="8.21428571" height="9.10714286"></rect>
                    </g>
                    <path d="M31.7685976,8.2703451 L31.7685976,4.3596986 L37.707692,4.3596986 L37.707692,3.00403471 L23.4691987,3.00403471 L23.4691987,4.3596986 L29.4072709,4.3596986 L29.4072709,8.28144057 L23,8.28144057 L23,9.63710446 L29.235538,9.63710446 C28.8215392,11.5969668 27.4507431,14.3425896 23,15.542917 L23,16.9449801 C27.3577211,16.2953912 29.5166484,14.0107344 30.5879342,11.8844401 C31.6602423,14.0107344 33.8191696,16.2953912 38.1768907,16.9449801 L38.1768907,15.542917 C33.7210366,14.3425896 32.3502404,11.5969668 31.9413527,9.63710446 L38.1768907,9.63710446 L38.1768907,8.28144057 L31.7696198,8.28144057 C31.7696198,8.28144057 31.7685976,8.27437982 31.7685976,8.2703451 Z M51.4575645,14.7954862 L54.5313781,14.7954862 L54.5313781,13.8876756 L51.3624981,13.8876756 L51.3624981,13.1220886 L54.5313781,13.1220886 L54.5313781,12.214278 L51.3624981,12.214278 L51.3624981,11.4386042 L53.8015135,11.4386042 C54.113713,11.4386042 54.3668008,11.188869 54.3668008,10.880805 L54.3668008,8.15737311 C54.3670728,8.00935345 54.3076033,7.86731904 54.2015323,7.76265316 C54.0954613,7.65798728 53.9515202,7.59930551 53.8015135,7.599551 L40.4840398,7.599551 C40.3326996,7.59822139 40.1871301,7.65680846 40.07992,7.76221915 C39.97271,7.86762985 39.9128141,8.01105978 39.9136414,8.16039915 L39.9136414,10.8838311 C39.9142052,11.1920582 40.1675856,11.4416308 40.4799509,11.4416303 L42.9179441,11.4416303 L42.9179441,12.2062086 L39.7592863,12.2062086 L39.7592863,13.1140192 L42.9220329,13.1140192 L42.9220329,13.8796062 L39.7592863,13.8796062 L39.7592863,14.7874168 L42.8330999,14.7874168 C42.6511448,15.2645217 42.0378132,15.7597829 41.1709712,15.8969632 C40.6978213,15.9739931 40.219385,16.0151331 39.7398641,16.0200219 L39.7398641,16.9984401 C40.5912031,17.0087777 41.4415598,16.93784 42.279057,16.7866176 C43.5425201,16.5465521 44.469673,15.7779391 44.7824722,14.7864081 L49.5000145,14.7864081 C49.8128136,15.7809651 50.7409888,16.5465521 52.0044519,16.7866176 C52.8419491,16.93784 53.6923057,17.0087777 54.5436447,16.9984401 L54.5436447,16.0200219 C54.0641289,16.0150306 53.5857005,15.9738913 53.1125376,15.8969632 C52.2538734,15.7678523 51.6405418,15.2715825 51.4575645,14.7954862 Z M48.0188186,10.5792102 L48.0188186,9.86708315 L52.6280057,9.86708315 L52.6280057,10.5792102 L48.0188186,10.5792102 Z M52.6280057,9.17714707 L48.0188186,9.17714707 L48.0188186,8.46502005 L52.6280057,8.46502005 L52.6280057,9.17714707 Z M46.272868,8.46502005 L46.272868,9.17714707 L41.6636809,9.17714707 L41.6636809,8.46502005 L46.272868,8.46502005 Z M41.6636809,9.86708315 L46.272868,9.86708315 L46.272868,10.5792102 L41.6636809,10.5792102 L41.6636809,9.86708315 Z M44.903094,11.4386042 L49.3885926,11.4386042 L49.3885926,12.2031825 L44.903094,12.2031825 L44.903094,11.4386042 Z M44.903094,13.1150279 L49.3885926,13.1150279 L49.3885926,13.8806149 L44.903094,13.8806149 L44.903094,13.1150279 Z M45.4121593,6.924768 L45.5849143,6.924768 C46.2431868,6.924768 46.7768221,6.39820153 46.7768221,5.74864888 L46.7768221,4.17611912 C46.7768221,3.52656647 46.2431868,3 45.5849143,3 L39.7930195,3 L39.7930195,3.87452425 L44.6904724,3.87452425 C44.8780711,3.87452342 45.0303081,4.02429265 45.0308715,4.20940551 L45.0308715,4.6128769 L40.1088853,4.6128769 L40.1088853,5.30281299 L45.0308715,5.30281299 L45.0308715,5.70628439 C45.0308715,5.89179127 44.8784696,6.04217432 44.6904724,6.04217432 L39.7930195,6.04217432 L39.7930195,6.91568989 L45.4152259,6.91568989 L45.4121593,6.924768 Z M53.1340043,6.924768 L53.3047149,6.924768 C53.9625881,6.92421126 54.4956004,6.39780782 54.4956004,5.74864888 L54.4956004,4.17611912 C54.4933493,3.52853611 53.9609949,3.0045863 53.3047149,3.00403471 L47.5148645,3.00403471 L47.5148645,3.87855896 L52.4123174,3.87855896 C52.5999161,3.87855813 52.7521531,4.02832737 52.7527164,4.21344022 L52.7527164,4.61691162 L47.8307303,4.61691162 L47.8307303,5.3068477 L52.7527164,5.3068477 L52.7527164,5.7103191 C52.7527164,5.79940265 52.7168531,5.88483757 52.6530159,5.94782915 C52.5891787,6.01082073 52.5025968,6.04620904 52.4123174,6.04620904 L47.5148645,6.04620904 L47.5148645,6.91972461 L53.1370709,6.91972461 L53.1340043,6.924768 Z M84.8771032,3.08117036 L84.8770211,7.58069361 L86.8975374,7.58112729 C87.6153985,7.58156043 88.1972583,8.16354509 88.1975374,8.88140628 L88.1975374,8.88140628 L88.1975374,15.0726659 L88.1891755,15.2747375 C88.1724585,15.4730312 88.1306943,15.6600675 88.0640528,15.8365329 C87.974916,16.0725655 87.8529218,16.2770418 87.6977547,16.4516656 C87.5441615,16.6245181 87.3662651,16.7589402 87.1624156,16.8564397 L87.1624156,16.8564397 L87.0409302,16.9079614 C86.8765472,16.9690132 86.7024211,16.9994972 86.5169435,16.9994972 L86.5169435,16.9994972 L80.0163198,17 L80.0163198,15.738084 L85.6064795,15.7375428 L85.7222744,15.7296284 C85.9109549,15.7033308 86.0773714,15.6119161 86.2108919,15.4616531 C86.366107,15.2869754 86.4430512,15.0656837 86.4430512,14.811486 L86.4430512,14.811486 L86.4430512,12.8206188 L80.0163198,12.8206701 L80.0163198,11.5587541 L86.4430512,11.5586644 L86.4430512,8.84264804 L80.0163198,8.84332232 L80.0163198,7.58140632 L83.3367621,7.58069361 L83.3376978,3.08117036 L84.8771032,3.08117036 Z M81.5009824,3.56347334 L82.1805482,5.99008966 L80.7506284,5.99008966 L80.0559611,3.56347334 L81.5009824,3.56347334 Z M88.0512419,3.56347334 L87.3565746,5.99008966 L85.9266549,5.99008966 L86.6062207,3.56347334 L88.0512419,3.56347334 Z M78.1426064,6.65738556 L78.6373675,16.9972076 L77.6118134,16.9972076 L77.1161086,6.65738556 L78.1426064,6.65738556 Z M76.6656827,3 L76.6649923,4.31781453 L78.6468059,4.31819453 L78.6468059,5.70271381 L76.6649923,5.7023752 L76.6656827,16.991251 L75.1253335,16.991251 L75.1247333,5.7023752 L73.1432665,5.70271381 L73.1432665,4.31819453 L75.1247333,4.31781453 L75.1253335,3 L76.6656827,3 Z M74.6741799,6.65738556 L74.1417832,16.9888435 L73.1527049,16.9888435 L73.6860455,6.65738556 L74.6741799,6.65738556 Z M64.059301,3 L62.4801158,3 L62.4801158,3 L62.9916345,4.32358006 L56.0945559,4.32364355 L56.0945559,5.68767908 L68.0261104,5.68767908 L67.8126644,6.11093795 C67.2522763,7.25699824 66.6560017,8.26615884 66.0231454,9.13834705 C65.4946047,9.86676969 64.924003,10.5331984 64.3114036,11.1373539 L63.9388048,11.4923723 L63.6198191,11.7859359 L63.2970407,11.4967366 C62.0859989,10.4116812 61.0081817,9.02926655 60.0624109,7.35159457 L59.9705366,7.18330629 L57.8648867,7.18330629 L57.9732705,7.40320645 C58.8933275,9.20802241 60.0017917,10.7733828 61.2987531,12.1009979 L61.6269205,12.4279496 L62.0547787,12.8517655 L61.525835,13.2198401 C60.4104034,13.8871035 59.5177504,14.3514908 58.8478759,14.613002 C58.0665682,14.9180155 57.1984547,15.2387924 56.275771,15.4633721 L56.0945559,15.5067662 L56.0945559,17 L56.1075502,16.9979841 C57.2313923,16.799778 58.2883075,16.5324647 59.2784341,16.1962573 L59.7679324,16.0224135 C60.8955568,15.6039632 61.9517075,15.0918627 62.9368284,14.4860881 L63.3546756,14.2207352 L63.6128659,14.0514675 L64.2668308,14.4715623 C66.1044112,15.615112 68.2283326,16.4272025 70.6409377,16.9065257 L71.1375358,17 L71.1375358,15.5067662 L70.9552684,15.4633721 C70.2171214,15.2837083 69.4352636,15.0546281 68.4093893,14.613002 C67.383515,14.1713759 66.9121067,13.8906221 66.1246778,13.4456445 C66.0326576,13.4103612 65.8928331,13.3350931 65.7052043,13.2198401 C65.5175756,13.1045871 65.3351271,12.9818956 65.1578588,12.8517655 L65.6058887,12.4262422 C67.3506811,10.7514672 68.7534778,8.67839695 69.8145595,6.20302103 L70.0222197,5.68767908 L71.1375358,5.68767908 L71.1375358,4.32364355 L64.9134587,4.32358006 L64.5257102,3.31982678 C64.4512561,3.12708954 64.2659191,3 64.059301,3 Z" id="形状结合" fill="#333333" fill-rule="nonzero"></path>
                </g>
            </g>
        </g>
    </g>
</svg>