<?xml version="1.0" encoding="UTF-8"?>
<svg width="16px" height="16px" viewBox="0 0 16 16" version="1.1" xmlns="http://www.w3.org/2000/svg" xmlns:xlink="http://www.w3.org/1999/xlink">
    <title>api</title>
    <g id="api" stroke="none" stroke-width="1" fill="none" fill-rule="evenodd">
        <g fill-rule="nonzero">
            <rect id="矩形" opacity="0" x="0" y="0" width="16" height="16"></rect>
            <path d="M14.3390625,2.325 L13.6765625,1.6625 C13.6515625,1.6375 13.6203125,1.6265625 13.5875,1.6265625 C13.5546875,1.6265625 13.5234375,1.6390625 13.4984375,1.6625 L12.309375,2.8515625 C11.7828125,2.49375 11.1703125,2.315625 10.5578125,2.315625 C9.7578125,2.315625 8.9578125,2.6203125 8.346875,3.23125 L6.7546875,4.8234375 C6.70625,4.871875 6.70625,4.9515625 6.7546875,5 L11,9.2453125 C11.025,9.2703125 11.05625,9.28125 11.0890625,9.28125 C11.1203125,9.28125 11.153125,9.26875 11.178125,9.2453125 L12.7703125,7.653125 C13.846875,6.575 13.9734375,4.9078125 13.15,3.6921875 L14.3390625,2.503125 C14.3875,2.453125 14.3875,2.3734375 14.3390625,2.325 Z M12.0171875,6.9015625 L11.0890625,7.8296875 L8.1703125,4.9109375 L9.0984375,3.9828125 C9.4875,3.59375 10.00625,3.378125 10.5578125,3.378125 C11.109375,3.378125 11.6265625,3.5921875 12.0171875,3.9828125 C12.40625,4.371875 12.621875,4.890625 12.621875,5.4421875 C12.621875,5.99375 12.40625,6.5109375 12.0171875,6.9015625 L12.0171875,6.9015625 Z M9.0453125,8.5421875 C8.996875,8.49375 8.9171875,8.49375 8.86875,8.5421875 L7.828125,9.5828125 L6.4171875,8.171875 L7.459375,7.1296875 C7.5078125,7.08125 7.5078125,7.0015625 7.459375,6.953125 L6.890625,6.384375 C6.8421875,6.3359375 6.7625,6.3359375 6.7140625,6.384375 L5.671875,7.4265625 L5,6.7546875 C4.975,6.7296875 4.94375,6.71875 4.9109375,6.71875 C4.8796875,6.71875 4.846875,6.73125 4.821875,6.7546875 L3.23125,8.346875 C2.1546875,9.425 2.028125,11.0921875 2.8515625,12.3078125 L1.6625,13.496875 C1.6140625,13.5453125 1.6140625,13.625 1.6625,13.6734375 L2.325,14.3359375 C2.35,14.3609375 2.38125,14.371875 2.4140625,14.371875 C2.446875,14.371875 2.478125,14.359375 2.503125,14.3359375 L3.6921875,13.146875 C4.21875,13.5046875 4.83125,13.6828125 5.44375,13.6828125 C6.24375,13.6828125 7.04375,13.378125 7.6546875,12.7671875 L9.246875,11.175 C9.2953125,11.1265625 9.2953125,11.046875 9.246875,10.9984375 L8.575,10.3265625 L9.6171875,9.284375 C9.665625,9.2359375 9.665625,9.15625 9.6171875,9.1078125 L9.0453125,8.5421875 L9.0453125,8.5421875 Z M6.9015625,12.0171875 C6.5125,12.40625 5.99375,12.621875 5.4421875,12.621875 C4.890625,12.621875 4.3734375,12.4078125 3.9828125,12.0171875 C3.59375,11.628125 3.378125,11.109375 3.378125,10.5578125 C3.378125,10.00625 3.5921875,9.4890625 3.9828125,9.0984375 L4.9109375,8.1703125 L7.8296875,11.0890625 L6.9015625,12.0171875 L6.9015625,12.0171875 Z" id="形状" fill="#000000"></path>
        </g>
    </g>
</svg>