<?xml version="1.0" encoding="UTF-8"?>
<svg width="16px" height="16px" viewBox="0 0 16 16" version="1.1" xmlns="http://www.w3.org/2000/svg" xmlns:xlink="http://www.w3.org/1999/xlink">
    <title>arrow-right</title>
    <g id="arrow-right" stroke="none" stroke-width="1" fill="none" fill-rule="evenodd">
        <g fill-rule="nonzero">
            <rect id="矩形" opacity="0" x="0" y="0" width="16" height="16"></rect>
            <path d="M13.578125,7.621875 L7.675,2.4984375 C7.6296875,2.459375 7.571875,2.4375 7.5109375,2.4375 L6.128125,2.4375 C6.0125,2.4375 5.959375,2.58125 6.046875,2.65625 L11.51875,7.40625 L2.375,7.40625 C2.30625,7.40625 2.25,7.4625 2.25,7.53125 L2.25,8.46875 C2.25,8.5375 2.30625,8.59375 2.375,8.59375 L11.5171875,8.59375 L6.0453125,13.34375 C5.9578125,13.4203125 6.0109375,13.5625 6.1265625,13.5625 L7.55625,13.5625 C7.5859375,13.5625 7.615625,13.5515625 7.6375,13.53125 L13.578125,8.378125 C13.8078125,8.178125 13.8078125,7.821875 13.578125,7.621875 Z" id="路径" fill="#000000"></path>
        </g>
    </g>
</svg>