<?xml version="1.0" standalone="no"?><!DOCTYPE svg PUBLIC "-//W3C//DTD SVG 1.1//EN" "http://www.w3.org/Graphics/SVG/1.1/DTD/svg11.dtd"><svg class="icon" width="200px" height="200.00px" viewBox="0 0 1024 1024" version="1.1" xmlns="http://www.w3.org/2000/svg"><path fill="#000000" d="M910.464 327.04H122.624a53.184 53.184 0 0 1-53.76-53.888V117.824a53.248 53.248 0 0 1 53.76-53.76H910.464a53.184 53.184 0 0 1 53.824 53.76v155.328a53.248 53.248 0 0 1-53.76 53.824zM139.264 256.64H893.824V134.4H139.264V256.64zM817.472 226.048H435.84a30.592 30.592 0 1 1 0-61.12h382.848a30.592 30.592 0 1 1 0 61.12h-1.28zM644.352 711.04a56.896 56.896 0 0 1-17.728-3.008L413.824 638.272H122.624a53.76 53.76 0 0 1-53.76-53.76v-153.6a53.76 53.76 0 0 1 53.76-53.76H910.464a53.76 53.76 0 0 1 53.824 53.76v153.6a53.76 53.76 0 0 1-47.68 53.12l-257.472 71.04a61.184 61.184 0 0 1-14.72 2.368zM139.264 567.936h291.136l214.016 70.4 249.6-69.12V446.784H139.136v121.088zM817.472 541.056H435.84a30.592 30.592 0 0 1 0-61.184h382.208a30.592 30.592 0 1 1-0.64 61.184zM910.464 945.28H122.624a53.184 53.184 0 0 1-53.76-53.12v-155.392a53.184 53.184 0 0 1 53.76-53.248H428.544l214.08 68.48 268.48-69.696a53.184 53.184 0 0 1 53.76 53.248v155.968a53.248 53.248 0 0 1-54.4 53.76zM139.264 875.008H893.824v-116.224l-237.888 61.12a56.32 56.32 0 0 1-31.808 0L411.968 753.28H139.264v121.728zM190.592 156.992m38.528 0l17.152 0q38.528 0 38.528 38.528l0 0q0 38.528-38.528 38.528l-17.152 0q-38.528 0-38.528-38.528l0 0q0-38.528 38.528-38.528ZM190.592 471.936m38.528 0l17.152 0q38.528 0 38.528 38.528l0 0q0 38.528-38.528 38.528l-17.152 0q-38.528 0-38.528-38.528l0 0q0-38.528 38.528-38.528ZM190.592 775.296m38.528 0l17.152 0q38.528 0 38.528 38.528l0 0q0 38.528-38.528 38.528l-17.152 0q-38.528 0-38.528-38.528l0 0q0-38.528 38.528-38.528Z" /></svg>