<?xml version="1.0" encoding="UTF-8"?>
<svg width="16px" height="16px" viewBox="0 0 16 16" version="1.1" xmlns="http://www.w3.org/2000/svg" xmlns:xlink="http://www.w3.org/1999/xlink">
    <title>auto-play</title>
    <g id="auto-play" stroke="none" stroke-width="1" fill="none" fill-rule="evenodd">
        <g fill-rule="nonzero">
            <rect id="矩形" opacity="0" transform="translate(8.000000, 8.000000) scale(1, -1) translate(-8.000000, -8.000000) " x="0" y="0" width="16" height="16"></rect>
            <path d="M3.665625,1.93749412 L6.275,1.95000919 C6.35625,1.95000919 6.415625,2.02657169 6.3953125,2.10469669 L5.778125,4.64063419 C5.753125,4.74219669 5.621875,4.77032169 5.5578125,4.68750919 L4.921875,3.87344669 C4.7625,3.99844669 4.609375,4.13438419 4.4640625,4.27969669 C4.0046875,4.73907169 3.64375,5.27344669 3.3921875,5.86875919 C3.13125,6.48438419 3,7.13907169 3,7.81407169 C3,8.48907169 3.13125,9.14375919 3.3921875,9.75938419 C3.64375,10.3546967 4.0046875,10.8890717 4.4640625,11.3484467 C4.9234375,11.8078217 5.4578125,12.1687592 6.053125,12.4203217 C6.6703125,12.6812592 7.325,12.8125092 8,12.8125092 C8.675,12.8125092 9.3296875,12.6812592 9.9453125,12.4203217 C10.540625,12.1687592 11.075,11.8078217 11.534375,11.3484467 C11.99375,10.8890717 12.3546875,10.3546967 12.60625,9.75938419 C12.8671875,9.14375919 12.9984375,8.48907169 12.9984375,7.81407169 C12.9984375,7.13907169 12.8671875,6.48438419 12.60625,5.86875919 C12.3546875,5.27344669 11.99375,4.73907169 11.534375,4.27969669 C11.4171875,4.16250919 11.2953125,4.05313419 11.16875,3.94844669 C11.115625,3.90469669 11.1078125,3.82813419 11.15,3.77500919 L11.765625,2.98594669 C11.809375,2.93125919 11.8890625,2.92188419 11.94375,2.96563419 C13.3515625,4.11250919 14.25,5.85782169 14.25,7.81407169 C14.25,11.2687592 11.446875,14.0671967 7.990625,14.0625151 C4.5390625,14.0578217 1.75,11.2656342 1.75,7.81407169 C1.75,5.81407169 2.690625,4.03282169 4.153125,2.88907169 L3.5671875,2.13907169 C3.503125,2.05625919 3.5625,1.93594669 3.665625,1.93749412 Z M7.20083651,5.54174669 L7.27355819,5.5814516 L10.2735582,7.54218726 C10.5450836,7.71965044 10.5730346,8.0963183 10.3541661,8.31404284 L10.2810976,8.37423375 L7.28109764,10.4134981 C6.97285094,10.6230303 6.56357555,10.4329806 6.50668032,10.0833862 L6.5000123,9.9999877 L6.5000123,5.9999877 C6.5000123,5.63107924 6.88025264,5.39899506 7.20083651,5.54174669 Z" id="形状结合" fill="#000000"></path>
        </g>
    </g>
</svg>