<?xml version="1.0" standalone="no"?><!DOCTYPE svg PUBLIC "-//W3C//DTD SVG 1.1//EN" "http://www.w3.org/Graphics/SVG/1.1/DTD/svg11.dtd"><svg class="icon" width="200px" height="200.00px" viewBox="0 0 1024 1024" version="1.1" xmlns="http://www.w3.org/2000/svg"><path fill="#000000" d="M902.4 838.4a9.6 9.6 0 0 1 9.6 9.6v54.4a9.6 9.6 0 0 1-9.6 9.6H121.6a9.6 9.6 0 0 1-9.6-9.6v-54.4a9.6 9.6 0 0 1 9.6-9.6h780.8z m-21.12-726.4a31.36 31.36 0 0 1 30.72 32v608a31.36 31.36 0 0 1-30.72 32H142.72a31.36 31.36 0 0 1-30.72-32v-608c0-17.664 13.76-32 30.72-32h738.56z m-262.912 580.864l-17.152 4.224-12.8 7.936 9.088 10.624 11.776-2.624 13.312-12.8-4.224-7.36zM702.464 192a4.096 4.096 0 0 0-2.624 0.64l-17.792 11.712a4.096 4.096 0 0 0-1.728 2.368l-12.352 41.6a4.224 4.224 0 0 1-2.496 2.752l-14.08 5.568a4.224 4.224 0 0 0-2.624 4.032v14.336c0 1.984 1.408 3.776 3.264 4.16l28.8 6.208c3.712 0.768 4.672 5.632 1.472 7.68l-27.968 18.048a1.92 1.92 0 0 0-0.448 0.32l-60.672 50.368a4.224 4.224 0 0 1-2.56 0.96l-27.136 1.024a3.392 3.392 0 0 0-1.6 0.384l-26.24 11.648a4.224 4.224 0 0 1-3.648-0.064l-34.944-16.896c-0.448-0.192-0.896-0.384-1.408-0.448l-45.888-5.44a4.224 4.224 0 0 1-3.392-2.624l-6.528-15.808a4.032 4.032 0 0 0-2.112-2.176l-39.68-19.008a4.288 4.288 0 0 1-2.368-3.392L394.88 301.44v-0.512l0.512-18.048a4.48 4.48 0 0 0-0.64-2.368l-16.896-26.88a4.288 4.288 0 0 0-5.76-1.408l-27.392 16.256-0.896 0.64-6.144 6.08a4.288 4.288 0 0 1-3.584 1.216l-13.952-1.92a4.352 4.352 0 0 0-4.48 2.432l-6.656 14.72a4.16 4.16 0 0 1-3.968 2.56l-18.048-0.448a4.224 4.224 0 0 0-4.16 3.008l-10.112 32.768a4.224 4.224 0 0 1-3.2 2.944l-47.936 10.048c-0.192 0.064-0.448 0.064-0.64 0.192l-26.176 9.792a4.16 4.16 0 0 0-2.688 4.736l1.984 10.944a16.32 16.32 0 0 0 0.192 0.832l17.472 44.032v0.192c1.024 2.112 16.256 34.88 16 38.08a73.28 73.28 0 0 1-3.264 10.368l-3.84 10.24-3.2 8a4.096 4.096 0 0 0 0.448 4.096l6.848 9.28 0.64 0.832 57.344 47.616c0.32 0.32 0.64 0.448 1.024 0.64l88.512 39.04a4.8 4.8 0 0 0 2.624 0.256l53.12-11.52a4.608 4.608 0 0 1 3.008 0.448l20.736 11.328a4.224 4.224 0 0 1 1.92 4.992l-12.48 40.704a4.096 4.096 0 0 0 1.344 4.48l45.568 38.4c1.216 1.024 2.88 1.28 4.288 0.768l56-22.208a4.032 4.032 0 0 1 3.776 0.384l36.48 22.144 0.384 0.192 16.384 12.16a3.648 3.648 0 0 0 1.216 0.64l7.168 2.432a4.224 4.224 0 0 0 5.568-3.584l0.768-7.424a4.032 4.032 0 0 1 2.24-3.2l91.52-50.304a4.096 4.096 0 0 0 1.664-1.728l32.512-62.592a3.968 3.968 0 0 0 0.512-2.048l-1.472-49.984a3.84 3.84 0 0 0-1.024-2.56l-19.392-23.296-13.824-17.472a4.288 4.288 0 0 1 0-5.312l21.312-25.728a4.288 4.288 0 0 1 1.472-1.152 4.224 4.224 0 0 0-0.64-7.872l-9.792-2.688-0.512-0.064-26.752-0.064a4.288 4.288 0 0 1-3.392-1.664l-6.4-8.768a4.224 4.224 0 0 1 0.832-5.888l31.552-24.64a4.288 4.288 0 0 1 6.848 3.584l-0.32 5.568a4.288 4.288 0 0 0 6.016 4.096l13.376-5.952a3.456 3.456 0 0 0 1.088-0.64l62.848-55.808a3.968 3.968 0 0 0 1.408-2.88l2.752-33.28a4.288 4.288 0 0 1 4.096-3.904l6.336-0.192a4.16 4.16 0 0 0 4.032-3.968L832 244.48c0.192-3.584-3.136-5.888-6.08-4.544l-31.232 14.016a4.288 4.288 0 0 1-4.288-0.512l-31.36-24.192-0.576-0.448-32.256-33.664a4.352 4.352 0 0 0-2.688-1.28L702.464 192z m60.608 411.264l-13.952 5.184-9.152 27.648 11.776 16.448 9.152-17.472 6.976-18.56-4.8-13.248z" /></svg>