<?xml version="1.0" encoding="UTF-8"?>
<svg width="16px" height="16px" viewBox="0 0 16 16" version="1.1" xmlns="http://www.w3.org/2000/svg" xmlns:xlink="http://www.w3.org/1999/xlink">
    <title>branches</title>
    <g id="branches" stroke="none" stroke-width="1" fill="none" fill-rule="evenodd">
        <g fill-rule="nonzero">
            <rect id="矩形" opacity="0" x="0" y="0" width="16" height="16"></rect>
            <path d="M11.5625,2.515625 C10.596875,2.515625 9.8125,3.3 9.8125,4.265625 C9.8125,5.0484375 10.3296875,5.7125 11.0390625,5.9359375 L11.0390625,7.434375 L5,9.4125 L5,4.9703125 C5.690625,4.7359375 6.1875,4.08125 6.1875,3.3125 C6.1875,2.346875 5.403125,1.5625 4.4375,1.5625 C3.471875,1.5625 2.6875,2.346875 2.6875,3.3125 C2.6875,4.08125 3.184375,4.734375 3.875,4.9703125 L3.875,11.03125 C3.184375,11.265625 2.6875,11.9203125 2.6875,12.6890625 C2.6875,13.6546875 3.471875,14.4390625 4.4375,14.4390625 C5.403125,14.4390625 6.1875,13.6546875 6.1875,12.6890625 C6.1875,11.9203125 5.690625,11.2671875 5,11.03125 L5,10.596875 L11.6171875,8.4296875 C11.94375,8.3234375 12.1625,8.0203125 12.1625,7.6765625 L12.1625,5.909375 C12.8328125,5.6625 13.3125,5.01875 13.3125,4.265625 C13.3125,3.3 12.528125,2.515625 11.5625,2.515625 Z M3.6875,3.3125 C3.6875,2.8984375 4.0234375,2.5625 4.4375,2.5625 C4.8515625,2.5625 5.1875,2.8984375 5.1875,3.3125 C5.1875,3.7265625 4.8515625,4.0625 4.4375,4.0625 C4.0234375,4.0625 3.6875,3.7265625 3.6875,3.3125 Z M5.1875,12.6875 C5.1875,13.1015625 4.8515625,13.4375 4.4375,13.4375 C4.0234375,13.4375 3.6875,13.1015625 3.6875,12.6875 C3.6875,12.2734375 4.0234375,11.9375 4.4375,11.9375 C4.8515625,11.9375 5.1875,12.2734375 5.1875,12.6875 Z M11.5625,5.015625 C11.1484375,5.015625 10.8125,4.6796875 10.8125,4.265625 C10.8125,3.8515625 11.1484375,3.515625 11.5625,3.515625 C11.9765625,3.515625 12.3125,3.8515625 12.3125,4.265625 C12.3125,4.6796875 11.9765625,5.015625 11.5625,5.015625 Z" id="形状" fill="#000000"></path>
        </g>
    </g>
</svg>