<?xml version="1.0" encoding="UTF-8"?>
<svg width="16px" height="16px" viewBox="0 0 16 16" version="1.1" xmlns="http://www.w3.org/2000/svg" xmlns:xlink="http://www.w3.org/1999/xlink">
    <title>bug-fill</title>
    <g id="bug-fill" stroke="none" stroke-width="1" fill="none" fill-rule="evenodd">
        <g fill-rule="nonzero">
            <rect id="矩形" opacity="0" x="0" y="0" width="16" height="16"></rect>
            <path d="M14.6875,8 L12.375,8 L12.375,6.4375 C13.575,6.4375 14.546875,5.465625 14.546875,4.265625 C14.546875,4.196875 14.490625,4.140625 14.421875,4.140625 L13.484375,4.140625 C13.415625,4.140625 13.359375,4.196875 13.359375,4.265625 C13.359375,4.809375 12.91875,5.25 12.375,5.25 L3.625,5.25 C3.08125,5.25 2.640625,4.809375 2.640625,4.265625 C2.640625,4.196875 2.584375,4.140625 2.515625,4.140625 L1.578125,4.140625 C1.509375,4.140625 1.453125,4.196875 1.453125,4.265625 C1.453125,5.465625 2.425,6.4375 3.625,6.4375 L3.625,8 L1.3125,8 C1.24375,8 1.1875,8.05625 1.1875,8.125 L1.1875,9 C1.1875,9.06875 1.24375,9.125 1.3125,9.125 L3.625,9.125 L3.625,10.625 C3.625,10.7265625 3.628125,10.828125 3.6359375,10.9265625 C2.5640625,11.384375 1.8125,12.4484375 1.8125,13.6875 C1.8125,13.75625 1.86875,13.8125 1.9375,13.8125 L2.8125,13.8125 C2.88125,13.8125 2.9375,13.75625 2.9375,13.6875 C2.9375,12.996875 3.3109375,12.3921875 3.86875,12.0671875 C3.9625,12.3359375 4.08125,12.5921875 4.2234375,12.8328125 C4.603125,13.48125 5.1453125,14.0234375 5.79375,14.403125 C6.2453125,14.6671875 6.746875,14.853125 7.2828125,14.9421875 C7.3515625,14.9421875 7.4078125,14.8859375 7.4078125,14.8171875 L7.4078125,7.5625 C7.4078125,7.49375 7.4640625,7.4375 7.5328125,7.4375 L8.4703125,7.4375 C8.5390625,7.4375 8.5953125,7.49375 8.5953125,7.5625 L8.5953125,14.815625 C8.5953125,14.884375 8.6515625,14.940625 8.7203125,14.940625 C9.25625,14.8515625 9.7578125,14.665625 10.209375,14.4015625 C10.8578125,14.021875 11.4,13.4796875 11.7796875,12.83125 C11.921875,12.5890625 12.040625,12.3328125 12.134375,12.065625 C12.6890625,12.3921875 13.0625,12.996875 13.0625,13.6875 C13.0625,13.75625 13.11875,13.8125 13.1875,13.8125 L14.0625,13.8125 C14.13125,13.8125 14.1875,13.75625 14.1875,13.6875 C14.1875,12.4484375 13.4359375,11.384375 12.3640625,10.9265625 C12.3703125,10.8265625 12.375,10.7265625 12.375,10.625 L12.375,9.125 L14.6875,9.125 C14.75625,9.125 14.8125,9.06875 14.8125,9 L14.8125,8.125 C14.8125,8.05625 14.75625,8 14.6875,8 Z M4.75,4.375 L11.25,4.375 C11.31875,4.375 11.375,4.31875 11.375,4.25 C11.375,3.625 11.2375,3.0515625 10.9703125,2.5609375 C10.7015625,2.06875 10.30625,1.6734375 9.8140625,1.4046875 C9.3234375,1.1375 8.75,1 8.125,1 L7.875,1 C7.25,1 6.6765625,1.1375 6.1859375,1.4046875 C5.69375,1.6734375 5.2984375,2.06875 5.0296875,2.5609375 C4.7625,3.0515625 4.625,3.625 4.625,4.25 C4.625,4.31875 4.68125,4.375 4.75,4.375 Z" id="形状" fill="#000000"></path>
        </g>
    </g>
</svg>