<?xml version="1.0" standalone="no"?><!DOCTYPE svg PUBLIC "-//W3C//DTD SVG 1.1//EN" "http://www.w3.org/Graphics/SVG/1.1/DTD/svg11.dtd"><svg class="icon" width="200px" height="200.00px" viewBox="0 0 1024 1024" version="1.1" xmlns="http://www.w3.org/2000/svg"><path fill="#000000" d="M781.248 135.68l4.864 0.384h1.088l116.288 16.96a36.8 36.8 0 0 1-4.672 73.216l-5.952-0.384-9.024-1.344a469.952 469.952 0 0 1-442.176 752.256 36.8 36.8 0 0 1 10.944-72.832 396.352 396.352 0 0 0 305.536-702.656 36.8 36.8 0 0 1 22.656-65.6h0.448zM546.176 49.536c23.616 1.664 46.912 5.056 69.76 10.112a36.8 36.8 0 1 1-16 71.872 396.352 396.352 0 0 0-353.856 679.616 36.8 36.8 0 0 1-27.072 63.872h-0.448l-4.864-0.704h-0.128l-0.96-0.128-114.816-25.024a36.8 36.8 0 0 1 9.792-72.704l5.888 0.768 8.96 2.048A469.952 469.952 0 0 1 546.112 49.6z m97.792 235.392c12.992 12.608 14.72 32.384 4.992 46.912l-4.16 5.12-88.448 91.264 101.76-0.128a36.8 36.8 0 0 1 6.08 73.088l-5.952 0.512-99.904 0.128v64.256l99.776-0.192a36.8 36.8 0 0 1 6.08 73.152l-5.952 0.448-99.904 0.192v72.96a36.8 36.8 0 0 1-73.088 5.952l-0.512-5.952V639.872l-117.44 0.256a36.8 36.8 0 0 1-6.144-73.088l5.952-0.512 117.632-0.256V502.016l-117.44 0.32a36.8 36.8 0 0 1-6.144-73.152l5.952-0.448 119.808-0.32-88.576-91.456a36.8 36.8 0 0 1 47.808-55.552l5.056 4.352L521.6 358.4l70.336-72.64 4.992-4.352a36.8 36.8 0 0 1 47.04 3.52z" /></svg>