<?xml version="1.0" encoding="UTF-8"?>
<svg width="16px" height="16px" viewBox="0 0 16 16" version="1.1" xmlns="http://www.w3.org/2000/svg" xmlns:xlink="http://www.w3.org/1999/xlink">
    <title>calculator-fill</title>
    <g id="calculator-fill" stroke="none" stroke-width="1" fill="none" fill-rule="evenodd">
        <g fill-rule="nonzero">
            <rect id="矩形" opacity="0" x="0" y="0" width="16" height="16"></rect>
            <path d="M13.75,1.75 L2.25,1.75 C1.9734375,1.75 1.75,1.9734375 1.75,2.25 L1.75,13.75 C1.75,14.0265625 1.9734375,14.25 2.25,14.25 L13.75,14.25 C14.0265625,14.25 14.25,14.0265625 14.25,13.75 L14.25,2.25 C14.25,1.9734375 14.0265625,1.75 13.75,1.75 Z M6.878125,11.953125 L6.084375,11.953125 C6.05,11.953125 6.0140625,11.9359375 5.9921875,11.9078125 L5.4375,11.228125 L4.8828125,11.9078125 C4.859375,11.9375 4.8265625,11.953125 4.790625,11.953125 L3.996875,11.953125 C3.89375,11.953125 3.8375,11.8296875 3.90625,11.7484375 L4.8859375,10.5484375 L3.9296875,9.378125 C3.8625,9.296875 3.91875,9.1734375 4.021875,9.1734375 L4.8171875,9.1734375 C4.8515625,9.1734375 4.8875,9.190625 4.909375,9.21875 L5.440625,9.86875 L5.971875,9.21875 C5.9953125,9.1890625 6.028125,9.1734375 6.0640625,9.1734375 L6.8578125,9.1734375 C6.9609375,9.1734375 7.0171875,9.296875 6.95,9.378125 L5.9921875,10.546875 L6.971875,11.746875 C7.0375,11.8296875 6.98125,11.953125 6.878125,11.953125 Z M7,5.984375 C7,6.01875 6.978125,6.046875 6.95,6.046875 L5.875,6.046875 L5.875,7.1203125 C5.875,7.15 5.846875,7.171875 5.8125,7.171875 L5.0625,7.171875 C5.028125,7.171875 5,7.15 5,7.121875 L5,6.046875 L3.925,6.046875 C3.896875,6.046875 3.875,6.01875 3.875,5.984375 L3.875,5.234375 C3.875,5.2 3.896875,5.171875 3.925,5.171875 L5,5.171875 L5,4.096875 C5,4.06875 5.028125,4.046875 5.0625,4.046875 L5.8125,4.046875 C5.846875,4.046875 5.875,4.06875 5.875,4.096875 L5.875,5.171875 L6.9484375,5.171875 C6.978125,5.171875 7,5.2 7,5.234375 L7,5.984375 Z M12.125,11.75 C12.125,11.784375 12.103125,11.8125 12.075,11.8125 L9.05,11.8125 C9.021875,11.8125 9,11.784375 9,11.75 L9,11 C9,10.965625 9.021875,10.9375 9.05,10.9375 L12.0734375,10.9375 C12.103125,10.9375 12.125,10.965625 12.125,11 L12.125,11.75 Z M12.125,10.125 C12.125,10.159375 12.103125,10.1875 12.075,10.1875 L9.05,10.1875 C9.021875,10.1875 9,10.159375 9,10.125 L9,9.375 C9,9.340625 9.021875,9.3125 9.05,9.3125 L12.0734375,9.3125 C12.103125,9.3125 12.125,9.340625 12.125,9.375 L12.125,10.125 Z M12.125,5.984375 C12.125,6.01875 12.103125,6.046875 12.075,6.046875 L9.05,6.046875 C9.021875,6.046875 9,6.01875 9,5.984375 L9,5.234375 C9,5.2 9.021875,5.171875 9.05,5.171875 L12.0734375,5.171875 C12.103125,5.171875 12.125,5.2 12.125,5.234375 L12.125,5.984375 Z" id="形状" fill="#000000"></path>
        </g>
    </g>
</svg>