<?xml version="1.0" encoding="UTF-8"?>
<svg width="16px" height="16px" viewBox="0 0 16 16" version="1.1" xmlns="http://www.w3.org/2000/svg" xmlns:xlink="http://www.w3.org/1999/xlink">
    <title>camera-fill</title>
    <g id="camera-fill" stroke="none" stroke-width="1" fill="none" fill-rule="evenodd">
        <g fill-rule="nonzero">
            <rect id="矩形" opacity="0" x="0" y="0" width="16" height="16"></rect>
            <path d="M13.5,4.0625 L11.375,4.0625 L10.86875,2.64375 C10.796875,2.4453125 10.609375,2.3125 10.396875,2.3125 L5.603125,2.3125 C5.3921875,2.3125 5.203125,2.4453125 5.1328125,2.64375 L4.625,4.0625 L2.5,4.0625 C1.809375,4.0625 1.25,4.621875 1.25,5.3125 L1.25,12.4375 C1.25,13.128125 1.809375,13.6875 2.5,13.6875 L13.5,13.6875 C14.190625,13.6875 14.75,13.128125 14.75,12.4375 L14.75,5.3125 C14.75,4.621875 14.190625,4.0625 13.5,4.0625 Z M8,11.1875 C6.61875,11.1875 5.5,10.06875 5.5,8.6875 C5.5,7.30625 6.61875,6.1875 8,6.1875 C9.38125,6.1875 10.5,7.30625 10.5,8.6875 C10.5,10.06875 9.38125,11.1875 8,11.1875 Z M6.5,8.6875 C6.5,9.51592712 7.17157288,10.1875 8,10.1875 C8.82842712,10.1875 9.5,9.51592712 9.5,8.6875 C9.5,7.85907288 8.82842712,7.1875 8,7.1875 C7.17157288,7.1875 6.5,7.85907288 6.5,8.6875 Z" id="形状" fill="#000000"></path>
        </g>
    </g>
</svg>