<?xml version="1.0" encoding="UTF-8"?>
<svg width="16px" height="16px" viewBox="0 0 16 16" version="1.1" xmlns="http://www.w3.org/2000/svg" xmlns:xlink="http://www.w3.org/1999/xlink">
    <title>cart-empty</title>
    <g id="cart-empty" stroke="none" stroke-width="1" fill="none" fill-rule="evenodd">
        <g fill-rule="nonzero">
            <rect id="矩形" opacity="0" x="0" y="0" width="16" height="16"></rect>
            <path d="M5.16666667,11.85 C4.62358667,11.85 4.18333334,12.2902533 4.18333334,12.8333333 C4.18333334,13.3764133 4.62358667,13.8166667 5.16666667,13.8166667 C5.70974668,13.8166667 6.15000001,13.3764133 6.15000001,12.8333333 C6.15000001,12.2902533 5.70974668,11.85 5.16666667,11.85 Z M11.1666667,11.85 C10.6235867,11.85 10.1833333,12.2902533 10.1833333,12.8333333 C10.1833333,13.3764133 10.6235867,13.8166667 11.1666667,13.8166667 C11.7097467,13.8166667 12.15,13.3764133 12.15,12.8333333 C12.15,12.2902533 11.7097467,11.85 11.1666667,11.85 Z M1.555,2.5 L1.48,2.575 L1.48,3.425 L1.55499106,3.5 L2.3400697,3.50009357 L2.38617323,3.50256415 C2.60085061,3.5228335 2.78005593,3.68260248 2.82534391,3.89671681 L3.25761565,5.94548345 L4.21166491,10.5356581 C4.30763324,11.0001559 4.7166923,11.3333336 5.191,11.3333336 L11.4756929,11.3333336 C11.9500933,11.3334993 12.3593402,11.0002846 12.4553307,10.5356792 L13.4186693,5.86898746 C13.4795097,5.57451257 13.4046023,5.26827913 13.2146941,5.03512769 C13.0247858,4.80197612 12.7400402,4.66666167 12.4393321,4.66666667 L4.78000653,4.666 L4.70577605,4.75176131 L4.82910938,5.60242798 L12.439,5.66666667 L12.4543042,5.72919903 L11.4024084,10.3922637 L5.11825556,10.2735047 L4.68336729,7.87516352 L4.08702229,4.72770468 L3.78845065,3.62498105 C3.61546612,2.96100642 3.01881866,2.5 2.336,2.5 L1.555,2.5 Z" id="形状结合" fill="#000000"></path>
        </g>
    </g>
</svg>