<?xml version="1.0" encoding="UTF-8"?>
<svg width="16px" height="16px" viewBox="0 0 16 16" version="1.1" xmlns="http://www.w3.org/2000/svg" xmlns:xlink="http://www.w3.org/1999/xlink">
    <title>cart-empty-fill</title>
    <g id="cart-empty-fill" stroke="none" stroke-width="1" fill="none" fill-rule="evenodd">
        <g fill-rule="nonzero">
            <rect id="矩形" opacity="0" x="0" y="0" width="16" height="16"></rect>
            <path d="M5.16666667,12 C5.62690396,12 6.00000001,12.373096 6.00000001,12.8333333 C6.00000001,13.2935706 5.62690396,13.6666667 5.16666667,13.6666667 C4.70642938,13.6666667 4.33333334,13.2935706 4.33333334,12.8333333 C4.33333334,12.373096 4.70642938,12 5.16666667,12 Z M11.1666667,12 C11.626904,12 12,12.373096 12,12.8333333 C12,13.2935706 11.626904,13.6666667 11.1666667,13.6666667 C10.7064294,13.6666667 10.3333333,13.2935706 10.3333333,12.8333333 C10.3333333,12.373096 10.7064294,12 11.1666667,12 L11.1666667,12 Z M1.48066667,2.5 L2.336,2.5 C3.01877606,2.5 3.61545538,2.9609652 3.78766667,3.62166667 L3.80366667,3.69033333 L4.01,4.66666667 L12.439,4.66666667 C12.739707,4.66666168 13.0244525,4.80197626 13.2143608,5.0351277 C13.404269,5.26827914 13.4791764,5.57451257 13.4183333,5.869 L12.455,10.5356667 C12.3590326,11.00016 11.9499702,11.3333333 11.4756667,11.3333333 L5.191,11.3333333 C4.71669649,11.3333333 4.30763409,11.00016 4.21166667,10.5356667 L3.265,5.951 L3.25866667,5.95233333 L2.82533333,3.89666667 C2.7800546,3.68259619 2.60084421,3.52283289 2.383,3.50233333 L2.33633333,3.5 L1.48033333,3.5 L1.48033333,2.5 L2.33566667,2.5 L1.48066667,2.5 Z" id="形状" fill="#000000"></path>
        </g>
    </g>
</svg>