<?xml version="1.0" standalone="no"?><!DOCTYPE svg PUBLIC "-//W3C//DTD SVG 1.1//EN" "http://www.w3.org/Graphics/SVG/1.1/DTD/svg11.dtd"><svg class="icon" width="200px" height="200.00px" viewBox="0 0 1024 1024" version="1.1" xmlns="http://www.w3.org/2000/svg"><path fill="#000000" d="M137.6 571.2v265.6H64v-265.6h73.6z m64-320v201.6H128v-201.6h73.6z m128-128v329.6H256v-329.6h73.6z m-110.4 713.6a36.8 36.8 0 0 1-36.8-36.8v-192c0-20.352 16.448-36.8 36.8-36.8h704c20.352 0 36.8 16.448 36.8 36.8v192a36.8 36.8 0 0 1-36.8 36.8z m480-192H256v118.4h443.2v-118.4z m187.2 0h-113.6v118.4h113.6v-118.4z" /></svg>