<?xml version="1.0" encoding="UTF-8"?>
<svg width="16px" height="16px" viewBox="0 0 16 16" version="1.1" xmlns="http://www.w3.org/2000/svg" xmlns:xlink="http://www.w3.org/1999/xlink">
    <title>close-square</title>
    <g id="close-square" stroke="none" stroke-width="1" fill="none" fill-rule="evenodd">
        <g fill-rule="nonzero">
            <rect id="矩形" opacity="0" x="0" y="0" width="16" height="16"></rect>
            <path d="M5.53125,10.484375 L6.4515625,10.484375 C6.525,10.484375 6.5953125,10.4515625 6.64375,10.3953125 L8,8.778125 L9.35625,10.3953125 C9.403125,10.4515625 9.4734375,10.484375 9.5484375,10.484375 L10.46875,10.484375 C10.575,10.484375 10.6328125,10.3609375 10.5640625,10.2796875 L8.653125,8 L10.565625,5.7203125 C10.634375,5.6390625 10.5765625,5.515625 10.4703125,5.515625 L9.55,5.515625 C9.4765625,5.515625 9.40625,5.5484375 9.3578125,5.6046875 L8,7.221875 L6.64375,5.6046875 C6.596875,5.5484375 6.5265625,5.515625 6.4515625,5.515625 L5.53125,5.515625 C5.425,5.515625 5.3671875,5.6390625 5.4359375,5.7203125 L7.346875,8 L5.4359375,10.2796875 C5.3671875,10.3609375 5.425,10.484375 5.53125,10.484375 Z" id="路径" fill="#000000"></path>
            <path d="M13.75,1.75 L2.25,1.75 C1.9734375,1.75 1.75,1.9734375 1.75,2.25 L1.75,13.75 C1.75,14.0265625 1.9734375,14.25 2.25,14.25 L13.75,14.25 C14.0265625,14.25 14.25,14.0265625 14.25,13.75 L14.25,2.25 C14.25,1.9734375 14.0265625,1.75 13.75,1.75 Z M13.125,13.125 L2.875,13.125 L2.875,2.875 L13.125,2.875 L13.125,13.125 Z" id="形状" fill="#000000"></path>
        </g>
    </g>
</svg>