<?xml version="1.0" standalone="no"?><!DOCTYPE svg PUBLIC "-//W3C//DTD SVG 1.1//EN" "http://www.w3.org/Graphics/SVG/1.1/DTD/svg11.dtd"><svg class="icon" width="200px" height="200.00px" viewBox="0 0 1024 1024" version="1.1" xmlns="http://www.w3.org/2000/svg"><path fill="#000000" d="M942.528 343.872l-211.2-211.2a59.712 59.712 0 0 0-84.48 0l-26.496 26.496a59.712 59.712 0 0 1-42.24 17.536H445.952a59.648 59.648 0 0 1-42.24-17.536l-26.496-26.496a59.712 59.712 0 0 0-84.48 0l-211.2 211.2a59.712 59.712 0 0 0 0 84.48l84.48 84.48a59.328 59.328 0 0 0 58.304 15.04c9.472-2.688 19.008 3.712 19.008 13.504v305.472c0 32.832 26.88 59.712 59.712 59.712h418.048c32.896 0 59.712-26.88 59.712-59.712V541.376c0-9.792 9.6-16.192 19.008-13.44a59.328 59.328 0 0 0 58.24-15.168l84.48-84.48a59.712 59.712 0 0 0 0-84.48z" /></svg>