<?xml version="1.0" encoding="UTF-8"?>
<svg width="16px" height="16px" viewBox="0 0 16 16" version="1.1" xmlns="http://www.w3.org/2000/svg" xmlns:xlink="http://www.w3.org/1999/xlink">
    <title>code-library-fill</title>
    <g id="code-library-fill" stroke="none" stroke-width="1" fill="none" fill-rule="evenodd">
        <g fill-rule="nonzero">
            <rect id="矩形" opacity="0" x="0" y="0" width="16" height="16"></rect>
            <path d="M13.75,1.75 L2.25,1.75 C1.9734375,1.75 1.75,1.9734375 1.75,2.25 L1.75,13.75 C1.75,14.0265625 1.9734375,14.25 2.25,14.25 L13.75,14.25 C14.0265625,14.25 14.25,14.0265625 14.25,13.75 L14.25,2.25 C14.25,1.9734375 14.0265625,1.75 13.75,1.75 Z M8.0171875,8.0953125 L5.0171875,10.6109375 C4.9359375,10.6796875 4.8125,10.621875 4.8125,10.515625 L4.8125,9.5359375 C4.8125,9.5 4.8296875,9.4640625 4.8578125,9.440625 L6.5734375,8 L4.8578125,6.559375 C4.828125,6.5359375 4.8125,6.5015625 4.8125,6.4640625 L4.8125,5.484375 C4.8125,5.378125 4.9359375,5.3203125 5.0171875,5.3890625 L8.0171875,7.903125 C8.078125,7.953125 8.078125,8.0453125 8.0171875,8.0953125 L8.0171875,8.0953125 Z M11.1875,10.515625 C11.1875,10.584375 11.134375,10.640625 11.0703125,10.640625 L8.1796875,10.640625 C8.115625,10.640625 8.0625,10.584375 8.0625,10.515625 L8.0625,9.765625 C8.0625,9.696875 8.115625,9.640625 8.1796875,9.640625 L11.0703125,9.640625 C11.134375,9.640625 11.1875,9.696875 11.1875,9.765625 L11.1875,10.515625 Z" id="形状" fill="#000000"></path>
        </g>
    </g>
</svg>