<?xml version="1.0" encoding="UTF-8"?>
<svg width="16px" height="16px" viewBox="0 0 16 16" version="1.1" xmlns="http://www.w3.org/2000/svg" xmlns:xlink="http://www.w3.org/1999/xlink">
    <title>console-SQL</title>
    <g id="console-SQL" stroke="none" stroke-width="1" fill="none" fill-rule="evenodd">
        <g fill-rule="nonzero">
            <rect id="矩形" opacity="0" x="0" y="0" width="16" height="16"></rect>
            <path d="M4.7078125,7.7609375 C4.3359375,7.7609375 4.0796875,7.596875 4.0578125,7.340625 L3.203125,7.340625 C3.2171875,8.01875 3.7796875,8.4390625 4.6703125,8.4390625 C5.59375,8.4390625 6.1546875,7.9953125 6.1546875,7.259375 C6.1546875,6.7 5.8421875,6.3859375 5.146875,6.2515625 L4.6921875,6.1640625 C4.3203125,6.090625 4.1640625,5.978125 4.1640625,5.7859375 C4.1640625,5.5515625 4.371875,5.403125 4.6859375,5.403125 C5,5.403125 5.2375,5.5765625 5.2578125,5.825 L6.0859375,5.825 C6.071875,5.1734375 5.5,4.7265625 4.675,4.7265625 C3.825,4.7265625 3.2734375,5.178125 3.2734375,5.8671875 C3.2734375,6.421875 3.6046875,6.7734375 4.25,6.8953125 L4.7140625,6.9875 C5.1171875,7.06875 5.2703125,7.1734375 5.2703125,7.36875 C5.271875,7.5984375 5.04375,7.7609375 4.7078125,7.7609375 L4.7078125,7.7609375 Z M14.5,2.1875 L1.5,2.1875 C1.2234375,2.1875 1,2.4109375 1,2.6875 L1,10.4375 C1,10.7140625 1.2234375,10.9375 1.5,10.9375 L7.4375,10.9375 L7.4375,12.6875 L4.75,12.6875 C4.6125,12.6875 4.5,12.8 4.5,12.9375 L4.5,13.6875 C4.5,13.75625 4.55625,13.8125 4.625,13.8125 L11.375,13.8125 C11.44375,13.8125 11.5,13.75625 11.5,13.6875 L11.5,12.9375 C11.5,12.8 11.3875,12.6875 11.25,12.6875 L8.5625,12.6875 L8.5625,10.9375 L14.5,10.9375 C14.7765625,10.9375 15,10.7140625 15,10.4375 L15,2.6875 C15,2.4109375 14.7765625,2.1875 14.5,2.1875 Z M13.875,9.8125 L2.125,9.8125 L2.125,3.3125 L13.875,3.3125 L13.875,9.8125 Z M12.9453125,7.6046875 L11.4484375,7.6046875 L11.4484375,4.8203125 L10.5515625,4.8203125 L10.5515625,8.34375 L12.9453125,8.34375 L12.9453125,7.6046875 Z M8.2796875,8.4390625 C8.5,8.4390625 8.7046875,8.4078125 8.890625,8.3484375 L9.0984375,8.665625 L9.93125,8.665625 L9.4984375,7.984375 C9.828125,7.671875 10.0140625,7.1859375 10.0140625,6.58125 C10.0140625,5.4359375 9.3375,4.725 8.28125,4.725 C7.225,4.725 6.54374729,5.4328125 6.54374729,6.58125 C6.5421875,7.7328125 7.215625,8.4390625 8.2796875,8.4390625 Z M8.2796875,5.4703125 C8.7734375,5.4703125 9.103125,5.903125 9.103125,6.58125 C9.103125,6.8421875 9.046875,7.059375 8.946875,7.2140625 L8.865625,7.10625 L8.103125,7.10625 L8.46875,7.671875 C8.4078125,7.6859375 8.34375,7.69375 8.278125,7.69375 C7.7828125,7.69375 7.453125,7.2640625 7.453125,6.58125 C7.4546875,5.9 7.784375,5.4703125 8.2796875,5.4703125 Z" id="形状" fill="#000000"></path>
        </g>
    </g>
</svg>