<?xml version="1.0" encoding="UTF-8"?>
<svg width="16px" height="16px" viewBox="0 0 16 16" version="1.1" xmlns="http://www.w3.org/2000/svg" xmlns:xlink="http://www.w3.org/1999/xlink">
    <title>container-fill</title>
    <g id="container-fill" stroke="none" stroke-width="1" fill="none" fill-rule="evenodd">
        <g fill-rule="nonzero">
            <rect id="矩形" opacity="0" x="0" y="0" width="16" height="16"></rect>
            <path d="M13,1 L3,1 C2.7234375,1 2.5,1.2234375 2.5,1.5 L2.5,9.765625 C2.5,9.75625 2.50625,9.75 2.515625,9.75 L5.9421875,9.75 L6.0234375,10.1359375 C6.2125,11.0703125 7.04375,11.75 8,11.75 C8.95625,11.75 9.7875,11.0703125 9.975,10.1359375 L10.05625,9.75 L13.484375,9.75 C13.49375,9.75 13.5,9.75625 13.5,9.765625 L13.5,1.5 C13.5,1.2234375 13.2765625,1 13,1 Z M11.125,7.703125 C11.125,7.771875 11.06875,7.828125 11,7.828125 L5,7.828125 C4.93125,7.828125 4.875,7.771875 4.875,7.703125 L4.875,6.953125 C4.875,6.884375 4.93125,6.828125 5,6.828125 L11,6.828125 C11.06875,6.828125 11.125,6.884375 11.125,6.953125 L11.125,7.703125 Z M11.125,5.203125 C11.125,5.271875 11.06875,5.328125 11,5.328125 L5,5.328125 C4.93125,5.328125 4.875,5.271875 4.875,5.203125 L4.875,4.453125 C4.875,4.384375 4.93125,4.328125 5,4.328125 L11,4.328125 C11.06875,4.328125 11.125,4.384375 11.125,4.453125 L11.125,5.203125 Z M13.484375,10.734375 L10.8453125,10.734375 C10.6640625,11.246875 10.3453125,11.7078125 9.921875,12.0578125 C9.3828125,12.5046875 8.7,12.75 8,12.75 C7.3,12.75 6.6171875,12.503125 6.078125,12.0578125 C5.6546875,11.7078125 5.3359375,11.246875 5.1546875,10.734375 L2.515625,10.734375 C2.50625,10.734375 2.5,10.728125 2.5,10.71875 L2.5,14.5 C2.5,14.7765625 2.7234375,15 3,15 L13,15 C13.2765625,15 13.5,14.7765625 13.5,14.5 L13.5,10.71875 C13.5,10.728125 13.49375,10.734375 13.484375,10.734375 Z" id="形状" fill="#000000"></path>
        </g>
    </g>
</svg>