<?xml version="1.0" encoding="UTF-8"?>
<svg width="16px" height="16px" viewBox="0 0 16 16" version="1.1" xmlns="http://www.w3.org/2000/svg" xmlns:xlink="http://www.w3.org/1999/xlink">
    <title>credit-card-fill</title>
    <g id="credit-card-fill" stroke="none" stroke-width="1" fill="none" fill-rule="evenodd">
        <g fill-rule="nonzero">
            <rect id="矩形" opacity="0" x="0" y="0" width="16" height="16"></rect>
            <path d="M14.5,2.5 L1.5,2.5 C1.2234375,2.5 1,2.7234375 1,3 L1,5.5 L15,5.5 L15,3 C15,2.7234375 14.7765625,2.5 14.5,2.5 Z M1,13 C1,13.2765625 1.2234375,13.5 1.5,13.5 L14.5,13.5 C14.7765625,13.5 15,13.2765625 15,13 L15,6.875 L1,6.875 L1,13 Z M10.046875,10.125 C10.046875,10.05625 10.103125,10 10.171875,10 L12.75,10 C12.81875,10 12.875,10.05625 12.875,10.125 L12.875,11.25 C12.875,11.31875 12.81875,11.375 12.75,11.375 L10.171875,11.375 C10.103125,11.375 10.046875,11.31875 10.046875,11.25 L10.046875,10.125 Z" id="形状" fill="#000000"></path>
        </g>
    </g>
</svg>