<?xml version="1.0" standalone="no"?><!DOCTYPE svg PUBLIC "-//W3C//DTD SVG 1.1//EN" "http://www.w3.org/Graphics/SVG/1.1/DTD/svg11.dtd"><svg class="icon" width="200px" height="200.00px" viewBox="0 0 1024 1024" version="1.1" xmlns="http://www.w3.org/2000/svg"><path fill="#000000" d="M902.4 838.4a9.6 9.6 0 0 1 9.6 9.6v54.4a9.6 9.6 0 0 1-9.6 9.6H121.6a9.6 9.6 0 0 1-9.6-9.6v-54.4a9.6 9.6 0 0 1 9.6-9.6h780.8z m-21.12-726.4a31.36 31.36 0 0 1 30.72 32v608a31.36 31.36 0 0 1-30.72 32H142.72a31.36 31.36 0 0 1-30.72-32v-608c0-17.664 13.76-32 30.72-32h738.56z m-80.448 133.504a8 8 0 0 0-11.328 0L535.04 500.096 420.48 385.728a8 8 0 0 0-11.264 0l-214.912 215.04a8 8 0 0 0 0 11.264l36.8 36.8a8 8 0 0 0 11.328 0L414.912 476.16l114.56 114.56a8 8 0 0 0 11.264 0l296.96-297.28a7.808 7.808 0 0 0-0.064-11.2z" /></svg>