<?xml version="1.0" standalone="no"?><!DOCTYPE svg PUBLIC "-//W3C//DTD SVG 1.1//EN" "http://www.w3.org/Graphics/SVG/1.1/DTD/svg11.dtd"><svg class="icon" width="200px" height="200.00px" viewBox="0 0 1024 1024" version="1.1" xmlns="http://www.w3.org/2000/svg"><path fill="#000000" d="M847.488 156.352l52.032 52.032-720.64 720.64-52.032-52.096 720.64-720.64z m56.32 194.56v72.512h65.024v203.648h-65.024v229.056H454.912v-73.6h375.296v-155.52l-64.96 0.064V423.488h64.96V350.848h73.6z m-334.72-150.4v73.6H193.792v155.52l64.96-0.128v203.648H193.792v72.512h-73.6V633.152H55.168V429.44l65.024 0.064V200.512h448.896z m-374.4 292.992l-0.896 0.064v3.456h-73.6v-3.456h-1.024v75.584l1.024 0.064V565.76h73.6v3.456h0.96V493.44z m709.12-6.144v3.456h-73.6v-3.456l-0.96 0.064v75.648h0.96v-3.52h73.6v3.456l1.024 0.064V487.424h-1.024z" /></svg>