<?xml version="1.0" encoding="UTF-8"?>
<svg width="16px" height="16px" viewBox="0 0 16 16" version="1.1" xmlns="http://www.w3.org/2000/svg" xmlns:xlink="http://www.w3.org/1999/xlink">
    <title>expend</title>
    <g id="expend" stroke="none" stroke-width="1" fill="none" fill-rule="evenodd">
        <g fill-rule="nonzero">
            <rect id="矩形" opacity="0" x="0" y="0" width="16" height="16"></rect>
            <path d="M5.34375,1.375 L1.875,1.375 C1.5984375,1.375 1.375,1.5984375 1.375,1.875 L1.375,5.375 C1.375,5.5125 1.4875,5.625 1.625,5.625 L2.375,5.625 C2.5125,5.625 2.625,5.5125 2.625,5.375 L2.625,2.625 L5.34375,2.625 C5.48125,2.625 5.59375,2.5125 5.59375,2.375 L5.59375,1.625 C5.59375,1.4875 5.48125,1.375 5.34375,1.375 Z M14.375,10.375 L13.625,10.375 C13.4875,10.375 13.375,10.4875 13.375,10.625 L13.375,13.375 L10.65625,13.375 C10.51875,13.375 10.40625,13.4875 10.40625,13.625 L10.40625,14.375 C10.40625,14.5125 10.51875,14.625 10.65625,14.625 L14.125,14.625 C14.4015625,14.625 14.625,14.4015625 14.625,14.125 L14.625,10.625 C14.625,10.4875 14.5125,10.375 14.375,10.375 Z M5.34375,13.375 L2.625,13.375 L2.625,10.625 C2.625,10.4875 2.5125,10.375 2.375,10.375 L1.625,10.375 C1.4875,10.375 1.375,10.4875 1.375,10.625 L1.375,14.125 C1.375,14.4015625 1.5984375,14.625 1.875,14.625 L5.34375,14.625 C5.48125,14.625 5.59375,14.5125 5.59375,14.375 L5.59375,13.625 C5.59375,13.4875 5.48125,13.375 5.34375,13.375 Z M14.125,1.375 L10.65625,1.375 C10.51875,1.375 10.40625,1.4875 10.40625,1.625 L10.40625,2.375 C10.40625,2.5125 10.51875,2.625 10.65625,2.625 L13.375,2.625 L13.375,5.375 C13.375,5.5125 13.4875,5.625 13.625,5.625 L14.375,5.625 C14.5125,5.625 14.625,5.5125 14.625,5.375 L14.625,1.875 C14.625,1.5984375 14.4015625,1.375 14.125,1.375 Z" id="形状" fill="#000000"></path>
        </g>
    </g>
</svg>