<?xml version="1.0" encoding="UTF-8"?>
<svg width="16px" height="16px" viewBox="0 0 16 16" version="1.1" xmlns="http://www.w3.org/2000/svg" xmlns:xlink="http://www.w3.org/1999/xlink">
    <title>eye-close-fill</title>
    <g id="eye-close-fill" stroke="none" stroke-width="1" fill="none" fill-rule="evenodd">
        <g fill-rule="nonzero">
            <rect id="矩形" opacity="0" x="0" y="0" width="16" height="16"></rect>
            <path d="M14.7234375,7.6 L14.721875,7.5984375 L14.7203125,7.596875 C14.1515625,6.3984375 13.4703125,5.4296875 12.678125,4.690625 L10.459375,6.909375 C10.6046875,7.24375 10.684375,7.6140625 10.684375,8.0015625 C10.684375,9.5203125 9.453125,10.7515625 7.934375,10.7515625 C7.546875,10.7515625 7.1765625,10.671875 6.8421875,10.5265625 L4.9359375,12.4328125 C5.853125,12.871875 6.871875,13.09375 8,13.09375 C11.003125,13.09375 13.240625,11.5234375 14.721875,8.4015625 C14.8421875,8.1484375 14.8421875,7.8546875 14.7234375,7.6 L14.7234375,7.6 Z M13.7234375,2.409375 L13.0609375,1.746875 C13.0125,1.6984375 12.9328125,1.6984375 12.884375,1.746875 L11.059375,3.5703125 C10.146875,3.128125 9.128125,2.90625 8,2.90625 C4.996875,2.90625 2.759375,4.4765625 1.278125,7.5984375 L1.278125,7.6 C1.1578125,7.853125 1.1578125,8.15 1.278125,8.4046875 C1.846875,9.603125 2.528125,10.571875 3.3203125,11.3125 L1.746875,12.8828125 C1.6984375,12.93125 1.6984375,13.0109375 1.746875,13.059375 L2.409375,13.721875 C2.4578125,13.7703125 2.5375,13.7703125 2.5859375,13.721875 L13.7234375,2.584375 C13.771875,2.5375 13.771875,2.4578125 13.7234375,2.409375 Z M5.4515625,9.178125 C5.2828125,8.8203125 5.1875,8.421875 5.1875,8 C5.1875,6.48125 6.41875,5.25 7.9375,5.25 C8.359375,5.25 8.7578125,5.3453125 9.115625,5.5140625 L5.4515625,9.178125 Z" id="形状" fill="#000000"></path>
        </g>
    </g>
</svg>