<?xml version="1.0" encoding="UTF-8"?>
<svg width="16px" height="16px" viewBox="0 0 16 16" version="1.1" xmlns="http://www.w3.org/2000/svg" xmlns:xlink="http://www.w3.org/1999/xlink">
    <title>file-image-fill</title>
    <g id="file-image-fill" stroke="none" stroke-width="1" fill="none" fill-rule="evenodd">
        <g fill-rule="nonzero">
            <rect id="矩形" opacity="0" x="0" y="0" width="16" height="16"></rect>
            <path d="M13.353125,4.5109375 L9.990625,1.146875 C9.896875,1.053125 9.76875,1 9.6359375,1 L3,1 C2.7234375,1 2.5,1.2234375 2.5,1.5 L2.5,14.5 C2.5,14.7765625 2.7234375,15 3,15 L13,15 C13.2765625,15 13.5,14.7765625 13.5,14.5 L13.5,4.8640625 C13.5,4.73125 13.446875,4.6046875 13.353125,4.5109375 Z M6.25,6.28125 C6.5953125,6.28125 6.875,6.5609375 6.875,6.90625 C6.875,7.2515625 6.5953125,7.53125 6.25,7.53125 C5.9046875,7.53125 5.625,7.2515625 5.625,6.90625 C5.625,6.5609375 5.9046875,6.28125 6.25,6.28125 Z M10.875,10.875 L5.125,10.875 C5.0203125,10.875 4.9625,10.7546875 5.0265625,10.6734375 L6.5859375,8.6859375 C6.6359375,8.621875 6.7328125,8.621875 6.7828125,8.6859375 L7.425,9.5046875 L8.640625,7.9546875 C8.690625,7.890625 8.7875,7.890625 8.8375,7.9546875 L10.9703125,10.6734375 C11.0375,10.7546875 10.978125,10.875 10.875,10.875 L10.875,10.875 Z M9.40625,5.09375 L9.40625,2.153125 L12.346875,5.09375 L9.40625,5.09375 Z" id="形状" fill="#000000"></path>
        </g>
    </g>
</svg>