<?xml version="1.0" encoding="UTF-8"?>
<svg width="16px" height="16px" viewBox="0 0 16 16" version="1.1" xmlns="http://www.w3.org/2000/svg" xmlns:xlink="http://www.w3.org/1999/xlink">
    <title>file-search</title>
    <g id="file-search" stroke="none" stroke-width="1" fill="none" fill-rule="evenodd">
        <g fill-rule="nonzero">
            <rect id="矩形" opacity="0" x="0" y="0" width="16" height="16"></rect>
            <path d="M10.75,4.875 L10.75,4.125 C10.75,4.05625 10.69375,4 10.625,4 L4.625,4 C4.55625,4 4.5,4.05625 4.5,4.125 L4.5,4.875 C4.5,4.94375 4.55625,5 4.625,5 L10.625,5 C10.69375,5 10.75,4.94375 10.75,4.875 Z M4.625,6.25 C4.55625,6.25 4.5,6.30625 4.5,6.375 L4.5,7.125 C4.5,7.19375 4.55625,7.25 4.625,7.25 L7.5,7.25 C7.56875,7.25 7.625,7.19375 7.625,7.125 L7.625,6.375 C7.625,6.30625 7.56875,6.25 7.5,6.25 L4.625,6.25 Z M6.875,13.3125 L3.25,13.3125 L3.25,2.3125 L12,2.3125 L12,7.6875 C12,7.75625 12.05625,7.8125 12.125,7.8125 L13,7.8125 C13.06875,7.8125 13.125,7.75625 13.125,7.6875 L13.125,1.6875 C13.125,1.4109375 12.9015625,1.1875 12.625,1.1875 L2.625,1.1875 C2.3484375,1.1875 2.125,1.4109375 2.125,1.6875 L2.125,13.9375 C2.125,14.2140625 2.3484375,14.4375 2.625,14.4375 L6.875,14.4375 C6.94375,14.4375 7,14.38125 7,14.3125 L7,13.4375 C7,13.36875 6.94375,13.3125 6.875,13.3125 Z M13.8390625,14.1171875 L12.38125,12.659375 C12.7296875,12.1984375 12.9375,11.6234375 12.9375,11 C12.9375,9.48125 11.70625,8.25 10.1875,8.25 C8.66875,8.25 7.4375,9.48125 7.4375,11 C7.4375,12.51875 8.66875,13.75 10.1875,13.75 C10.746875,13.75 11.265625,13.5828125 11.7,13.296875 L13.1796875,14.7765625 C13.2046875,14.8015625 13.2359375,14.8125 13.2671875,14.8125 C13.2984375,14.8125 13.33125,14.8 13.3546875,14.7765625 L13.8390625,14.2921875 C13.8875,14.24375 13.8875,14.165625 13.8390625,14.1171875 Z M10.1875,12.75 C9.2203125,12.75 8.4375,11.9671875 8.4375,11 C8.4375,10.0328125 9.2203125,9.25 10.1875,9.25 C11.1546875,9.25 11.9375,10.0328125 11.9375,11 C11.9375,11.9671875 11.1546875,12.75 10.1875,12.75 Z" id="形状" fill="#000000"></path>
        </g>
    </g>
</svg>