<?xml version="1.0" encoding="UTF-8"?>
<svg width="16px" height="16px" viewBox="0 0 16 16" version="1.1" xmlns="http://www.w3.org/2000/svg" xmlns:xlink="http://www.w3.org/1999/xlink">
    <title>file-pdf-fill</title>
    <g id="file-pdf-fill" stroke="none" stroke-width="1" fill="none" fill-rule="evenodd">
        <g fill-rule="nonzero">
            <rect id="矩形" opacity="0" x="0" y="0" width="16" height="16"></rect>
            <path d="M13.353125,4.5109375 C13.446875,4.6046875 13.5,4.73125 13.5,4.8640625 L13.5,14.5 C13.5,14.7765625 13.2765625,15 13,15 L3,15 C2.7234375,15 2.5,14.7765625 2.5,14.5 L2.5,1.5 C2.5,1.2234375 2.7234375,1 3,1 L9.6359375,1 C9.76875,1 9.896875,1.053125 9.990625,1.146875 L13.353125,4.5109375 Z M12.346875,5.09375 L9.40625,2.153125 L9.40625,5.09375 L12.346875,5.09375 Z M9.89401563,9.957125 C9.65692188,9.94948438 9.40473438,9.96759375 9.11823438,10.0034375 C8.73857813,9.76926563 8.48301563,9.44746875 8.30145313,8.97489063 C8.30582812,8.95689062 8.31489063,8.91960938 8.3180625,8.90645313 C8.32546875,8.87585938 8.33160937,8.85029688 8.33748438,8.8254375 C8.4045625,8.54215625 8.44084375,8.33546875 8.45154688,8.12707813 C8.45964063,7.96967188 8.45092188,7.82445313 8.423,7.68995313 C8.37146875,7.39957813 8.16590625,7.22975 7.90704688,7.21923438 C7.66570313,7.2094375 7.44378125,7.344125 7.38703125,7.5531875 C7.29464062,7.890875 7.34875,8.33553125 7.54453125,9.09353125 C7.29509375,9.68815625 6.96559375,10.3851094 6.74448437,10.7738281 C6.44940625,10.9260156 6.21942188,11.0645313 6.02646875,11.218 C5.77173437,11.4205938 5.61271875,11.6287813 5.568875,11.8477813 C5.54770312,11.9490313 5.5796875,12.081625 5.652625,12.1901563 C5.735375,12.3132656 5.86015625,12.3931406 6.00973438,12.4047656 C6.38710937,12.4340938 6.85082812,12.0450156 7.36270313,11.1663594 C7.4141875,11.1493281 7.46864062,11.1310938 7.53498438,11.1087031 C7.57128125,11.0964688 7.69848437,11.0534219 7.72107813,11.0457969 C7.83859375,11.0061094 7.92389063,10.9776719 8.00820312,10.9502344 C8.37376562,10.8312969 8.65032812,10.7560313 8.90210938,10.7133125 C9.3391875,10.9472656 9.84454688,11.10075 10.1848906,11.10075 C10.4658125,11.10075 10.6556094,10.9551406 10.7241875,10.7259844 C10.7844531,10.5246406 10.7365938,10.2912344 10.6074219,10.1621719 C10.4736719,10.0307656 10.2277344,9.96789063 9.89401563,9.957125 L9.89401563,9.957125 Z M6.01924995,11.9636875 L6.01924995,11.9580625 L6.02121875,11.9527812 C6.04114062,11.8993281 6.07054687,11.8432812 6.10871875,11.7846875 C6.17565625,11.6819375 6.26767187,11.57375 6.38171875,11.4586719 C6.44296875,11.396875 6.50675,11.3367969 6.5815625,11.2692969 C6.59832812,11.2541562 6.70515625,11.159 6.72514062,11.1403906 L6.89976562,10.9777812 L6.77289062,11.179875 C6.58029687,11.4867187 6.40632812,11.7076875 6.2570625,11.8518125 C6.20226562,11.9047344 6.1539375,11.944 6.11501562,11.9690781 C6.09896875,11.9794219 6.08507812,11.9869531 6.0741875,11.9913281 C6.06779687,11.993875 6.06214062,11.9955156 6.05653125,11.9960469 C6.05059515,11.9967436 6.04457994,11.995882 6.03907812,11.9935469 C6.02704821,11.9885077 6.01922738,11.9767302 6.01924995,11.9636875 Z M7.98696875,8.55323437 L7.95165625,8.61584375 L7.9299375,8.54732812 C7.88128125,8.39375 7.84576562,8.1623125 7.8359375,7.953625 C7.82475,7.71617187 7.84359375,7.57357812 7.91853125,7.57357812 C8.02384375,7.57357812 8.07214062,7.74245312 8.07596875,7.99628125 C8.07934375,8.21940625 8.04425,8.451625 7.98696875,8.55323437 Z M7.8961875,9.46673437 L7.92015625,9.40345312 L7.95278125,9.46275 C8.1354375,9.79470312 8.3724375,10.0716094 8.6330625,10.2645469 L8.68923437,10.3061406 L8.62079687,10.3202656 C8.36567188,10.3729531 8.12792187,10.4524062 7.80298437,10.5834219 C7.83695312,10.5697344 7.465125,10.7219062 7.37114062,10.7579375 L7.28907812,10.7893906 L7.33285937,10.7131875 C7.52582813,10.3773125 7.70407812,9.97371875 7.89617187,9.46673437 L7.8961875,9.46673437 Z M10.3590937,10.6583125 C10.2362187,10.7068125 9.97195312,10.6634531 9.50645313,10.4647656 L9.3883125,10.4143438 L9.51642187,10.4048594 C9.88040625,10.3779219 10.1384062,10.3979844 10.2886406,10.4529844 C10.3525469,10.4763906 10.3952656,10.5059219 10.4142187,10.53975 C10.4346875,10.57625 10.4253125,10.6149062 10.3929375,10.6383437 C10.3859375,10.6450156 10.3748906,10.6520937 10.3590937,10.6583125 L10.3590937,10.6583125 Z" id="形状" fill="#000000"></path>
        </g>
    </g>
</svg>