<?xml version="1.0" encoding="UTF-8"?>
<svg width="16px" height="16px" viewBox="0 0 16 16" version="1.1" xmlns="http://www.w3.org/2000/svg" xmlns:xlink="http://www.w3.org/1999/xlink">
    <title>file-copy-fill</title>
    <g id="file-copy-fill" stroke="none" stroke-width="1" fill="none" fill-rule="evenodd">
        <g fill-rule="nonzero">
            <rect id="矩形" opacity="0" x="0" y="0" width="16" height="16"></rect>
            <path d="M13,1 L4.625,1 C4.55625,1 4.5,1.05625 4.5,1.125 L4.5,2 C4.5,2.06875 4.55625,2.125 4.625,2.125 L12.375,2.125 L12.375,12.875 C12.375,12.94375 12.43125,13 12.5,13 L13.375,13 C13.44375,13 13.5,12.94375 13.5,12.875 L13.5,1.5 C13.5,1.2234375 13.2765625,1 13,1 Z M11,3 L3,3 C2.7234375,3 2.5,3.2234375 2.5,3.5 L2.5,11.7921875 C2.5,11.925 2.553125,12.0515625 2.646875,12.1453125 L5.3546875,14.853125 C5.3890625,14.8875 5.428125,14.915625 5.4703125,14.9390625 L5.4703125,14.96875 L5.5359375,14.96875 C5.590625,14.9890625 5.6484375,15 5.7078125,15 L11,15 C11.2765625,15 11.5,14.7765625 11.5,14.5 L11.5,3.5 C11.5,3.2234375 11.2765625,3 11,3 Z M5.96875,14 L5.965625,14 L3.625,11.659375 L3.625,11.65625 L5.96875,11.65625 L5.96875,14 Z" id="形状" fill="#000000"></path>
        </g>
    </g>
</svg>