<?xml version="1.0" encoding="UTF-8"?>
<svg width="16px" height="16px" viewBox="0 0 16 16" version="1.1" xmlns="http://www.w3.org/2000/svg" xmlns:xlink="http://www.w3.org/1999/xlink">
    <title>file-sync</title>
    <g id="file-sync" stroke="none" stroke-width="1" fill="none" fill-rule="evenodd">
        <g fill-rule="nonzero">
            <rect id="矩形" opacity="0" x="0" y="0" width="16" height="16"></rect>
            <path d="M4.625,4 C4.55625,4 4.5,4.05625 4.5,4.125 L4.5,4.875 C4.5,4.94375 4.55625,5 4.625,5 L10.625,5 C10.69375,5 10.75,4.94375 10.75,4.875 L10.75,4.125 C10.75,4.05625 10.69375,4 10.625,4 L4.625,4 Z M7.625,7.125 L7.625,6.375 C7.625,6.30625 7.56875,6.25 7.5,6.25 L4.625,6.25 C4.55625,6.25 4.5,6.30625 4.5,6.375 L4.5,7.125 C4.5,7.19375 4.55625,7.25 4.625,7.25 L7.5,7.25 C7.56875,7.25 7.625,7.19375 7.625,7.125 Z M6.875,13.3125 L3.25,13.3125 L3.25,2.3125 L12,2.3125 L12,7.6875 C12,7.75625 12.05625,7.8125 12.125,7.8125 L13,7.8125 C13.06875,7.8125 13.125,7.75625 13.125,7.6875 L13.125,1.6875 C13.125,1.4109375 12.9015625,1.1875 12.625,1.1875 L2.625,1.1875 C2.3484375,1.1875 2.125,1.4109375 2.125,1.6875 L2.125,13.9375 C2.125,14.2140625 2.3484375,14.4375 2.625,14.4375 L6.875,14.4375 C6.94375,14.4375 7,14.38125 7,14.3125 L7,13.4375 C7,13.36875 6.94375,13.3125 6.875,13.3125 Z M8.5015625,11.50625 C8.5296875,10.9671875 8.7546875,10.4625 9.1390625,10.078125 C9.5484375,9.66875 10.1078125,9.4375 10.6875,9.4375 C11.271875,9.4375 11.821875,9.665625 12.2359375,10.078125 C12.2859375,10.128125 12.334375,10.18125 12.3796875,10.2359375 L12.01875,10.515625 C11.9359375,10.5796875 11.9640625,10.7109375 12.065625,10.7359375 L13.5234375,11.0875 C13.6015625,11.10625 13.6765625,11.046875 13.678125,10.9671875 L13.6875,9.4765625 C13.6875,9.371875 13.56875,9.3125 13.4859375,9.3765625 L13.16875,9.6234375 C12.584375,8.9 11.6890625,8.4375 10.6875,8.4375 C8.9703125,8.4375 7.56875,9.7953125 7.5,11.4953125 C7.496875,11.565625 7.5546875,11.625 7.625,11.625 L8.3765625,11.625 C8.44375,11.625 8.4984375,11.5734375 8.5015625,11.50625 Z M13.75,11.625 L12.9984375,11.625 C12.93125,11.625 12.8765625,11.6765625 12.8734375,11.74375 C12.8453125,12.2828125 12.6203125,12.7875 12.2359375,13.171875 C11.8265625,13.58125 11.2671875,13.8125 10.6875,13.8125 C10.103125,13.8125 9.553125,13.584375 9.1390625,13.171875 C9.0890625,13.121875 9.040625,13.06875 8.9953125,13.0140625 L9.35625,12.734375 C9.4390625,12.6703125 9.4109375,12.5390625 9.309375,12.5140625 L7.8515625,12.1625 C7.7734375,12.14375 7.6984375,12.203125 7.696875,12.2828125 L7.6875,13.7734375 C7.6875,13.878125 7.80625,13.9375 7.8890625,13.8734375 L8.20625,13.6265625 C8.790625,14.35 9.6859375,14.8125 10.6875,14.8125 C12.4046875,14.8125 13.80625,13.4546875 13.875,11.7546875 C13.878125,11.684375 13.8203125,11.625 13.75,11.625 Z" id="形状" fill="#000000"></path>
        </g>
    </g>
</svg>