<?xml version="1.0" encoding="UTF-8"?>
<svg width="16px" height="16px" viewBox="0 0 16 16" version="1.1" xmlns="http://www.w3.org/2000/svg" xmlns:xlink="http://www.w3.org/1999/xlink">
    <title>folder-view</title>
    <g id="folder-view" stroke="none" stroke-width="1" fill="none" fill-rule="evenodd">
        <g fill-rule="nonzero">
            <rect id="矩形" opacity="0" x="0" y="0" width="16" height="16"></rect>
            <path d="M4.8296875,8.6609375 C4.7453125,8.8421875 4.7453125,9.05 4.8296875,9.2296875 C5.5203125,10.6875 6.5875,11.4375 8.0078125,11.4375 C9.428125,11.4375 10.4953125,10.6859375 11.1859375,9.2296875 C11.2703125,9.05 11.2703125,8.8421875 11.1875,8.6625 L11.1859375,8.6609375 L11.184375,8.659375 C10.4953125,7.203125 9.428125,6.453125 8.0078125,6.453125 C6.5875,6.453125 5.5203125,7.2046875 4.8296875,8.6609375 Z M8.0078125,7.453125 C8.978125,7.453125 9.6859375,7.921875 10.2125,8.9453125 C9.6875,9.96875 8.978125,10.4375 8.0078125,10.4375 C7.0375,10.4375 6.3296875,9.96875 5.803125,8.9453125 C6.3296875,7.921875 7.0375,7.453125 8.0078125,7.453125 Z M7.140625,8.953125 C7.140625,9.43637416 7.53237584,9.828125 8.015625,9.828125 C8.49887416,9.828125 8.890625,9.43637416 8.890625,8.953125 C8.890625,8.46987584 8.49887416,8.078125 8.015625,8.078125 C7.53237584,8.078125 7.140625,8.46987584 7.140625,8.953125 L7.140625,8.953125 Z M13.75,4.6625 L8.140625,4.6625 L6.3078125,2.909375 C6.284375,2.8875 6.253125,2.875 6.221875,2.875 L2.25,2.875 C1.9734375,2.875 1.75,3.0984375 1.75,3.375 L1.75,12.625 C1.75,12.9015625 1.9734375,13.125 2.25,13.125 L13.75,13.125 C14.0265625,13.125 14.25,12.9015625 14.25,12.625 L14.25,5.1625 C14.25,4.8859375 14.0265625,4.6625 13.75,4.6625 Z M13.125,12 L2.875,12 L2.875,4 L5.8203125,4 L7.6890625,5.7875 L13.125,5.7875 L13.125,12 Z" id="形状" fill="#000000"></path>
        </g>
    </g>
</svg>