<?xml version="1.0" encoding="UTF-8"?>
<svg width="16px" height="16px" viewBox="0 0 16 16" version="1.1" xmlns="http://www.w3.org/2000/svg" xmlns:xlink="http://www.w3.org/1999/xlink">
    <title>folder-open</title>
    <g id="folder-open" stroke="none" stroke-width="1" fill="none" fill-rule="evenodd">
        <g fill-rule="nonzero">
            <rect id="矩形" opacity="0" x="0" y="0" width="16" height="16"></rect>
            <path d="M14.5,6.9375 L12.8125,6.9375 L12.8125,5.1625 C12.8125,4.8859375 12.5890625,4.6625 12.3125,4.6625 L7.390625,4.6625 L5.5578125,2.909375 C5.534375,2.8875 5.503125,2.875 5.471875,2.875 L1.5,2.875 C1.2234375,2.875 1,3.0984375 1,3.375 L1,12.625 C1,12.9015625 1.2234375,13.125 1.5,13.125 L12.40625,13.125 C12.609375,13.125 12.79375,13.0015625 12.8703125,12.8125 L14.9640625,7.625 C14.9875,7.565625 15,7.5015625 15,7.4375 C15,7.1609375 14.7765625,6.9375 14.5,6.9375 Z M2.125,4 L5.0703125,4 L6.9390625,5.7875 L11.6875,5.7875 L11.6875,6.9375 L3.71875,6.9375 C3.515625,6.9375 3.33125,7.0609375 3.2546875,7.25 L2.125,10.05 L2.125,4 Z M12.0515625,12 L2.484375,12 L4.0984375,8 L13.6671875,8 L12.0515625,12 Z" id="形状" fill="#000000"></path>
        </g>
    </g>
</svg>