<?xml version="1.0" encoding="UTF-8"?>
<svg width="16px" height="16px" viewBox="0 0 16 16" version="1.1" xmlns="http://www.w3.org/2000/svg" xmlns:xlink="http://www.w3.org/1999/xlink">
    <title>gateway</title>
    <g id="gateway" stroke="none" stroke-width="1" fill="none" fill-rule="evenodd">
        <g fill-rule="nonzero">
            <rect id="矩形" opacity="0" x="0" y="0" width="16" height="16"></rect>
            <path d="M14.5,6.125 C14.6375,6.125 14.75,6.0125 14.75,5.875 L14.75,3 C14.75,2.8625 14.6375,2.75 14.5,2.75 L11.625,2.75 C11.4875,2.75 11.375,2.8625 11.375,3 L11.375,3.875 L4.625,3.875 L4.625,3 C4.625,2.8625 4.5125,2.75 4.375,2.75 L1.5,2.75 C1.3625,2.75 1.25,2.8625 1.25,3 L1.25,5.875 C1.25,6.0125 1.3625,6.125 1.5,6.125 L2.375,6.125 L2.375,9.875 L1.5,9.875 C1.3625,9.875 1.25,9.9875 1.25,10.125 L1.25,13 C1.25,13.1375 1.3625,13.25 1.5,13.25 L4.375,13.25 C4.5125,13.25 4.625,13.1375 4.625,13 L4.625,12.125 L11.375,12.125 L11.375,13 C11.375,13.1375 11.4875,13.25 11.625,13.25 L14.5,13.25 C14.6375,13.25 14.75,13.1375 14.75,13 L14.75,10.125 C14.75,9.9875 14.6375,9.875 14.5,9.875 L13.625,9.875 L13.625,6.125 L14.5,6.125 Z M12.375,3.75 L13.75,3.75 L13.75,5.125 L12.375,5.125 L12.375,3.75 Z M2.25,5.125 L2.25,3.75 L3.625,3.75 L3.625,5.125 L2.25,5.125 Z M3.625,12.25 L2.25,12.25 L2.25,10.875 L3.625,10.875 L3.625,12.25 Z M13.75,10.875 L13.75,12.25 L12.375,12.25 L12.375,10.875 L13.75,10.875 Z M12.5,9.875 L11.625,9.875 C11.4875,9.875 11.375,9.9875 11.375,10.125 L11.375,11 L4.625,11 L4.625,10.125 C4.625,9.9875 4.5125,9.875 4.375,9.875 L3.5,9.875 L3.5,6.125 L4.375,6.125 C4.5125,6.125 4.625,6.0125 4.625,5.875 L4.625,5 L11.375,5 L11.375,5.875 C11.375,6.0125 11.4875,6.125 11.625,6.125 L12.5,6.125 L12.5,9.875 Z" id="形状" fill="#000000"></path>
        </g>
    </g>
</svg>