<?xml version="1.0" encoding="UTF-8"?>
<svg width="16px" height="16px" viewBox="0 0 16 16" version="1.1" xmlns="http://www.w3.org/2000/svg" xmlns:xlink="http://www.w3.org/1999/xlink">
    <title>hourglass-fill</title>
    <g id="hourglass-fill" stroke="none" stroke-width="1" fill="none" fill-rule="evenodd">
        <g fill-rule="nonzero">
            <rect id="矩形" opacity="0" x="0" y="0" width="16" height="16"></rect>
            <path d="M11.59375,4.96875 L11.59375,2.875 L12.9375,2.875 C13.00625,2.875 13.0625,2.81875 13.0625,2.75 L13.0625,1.875 C13.0625,1.80625 13.00625,1.75 12.9375,1.75 L3.0625,1.75 C2.99375,1.75 2.9375,1.80625 2.9375,1.875 L2.9375,2.75 C2.9375,2.81875 2.99375,2.875 3.0625,2.875 L4.40625,2.875 L4.40625,4.96875 C4.40625,6.2421875 5.06875,7.3625 6.06875,8 C5.06875,8.6375 4.40625,9.7578125 4.40625,11.03125 L4.40625,13.125 L3.0625,13.125 C2.99375,13.125 2.9375,13.18125 2.9375,13.25 L2.9375,14.125 C2.9375,14.19375 2.99375,14.25 3.0625,14.25 L12.9375,14.25 C13.00625,14.25 13.0625,14.19375 13.0625,14.125 L13.0625,13.25 C13.0625,13.18125 13.00625,13.125 12.9375,13.125 L11.59375,13.125 L11.59375,11.03125 C11.59375,9.7578125 10.93125,8.6375 9.93125,8 C10.93125,7.3625 11.59375,6.2421875 11.59375,4.96875 Z" id="路径" fill="#000000"></path>
        </g>
    </g>
</svg>