<?xml version="1.0" encoding="UTF-8"?>
<svg width="16px" height="16px" viewBox="0 0 16 16" version="1.1" xmlns="http://www.w3.org/2000/svg" xmlns:xlink="http://www.w3.org/1999/xlink">
    <title>Import</title>
    <g id="Import" stroke="none" stroke-width="1" fill="none" fill-rule="evenodd">
        <g fill-rule="nonzero">
            <rect id="矩形" opacity="0" x="0" y="0" width="16" height="16"></rect>
            <path d="M13.8796875,11.834375 L13.0390625,11.834375 C12.9734375,11.834375 12.91875,11.8890625 12.91875,11.9546875 L12.91875,12.9203125 L3.0796875,12.9203125 L3.0796875,3.0796875 L12.9203125,3.0796875 L12.9203125,4.0453125 C12.9203125,4.1109375 12.975,4.165625 13.040625,4.165625 L13.88125,4.165625 C13.946875,4.165625 14.0015625,4.1125 14.0015625,4.0453125 L14.0015625,2.4796875 C14.0015625,2.2140625 13.7875,2 13.521875,2 L2.4796875,2 C2.2140625,2 2,2.2140625 2,2.4796875 L2,13.5203125 C2,13.7859375 2.2140625,14 2.4796875,14 L13.5203125,14 C13.7859375,14 14,13.7859375 14,13.5203125 L14,11.9546875 C14,11.8875 13.9453125,11.834375 13.8796875,11.834375 Z M14.09375,7.4375 L9.1875,7.4375 L9.1875,6.25 C9.1875,6.1453125 9.065625,6.0859375 8.984375,6.1515625 L6.7671875,7.9015625 C6.703125,7.9515625 6.703125,8.0484375 6.7671875,8.0984375 L8.984375,9.8484375 C9.0671875,9.9140625 9.1875,9.8546875 9.1875,9.75 L9.1875,8.5625 L14.09375,8.5625 C14.1625,8.5625 14.21875,8.50625 14.21875,8.4375 L14.21875,7.5625 C14.21875,7.49375 14.1625,7.4375 14.09375,7.4375 Z" id="形状" fill="#000000"></path>
        </g>
    </g>
</svg>