<?xml version="1.0" encoding="UTF-8"?>
<svg width="16px" height="16px" viewBox="0 0 16 16" version="1.1" xmlns="http://www.w3.org/2000/svg" xmlns:xlink="http://www.w3.org/1999/xlink">
    <title>indent</title>
    <g id="indent" stroke="none" stroke-width="1" fill="none" fill-rule="evenodd">
        <g fill-rule="nonzero">
            <rect id="矩形" opacity="0" x="0" y="0" width="16" height="16"></rect>
            <path d="M6.375,6.90625 L13.875,6.90625 C13.94375,6.90625 14,6.85 14,6.78125 L14,5.90625 C14,5.8375 13.94375,5.78125 13.875,5.78125 L6.375,5.78125 C6.30625,5.78125 6.25,5.8375 6.25,5.90625 L6.25,6.78125 C6.25,6.85 6.30625,6.90625 6.375,6.90625 Z M6.25,10.09375 C6.25,10.1625 6.30625,10.21875 6.375,10.21875 L13.875,10.21875 C13.94375,10.21875 14,10.1625 14,10.09375 L14,9.21875 C14,9.15 13.94375,9.09375 13.875,9.09375 L6.375,9.09375 C6.30625,9.09375 6.25,9.15 6.25,9.21875 L6.25,10.09375 Z M14.125,2.5 L1.875,2.5 C1.80625,2.5 1.75,2.55625 1.75,2.625 L1.75,3.5 C1.75,3.56875 1.80625,3.625 1.875,3.625 L14.125,3.625 C14.19375,3.625 14.25,3.56875 14.25,3.5 L14.25,2.625 C14.25,2.55625 14.19375,2.5 14.125,2.5 Z M14.125,12.375 L1.875,12.375 C1.80625,12.375 1.75,12.43125 1.75,12.5 L1.75,13.375 C1.75,13.44375 1.80625,13.5 1.875,13.5 L14.125,13.5 C14.19375,13.5 14.25,13.44375 14.25,13.375 L14.25,12.5 C14.25,12.43125 14.19375,12.375 14.125,12.375 Z M2.225,10.0328125 L4.6671875,8.109375 C4.7375,8.0546875 4.7375,7.9484375 4.6671875,7.8921875 L2.225,5.9671875 C2.134375,5.8953125 2,5.959375 2,6.075 L2,9.9234375 C2,10.0390625 2.1328125,10.1046875 2.225,10.0328125 L2.225,10.0328125 Z" id="形状" fill="#000000"></path>
        </g>
    </g>
</svg>