<?xml version="1.0" encoding="UTF-8"?>
<svg width="16px" height="16px" viewBox="0 0 16 16" version="1.1" xmlns="http://www.w3.org/2000/svg" xmlns:xlink="http://www.w3.org/1999/xlink">
    <title>info-circle-fill</title>
    <g id="info-circle-fill" stroke="none" stroke-width="1" fill="none" fill-rule="evenodd">
        <g fill-rule="nonzero">
            <rect id="矩形" opacity="0" x="0" y="0" width="16" height="16"></rect>
            <path d="M8,1 C4.134375,1 1,4.134375 1,8 C1,11.865625 4.134375,15 8,15 C11.865625,15 15,11.865625 15,8 C15,4.134375 11.865625,1 8,1 Z M8.5,11.375 C8.5,11.44375 8.44375,11.5 8.375,11.5 L7.625,11.5 C7.55625,11.5 7.5,11.44375 7.5,11.375 L7.5,7.125 C7.5,7.05625 7.55625,7 7.625,7 L8.375,7 C8.44375,7 8.5,7.05625 8.5,7.125 L8.5,11.375 Z M8,6 C7.5859375,6 7.25,5.6640625 7.25,5.25 C7.25,4.8359375 7.5859375,4.5 8,4.5 C8.4140625,4.5 8.75,4.8359375 8.75,5.25 C8.75,5.6640625 8.4140625,6 8,6 Z" id="形状" fill="#000000"></path>
        </g>
    </g>
</svg>