<?xml version="1.0" encoding="UTF-8"?>
<svg width="16px" height="16px" viewBox="0 0 16 16" version="1.1" xmlns="http://www.w3.org/2000/svg" xmlns:xlink="http://www.w3.org/1999/xlink">
    <title>insurance-fill</title>
    <g id="insurance-fill" stroke="none" stroke-width="1" fill="none" fill-rule="evenodd">
        <g fill-rule="nonzero">
            <rect id="矩形" opacity="0" x="0" y="0" width="16" height="16"></rect>
            <path d="M8.1234375,5.60625 L9.653125,5.60625 L9.653125,6.25625 L8.1234375,6.25625 L8.1234375,5.60625 Z M13.5453125,2.6546875 L8.2359375,0.8453125 C8.171875,0.8234375 8.0859375,0.8125 8,0.8125 C7.9140625,0.8125 7.828125,0.8234375 7.7640625,0.8453125 L2.4546875,2.6546875 C2.325,2.6984375 2.21875,2.8484375 2.21875,2.9859375 L2.21875,10.5234375 C2.21875,10.6609375 2.3078125,10.8421875 2.415625,10.928125 L7.8015625,15.125 C7.85625,15.1671875 7.9265625,15.1890625 7.9984375,15.1890625 C8.0703125,15.1890625 8.1421875,15.1671875 8.1953125,15.125 L13.58125,10.928125 C13.6890625,10.84375 13.7781922,10.6625 13.7781922,10.5234375 L13.7781922,2.9859375 C13.78125,2.8484375 13.675,2.7 13.5453125,2.6546875 Z M6.4265625,10.25 L6.4234375,10.25 C6.4234375,10.31875 6.3671875,10.375 6.2984375,10.375 L5.715625,10.375 C5.646875,10.375 5.590625,10.31875 5.590625,10.25 L5.590625,7.365625 C5.4703125,7.509375 5.35,7.6453125 5.2296875,7.771875 C5.1796875,7.825 5.0921875,7.8046875 5.0703125,7.734375 L4.8640625,7.0546875 C4.8546875,7.0234375 4.8609375,6.990625 4.8828125,6.9671875 C5.4609375,6.2890625 5.89375,5.48125 6.1671875,4.5671875 C6.184375,4.5125 6.2453125,4.484375 6.2984375,4.509375 L6.9015625,4.7953125 C6.94375,4.815625 6.965625,4.8640625 6.9515625,4.9078125 C6.81875,5.334375 6.6421875,5.75 6.4265625,6.1421875 L6.4265625,10.25 L6.4265625,10.25 Z M11.059375,9.48125 L10.6484375,10.0328125 C10.6140625,10.078125 10.55,10.0828125 10.509375,10.04375 C10.03125,9.5859375 9.621875,9.025 9.2890625,8.3734375 L9.2890625,10.25 C9.2890625,10.31875 9.2328125,10.375 9.1640625,10.375 L8.5984375,10.375 C8.5296875,10.375 8.4734375,10.31875 8.4734375,10.25 L8.4734375,8.375 C8.1296875,9.0734375 7.7078125,9.6375 7.2140625,10.05625 C7.19354122,10.0739855 7.16625095,10.081784 7.13945716,10.0775692 C7.11266336,10.0733545 7.08908525,10.0575542 7.075,10.034375 L6.71875,9.4640625 C6.6921875,9.421875 6.703125,9.365625 6.74375,9.3375 C7.190625,9.0203125 7.5546875,8.63125 7.853125,8.15 L6.9921875,8.15 C6.9234375,8.15 6.8671875,8.09375 6.8671875,8.025 L6.8671875,7.46875 C6.8671875,7.4 6.9234375,7.34375 6.9921875,7.34375 L8.475,7.34375 L8.475,7.053125 L7.4453125,7.053125 C7.3765625,7.053125 7.3203125,6.996875 7.3203125,6.928125 L7.3203125,4.9375 C7.3203125,4.86875 7.3765625,4.8125 7.4453125,4.8125 L10.33125,4.8125 C10.4,4.8125 10.45625,4.86875 10.45625,4.9375 L10.45625,6.925 C10.45625,6.99375 10.4,7.05 10.33125,7.05 L9.2890625,7.05 L9.2890625,7.340625 L10.8328125,7.340625 C10.9015625,7.340625 10.9578125,7.396875 10.9578125,7.465625 L10.9578125,8.021875 C10.9578125,8.090625 10.9015625,8.146875 10.8328125,8.146875 L9.9109375,8.146875 C10.19375,8.6015625 10.5640625,8.9953125 11.040625,9.3484375 C11.08125,9.38125 11.090625,9.440625 11.059375,9.48125 Z" id="形状" fill="#000000"></path>
        </g>
    </g>
</svg>