<?xml version="1.0" encoding="UTF-8"?>
<svg width="16px" height="16px" viewBox="0 0 16 16" version="1.1" xmlns="http://www.w3.org/2000/svg" xmlns:xlink="http://www.w3.org/1999/xlink">
    <title>interation</title>
    <g id="interation" stroke="none" stroke-width="1" fill="none" fill-rule="evenodd">
        <g fill-rule="nonzero">
            <rect id="矩形" opacity="0" x="0" y="0" width="16" height="16"></rect>
            <path d="M13.75,1.75 L2.25,1.75 C1.9734375,1.75 1.75,1.9734375 1.75,2.25 L1.75,13.75 C1.75,14.0265625 1.9734375,14.25 2.25,14.25 L13.75,14.25 C14.0265625,14.25 14.25,14.0265625 14.25,13.75 L14.25,2.25 C14.25,1.9734375 14.0265625,1.75 13.75,1.75 Z M13.125,13.125 L2.875,13.125 L2.875,2.875 L13.125,2.875 L13.125,13.125 Z M4.7625,8.1875 L5.5546875,8.1875 C5.6125,8.1875 5.6609375,8.140625 5.6609375,8.08125 L5.6609375,6.8484375 C5.6609375,6.540625 5.909375,6.2921875 6.215625,6.2921875 L9.4296875,6.2921875 L9.4296875,7.1265625 C9.4296875,7.215625 9.53125,7.2640625 9.6,7.209375 L11.3046875,5.8703125 C11.359375,5.828125 11.359375,5.7453125 11.3046875,5.703125 L9.6,4.3640625 C9.53125,4.309375 9.4296875,4.359375 9.4296875,4.446875 L9.4296875,5.28125 L6.2140625,5.28125 C5.353125,5.28125 4.65625,5.98125 4.65625,6.8453125 L4.65625,8.078125 C4.65625,8.140625 4.703125,8.1875 4.7625,8.1875 Z M4.696875,10.2953125 L6.4015625,11.634375 C6.4703125,11.6890625 6.571875,11.6390625 6.571875,11.5515625 L6.571875,10.7171875 L9.7859375,10.7171875 C10.646875,10.7171875 11.34375,10.0171875 11.34375,9.153125 L11.34375,7.9203125 C11.34375,7.8625 11.296875,7.8140625 11.2375,7.8140625 L10.4453125,7.8140625 C10.3875,7.8140625 10.3390625,7.8609375 10.3390625,7.9203125 L10.3390625,9.153125 C10.3390625,9.4609375 10.090625,9.709375 9.784375,9.709375 L6.571875,9.709375 L6.571875,8.875 C6.571875,8.7859375 6.4703125,8.7375 6.4015625,8.7921875 L4.696875,10.13125 C4.6421875,10.1703125 4.6421875,10.253125 4.696875,10.2953125 L4.696875,10.2953125 Z" id="形状" fill="#000000"></path>
        </g>
    </g>
</svg>