<?xml version="1.0" encoding="UTF-8"?>
<svg width="16px" height="16px" viewBox="0 0 16 16" version="1.1" xmlns="http://www.w3.org/2000/svg" xmlns:xlink="http://www.w3.org/1999/xlink">
    <title>interation-fill</title>
    <g id="interation-fill" stroke="none" stroke-width="1" fill="none" fill-rule="evenodd">
        <g fill-rule="nonzero">
            <rect id="矩形" opacity="0" x="0" y="0" width="16" height="16"></rect>
            <path d="M13.75,1.75 L2.25,1.75 C1.9734375,1.75 1.75,1.9734375 1.75,2.25 L1.75,13.75 C1.75,14.0265625 1.9734375,14.25 2.25,14.25 L13.75,14.25 C14.0265625,14.25 14.25,14.0265625 14.25,13.75 L14.25,2.25 C14.25,1.9734375 14.0265625,1.75 13.75,1.75 Z M11.34375,9.1515625 C11.34375,10.015625 10.6453125,10.715625 9.7859375,10.715625 L6.571875,10.715625 L6.571875,11.55 C6.571875,11.6390625 6.4703125,11.6875 6.4015625,11.6328125 L4.696875,10.29375 C4.6421875,10.2515625 4.6421875,10.16875 4.696875,10.1265625 L6.4015625,8.7875 C6.4703125,8.7328125 6.571875,8.7828125 6.571875,8.8703125 L6.571875,9.7046875 L9.7859375,9.7046875 C10.0921875,9.7046875 10.340625,9.4546875 10.340625,9.1484375 L10.340625,7.915625 C10.340625,7.8578125 10.3875,7.809375 10.446875,7.809375 L11.2390625,7.809375 C11.296875,7.809375 11.3453125,7.85625 11.3453125,7.915625 L11.3453125,9.1515625 L11.34375,9.1515625 Z M11.303125,5.871875 L9.5984375,7.2109375 C9.5296875,7.265625 9.428125,7.215625 9.428125,7.128125 L9.428125,6.29375 L6.2140625,6.29375 C5.9078125,6.29375 5.659375,6.54375 5.659375,6.85 L5.659375,8.0828125 C5.659375,8.140625 5.6125,8.1890625 5.553125,8.1890625 L4.7609375,8.1890625 C4.703125,8.1890625 4.6546875,8.1421875 4.6546875,8.0828125 L4.6546875,6.85 C4.6546875,5.9859375 5.353125,5.2859375 6.2125,5.2859375 L9.4265625,5.2859375 L9.4265625,4.4515625 C9.4265625,4.3625 9.528125,4.3140625 9.596875,4.36875 L11.3015625,5.7078125 C11.3578125,5.746875 11.3578125,5.8296875 11.303125,5.871875 Z" id="形状" fill="#000000"></path>
        </g>
    </g>
</svg>