<?xml version="1.0" encoding="UTF-8"?>
<svg width="16px" height="16px" viewBox="0 0 16 16" version="1.1" xmlns="http://www.w3.org/2000/svg" xmlns:xlink="http://www.w3.org/1999/xlink">
    <title>issues-close</title>
    <g id="issues-close" stroke="none" stroke-width="1" fill="none" fill-rule="evenodd">
        <g fill-rule="nonzero">
            <rect id="矩形" opacity="0" x="0" y="0" width="16" height="16"></rect>
            <path d="M7.25,10.75 C7.25,11.1642136 7.58578644,11.5 8,11.5 C8.41421356,11.5 8.75,11.1642136 8.75,10.75 C8.75,10.3357864 8.41421356,10 8,10 C7.58578644,10 7.25,10.3357864 7.25,10.75 Z M8.375,9 C8.44375,9 8.5,8.94375 8.5,8.875 L8.5,4.625 C8.5,4.55625 8.44375,4.5 8.375,4.5 L7.625,4.5 C7.55625,4.5 7.5,4.55625 7.5,4.625 L7.5,8.875 C7.5,8.94375 7.55625,9 7.625,9 L8.375,9 Z M14.625,6.0625 L13.6984375,6.0625 C13.6578125,6.0625 13.6203125,6.08125 13.596875,6.1140625 L11.9328125,8.4078125 L11.153125,7.3328125 C11.1296875,7.3 11.0921875,7.28125 11.0515625,7.28125 L10.125,7.28125 C10.0234375,7.28125 9.9640625,7.396875 10.0234375,7.4796875 L11.7296875,9.834375 C11.8296875,9.971875 12.0359375,9.971875 12.1359375,9.834375 L14.7265625,6.2609375 C14.7859375,6.178125 14.7265625,6.0625 14.625,6.0625 Z M13.9375,10.84375 L12.934375,10.84375 C12.8484375,10.84375 12.76875,10.8890625 12.721875,10.9609375 C12.5015625,11.3109375 12.2421875,11.6359375 11.94375,11.9328125 C11.43125,12.44375 10.8359375,12.8453125 10.1734375,13.125 C9.4875,13.4140625 8.759375,13.5609375 8.00625,13.5609375 C7.2546875,13.5609375 6.525,13.4140625 5.8390625,13.125 C5.1765625,12.8453125 4.58125,12.44375 4.06875,11.9328125 C3.55625,11.421875 3.1546875,10.8265625 2.875,10.1640625 C2.584375,9.4796875 2.4375,8.75 2.4375,8 C2.4375,7.25 2.584375,6.5203125 2.875,5.8359375 C3.1546875,5.1734375 3.55625,4.578125 4.06875,4.0671875 C4.58125,3.55625 5.1765625,3.1546875 5.8390625,2.875 C6.525,2.5859375 7.253125,2.4390625 8.00625,2.4390625 C8.7578125,2.4390625 9.4875,2.5859375 10.1734375,2.875 C10.8359375,3.1546875 11.43125,3.55625 11.94375,4.0671875 C12.240625,4.3640625 12.5,4.6890625 12.721875,5.0390625 C12.7671875,5.1125 12.8484375,5.15625 12.934375,5.15625 L13.9375,5.15625 C14.03125,5.15625 14.090625,5.0578125 14.05,4.975 C12.95,2.7890625 10.6984375,1.28125 8.0890625,1.25 C4.3578125,1.20625 1.2578125,4.2578125 1.24998492,7.9875 C1.2421875,11.7203125 4.2703125,14.75 8.00625,14.75 C10.65,14.75 12.9375,13.234375 14.0484375,11.025 C14.090625,10.9421875 14.0296875,10.84375 13.9375,10.84375 Z" id="形状" fill="#000000"></path>
        </g>
    </g>
</svg>