<?xml version="1.0" encoding="UTF-8"?>
<svg width="16px" height="16px" viewBox="0 0 16 16" version="1.1" xmlns="http://www.w3.org/2000/svg" xmlns:xlink="http://www.w3.org/1999/xlink">
    <title>like</title>
    <g id="like" stroke="none" stroke-width="1" fill="none" fill-rule="evenodd">
        <g fill-rule="nonzero">
            <rect id="矩形" opacity="0" x="0" y="0" width="16" height="16"></rect>
            <path d="M13.8421875,8.3390625 C14.1046875,7.9921875 14.25,7.5671875 14.25,7.125 C14.25,6.4234375 13.8578125,5.759375 13.2265625,5.3890625 C13.0640533,5.29374233 12.8790266,5.24357473 12.690625,5.24375 L8.94375,5.24375 L9.0375,3.3234375 C9.059375,2.859375 8.8953125,2.41875 8.5765625,2.0828125 C8.25625,1.746875 7.825,1.5609375 7.359375,1.5609375 C6.546875,1.5609375 5.828125,2.1078125 5.6125,2.890625 L4.2703125,7.75 L2.25,7.75 C1.9734375,7.75 1.75,7.9734375 1.75,8.25 L1.75,13.9375 C1.75,14.2140625 1.9734375,14.4375 2.25,14.4375 L11.6453125,14.4375 C11.7890625,14.4375 11.9296875,14.409375 12.059375,14.353125 C12.803125,14.0359375 13.2828125,13.309375 13.2828125,12.503125 C13.2828125,12.30625 13.2546875,12.1125 13.1984375,11.925 C13.4609375,11.578125 13.60625,11.153125 13.60625,10.7109375 C13.60625,10.5140625 13.578125,10.3203125 13.521875,10.1328125 C13.784375,9.7859375 13.9296875,9.3609375 13.9296875,8.91875 C13.9265625,8.721875 13.8984375,8.5265625 13.8421875,8.3390625 Z M2.875,13.3125 L2.875,8.875 L4.140625,8.875 L4.140625,13.3125 L2.875,13.3125 Z M12.81875,7.796875 L12.4765625,8.09375 L12.69375,8.490625 C12.765625,8.621875 12.8015625,8.765625 12.8015625,8.9171875 C12.8015625,9.175 12.6890625,9.4203125 12.4953125,9.5890625 L12.153125,9.8859375 L12.3703125,10.2828125 C12.4421875,10.4140625 12.478125,10.5578125 12.478125,10.709375 C12.478125,10.9671875 12.365625,11.2125 12.171875,11.38125 L11.8296875,11.678125 L12.046875,12.075 C12.11875,12.20625 12.1546875,12.35 12.1546875,12.5015625 C12.1546875,12.8515625 11.9484375,13.1671875 11.6296875,13.3109375 L5.140625,13.3109375 L5.140625,8.825 L6.6953125,3.1921875 C6.7765625,2.896875 7.046875,2.6890625 7.3546875,2.6875 C7.4734375,2.6875 7.590625,2.721875 7.684375,2.7921875 C7.8390625,2.9078125 7.921875,3.0828125 7.9125,3.26875 L7.7625,6.36875 L12.675,6.36875 C12.953125,6.5390625 13.125,6.8265625 13.125,7.125 C13.125,7.3828125 13.0125,7.6265625 12.81875,7.796875 Z" id="形状" fill="#000000"></path>
        </g>
    </g>
</svg>