<?xml version="1.0" encoding="UTF-8"?>
<svg width="16px" height="16px" viewBox="0 0 16 16" version="1.1" xmlns="http://www.w3.org/2000/svg" xmlns:xlink="http://www.w3.org/1999/xlink">
    <title>loading</title>
    <g id="loading" stroke="none" stroke-width="1" fill="none" fill-rule="evenodd">
        <g fill-rule="nonzero">
            <path d="M8.61764705,11.2941177 L8.61764705,15 L7.38235293,15 L7.38235293,11.2941177 L8.61764705,11.2941177 Z M5.2337647,9.8924706 L6.1075294,10.7662353 L3.48705882,13.3862941 L2.61370588,12.513353 L5.2337647,9.8924706 Z M10.7662353,9.8924706 L13.3862941,12.5129412 L12.5133529,13.3862941 L9.89247058,10.7662353 L10.7662353,9.8924706 L10.7662353,9.8924706 Z M4.70588235,7.38235295 L4.70588235,8.61764707 L1,8.61764707 L1,7.38235295 L4.70588235,7.38235295 Z M15,7.38235295 L15,8.61764707 L11.2941176,8.61764707 L11.2941176,7.38235295 L15,7.38235295 Z M12.5129412,2.6137059 L13.3862941,3.48664706 L10.7662353,6.10752942 L9.89247058,5.23376472 L12.5129412,2.6137059 Z M3.48705882,2.6137059 L6.1075294,5.23376472 L5.2337647,6.10752942 L2.61370588,3.48705884 L3.48664706,2.6137059 L3.48705882,2.6137059 Z M8.61764705,1 L8.61764705,4.70588235 L7.38235293,4.70588235 L7.38235293,1 L8.61764705,1 Z" id="形状" fill="#000000"></path>
            <rect id="矩形" opacity="0" x="0" y="0" width="16" height="16"></rect>
        </g>
    </g>
</svg>