<?xml version="1.0" encoding="UTF-8"?>
<svg width="16px" height="16px" viewBox="0 0 16 16" version="1.1" xmlns="http://www.w3.org/2000/svg" xmlns:xlink="http://www.w3.org/1999/xlink">
    <title>login</title>
    <g id="login" stroke="none" stroke-width="1" fill="none" fill-rule="evenodd">
        <g fill-rule="nonzero">
            <rect id="矩形" opacity="0" x="0" y="0" width="16" height="16"></rect>
            <path d="M8.1515625,1.28122635 C5.76875,1.275 3.671875,2.5078125 2.4734375,4.3703125 C2.4203125,4.453125 2.4796875,4.5625 2.578125,4.5625 L3.6765625,4.5625 C3.7515625,4.5625 3.821875,4.5296875 3.86875,4.471875 C3.978125,4.3390625 4.0953125,4.2109375 4.21875,4.0890625 C4.728125,3.58125 5.3203125,3.18125 5.9796875,2.903125 C6.6609375,2.615625 7.3859375,2.46875 8.134375,2.46875 C8.8828125,2.46875 9.6078125,2.6140625 10.2890625,2.903125 C10.9484375,3.18125 11.540625,3.58125 12.05,4.0890625 C12.559375,4.596875 12.9578125,5.1890625 13.2375,5.846875 C13.5265625,6.528125 13.671875,7.2515625 13.671875,8 C13.671875,8.7484375 13.525,9.471875 13.2375,10.153125 C12.959375,10.8109375 12.559375,11.403125 12.05,11.9109375 C11.540625,12.41875 10.9484375,12.81875 10.2890625,13.096875 C9.6078125,13.384375 8.8828125,13.53125 8.134375,13.53125 C7.3859375,13.53125 6.6609375,13.384375 5.9796875,13.096875 C5.3203125,12.81875 4.728125,12.41875 4.21875,11.9109375 C4.0953125,11.7875 3.9796875,11.659375 3.86875,11.528125 C3.821875,11.4703125 3.75,11.4375 3.6765625,11.4375 L2.578125,11.4375 C2.4796875,11.4375 2.41875,11.546875 2.4734375,11.6296875 C3.6703125,13.4875 5.7578125,14.71875 8.134375,14.71875 C11.825,14.71875 14.821875,11.7484375 14.859375,8.06875 C14.896875,4.3296875 11.8953125,1.290625 8.1515625,1.28122635 Z M6.17226562,9.75 L6.17226562,8.5625 L1.26601563,8.5625 C1.19726562,8.5625 1.14101563,8.50625 1.14101563,8.4375 L1.14101563,7.5625 C1.14101563,7.49375 1.19726562,7.4375 1.26601563,7.4375 L6.17226562,7.4375 L6.17226562,6.25 C6.17226562,6.1453125 6.29414062,6.0859375 6.37539062,6.1515625 L8.59257812,7.9015625 C8.65664062,7.9515625 8.65664062,8.0484375 8.59257812,8.0984375 L6.37539062,9.8484375 C6.29414062,9.9125 6.17226562,9.8546875 6.17226562,9.75 Z" id="形状" fill="#000000"></path>
        </g>
    </g>
</svg>