<?xml version="1.0" encoding="UTF-8"?>
<svg width="16px" height="16px" viewBox="0 0 16 16" version="1.1" xmlns="http://www.w3.org/2000/svg" xmlns:xlink="http://www.w3.org/1999/xlink">
    <title>mail-fill</title>
    <g id="mail-fill" stroke="none" stroke-width="1" fill="none" fill-rule="evenodd">
        <g fill-rule="nonzero">
            <rect id="矩形" opacity="0" x="0" y="0" width="16" height="16"></rect>
            <path d="M14.5,2.5 L1.5,2.5 C1.2234375,2.5 1,2.7234375 1,3 L1,13 C1,13.2765625 1.2234375,13.5 1.5,13.5 L14.5,13.5 C14.7765625,13.5 15,13.2765625 15,13 L15,3 C15,2.7234375 14.7765625,2.5 14.5,2.5 Z M13.2375,4.2015625 L8.3078125,8.0375 C8.1859375,8.1328125 8.015625,8.1328125 7.89375,8.0375 L2.9625,4.2015625 C2.934375,4.1796875 2.91875,4.146875 2.91875,4.1125 C2.91875,4.05 2.96875,4 3.03125,4 L13.16875,4 C13.203125,4 13.2359375,4.015625 13.2578125,4.04375 C13.2953125,4.0921875 13.2875,4.1625 13.2375,4.2015625 Z" id="形状" fill="#000000"></path>
        </g>
    </g>
</svg>