<?xml version="1.0" standalone="no"?><!DOCTYPE svg PUBLIC "-//W3C//DTD SVG 1.1//EN" "http://www.w3.org/Graphics/SVG/1.1/DTD/svg11.dtd"><svg class="icon" width="200px" height="200.00px" viewBox="0 0 1024 1024" version="1.1" xmlns="http://www.w3.org/2000/svg"><path fill="#000000" d="M968 617.408a288.768 288.768 0 0 1-288.768 288.704H344.768A288.768 288.768 0 0 1 56 617.408V223.488c0-58.368 47.296-105.6 105.6-105.6 59.648 0 113.28 35.2 137.216 89.024l4.096 10.368 39.936 111.36h338.24l40-111.36a150.144 150.144 0 0 1 141.312-99.392c58.304 0 105.6 47.232 105.6 105.6v393.92z m-192-215.168h-528A118.4 118.4 0 0 0 129.984 511.36l-0.384 9.28v96.768a215.168 215.168 0 0 0 203.392 214.784l11.776 0.32h334.464a215.168 215.168 0 0 0 214.848-203.328l0.32-11.776V520.64a118.4 118.4 0 0 0-109.184-118.08l-9.216-0.32zM512 482.304c18.304 0 33.472 13.376 36.288 30.848l0.512 5.952v58.496h58.56a36.8 36.8 0 0 1 5.952 73.152l-5.952 0.448h-58.624l0.064 58.496a36.8 36.8 0 0 1-73.088 6.016l-0.512-6.016v-58.496H416.64a36.8 36.8 0 0 1-5.952-73.088l5.952-0.512h58.496l0.064-58.496c0-20.288 16.448-36.8 36.8-36.8z m350.4-290.816c-29.632 0-56.32 17.024-68.992 43.264l-3.072 7.36-31.104 86.528h16.768c44.736 0 85.888 15.296 118.528 40.96l-0.128-146.112a32 32 0 0 0-26.24-31.488l-5.76-0.512z m-700.8 0L155.84 192a32 32 0 0 0-25.728 25.728l-0.512 5.76v145.984c32.64-25.6 73.728-40.832 118.4-40.832h16.64l-30.976-86.528-3.072-7.36a76.544 76.544 0 0 0-68.992-43.264z" /></svg>