<?xml version="1.0" encoding="UTF-8"?>
<svg width="16px" height="16px" viewBox="0 0 16 16" version="1.1" xmlns="http://www.w3.org/2000/svg" xmlns:xlink="http://www.w3.org/1999/xlink">
    <title>mini-camera</title>
    <g id="mini-camera" stroke="none" stroke-width="1" fill="none" fill-rule="evenodd">
        <g fill-rule="nonzero">
            <rect id="矩形" opacity="0" x="0" y="0" width="16" height="16"></rect>
            <path d="M11.7063438,10.8010937 C11.724625,10.8283125 11.740875,10.8571562 11.7559063,10.8864062 L12.546875,12.46875 C12.7643922,12.9038277 12.7411409,13.4205082 12.4854239,13.8342898 C12.2297069,14.2480713 11.7779845,14.4999567 11.2915625,14.5 L4.45843751,14.5 C3.97201551,14.4999567 3.52029311,14.2480713 3.2645761,13.8342898 C3.0088591,13.4205082 2.98560779,12.9038277 3.20312501,12.46875 L3.99409376,10.8868125 C4.009125,10.8571563 4.02537501,10.8283125 4.04365624,10.8015 C4.99827773,11.6171205 6.21314838,12.0643935 7.46875001,12.0625 L8.28125,12.0625 C9.58815624,12.0625 10.7841563,11.5875937 11.7063438,10.8010937 L11.7063438,10.8010937 Z M7.875,1.5 C10.5672188,1.5 12.75,3.68278125 12.75,6.375 C12.75,9.06721876 10.5672188,11.25 7.875,11.25 C5.18278125,11.25 3,9.06721876 3,6.375 C3,3.68278125 5.18278125,1.5 7.875,1.5 Z M7.875,9.21875 C8.60074258,9.21882027 9.27138644,8.83168158 9.63427801,8.20318178 C9.99716958,7.57468199 9.99716958,6.80031802 9.63427801,6.17181822 C9.27138644,5.54331843 8.60074258,5.15617973 7.875,5.15625 C6.75324841,5.15635862 5.84394667,6.06574841 5.84394667,7.1875 C5.84394667,8.3092516 6.75324841,9.21864139 7.875,9.21875 L7.875,9.21875 Z M7.9180625,8.00000001 C7.62775458,8.00004444 7.35947999,7.84519254 7.2143132,7.59378591 C7.06914641,7.34237929 7.06914641,7.03262072 7.2143132,6.78121409 C7.35947999,6.52980746 7.62775458,6.37495556 7.9180625,6.375 C8.36674528,6.3750687 8.73043812,6.73881722 8.73043812,7.1875 C8.73043812,7.63618279 8.36674528,7.99993131 7.9180625,8.00000001 L7.9180625,8.00000001 Z" id="形状" fill="#2A2A37"></path>
        </g>
    </g>
</svg>