<?xml version="1.0" encoding="UTF-8"?>
<svg width="16px" height="16px" viewBox="0 0 16 16" version="1.1" xmlns="http://www.w3.org/2000/svg" xmlns:xlink="http://www.w3.org/1999/xlink">
    <title>minus-square-fill</title>
    <g id="minus-square-fill" stroke="none" stroke-width="1" fill="none" fill-rule="evenodd">
        <g fill-rule="nonzero">
            <rect id="矩形" opacity="0" x="0" y="0" width="16" height="16"></rect>
            <path d="M13.75,1.75 L2.25,1.75 C1.9734375,1.75 1.75,1.9734375 1.75,2.25 L1.75,13.75 C1.75,14.0265625 1.9734375,14.25 2.25,14.25 L13.75,14.25 C14.0265625,14.25 14.25,14.0265625 14.25,13.75 L14.25,2.25 C14.25,1.9734375 14.0265625,1.75 13.75,1.75 Z M11,8.375 C11,8.44375 10.94375,8.5 10.875,8.5 L5.125,8.5 C5.05625,8.5 5,8.44375 5,8.375 L5,7.625 C5,7.55625 5.05625,7.5 5.125,7.5 L10.875,7.5 C10.94375,7.5 11,7.55625 11,7.625 L11,8.375 Z" id="形状" fill="#000000"></path>
        </g>
    </g>
</svg>