<?xml version="1.0" standalone="no"?><!DOCTYPE svg PUBLIC "-//W3C//DTD SVG 1.1//EN" "http://www.w3.org/Graphics/SVG/1.1/DTD/svg11.dtd"><svg class="icon" width="200px" height="200.00px" viewBox="0 0 1024 1024" version="1.1" xmlns="http://www.w3.org/2000/svg"><path fill="#000000" d="M512 128a362.624 362.624 0 0 1 253.568 103.232 353.92 353.92 0 0 1 77.184 111.68c18.816 43.392 28.416 89.344 28.416 136.576v353.216h56.512a32 32 0 0 1 32.32 31.616 32 32 0 0 1-32.32 31.68H96.32A32 32 0 0 1 64 864.32a32 32 0 0 1 32.32-31.616h56.512V479.36a347.136 347.136 0 0 1 105.536-248.128A362.368 362.368 0 0 1 512 128z m195.456 256h-61.312c-3.392 0-6.144 3.392-6.144 7.488v433.024c0 4.16 2.752 7.488 6.144 7.488h61.312c3.392 0 6.144-3.392 6.144-7.488V391.488c0-4.096-2.752-7.488-6.144-7.488z m-160 128h-61.312c-3.392 0-6.144 4.224-6.144 9.408v301.184c0 5.12 2.752 9.408 6.144 9.408h61.312c3.392 0 6.144-4.224 6.144-9.408V521.408c0-5.12-2.752-9.408-6.144-9.408z m-160 120h-61.312C322.752 632 320 635.584 320 640v184c0 4.416 2.752 8 6.144 8h61.312c3.392 0 6.144-3.584 6.144-8V640c0-4.416-2.752-8-6.144-8z" /></svg>