<?xml version="1.0" encoding="UTF-8"?>
<svg width="16px" height="16px" viewBox="0 0 16 16" version="1.1" xmlns="http://www.w3.org/2000/svg" xmlns:xlink="http://www.w3.org/1999/xlink">
    <title>pie-chart</title>
    <g id="pie-chart" stroke="none" stroke-width="1" fill="none" fill-rule="evenodd">
        <g fill-rule="nonzero">
            <rect id="矩形" opacity="0" x="0" y="0" width="16" height="16"></rect>
            <path d="M13.5,8.09375 L7.90625,8.09375 L7.90625,2.5 C7.90625,2.43125 7.85,2.375 7.78125,2.375 L7.375,2.375 C6.53125,2.375 5.7125,2.540625 4.9421875,2.865625 C4.1984375,3.1796875 3.5296875,3.63125 2.95625,4.2046875 C2.3828125,4.778125 1.93125,5.446875 1.6171875,6.190625 C1.290625,6.9625 1.125,7.78125 1.125,8.625 C1.125,9.46875 1.290625,10.2875 1.615625,11.0578125 C1.9296875,11.8015625 2.38125,12.4703125 2.9546875,13.04375 C3.528125,13.6171875 4.196875,14.06875 4.940625,14.3828125 C5.7125,14.709375 6.53125,14.875 7.375,14.875 C8.21875,14.875 9.0375,14.709375 9.8078125,14.384375 C10.5515625,14.0703125 11.2203125,13.61875 11.79375,13.0453125 C12.3671875,12.471875 12.81875,11.803125 13.1328125,11.059375 C13.459375,10.2875 13.625,9.46875 13.625,8.625 L13.625,8.21875 C13.625,8.15 13.56875,8.09375 13.5,8.09375 Z M11.0265625,12.309375 C10.0484375,13.2796875 8.728125,13.81875 7.35,13.8125537 C5.9734375,13.80625 4.6796875,13.2671875 3.70625,12.29375 C2.7265625,11.3140625 2.1875,10.0109375 2.1875,8.625 C2.1875,7.2390625 2.7265625,5.9359375 3.70625,4.95625 C4.559375,4.103125 5.6578125,3.5828125 6.84375,3.4640625 L6.84375,9.15625 L12.5359375,9.15625 C12.415625,10.3484375 11.890625,11.453125 11.0265625,12.309375 Z M14.875,7.225 L14.834375,6.784375 C14.7015625,5.3453125 14.0625,3.9875 13.034375,2.9625 C12.00625,1.9359375 10.646875,1.2984375 9.203125,1.165625 L8.7609375,1.125 C8.6875,1.11875 8.625,1.175 8.625,1.2484375 L8.625,7.25 C8.625,7.31875 8.68125,7.375 8.75,7.375 L14.75,7.359375 C14.8234375,7.359375 14.88125,7.296875 14.875,7.225 Z M9.684375,6.315625 L9.684375,2.30625 C10.6625,2.5109375 11.5703125,2.996875 12.284375,3.709375 C12.9984375,4.421875 13.4875,5.328125 13.690625,6.3046875 L9.684375,6.315625 Z" id="形状" fill="#000000"></path>
        </g>
    </g>
</svg>