<?xml version="1.0" encoding="UTF-8"?>
<svg width="16px" height="16px" viewBox="0 0 16 16" version="1.1" xmlns="http://www.w3.org/2000/svg" xmlns:xlink="http://www.w3.org/1999/xlink">
    <title>play-circle-fill</title>
    <g id="play-circle-fill" stroke="none" stroke-width="1" fill="none" fill-rule="evenodd">
        <g fill-rule="nonzero">
            <rect id="矩形" opacity="0" x="0" y="0" width="16" height="16"></rect>
            <path d="M8,1 C4.134375,1 1,4.134375 1,8 C1,11.865625 4.134375,15 8,15 C11.865625,15 15,11.865625 15,8 C15,4.134375 11.865625,1 8,1 Z M10.2515625,8.1078125 L6.8390625,10.590625 C6.8171875,10.60625 6.7921875,10.6140625 6.765625,10.6140625 C6.696875,10.6140625 6.640625,10.5578125 6.640625,10.4890625 L6.640625,5.5265625 C6.640625,5.5 6.6484375,5.475 6.6640625,5.453125 C6.7046875,5.396875 6.7828125,5.384375 6.8390625,5.425 L10.2515625,7.90625 C10.2625,7.9140625 10.271875,7.9234375 10.2796875,7.934375 C10.3203125,7.9890625 10.3078125,8.0671875 10.2515625,8.1078125 Z" id="形状" fill="#000000"></path>
        </g>
    </g>
</svg>