<?xml version="1.0" encoding="UTF-8"?>
<svg width="16px" height="16px" viewBox="0 0 16 16" version="1.1" xmlns="http://www.w3.org/2000/svg" xmlns:xlink="http://www.w3.org/1999/xlink">
    <title>radar-chart</title>
    <g id="radar-chart" stroke="none" stroke-width="1" fill="none" fill-rule="evenodd">
        <g fill-rule="nonzero">
            <rect id="矩形" opacity="0" x="0" y="0" width="16" height="16"></rect>
            <path d="M14.48125,6.2046875 L8.29375,1.7046875 C8.11887322,1.5765627 7.88112678,1.5765627 7.70625,1.7046875 L1.51875,6.2046875 C1.34375,6.33125 1.2703125,6.5578125 1.3375,6.7640625 L3.7015625,14.0453125 C3.76875,14.2515625 3.9609375,14.390625 4.1765625,14.390625 L11.825,14.390625 C12.0421875,14.390625 12.2328125,14.2515625 12.3,14.0453125 L14.6640625,6.7640625 C14.7296875,6.5578125 14.65625,6.3328125 14.48125,6.2046875 Z M13.103125,6.515625 L11.5640625,7.015625 L8.4390625,4.7546875 L8.4390625,3.1234375 L13.103125,6.515625 Z M7.28125,8.8625 L5.8890625,10.7734375 L5.0265625,8.1296875 L7.28125,8.8625 Z M5.4640625,7.35 L7.5625,5.8328125 L7.5625,8.0328125 L5.4640625,7.35 Z M8,9.3625 L9.4671875,11.3765625 L6.5328125,11.3765625 L8,9.3625 Z M8.4390625,5.8328125 L10.5359375,7.35 L8.4390625,8.03125 L8.4390625,5.8328125 L8.4390625,5.8328125 Z M8.71875,8.8625 L10.9734375,8.1296875 L10.1109375,10.7734375 L8.71875,8.8625 Z M7.5625,3.1234375 L7.5625,4.7546875 L4.4359375,7.015625 L2.896875,6.515625 L7.5625,3.1234375 Z M2.6453125,7.35625 L3.996875,7.7953125 L5.253125,11.6453125 L4.4125,12.8 L2.6453125,7.35625 L2.6453125,7.35625 Z M5.1109375,13.328125 L5.896875,12.25 L10.1046875,12.25 L10.890625,13.328125 L5.1109375,13.328125 Z M11.5875,12.8 L10.746875,11.6453125 L12.003125,7.7953125 L13.3546875,7.35625 L11.5875,12.8 Z" id="形状" fill="#000000"></path>
        </g>
    </g>
</svg>