<?xml version="1.0" encoding="UTF-8"?>
<svg width="16px" height="16px" viewBox="0 0 16 16" version="1.1" xmlns="http://www.w3.org/2000/svg" xmlns:xlink="http://www.w3.org/1999/xlink">
    <title>reconciliation</title>
    <g id="reconciliation" stroke="none" stroke-width="1" fill="none" fill-rule="evenodd">
        <g fill-rule="nonzero">
            <rect id="矩形" opacity="0" x="0" y="0" width="16" height="16"></rect>
            <path d="M10.5625,8.828125 C9.76875,8.828125 9.125,9.471875 9.125,10.265625 C9.125,11.059375 9.76875,11.703125 10.5625,11.703125 C11.35625,11.703125 12,11.059375 12,10.265625 C12,9.471875 11.35625,8.828125 10.5625,8.828125 Z M10.5625,10.796875 C10.26875,10.796875 10.03125,10.559375 10.03125,10.265625 C10.03125,9.971875 10.26875,9.734375 10.5625,9.734375 C10.85625,9.734375 11.09375,9.971875 11.09375,10.265625 C11.09375,10.559375 10.85625,10.796875 10.5625,10.796875 Z M13.75,2.625 L10.4375,2.625 C10.4375,2.1421875 10.0453125,1.75 9.5625,1.75 L8.3125,1.75 C7.8296875,1.75 7.4375,2.1421875 7.4375,2.625 L4.125,2.625 C3.8484375,2.625 3.625,2.8484375 3.625,3.125 L3.625,6.25 L2.25,6.25 C1.9734375,6.25 1.75,6.4734375 1.75,6.75 L1.75,13.75 C1.75,14.0265625 1.9734375,14.25 2.25,14.25 L7.5,14.25 C7.7765625,14.25 8,14.0265625 8,13.75 L8,13.5 L13.75,13.5 C14.0265625,13.5 14.25,13.2765625 14.25,13 L14.25,3.125 C14.25,2.8484375 14.0265625,2.625 13.75,2.625 Z M7.3125,3.625 L8.4375,3.625 L8.4375,2.75 L9.4375,2.75 L9.4375,3.625 L10.5625,3.625 L10.5625,4.375 L7.3125,4.375 L7.3125,3.625 Z M7,13.25 L2.75,13.25 L2.75,9.625 L7,9.625 L7,13.25 Z M7,8.625 L2.75,8.625 L2.75,7.25 L7,7.25 L7,8.625 Z M13.125,12.375 L8,12.375 L8,6.75 C8,6.4734375 7.7765625,6.25 7.5,6.25 L4.75,6.25 L4.75,3.75 L6.3125,3.75 L6.3125,5.375 L11.5625,5.375 L11.5625,3.75 L13.125,3.75 L13.125,12.375 Z M11,6.375 L11,7.875 C11,7.94375 11.05625,8 11.125,8 L11.875,8 C11.94375,8 12,7.94375 12,7.875 L12,6.375 C12,6.30625 11.94375,6.25 11.875,6.25 L11.125,6.25 C11.05625,6.25 11,6.30625 11,6.375 Z M9.25,8 L10,8 C10.06875,8 10.125,7.94375 10.125,7.875 L10.125,7 C10.125,6.93125 10.06875,6.875 10,6.875 L9.25,6.875 C9.18125,6.875 9.125,6.93125 9.125,7 L9.125,7.875 C9.125,7.94375 9.18125,8 9.25,8 Z" id="形状" fill="#000000"></path>
        </g>
    </g>
</svg>