<?xml version="1.0" encoding="UTF-8"?>
<svg width="16px" height="16px" viewBox="0 0 16 16" version="1.1" xmlns="http://www.w3.org/2000/svg" xmlns:xlink="http://www.w3.org/1999/xlink">
    <title>reload time</title>
    <g id="12-icon库" stroke="none" stroke-width="1" fill="none" fill-rule="evenodd">
        <g id="reload-time" fill-rule="nonzero">
            <g>
                <rect id="矩形" opacity="0" x="0" y="0" width="16" height="16"></rect>
                <path d="M8.196875,1.28124819 C10.2533967,1.27975536 12.0940513,2.20463138 13.3263867,3.66069106 L13.490625,3.8625 L12.55625,4.59375 C12.41875,4.4171875 12.26875,4.25 12.109375,4.0890625 C11.6015625,3.58125 11.009375,3.18125 10.3515625,2.903125 C9.6703125,2.6140625 8.946875,2.46875 8.2,2.46875 C7.453125,2.46875 6.728125,2.6140625 6.05,2.903125 C5.3921875,3.18125 4.8,3.58125 4.2921875,4.0890625 C3.7828125,4.596875 3.384375,5.1890625 3.10625,5.846875 C2.8171875,6.528125 2.671875,7.253125 2.671875,8 C2.671875,8.746875 2.8171875,9.471875 3.103125,10.1515625 C3.3828125,10.809375 3.78125,11.4015625 4.2890625,11.909375 C4.796875,12.4171875 5.3890625,12.8171875 6.046875,13.0953125 C6.728125,13.384375 7.4515625,13.5296875 8.1984375,13.5296875 C8.9453125,13.5296875 9.66875,13.3828125 10.35,13.0953125 C11.0078125,12.8171875 11.6,12.4171875 12.1078125,11.909375 C12.6171875,11.4015625 13.015625,10.809375 13.29375,10.1515625 C13.3265625,10.0734375 13.3578125,9.9953125 13.3875,9.915625 C13.40625,9.864375 13.455,9.833125 13.50655,9.833875 L13.5453125,9.840625 L14.43125,10.1453125 C14.496875,10.16875 14.53125,10.2421875 14.5078125,10.3078125 C13.5671875,12.88125 11.0984375,14.71875 8.2,14.71875 C4.5140625,14.71875 1.521875,11.7484375 1.484375,8.06875 C1.446875,4.3234375 4.453125,1.2828125 8.196875,1.28124819 Z M8.3765625,4.265625 C8.4315625,4.265625 8.4785625,4.301625 8.4951625,4.351225 L8.5015625,4.390625 L8.5015625,8.2578125 L10.7296875,9.86875 C10.7746875,9.9 10.7916875,9.95625 10.7750875,10.0071 L10.75625,10.04375 L10.309375,10.653125 C10.2789063,10.6953125 10.2273438,10.7120117 10.1797363,10.7005859 L10.134375,10.6796875 L7.5515625,8.79375 C7.5296875,8.778125 7.5140625,8.75625 7.50607639,8.73136574 L7.5,8.6921875 L7.5,4.390625 C7.5,4.335625 7.536,4.288625 7.5856,4.272025 L7.625,4.265625 L8.3765625,4.265625 Z M14.2265625,3.296875 C14.3078125,3.23125 14.428125,3.290625 14.428125,3.3953125 L14.428125,3.3953125 L14.415625,5.91875 C14.415625,5.9984375 14.3390625,6.0578125 14.2609375,6.0390625 L14.2609375,6.0390625 L11.8109375,5.440625 C11.709375,5.415625 11.68125,5.2859375 11.7640625,5.2203125 L11.7640625,5.2203125 Z" id="形状结合" fill="#000000"></path>
            </g>
        </g>
    </g>
</svg>