<?xml version="1.0" encoding="UTF-8"?>
<svg width="16px" height="16px" viewBox="0 0 16 16" version="1.1" xmlns="http://www.w3.org/2000/svg" xmlns:xlink="http://www.w3.org/1999/xlink">
    <title>reload</title>
    <g id="reload" stroke="none" stroke-width="1" fill="none" fill-rule="evenodd">
        <g fill-rule="nonzero">
            <rect id="矩形" opacity="0" x="0" y="0" width="16" height="16"></rect>
            <path d="M14.2046875,3.2703125 L13.3234375,3.959375 C12.121875,2.4234375 10.253125,1.4375 8.1546875,1.4375 C4.53125,1.4375 1.5984375,4.3671875 1.5937444,7.9921875 C1.5890625,11.6203125 4.528125,14.5625 8.1546875,14.5625 C10.9875,14.5625 13.4015625,12.765625 14.3203125,10.2484375 C14.34375,10.1828125 14.309375,10.109375 14.24375,10.0875 L13.3578125,9.7828125 C13.29375,9.7609375 13.2234375,9.79375 13.2,9.8578125 C13.171875,9.9359375 13.140625,10.0140625 13.1078125,10.090625 C12.8375,10.73125 12.45,11.30625 11.95625,11.8 C11.4625,12.29375 10.8875,12.68125 10.2484375,12.953125 C9.5875,13.2328125 8.8828125,13.375 8.1578125,13.375 C7.43125,13.375 6.728125,13.2328125 6.0671875,12.953125 C5.428125,12.6828125 4.853125,12.2953125 4.359375,11.8 C3.865625,11.30625 3.478125,10.73125 3.2078125,10.090625 C2.928125,9.428125 2.7859375,8.725 2.7859375,7.9984375 C2.7859375,7.271875 2.928125,6.56875 3.2078125,5.90625 C3.478125,5.265625 3.865625,4.690625 4.359375,4.196875 C4.853125,3.703125 5.428125,3.315625 6.0671875,3.04375 C6.728125,2.7640625 7.4328125,2.621875 8.1578125,2.621875 C8.884375,2.621875 9.5875,2.7640625 10.2484375,3.04375 C10.8875,3.3140625 11.4625,3.7015625 11.95625,4.196875 C12.1109375,4.3515625 12.25625,4.515625 12.390625,4.6875 L11.45,5.421875 C11.3671875,5.4859375 11.3953125,5.6171875 11.496875,5.6421875 L14.240625,6.3140625 C14.31875,6.3328125 14.3953125,6.2734375 14.3953125,6.19375 L14.4078125,3.3671875 C14.40625,3.2640625 14.2859375,3.20625 14.2046875,3.2703125 L14.2046875,3.2703125 Z" id="路径" fill="#000000"></path>
        </g>
    </g>
</svg>