<?xml version="1.0" encoding="UTF-8"?>
<svg width="16px" height="16px" viewBox="0 0 16 16" version="1.1" xmlns="http://www.w3.org/2000/svg" xmlns:xlink="http://www.w3.org/1999/xlink">
    <title>right-circle</title>
    <g id="right-circle" stroke="none" stroke-width="1" fill="none" fill-rule="evenodd">
        <g fill-rule="nonzero">
            <rect id="矩形" opacity="0" x="0" y="0" width="16" height="16"></rect>
            <path d="M10.4171875,7.8984375 L6.5734375,5.1171875 C6.490625,5.0578125 6.375,5.115625 6.375,5.21875 L6.375,5.9515625 C6.375,6.1109375 6.4515625,6.2625 6.58125,6.35625 L8.853125,8 L6.58125,9.64375 C6.4515625,9.7375 6.375,9.8875 6.375,10.0484375 L6.375,10.78125 C6.375,10.8828125 6.490625,10.9421875 6.5734375,10.8828125 L10.4171875,8.1015625 C10.4859375,8.0515625 10.4859375,7.9484375 10.4171875,7.8984375 Z" id="路径" fill="#000000"></path>
            <path d="M8,1 C4.134375,1 1,4.134375 1,8 C1,11.865625 4.134375,15 8,15 C11.865625,15 15,11.865625 15,8 C15,4.134375 11.865625,1 8,1 Z M8,13.8125 C4.790625,13.8125 2.1875,11.209375 2.1875,8 C2.1875,4.790625 4.790625,2.1875 8,2.1875 C11.209375,2.1875 13.8125,4.790625 13.8125,8 C13.8125,11.209375 11.209375,13.8125 8,13.8125 Z" id="形状" fill="#000000"></path>
        </g>
    </g>
</svg>