<?xml version="1.0" encoding="UTF-8"?>
<svg width="16px" height="16px" viewBox="0 0 16 16" version="1.1" xmlns="http://www.w3.org/2000/svg" xmlns:xlink="http://www.w3.org/1999/xlink">
    <title>right-square-fill</title>
    <g id="right-square-fill" stroke="none" stroke-width="1" fill="none" fill-rule="evenodd">
        <g fill-rule="nonzero">
            <rect id="矩形" opacity="0" x="0" y="0" width="16" height="16"></rect>
            <path d="M13.75,1.75 L2.25,1.75 C1.9734375,1.75 1.75,1.9734375 1.75,2.25 L1.75,13.75 C1.75,14.0265625 1.9734375,14.25 2.25,14.25 L13.75,14.25 C14.0265625,14.25 14.25,14.0265625 14.25,13.75 L14.25,2.25 C14.25,1.9734375 14.0265625,1.75 13.75,1.75 Z M10.2921875,8.1015625 L6.4484375,10.8828125 C6.365625,10.9421875 6.25,10.8828125 6.25,10.78125 L6.25,10.0484375 C6.25,9.8890625 6.3265625,9.7375 6.45625,9.64375 L8.728125,8 L6.45625,6.35625 C6.3265625,6.2625 6.25,6.1125 6.25,5.9515625 L6.25,5.21875 C6.25,5.1171875 6.365625,5.0578125 6.4484375,5.1171875 L10.2921875,7.8984375 C10.3609375,7.9484375 10.3609375,8.0515625 10.2921875,8.1015625 Z" id="形状" fill="#000000"></path>
        </g>
    </g>
</svg>