<?xml version="1.0" encoding="UTF-8"?>
<svg width="16px" height="16px" viewBox="0 0 16 16" version="1.1" xmlns="http://www.w3.org/2000/svg" xmlns:xlink="http://www.w3.org/1999/xlink">
    <title>share</title>
    <g id="share" stroke="none" stroke-width="1" fill="none" fill-rule="evenodd">
        <g fill-rule="nonzero">
            <rect id="矩形" opacity="0" x="0" y="0" width="16" height="16"></rect>
            <path d="M11.75,10.375 C11.3046875,10.375 10.89375,10.53125 10.571875,10.7921875 L7.334375,8.45 C7.3609375,8.3046875 7.375,8.153125 7.375,8 C7.375,7.846875 7.3609375,7.696875 7.334375,7.55 L10.571875,5.2078125 C10.89375,5.46875 11.3046875,5.625 11.75,5.625 C12.784375,5.625 13.625,4.784375 13.625,3.75 C13.625,2.715625 12.784375,1.875 11.75,1.875 C10.715625,1.875 9.875,2.715625 9.875,3.75 C9.875,3.93125 9.9,4.1046875 9.9484375,4.2703125 L6.8734375,6.496875 C6.4171875,5.8921875 5.6921875,5.5 4.875,5.5 C3.49375,5.5 2.375,6.61875 2.375,8 C2.375,9.38125 3.49375,10.5 4.875,10.5 C5.6921875,10.5 6.4171875,10.1078125 6.8734375,9.503125 L9.9484375,11.7296875 C9.9,11.8953125 9.875,12.0703125 9.875,12.25 C9.875,13.284375 10.715625,14.125 11.75,14.125 C12.784375,14.125 13.625,13.284375 13.625,12.25 C13.625,11.215625 12.784375,10.375 11.75,10.375 Z M11.75,2.9375 C12.1984375,2.9375 12.5625,3.3015625 12.5625,3.75 C12.5625,4.1984375 12.1984375,4.5625 11.75,4.5625 C11.3015625,4.5625 10.9375,4.1984375 10.9375,3.75 C10.9375,3.3015625 11.3015625,2.9375 11.75,2.9375 Z M4.875,9.375 C4.1171875,9.375 3.5,8.7578125 3.5,8 C3.5,7.2421875 4.1171875,6.625 4.875,6.625 C5.6328125,6.625 6.25,7.2421875 6.25,8 C6.25,8.7578125 5.6328125,9.375 4.875,9.375 Z M11.75,13.0625 C11.3015625,13.0625 10.9375,12.6984375 10.9375,12.25 C10.9375,11.8015625 11.3015625,11.4375 11.75,11.4375 C12.1984375,11.4375 12.5625,11.8015625 12.5625,12.25 C12.5625,12.6984375 12.1984375,13.0625 11.75,13.0625 Z" id="形状" fill="#000000"></path>
        </g>
    </g>
</svg>