<?xml version="1.0" encoding="UTF-8"?>
<svg width="16px" height="16px" viewBox="0 0 16 16" version="1.1" xmlns="http://www.w3.org/2000/svg" xmlns:xlink="http://www.w3.org/1999/xlink">
    <title>shopping</title>
    <g id="shopping" stroke="none" stroke-width="1" fill="none" fill-rule="evenodd">
        <g fill-rule="nonzero">
            <rect id="矩形" opacity="0" x="0" y="0" width="16" height="16"></rect>
            <path d="M13,4.875 L10.875,4.875 L10.875,4.625 C10.875,3.0375 9.5875,1.75 8,1.75 C6.4125,1.75 5.125,3.0375 5.125,4.625 L5.125,4.875 L3,4.875 C2.7234375,4.875 2.5,5.0984375 2.5,5.375 L2.5,13.75 C2.5,14.0265625 2.7234375,14.25 3,14.25 L13,14.25 C13.2765625,14.25 13.5,14.0265625 13.5,13.75 L13.5,5.375 C13.5,5.0984375 13.2765625,4.875 13,4.875 Z M6.25,4.625 C6.25,3.6578125 7.0328125,2.875 8,2.875 C8.9671875,2.875 9.75,3.6578125 9.75,4.625 L9.75,4.875 L6.25,4.875 L6.25,4.625 Z M12.375,13.125 L3.625,13.125 L3.625,6 L5.125,6 L5.125,7.375 C5.125,7.44375 5.18125,7.5 5.25,7.5 L6.125,7.5 C6.19375,7.5 6.25,7.44375 6.25,7.375 L6.25,6 L9.75,6 L9.75,7.375 C9.75,7.44375 9.80625,7.5 9.875,7.5 L10.75,7.5 C10.81875,7.5 10.875,7.44375 10.875,7.375 L10.875,6 L12.375,6 L12.375,13.125 Z" id="形状" fill="#000000"></path>
        </g>
    </g>
</svg>