<?xml version="1.0" encoding="UTF-8"?>
<svg width="16px" height="16px" viewBox="0 0 16 16" version="1.1" xmlns="http://www.w3.org/2000/svg" xmlns:xlink="http://www.w3.org/1999/xlink">
    <title>sound</title>
    <g id="sound" stroke="none" stroke-width="1" fill="none" fill-rule="evenodd">
        <g fill-rule="nonzero">
            <rect id="矩形" opacity="0" x="0" y="0" width="16" height="16"></rect>
            <path d="M9.7796875,1.796875 C9.6875,1.796875 9.59375,1.821875 9.5078125,1.8796875 L3.96875,5.5 L1.40625,5.5 C1.26875,5.5 1.15625,5.6125 1.15625,5.75 L1.15625,10.25 C1.15625,10.3875 1.26875,10.5 1.40625,10.5 L3.96875,10.5 L9.5078125,14.1203125 C9.59375,14.1765625 9.6890625,14.203125 9.7796875,14.203125 C10.040625,14.203125 10.28125,13.9953125 10.28125,13.7015625 L10.28125,2.2984375 C10.28125,2.0046875 10.040625,1.796875 9.7796875,1.796875 Z M9.15625,12.546875 L4.584375,9.5578125 L4.303125,9.375 L2.28125,9.375 L2.28125,6.625 L4.303125,6.625 L4.5828125,6.4421875 L9.15625,3.453125 L9.15625,12.546875 Z M14.59375,7.4375 L12.59375,7.4375 C12.45625,7.4375 12.34375,7.55 12.34375,7.6875 L12.34375,8.3125 C12.34375,8.45 12.45625,8.5625 12.59375,8.5625 L14.59375,8.5625 C14.73125,8.5625 14.84375,8.45 14.84375,8.3125 L14.84375,7.6875 C14.84375,7.55 14.73125,7.4375 14.59375,7.4375 Z M13.9390625,11.528125 L12.215625,10.5328125 C12.1765625,10.5109375 12.134375,10.5 12.0921875,10.5 C12.00625,10.5 11.921875,10.5453125 11.8765625,10.625 L11.565625,11.1640625 C11.496875,11.2828125 11.5375,11.4359375 11.65625,11.5046875 L13.3796875,12.5 C13.41875,12.521875 13.4609375,12.5328125 13.503125,12.5328125 C13.5890625,12.5328125 13.6734375,12.4875 13.71875,12.4078125 L14.0296875,11.86875 C14.0984375,11.75 14.05625,11.596875 13.9390625,11.528125 L13.9390625,11.528125 Z M11.875,5.375 C11.9203125,5.4546875 12.0046875,5.5 12.090625,5.5 C12.1328125,5.5 12.175,5.4890625 12.2140625,5.4671875 L13.9375,4.471875 C14.05625,4.403125 14.096875,4.25 14.028125,4.13125 L13.71875,3.59375 C13.6734375,3.5140625 13.5890625,3.46875 13.503125,3.46875 C13.4609375,3.46875 13.41875,3.4796875 13.3796875,3.5015625 L11.65625,4.496875 C11.5375,4.565625 11.496875,4.71875 11.565625,4.8375 L11.875,5.375 Z" id="形状" fill="#000000"></path>
        </g>
    </g>
</svg>