<?xml version="1.0" standalone="no"?><!DOCTYPE svg PUBLIC "-//W3C//DTD SVG 1.1//EN" "http://www.w3.org/Graphics/SVG/1.1/DTD/svg11.dtd"><svg class="icon" width="200px" height="200.00px" viewBox="0 0 1024 1024" version="1.1" xmlns="http://www.w3.org/2000/svg"><path fill="#000000" d="M522.816 529.856a87.232 87.232 0 1 1-80.384 121.088H108.032a33.792 33.792 0 0 1-34.432-33.92c0-18.944 15.424-34.368 34.432-34.368h334.592a87.232 87.232 0 0 1 80.192-52.8z m316.288-465.792a115.712 115.712 0 0 1 115.072 118.656 118.656 118.656 0 0 1-231.04 38.016H617.152c-31.104-3.072-62.08 7.04-85.44 27.84-13.376 20.032-21.312 42.88-23.424 66.432h99.392a34.432 34.432 0 0 1 0 68.288H511.552a141.824 141.824 0 0 1-35.584 86.016 182.784 182.784 0 0 1-115.84 47.424l-250.88 0.064a34.432 34.432 0 0 1-25.088-59.008 33.792 33.792 0 0 1 25.088-9.216h237.312c28.8 0.64 56.768-9.472 78.336-28.48 8.768-10.752 14.336-23.424 16.448-36.864H108.032a34.432 34.432 0 1 1 0-68.16h330.56c2.048-40.448 16.32-79.616 41.472-112.192a177.984 177.984 0 0 1 135.296-50.432h105.408a118.848 118.848 0 0 1 118.336-88.384z m0 68.224a47.488 47.488 0 1 0 0 94.912 47.488 47.488 0 0 0 0-94.912zM346.56 716.8a267.584 267.584 0 0 1 159.616 48.064 277.12 277.12 0 0 0 212.48 56.192 118.656 118.656 0 1 1 8.128 67.904l7.296-1.28c-19.2 3.648-38.656 6.016-58.176 7.168a337.6 337.6 0 0 1-214.208-72.96 199.936 199.936 0 0 0-115.712-33.28h-236.8a35.84 35.84 0 1 1 0-71.808h237.44z m492.544 74.24a47.488 47.488 0 1 0 0 94.912 47.488 47.488 0 0 0 0-94.976z" /></svg>