<?xml version="1.0" encoding="UTF-8"?>
<svg width="16px" height="16px" viewBox="0 0 16 16" version="1.1" xmlns="http://www.w3.org/2000/svg" xmlns:xlink="http://www.w3.org/1999/xlink">
    <title>table</title>
    <g id="table" stroke="none" stroke-width="1" fill="none" fill-rule="evenodd">
        <g fill-rule="nonzero">
            <rect id="矩形" opacity="0" x="0" y="0" width="16" height="16"></rect>
            <path d="M14.5,2.5 L1.5,2.5 C1.2234375,2.5 1,2.7234375 1,3 L1,13 C1,13.2765625 1.2234375,13.5 1.5,13.5 L14.5,13.5 C14.7765625,13.5 15,13.2765625 15,13 L15,3 C15,2.7234375 14.7765625,2.5 14.5,2.5 Z M13.875,5.75 L10.5625,5.75 L10.5625,3.625 L13.875,3.625 L13.875,5.75 Z M13.875,9.25 L10.5625,9.25 L10.5625,6.75 L13.875,6.75 L13.875,9.25 Z M6.4375,6.75 L9.5625,6.75 L9.5625,9.25 L6.4375,9.25 L6.4375,6.75 Z M9.5625,5.75 L6.4375,5.75 L6.4375,3.625 L9.5625,3.625 L9.5625,5.75 Z M2.125,6.75 L5.4375,6.75 L5.4375,9.25 L2.125,9.25 L2.125,6.75 Z M2.125,3.625 L5.4375,3.625 L5.4375,5.75 L2.125,5.75 L2.125,3.625 Z M2.125,10.25 L5.4375,10.25 L5.4375,12.375 L2.125,12.375 L2.125,10.25 Z M6.4375,10.25 L9.5625,10.25 L9.5625,12.375 L6.4375,12.375 L6.4375,10.25 Z M13.875,12.375 L10.5625,12.375 L10.5625,10.25 L13.875,10.25 L13.875,12.375 Z" id="形状" fill="#000000"></path>
        </g>
    </g>
</svg>