<?xml version="1.0" encoding="UTF-8"?>
<svg width="16px" height="16px" viewBox="0 0 16 16" version="1.1" xmlns="http://www.w3.org/2000/svg" xmlns:xlink="http://www.w3.org/1999/xlink">
    <title>theme</title>
    <g id="theme" stroke="none" stroke-width="1" fill="none" fill-rule="evenodd">
        <g transform="translate(0.000000, 0.000000)" fill-rule="nonzero">
            <rect id="矩形" opacity="0" x="0" y="0" width="15.998082" height="15.998082"></rect>
            <path d="M14.7266652,5.37275561 L11.4272581,2.07334844 C11.2522432,1.89832674 11.014868,1.8 10.7673548,1.8 C10.5198415,1.8 10.2824663,1.89832674 10.1074514,2.07334844 L9.69333898,2.48747457 C9.51835014,2.66247851 9.28102729,2.76082994 9.03354504,2.76090663 L6.96670103,2.76090663 C6.71918796,2.76098477 6.48180818,2.66260975 6.30690708,2.48747457 L5.89279462,2.07334844 C5.71777975,1.89832674 5.48040455,1.8 5.23289131,1.8 C4.98537808,1.8 4.74800288,1.89832674 4.57298801,2.07334844 L1.27334844,5.37275561 C1.09832674,5.54777048 1,5.78514569 1,6.03265892 C1,6.28017215 1.09832674,6.51754736 1.27334844,6.69256223 L2.59315505,8.01238251 C2.8313794,8.25077795 3.1801833,8.34117021 3.50420794,8.24848116 C3.65190117,8.20648619 3.80051031,8.30563642 3.80051031,8.45915317 L3.80051031,13.2318837 C3.80051031,13.7451601 4.22045996,14.1651097 4.73373631,14.1651097 L11.2662637,14.1651097 C11.77954,14.1651097 12.1994897,13.7451601 12.1994897,13.2318837 L12.1994897,8.45915317 C12.1994897,8.30563642 12.3481125,8.20648619 12.4957921,8.24848116 C12.8198167,8.34117021 13.1686206,8.25077795 13.4068449,8.01238251 L14.7266516,6.69256223 C14.9016733,6.51754736 15,6.28017215 15,6.03265892 C15,5.78514569 14.9016733,5.54777048 14.7266516,5.37275561 L14.7266652,5.37275561 Z" id="路径" fill="#000000"></path>
        </g>
    </g>
</svg>