<?xml version="1.0" encoding="UTF-8"?>
<svg width="16px" height="16px" viewBox="0 0 16 16" version="1.1" xmlns="http://www.w3.org/2000/svg" xmlns:xlink="http://www.w3.org/1999/xlink">
    <title>undo</title>
    <g id="undo" stroke="none" stroke-width="1" fill="none" fill-rule="evenodd">
        <g fill-rule="nonzero">
            <rect id="矩形" opacity="0" x="0" y="0" width="16" height="16"></rect>
            <path d="M7.990625,1.93749412 C4.5390625,1.9421875 1.75,4.734375 1.75,8.1859375 C1.75,10.1859375 2.690625,11.9671875 4.153125,13.1109375 L3.5671875,13.8609375 C3.503125,13.94375 3.5625,14.0640625 3.665625,14.0625151 L6.275,14.05 C6.35625,14.05 6.415625,13.9734375 6.3953125,13.8953125 L5.778125,11.359375 C5.753125,11.2578125 5.621875,11.2296875 5.5578125,11.3125 L4.921875,12.1265625 C4.7625,12.0015625 4.609375,11.865625 4.4640625,11.7203125 C4.0046875,11.2609375 3.64375,10.7265625 3.3921875,10.13125 C3.13125,9.515625 3,8.8609375 3,8.1859375 C3,7.5109375 3.13125,6.85625 3.3921875,6.240625 C3.64375,5.6453125 4.0046875,5.1109375 4.4640625,4.6515625 C4.9234375,4.1921875 5.4578125,3.83125 6.053125,3.5796875 C6.6703125,3.31875 7.325,3.1875 8,3.1875 C8.675,3.1875 9.3296875,3.31875 9.9453125,3.5796875 C10.540625,3.83125 11.075,4.1921875 11.534375,4.6515625 C11.99375,5.1109375 12.3546875,5.6453125 12.60625,6.240625 C12.8671875,6.85625 12.9984375,7.5109375 12.9984375,8.1859375 C12.9984375,8.8609375 12.8671875,9.515625 12.60625,10.13125 C12.3546875,10.7265625 11.99375,11.2609375 11.534375,11.7203125 C11.4171875,11.8375 11.2953125,11.946875 11.16875,12.0515625 C11.115625,12.0953125 11.1078125,12.171875 11.15,12.225 L11.765625,13.0140625 C11.809375,13.06875 11.8890625,13.078125 11.94375,13.034375 C13.3515625,11.8875 14.25,10.1421875 14.25,8.1859375 C14.25,4.73125 11.446875,1.9328125 7.990625,1.93749412 Z" id="路径" fill="#000000"></path>
        </g>
    </g>
</svg>