<?xml version="1.0" encoding="UTF-8"?>
<svg width="16px" height="16px" viewBox="0 0 16 16" version="1.1" xmlns="http://www.w3.org/2000/svg" xmlns:xlink="http://www.w3.org/1999/xlink">
    <title>ungroup</title>
    <g id="ungroup" stroke="none" stroke-width="1" fill="none" fill-rule="evenodd">
        <g fill-rule="nonzero">
            <rect id="矩形" opacity="0" x="0" y="0" width="16" height="16"></rect>
            <path d="M11.5,8.59375 L4.5,8.59375 C4.3625,8.59375 4.25,8.70625 4.25,8.84375 L4.25,11.59375 C4.25,11.73125 4.3625,11.84375 4.5,11.84375 L11.5,11.84375 C11.6375,11.84375 11.75,11.73125 11.75,11.59375 L11.75,8.84375 C11.75,8.70625 11.6375,8.59375 11.5,8.59375 Z M10.625,10.71875 L5.375,10.71875 L5.375,9.71875 L10.625,9.71875 L10.625,10.71875 Z M13.875,12.75 C13.253125,12.75 12.75,13.253125 12.75,13.875 C12.75,14.496875 13.253125,15 13.875,15 C14.496875,15 15,14.496875 15,13.875 C15,13.253125 14.496875,12.75 13.875,12.75 Z M13.875,14.25 C13.6671875,14.25 13.5,14.0828125 13.5,13.875 C13.5,13.6671875 13.6671875,13.5 13.875,13.5 C14.0828125,13.5 14.25,13.6671875 14.25,13.875 C14.25,14.0828125 14.0828125,14.25 13.875,14.25 Z M11.5,4.15625 L4.5,4.15625 C4.3625,4.15625 4.25,4.26875 4.25,4.40625 L4.25,7.15625 C4.25,7.29375 4.3625,7.40625 4.5,7.40625 L11.5,7.40625 C11.6375,7.40625 11.75,7.29375 11.75,7.15625 L11.75,4.40625 C11.75,4.26875 11.6375,4.15625 11.5,4.15625 Z M10.625,6.28125 L5.375,6.28125 L5.375,5.28125 L10.625,5.28125 L10.625,6.28125 Z M13.875,3.25 C14.496875,3.25 15,2.746875 15,2.125 C15,1.503125 14.496875,1 13.875,1 C13.253125,1 12.75,1.503125 12.75,2.125 C12.75,2.746875 13.253125,3.25 13.875,3.25 Z M13.875,1.75 C14.0828125,1.75 14.25,1.9171875 14.25,2.125 C14.25,2.3328125 14.0828125,2.5 13.875,2.5 C13.6671875,2.5 13.5,2.3328125 13.5,2.125 C13.5,1.9171875 13.6671875,1.75 13.875,1.75 Z M2.125,1 C1.503125,1 1,1.503125 1,2.125 C1,2.746875 1.503125,3.25 2.125,3.25 C2.746875,3.25 3.25,2.746875 3.25,2.125 C3.25,1.503125 2.746875,1 2.125,1 Z M2.125,2.5 C1.9171875,2.5 1.75,2.3328125 1.75,2.125 C1.75,1.9171875 1.9171875,1.75 2.125,1.75 C2.3328125,1.75 2.5,1.9171875 2.5,2.125 C2.5,2.3328125 2.3328125,2.5 2.125,2.5 Z M2.125,12.75 C1.503125,12.75 1,13.253125 1,13.875 C1,14.496875 1.503125,15 2.125,15 C2.746875,15 3.25,14.496875 3.25,13.875 C3.25,13.253125 2.746875,12.75 2.125,12.75 Z M2.125,14.25 C1.9171875,14.25 1.75,14.0828125 1.75,13.875 C1.75,13.6671875 1.9171875,13.5 2.125,13.5 C2.3328125,13.5 2.5,13.6671875 2.5,13.875 C2.5,14.0828125 2.3328125,14.25 2.125,14.25 Z" id="形状" fill="#000000"></path>
        </g>
    </g>
</svg>