<?xml version="1.0" encoding="UTF-8"?>
<svg width="16px" height="16px" viewBox="0 0 16 16" version="1.1" xmlns="http://www.w3.org/2000/svg" xmlns:xlink="http://www.w3.org/1999/xlink">
    <title>unlike</title>
    <g id="unlike" stroke="none" stroke-width="1" fill="none" fill-rule="evenodd">
        <g fill-rule="nonzero">
            <rect id="矩形" opacity="0" x="0" y="0" width="16" height="16"></rect>
            <path d="M13.8421875,7.6609375 C13.8984375,7.4734375 13.9265625,7.2796875 13.9265625,7.0828125 C13.9265625,6.640625 13.78125,6.215625 13.51875,5.86875 C13.575,5.68125 13.603125,5.4875 13.603125,5.290625 C13.603125,4.8484375 13.4578125,4.4234375 13.1953125,4.0765625 C13.2515625,3.8890625 13.2796875,3.6953125 13.2796875,3.4984375 C13.2796875,2.6921875 12.8,1.965625 12.05625,1.6484375 C11.9265625,1.5921875 11.7875,1.5640625 11.6421875,1.5640625 L2.25,1.5640625 C1.9734375,1.5640625 1.75,1.7875 1.75,2.0640625 L1.75,7.7515625 C1.75,8.028125 1.9734375,8.2515625 2.25,8.2515625 L4.2703125,8.2515625 L5.6109375,13.1078125 C5.8265625,13.890625 6.5453125,14.4375 7.3578125,14.4375 C7.821875,14.4375 8.2546875,14.253125 8.575,13.915625 C8.8953125,13.5796875 9.059375,13.1390625 9.0359375,12.675 L8.9421875,10.7546875 L12.690625,10.7546875 C12.8796875,10.7546875 13.0640625,10.7046875 13.2265625,10.609375 C13.8578125,10.2421875 14.25,9.5765625 14.25,8.875 C14.25,8.4328125 14.1046875,8.0078125 13.8421875,7.6609375 Z M2.875,7.125 L2.875,2.6875 L4.140625,2.6875 L4.140625,7.125 L2.875,7.125 Z M12.675,9.63125 L7.7625,9.63125 L7.9125,12.73125 C7.921875,12.9171875 7.8390625,13.0921875 7.684375,13.2078125 C7.5890625,13.278125 7.471875,13.3140625 7.3546875,13.3125489 C7.0484375,13.3109375 6.778125,13.103125 6.6953125,12.8078125 L5.140625,7.175 L5.140625,2.6875 L11.63125,2.6875 C11.95,2.83125 12.15625,3.146875 12.15625,3.496875 C12.15625,3.6484375 12.1203125,3.7921875 12.0484375,3.9234375 L11.83125,4.3203125 L12.1734375,4.6171875 C12.36875,4.7859375 12.4796875,5.03125 12.4796875,5.2890625 C12.4796875,5.440625 12.44375,5.584375 12.371875,5.715625 L12.1546875,6.1125 L12.496875,6.409375 C12.6921875,6.578125 12.803125,6.8234375 12.803125,7.08125 C12.803125,7.2328125 12.7671875,7.3765625 12.6953125,7.5078125 L12.4765625,7.90625 L12.81875,8.203125 C13.0140625,8.371875 13.125,8.6171875 13.125,8.875 C13.125,9.1734375 12.953125,9.4609375 12.675,9.63125 L12.675,9.63125 Z" id="形状" fill="#000000"></path>
        </g>
    </g>
</svg>