<?xml version="1.0" encoding="UTF-8"?>
<svg width="16px" height="16px" viewBox="0 0 16 16" version="1.1" xmlns="http://www.w3.org/2000/svg" xmlns:xlink="http://www.w3.org/1999/xlink">
    <title>unordered-list</title>
    <g id="unordered-list" stroke="none" stroke-width="1" fill="none" fill-rule="evenodd">
        <g fill-rule="nonzero">
            <rect id="矩形" opacity="0" x="0" y="0" width="16" height="16"></rect>
            <path d="M14.25,3 L5.125,3 C5.05625,3 5,3.05625 5,3.125 L5,4 C5,4.06875 5.05625,4.125 5.125,4.125 L14.25,4.125 C14.31875,4.125 14.375,4.06875 14.375,4 L14.375,3.125 C14.375,3.05625 14.31875,3 14.25,3 Z M14.25,7.4375 L5.125,7.4375 C5.05625,7.4375 5,7.49375 5,7.5625 L5,8.4375 C5,8.50625 5.05625,8.5625 5.125,8.5625 L14.25,8.5625 C14.31875,8.5625 14.375,8.50625 14.375,8.4375 L14.375,7.5625 C14.375,7.49375 14.31875,7.4375 14.25,7.4375 Z M14.25,11.875 L5.125,11.875 C5.05625,11.875 5,11.93125 5,12 L5,12.875 C5,12.94375 5.05625,13 5.125,13 L14.25,13 C14.31875,13 14.375,12.94375 14.375,12.875 L14.375,12 C14.375,11.93125 14.31875,11.875 14.25,11.875 Z M1.625,3.5625 C1.625,3.87510739 1.79177405,4.16396854 2.0625,4.32027224 C2.33322594,4.47657594 2.66677406,4.47657594 2.9375,4.32027224 C3.20822595,4.16396854 3.375,3.87510739 3.375,3.5625 C3.375,3.24989261 3.20822595,2.96103146 2.9375,2.80472776 C2.66677406,2.64842406 2.33322594,2.64842406 2.0625,2.80472776 C1.79177405,2.96103146 1.625,3.24989261 1.625,3.5625 L1.625,3.5625 Z M1.625,8 C1.625,8.31260739 1.79177405,8.60146854 2.0625,8.75777224 C2.33322594,8.91407594 2.66677406,8.91407594 2.9375,8.75777224 C3.20822595,8.60146854 3.375,8.31260739 3.375,8 C3.375,7.68739261 3.20822595,7.39853146 2.9375,7.24222776 C2.66677406,7.08592406 2.33322594,7.08592406 2.0625,7.24222776 C1.79177405,7.39853146 1.625,7.68739261 1.625,8 L1.625,8 Z M1.625,12.4375 C1.625,12.7501074 1.79177405,13.0389685 2.0625,13.1952722 C2.33322594,13.3515759 2.66677406,13.3515759 2.9375,13.1952722 C3.20822595,13.0389685 3.375,12.7501074 3.375,12.4375 C3.375,12.1248926 3.20822595,11.8360315 2.9375,11.6797278 C2.66677406,11.5234241 2.33322594,11.5234241 2.0625,11.6797278 C1.79177405,11.8360315 1.625,12.1248926 1.625,12.4375 L1.625,12.4375 Z" id="形状" fill="#000000"></path>
        </g>
    </g>
</svg>