<?xml version="1.0" encoding="UTF-8"?>
<svg width="16px" height="16px" viewBox="0 0 16 16" version="1.1" xmlns="http://www.w3.org/2000/svg" xmlns:xlink="http://www.w3.org/1999/xlink">
    <title>vertical-align-botto</title>
    <g id="vertical-align-botto" stroke="none" stroke-width="1" fill="none" fill-rule="evenodd">
        <g fill-rule="nonzero">
            <rect id="矩形" opacity="0" x="0" y="0" width="16" height="16"></rect>
            <path d="M13.4359375,12.1875 L2.5640625,12.1875 C2.49375,12.1875 2.4375,12.24375 2.4375,12.3125 L2.4375,13.25 C2.4375,13.31875 2.49375,13.375 2.5640625,13.375 L13.4359375,13.375 C13.50625,13.375 13.5625,13.31875 13.5625,13.25 L13.5625,12.3125 C13.5625,12.24375 13.50625,12.1875 13.4359375,12.1875 Z M7.9015625,10.453125 C7.9515625,10.5171875 8.0484375,10.5171875 8.0984375,10.453125 L9.8484375,8.2390625 C9.9125,8.1578125 9.8546875,8.0375 9.75,8.0375 L8.5921875,8.0375 L8.5921875,2.75 C8.5921875,2.68125 8.5359375,2.625 8.4671875,2.625 L7.5296875,2.625 C7.4609375,2.625 7.4046875,2.68125 7.4046875,2.75 L7.4046875,8.0359375 L6.25,8.0359375 C6.1453125,8.0359375 6.0875,8.15625 6.1515625,8.2375 L7.9015625,10.453125 Z" id="形状" fill="#000000"></path>
        </g>
    </g>
</svg>