<?xml version="1.0" encoding="UTF-8"?>
<svg width="16px" height="16px" viewBox="0 0 16 16" version="1.1" xmlns="http://www.w3.org/2000/svg" xmlns:xlink="http://www.w3.org/1999/xlink">
    <title>vertical-right</title>
    <g id="vertical-right" stroke="none" stroke-width="1" fill="none" fill-rule="evenodd">
        <g fill-rule="nonzero">
            <rect id="矩形" opacity="0" x="0" y="0" width="16" height="16"></rect>
            <path d="M5.09375,2.5625 L4.09375,2.5625 C4.025,2.5625 3.96875,2.61875 3.96875,2.6875 L3.96875,13.4375 C3.96875,13.50625 4.025,13.5625 4.09375,13.5625 L5.09375,13.5625 C5.1625,13.5625 5.21875,13.50625 5.21875,13.4375 L5.21875,2.6875 C5.21875,2.61875 5.1625,2.5625 5.09375,2.5625 Z M12.03125,3.69375 L12.03125,2.5625 C12.03125,2.45625 11.9078125,2.3984375 11.8265625,2.4671875 L5.234375,8 L11.8265625,13.5328125 C11.9078125,13.6015625 12.03125,13.54375 12.03125,13.4375 L12.03125,12.30625 C12.03125,12.159375 11.965625,12.01875 11.853125,11.9234375 L7.178125,8 L11.853125,4.0765625 C11.965625,3.98125 12.03125,3.840625 12.03125,3.69375 L12.03125,3.69375 Z" id="形状" fill="#000000"></path>
        </g>
    </g>
</svg>