<?xml version="1.0" encoding="UTF-8"?>
<svg width="16px" height="16px" viewBox="0 0 16 16" version="1.1" xmlns="http://www.w3.org/2000/svg" xmlns:xlink="http://www.w3.org/1999/xlink">
    <title>vertical-align-middl</title>
    <g id="vertical-align-middl" stroke="none" stroke-width="1" fill="none" fill-rule="evenodd">
        <g fill-rule="nonzero">
            <rect id="矩形" opacity="0" x="0" y="0" width="16" height="16"></rect>
            <path d="M13.4359375,7.40625 L2.5640625,7.40625 C2.49375,7.40625 2.4375,7.4625 2.4375,7.53125 L2.4375,8.46875 C2.4375,8.5375 2.49375,8.59375 2.5640625,8.59375 L13.4359375,8.59375 C13.50625,8.59375 13.5625,8.5375 13.5625,8.46875 L13.5625,7.53125 C13.5625,7.4625 13.50625,7.40625 13.4359375,7.40625 Z M7.9109375,6.2390625 C7.95625,6.296875 8.04375,6.296875 8.0875,6.2390625 L9.6625,4.246875 C9.7203125,4.1734375 9.66875,4.0640625 9.5734375,4.0640625 L8.59375,4.0640625 L8.59375,1.625 C8.59375,1.55625 8.5375,1.5 8.46875,1.5 L7.53125,1.5 C7.4625,1.5 7.40625,1.55625 7.40625,1.625 L7.40625,4.0625 L6.425,4.0625 C6.33125,4.0625 6.278125,4.171875 6.3359375,4.2453125 L7.9109375,6.2390625 L7.9109375,6.2390625 Z M8.0890625,9.7609375 C8.04375,9.703125 7.95625,9.703125 7.9125,9.7609375 L6.3375,11.7546875 C6.2796875,11.828125 6.33125,11.9375 6.4265625,11.9375 L7.40625,11.9375 L7.40625,14.375 C7.40625,14.44375 7.4625,14.5 7.53125,14.5 L8.46875,14.5 C8.5375,14.5 8.59375,14.44375 8.59375,14.375 L8.59375,11.9375 L9.575,11.9375 C9.66875,11.9375 9.721875,11.828125 9.6640625,11.7546875 L8.0890625,9.7609375 Z" id="形状" fill="#000000"></path>
        </g>
    </g>
</svg>