<?xml version="1.0" encoding="UTF-8"?>
<svg width="16px" height="16px" viewBox="0 0 16 16" version="1.1" xmlns="http://www.w3.org/2000/svg" xmlns:xlink="http://www.w3.org/1999/xlink">
    <title>wallet-fill</title>
    <g id="wallet-fill" stroke="none" stroke-width="1" fill="none" fill-rule="evenodd">
        <g fill-rule="nonzero">
            <rect id="矩形" opacity="0" x="0" y="0" width="16" height="16"></rect>
            <path d="M13.75,1.75 L2.25,1.75 C1.9734375,1.75 1.75,1.9734375 1.75,2.25 L1.75,13.75 C1.75,14.0265625 1.9734375,14.25 2.25,14.25 L13.75,14.25 C14.0265625,14.25 14.25,14.0265625 14.25,13.75 L14.25,2.25 C14.25,1.9734375 14.0265625,1.75 13.75,1.75 Z M13.25,9 L8.25,9 L8.25,7 L13.25,7 L13.25,9 Z M9.0625,8 C9.0625,8.34517797 9.34232203,8.625 9.6875,8.625 C10.032678,8.625 10.3125,8.34517797 10.3125,8 C10.3125,7.65482203 10.032678,7.375 9.6875,7.375 C9.34232203,7.375 9.0625,7.65482203 9.0625,8 Z" id="形状" fill="#000000"></path>
        </g>
    </g>
</svg>