<?xml version="1.0" standalone="no"?><!DOCTYPE svg PUBLIC "-//W3C//DTD SVG 1.1//EN" "http://www.w3.org/Graphics/SVG/1.1/DTD/svg11.dtd"><svg class="icon" width="200px" height="200.00px" viewBox="0 0 1024 1024" version="1.1" xmlns="http://www.w3.org/2000/svg"><path fill="#000000" d="M511.232 79.104a261.44 261.44 0 0 1 261.44 261.44c0 54.848-26.24 121.792-78.464 202.048l111.872 0.064c13.184 0 25.152 7.424 31.36 19.008l2.304 5.184 116.544 328.64a36.864 36.864 0 0 1-28.032 48.96l-5.632 0.448H99.904a36.544 36.544 0 0 1-35.2-43.84l1.472-5.568 116.544-328.64c4.48-12.672 15.36-21.696 28.16-23.68l5.568-0.512H328.32c-52.224-80.32-78.464-147.2-78.464-202.112a261.44 261.44 0 0 1 261.376-261.44zM348.992 775.744H184.96l-33.792 95.488h190.592l7.296-95.488z m510.656 62.208H554.88v33.28h316.608l-11.84-33.28z m-258.432-170.624l-15.232 18.24-30.976 35.84-16.32 18.496a36.8 36.8 0 0 1-54.848 0l-8.256-9.28-8.128-9.152-30.976-35.904a1818.816 1818.816 0 0 1-55.872-69.312H241.536l-33.92 95.488h175.04c16.32 0 29.568 12.928 31.04 29.056v5.44l-9.472 124.928h88.32v-65.152c0-15.744 11.008-28.8 25.6-31.488l5.568-0.512h313.216l-15.936-44.992h-163.2a31.616 31.616 0 0 1-31.232-32c0-15.68 11.072-28.8 25.6-31.424l5.568-0.512h140.608l-17.28-48.832h-139.2c-12.608 16.512-26.24 33.6-40.64 51.072z m-89.984-514.56A187.84 187.84 0 0 0 323.456 340.48c0 62.72 56.32 163.712 169.92 298.24l14.528 16.96 3.328 3.84 17.92-20.8c103.936-123.008 159.936-217.984 168.704-281.344l0.96-8.832 0.256-8.064a187.84 187.84 0 0 0-187.84-187.84z m0 76.992a110.784 110.784 0 1 1 0 221.568 110.784 110.784 0 0 1 0-221.568z m0 73.6a37.184 37.184 0 1 0 0 74.368 37.184 37.184 0 0 0 0-74.368z" /></svg>