<?xml version="1.0" encoding="utf-8"?>
<!-- Generator: Adobe Illustrator 24.2.3, SVG Export Plug-In . SVG Version: 6.00 Build 0)  -->
<svg version="1.1" id="Layer_1" xmlns="http://www.w3.org/2000/svg" xmlns:xlink="http://www.w3.org/1999/xlink" x="0px" y="0px"
	 viewBox="0 0 98.2 26.9" style="enable-background:new 0 0 98.2 26.9;" xml:space="preserve">
<style type="text/css">
	.st0{fill:#FFFFFF;}
	.st1{fill:#DF0329;}
</style>
<g id="脚手架-顶部搜索" transform="translate(-24.000000, 0.000000)">
	<g id="编组" transform="translate(4.000000, 12.000000)">
		<g id="形状结合" transform="translate(48.960714, 4.811214)">
			<path class="st0" d="M28.9-6.6c0-0.3,0-4,0-4h6V-12H20.5v1.4h6c0,0,0,3.7,0,4c0,0,0,0,0,0H20v1.4h6.4c-0.4,2-1.8,4.9-6.4,6.1v1.4
				c4.4-0.7,6.6-3,7.7-5.2c1.1,2.2,3.3,4.5,7.7,5.2V0.9c-4.5-1.2-5.9-4.1-6.4-6.1h6.4v-1.4L28.9-6.6C28.9-6.6,28.9-6.6,28.9-6.6z
				 M54.1-12h14.5v1.4H54.1V-12z M69-5.3v-1.4H53.6v1.4h2.9l-2,5.8c-0.1,0.4-0.1,0.9,0.2,1.3c0.3,0.4,0.7,0.6,1.2,0.6h5.2H62h5.2
				c0.5,0,0.9-0.2,1.2-0.6c0.3-0.4,0.3-0.9,0.2-1.3l-1.4-3.8H65l1.6,4.1H62h-0.9h-4.6l2.1-6.1H69z M49,0.2h3.1v-0.9h-3.2v-0.8h3.2
				v-0.9h-3.2v-0.8h1.3h0.6h0.6c0.3,0,0.6-0.3,0.6-0.6v-2.8c0-0.3-0.3-0.6-0.6-0.6h-0.6h-0.6H39h-0.3h-0.9c-0.3,0-0.6,0.3-0.6,0.6
				v2.8c0,0.3,0.3,0.6,0.6,0.6h0.9H39h1.3v0.8h-3.2v0.9h3.2v0.8h-3.2v0.9h3.1c-0.2,0.5-0.8,1-1.7,1.1C38,1.4,37.7,1.4,37,1.4v1
				c1,0,1.8-0.1,2.6-0.2c1.3-0.2,2.2-1,2.5-2.1H47c0.3,1,1.3,1.8,2.5,2.1c0.8,0.1,1.6,0.2,2.6,0.2v-1c-0.6,0-1-0.1-1.5-0.1
				C49.8,1.2,49.1,0.7,49,0.2z M45.5-4.2v-0.7h4.7v0.7H45.5z M50.2-5.6h-4.7v-0.7h4.7V-5.6z M43.7-6.4v0.7H39v-0.7H43.7z M39-4.9
				h4.7v0.7H39V-4.9z M42.3-3.3h4.6v0.8h-4.6V-3.3z M42.3-1.6h4.6v0.8h-4.6V-1.6z M42.8-8H43c0.7,0,1.2-0.5,1.2-1.2v-1.6
				c0-0.7-0.5-1.2-1.2-1.2h-0.2h-0.4h-5.3v0.9h5c0.2,0,0.3,0.2,0.3,0.3v0.4h-5v0.7h5v0.4c0,0.2-0.2,0.3-0.3,0.3h-5V-8h5.3H42.8
				L42.8-8z M50.7-8h0.2c0.7,0,1.2-0.5,1.2-1.2v-1.6c0-0.7-0.5-1.2-1.2-1.2h-0.2h-0.4h-5.3v0.9h5c0.2,0,0.3,0.2,0.3,0.3v0.4h-5v0.7
				h5v0.4c0,0.2-0.2,0.3-0.3,0.3h-5V-8h5.3H50.7L50.7-8z"/>
		</g>
		<path id="路径" class="st1" d="M56.1-4c-1.3-3.2-4.7-5.1-8.1-4.4c-2-2.2-5-3.6-8.2-3.6c-4.3,0-8,2.4-9.8,6h0
			C24.5-6,20-1.6,20,3.9c0,5.5,4.5,9.9,9.9,9.9c0,0,0,0,0,0h15.6c0.1,0,0.2-0.2,0.1-0.3c-1.1-1.1-2-2.3-2.6-3.7
			c0-0.1-0.1-0.1-0.2-0.1H29.9c-2.5,0-4.8-1.6-5.6-4.2c-0.7-2.4,0.3-5.1,2.4-6.4c1.9-1.2,4.1-1.2,5.9-0.2c0.2-3.5,2.8-6.4,6.4-6.8
			c3.3-0.4,6.3,1.5,7.6,4.4c0,0,0,0,0,0c1.1-1.3,3-1.6,4.5-0.8c1.5,0.9,2.2,2.6,1.7,4.2c2.4-0.7,5.1,0.5,6.1,3
			c1,2.3,0.1,5.2-2.1,6.5c-2.5,1.5-5.7,0.6-7.1-2c-0.3-0.6-0.5-1.2-0.6-1.8h2.6c0.2,0,0.3-0.2,0.1-0.3l-4.9-4.9
			c-0.1-0.1-0.2-0.1-0.3,0l-4.9,4.9c-0.1,0.1,0,0.3,0.1,0.3h2.4c0,1.2,0.3,2.4,0.7,3.4c1.4,3.5,4.9,5.9,8.9,5.9
			c5.3,0,9.6-4.3,9.6-9.6C63.4,0.8,60.3-3,56.1-4z"/>
		<path id="形状结合_1_" class="st0" d="M92.7,12.6h-2c0,0.2,0.2,0.6,0.8,0.6c0.3,0,0.5-0.1,0.7-0.3l0.3,0.4
			c-0.1,0.1-0.4,0.4-1,0.4c-0.6,0-0.9-0.2-1.1-0.5c-0.3-0.3-0.3-0.7-0.3-0.8c0-1,0.8-1.3,1.3-1.3c0.9,0,1.3,0.6,1.3,1.3
			C92.7,12.4,92.7,12.5,92.7,12.6z M90.7,12.2h1.4c0-0.2-0.2-0.6-0.7-0.6C90.9,11.6,90.8,12,90.7,12.2z M87.3,11.1
			c0.9,0,1.3,0.6,1.3,1.3c0,0,0,0.1,0,0.2h-2c0,0.2,0.2,0.6,0.8,0.6c0.3,0,0.5-0.1,0.7-0.3l0.3,0.4c-0.1,0.1-0.4,0.4-1,0.4
			c-0.6,0-0.9-0.2-1.1-0.5c-0.3-0.3-0.3-0.7-0.3-0.8C86.1,11.4,86.8,11.1,87.3,11.1z M86.4,10.1v0.6h-1.2v3h-0.6v-3h-1.2v-0.6H86.4z
			 M87.3,11.6c-0.5,0-0.7,0.4-0.7,0.6h1.4C88,12,87.9,11.6,87.3,11.6z M89.1,10.1h0.6v3.5h-0.6V10.1z M93,12.4
			c0-0.7,0.5-1.3,1.4-1.3c0.7,0,1,0.4,1.1,0.6L95,12c-0.1-0.1-0.3-0.3-0.6-0.3c-0.5,0-0.8,0.3-0.8,0.8c0,0.5,0.3,0.8,0.8,0.8
			c0.3,0,0.5-0.2,0.6-0.3l0.5,0.3c-0.1,0.2-0.4,0.6-1.1,0.6C93.6,13.7,93,13.2,93,12.4z M103,12.2v1.4h-0.6v-1.4
			c0-0.2,0-0.7-0.6-0.7c-0.6,0-0.7,0.5-0.7,0.8v1.3h-0.6v-1.4c0-0.2,0-0.7-0.6-0.7c-0.6,0-0.7,0.5-0.7,0.8v1.3h-0.6v-2.5h0.6v0.3
			c0.1-0.1,0.3-0.3,0.8-0.3c0.5,0,0.8,0.3,0.8,0.4c0.1-0.1,0.4-0.4,0.9-0.4c0.4,0,0.6,0.1,0.8,0.3C102.9,11.6,103,12,103,12.2z
			 M97,11.1c-0.7,0-1.3,0.5-1.3,1.3c0,0.8,0.6,1.3,1.3,1.3s1.3-0.5,1.3-1.3C98.3,11.6,97.7,11.1,97,11.1z M97,13.2
			c-0.5,0-0.7-0.4-0.7-0.8c0-0.4,0.3-0.8,0.7-0.8s0.7,0.4,0.7,0.8C97.7,12.8,97.4,13.2,97,13.2z M108.2,10.1h0.6v3.5h-0.6V10.1z
			 M114.9,11.1v2.5h-0.6v-0.3c-0.1,0.1-0.4,0.4-0.8,0.4c-1,0-1.1-0.7-1.1-1.1v-1.4h0.6v1.4c0,0.2,0.1,0.7,0.6,0.7
			c0.6,0,0.7-0.5,0.7-0.8v-1.3H114.9L114.9,11.1z M107.8,10.9l-0.4,0.4c0,0-0.3-0.4-0.9-0.4c-0.6,0-1.2,0.4-1.2,1.2
			c0,0.8,0.6,1.2,1.1,1.2c0.5,0,0.7-0.2,0.9-0.4l0.4,0.4c0,0-0.4,0.6-1.4,0.6s-1.7-0.7-1.7-1.7s0.8-1.7,1.8-1.7
			C107.4,10.3,107.8,10.9,107.8,10.9z M110.6,11.1c-0.7,0-1.3,0.5-1.3,1.3c0,0.8,0.6,1.3,1.3,1.3s1.3-0.5,1.3-1.3
			C111.9,11.6,111.3,11.1,110.6,11.1z M110.6,13.2c-0.5,0-0.7-0.4-0.7-0.8c0-0.4,0.3-0.8,0.7-0.8s0.7,0.4,0.7,0.8
			C111.3,12.8,111.1,13.2,110.6,13.2z M117.4,10.1v1.3c-0.3-0.3-0.6-0.3-0.8-0.3c-0.8,0-1.3,0.6-1.3,1.3c0,0.7,0.4,1.3,1.3,1.3
			c0.5,0,0.7-0.2,0.8-0.4v0.3h0.6v-3.5H117.4z M116.7,13.2c-0.5,0-0.7-0.4-0.7-0.8c0-0.4,0.3-0.8,0.7-0.8s0.7,0.4,0.7,0.8
			C117.4,12.8,117.1,13.2,116.7,13.2z M74.7,12.2v1.4h-0.6v-1.4c0-0.2-0.1-0.7-0.6-0.7c-0.6,0-0.7,0.5-0.7,0.8v1.3h-0.6v-3.5h0.6
			v1.3c0.1-0.1,0.4-0.3,0.8-0.3C74.5,11.1,74.7,11.7,74.7,12.2z M75.4,11.1h0.8v2.5h-0.8V11.1z M76.3,10.4c0,0.2-0.2,0.4-0.5,0.4
			c-0.3,0-0.5-0.1-0.5-0.4c0-0.2,0.2-0.4,0.5-0.4C76.1,10,76.3,10.1,76.3,10.4z M79.1,12.2v1.4h-0.6v-1.4c0-0.2-0.1-0.7-0.6-0.7
			c-0.6,0-0.7,0.5-0.7,0.8v1.3h-0.6v-2.5h0.6v0.3c0.1-0.1,0.4-0.4,0.8-0.4C78.9,11.1,79.1,11.7,79.1,12.2z M81.9,12.2v1.5h-0.6v-0.3
			c-0.1,0.1-0.3,0.3-0.8,0.3c-0.8,0-0.9-0.6-0.9-0.8c0-0.3,0.1-0.8,1-0.8h0.7c0-0.3-0.1-0.6-0.6-0.6c-0.4,0-0.7,0.2-0.8,0.3
			l-0.2-0.4c0.1-0.1,0.5-0.3,1.1-0.3C81.1,11.1,81.9,11.2,81.9,12.2z M81.3,12.9v-0.3h-0.6c-0.3,0-0.5,0.1-0.5,0.3
			c0,0.3,0.3,0.3,0.5,0.3C81.1,13.3,81.3,13,81.3,12.9z M71.8,10.9l-0.4,0.4c0,0-0.3-0.4-0.9-0.4c-0.6,0-1.2,0.4-1.2,1.2
			c0,0.8,0.6,1.2,1.1,1.2c0.5,0,0.7-0.2,0.9-0.4l0.4,0.4c0,0-0.4,0.6-1.4,0.6S68.7,13,68.7,12s0.8-1.7,1.8-1.7
			C71.4,10.3,71.8,10.9,71.8,10.9z"/>
	</g>
</g>
</svg>
