<?xml version="1.0" encoding="UTF-8"?>
<svg width="59px" height="59px" viewBox="0 0 59 59" version="1.1" xmlns="http://www.w3.org/2000/svg" xmlns:xlink="http://www.w3.org/1999/xlink">
    <title>编组 65备份</title>
    <defs>
        <rect id="path-1" x="0" y="0" width="40" height="40" rx="10"></rect>
        <filter x="-38.8%" y="-28.8%" width="177.5%" height="177.5%" filterUnits="objectBoundingBox" id="filter-2">
            <feOffset dx="0" dy="4" in="SourceAlpha" result="shadowOffsetOuter1"></feOffset>
            <feGaussianBlur stdDeviation="4.5" in="shadowOffsetOuter1" result="shadowBlurOuter1"></feGaussianBlur>
            <feColorMatrix values="0 0 0 0 0.907331664   0 0 0 0 0.952208065   0 0 0 0 0.997084466  0 0 0 1 0" type="matrix" in="shadowBlurOuter1"></feColorMatrix>
        </filter>
    </defs>
    <g id="页面-1" stroke="none" stroke-width="1" fill="none" fill-rule="evenodd">
        <g id="页面" transform="translate(-281.000000, -172.000000)">
            <g id="编组-68" transform="translate(270.000000, 168.000000)">
                <g id="编组-65备份" transform="translate(20.523245, 9.737466)">
                    <g id="矩形">
                        <use fill="black" fill-opacity="1" filter="url(#filter-2)" xlink:href="#path-1"></use>
                        <use fill="#FFFFFF" fill-rule="evenodd" xlink:href="#path-1"></use>
                    </g>
                    <g id="数据分析-(1)" transform="translate(10.980392, 10.196078)" fill="#8BB2F9" fill-rule="nonzero">
                        <path d="M9.78925055,0 C10.8912029,0 11.7845118,0.906054471 11.7845118,2.02372928 L11.7845118,13.7709718 C11.7845118,14.8886466 10.8912029,15.794701 9.78925055,15.794701 L8.72926799,15.794701 C7.62731564,15.794701 6.73400673,14.8886466 6.73400673,13.7709718 L6.73400673,2.02372928 C6.73400673,0.90605446 7.62731563,0 8.72926799,0 L9.78925055,0 Z M16.5232573,2.98803627 C17.6252096,2.98803627 18.5185185,3.89409074 18.5185185,5.01176555 L18.5185185,13.7714777 C18.5185185,14.8891525 17.6252096,15.795207 16.5232573,15.795207 L15.4632747,15.795207 C14.3613224,15.795207 13.4680135,14.8891525 13.4680135,13.7714777 L13.4680135,5.01176555 C13.4680135,3.89409073 14.3613224,2.98803627 15.4632747,2.98803627 L16.5232573,2.98803627 Z M3.05524382,5.97657847 C4.15719617,5.97657848 5.05050505,6.88263294 5.05050505,8.00030775 L5.05050505,13.7709718 C5.05050505,14.8886466 4.15719616,15.794701 3.05524382,15.794701 L1.99526126,15.794701 C0.893308904,15.794701 0,14.8886466 0,13.7709718 L0,7.99980181 C0,6.882127 0.893308893,5.97607253 1.99526126,5.97607253 L3.05524382,5.97607253 L3.05524382,5.97657847 Z" id="形状"></path>
                        <path d="M0.842000263,17.9738562 L17.6765183,17.9738562 C18.2378518,17.9738562 18.5185185,18.2462681 18.5185185,18.7910918 L18.5185185,18.7906076 C18.5185185,19.3354313 18.2378518,19.6078431 17.6765183,19.6078431 L0.842000263,19.6078431 C0.280666772,19.6078431 0,19.3354313 0,18.7906076 L0,18.7910918 C0,18.2462681 0.280666754,17.9738562 0.842000263,17.9738562 Z" id="路径"></path>
                    </g>
                </g>
            </g>
        </g>
    </g>
</svg>