<?xml version="1.0" encoding="UTF-8"?>
<svg width="20px" height="20px" viewBox="0 0 20 20" version="1.1" xmlns="http://www.w3.org/2000/svg" xmlns:xlink="http://www.w3.org/1999/xlink">
    <title>工具 (1)</title>
    <g id="页面-1" stroke="none" stroke-width="1" fill="none" fill-rule="evenodd" opacity="0.893">
        <g id="页面" transform="translate(-1228.000000, -505.000000)" fill="#6BC9AB" fill-rule="nonzero">
            <g id="编组-30" transform="translate(1137.000000, 320.000000)">
                <g id="编组-39" transform="translate(67.000000, 161.000000)">
                    <g id="工具-(1)" transform="translate(24.000000, 24.000000)">
                        <path d="M12.5,0 C13.8783467,0 15,1.12168 15,2.5 L15,3.33333333 L17.5466667,3.33333333 C18.9016,3.33333333 20,4.43173333 20,5.78666667 L20,16.72 C20,18.0749333 18.9016,19.1733333 17.5466667,19.1733333 L2.45333333,19.1733333 C1.0984,19.1733333 0,18.0749333 0,16.72 L0,5.78666667 C0,4.43173333 1.0984,3.33333333 2.45333333,3.33333333 L5,3.33333333 L5,2.5 C5,1.12165333 6.12168,0 7.5,0 L12.5,0 Z M1.68,12.0999733 L1.68,16.64 C1.68,17.10656 2.05445333,17.48568 2.5192,17.4932267 L2.53333333,17.4933333 L17.4933333,17.4933333 C17.9598933,17.4933333 18.3390133,17.11888 18.3466667,16.6541333 L18.3466667,16.64 L18.3466667,12.0999733 L12.2933333,12.0999733 L12.2933333,14.0533333 C12.2933333,14.4509867 11.9709867,14.7733333 11.5733333,14.7733333 L8.45333333,14.7733333 C8.05568,14.7733333 7.73333333,14.4509867 7.73333333,14.0533333 L7.73333333,12.0999733 L1.68,12.0999733 Z M10.96,9.28 L9.09333333,9.28 L9.09333333,13.2533333 L10.96,13.2533333 L10.96,9.28 Z M17.4933333,5.01333333 L15,5.01333333 L15,5.83333333 C15,6.29416 14.6274933,6.66666667 14.1666667,6.66666667 C13.70584,6.66666667 13.3333333,6.29416 13.3333333,5.83333333 L13.3333333,5.01333333 L6.66666667,5.01333333 L6.66666667,5.83333333 C6.66666667,6.29416 6.29416,6.66666667 5.83333333,6.66666667 C5.37250667,6.66666667 5,6.29416 5,5.83333333 L5,5.01333333 L2.53333333,5.01333333 C2.06677333,5.01333333 1.68765333,5.38778667 1.68,5.85253333 L1.68,5.86666667 L1.68,10.4333333 L7.73333333,10.4333333 L7.73333333,8.42666667 C7.73333333,8.02901333 8.05568,7.70666667 8.45333333,7.70666667 L11.5733333,7.70666667 C11.9709867,7.70666667 12.2933333,8.02901333 12.2933333,8.42666667 L12.2933333,10.4333333 L18.3466667,10.4333333 L18.3466667,5.86666667 C18.3466667,5.39538667 17.9646133,5.01333333 17.4933333,5.01333333 Z M12.5,1.66666667 L7.5,1.66666667 C7.04,1.66666667 6.66666667,2.04 6.66666667,2.5 L6.66666667,3.33333333 L13.3333333,3.33333333 L13.3333333,2.5 C13.3333333,2.04 12.96,1.66666667 12.5,1.66666667 Z" id="形状"></path>
                    </g>
                </g>
            </g>
        </g>
    </g>
</svg>