<?xml version="1.0" encoding="UTF-8"?>
<svg width="20px" height="20px" viewBox="0 0 20 20" version="1.1" xmlns="http://www.w3.org/2000/svg" xmlns:xlink="http://www.w3.org/1999/xlink">
    <title>目标 (1)</title>
    <g id="页面-1" stroke="none" stroke-width="1" fill="none" fill-rule="evenodd">
        <g id="页面" transform="translate(-1228.000000, -375.000000)" fill="#7FA8F4" fill-rule="nonzero">
            <g id="编组-30" transform="translate(1137.000000, 320.000000)">
                <g id="编组-40" transform="translate(67.000000, 31.000000)">
                    <g id="目标-(1)" transform="translate(24.000000, 24.000000)">
                        <path d="M10.2614609,8.73721789 C9.90737484,8.52423307 9.4970102,8.40079869 9.05616133,8.40079869 C7.73595967,8.40079869 6.66666667,9.50444727 6.66666667,10.867066 C6.66666667,12.2296848 7.73595967,13.3333333 9.05616133,13.3333333 C10.376363,13.3333333 11.445656,12.2296848 11.445656,10.867066 C11.445656,10.4774006 11.3565482,10.1070975 11.2017822,9.77793913 L16.5201079,4.28873964 L17.2493845,4.92285351 L20,2.24602166 L17.9528667,2.01851516 L17.6878884,0 L14.9349279,2.67683185 L15.5422676,3.28190234 L10.2614609,8.73721789 Z" id="路径"></path>
                        <path d="M16.0326648,5.84472316 C16.9870172,7.17277697 17.5496068,8.80152222 17.5496068,10.5578335 C17.5496068,15.0272016 13.9144124,18.6628343 9.44558329,18.6628343 C4.97675416,18.6628343 1.33928213,15.0272016 1.33928213,10.5578335 C1.33928213,6.08846546 4.97675416,2.45055475 9.44558329,2.45055475 C11.192572,2.45055475 12.8097324,3.00865627 14.1353484,3.95173393 L15.0942562,2.99271051 C13.5180942,1.81272445 11.5615579,1.11111111 9.44558329,1.11111111 C4.23878237,1.11111111 0,5.34812671 0,10.5555556 C0,15.7629844 4.23650468,20 9.44558329,20 C14.6546619,20 18.8888889,15.7629844 18.8888889,10.5555556 C18.8888889,8.4279359 18.1828048,6.46432974 16.9915725,4.88342177 L16.0326648,5.84472316 Z" id="路径"></path>
                        <path d="M9.44444444,5.82331372 C10.2417498,5.82331372 10.9944999,6.02264006 11.6534493,6.37439243 L12.6641511,5.36369063 C11.7284898,4.78212672 10.6263324,4.44444444 9.44444444,4.44444444 C6.07465677,4.44444444 3.33333333,7.18576789 3.33333333,10.5555556 C3.33333333,13.9253432 6.07465677,16.6666667 9.44444444,16.6666667 C12.8142321,16.6666667 15.5555556,13.9253432 15.5555556,10.5555556 C15.5555556,9.36428754 15.2108382,8.25275006 14.6198943,7.31239874 L13.6115375,8.32075552 C13.9703249,8.98674 14.1743413,9.74887013 14.1743413,10.5555556 C14.1743413,13.1632131 12.052102,15.2854524 9.44444444,15.2854524 C6.8367869,15.2854524 4.71454763,13.1632131 4.71454763,10.5555556 C4.71220261,7.945553 6.83444189,5.82331372 9.44444444,5.82331372 Z" id="路径"></path>
                    </g>
                </g>
            </g>
        </g>
    </g>
</svg>