<?xml version="1.0" encoding="UTF-8"?>
<svg width="58px" height="58px" viewBox="0 0 58 58" version="1.1" xmlns="http://www.w3.org/2000/svg" xmlns:xlink="http://www.w3.org/1999/xlink">
    <title>编组 69</title>
    <defs>
        <rect id="path-1" x="0" y="0" width="40" height="40" rx="10"></rect>
        <filter x="-38.8%" y="-28.8%" width="177.5%" height="177.5%" filterUnits="objectBoundingBox" id="filter-2">
            <feOffset dx="0" dy="4" in="SourceAlpha" result="shadowOffsetOuter1"></feOffset>
            <feGaussianBlur stdDeviation="4.5" in="shadowOffsetOuter1" result="shadowBlurOuter1"></feGaussianBlur>
            <feColorMatrix values="0 0 0 0 0.931097561   0 0 0 0 0.93655934   0 0 0 0 1  0 0 0 1 0" type="matrix" in="shadowBlurOuter1"></feColorMatrix>
        </filter>
    </defs>
    <g id="页面-1" stroke="none" stroke-width="1" fill="none" fill-rule="evenodd">
        <g id="页面" transform="translate(-1152.000000, -173.000000)">
            <g id="编组-68备份-3" transform="translate(1140.000000, 168.000000)">
                <g id="编组-69" transform="translate(21.000000, 10.000000)">
                    <g id="矩形">
                        <use fill="black" fill-opacity="1" filter="url(#filter-2)" xlink:href="#path-1"></use>
                        <use fill="#FFFFFF" fill-rule="evenodd" xlink:href="#path-1"></use>
                    </g>
                    <g id="数据库" transform="translate(10.000000, 11.000000)" fill-rule="nonzero">
                        <path d="M8.53349199,9.7785975 L0.484722863,5.64657917 C0.101714398,5.49281665 -0.0828006285,5.05669022 0.0709618938,4.67368176 C0.146445314,4.48357537 0.297412154,4.33540421 0.484722863,4.25992079 L8.44403016,0.127902462 C8.76832929,-0.0426341539 9.15413344,-0.0426341539 9.47843258,0.127902462 L17.5803197,4.25992079 C17.9633281,4.41368331 18.1478432,4.84980974 17.9940806,5.2328182 C17.9185972,5.42292459 17.7676304,5.57109575 17.5803197,5.64657917 L9.60703396,9.7785975 C9.27155209,9.95752116 8.86897385,9.95752116 8.53349199,9.7785975 Z" id="路径" fill="#909BF3"></path>
                        <path d="M17.5383844,8.30247729 C17.9241886,8.46462685 18.1059079,8.90634465 17.9437584,9.29214879 C17.8682749,9.47666382 17.7201038,9.62203929 17.5383844,9.69752271 L9.56230304,13.829541 C9.23263356,13.9916874 8.84638738,13.9916874 8.51671789,13.829541 L0.46794877,9.69752271 C0.0821446227,9.53537315 -0.0995747218,9.09365535 0.0625748472,8.70785121 C0.138058267,8.52333618 0.286229425,8.37796071 0.46794877,8.30247729 L1.08859022,7.98656519 L8.53349199,11.8026714 C8.86338249,11.964821 9.24918664,11.964821 9.57907714,11.8026714 L16.9345171,7.99495224 L17.5383844,8.30247729 L17.5383844,8.30247729 Z" id="路径" fill="#5B68FF"></path>
                        <path d="M17.5383844,12.3534208 C17.9213929,12.5071834 18.1059079,12.9433098 17.9521454,13.3263182 C17.876662,13.5164246 17.7256951,13.6645958 17.5383844,13.7400792 L9.56230304,17.8720975 C9.23520822,18.0426342 8.84381271,18.0426342 8.51671789,17.8720975 L0.46794877,13.7400792 C0.084940305,13.5863167 -0.0995747218,13.1501903 0.0541878005,12.7671818 C0.129671221,12.5770754 0.280638061,12.4289042 0.46794877,12.3534208 L1.08859022,12.0291217 L8.53349199,15.8564107 C8.86338249,16.0185602 9.24918664,16.0185602 9.57907714,15.8564107 L16.9345171,12.0403044 C16.9345171,12.0375087 17.5383844,12.3534208 17.5383844,12.3534208 L17.5383844,12.3534208 Z" id="路径" fill="#5B68FF"></path>
                    </g>
                </g>
            </g>
        </g>
    </g>
</svg>