<?xml version="1.0" encoding="utf-8"?>
<!-- Generator: Adobe Illustrator 24.2.3, SVG Export Plug-In . SVG Version: 6.00 Build 0)  -->
<svg version="1.1" id="Layer_1" xmlns="http://www.w3.org/2000/svg" xmlns:xlink="http://www.w3.org/1999/xlink" x="0px" y="0px"
	 viewBox="0 0 110.4 16.8" style="enable-background:new 0 0 110.4 16.8;" xml:space="preserve">
<style type="text/css">
	.st0{fill:#FFFFFF;}
</style>
<path id="路径" class="st0" d="M10.9,11v2.4H6.2c-0.9,0-1.6,0-2-0.1c-1.6-0.3-2.8-1.2-3.5-2.7C0.2,9.4,0,8.2,0,6.7
	c0-1.8,0.3-3.2,1-4.4c0.5-0.8,1.2-1.4,2-1.8S5,0,6.3,0h4.5v2.4H6.7c-1.3,0-2.2,0.3-2.8,1C3.4,4,3.1,5,3.1,6.4c0,2,0.4,3.3,1.1,3.9
	C4.8,10.7,5.6,11,6.8,11H10.9z"/>
<path id="路径_1_" class="st0" d="M19.1,11.3V3.6h2.7v9.7h-5.3c-0.8,0-1.3-0.1-1.8-0.2c-0.4-0.1-0.8-0.3-1.1-0.6
	c-0.7-0.6-1-1.6-1-3v-6h2.7v6.3c0,0.4,0.1,0.8,0.4,1c0.2,0.2,0.5,0.4,1,0.4H19.1z"/>
<path id="路径_2_" class="st0" d="M25.2,3.6V0h2.7v3.6h2.5v2.1h-2.5v3.5c0,0.8,0.1,1.3,0.2,1.6c0.2,0.3,0.6,0.5,1.2,0.5h1.1v2.1
	h-1.9c-1.2,0-2-0.3-2.5-0.8s-0.7-1.5-0.7-2.8v-4h-1.7V3.6H25.2z"/>
<path id="路径_3_" class="st0" d="M40.1,7.4v2.1h-5.6c0.1,0.6,0.3,1.1,0.6,1.4c0.4,0.3,0.9,0.4,1.8,0.4h3.3v2.1h-3.6
	c-0.8,0-1.4-0.1-1.9-0.2c-0.5-0.1-0.9-0.4-1.4-0.7c-1.2-0.9-1.8-2.3-1.8-4.1c0-1.2,0.3-2.2,0.9-3.1c0.4-0.6,0.9-1,1.5-1.3
	c0.6-0.3,1.4-0.4,2.4-0.4h3.8v2.1h-3.6c-0.7,0-1.2,0.1-1.5,0.4c-0.3,0.2-0.5,0.7-0.5,1.4H40.1z"/>
<path id="形状" class="st0" d="M48.7,0h5.7c1.4,0,2.5,0.1,3.3,0.4c1.4,0.5,2.4,1.5,2.9,2.9c0.4,1.1,0.5,2.2,0.5,3.4
	c0,1.2-0.2,2.3-0.5,3.4c-0.3,1.1-0.9,1.9-1.7,2.4c-0.5,0.3-1.1,0.5-1.7,0.6c-0.6,0.1-1.5,0.2-2.8,0.2h-5.7V0z M51.6,2.4V11h2.8
	c1.2,0,2.1-0.3,2.6-0.8c0.3-0.3,0.5-0.8,0.7-1.5c0.2-0.6,0.3-1.3,0.3-2c0-0.8-0.1-1.5-0.3-2.2s-0.5-1.1-0.8-1.5
	c-0.5-0.5-1.3-0.7-2.4-0.7H51.6z"/>
<path id="路径_4_" class="st0" d="M70.9,7.4v2.1h-5.6c0.1,0.6,0.3,1.1,0.6,1.4c0.4,0.3,0.9,0.4,1.8,0.4h3.3v2.1h-3.6
	c-0.8,0-1.4-0.1-1.9-0.2c-0.5-0.1-0.9-0.4-1.4-0.7c-1.2-0.9-1.8-2.3-1.8-4.1c0-1.2,0.3-2.2,0.9-3.1c0.4-0.6,0.9-1,1.5-1.3
	s1.4-0.4,2.4-0.4h3.8v2.1h-3.6c-0.7,0-1.2,0.1-1.5,0.4c-0.3,0.2-0.5,0.7-0.5,1.4H70.9z"/>
<path id="路径_5_" class="st0" d="M81.6,3.6v2.1h-4.7c-0.5,0-0.9,0-1,0.1c-0.3,0.1-0.5,0.4-0.5,0.8c0,0.3,0.1,0.6,0.4,0.8
	c0.2,0.1,0.6,0.2,1.3,0.2h1.6c1,0,1.8,0.2,2.4,0.6c0.7,0.5,1,1.2,1,2.1c0,0.7-0.2,1.4-0.6,1.9c-0.3,0.5-0.7,0.8-1.1,0.9
	c-0.4,0.1-1.1,0.2-2.1,0.2h-5.5v-2.1h4.8c0.6,0,1,0,1.2,0c0.5-0.1,0.7-0.3,0.7-0.8c0-0.4-0.2-0.7-0.5-0.8c-0.2-0.1-0.5-0.1-1.2-0.1
	h-1.6c-0.6,0-1.1,0-1.5-0.1c-0.3-0.1-0.7-0.2-0.9-0.4c-0.4-0.3-0.6-0.6-0.9-1.1s-0.3-0.9-0.3-1.4c0-1,0.4-1.7,1.1-2.3
	c0.4-0.3,1.2-0.5,2.2-0.5H81.6z"/>
<path id="形状_1_" class="st0" d="M84.1,3.6h2.7v9.7h-2.7V3.6z M84.1,2.6V0h2.7v2.6H84.1z"/>
<path id="形状_2_" class="st0" d="M98.7,3.6v9.7c0,0.5-0.1,1-0.2,1.5c-0.1,0.4-0.3,0.8-0.6,1.1c-0.3,0.4-0.7,0.6-1.1,0.8
	s-1.1,0.2-1.9,0.2h-5.3v-2.1h5c0.6,0,1-0.1,1.2-0.3c0.2-0.2,0.3-0.6,0.3-1.1h-2.5c-0.8,0-1.4-0.1-2-0.2s-1-0.4-1.4-0.8
	c-1-0.9-1.5-2.2-1.5-3.8c0-1.8,0.6-3.2,1.8-4c0.4-0.3,0.9-0.5,1.3-0.7c0.5-0.1,1.1-0.2,1.8-0.2H98.7z M96.1,5.7h-2.2
	c-1.5,0-2.3,0.9-2.3,2.8c0,0.9,0.2,1.6,0.6,2.1c0.4,0.5,1,0.7,1.8,0.7h2.1V5.7z"/>
<path id="路径_6_" class="st0" d="M101.4,3.6h5.2c0.8,0,1.4,0.1,1.8,0.2c0.4,0.1,0.8,0.3,1.1,0.6c0.7,0.6,1,1.6,1,3v6h-2.7V7
	c0-0.5-0.1-0.8-0.3-1s-0.6-0.3-1.1-0.3H104v7.7h-2.7V3.6z"/>
</svg>
