<?xml version="1.0" encoding="utf-8"?>
<!-- Generator: Adobe Illustrator 26.3.1, SVG Export Plug-In . SVG Version: 6.00 Build 0)  -->
<svg version="1.1" id="Layer_1" xmlns="http://www.w3.org/2000/svg" xmlns:xlink="http://www.w3.org/1999/xlink" x="0px" y="0px"
	 viewBox="0 0 94 24" style="enable-background:new 0 0 94 24;" xml:space="preserve">
<style type="text/css">
	.st0{fill-rule:evenodd;clip-rule:evenodd;fill:#333;}
</style>
<g id="红" transform="translate(169.000000, 16.000000)">
	<g id="Clip-4">
	</g>
	<g>
		<path id="Fill-1" class="st0" d="M-116.5-5.8v-4.1h6.1v-1.4h-14.7v1.4h6.1v4.1l0,0h-6.6v1.4h6.4c-0.4,2.1-1.8,4.9-6.4,6.2v1.5
			c4.5-0.7,6.7-3.1,7.8-5.3c1.1,2.2,3.3,4.6,7.8,5.3V1.8c-4.6-1.3-6-4.1-6.4-6.2h6.4v-1.4H-116.5L-116.5-5.8"/>
		<polygon id="Fill-3" class="st0" points="-91,-9.9 -76.2,-9.9 -76.2,-11.3 -91,-11.3 		"/>
		<path id="Fill-5" class="st0" d="M-75.8-4.5v-1.4h-15.6v1.4h2.9l-2,5.9c-0.2,0.4-0.1,0.9,0.2,1.3c0.3,0.4,0.7,0.6,1.2,0.6h5.3h0.9
			h5.3c0.5,0,0.9-0.2,1.2-0.6c0.3-0.4,0.3-0.9,0.2-1.3l-1.5-3.8h-2.1l1.6,4.2h-4.6h-0.9h-4.7l2.1-6.2h10.5V-4.5z"/>
		<path id="Fill-6" class="st0" d="M-102.9,0.1h4.6v-0.8h-4.6V0.1z M-102.9-1.7h4.6v-0.8h-4.6V-1.7z M-106.3-3.4h4.8v-0.7h-4.8V-3.4
			z M-106.3-4.9h4.8v-0.7h-4.8V-4.9z M-99.7-4.9h4.8v-0.7h-4.8V-4.9z M-99.7-3.4h4.8v-0.7h-4.8V-3.4z M-96.1,1h3.1V0h-3.3v-0.8h3.3
			v-1h-3.3v-0.8h1.3h0.6h0.6c0.3,0,0.6-0.3,0.6-0.6v-2.9c0-0.3-0.3-0.6-0.6-0.6h-0.6H-95h-11.3h-0.3h-0.9c-0.3,0-0.6,0.3-0.6,0.6
			v2.9c0,0.3,0.3,0.6,0.6,0.6h0.9h0.3h1.3v0.8h-3.3v1h3.3V0h-3.3v1h3.2c-0.2,0.5-0.8,1-1.7,1.2c-0.5,0.1-0.8,0.1-1.5,0.1v1
			c1,0,1.8-0.1,2.6-0.2c1.3-0.3,2.3-1.1,2.6-2.1h4.9c0.3,1,1.3,1.8,2.6,2.1c0.8,0.2,1.6,0.2,2.6,0.2v-1c-0.6,0-1-0.1-1.5-0.1
			C-95.3,2-96,1.5-96.1,1L-96.1,1z"/>
		<path id="Fill-7" class="st0" d="M-102.4-7.2h0.2c0.7,0,1.2-0.6,1.2-1.2v-1.7c0-0.7-0.6-1.2-1.2-1.2h-0.2h-0.4h-5.4v0.9h5.1
			c0.2,0,0.4,0.2,0.4,0.4v0.4h-5.1v0.7h5.1v0.4c0,0.2-0.2,0.4-0.4,0.4h-5.1v0.9h5.4C-102.8-7.2-102.4-7.2-102.4-7.2z"/>
		<path id="Fill-8" class="st0" d="M-94.4-7.2h0.2c0.7,0,1.2-0.6,1.2-1.2v-1.7c0-0.7-0.6-1.2-1.2-1.2h-0.2h-0.4h-5.4v0.9h5.1
			c0.2,0,0.4,0.2,0.4,0.4v0.4h-5.1v0.7h5.1v0.4c0,0.2-0.2,0.4-0.4,0.4h-5.1v0.9h5.4C-94.8-7.2-94.4-7.2-94.4-7.2z"/>
	</g>
	<path id="Fill-9" class="st0" d="M-138-8.5c-1.1-2.8-4.1-4.4-7-3.8c-1.7-1.9-4.2-3.1-7-3.1c-3.7,0-6.9,2.1-8.5,5.1l0,0
		c-4.7,0-8.5,3.8-8.5,8.6c0,4.7,3.8,8.5,8.5,8.5l0,0h13.5c0.1,0,0.2-0.1,0.1-0.2c-0.9-0.9-1.7-2-2.2-3.2c0-0.1-0.1-0.1-0.2-0.1
		h-11.2c-2.1,0-4.1-1.4-4.8-3.6c-0.6-2.2,0.3-4.4,2.1-5.6c1.6-1.1,3.6-1,5.1-0.2c0.2-3,2.4-5.5,5.5-5.9c2.8-0.3,5.5,1.3,6.5,3.8l0,0
		c0.9-1.1,2.6-1.4,3.9-0.7s1.9,2.3,1.5,3.6c2.1-0.6,4.4,0.4,5.3,2.5c0.9,2,0.1,4.4-1.8,5.5c-2.2,1.3-4.9,0.5-6.1-1.7
		c-0.3-0.5-0.4-1-0.5-1.5h2.2c0.1,0,0.2-0.2,0.1-0.3l-4.2-4.2c-0.1-0.1-0.2-0.1-0.3,0l-4.2,4.2c-0.1,0.1,0,0.3,0.1,0.3h2.1
		c0,1,0.2,2,0.6,2.9c1.2,3,4.2,5.1,7.6,5.1c4.6,0,8.2-3.7,8.2-8.2C-131.7-4.4-134.4-7.6-138-8.5"/>
</g>
</svg>
