<?xml version="1.0" encoding="UTF-8"?>
<svg width="104px" height="130px" viewBox="0 0 104 130" version="1.1" xmlns="http://www.w3.org/2000/svg" xmlns:xlink="http://www.w3.org/1999/xlink">
    <title>提交成功</title>
    <defs>
        <linearGradient x1="-0.692725018%" y1="51.345309%" x2="99.3204533%" y2="48.6691576%" id="linearGradient-1">
            <stop stop-color="#000000" stop-opacity="0.1" offset="0%"></stop>
            <stop stop-color="#000000" stop-opacity="0" offset="100%"></stop>
        </linearGradient>
        <linearGradient x1="-0.0466824645%" y1="49.9571856%" x2="100.095972%" y2="49.9571856%" id="linearGradient-2">
            <stop stop-color="#E8EEF5" offset="0%"></stop>
            <stop stop-color="#CBD9E6" offset="100%"></stop>
        </linearGradient>
        <linearGradient x1="49.9516577%" y1="-0.0279146909%" x2="49.9516577%" y2="100.026146%" id="linearGradient-3">
            <stop stop-color="#E8EEF5" offset="0%"></stop>
            <stop stop-color="#CBD9E6" offset="100%"></stop>
        </linearGradient>
        <linearGradient x1="47.3544779%" y1="-0.264455188%" x2="53.1086551%" y2="99.7487927%" id="linearGradient-4">
            <stop stop-color="#F9F9F9" offset="0%"></stop>
            <stop stop-color="#F9F9F9" stop-opacity="0.6" offset="100%"></stop>
        </linearGradient>
        <linearGradient x1="51.1585816%" y1="112.969284%" x2="49.4419145%" y2="18.0866051%" id="linearGradient-5">
            <stop stop-color="#E8EEF5" offset="0%"></stop>
            <stop stop-color="#CBD9E6" offset="100%"></stop>
        </linearGradient>
    </defs>
    <g id="表单" stroke="none" stroke-width="1" fill="none" fill-rule="evenodd">
        <g id="分步表单-提交成功" transform="translate(-763.000000, -240.000000)">
            <g id="提交成功" transform="translate(740.000000, 230.000000)">
                <rect id="矩形" x="0" y="0" width="150" height="150"></rect>
                <g transform="translate(23.370000, 10.515388)" fill-rule="nonzero">
                    <path d="M66,128.952256 L96.42,128.952256 C96.42,101.892256 96.42,88.3322561 96.42,88.3322561 C96.42,88.3322561 68.04,88.2122561 11.28,87.9722561 L66,128.952256 Z" id="路径-11备份" fill="url(#linearGradient-1)"></path>
                    <g id="编组">
                        <g>
                            <polygon id="路径-53_3_" fill="#CBD9E6" points="1.08 43.9322561 26.16 58.6922561 26.16 83.9522561 25.32 84.4322561 25.32 59.2922561 0 44.3522561"></polygon>
                            <polygon id="路径-53备份_3_" fill="url(#linearGradient-2)" points="0 44.3522561 25.32 59.2922561 25.32 84.4322561 0 69.4322561"></polygon>
                            <polygon id="路径-53_2_" fill="#1AC45D" points="68.22 49.2722561 103.26 70.2122561 103.26 117.072256 100.44 118.692256 100.44 72.0722561 64.68 50.7122561"></polygon>
                            <polygon id="路径-53备份_2_" fill="#3DD173" points="64.68 50.7122561 100.44 72.0722561 100.44 118.692256 64.68 97.2722561"></polygon>
                            <path d="M64.68,128.652256 C25.38,104.292256 5.7,92.1122561 5.7,92.1122561 C4.26,90.4922561 3.54,86.1722561 3.6,79.1522561 L61.44,113.712256 C61.38,117.732256 61.62,120.972256 62.1,123.372256 C62.4,124.992256 62.82,126.432256 63.48,127.452256 C63.66,127.812256 64.08,128.232256 64.68,128.652256 Z" id="路径-51_1_" fill="url(#linearGradient-3)"></path>
                            <path d="M62.1,123.432256 C62.58,125.592256 63.06,127.572256 64.68,128.712256 C67.98,129.912256 69.78,126.912256 70.08,119.652256 L70.08,45.3722561 C70.26,37.6922561 71.22,34.0922561 73.02,34.5722561 C74.82,35.0522561 75.84,38.2922561 76.02,44.4122561 L76.02,48.4322561 L76.98,48.4322561 L76.98,47.2322561 C77.16,38.7122561 75.9,33.9122561 73.14,32.8922561 C70.38,31.8722561 68.88,35.4722561 68.7,43.7522561 C68.7,90.8522561 68.7,115.932256 68.7,118.932256 C68.7,123.432256 67.14,128.412256 64.68,126.732256 C63,125.592256 62.22,121.152256 62.34,113.412256 L61.44,113.772256 C61.38,118.032256 61.62,121.272256 62.1,123.432256 Z" id="路径_5_" fill="#D9E5EE"></path>
                            <path d="M70.02,44.8922561 C70.2,37.6922561 71.22,34.0922561 72.96,34.5722561 C74.76,35.0522561 75.78,38.2922561 75.96,44.4122561 L75.96,48.4322561 L70.02,44.8922561 Z" id="路径_4_" fill="#CBD9E6"></path>
                            <path d="M73.14,32.8922561 C70.38,31.8722561 68.88,35.4722561 68.7,43.7522561 C68.7,90.8522561 68.7,115.932256 68.7,118.932256 C68.7,123.432256 67.14,128.412256 64.68,126.732256 C63,125.592256 62.22,121.152256 62.34,113.412256 L11.28,82.8122561 L11.28,9.1322561 C11.28,1.3922561 13.38,-1.4277439 17.52,0.672256098 C21.66,2.7722561 40.44,13.6322561 73.5,33.0722561 L73.14,32.8922561 Z" id="路径_3_" fill="url(#linearGradient-4)"></path>
                            <polygon id="路径-52_1_" fill="#F6F9FE" points="61.38 113.712256 62.28 113.412256 5.1 79.1522561 3.54 79.1522561"></polygon>
                            <path d="M41.94,89.0522561 L41.94,64.7522561 C41.94,64.2722561 42.24,64.0322561 42.6,64.2122561 C42.6,64.2122561 42.66,64.2122561 42.66,64.2122561 L60.72,75.1922561 L60.72,100.392256 C60.72,100.872256 60.42,101.112256 60.06,100.932256 C60.06,100.932256 60,100.932256 60,100.872256 L42.48,90.0722561 C42.18,89.8922561 41.94,89.4722561 41.94,89.0522561 Z" id="路径-54_3_" fill="#E8EEF5"></path>
                            <path d="M60.42,100.992256 C60.48,100.932256 60.54,100.872256 60.6,100.812256 C60.66,100.752256 60.66,100.632256 60.66,100.512256 L60.66,75.9722561 C60.66,75.7922561 60.6,75.6722561 60.6,75.6122561 C60.6,75.5522561 60.54,75.4322561 60.42,75.2522561 L63.72,75.0122561 L63.84,75.0122561 L63.84,75.2522561 L63.84,99.5522561 C63.84,99.8522561 63.72,100.032256 63.54,100.092256 L60.6,100.872256 L60.42,100.992256 Z" id="路径-55_3_" fill="url(#linearGradient-5)"></path>
                            <path d="M42.48,64.1522561 L42.6,64.2122561 L60.12,74.8922561 C60.18,74.9522561 60.24,75.0122561 60.3,75.0122561 C60.36,75.0122561 60.42,75.1322561 60.48,75.2522561 L63.78,75.0122561 L63.9,75.0122561 L63.66,74.8322561 L47.4,64.9322561 C47.22,64.8122561 46.98,64.7522561 46.8,64.6922561 L42.66,64.2122561 L42.48,64.1522561 Z" id="路径-56_3_" fill="#DAE5ED"></path>
                            <path d="M19.68,74.1722561 L19.68,49.8722561 C19.68,49.3922561 19.98,49.1522561 20.34,49.3322561 C20.34,49.3322561 20.4,49.3322561 20.4,49.3322561 L38.46,60.3122561 L38.46,85.5122561 C38.46,85.9922561 38.16,86.2322561 37.8,86.0522561 C37.8,86.0522561 37.74,86.0522561 37.74,85.9922561 L20.22,75.1922561 C19.86,75.0122561 19.68,74.5322561 19.68,74.1722561 Z" id="路径-54_2_" fill="#64DE8D"></path>
                            <path d="M39.12,59.6522561 L22.86,49.7522561 C22.68,49.6322561 22.44,49.5722561 22.26,49.5122561 L20.4,49.2722561 L20.22,49.2722561 L20.34,49.3322561 L37.86,60.0122561 C37.92,60.0722561 37.98,60.1322561 38.04,60.1322561 C38.1,60.1322561 38.16,60.2522561 38.22,60.3722561 C38.28,60.4922561 38.34,60.6122561 38.4,60.7322561 C38.4,60.7922561 38.46,60.9722561 38.46,61.0922561 L38.46,85.6322561 C38.46,85.7522561 38.4,85.8722561 38.4,85.9322561 C38.4,85.9922561 38.28,86.0522561 38.22,86.1122561 L38.46,85.9922561 L39.36,84.9722561 C39.42,84.8522561 39.48,84.7322561 39.48,84.5522561 L39.48,60.0722561 L39.48,59.8322561 L39.12,59.6522561 Z" id="路径" fill="#3DD173"></path>
                            <polygon id="路径-57_1_" fill="#8FEBAB" points="18.6 17.2322561 18.6 22.9922561 59.52 47.1722561 59.52 41.5322561"></polygon>
                            <polygon id="路径-57备份_1_" fill="#3DD173" points="18.6 27.8522561 18.6 30.3122561 49.32 48.4322561 49.32 46.0922561"></polygon>
                            <polygon id="路径-57备份-2_1_" fill="#64DE8D" points="18.6 35.7722561 18.6 38.2322561 42.36 52.2722561 42.36 49.8722561"></polygon>
                            <polygon id="路径" fill="#FFFFFF" points="78.18 91.7522561 70.68 81.8522561 73.5 79.5722561 78.6 86.3522561 90.3 76.5722561 92.64 79.6922561"></polygon>
                        </g>
                        <g transform="translate(22.260000, 63.732256)" fill="#FFFFFF" id="路径">
                            <polygon points="1.5 9.48 0 8.58 0 1.98 1.5 2.88"></polygon>
                            <polygon points="4.14 11.22 2.7 10.26 2.7 0.36 4.14 1.26"></polygon>
                            <polygon points="6.84 12.96 5.4 12 5.4 0.66 6.84 1.62"></polygon>
                            <polygon points="9.54 14.64 8.1 13.74 8.1 1.44 9.54 2.4"></polygon>
                            <polygon points="12.24 16.38 10.8 15.42 10.8 0 12.24 0.9"></polygon>
                        </g>
                    </g>
                </g>
            </g>
        </g>
    </g>
</svg>