<?xml version="1.0" encoding="UTF-8"?>
<svg width="20px" height="28px" viewBox="0 0 20 28" version="1.1" xmlns="http://www.w3.org/2000/svg" xmlns:xlink="http://www.w3.org/1999/xlink">
    <title>编组 5</title>
    <defs>
        <path d="M10,0 C15.5228,0 20,4.477 20,10 L20,18 C20,23.4293898 15.6732833,27.8479368 10.2799025,27.9961583 L10,28 C4.4772,28 0,23.523 0,18 L0,10 C0,4.57061017 4.32671669,0.1520632 9.72009749,0.00384166833 L10,0 Z" id="path-1"></path>
        <path d="M10,0 C15.5228,0 20,4.477 20,10 L20,18 C20,23.523 15.5228,28 10,28 C4.4772,28 0,23.523 0,18 L0,10 C0,4.477 4.4772,0 10,0 Z" id="path-3"></path>
        <path d="M4,0 C4.2761,0 4.5,0.224 4.5,0.5 L4.5,11.5 C4.5,11.776 4.2761,12 4,12 C3.7239,12 3.5,11.776 3.5,11.5 L3.5,0.5 C3.5,0.224 3.7239,0 4,0 Z M0.5,1 C0.7761,1 1,1.224 1,1.5 L1,10.5 C1,10.776 0.7761,11 0.5,11 C0.2239,11 0,10.776 0,10.5 L0,1.5 C0,1.224 0.2239,1 0.5,1 Z M7.5,1 C7.7761,1 8,1.224 8,1.5 L8,10.5 C8,10.776 7.7761,11 7.5,11 C7.2239,11 7,10.776 7,10.5 L7,1.5 C7,1.224 7.2239,1 7.5,1 Z" id="path-5"></path>
    </defs>
    <g id="控件" stroke="none" stroke-width="1" fill="none" fill-rule="evenodd">
        <g id="滑动输入条-大-不可用" transform="translate(-59.000000, 0.000000)">
            <g id="编组-5" transform="translate(59.000000, 0.000000)">
                <g id="编组">
                    <g>
                        <mask id="mask-2" fill="white">
                            <use xlink:href="#path-1"></use>
                        </mask>
                        <g id="Clip-971"></g>
                        <path d="M10,0 C15.5228,0 20,4.477 20,10 L20,18 C20,23.523 15.5228,28 10,28 C4.4772,28 0,23.523 0,18 L0,10 C0,4.477 4.4772,0 10,0 Z" id="Fill-970" fill="#F0F2F7" mask="url(#mask-2)"></path>
                    </g>
                    <g>
                        <mask id="mask-4" fill="white">
                            <use xlink:href="#path-3"></use>
                        </mask>
                        <g id="Clip-973"></g>
                        <path d="M10,0 C15.52285,0 20,4.477153 20,10 L20,18 C20,23.52285 15.52285,28 10,28 C4.477153,28 0,23.52285 0,18 L0,10 C0,4.477153 4.477153,0 10,0 Z" id="Stroke-972" stroke="#E2E5ED" stroke-width="2.8" mask="url(#mask-4)"></path>
                    </g>
                </g>
                <g id="编组" transform="translate(6.000000, 8.000000)">
                    <mask id="mask-6" fill="white">
                        <use xlink:href="#path-5"></use>
                    </mask>
                    <g id="Clip-975"></g>
                    <polygon id="Fill-974" fill="#999999" mask="url(#mask-6)" points="-5 17 13 17 13 -5 -5 -5"></polygon>
                </g>
            </g>
        </g>
    </g>
</svg>