<?xml version="1.0" encoding="UTF-8"?>
<svg width="22px" height="30px" viewBox="0 0 22 30" version="1.1" xmlns="http://www.w3.org/2000/svg" xmlns:xlink="http://www.w3.org/1999/xlink">
    <title>编组 2备份</title>
    <defs>
        <linearGradient x1="50%" y1="0%" x2="50%" y2="100%" id="linearGradient-1">
            <stop stop-color="#FFFFFF" offset="0%"></stop>
            <stop stop-color="#FFE6D2" offset="99.9985488%"></stop>
        </linearGradient>
        <path d="M10,8 C10.2761,8 10.5,8.224 10.5,8.5 L10.5,19.5 C10.5,19.776 10.2761,20 10,20 C9.7239,20 9.5,19.776 9.5,19.5 L9.5,8.5 C9.5,8.224 9.7239,8 10,8 Z M6.5,9 C6.7761,9 7,9.224 7,9.5 L7,18.5 C7,18.776 6.7761,19 6.5,19 C6.2239,19 6,18.776 6,18.5 L6,9.5 C6,9.224 6.2239,9 6.5,9 Z M13.5,9 C13.7761,9 14,9.224 14,9.5 L14,18.5 C14,18.776 13.7761,19 13.5,19 C13.2239,19 13,18.776 13,18.5 L13,9.5 C13,9.224 13.2239,9 13.5,9 Z" id="path-2"></path>
    </defs>
    <g id="控件" stroke="none" stroke-width="1" fill="none" fill-rule="evenodd">
        <g id="滑动输入条-大-默认" transform="translate(-429.000000, 1.000000)">
            <g id="编组-2备份" transform="translate(430.000000, 0.000000)">
                <path d="M10,0 C15.52285,0 20,4.477153 20,10 L20,18 C20,23.52285 15.52285,28 10,28 C4.477153,28 0,23.52285 0,18 L0,10 C0,4.477153 4.477153,0 10,0 Z" id="Stroke-1588" stroke="#FA8334" fill="url(#linearGradient-1)"></path>
                <mask id="mask-3" fill="white">
                    <use xlink:href="#path-2"></use>
                </mask>
                <use id="Clip-1591" fill="#FA8334" xlink:href="#path-2"></use>
            </g>
        </g>
    </g>
</svg>