<?xml version="1.0" encoding="UTF-8"?>
<svg width="16px" height="16px" viewBox="0 0 16 16" version="1.1" xmlns="http://www.w3.org/2000/svg" xmlns:xlink="http://www.w3.org/1999/xlink">
    <title>ai-face</title>
    <g id="ai-face" stroke="none" stroke-width="1" fill="none" fill-rule="evenodd">
        <g fill-rule="nonzero">
            <rect id="矩形" opacity="0" x="0" y="0" width="16" height="16"></rect>
            <path d="M1.5,11 L1.58987563,11.0080557 C1.82312484,11.0503916 2,11.2545401 2,11.5 L2,11.5 L1.99963719,14.0003628 L4.5,14 L4.58987563,14.0080557 C4.82312484,14.0503916 5,14.2545401 5,14.5 C5,14.7761424 4.77614237,15 4.5,15 L4.5,15 L1.5,15 L1.41012437,14.9919443 C1.17687516,14.9496084 1,14.7454599 1,14.5 L1,14.5 L1,11.5 L1.00805567,11.4101244 C1.05039163,11.1768752 1.25454011,11 1.5,11 L1.5,11 Z M14.5,11 C14.7454599,11 14.9496084,11.1768752 14.9919443,11.4101244 L15,11.5 L15,14.5 C15,14.7454599 14.8231248,14.9496084 14.5898756,14.9919443 L14.5,15 L11.5,15 C11.2238576,15 11,14.7761424 11,14.5 C11,14.2545401 11.1768752,14.0503916 11.4101244,14.0080557 L11.5,14 L14.0003628,14.0003628 L14,11.5 C14,11.2545401 14.1768752,11.0503916 14.4101244,11.0080557 L14.5,11 Z M8.22501683,3 C10.6337362,3 12.3468475,4.60714732 12.4455351,7.17837818 C12.4184606,7.78641773 12.3985347,8.10132743 12.3857573,8.12310727 C12.1101402,10.8810118 10.2664778,13.3522931 8.22501683,13.3522931 C6.22847966,13.3522931 4.41506904,11.0606267 4.08757019,8.42407227 L4,7.41476442 C4,4.70602598 5.74330598,3 8.22501683,3 Z M5.04188316,9.152 L5.05050698,9.18360083 C5.51929706,10.9196293 6.59594923,12.3207737 7.7375636,12.6403133 L7.77388316,12.649 L7.77388316,9.696 L7.57562027,9.68292134 C6.61024367,9.61058253 5.77996158,9.45346911 5.17809046,9.21107446 L5.04188316,9.152 Z M11.3498832,9.149 C10.693977,9.45569429 9.76452769,9.65716841 8.82323319,9.6943963 L8.60888316,9.698 L8.60888316,12.648 L8.64616905,12.6395852 C9.78088236,12.3313751 10.8413864,11.0356277 11.2853504,9.40962647 L11.3498832,9.149 Z M8.60888316,7.167 L8.60888316,8.863 L8.73606222,8.8578667 C10.2487111,8.77773877 11.3511346,8.40754205 11.5581953,8.06657667 L11.5824785,8.01569101 L11.5896953,7.9892101 C11.4540104,7.65169401 10.2952665,7.25743449 8.74201656,7.17387007 L8.60888316,7.167 Z M7.77588316,7.168 L7.65088857,7.17389253 C6.22221367,7.25326666 5.11669758,7.61173387 4.89561727,7.90389071 L4.86705601,7.95191031 L4.86,8.04257436 C4.98923951,8.36812706 6.17991592,8.77239808 7.65631974,8.8573757 L7.77588316,8.862 L7.77588316,7.168 Z M8.60888316,4 L8.60888316,6.394 L8.78821606,6.39735874 C9.70788166,6.42644343 10.6151687,6.59702859 11.2791278,6.8602332 L11.5028832,6.957 L11.5009742,6.93712158 C11.3157904,5.31344631 10.2473397,4.19782953 8.69127512,4.00864612 L8.60888316,4 Z M7.77388316,4.004 L7.68278808,4.01669449 C6.21818687,4.24548895 5.22270571,5.21464779 4.92777814,6.66668515 L4.88888316,6.89 L5.05366921,6.82052503 C5.66670229,6.57839129 6.53695259,6.42106278 7.55856749,6.34850876 L7.77388316,6.335 L7.77388316,4.004 Z M4.5,1 C4.77614237,1 5,1.22385763 5,1.5 C5,1.74545989 4.82312484,1.94960837 4.58987563,1.99194433 L4.5,2 L1.99963719,1.99963719 L2,4.5 C2,4.74545989 1.82312484,4.94960837 1.58987563,4.99194433 L1.5,5 C1.25454011,5 1.05039163,4.82312484 1.00805567,4.58987563 L1,4.5 L1,1.5 C1,1.25454011 1.17687516,1.05039163 1.41012437,1.00805567 L1.5,1 L4.5,1 Z M14.5,1 L14.5898756,1.00805567 C14.8231248,1.05039163 15,1.25454011 15,1.5 L15,1.5 L15,4.5 L14.9919443,4.58987563 C14.9496084,4.82312484 14.7454599,5 14.5,5 L14.5,5 L14.4101244,4.99194433 C14.1768752,4.94960837 14,4.74545989 14,4.5 L14,4.5 L14.0003628,1.99963719 L11.5,2 L11.4101244,1.99194433 C11.1768752,1.94960837 11,1.74545989 11,1.5 C11,1.22385763 11.2238576,1 11.5,1 L11.5,1 L14.5,1 Z" id="形状结合" fill="#000000"></path>
        </g>
    </g>
</svg>