<?xml version="1.0" encoding="UTF-8"?>
<svg width="16px" height="16px" viewBox="0 0 16 16" version="1.1" xmlns="http://www.w3.org/2000/svg" xmlns:xlink="http://www.w3.org/1999/xlink">
    <title>aim</title>
    <g id="aim" stroke="none" stroke-width="1" fill="none" fill-rule="evenodd">
        <g fill-rule="nonzero">
            <rect id="矩形" opacity="0" x="0" y="0" width="16" height="16"></rect>
            <path d="M14.875,7.40625 L12.965625,7.40625 C12.6953125,5.11875 10.88125,3.3046875 8.59375,3.034375 L8.59375,1.125 C8.59375,1.05625 8.5375,1 8.46875,1 L7.53125,1 C7.4625,1 7.40625,1.05625 7.40625,1.125 L7.40625,3.034375 C5.11875,3.3046875 3.3046875,5.11875 3.034375,7.40625 L1.125,7.40625 C1.05625,7.40625 1,7.4625 1,7.53125 L1,8.46875 C1,8.5375 1.05625,8.59375 1.125,8.59375 L3.034375,8.59375 C3.3046875,10.88125 5.11875,12.6953125 7.40625,12.965625 L7.40625,14.875 C7.40625,14.94375 7.4625,15 7.53125,15 L8.46875,15 C8.5375,15 8.59375,14.94375 8.59375,14.875 L8.59375,12.965625 C10.88125,12.6953125 12.6953125,10.88125 12.965625,8.59375 L14.875,8.59375 C14.94375,8.59375 15,8.5375 15,8.46875 L15,7.53125 C15,7.4625 14.94375,7.40625 14.875,7.40625 Z M8,11.8125 C5.89375,11.8125 4.1875,10.10625 4.1875,8 C4.1875,5.89375 5.89375,4.1875 8,4.1875 C10.10625,4.1875 11.8125,5.89375 11.8125,8 C11.8125,10.10625 10.10625,11.8125 8,11.8125 Z M8,6.125 C7.4984375,6.125 7.0296875,6.31875 6.675,6.675 C6.3203125,7.0296875 6.125,7.4984375 6.125,8 C6.125,8.5015625 6.3203125,8.9703125 6.675,9.325 C7.0296875,9.678125 7.5,9.875 8,9.875 C8.5,9.875 8.9703125,9.6796875 9.325,9.325 C9.678125,8.9703125 9.875,8.5 9.875,8 C9.875,7.5 9.6796875,7.0296875 9.325,6.675 C8.9703125,6.31875 8.5015625,6.125 8,6.125 Z" id="形状" fill="#000000"></path>
        </g>
    </g>
</svg>