<?xml version="1.0" standalone="no"?><!DOCTYPE svg PUBLIC "-//W3C//DTD SVG 1.1//EN" "http://www.w3.org/Graphics/SVG/1.1/DTD/svg11.dtd"><svg class="icon" width="200px" height="200.00px" viewBox="0 0 1024 1024" version="1.1" xmlns="http://www.w3.org/2000/svg"><path fill="#000000" d="M753.152 728.96a19.2 19.2 0 0 1 21.76 16.384l16.64 119.168a19.2 19.2 0 0 1-31.104 17.472l-41.408-34.112a254.528 254.528 0 0 1-115.84 93.44 255.168 255.168 0 0 1-195.84-1.728 254.208 254.208 0 0 1-137.408-139.776 32 32 0 0 1 59.392-24 190.528 190.528 0 0 0 102.976 104.768 190.784 190.784 0 0 0 236.608-73.984l-34.56-28.416a19.2 19.2 0 0 1 9.6-33.856l109.184-15.36zM512 64a320 320 0 0 1 298.56 204.8 224 224 0 0 1-74.56 435.136H288.128a224 224 0 0 1-74.624-435.2A320 320 0 0 1 512.064 64zM436.992 453.888a253.952 253.952 0 0 0-111.552 87.616l-37.312-33.088a19.2 19.2 0 0 0-31.808 16.384l12.544 119.68a19.2 19.2 0 0 0 21.12 17.088l109.696-11.52a19.2 19.2 0 0 0 10.688-33.472l-36.672-32.448A190.4 190.4 0 0 1 461.056 513.28a190.912 190.912 0 0 1 146.88 1.28 190.848 190.848 0 0 1 103.04 104.768 32 32 0 1 0 59.264-23.936 254.144 254.144 0 0 0-137.344-139.776 254.528 254.528 0 0 0-195.904-1.728z" /></svg>