<?xml version="1.0" encoding="UTF-8"?>
<svg width="16px" height="16px" viewBox="0 0 16 16" version="1.1" xmlns="http://www.w3.org/2000/svg" xmlns:xlink="http://www.w3.org/1999/xlink">
    <title>bar-chart</title>
    <g id="bar-chart" stroke="none" stroke-width="1" fill="none" fill-rule="evenodd">
        <g fill-rule="nonzero">
            <rect id="矩形" opacity="0" x="0" y="0" width="16" height="16"></rect>
            <path d="M13.875,12.375 L3.125,12.375 L3.125,2.625 C3.125,2.55625 3.06875,2.5 3,2.5 L2.125,2.5 C2.05625,2.5 2,2.55625 2,2.625 L2,13.375 C2,13.44375 2.05625,13.5 2.125,13.5 L13.875,13.5 C13.94375,13.5 14,13.44375 14,13.375 L14,12.5 C14,12.43125 13.94375,12.375 13.875,12.375 Z M4.5,11.125 L5.375,11.125 C5.44375,11.125 5.5,11.06875 5.5,11 L5.5,8.75 C5.5,8.68125 5.44375,8.625 5.375,8.625 L4.5,8.625 C4.43125,8.625 4.375,8.68125 4.375,8.75 L4.375,11 C4.375,11.06875 4.43125,11.125 4.5,11.125 Z M6.875,11.125 L7.75,11.125 C7.81875,11.125 7.875,11.06875 7.875,11 L7.875,6 C7.875,5.93125 7.81875,5.875 7.75,5.875 L6.875,5.875 C6.80625,5.875 6.75,5.93125 6.75,6 L6.75,11 C6.75,11.06875 6.80625,11.125 6.875,11.125 Z M9.25,11.125 L10.125,11.125 C10.19375,11.125 10.25,11.06875 10.25,11 L10.25,7.21875 C10.25,7.15 10.19375,7.09375 10.125,7.09375 L9.25,7.09375 C9.18125,7.09375 9.125,7.15 9.125,7.21875 L9.125,11 C9.125,11.06875 9.18125,11.125 9.25,11.125 Z M11.625,11.125 L12.5,11.125 C12.56875,11.125 12.625,11.06875 12.625,11 L12.625,4.75 C12.625,4.68125 12.56875,4.625 12.5,4.625 L11.625,4.625 C11.55625,4.625 11.5,4.68125 11.5,4.75 L11.5,11 C11.5,11.06875 11.55625,11.125 11.625,11.125 Z" id="形状" fill="#000000"></path>
        </g>
    </g>
</svg>