<?xml version="1.0" encoding="UTF-8"?>
<svg width="16px" height="16px" viewBox="0 0 16 16" version="1.1" xmlns="http://www.w3.org/2000/svg" xmlns:xlink="http://www.w3.org/1999/xlink">
    <title>build</title>
    <g id="build" stroke="none" stroke-width="1" fill="none" fill-rule="evenodd">
        <g fill-rule="nonzero">
            <rect id="矩形" opacity="0" x="0" y="0" width="16" height="16"></rect>
            <path d="M14.3125,3.28125 L5.875,3.28125 C5.5984375,3.28125 5.375,3.5046875 5.375,3.78125 L5.375,7.46875 L1.6875,7.46875 C1.4109375,7.46875 1.1875,7.6921875 1.1875,7.96875 L1.1875,12.21875 C1.1875,12.4953125 1.4109375,12.71875 1.6875,12.71875 L10.125,12.71875 C10.4015625,12.71875 10.625,12.4953125 10.625,12.21875 L10.625,8.53125 L14.3125,8.53125 C14.5890625,8.53125 14.8125,8.3078125 14.8125,8.03125 L14.8125,3.78125 C14.8125,3.5046875 14.5890625,3.28125 14.3125,3.28125 Z M6.4375,4.34375 L9.5625,4.34375 L9.5625,7.46875 L6.4375,7.46875 L6.4375,4.34375 Z M5.375,11.65625 L2.25,11.65625 L2.25,8.53125 L5.375,8.53125 L5.375,11.65625 Z M9.5625,11.65625 L6.4375,11.65625 L6.4375,8.53125 L9.5625,8.53125 L9.5625,11.65625 Z M13.75,7.46875 L10.625,7.46875 L10.625,4.34375 L13.75,4.34375 L13.75,7.46875 Z" id="形状" fill="#000000"></path>
        </g>
    </g>
</svg>