<?xml version="1.0" encoding="UTF-8"?>
<svg width="16px" height="16px" viewBox="0 0 16 16" version="1.1" xmlns="http://www.w3.org/2000/svg" xmlns:xlink="http://www.w3.org/1999/xlink">
    <title>calculator</title>
    <g id="calculator" stroke="none" stroke-width="1" fill="none" fill-rule="evenodd">
        <g fill-rule="nonzero">
            <rect id="矩形" opacity="0" x="0" y="0" width="16" height="16"></rect>
            <path d="M3.925,6.046875 L5,6.046875 L5,7.121875 C5,7.15 5.028125,7.171875 5.0625,7.171875 L5.8125,7.171875 C5.846875,7.171875 5.875,7.15 5.875,7.1203125 L5.875,6.046875 L6.95,6.046875 C6.978125,6.046875 7,6.01875 7,5.984375 L7,5.234375 C7,5.2 6.978125,5.171875 6.9484375,5.171875 L5.875,5.171875 L5.875,4.096875 C5.875,4.06875 5.846875,4.046875 5.8125,4.046875 L5.0625,4.046875 C5.028125,4.046875 5,4.06875 5,4.096875 L5,5.171875 L3.925,5.171875 C3.896875,5.171875 3.875,5.2 3.875,5.234375 L3.875,5.984375 C3.875,6.01875 3.896875,6.046875 3.925,6.046875 Z M9.05,6.046875 L12.075,6.046875 C12.103125,6.046875 12.125,6.01875 12.125,5.984375 L12.125,5.234375 C12.125,5.2 12.103125,5.171875 12.0734375,5.171875 L9.05,5.171875 C9.021875,5.171875 9,5.2 9,5.234375 L9,5.984375 C9,6.01875 9.021875,6.046875 9.05,6.046875 Z M9.05,10.1875 L12.075,10.1875 C12.103125,10.1875 12.125,10.159375 12.125,10.125 L12.125,9.375 C12.125,9.340625 12.103125,9.3125 12.0734375,9.3125 L9.05,9.3125 C9.021875,9.3125 9,9.340625 9,9.375 L9,10.125 C9,10.159375 9.021875,10.1875 9.05,10.1875 Z M9.05,11.8125 L12.075,11.8125 C12.103125,11.8125 12.125,11.784375 12.125,11.75 L12.125,11 C12.125,10.965625 12.103125,10.9375 12.0734375,10.9375 L9.05,10.9375 C9.021875,10.9375 9,10.965625 9,11 L9,11.75 C9,11.784375 9.021875,11.8125 9.05,11.8125 Z M5.9921875,10.546875 L6.9484375,9.3765625 C7.015625,9.2953125 6.959375,9.171875 6.85625,9.171875 L6.0625,9.171875 C6.0265625,9.171875 5.9921875,9.1875 5.9703125,9.2171875 L5.4390625,9.8671875 L4.9078125,9.2171875 C4.884375,9.1890625 4.85,9.171875 4.815625,9.171875 L4.0203125,9.171875 C3.9171875,9.171875 3.8609375,9.2953125 3.928125,9.3765625 L4.884375,10.546875 L3.9046875,11.746875 C3.8359375,11.828125 3.8921875,11.9515625 3.9953125,11.9515625 L4.7890625,11.9515625 C4.825,11.9515625 4.859375,11.9359375 4.88125,11.90625 L5.4359375,11.2265625 L5.990625,11.90625 C6.0140625,11.934375 6.0484375,11.9515625 6.0828125,11.9515625 L6.8765625,11.9515625 C6.9796875,11.9515625 7.0359375,11.828125 6.96875,11.746875 L5.9921875,10.546875 Z M13.75,1.75 L2.25,1.75 C1.9734375,1.75 1.75,1.9734375 1.75,2.25 L1.75,13.75 C1.75,14.0265625 1.9734375,14.25 2.25,14.25 L13.75,14.25 C14.0265625,14.25 14.25,14.0265625 14.25,13.75 L14.25,2.25 C14.25,1.9734375 14.0265625,1.75 13.75,1.75 Z M13.1875,13.1875 L2.8125,13.1875 L2.8125,2.8125 L13.1875,2.8125 L13.1875,13.1875 Z" id="形状" fill="#000000"></path>
        </g>
    </g>
</svg>