<?xml version="1.0" encoding="UTF-8"?>
<svg width="16px" height="16px" viewBox="0 0 16 16" version="1.1" xmlns="http://www.w3.org/2000/svg" xmlns:xlink="http://www.w3.org/1999/xlink">
    <title>carry-out-fill</title>
    <g id="carry-out-fill" stroke="none" stroke-width="1" fill="none" fill-rule="evenodd">
        <g fill-rule="nonzero">
            <rect id="矩形" opacity="0" x="0" y="0" width="16" height="16"></rect>
            <path d="M13.75,2.875 L11.125,2.875 L11.125,1.875 C11.125,1.80625 11.06875,1.75 11,1.75 L10.125,1.75 C10.05625,1.75 10,1.80625 10,1.875 L10,2.875 L6,2.875 L6,1.875 C6,1.80625 5.94375,1.75 5.875,1.75 L5,1.75 C4.93125,1.75 4.875,1.80625 4.875,1.875 L4.875,2.875 L2.25,2.875 C1.9734375,2.875 1.75,3.0984375 1.75,3.375 L1.75,13.75 C1.75,14.0265625 1.9734375,14.25 2.25,14.25 L13.75,14.25 C14.0265625,14.25 14.25,14.0265625 14.25,13.75 L14.25,3.375 C14.25,3.0984375 14.0265625,2.875 13.75,2.875 Z M10.8515625,6.7609375 L7.5296875,11.334375 C7.4296875,11.471875 7.2234375,11.471875 7.1234375,11.334375 L5.1484375,8.615625 C5.0890625,8.5328125 5.1484375,8.4171875 5.25,8.4171875 L6.1125,8.4171875 C6.1921875,8.4171875 6.26875,8.45625 6.315625,8.5203125 L7.3265625,9.9109375 L9.684375,6.6640625 C9.73125,6.6 9.80625,6.5609375 9.8875,6.5609375 L10.75,6.5609375 C10.8515625,6.5625 10.9109375,6.678125 10.8515625,6.7609375 Z" id="形状" fill="#000000"></path>
        </g>
    </g>
</svg>