<?xml version="1.0" encoding="UTF-8"?>
<svg width="16px" height="16px" viewBox="0 0 16 16" version="1.1" xmlns="http://www.w3.org/2000/svg" xmlns:xlink="http://www.w3.org/1999/xlink">
    <title>check-square</title>
    <g id="check-square" stroke="none" stroke-width="1" fill="none" fill-rule="evenodd">
        <g fill-rule="nonzero">
            <rect id="矩形" opacity="0" x="0" y="0" width="16" height="16"></rect>
            <path d="M6.7671875,10.2765625 C6.965625,10.553125 7.3765625,10.553125 7.575,10.2765625 L10.865625,5.7140625 C10.925,5.63125 10.865625,5.515625 10.7640625,5.515625 L10.03125,5.515625 C9.871875,5.515625 9.7203125,5.5921875 9.6265625,5.7234375 L7.171875,9.1296875 L6.059375,7.5859375 C5.965625,7.45625 5.815625,7.378125 5.6546875,7.378125 L4.921875,7.378125 C4.8203125,7.378125 4.7609375,7.49375 4.8203125,7.5765625 L6.7671875,10.2765625 L6.7671875,10.2765625 Z" id="路径" fill="#000000"></path>
            <path d="M13.75,1.75 L2.25,1.75 C1.9734375,1.75 1.75,1.9734375 1.75,2.25 L1.75,13.75 C1.75,14.0265625 1.9734375,14.25 2.25,14.25 L13.75,14.25 C14.0265625,14.25 14.25,14.0265625 14.25,13.75 L14.25,2.25 C14.25,1.9734375 14.0265625,1.75 13.75,1.75 Z M13.125,13.125 L2.875,13.125 L2.875,2.875 L13.125,2.875 L13.125,13.125 Z" id="形状" fill="#000000"></path>
        </g>
    </g>
</svg>