<?xml version="1.0" encoding="UTF-8"?>
<svg width="16px" height="16px" viewBox="0 0 16 16" version="1.1" xmlns="http://www.w3.org/2000/svg" xmlns:xlink="http://www.w3.org/1999/xlink">
    <title>close-square-fill</title>
    <g id="close-square-fill" stroke="none" stroke-width="1" fill="none" fill-rule="evenodd">
        <g fill-rule="nonzero">
            <rect id="矩形" opacity="0" x="0" y="0" width="16" height="16"></rect>
            <path d="M13.75,1.75 L2.25,1.75 C1.9734375,1.75 1.75,1.9734375 1.75,2.25 L1.75,13.75 C1.75,14.0265625 1.9734375,14.25 2.25,14.25 L13.75,14.25 C14.0265625,14.25 14.25,14.0265625 14.25,13.75 L14.25,2.25 C14.25,1.9734375 14.0265625,1.75 13.75,1.75 Z M10.5640625,10.2796875 C10.6328125,10.3609375 10.575,10.484375 10.46875,10.484375 L9.5484375,10.484375 C9.475,10.484375 9.4046875,10.4515625 9.35625,10.3953125 L8,8.778125 L6.64375,10.3953125 C6.596875,10.4515625 6.5265625,10.484375 6.4515625,10.484375 L5.53125,10.484375 C5.425,10.484375 5.3671875,10.3609375 5.4359375,10.2796875 L7.346875,8 L5.4359375,5.7203125 C5.3671875,5.6390625 5.425,5.515625 5.53125,5.515625 L6.4515625,5.515625 C6.525,5.515625 6.5953125,5.5484375 6.64375,5.6046875 L8,7.221875 L9.35625,5.6046875 C9.403125,5.5484375 9.4734375,5.515625 9.5484375,5.515625 L10.46875,5.515625 C10.575,5.515625 10.6328125,5.6390625 10.5640625,5.7203125 L8.653125,8 L10.5640625,10.2796875 L10.5640625,10.2796875 Z" id="形状" fill="#000000"></path>
        </g>
    </g>
</svg>