<?xml version="1.0" standalone="no"?><!DOCTYPE svg PUBLIC "-//W3C//DTD SVG 1.1//EN" "http://www.w3.org/Graphics/SVG/1.1/DTD/svg11.dtd"><svg class="icon" width="200px" height="200.00px" viewBox="0 0 1024 1024" version="1.1" xmlns="http://www.w3.org/2000/svg"><path fill="#000000" d="M673.92 113.6c-24.256 0-47.488 9.6-64.64 26.752l-24.192 24.256a17.792 17.792 0 0 1-12.608 5.248h-120.96a17.728 17.728 0 0 1-12.544-5.248l-24.256-24.256a91.392 91.392 0 0 0-129.28 0L92.352 333.44a91.392 91.392 0 0 0 0 129.28L169.6 539.904l7.36 6.592c12.672 10.24 27.776 16.768 43.584 19.136l8.896 0.832v252.864a91.52 91.52 0 0 0 91.456 91.392h382.208l8.832-0.384a91.584 91.584 0 0 0 82.56-91.008V566.464l8.96-0.832c18.944-2.816 36.928-11.648 50.944-25.728l77.248-77.184a91.392 91.392 0 0 0 0-129.28L738.56 140.352a91.392 91.392 0 0 0-64.64-26.752z m0 73.6c4.736 0 9.28 1.92 12.608 5.184l193.024 193.088a17.792 17.792 0 0 1 0 25.216l-77.184 77.184a17.472 17.472 0 0 1-17.152 4.48 49.984 49.984 0 0 0-64.256 47.68v279.296a17.92 17.92 0 0 1-17.856 17.792H320.896a17.92 17.92 0 0 1-17.856-17.792V540.032a49.92 49.92 0 0 0-64.192-47.68 17.472 17.472 0 0 1-17.216-4.48L144.448 410.688a17.792 17.792 0 0 1 0-25.216l193.024-193.024a17.792 17.792 0 0 1 25.216 0l24.192 24.192c17.152 17.152 40.384 26.816 64.64 26.816h120.96c24.256 0 47.488-9.664 64.64-26.816l24.192-24.256a17.792 17.792 0 0 1 12.608-5.184z" /></svg>