<?xml version="1.0" encoding="UTF-8"?>
<svg width="16px" height="16px" viewBox="0 0 16 16" version="1.1" xmlns="http://www.w3.org/2000/svg" xmlns:xlink="http://www.w3.org/1999/xlink">
    <title>colum-height</title>
    <g id="colum-height" stroke="none" stroke-width="1" fill="none" fill-rule="evenodd">
        <g fill-rule="nonzero">
            <rect id="矩形" opacity="0" x="0" y="0" width="16" height="16"></rect>
            <path d="M13.125,13.0625 L2.875,13.0625 C2.80625,13.0625 2.75,13.11875 2.75,13.1875 L2.75,14.125 C2.75,14.19375 2.80625,14.25 2.875,14.25 L13.125,14.25 C13.19375,14.25 13.25,14.19375 13.25,14.125 L13.25,13.1875 C13.25,13.11875 13.19375,13.0625 13.125,13.0625 Z M13.125,1.75 L2.875,1.75 C2.80625,1.75 2.75,1.80625 2.75,1.875 L2.75,2.8125 C2.75,2.88125 2.80625,2.9375 2.875,2.9375 L13.125,2.9375 C13.19375,2.9375 13.25,2.88125 13.25,2.8125 L13.25,1.875 C13.25,1.80625 13.19375,1.75 13.125,1.75 Z M9.54375,5.90625 C9.6375,5.90625 9.690625,5.796875 9.6328125,5.7234375 L8.0578125,3.7296875 C8.0125,3.671875 7.925,3.671875 7.88125,3.7296875 L6.30625,5.7234375 C6.2484375,5.796875 6.3,5.90625 6.3953125,5.90625 L7.4375,5.90625 L7.4375,10.09375 L6.45625,10.09375 C6.3625,10.09375 6.309375,10.203125 6.3671875,10.2765625 L7.9421875,12.26875 C7.9875,12.3265625 8.075,12.3265625 8.11875,12.26875 L9.69375,10.2765625 C9.7515625,10.203125 9.7,10.09375 9.6046875,10.09375 L8.5625,10.09375 L8.5625,5.90625 L9.54375,5.90625 Z" id="形状" fill="#000000"></path>
        </g>
    </g>
</svg>