<?xml version="1.0" encoding="UTF-8"?>
<svg width="16px" height="16px" viewBox="0 0 16 16" version="1.1" xmlns="http://www.w3.org/2000/svg" xmlns:xlink="http://www.w3.org/1999/xlink">
    <title>compass-fill</title>
    <g id="compass-fill" stroke="none" stroke-width="1" fill="none" fill-rule="evenodd">
        <g fill-rule="nonzero">
            <rect id="矩形" opacity="0" x="0" y="0" width="16" height="16"></rect>
            <path d="M8,1 C4.134375,1 1,4.134375 1,8 C1,11.865625 4.134375,15 8,15 C11.865625,15 15,11.865625 15,8 C15,4.134375 11.865625,1 8,1 Z M5.1140625,10.975 C5.0828125,10.9890625 5.0453125,10.975 5.03125,10.9421875 C5.025,10.9265625 5.025,10.9078125 5.03125,10.8921875 L6.5734375,7.36875 L8.6375,9.4328125 L5.1140625,10.975 L5.1140625,10.975 Z M10.975,5.1140625 L9.4328125,8.6375 L7.36875,6.5734375 L10.8921875,5.03125 C10.9234375,5.0171875 10.9609375,5.03125 10.975,5.0640625 C10.98125,5.0796875 10.98125,5.096875 10.975,5.1140625 L10.975,5.1140625 Z" id="形状" fill="#000000"></path>
        </g>
    </g>
</svg>