<?xml version="1.0" encoding="UTF-8"?>
<svg width="16px" height="16px" viewBox="0 0 16 16" version="1.1" xmlns="http://www.w3.org/2000/svg" xmlns:xlink="http://www.w3.org/1999/xlink">
    <title>contacts-fill</title>
    <g id="contacts-fill" stroke="none" stroke-width="1" fill="none" fill-rule="evenodd">
        <g fill-rule="nonzero">
            <rect id="矩形" opacity="0" x="0" y="0" width="16" height="16"></rect>
            <path d="M14.5,3.5 L12,3.5 L12,2.625 C12,2.55625 11.94375,2.5 11.875,2.5 L11,2.5 C10.93125,2.5 10.875,2.55625 10.875,2.625 L10.875,3.5 L8.5625,3.5 L8.5625,2.625 C8.5625,2.55625 8.50625,2.5 8.4375,2.5 L7.5625,2.5 C7.49375,2.5 7.4375,2.55625 7.4375,2.625 L7.4375,3.5 L5.125,3.5 L5.125,2.625 C5.125,2.55625 5.06875,2.5 5,2.5 L4.125,2.5 C4.05625,2.5 4,2.55625 4,2.625 L4,3.5 L1.5,3.5 C1.2234375,3.5 1,3.7234375 1,4 L1,13 C1,13.2765625 1.2234375,13.5 1.5,13.5 L14.5,13.5 C14.7765625,13.5 15,13.2765625 15,13 L15,4 C15,3.7234375 14.7765625,3.5 14.5,3.5 Z M10.328125,11.5 L9.6421875,11.5 C9.5765625,11.5 9.5234375,11.4484375 9.51875,11.3828125 C9.459375,10.5921875 8.8,9.96875 8,9.96875 C7.2,9.96875 6.540625,10.59375 6.48125,11.3828125 C6.4765625,11.4484375 6.4234375,11.5 6.3578125,11.5 L5.671875,11.5 C5.6,11.5 5.54375,11.440625 5.546875,11.36875 C5.590625,10.5359375 6.046875,9.8109375 6.7125,9.3984375 C6.4296875,9.0875 6.2578125,8.6734375 6.2578125,8.21875 C6.2578125,7.2515625 7.0375,6.46875 7.9984375,6.46875 C8.959375,6.46875 9.7390625,7.2515625 9.7390625,8.21875 C9.7390625,8.6734375 9.5671875,9.0859375 9.284375,9.3984375 C9.9515625,9.8125 10.40625,10.5359375 10.45,11.36875 C10.45625,11.440625 10.4,11.5 10.328125,11.5 Z M8,7.40625 C7.5546875,7.40625 7.1921875,7.7703125 7.1921875,8.21875 C7.1921875,8.6671875 7.5546875,9.03125 8,9.03125 C8.4453125,9.03125 8.8078125,8.6671875 8.8078125,8.21875 C8.8078125,7.7703125 8.4453125,7.40625 8,7.40625 Z" id="形状" fill="#000000"></path>
        </g>
    </g>
</svg>