<?xml version="1.0" encoding="UTF-8"?>
<svg width="16px" height="16px" viewBox="0 0 16 16" version="1.1" xmlns="http://www.w3.org/2000/svg" xmlns:xlink="http://www.w3.org/1999/xlink">
    <title>control-fill</title>
    <g id="control-fill" stroke="none" stroke-width="1" fill="none" fill-rule="evenodd">
        <g fill-rule="nonzero">
            <rect id="矩形" opacity="0" x="0" y="0" width="16" height="16"></rect>
            <path d="M13.75,1.75 L2.25,1.75 C1.9734375,1.75 1.75,1.9734375 1.75,2.25 L1.75,13.75 C1.75,14.0265625 1.9734375,14.25 2.25,14.25 L13.75,14.25 C14.0265625,14.25 14.25,14.0265625 14.25,13.75 L14.25,2.25 C14.25,1.9734375 14.0265625,1.75 13.75,1.75 Z M6.3125,10.671875 L6.3125,11.875 C6.3125,11.94375 6.25625,12 6.1875,12 L5.4375,12 C5.36875,12 5.3125,11.94375 5.3125,11.875 L5.3125,10.671875 C4.6609375,10.459375 4.1875,9.846875 4.1875,9.125 C4.1875,8.403125 4.6609375,7.7890625 5.3125,7.578125 L5.3125,4.125 C5.3125,4.05625 5.36875,4 5.4375,4 L6.1875,4 C6.25625,4 6.3125,4.05625 6.3125,4.125 L6.3125,7.578125 C6.9640625,7.790625 7.4375,8.403125 7.4375,9.125 C7.4375,9.846875 6.9640625,10.4609375 6.3125,10.671875 Z M10.68125,8.4234375 C10.684375,8.4234375 10.6859375,8.421875 10.6875,8.421875 L10.6875,11.875 C10.6875,11.94375 10.63125,12 10.5625,12 L9.8125,12 C9.74375,12 9.6875,11.94375 9.6875,11.875 L9.6875,8.421875 C9.690625,8.421875 9.6921875,8.4234375 9.69375,8.4234375 C9.0375,8.2140625 8.5625,7.6 8.5625,6.875 C8.5625,6.15 9.0375,5.5359375 9.69375,5.3265625 C9.690625,5.3265625 9.6890625,5.328125 9.6875,5.328125 L9.6875,4.125 C9.6875,4.05625 9.74375,4 9.8125,4 L10.5625,4 C10.63125,4 10.6875,4.05625 10.6875,4.125 L10.6875,5.328125 C10.684375,5.328125 10.6828125,5.3265625 10.68125,5.3265625 C11.3375,5.5359375 11.8125,6.15 11.8125,6.875 C11.8125,7.6 11.3375,8.2140625 10.68125,8.4234375 Z M9.625,6.875 C9.625,7.18566017 9.87683983,7.4375 10.1875,7.4375 C10.4981602,7.4375 10.75,7.18566017 10.75,6.875 C10.75,6.56433983 10.4981602,6.3125 10.1875,6.3125 C9.87683983,6.3125 9.625,6.56433983 9.625,6.875 Z M6.303125,8.8515625 L6.2796875,8.8140625 C6.2796875,8.8125 6.278125,8.8125 6.278125,8.8109375 L6.2640625,8.7921875 C6.2625,8.790625 6.2609375,8.7890625 6.2609375,8.7875 C6.2453125,8.7671875 6.2296875,8.7484375 6.2109375,8.73125 L6.2078125,8.728125 C6.2015625,8.721875 6.1953125,8.715625 6.1890625,8.7109375 C6.1765625,8.6984375 6.1625,8.6875 6.1484375,8.678125 L6.146875,8.678125 L6.128125,8.6640625 C6.1265625,8.6625 6.1234375,8.6609375 6.121875,8.659375 C6.103125,8.646875 6.0828125,8.634375 6.0609375,8.625 C6.0578125,8.6234375 6.053125,8.621875 6.05,8.61875 C6.04375,8.615625 6.0390625,8.6140625 6.0328125,8.6109375 C6.028125,8.609375 6.021875,8.60625 6.0171875,8.6046875 C6.009375,8.6015625 6.0015625,8.5984375 5.99375,8.596875 C5.9875,8.5953125 5.9796875,8.5921875 5.9734375,8.590625 L5.959375,8.5859375 C5.9515625,8.584375 5.9453125,8.5828125 5.9375,8.58125 C5.934375,8.5796875 5.9296875,8.5796875 5.9265625,8.578125 C5.915625,8.5765625 5.9046875,8.5734375 5.89375,8.571875 C5.890625,8.571875 5.8875,8.571875 5.884375,8.5703125 C5.875,8.56875 5.8671875,8.56875 5.8578125,8.5671875 C5.8546875,8.5671875 5.8515625,8.5671875 5.846875,8.565625 C5.834375,8.565625 5.8234375,8.5640625 5.8109375,8.5640625 C5.7984375,8.5640625 5.7875,8.5640625 5.775,8.565625 C5.771875,8.565625 5.76875,8.565625 5.7640625,8.5671875 C5.7546875,8.5671875 5.7453125,8.56875 5.7375,8.5703125 C5.734375,8.5703125 5.73125,8.5703125 5.728125,8.571875 C5.7171875,8.5734375 5.70625,8.575 5.6953125,8.578125 C5.6921875,8.5796875 5.6875,8.5796875 5.684375,8.58125 C5.6765625,8.5828125 5.6703125,8.584375 5.6625,8.5859375 L5.6484375,8.590625 C5.6421875,8.5921875 5.634375,8.5953125 5.628125,8.596875 C5.6203125,8.6 5.6125,8.603125 5.6046875,8.6046875 C5.6,8.60625 5.59375,8.609375 5.5890625,8.6109375 C5.5828125,8.6140625 5.578125,8.615625 5.571875,8.61875 C5.56875,8.6203125 5.5640625,8.621875 5.5609375,8.625 C5.540625,8.6359375 5.5203125,8.646875 5.5,8.659375 C5.4984375,8.6609375 5.4953125,8.6625 5.49375,8.6640625 L5.475,8.678125 L5.4734375,8.678125 C5.459375,8.6890625 5.4453125,8.7 5.4328125,8.7109375 C5.4265625,8.7171875 5.4203125,8.721875 5.4140625,8.728125 L5.4109375,8.73125 C5.39375,8.7484375 5.3765625,8.76875 5.3609375,8.7875 C5.359375,8.7890625 5.3578125,8.790625 5.3578125,8.7921875 L5.34375,8.8109375 C5.34375,8.8125 5.3421875,8.8125 5.3421875,8.8140625 L5.31875,8.8515625 C5.3171875,8.8546875 5.315625,8.85625 5.3140625,8.859375 C5.271875,8.9390625 5.246875,9.0296875 5.246875,9.125 C5.246875,9.2203125 5.271875,9.3125 5.3140625,9.390625 C5.315625,9.39375 5.3171875,9.3953125 5.31875,9.3984375 L5.3421875,9.4359375 C5.3421875,9.4375 5.34375,9.4375 5.34375,9.4390625 L5.3578125,9.4578125 C5.359375,9.459375 5.3609375,9.4609375 5.3609375,9.4625 C5.3765625,9.4828125 5.3921875,9.5015625 5.4109375,9.51875 L5.4140625,9.521875 C5.4203125,9.528125 5.4265625,9.534375 5.4328125,9.5390625 C5.4453125,9.5515625 5.459375,9.5625 5.4734375,9.571875 L5.475,9.571875 L5.49375,9.5859375 C5.4953125,9.5875 5.4984375,9.5890625 5.5,9.590625 C5.51875,9.603125 5.5390625,9.615625 5.5609375,9.625 C5.5640625,9.6265625 5.56875,9.628125 5.571875,9.63125 C5.578125,9.634375 5.5828125,9.6359375 5.5890625,9.6390625 C5.59375,9.640625 5.6,9.64375 5.6046875,9.6453125 C5.6125,9.6484375 5.6203125,9.6515625 5.628125,9.653125 C5.634375,9.6546875 5.6421875,9.6578125 5.6484375,9.659375 L5.6625,9.6640625 C5.6703125,9.665625 5.6765625,9.6671875 5.684375,9.66875 C5.6875,9.6703125 5.6921875,9.6703125 5.6953125,9.671875 C5.70625,9.6734375 5.7171875,9.6765625 5.728125,9.678125 C5.73125,9.678125 5.734375,9.678125 5.7375,9.6796875 C5.746875,9.68125 5.7546875,9.68125 5.7640625,9.6828125 C5.7671875,9.6828125 5.7703125,9.6828125 5.775,9.684375 C5.7875,9.684375 5.7984375,9.6859375 5.8109375,9.6859375 C5.8234375,9.6859375 5.834375,9.6859375 5.846875,9.684375 C5.85,9.684375 5.853125,9.684375 5.8578125,9.6828125 C5.8671875,9.6828125 5.8765625,9.68125 5.884375,9.6796875 C5.8875,9.6796875 5.890625,9.6796875 5.89375,9.678125 C5.9046875,9.6765625 5.915625,9.675 5.9265625,9.671875 C5.9296875,9.6703125 5.934375,9.6703125 5.9375,9.66875 C5.9453125,9.6671875 5.9515625,9.665625 5.959375,9.6640625 L5.9734375,9.659375 C5.9796875,9.6578125 5.9875,9.6546875 5.99375,9.653125 C6.0015625,9.65 6.009375,9.646875 6.0171875,9.6453125 C6.021875,9.64375 6.028125,9.640625 6.0328125,9.6390625 C6.0390625,9.6359375 6.04375,9.634375 6.05,9.63125 C6.053125,9.6296875 6.0578125,9.628125 6.0609375,9.625 C6.08125,9.6140625 6.1015625,9.603125 6.121875,9.590625 C6.1234375,9.5890625 6.1265625,9.5875 6.128125,9.5859375 L6.146875,9.571875 L6.1484375,9.571875 C6.1625,9.5609375 6.1765625,9.55 6.1890625,9.5390625 C6.1953125,9.5328125 6.2015625,9.528125 6.2078125,9.521875 L6.2109375,9.51875 C6.228125,9.5015625 6.2453125,9.48125 6.2609375,9.4625 C6.2625,9.4609375 6.2640625,9.459375 6.2640625,9.4578125 L6.278125,9.4390625 C6.278125,9.4375 6.2796875,9.4375 6.2796875,9.4359375 L6.303125,9.3984375 C6.3046875,9.3953125 6.30625,9.39375 6.3078125,9.390625 C6.35,9.3109375 6.375,9.2203125 6.375,9.125 C6.375,9.0296875 6.35,8.9375 6.3078125,8.859375 C6.30625,8.85625 6.3046875,8.853125 6.303125,8.8515625 Z" id="形状" fill="#000000"></path>
        </g>
    </g>
</svg>