<?xml version="1.0" encoding="UTF-8"?>
<svg width="16px" height="16px" viewBox="0 0 16 16" version="1.1" xmlns="http://www.w3.org/2000/svg" xmlns:xlink="http://www.w3.org/1999/xlink">
    <title>crown</title>
    <g id="crown" stroke="none" stroke-width="1" fill="none" fill-rule="evenodd">
        <g fill-rule="nonzero">
            <rect id="矩形" opacity="0" x="0" y="0" width="16" height="16"></rect>
            <path d="M14.05625,4.3203125 L11.015625,6.19375 L8.1,2.3046875 C8.05,2.2375 7.95,2.2375 7.8984375,2.3046875 L4.984375,6.19375 L1.9421875,4.3203125 C1.853125,4.265625 1.7375,4.3390625 1.7515625,4.44375 L2.9453125,13.515625 C2.9625,13.6390625 3.06875,13.734375 3.1953125,13.734375 L12.80625,13.734375 C12.93125,13.734375 13.0390625,13.640625 13.0546875,13.515625 L14.2484375,4.44375 C14.2609375,4.3390625 14.146875,4.265625 14.05625,4.3203125 Z M12.0875,12.665625 L3.9109375,12.665625 L3.0703125,6.26875 L5.2546875,7.6140625 L8,3.9515625 L10.7453125,7.6140625 L12.9296875,6.26875 L12.0875,12.665625 Z M8,7.953125 C7.0296875,7.953125 6.240625,8.7421875 6.240625,9.7125 C6.240625,10.6828125 7.0296875,11.471875 8,11.471875 C8.9703125,11.471875 9.759375,10.6828125 9.759375,9.7125 C9.759375,8.7421875 8.9703125,7.953125 8,7.953125 Z M8,10.4671875 C7.584375,10.4671875 7.246875,10.1296875 7.246875,9.7125 C7.246875,9.296875 7.584375,8.9578125 8,8.9578125 C8.415625,8.9578125 8.753125,9.2953125 8.753125,9.7125 C8.753125,10.128125 8.415625,10.4671875 8,10.4671875 Z" id="形状" fill="#000000"></path>
        </g>
    </g>
</svg>