<?xml version="1.0" encoding="UTF-8"?>
<svg width="16px" height="16px" viewBox="0 0 16 16" version="1.1" xmlns="http://www.w3.org/2000/svg" xmlns:xlink="http://www.w3.org/1999/xlink">
    <title>cube</title>
    <g id="cube" stroke="none" stroke-width="1" fill="none" fill-rule="evenodd">
        <g fill-rule="nonzero">
            <rect id="矩形" opacity="0" x="0" y="0" width="16" height="16"></rect>
            <g id="3d" transform="translate(2.000000, 1.000000)" fill="#000000">
                <path d="M11.5207752,3.13771122 L6.51709534,0.1419093 C6.20092126,-0.0473031001 5.80630892,-0.0473031001 5.49013484,0.1419093 L0.486454994,3.13771122 C0.18462194,3.31857384 0,3.64464163 0,3.99651444 L0,10.1112334 C0.000366439196,10.4684667 0.19109471,10.7984266 0.5004681,10.9770432 L5.50314701,13.8657449 C5.81278231,14.0447517 6.19444787,14.0447517 6.50408317,13.8657449 L11.5067621,10.9770432 C11.8161355,10.7984266 12.0068637,10.4684667 12.0072302,10.1112334 L12.0072302,3.9955135 C12.0069523,3.64399755 11.8223023,3.31839036 11.5207752,3.13771122 Z M6.00361509,1.00071252 L10.519839,3.70524202 L5.99961135,6.41377526 L1.48538928,3.70624295 L6.00361509,1.00071252 Z M1.00093618,4.58106116 L5.49914327,7.28158691 L5.49914327,12.7066609 L1.00093618,10.1102325 L1.00093618,4.58106116 Z M6.49907849,12.7126665 L6.49907849,7.28158691 L11.006294,4.58006022 L11.006294,10.1122344 L6.49907849,12.7146684 L6.49907849,12.7126665 Z" id="形状"></path>
            </g>
        </g>
    </g>
</svg>