<?xml version="1.0" encoding="UTF-8"?>
<svg width="16px" height="16px" viewBox="0 0 16 16" version="1.1" xmlns="http://www.w3.org/2000/svg" xmlns:xlink="http://www.w3.org/1999/xlink">
    <title>database</title>
    <g id="database" stroke="none" stroke-width="1" fill="none" fill-rule="evenodd">
        <g fill-rule="nonzero">
            <rect id="矩形" opacity="0" x="0" y="0" width="16" height="16"></rect>
            <path d="M13,1 L3,1 C2.7234375,1 2.5,1.2234375 2.5,1.5 L2.5,14.5 C2.5,14.7765625 2.7234375,15 3,15 L13,15 C13.2765625,15 13.5,14.7765625 13.5,14.5 L13.5,1.5 C13.5,1.2234375 13.2765625,1 13,1 Z M3.625,2.125 L12.375,2.125 L12.375,5.375 L3.625,5.375 L3.625,2.125 Z M12.375,9.625 L3.625,9.625 L3.625,6.375 L12.375,6.375 L12.375,9.625 Z M12.375,13.875 L3.625,13.875 L3.625,10.625 L12.375,10.625 L12.375,13.875 Z M4.75,3.75 C4.75,4.09517797 5.02982203,4.375 5.375,4.375 C5.72017797,4.375 6,4.09517797 6,3.75 C6,3.40482203 5.72017797,3.125 5.375,3.125 C5.02982203,3.125 4.75,3.40482203 4.75,3.75 L4.75,3.75 Z M4.75,8 C4.75,8.34517797 5.02982203,8.625 5.375,8.625 C5.72017797,8.625 6,8.34517797 6,8 C6,7.65482203 5.72017797,7.375 5.375,7.375 C5.02982203,7.375 4.75,7.65482203 4.75,8 L4.75,8 Z M4.75,12.25 C4.75,12.595178 5.02982203,12.875 5.375,12.875 C5.72017797,12.875 6,12.595178 6,12.25 C6,11.904822 5.72017797,11.625 5.375,11.625 C5.02982203,11.625 4.75,11.904822 4.75,12.25 L4.75,12.25 Z" id="形状" fill="#000000"></path>
        </g>
    </g>
</svg>