<?xml version="1.0" standalone="no"?><!DOCTYPE svg PUBLIC "-//W3C//DTD SVG 1.1//EN" "http://www.w3.org/Graphics/SVG/1.1/DTD/svg11.dtd"><svg class="icon" width="200px" height="200.00px" viewBox="0 0 1024 1024" version="1.1" xmlns="http://www.w3.org/2000/svg"><path fill="#000000" d="M912 848v54.4a9.6 9.6 0 0 1-9.6 9.6H121.6a9.6 9.6 0 0 1-9.6-9.6v-54.4a9.6 9.6 0 0 1 9.6-9.6h780.8a9.6 9.6 0 0 1 9.6 9.6zM881.28 112a31.36 31.36 0 0 1 30.72 32v608a31.36 31.36 0 0 1-30.72 32H142.72a31.36 31.36 0 0 1-30.72-32v-608c0-17.664 13.76-32 30.72-32h738.56zM739.392 288h-61.312a6.272 6.272 0 0 0-6.144 6.4v371.2c0 3.52 2.752 6.4 6.144 6.4h61.312a6.272 6.272 0 0 0 6.144-6.4V294.4c0-3.52-2.752-6.4-6.144-6.4z m-400 128h-61.312c-3.392 0-6.144 3.392-6.144 7.552v240.896c0 4.16 2.752 7.552 6.144 7.552h61.312c3.392 0 6.144-3.392 6.144-7.552V423.552c0-4.16-2.752-7.552-6.144-7.552z m212.8 56h-61.312c-3.392 0-6.144 3.584-6.144 8v184c0 4.416 2.752 8 6.144 8h61.312c3.392 0 6.144-3.584 6.144-8V480c0-4.416-2.752-8-6.144-8z" /></svg>