<?xml version="1.0" encoding="UTF-8"?>
<svg width="16px" height="16px" viewBox="0 0 16 16" version="1.1" xmlns="http://www.w3.org/2000/svg" xmlns:xlink="http://www.w3.org/1999/xlink">
    <title>data-component-fill</title>
    <g id="data-component-fill" stroke="none" stroke-width="1" fill="none" fill-rule="evenodd">
        <g fill-rule="nonzero">
            <rect id="矩形" opacity="0" x="0" y="0" width="16" height="16"></rect>
            <path d="M2.5,7.33333334 L2.83449019,7.33333334 C3.62295416,7.33333334 4.63697819,7.88488044 4.63697819,8.91661934 C4.63697819,9.94835824 3.62295416,10.5980881 2.83449019,10.5980881 L2.5,10.5980881 L2.5,14 L5.78406277,14 L5.78406277,13.6253333 C5.78406277,13.6846228 5.83552997,12.6285573 6.42682149,12.1162816 C6.74248936,11.8427973 7.07317597,11.7072474 7.5173226,11.7072474 C7.96146924,11.7072474 8.22980701,11.7946611 8.57032115,12.010812 C9.18980359,12.404046 9.25239076,13.3124598 9.25239076,13.6253333 L9.25239076,14 L11.865725,14 L11.865725,10.002 L13.2036857,10 C13.9261549,9.97722963 14.5,9.38699714 14.5,8.66666667 C14.5,7.9463362 13.9261549,7.35610371 13.2036857,7.33333334 L11.865725,7.33333334 L11.865725,4.66666666 L9.18980359,4.66666666 L9.18980359,3.33333334 C9.18980359,2.59695367 8.59077817,2 7.85184286,2 C7.11290756,2 6.51388214,2.59695367 6.51388214,3.33333334 L6.51388214,4.66666666 L2.5,4.66666666 L2.5,7.33333334 Z" id="路径" fill="#000000"></path>
        </g>
    </g>
</svg>