<?xml version="1.0" encoding="UTF-8"?>
<svg width="16px" height="16px" viewBox="0 0 16 16" version="1.1" xmlns="http://www.w3.org/2000/svg" xmlns:xlink="http://www.w3.org/1999/xlink">
    <title>data-component</title>
    <g id="data-component" stroke="none" stroke-width="1" fill="none" fill-rule="evenodd">
        <g fill-rule="nonzero">
            <rect id="矩形" opacity="0" x="0" y="0" width="16" height="16"></rect>
            <path d="M3.0908595,6.90886778 L3.36357438,6.90886778 C4.41788823,6.90886781 5.27257846,7.76355807 5.27257846,8.81787192 C5.27257846,9.87218577 4.41788823,10.726876 3.36357438,10.7268761 L3.0908595,10.7268761 L3.0908595,12.9085951 L5.27257852,12.9085951 L5.27257852,12.6020636 C5.2725785,11.9321236 5.62998721,11.3130735 6.21017225,10.9781035 C6.79035729,10.6431335 7.50517474,10.6431335 8.08535977,10.9781035 C8.66554481,11.3130735 9.02295352,11.9321236 9.0229535,12.6020636 L9.0229535,12.9085951 L10.726876,12.9085951 L10.726876,9.63765284 L11.8177356,9.63601655 C12.4067755,9.6173871 12.8746401,9.13449156 12.8746401,8.54515705 C12.8746401,7.95582254 12.4067755,7.472927 11.8177356,7.45429754 L10.726876,7.45429754 L10.726876,5.27257852 L8.54515704,5.27257852 L8.54515704,4.18171902 C8.54515704,3.57925395 8.0567626,3.09085951 7.45429753,3.09085951 C6.85183246,3.09085951 6.36343802,3.57925395 6.36343802,4.18171902 L6.36343802,5.27257852 L3.0908595,5.27257852 L3.0908595,6.90886778 Z M7.45429753,2 C8.03292539,2 8.58785416,2.22985902 8.99700584,2.63901071 C9.40615752,3.04816239 9.63601654,3.60309116 9.63601654,4.18171902 L11.8177356,4.18171902 L11.8177356,6.36343803 C13.0228163,6.36328742 13.9998494,7.34007629 14,8.54515705 C14.0001506,9.7502378 13.0233617,10.7272709 11.818281,10.7274215 L11.8177356,13.9994546 L7.93209399,13.9994546 L7.93209399,12.6020636 C7.93209399,12.1688912 7.58093839,11.8177356 7.147766,11.8177356 C6.71459362,11.8177356 6.36343802,12.1688912 6.36343802,12.6020636 L6.36343802,13.9994546 L2,13.9994546 L2,9.63601655 L3.36357438,9.63601655 C3.81542318,9.63601655 4.18171901,9.26972072 4.18171901,8.81787192 C4.18171901,8.36602312 3.81542318,7.99972729 3.36357438,7.99972729 L2,7.99972729 L2,4.18171902 L5.27257852,4.18171902 C5.27257852,3.60309116 5.50243754,3.04816239 5.91158922,2.63901071 C6.3207409,2.22985902 6.87566967,2 7.45429753,2 Z" id="形状" fill="#000000"></path>
        </g>
    </g>
</svg>