<?xml version="1.0" standalone="no"?><!DOCTYPE svg PUBLIC "-//W3C//DTD SVG 1.1//EN" "http://www.w3.org/Graphics/SVG/1.1/DTD/svg11.dtd"><svg class="icon" width="200px" height="200.00px" viewBox="0 0 1024 1024" version="1.1" xmlns="http://www.w3.org/2000/svg"><path fill="#000000" d="M506.752 139.328l324.544 180.608 4.8 371.584-319.68 190.848-323.968-180.672-5.44-372.096 319.744-190.272m-0.64-75.264a28.992 28.992 0 0 0-15.616 4.224l-358.272 213.12a30.72 30.72 0 0 0-14.464 26.496l5.44 418.56c0 10.816 6.08 20.736 15.616 25.856l361.28 203.52A30.72 30.72 0 0 0 514.56 960a35.52 35.52 0 0 0 15.68-4.224l361.28-213.12a31.36 31.36 0 0 0 14.464-26.56l-5.44-418.496a28.928 28.928 0 0 0-15.68-25.856l-364.288-204.16a30.208 30.208 0 0 0-14.4-3.584zM674.176 348.288v96.896H577.792V348.288h96.384m19.2-48.192H558.592a28.288 28.288 0 0 0-28.928 28.928v132.48c0 17.6 14.336 31.872 32 31.872h131.84a28.928 28.928 0 0 0 26.496-29.44V328.96a28.288 28.288 0 0 0-28.928-28.928h2.432zM674.176 577.088v96.96H577.792V577.088h96.384m19.2-48.192H558.592a28.928 28.928 0 0 0-28.928 28.928v132.48c0 17.6 14.336 31.872 32 31.872h131.84a28.928 28.928 0 0 0 28.864-28.864V557.824a28.928 28.928 0 0 0-28.864-28.928zM445.312 577.088v96.96H348.992V577.088h96.32m19.264-48.192H329.728a28.928 28.928 0 0 0-31.36 28.928v132.48c0 17.6 14.336 31.872 32 31.872h134.208c16 0 28.928-12.928 28.928-28.864V557.824a28.928 28.928 0 0 0-28.928-28.928z" /></svg>