<?xml version="1.0" encoding="UTF-8"?>
<svg width="16px" height="16px" viewBox="0 0 16 16" version="1.1" xmlns="http://www.w3.org/2000/svg" xmlns:xlink="http://www.w3.org/1999/xlink">
    <title>delete-fill</title>
    <g id="delete-fill" stroke="none" stroke-width="1" fill="none" fill-rule="evenodd">
        <g fill-rule="nonzero">
            <rect id="矩形" opacity="0" x="0" y="0" width="16" height="16"></rect>
            <path d="M10.5,1.75 C11.0515625,1.75 11.5,2.1984375 11.5,2.75 L11.5,2.75 L11.5,4 L13.5,4 C13.7765625,4 14,4.2234375 14,4.5 L14,4.5 L14,5 C14,5.06875 13.94375,5.125 13.875,5.125 L13.875,5.125 L12.93125,5.125 L12.5453125,13.296875 C12.5203125,13.83125 12.08125,14.25 11.546875,14.25 L11.546875,14.25 L4.453125,14.25 C3.9203125,14.25 3.4796875,13.8296875 3.4546875,13.296875 L3.4546875,13.296875 L3.06875,5.125 L2.125,5.125 C2.05625,5.125 2,5.06875 2,5 L2,5 L2,4.5 C2,4.2234375 2.2234375,4 2.5,4 L2.5,4 L4.5,4 L4.5,2.75 C4.5,2.1984375 4.9484375,1.75 5.5,1.75 L5.5,1.75 Z M6.3,6.7 L5.425,6.7 C5.35625,6.7 5.3,6.75625 5.3,6.825 L5.3,11.825 C5.3,11.89375 5.35625,11.95 5.425,11.95 L6.3,11.95 C6.36875,11.95 6.425,11.89375 6.425,11.825 L6.425,6.825 C6.425,6.75625 6.36875,6.7 6.3,6.7 Z M8.45,6.7 L7.575,6.7 C7.50625,6.7 7.45,6.75625 7.45,6.825 L7.45,11.825 C7.45,11.89375 7.50625,11.95 7.575,11.95 L8.45,11.95 C8.51875,11.95 8.575,11.89375 8.575,11.825 L8.575,6.825 C8.575,6.75625 8.51875,6.7 8.45,6.7 Z M10.6,6.7 L9.725,6.7 C9.65625,6.7 9.6,6.75625 9.6,6.825 L9.6,11.825 C9.6,11.89375 9.65625,11.95 9.725,11.95 L10.6,11.95 C10.66875,11.95 10.725,11.89375 10.725,11.825 L10.725,6.825 C10.725,6.75625 10.66875,6.7 10.6,6.7 Z M10.375,2.875 L5.625,2.875 L5.625,4 L10.375,4 L10.375,2.875 Z" id="形状结合" fill="#000000"></path>
        </g>
    </g>
</svg>