<?xml version="1.0" standalone="no"?><!DOCTYPE svg PUBLIC "-//W3C//DTD SVG 1.1//EN" "http://www.w3.org/Graphics/SVG/1.1/DTD/svg11.dtd"><svg class="icon" width="200px" height="200.00px" viewBox="0 0 1024 1024" version="1.1" xmlns="http://www.w3.org/2000/svg"><path fill="#000000" d="M112 156.8a44.8 44.8 0 0 1 44.8-44.8h710.4a44.8 44.8 0 0 1 44.8 44.8v183.744h-0.128v534.784a36.8 36.8 0 0 1-30.784 36.352l-6.016 0.448H148.8a36.8 36.8 0 0 1-36.288-30.848l-0.512-5.952V156.8z m439.872 249.408a9.6 9.6 0 0 0-12.288 5.76l-126.336 351.744a9.6 9.6 0 0 0 5.76 12.224l51.2 18.432a9.6 9.6 0 0 0 12.288-5.76l126.336-351.68a9.6 9.6 0 0 0-5.76-12.288z m-214.976 25.728a9.6 9.6 0 0 0-13.568 0.896l-138.56 157.44a9.6 9.6 0 0 0 0.064 12.736l138.688 154.624a9.6 9.6 0 0 0 13.568 0.704l40.448-36.288 1.92-2.368a9.6 9.6 0 0 0-1.152-11.2L283.264 602.496a9.6 9.6 0 0 1 0-12.736l95.36-108.352 1.6-2.56a9.6 9.6 0 0 0-2.496-10.944z m350.4 0l-40.832 35.968a9.6 9.6 0 0 0-2.56 10.88l1.664 2.624 95.424 108.352a9.6 9.6 0 0 1 0 12.8l-95.104 105.92a9.6 9.6 0 0 0-1.216 11.2l1.92 2.368 40.512 36.288a9.6 9.6 0 0 0 13.568-0.704l138.624-154.624a9.6 9.6 0 0 0 0.064-12.8l-138.56-157.44a9.6 9.6 0 0 0-13.504-0.832zM838.4 185.6H185.6v81.344h652.8V185.6z" /></svg>