<?xml version="1.0" standalone="no"?><!DOCTYPE svg PUBLIC "-//W3C//DTD SVG 1.1//EN" "http://www.w3.org/Graphics/SVG/1.1/DTD/svg11.dtd"><svg class="icon" width="200px" height="200.00px" viewBox="0 0 1024 1024" version="1.1" xmlns="http://www.w3.org/2000/svg"><path fill="#000000" d="M912 156.8v183.744H112V156.8a44.8 44.8 0 0 1 44.8-44.8h710.4a44.8 44.8 0 0 1 44.8 44.8z m-73.6 28.8H185.6v81.344h652.8V185.6zM185.6 295.68v542.848h652.672v-141.44h73.6v178.24a36.8 36.8 0 0 1-30.784 36.352l-6.016 0.448H148.8a36.8 36.8 0 0 1-36.288-30.848l-0.512-5.952V295.68H185.6z m190.464 136.32l40.832 35.84a9.6 9.6 0 0 1 0.896 13.568l-95.36 108.352a9.6 9.6 0 0 0 0 12.8l95.04 105.92a9.6 9.6 0 0 1-0.768 13.568l-40.448 36.288a9.6 9.6 0 0 1-13.568-0.704L224 603.008a9.6 9.6 0 0 1 0-12.8l138.496-157.44a9.6 9.6 0 0 1 13.568-0.832z m350.4 0l-40.832 35.84a9.6 9.6 0 0 0-0.896 13.568l95.424 108.352a9.6 9.6 0 0 1 0 12.8l-95.104 105.92a9.6 9.6 0 0 0 0.704 13.568l40.512 36.288a9.6 9.6 0 0 0 13.568-0.704l138.624-154.624a9.6 9.6 0 0 0 0.064-12.8l-138.56-157.44a9.6 9.6 0 0 0-13.504-0.832z m-135.424-25.792l51.2 18.432a9.6 9.6 0 0 1 5.76 12.288L521.664 788.48a9.6 9.6 0 0 1-12.288 5.76l-51.2-18.368a9.6 9.6 0 0 1-5.76-12.224l126.336-351.68a9.6 9.6 0 0 1 12.288-5.76z" /></svg>