<?xml version="1.0" encoding="UTF-8"?>
<svg width="16px" height="16px" viewBox="0 0 16 16" version="1.1" xmlns="http://www.w3.org/2000/svg" xmlns:xlink="http://www.w3.org/1999/xlink">
    <title>disconnect</title>
    <g id="disconnect" stroke="none" stroke-width="1" fill="none" fill-rule="evenodd">
        <g fill-rule="nonzero">
            <rect id="矩形" opacity="0" x="0" y="0" width="16" height="16"></rect>
            <path d="M13.009375,2.990625 C11.6875,1.66875 9.5484375,1.66875 8.228125,2.990625 L6.7140625,4.5046875 L7.5109375,5.3015625 L9.025,3.7875 C9.865625,2.946875 11.284375,2.8578125 12.2125,3.7875 C13.1421875,4.7171875 13.053125,6.134375 12.2125,6.975 L10.6984375,8.4890625 L11.496875,9.2875 L13.0109375,7.7734375 C14.3296875,6.4515625 14.3296875,4.3125 13.009375,2.990625 Z M6.9765625,12.2125 C6.1359375,13.053125 4.7171875,13.1421875 3.7890625,12.2125 C2.859375,11.2828125 2.9484375,9.865625 3.7890625,9.025 L5.303125,7.5109375 L4.5046875,6.7125 L2.990625,8.2265625 C1.66875,9.5484375 1.66875,11.6875 2.990625,13.0078125 C4.3125,14.328125 6.4515625,14.3296875 7.771875,13.0078125 L9.2859375,11.49375 L8.4890625,10.696875 L6.9765625,12.2125 L6.9765625,12.2125 Z M4.0671875,3.271875 C4.01875,3.2234375 3.9390625,3.2234375 3.890625,3.271875 L3.271875,3.890625 C3.2234375,3.9390625 3.2234375,4.01875 3.271875,4.0671875 L11.934375,12.7296875 C11.9828125,12.778125 12.0625,12.778125 12.1109375,12.7296875 L12.7296875,12.1109375 C12.778125,12.0625 12.778125,11.9828125 12.7296875,11.934375 L4.0671875,3.271875 Z" id="形状" fill="#000000"></path>
        </g>
    </g>
</svg>