<?xml version="1.0" encoding="UTF-8"?>
<svg width="16px" height="16px" viewBox="0 0 16 16" version="1.1" xmlns="http://www.w3.org/2000/svg" xmlns:xlink="http://www.w3.org/1999/xlink">
    <title>down-square</title>
    <g id="down-square" stroke="none" stroke-width="1" fill="none" fill-rule="evenodd">
        <g fill-rule="nonzero">
            <rect id="矩形" opacity="0" x="0" y="0" width="16" height="16"></rect>
            <path d="M7.8984375,10.2921875 C7.9484375,10.3609375 8.05,10.3609375 8.1,10.2921875 L10.88125,6.4484375 C10.940625,6.365625 10.88125,6.25 10.7796875,6.25 L10.046875,6.25 C9.8875,6.25 9.7359375,6.3265625 9.6421875,6.45625 L8,8.728125 L6.35625,6.45625 C6.2625,6.3265625 6.1125,6.25 5.9515625,6.25 L5.21875,6.25 C5.1171875,6.25 5.0578125,6.365625 5.1171875,6.4484375 L7.8984375,10.2921875 Z" id="路径" fill="#000000"></path>
            <path d="M13.75,1.75 L2.25,1.75 C1.9734375,1.75 1.75,1.9734375 1.75,2.25 L1.75,13.75 C1.75,14.0265625 1.9734375,14.25 2.25,14.25 L13.75,14.25 C14.0265625,14.25 14.25,14.0265625 14.25,13.75 L14.25,2.25 C14.25,1.9734375 14.0265625,1.75 13.75,1.75 Z M13.125,13.125 L2.875,13.125 L2.875,2.875 L13.125,2.875 L13.125,13.125 Z" id="形状" fill="#000000"></path>
        </g>
    </g>
</svg>