<?xml version="1.0" encoding="UTF-8"?>
<svg width="16px" height="16px" viewBox="0 0 16 16" version="1.1" xmlns="http://www.w3.org/2000/svg" xmlns:xlink="http://www.w3.org/1999/xlink">
    <title>drag</title>
    <g id="drag" stroke="none" stroke-width="1" fill="none" fill-rule="evenodd">
        <g fill-rule="nonzero">
            <rect id="矩形" opacity="0" x="0" y="0" width="16" height="16"></rect>
            <path d="M14.2078125,7.9109375 L12.2140625,6.3375 C12.140625,6.2796875 12.03125,6.33125 12.03125,6.4265625 L12.03125,7.4375 L8.5625,7.4375 L8.5625,3.96875 L9.575,3.96875 C9.66875,3.96875 9.721875,3.859375 9.6640625,3.7859375 L8.0890625,1.7921875 C8.04375,1.734375 7.95625,1.734375 7.9125,1.7921875 L6.3375,3.7859375 C6.2796875,3.859375 6.33125,3.96875 6.4265625,3.96875 L7.4375,3.96875 L7.4375,7.4375 L3.96875,7.4375 L3.96875,6.425 C3.96875,6.33125 3.859375,6.278125 3.7859375,6.3359375 L1.7921875,7.9109375 C1.734375,7.95625 1.734375,8.04375 1.7921875,8.0875 L3.784375,9.6625 C3.8578125,9.7203125 3.9671875,9.66875 3.9671875,9.5734375 L3.9671875,8.5625 L7.4359375,8.5625 L7.4359375,12.03125 L6.4234375,12.03125 C6.3296875,12.03125 6.2765625,12.140625 6.334375,12.2140625 L7.909375,14.20625 C7.9546875,14.2640625 8.0421875,14.2640625 8.0859375,14.20625 L9.6609375,12.2140625 C9.71875,12.140625 9.6671875,12.03125 9.571875,12.03125 L8.5625,12.03125 L8.5625,8.5625 L12.03125,8.5625 L12.03125,9.575 C12.03125,9.66875 12.140625,9.721875 12.2140625,9.6640625 L14.20625,8.0890625 C14.2640625,8.04375 14.2640625,7.95625 14.2078125,7.9109375 L14.2078125,7.9109375 Z" id="路径" fill="#000000"></path>
        </g>
    </g>
</svg>