<?xml version="1.0" encoding="UTF-8"?>
<svg width="16px" height="16px" viewBox="0 0 16 16" version="1.1" xmlns="http://www.w3.org/2000/svg" xmlns:xlink="http://www.w3.org/1999/xlink">
    <title>education</title>
    <g id="education" stroke="none" stroke-width="1" fill="none" fill-rule="evenodd">
        <g fill-rule="nonzero">
            <rect id="矩形" opacity="0" x="0" y="0" width="16" height="16"></rect>
            <path d="M7.72960407,2.0774369 C7.8977237,1.98856962 8.09890696,1.98856962 8.2670266,2.0774369 L8.2670266,2.0774369 L14.6309876,5.44139793 C15.0393726,5.65726838 15.0393726,6.24222656 14.6309876,6.45809701 L14.6309876,6.45809701 L13.0743543,7.27978644 L13.075,10.8571429 C13.075,12.4744853 10.7639192,13.575 8,13.575 C5.31983591,13.575 3.06548133,12.5401726 2.93131491,11.002734 L2.925,10.8571429 L2.9243543,7.28178644 L1.36564303,6.45809701 C0.988672288,6.25883198 0.959674538,5.745078 1.27864979,5.49743005 L1.36564303,5.44139793 Z M11.9243543,7.88778644 L8.2670266,9.82205804 C8.09890696,9.91092532 7.8977237,9.91092532 7.72960407,9.82205804 L7.72960407,9.82205804 L4.0743543,7.88978644 L4.075,10.8571429 C4.075,11.606735 5.79335647,12.425 8,12.425 C10.1278348,12.425 11.8016374,11.6641388 11.9184807,10.9376787 L11.925,10.8571429 L11.9243543,7.88778644 Z M7.99854185,3.23504108 L2.86494662,5.94891691 L7.99854185,8.66279273 L13.1307229,5.94891691 L7.99854185,3.23504108 Z" id="形状结合" fill="#000000"></path>
        </g>
    </g>
</svg>