<?xml version="1.0" encoding="UTF-8"?>
<svg width="16px" height="16px" viewBox="0 0 16 16" version="1.1" xmlns="http://www.w3.org/2000/svg" xmlns:xlink="http://www.w3.org/1999/xlink">
    <title>example</title>
    <g id="example" stroke="none" stroke-width="1" fill="none" fill-rule="evenodd">
        <g fill-rule="nonzero">
            <rect id="矩形" opacity="0" x="0" y="0" width="16" height="16"></rect>
            <g transform="translate(1.000000, 1.000000)" fill="#000000">
                <rect id="矩形" opacity="0" x="0" y="0" width="14" height="14"></rect>
                <path d="M10.5224611,6.2814692 L13.9572536,6.2814692 C13.6418793,2.98681882 10.9780868,0.323135695 7.68343644,0.00765206641 L7.68343644,3.44255383 C9.11971591,3.72219796 10.2427617,4.8452005 10.5224611,6.2814692 Z M6.2814692,3.44255383 L6.2814692,0.00765206641 C2.98681882,0.323135695 0.323135695,2.98681882 0.00765206641,6.2814692 L3.44255383,6.2814692 C3.72223776,4.84523209 4.84523209,3.72223776 6.2814692,3.44255383 Z M7.68343644,10.5224611 L7.68343644,13.9572536 C11.013177,13.6418793 13.6418793,10.9780868 13.9923437,7.64845558 L10.5575513,7.64845558 C10.2420677,9.12049387 9.12049388,10.2420677 7.68343644,10.5224611 L7.68343644,10.5224611 Z M3.44255383,7.68343644 L0.00765206641,7.68343644 C0.323135695,11.013177 2.98681882,13.6418793 6.31655936,13.9923437 L6.31655936,10.5575513 C4.84452108,10.2420677 3.72294727,9.12049388 3.44255383,7.68343644 L3.44255383,7.68343644 Z" id="形状"></path>
            </g>
        </g>
    </g>
</svg>