<?xml version="1.0" encoding="UTF-8"?>
<svg width="16px" height="16px" viewBox="0 0 16 16" version="1.1" xmlns="http://www.w3.org/2000/svg" xmlns:xlink="http://www.w3.org/1999/xlink">
    <title>eye-close</title>
    <g id="eye-close" stroke="none" stroke-width="1" fill="none" fill-rule="evenodd">
        <g fill-rule="nonzero">
            <rect id="矩形" opacity="0" x="0" y="0" width="16" height="16"></rect>
            <path d="M14.7234375,7.6 L14.721875,7.5984375 L14.7203125,7.596875 C14.1515625,6.3984375 13.4703125,5.4296875 12.678125,4.690625 L11.8859375,5.484375 C12.56875,6.1125 13.159375,6.9484375 13.66875,7.9984375 C12.3671875,10.690625 10.521875,11.96875 8,11.96875 C7.1984375,11.96875 6.4640625,11.8390625 5.79375,11.5765625 L4.9390625,12.43125 C5.853125,12.871875 6.871875,13.09375 8,13.09375 C11.003125,13.09375 13.240625,11.5234375 14.721875,8.4015625 C14.8421875,8.1484375 14.8421875,7.8546875 14.7234375,7.6 L14.7234375,7.6 Z M13.7234375,2.409375 L13.0609375,1.746875 C13.0125,1.6984375 12.9328125,1.6984375 12.884375,1.746875 L11.059375,3.5703125 C10.146875,3.128125 9.128125,2.90625 8,2.90625 C4.996875,2.90625 2.759375,4.4765625 1.278125,7.5984375 L1.278125,7.6 C1.1578125,7.853125 1.1578125,8.15 1.278125,8.4046875 C1.846875,9.603125 2.528125,10.571875 3.3203125,11.3125 L1.746875,12.8828125 C1.6984375,12.93125 1.6984375,13.0109375 1.746875,13.059375 L2.409375,13.721875 C2.4578125,13.7703125 2.5375,13.7703125 2.5859375,13.721875 L13.7234375,2.584375 C13.771875,2.5375 13.771875,2.4578125 13.7234375,2.409375 Z M6.2328125,8.396875 C6.203125,8.26875 6.1875,8.1359375 6.1875,8 C6.1875,7.0328125 6.9703125,6.25 7.9375,6.25 C8.0734375,6.25 8.2078125,6.265625 8.334375,6.2953125 L6.2328125,8.396875 Z M9.115625,5.5140625 C8.7578125,5.3453125 8.359375,5.25 7.9375,5.25 C6.41875,5.25 5.1875,6.48125 5.1875,8 C5.1875,8.421875 5.2828125,8.8203125 5.4515625,9.178125 L4.1140625,10.515625 C3.43125,9.8875 2.840625,9.0515625 2.33125,8.0015625 C3.634375,5.309375 5.4796875,4.03125 8,4.03125 C8.8015625,4.03125 9.5359375,4.1609375 10.20625,4.4234375 L9.115625,5.5140625 L9.115625,5.5140625 Z M7.9375,9.75 C7.8375,9.75 7.7390625,9.7421875 7.64375,9.725 L6.8453125,10.5234375 C7.1796875,10.66875 7.55,10.7484375 7.9375,10.7484375 C9.45625,10.7484375 10.6875,9.5171875 10.6875,7.9984375 C10.6875,7.6109375 10.6078125,7.240625 10.4625,6.90625 L9.6640625,7.7046875 C9.6796875,7.8 9.6890625,7.8984375 9.6890625,7.9984375 C9.6875,8.9671875 8.9046875,9.75 7.9375,9.75 Z" id="形状" fill="#000000"></path>
        </g>
    </g>
</svg>