<?xml version="1.0" encoding="UTF-8"?>
<svg width="16px" height="16px" viewBox="0 0 16 16" version="1.1" xmlns="http://www.w3.org/2000/svg" xmlns:xlink="http://www.w3.org/1999/xlink">
    <title>fast-forward</title>
    <g id="fast-forward" stroke="none" stroke-width="1" fill="none" fill-rule="evenodd">
        <g fill-rule="nonzero">
            <rect id="矩形" opacity="0" x="0" y="0" width="16" height="16"></rect>
            <path d="M12.403125,7.8015625 L7.9125,4.2734375 C7.7453125,4.1421875 7.5,4.2609375 7.5,4.471875 L7.5,11.528125 C7.5,11.7390625 7.7453125,11.8578125 7.9125,11.7265625 L12.403125,8.1984375 C12.4671875,8.1484375 12.5,8.0734375 12.5,8 C12.5,7.9265625 12.4671875,7.8515625 12.403125,7.8015625 Z M7.403125,7.8015625 L2.9125,4.2734375 C2.7453125,4.1421875 2.5,4.2609375 2.5,4.471875 L2.5,11.5265625 C2.5,11.7375 2.7453125,11.85625 2.9125,11.725 L7.403125,8.196875 C7.4671875,8.146875 7.5,8.071875 7.5,7.9984375 C7.5,7.9265625 7.4671875,7.8515625 7.403125,7.8015625 L7.403125,7.8015625 Z M13.4,3.875 L12.6,3.875 C12.5453125,3.875 12.5,3.9171875 12.5,3.96875 L12.5,12.03125 C12.5,12.0828125 12.5453125,12.125 12.6,12.125 L13.4,12.125 C13.4546875,12.125 13.5,12.0828125 13.5,12.03125 L13.5,3.96875 C13.5,3.9171875 13.4546875,3.875 13.4,3.875 Z" id="形状" fill="#000000"></path>
        </g>
    </g>
</svg>