<?xml version="1.0" encoding="UTF-8"?>
<svg width="16px" height="16px" viewBox="0 0 16 16" version="1.1" xmlns="http://www.w3.org/2000/svg" xmlns:xlink="http://www.w3.org/1999/xlink">
    <title>Fault</title>
    <g id="Fault" stroke="none" stroke-width="1" fill="none" fill-rule="evenodd">
        <g>
            <rect id="矩形" opacity="0" fill-rule="nonzero" x="0" y="0" width="16" height="16"></rect>
            <path d="M8,1 C11.8659932,1 15,4.13400675 15,8 C15,11.8659932 11.8659932,15 8,15 C4.13400675,15 1,11.8659932 1,8 C1,4.13400675 4.13400675,1 8,1 Z M8,2.187 C4.78956875,2.187 2.187,4.78956875 2.187,8 C2.187,11.2104313 4.78956875,13.813 8,13.813 C11.2104312,13.813 13.8129999,11.2104312 13.8129999,8 C13.8129999,4.78956878 11.2104312,2.187 8,2.187 Z M7.61932261,4.28551071 C7.78658064,3.9881631 8.21469317,3.9881631 8.3819512,4.28551071 L8.3819512,4.28551071 L11.8819512,10.5077329 C12.0459983,10.7993722 11.8352485,11.1597222 11.5006369,11.1597222 L11.5006369,11.1597222 L4.50063691,11.1597222 C4.16602532,11.1597222 3.95527552,10.7993722 4.11932261,10.5077329 L4.11932261,10.5077329 Z M8.00063691,5.391625 L5.24788691,10.284625 L10.7525119,10.284625 L8.00063691,5.391625 Z M8.01,9 C8.28614237,9 8.51,9.22385763 8.51,9.5 C8.51,9.77614237 8.28614237,10 8.01,10 C7.73385763,10 7.51,9.77614237 7.51,9.5 C7.51,9.22385763 7.73385763,9 8.01,9 Z M8.01,6.5 C8.25545989,6.5 8.45960837,6.69393831 8.50194433,6.86401586 C8.50730975,6.90766453 8.51,6.95160054 8.51,6.99557774 L8.51,8.27586365 C8.51,8.47721746 8.28614237,8.6875 8.01,8.6875 C7.76454011,8.6875 7.56039163,8.51147551 7.51805567,8.34139796 C7.51269025,8.29774929 7.51,8.25381328 7.51,8.20983608 L7.51,6.92955017 C7.51,6.72819636 7.73385763,6.5 8.01,6.5 Z" id="形状结合" fill="#000000"></path>
        </g>
    </g>
</svg>