<?xml version="1.0" encoding="UTF-8"?>
<svg width="16px" height="16px" viewBox="0 0 16 16" version="1.1" xmlns="http://www.w3.org/2000/svg" xmlns:xlink="http://www.w3.org/1999/xlink">
    <title>file-add-fill</title>
    <g id="file-add-fill" stroke="none" stroke-width="1" fill="none" fill-rule="evenodd">
        <g fill-rule="nonzero">
            <rect id="矩形" opacity="0" x="0" y="0" width="16" height="16"></rect>
            <path d="M7.5,9.0625 L5.8125,9.0625 C5.74346441,9.0625 5.6875,9.11846441 5.6875,9.1875 L5.6875,9.9375 C5.6875,10.0065356 5.74346441,10.0625 5.8125,10.0625 L7.5,10.0625 L7.5,11.75 C7.5,11.8190356 7.55596441,11.875 7.625,11.875 L8.375,11.875 C8.44403559,11.875 8.5,11.8190356 8.5,11.75 L8.5,10.0625 L10.1875,10.0625 C10.2565356,10.0625 10.3125,10.0065356 10.3125,9.9375 L10.3125,9.1875 C10.3125,9.11846441 10.2565356,9.0625 10.1875,9.0625 L8.5,9.0625 L8.5,7.375 C8.5,7.30596441 8.44403559,7.25 8.375,7.25 L7.625,7.25 C7.55596441,7.25 7.5,7.30596441 7.5,7.375 L7.5,9.0625 Z M13.353125,4.5109375 C13.446875,4.6046875 13.5,4.73125 13.5,4.8640625 L13.5,14.5 C13.5,14.7765625 13.2765625,15 13,15 L3,15 C2.7234375,15 2.5,14.7765625 2.5,14.5 L2.5,1.5 C2.5,1.2234375 2.7234375,1 3,1 L9.6359375,1 C9.76875,1 9.896875,1.053125 9.990625,1.146875 L13.353125,4.5109375 Z M12.346875,5.09375 L9.40625,2.153125 L9.40625,5.09375 L12.346875,5.09375 Z" id="形状" fill="#000000"></path>
        </g>
    </g>
</svg>