<?xml version="1.0" encoding="UTF-8"?>
<svg width="16px" height="16px" viewBox="0 0 16 16" version="1.1" xmlns="http://www.w3.org/2000/svg" xmlns:xlink="http://www.w3.org/1999/xlink">
    <title>file-GIF</title>
    <g id="file-GIF" stroke="none" stroke-width="1" fill="none" fill-rule="evenodd">
        <g fill-rule="nonzero">
            <rect id="矩形" opacity="0" x="0" y="0" width="16" height="16"></rect>
            <path d="M8.6171875,7.6640625 L8.140625,7.6640625 C8.06875,7.6640625 8.009375,7.721875 8.009375,7.7953125 L8.009375,11.25 C8.009375,11.321875 8.0671875,11.38125 8.140625,11.38125 L8.6171875,11.38125 C8.6890625,11.38125 8.7484375,11.3234375 8.7484375,11.25 L8.7484375,7.7953125 C8.746875,7.7234375 8.6890625,7.6640625 8.6171875,7.6640625 Z M7.4578125,9.375 L6.08125,9.375 C6.009375,9.375 5.95,9.4328125 5.95,9.50625 L5.95,9.878125 C5.95,9.95 6.0078125,10.009375 6.08125,10.009375 L6.825,10.009375 L6.825,10.0203125 C6.815625,10.4875 6.465625,10.7984375 5.9421875,10.7984375 C5.3296875,10.7984375 4.9484375,10.31875 4.9484375,9.5265625 C4.9484375,8.74375 5.321875,8.2671875 5.921875,8.2671875 C6.3609375,8.2671875 6.6640625,8.478125 6.7875,8.865625 L6.8015625,8.909375 L7.5703125,8.909375 L7.559375,8.8375 C7.4359375,8.0609375 6.7921875,7.5625 5.921875,7.5625 C4.846875,7.5625 4.15625,8.334375 4.15625,9.5296875 C4.15625,10.740625 4.8390625,11.5 5.93125,11.5 C6.9375,11.5 7.5875,10.8703125 7.5875,9.8921875 L7.5875,9.5046875 C7.5875,9.4328125 7.5296875,9.375 7.4578125,9.375 L7.4578125,9.375 Z M13.353125,4.509375 L9.990625,1.146875 C9.896875,1.053125 9.7703125,1 9.6375,1 L3,1 C2.7234375,1 2.5,1.2234375 2.5,1.5 L2.5,14.5 C2.5,14.7765625 2.7234375,15 3,15 L13,15 C13.2765625,15 13.5,14.7765625 13.5,14.5 L13.5,4.8640625 C13.5,4.73125 13.446875,4.603125 13.353125,4.509375 Z M9.40625,2.153125 L12.346875,5.09375 L9.40625,5.09375 L9.40625,2.153125 Z M12.375,13.875 L3.625,13.875 L3.625,2.125 L8.34375,2.125 L8.34375,5.5 C8.34375,5.8625 8.6375,6.15625 9,6.15625 L12.375,6.15625 L12.375,13.875 Z M9.503125,11.371875 L10.0078125,11.371875 C10.0796875,11.371875 10.1390625,11.3140625 10.1390625,11.240625 L10.1390625,9.915625 L11.5109375,9.915625 C11.5828125,9.915625 11.6421875,9.8578125 11.6421875,9.784375 L11.6421875,9.3859375 C11.6421875,9.3140625 11.584375,9.2546875 11.5109375,9.2546875 L10.1390625,9.2546875 L10.1390625,8.334375 L11.6515625,8.334375 C11.7234375,8.334375 11.7828125,8.2765625 11.7828125,8.203125 L11.7828125,7.784375 C11.7828125,7.7125 11.725,7.653125 11.6515625,7.653125 L9.503125,7.653125 C9.43125,7.653125 9.371875,7.7109375 9.371875,7.784375 L9.371875,11.2390625 C9.371875,11.3140625 9.43125,11.371875 9.503125,11.371875 L9.503125,11.371875 Z" id="形状" fill="#000000"></path>
        </g>
    </g>
</svg>