<?xml version="1.0" encoding="UTF-8"?>
<svg width="16px" height="16px" viewBox="0 0 16 16" version="1.1" xmlns="http://www.w3.org/2000/svg" xmlns:xlink="http://www.w3.org/1999/xlink">
    <title>file-exclamation-fil</title>
    <g id="file-exclamation-fil" stroke="none" stroke-width="1" fill="none" fill-rule="evenodd">
        <g fill-rule="nonzero">
            <rect id="矩形" opacity="0" x="0" y="0" width="16" height="16"></rect>
            <path d="M13.353125,4.5109375 C13.446875,4.6046875 13.5,4.73125 13.5,4.8640625 L13.5,14.5 C13.5,14.7765625 13.2765625,15 13,15 L3,15 C2.7234375,15 2.5,14.7765625 2.5,14.5 L2.5,1.5 C2.5,1.2234375 2.7234375,1 3,1 L9.6359375,1 C9.76875,1 9.896875,1.053125 9.990625,1.146875 L13.353125,4.5109375 Z M12.346875,5.09375 L9.40625,2.153125 L9.40625,5.09375 L12.346875,5.09375 Z M8,12.25 C8.3451875,12.25 8.625,11.9701875 8.625,11.625 C8.625,11.2798125 8.3451875,11 8,11 C7.6548125,11 7.375,11.2798125 7.375,11.625 C7.375,11.9701875 7.6548125,12.25 8,12.25 Z M8.5,9.875 L8.5,7 C8.5,6.93096441 8.44403559,6.875 8.375,6.875 L7.625,6.875 C7.55596441,6.875 7.5,6.93096441 7.5,7 L7.5,9.875 C7.5,9.94403559 7.55596441,10 7.625,10 L8.375,10 C8.44403559,10 8.5,9.94403559 8.5,9.875 Z" id="形状" fill="#000000"></path>
        </g>
    </g>
</svg>