<?xml version="1.0" encoding="UTF-8"?>
<svg width="16px" height="16px" viewBox="0 0 16 16" version="1.1" xmlns="http://www.w3.org/2000/svg" xmlns:xlink="http://www.w3.org/1999/xlink">
    <title>fullscreen</title>
    <g id="fullscreen" stroke="none" stroke-width="1" fill="none" fill-rule="evenodd">
        <g fill-rule="nonzero">
            <rect id="矩形" opacity="0" x="0" y="0" width="16" height="16"></rect>
            <path d="M4.53125,3.69375 L5.2171875,3.0078125 C5.290625,2.934375 5.246875,2.8078125 5.14375,2.7953125 L2.640625,2.5 C2.5609375,2.490625 2.4921875,2.5578125 2.5015625,2.6390625 L2.796875,5.1421875 C2.809375,5.2453125 2.9359375,5.2890625 3.009375,5.215625 L3.6921875,4.5328125 L5.78125,6.6203125 C5.8296875,6.66875 5.909375,6.66875 5.9578125,6.6203125 L6.6203125,5.959375 C6.66875,5.9109375 6.66875,5.83125 6.6203125,5.7828125 L4.53125,3.69375 Z M10.0421875,6.6203125 C10.090625,6.66875 10.1703125,6.66875 10.21875,6.6203125 L12.3078125,4.5328125 L12.990625,5.215625 C13.0640625,5.2890625 13.190625,5.2453125 13.203125,5.1421875 L13.4984375,2.640625 C13.5078125,2.5609375 13.440625,2.4921875 13.359375,2.5015625 L10.85625,2.796875 C10.753125,2.809375 10.709375,2.9359375 10.7828125,3.009375 L11.46875,3.6953125 L9.3796875,5.78125 C9.33125,5.8296875 9.33125,5.909375 9.3796875,5.9578125 L10.0421875,6.6203125 L10.0421875,6.6203125 Z M13.203125,10.8578125 C13.190625,10.7546875 13.0640625,10.7109375 12.990625,10.784375 L12.3078125,11.4671875 L10.21875,9.3796875 C10.1703125,9.33125 10.090625,9.33125 10.0421875,9.3796875 L9.3796875,10.040625 C9.33125,10.0890625 9.33125,10.16875 9.3796875,10.2171875 L11.46875,12.30625 L10.7828125,12.9921875 C10.709375,13.065625 10.753125,13.1921875 10.85625,13.2046875 L13.359375,13.5 C13.4390625,13.509375 13.5078125,13.4421875 13.4984375,13.3609375 L13.203125,10.8578125 Z M5.9578125,9.3796875 C5.909375,9.33125 5.8296875,9.33125 5.78125,9.3796875 L3.6921875,11.4671875 L3.009375,10.784375 C2.9359375,10.7109375 2.809375,10.7546875 2.796875,10.8578125 L2.5015625,13.359375 C2.4921875,13.4390625 2.559375,13.5078125 2.640625,13.4984375 L5.14375,13.203125 C5.246875,13.190625 5.290625,13.0640625 5.2171875,12.990625 L4.53125,12.30625 L6.6203125,10.21875 C6.66875,10.1703125 6.66875,10.090625 6.6203125,10.0421875 L5.9578125,9.3796875 L5.9578125,9.3796875 Z" id="形状" fill="#000000"></path>
        </g>
    </g>
</svg>