<?xml version="1.0" encoding="UTF-8"?>
<svg width="16px" height="16px" viewBox="0 0 16 16" version="1.1" xmlns="http://www.w3.org/2000/svg" xmlns:xlink="http://www.w3.org/1999/xlink">
    <title>fullscreen-exit</title>
    <g id="fullscreen-exit" stroke="none" stroke-width="1" fill="none" fill-rule="evenodd">
        <g fill-rule="nonzero">
            <rect id="矩形" opacity="0" x="0" y="0" width="16" height="16"></rect>
            <path d="M6.109375,3.7640625 C6.096875,3.6609375 5.9703125,3.6171875 5.896875,3.690625 L5.2140625,4.3734375 L3.125,2.2859375 C3.0765625,2.2375 2.996875,2.2375 2.9484375,2.2859375 L2.2859375,2.946875 C2.2375,2.9953125 2.2375,3.075 2.2859375,3.1234375 L4.375,5.2125 L3.6890625,5.8984375 C3.615625,5.971875 3.659375,6.0984375 3.7625,6.1109375 L6.265625,6.40625 C6.3453125,6.415625 6.4140625,6.3484375 6.4046875,6.2671875 L6.109375,3.7640625 Z M6.2671875,9.5953125 L3.7625,9.890625 C3.659375,9.903125 3.615625,10.0296875 3.6890625,10.103125 L4.375,10.7890625 L2.2859375,12.875 C2.2375,12.9234375 2.2375,13.003125 2.2859375,13.0515625 L2.9484375,13.7125 C2.996875,13.7609375 3.0765625,13.7609375 3.125,13.7125 L5.2140625,11.625 L5.896875,12.3078125 C5.9703125,12.38125 6.096875,12.3375 6.109375,12.234375 L6.4046875,9.7328125 C6.4140625,9.653125 6.346875,9.5859375 6.2671875,9.5953125 Z M9.7328125,6.4046875 L12.2375,6.109375 C12.340625,6.096875 12.384375,5.9703125 12.3109375,5.896875 L11.625,5.2125 L13.7140625,3.125 C13.7625,3.0765625 13.7625,2.996875 13.7140625,2.9484375 L13.0515625,2.2875 C13.003125,2.2390625 12.9234375,2.2390625 12.875,2.2875 L10.7859375,4.3734375 L10.103125,3.690625 C10.0296875,3.6171875 9.903125,3.6609375 9.890625,3.7640625 L9.5953125,6.265625 C9.5859375,6.346875 9.653125,6.4140625 9.7328125,6.4046875 Z M11.625,10.7875 L12.3109375,10.1015625 C12.384375,10.028125 12.340625,9.9015625 12.2375,9.8890625 L9.734375,9.59375 C9.6546875,9.584375 9.5859375,9.6515625 9.5953125,9.7328125 L9.890625,12.2359375 C9.903125,12.3390625 10.0296875,12.3828125 10.103125,12.309375 L10.7859375,11.6265625 L12.875,13.7140625 C12.9234375,13.7625 13.003125,13.7625 13.0515625,13.7140625 L13.7140625,13.053125 C13.7625,13.0046875 13.7625,12.925 13.7140625,12.8765625 L11.625,10.7875 Z" id="形状" fill="#000000"></path>
        </g>
    </g>
</svg>