<?xml version="1.0" encoding="UTF-8"?>
<svg width="16px" height="16px" viewBox="0 0 16 16" version="1.1" xmlns="http://www.w3.org/2000/svg" xmlns:xlink="http://www.w3.org/1999/xlink">
    <title>fund</title>
    <g id="fund" stroke="none" stroke-width="1" fill="none" fill-rule="evenodd">
        <g fill-rule="nonzero">
            <rect id="矩形" opacity="0" x="0" y="0" width="16" height="16"></rect>
            <path d="M14.46875,2.5625 L1.46875,2.5625 C1.1921875,2.5625 0.96875,2.7859375 0.96875,3.0625 L0.96875,13.0625 C0.96875,13.3390625 1.1921875,13.5625 1.46875,13.5625 L14.46875,13.5625 C14.7453125,13.5625 14.96875,13.3390625 14.96875,13.0625 L14.96875,3.0625 C14.96875,2.7859375 14.7453125,2.5625 14.46875,2.5625 Z M13.84375,12.4375 L2.09375,12.4375 L2.09375,3.6875 L13.84375,3.6875 L13.84375,12.4375 Z M3.5484375,11.1515625 C3.596875,11.2 3.6765625,11.2 3.725,11.1515625 L6.4203125,8.45625 L8.2078125,10.2453125 C8.25625,10.29375 8.3359375,10.29375 8.384375,10.2453125 L13.025,5.6015625 C13.0734375,5.553125 13.0734375,5.4734375 13.025,5.425 L12.45,4.85 C12.4015625,4.8015625 12.321875,4.8015625 12.2734375,4.85 L8.296875,8.828125 L6.509375,7.0390625 C6.4609375,6.990625 6.38125,6.990625 6.3328125,7.0390625 L2.975,10.3984375 C2.9265625,10.446875 2.9265625,10.5265625 2.975,10.575 L3.5484375,11.1515625 L3.5484375,11.1515625 Z" id="形状" fill="#000000"></path>
        </g>
    </g>
</svg>