<?xml version="1.0" encoding="UTF-8"?>
<svg width="16px" height="16px" viewBox="0 0 16 16" version="1.1" xmlns="http://www.w3.org/2000/svg" xmlns:xlink="http://www.w3.org/1999/xlink">
    <title>fund-fill</title>
    <g id="fund-fill" stroke="none" stroke-width="1" fill="none" fill-rule="evenodd">
        <g fill-rule="nonzero">
            <rect id="矩形" opacity="0" x="0" y="0" width="16" height="16"></rect>
            <path d="M14.46875,2.5625 L1.46875,2.5625 C1.1921875,2.5625 0.96875,2.7859375 0.96875,3.0625 L0.96875,13.0625 C0.96875,13.3390625 1.1921875,13.5625 1.46875,13.5625 L14.46875,13.5625 C14.7453125,13.5625 14.96875,13.3390625 14.96875,13.0625 L14.96875,3.0625 C14.96875,2.7859375 14.7453125,2.5625 14.46875,2.5625 Z M13.0265625,5.6 L8.3859375,10.24375 C8.3375,10.2921875 8.2578125,10.2921875 8.209375,10.24375 L6.4203125,8.4546875 L3.725,11.1515625 C3.6765625,11.2 3.596875,11.2 3.5484375,11.1515625 L2.9734375,10.5765625 C2.925,10.528125 2.925,10.4484375 2.9734375,10.4 L6.33125,7.040625 C6.3796875,6.9921875 6.459375,6.9921875 6.5078125,7.040625 L8.296875,8.828125 L12.2734375,4.85 C12.321875,4.8015625 12.4015625,4.8015625 12.45,4.85 L13.025,5.425 C13.075,5.471875 13.075,5.5515625 13.0265625,5.6 Z" id="形状" fill="#000000"></path>
        </g>
    </g>
</svg>