<?xml version="1.0" standalone="no"?><!DOCTYPE svg PUBLIC "-//W3C//DTD SVG 1.1//EN" "http://www.w3.org/Graphics/SVG/1.1/DTD/svg11.dtd"><svg class="icon" width="200px" height="200.00px" viewBox="0 0 1024 1024" version="1.1" xmlns="http://www.w3.org/2000/svg"><path fill="#000000" d="M593.28 112l7.552 0.128a122.688 122.688 0 0 1 105.792 174.848h146.944c39.04 0 70.656 31.68 70.656 70.656v83.712c0 39.04-31.616 70.656-70.656 70.656h-4.352v329.344c0 39.04-31.68 70.656-70.656 70.656H244.864c-39.04 0-70.656-31.616-70.656-70.656V512h-4.352c-39.04 0-70.656-31.616-70.656-70.656V357.632c0-39.04 31.616-70.656 70.656-70.656h135.104A122.688 122.688 0 0 1 410.88 112.064l7.488-0.064c32.768 0 64.192 12.8 87.488 35.776 23.36-23.04 54.784-35.84 87.552-35.776zM474.24 512H244.8v329.344h229.312V512z m304.32 0H549.12v329.344h229.376V512zM474.176 357.632H169.856v83.712h4.352v-2.176h299.968V357.632z m379.392 0H549.12v81.536h300.032v2.176h4.352V357.632z m-435.2-174.976H416a52.032 52.032 0 1 0 0 104.064h52.288v-49.728c0-6.08 0.448-12.16 1.28-17.92a54.336 54.336 0 0 0-51.2-36.416z m177.28 0H593.28a54.4 54.4 0 0 0-51.264 36.352c0.832 5.888 1.28 11.904 1.28 17.984v49.728h52.288c27.328 0 49.92-21.12 51.904-48.32l0.192-3.712a52.096 52.096 0 0 0-52.096-52.032z" /></svg>