<?xml version="1.0" encoding="UTF-8"?>
<svg width="16px" height="16px" viewBox="0 0 16 16" version="1.1" xmlns="http://www.w3.org/2000/svg" xmlns:xlink="http://www.w3.org/1999/xlink">
    <title>guide</title>
    <g id="guide" stroke="none" stroke-width="1" fill="none" fill-rule="evenodd">
        <g fill-rule="nonzero">
            <rect id="矩形" opacity="0" x="0" y="0" width="16" height="16"></rect>
            <g transform="translate(1.000000, 1.300000)" fill="#000000">
                <rect id="矩形" opacity="0" x="0" y="0" width="13.4359902" height="13.4359902"></rect>
                <path d="M0.706767199,7.32261466 L4.45313519,8.89393898 C4.48843021,8.90874263 4.52907887,8.90210204 4.55782784,8.87683579 L10.3952265,3.74659626 C10.4367108,3.71013752 10.4998961,3.71421151 10.5363548,3.75569578 C10.5701966,3.79420237 10.5694383,3.8520639 10.534599,3.88967038 L5.51025753,9.31308066 C5.47272414,9.35359522 5.47514086,9.41686558 5.51565541,9.45439897 C5.52510497,9.4631532 5.53615689,9.46999929 5.54820358,9.47456086 L10.2883077,11.2694368 L10.2883077,11.2694368 C10.4058726,11.3114242 10.5402325,11.2526418 10.58222,11.1350769 C10.58222,11.129512 10.5830808,11.1239807 10.5847718,11.118679 L13.9289463,0.634240062 C13.9457292,0.581623352 13.9166802,0.525363838 13.8640635,0.508580922 C13.8395505,0.500762107 13.8129669,0.502692701 13.7898408,0.513971244 L0.689972211,6.90273996 L0.689972211,6.90273996 C0.572407297,6.96152242 0.530419828,7.09588232 0.580804791,7.21344724 C0.614394767,7.2638322 0.656382236,7.30581967 0.706767199,7.32261466 Z M5.57419194,12.8382571 L7.20012732,11.0900168 C7.2377395,11.0495754 7.23544596,10.9863005 7.19500454,10.9486883 C7.18613036,10.9404349 7.17582986,10.9338634 7.16460531,10.9292941 L5.53866993,10.2674089 C5.4875174,10.2465858 5.42916959,10.2711726 5.40834643,10.3223251 C5.40347257,10.3342978 5.40096627,10.347102 5.40096627,10.3600287 L5.40096627,12.7701542 C5.40096627,12.8253827 5.4457378,12.8701542 5.50096628,12.8701542 C5.52874573,12.8701542 5.55527333,12.8585988 5.57419194,12.8382571 Z" id="形状"></path>
            </g>
        </g>
    </g>
</svg>