<?xml version="1.0" encoding="UTF-8"?>
<svg width="16px" height="16px" viewBox="0 0 16 16" version="1.1" xmlns="http://www.w3.org/2000/svg" xmlns:xlink="http://www.w3.org/1999/xlink">
    <title>heart-fill</title>
    <g id="heart-fill" stroke="none" stroke-width="1" fill="none" fill-rule="evenodd">
        <g fill-rule="nonzero">
            <rect id="矩形" opacity="0" x="0" y="0" width="16" height="16"></rect>
            <path d="M14.421875,4.43125 C14.2125,3.9453125 13.9125,3.5109375 13.5328125,3.1375 C13.153125,2.765625 12.7125,2.475 12.2203125,2.2703125 C11.7125,2.059375 11.175,1.953125 10.6203125,1.953125 C9.85,1.953125 9.0984375,2.1640625 8.4453125,2.5625 C8.2890625,2.6578125 8.140625,2.7625 8,2.8765625 C7.859375,2.7625 7.7109375,2.6578125 7.5546875,2.5625 C6.9015625,2.1640625 6.15,1.953125 5.3796875,1.953125 C4.825,1.953125 4.2875,2.059375 3.7796875,2.2703125 C3.2890625,2.4734375 2.846875,2.765625 2.4671875,3.1375 C2.0859375,3.5109375 1.7875,3.9453125 1.578125,4.43125 C1.3609375,4.9359375 1.25,5.471875 1.25,6.0234375 C1.25,6.54375 1.35625,7.0859375 1.5671875,7.6375 C1.74375,8.0984375 1.996875,8.5765625 2.3203125,9.059375 C2.8328125,9.8234375 3.5375,10.6203125 4.4125,11.428125 C5.8625,12.7671875 7.2984375,13.6921875 7.359375,13.7296875 L7.7296875,13.9671875 C7.89375,14.071875 8.1046875,14.071875 8.26875,13.9671875 L8.6390625,13.7296875 C8.7,13.690625 10.134375,12.7671875 11.5859375,11.428125 C12.4609375,10.6203125 13.165625,9.8234375 13.678125,9.059375 C14.0015625,8.5765625 14.25625,8.0984375 14.43125,7.6375 C14.6421875,7.0859375 14.7484538,6.54375 14.7484538,6.0234375 C14.75,5.471875 14.6390625,4.9359375 14.421875,4.43125 Z" id="路径" fill="#000000"></path>
        </g>
    </g>
</svg>