<?xml version="1.0" standalone="no"?><!DOCTYPE svg PUBLIC "-//W3C//DTD SVG 1.1//EN" "http://www.w3.org/Graphics/SVG/1.1/DTD/svg11.dtd"><svg class="icon" width="200px" height="200.00px" viewBox="0 0 1024 1024" version="1.1" xmlns="http://www.w3.org/2000/svg"><path fill="#000000" d="M510.72 183.296c180.992 0 333.632 120.576 361.6 281.6l0.512 2.88 12.992 8.704c49.28 34.56 80.192 78.208 84.352 130.176l0.448 12.16c0 147.2-209.28 234.88-458.624 234.88-249.408 0-458.624-87.68-458.624-234.88 0-60.672 35.648-110.72 94.4-148.864l0.768-0.512 1.472-8.96c29.184-154.624 173.44-270.784 346.24-276.928z m0 73.6c-21.632 0-42.688 2.048-62.976 6.08v185.28h-73.6V287.104C282.496 330.368 219.712 415.872 218.24 514.56c-56.96 28.096-91.264 64.512-91.264 104.256 0 89.088 172.352 161.28 385.024 161.28s385.024-72.192 385.024-161.28c0-40.32-35.328-77.184-93.696-105.472l0.064 5.12c0-99.456-62.08-185.984-153.536-230.208v160h-73.6V263.424a326.976 326.976 0 0 0-65.472-6.528z" /></svg>