<?xml version="1.0" encoding="UTF-8"?>
<svg width="16px" height="16px" viewBox="0 0 16 16" version="1.1" xmlns="http://www.w3.org/2000/svg" xmlns:xlink="http://www.w3.org/1999/xlink">
    <title>inconsistent</title>
    <g id="inconsistent" stroke="none" stroke-width="1" fill="none" fill-rule="evenodd">
        <g>
            <rect id="矩形" opacity="0" fill-rule="nonzero" x="0" y="0" width="16" height="16"></rect>
            <path d="M8,1 C11.865625,1 15,4.134375 15,8 C15,11.865625 11.865625,15 8,15 C4.134375,15 1,11.865625 1,8 C1,4.134375 4.134375,1 8,1 Z M8,2.1875 C4.790625,2.1875 2.1875,4.790625 2.1875,8 C2.1875,11.209375 4.790625,13.8125 8,13.8125 C11.209375,13.8125 13.8125,11.209375 13.8125,8 C13.8125,4.790625 11.209375,2.1875 8,2.1875 Z M10.1048636,4.01385612 C9.91659822,4.50945823 9.7753992,4.88115981 9.68126652,5.12896086 C9.58750422,5.37578691 9.48117517,5.6556945 9.36227936,5.96868365 L10.9220729,5.96875 C10.9908229,5.96875 11.0470729,6.025 11.0470729,6.09375 L11.0470729,6.09375 L11.0470729,6.84375 C11.0470729,6.9125 10.9908229,6.96875 10.9220729,6.96875 L10.9220729,6.96875 L8.98279879,6.96765324 C8.75999701,7.55417129 8.50675699,8.22081697 8.22307873,8.96759027 L10.9220729,8.96875 C10.9908229,8.96875 11.0470729,9.025 11.0470729,9.09375 L11.0470729,9.09375 L11.0470729,9.84375 C11.0470729,9.9125 10.9908229,9.96875 10.9220729,9.96875 L10.9220729,9.96875 L7.835,9.968 L7.18369825,11.6878797 C7.1267083,11.8374125 7.00203966,11.9516983 6.84658598,11.993352 L6.13874346,12.1830179 C6.04064161,12.2093042 5.95336382,12.1129864 5.98928221,12.0176283 L6.767,9.968 L5.1720729,9.96875 C5.1170729,9.96875 5.0700729,9.93275 5.0534729,9.88315 L5.0470729,9.84375 L5.0470729,9.09375 C5.0470729,9.025 5.1033229,8.96875 5.1720729,8.96875 L5.1720729,8.96875 L7.147,8.968 L7.906,6.968 L5.1720729,6.96875 C5.1170729,6.96875 5.0700729,6.93275 5.0534729,6.88315 L5.0470729,6.84375 L5.0470729,6.09375 C5.0470729,6.025 5.1033229,5.96875 5.1720729,5.96875 L5.1720729,5.96875 L8.292,5.968 L8.91044754,4.34360465 C8.96743749,4.19407186 9.09210613,4.07978604 9.24755982,4.03813235 L9.95540234,3.84846652 C10.0535042,3.82218021 10.140782,3.91849801 10.1048636,4.01385612 Z" id="形状结合" fill="#000000"></path>
        </g>
    </g>
</svg>