<?xml version="1.0" standalone="no"?><!DOCTYPE svg PUBLIC "-//W3C//DTD SVG 1.1//EN" "http://www.w3.org/Graphics/SVG/1.1/DTD/svg11.dtd"><svg class="icon" width="200px" height="200.00px" viewBox="0 0 1024 1024" version="1.1" xmlns="http://www.w3.org/2000/svg"><path fill="#000000" d="M539.776 80.576l307.2 147.968a64 64 0 0 1 34.624 43.392l75.904 332.48a64 64 0 0 1-12.352 54.144l-212.608 266.624a64 64 0 0 1-50.048 24.064H341.504a64 64 0 0 1-50.048-24.064L78.848 658.56a64 64 0 0 1-12.352-54.144l75.904-332.48a64 64 0 0 1 34.56-43.392l307.264-147.968a64 64 0 0 1 55.552 0z m86.976 639.232l-36.544 18.048 1.28 0.64a39.04 39.04 0 0 1 8.32 6.272c5.44 7.104 11.52 26.176 15.552 40.192l0.96 3.264a26.24 26.24 0 0 0 3.328 12.48l0.064 0.384 0.064-0.064 0.448 0.64c6.016 9.856 17.472 14.08 26.752 9.536 9.6-4.736 13.44-17.024 9.216-28.16v-0.192l-0.768-1.792a25.6 25.6 0 0 0-6.4-8.512c-8.256-12.16-20.608-31.616-22.912-41.28a40 40 0 0 1 0.32-9.28l0.32-2.176zM508.032 600.64l57.472 96.128-2.24 0.832c-35.008 12.16-72.832 12.8-108.16 1.6l52.928-98.56z m-58.24-30.208l-37.888 108.096-1.664-1.088a180.672 180.672 0 0 1-68.288-88.192l107.776-18.752v-0.064z m117.632 2.176l105.344 13.312-0.768 2.112a180.352 180.352 0 0 1-63.808 86.016l-40.768-101.504zM526.08 487.808l20.608 26.752-7.36 33.28-29.824 14.72-29.888-14.848-7.36-33.28 20.672-26.624h33.152z m-169.088-56.128l79.36 72.96-104.704 36.608-0.192-3.072a184.064 184.064 0 0 1 25.6-106.496z m300.288 0.896l1.088 1.856c17.728 30.912 26.112 66.56 24 102.4l-99.136-29.44 74.112-74.88v0.064zM532.544 347.328l1.92 0.256a173.312 173.312 0 0 1 91.84 46.016l-83.072 60.48-10.688-106.752z m-48.832-0.448l-5.76 105.856-90.304-59.52 1.408-1.28a173.312 173.312 0 0 1 94.656-44.992V346.88z m-158.848 55.296l-1.152 1.792c-28.288 44.8-40.128 98.56-33.28 151.616l-2.496 0.832 0.256 1.152-0.256-1.088-1.472 1.664a35.712 35.712 0 0 1-7.168 6.464c-7.936 3.84-27.264 5.76-41.408 6.656l-3.52 0.256a24.192 24.192 0 0 0-12.544 0.512h-0.256v0.128l-0.704 0.256c-10.752 3.84-17.28 14.336-14.976 24.704 2.368 10.624 13.12 17.28 24.64 15.552h0.128l1.92-0.384a24.576 24.576 0 0 0 9.536-4.544c13.312-5.504 34.56-13.632 44.16-13.824 1.92 0 6.528 1.536 8.96 2.56l1.792 0.64 2.56-0.448 0.64 1.856a223.744 223.744 0 0 0 97.024 121.856l-0.64 1.536 5.632 2.816-5.568-2.752a48.384 48.384 0 0 1 0.832 12.096c-1.984 8.448-12.096 24.64-20.16 36.416l-2.624 3.968a25.536 25.536 0 0 0-7.424 10.496l-0.192 0.256-0.192 0.768c-3.84 10.944 0.192 22.784 9.408 27.392 9.6 4.672 21.312 0.192 27.264-10.112l0.96-1.92a26.304 26.304 0 0 0 2.56-10.496c4.096-14.08 11.136-36.224 17.024-44.096a42.688 42.688 0 0 1 7.552-5.76l1.536-0.896 1.088-2.24 2.048 0.768c49.408 17.344 103.296 15.936 151.808-4.096l2.048 3.264 36.48-18.048-1.856-4.672 1.728-1.152a224.576 224.576 0 0 0 89.216-122.624l7.232 0.896v-0.064l0.64-0.32a41.92 41.92 0 0 1 10.56-3.2c8.832 0.128 27.008 7.04 40.128 12.544l3.2 1.408a24.64 24.64 0 0 0 11.584 5.056l0.32 0.192v-0.128l0.704 0.128c11.264 1.28 21.632-5.248 23.936-15.616 2.432-10.624-4.48-21.376-15.552-25.024h-0.192l-1.92-0.64a24.384 24.384 0 0 0-10.432-0.064c-14.272-1.024-36.864-3.2-45.568-7.36a37.44 37.44 0 0 1-6.784-5.952l-1.536-1.664-2.56 11.072 2.56-11.008-8.128-2.496 0.32-3.2a229.504 229.504 0 0 0-36.096-144.512l6.848-6.848-0.832-1.152 0.832 1.088 0.32-1.088a42.624 42.624 0 0 1 4.032-10.112c5.568-6.976 22.144-17.28 34.56-24.448l3.072-1.728a24.704 24.704 0 0 0 9.728-4.928l1.28-1.216 0.384-0.192h-0.064l0.512-0.64c8-8.128 9.472-20.608 3.072-28.928-6.656-8.448-19.136-9.664-28.8-3.008l-0.064 0.128-0.576 0.384-1.024 0.768a25.536 25.536 0 0 0-6.656 8.32c-9.728 10.88-25.408 27.648-34.048 32.128a38.4 38.4 0 0 1-9.088 1.728l-1.92 0.128-8.192 6.144-0.128-0.128-1.536-1.6a215.68 215.68 0 0 0-131.776-63.36l-0.96-9.088-0.64-0.896a42.624 42.624 0 0 1-5.184-9.6c-1.792-8.576 0.512-27.52 2.688-41.792l0.832-4.8a26.24 26.24 0 0 0 2.24-10.944v-2.176l-0.128-0.64c-1.28-11.648-9.792-20.608-20.16-20.608-10.56 0-19.2 9.344-20.16 21.248v2.176c0 3.584 0.64 7.232 2.112 10.56 2.176 14.592 5.184 37.632 3.2 47.36a44.608 44.608 0 0 1-4.416 8.64l-0.96 1.472-0.448 8.96-1.984 0.256c-50.56 5.376-97.6 28.8-133.12 66.112l-4.928-3.2h-1.216a70.976 70.976 0 0 1-7.424-0.96l-3.072-0.896c-7.872-4.032-21.44-18.368-30.912-29.184l-2.304-2.624a25.472 25.472 0 0 0-6.848-8.704l-1.408-1.088-0.256-0.256-0.64-0.384c-9.6-6.208-21.76-4.864-28.16 3.392-6.528 8.512-4.928 21.312 3.584 29.504l0.128 0.128 0.768 0.64 0.768 0.64c2.688 2.304 5.888 3.904 9.344 4.864 12.48 7.296 31.872 19.264 37.952 26.88A38.848 38.848 0 0 1 320 396.288l0.768 2.24 4.096 3.712z" /></svg>