<?xml version="1.0" standalone="no"?><!DOCTYPE svg PUBLIC "-//W3C//DTD SVG 1.1//EN" "http://www.w3.org/Graphics/SVG/1.1/DTD/svg11.dtd"><svg class="icon" width="200px" height="200.00px" viewBox="0 0 1024 1024" version="1.1" xmlns="http://www.w3.org/2000/svg"><path fill="#000000" d="M794.24 677.504a6.4 6.4 0 0 1 3.904 1.28l149.504 113.536a6.4 6.4 0 0 1 0 10.24l-149.504 113.472a6.4 6.4 0 0 1-10.24-5.12v-76.8l-223.936 0.128v-73.6l223.872-0.064v-76.672a6.4 6.4 0 0 1 6.4-6.4zM512 106.624a243.456 243.456 0 0 1 131.264 448.64 377.28 377.28 0 0 1 106.88 59.776 186.048 186.048 0 0 0-57.792 48.64 309.248 309.248 0 0 0-484.992 198.336 36.8 36.8 0 1 1-72.576-12.544 382.848 382.848 0 0 1 245.952-294.4A243.456 243.456 0 0 1 512 106.624z m0 73.6a169.856 169.856 0 1 0 0 339.84 169.856 169.856 0 0 0 0-339.84z" /></svg>