<?xml version="1.0" encoding="UTF-8"?>
<svg width="16px" height="16px" viewBox="0 0 16 16" version="1.1" xmlns="http://www.w3.org/2000/svg" xmlns:xlink="http://www.w3.org/1999/xlink">
    <title>left-circle-fill</title>
    <g id="left-circle-fill" stroke="none" stroke-width="1" fill="none" fill-rule="evenodd">
        <g fill-rule="nonzero">
            <rect id="矩形" opacity="0" x="0" y="0" width="16" height="16"></rect>
            <path d="M8,1 C4.134375,1 1,4.134375 1,8 C1,11.865625 4.134375,15 8,15 C11.865625,15 15,11.865625 15,8 C15,4.134375 11.865625,1 8,1 Z M9.625,5.9515625 C9.625,6.1109375 9.5484375,6.2625 9.41875,6.35625 L7.146875,8 L9.41875,9.64375 C9.5484375,9.7375 9.625,9.8875 9.625,10.0484375 L9.625,10.78125 C9.625,10.8828125 9.509375,10.9421875 9.4265625,10.8828125 L5.5828125,8.1015625 C5.5140625,8.0515625 5.5140625,7.95 5.5828125,7.9 L9.4265625,5.11875 C9.509375,5.059375 9.625,5.1171875 9.625,5.2203125 L9.625,5.9515625 Z" id="形状" fill="#000000"></path>
        </g>
    </g>
</svg>