<?xml version="1.0" encoding="UTF-8"?>
<svg width="16px" height="16px" viewBox="0 0 16 16" version="1.1" xmlns="http://www.w3.org/2000/svg" xmlns:xlink="http://www.w3.org/1999/xlink">
    <title>location-fill</title>
    <g id="location-fill" stroke="none" stroke-width="1" fill="none" fill-rule="evenodd">
        <g fill-rule="nonzero">
            <rect id="矩形" opacity="0" x="0" y="0" width="16" height="16"></rect>
            <path d="M8,5.109375 C7.5328125,5.109375 7.09375,5.290625 6.7625,5.621875 C6.4328125,5.953125 6.25,6.3921875 6.25,6.859375 C6.25,7.3265625 6.4328125,7.765625 6.7625,8.096875 C7.09375,8.4265625 7.5328125,8.609375 8,8.609375 C8.4671875,8.609375 8.90625,8.4265625 9.2375,8.096875 C9.56875,7.765625 9.75,7.3265625 9.75,6.859375 C9.75,6.3921875 9.56875,5.953125 9.2375,5.621875 C8.90625,5.290625 8.4671875,5.109375 8,5.109375 Z M13.353125,4.5171875 C13.059375,3.8390625 12.6390625,3.23125 12.1046875,2.709375 C11.5703125,2.1875 10.95,1.7796875 10.2578125,1.49375 C9.5421875,1.196875 8.7828125,1.046875 8,1.046875 C7.2171875,1.046875 6.4578125,1.196875 5.7421875,1.4921875 C5.05,1.778125 4.4296875,2.1875 3.8953125,2.7078125 C3.3609375,3.2296875 2.940625,3.8390625 2.646875,4.515625 C2.3421875,5.21875 2.1875,5.965625 2.1875,6.734375 C2.1875,7.8375 2.4515625,8.9359375 2.9703125,9.9953125 C3.3875,10.846875 3.9703125,11.6765625 4.7046875,12.465625 C5.959375,13.8125 7.275,14.6359375 7.6484375,14.85625 C7.75625,14.9203125 7.878125,14.9515625 7.9984375,14.9515625 C8.1203125,14.9515625 8.240625,14.9203125 8.3484375,14.85625 C8.721875,14.6359375 10.0375,13.8125 11.2921875,12.465625 C12.0265625,11.678125 12.609375,10.846875 13.0265625,9.9953125 C13.5484375,8.9375 13.8125,7.840625 13.8125,6.7359375 C13.8125,5.9671875 13.6578125,5.2203125 13.353125,4.5171875 Z M8,9.609375 C6.48125,9.609375 5.25,8.378125 5.25,6.859375 C5.25,5.340625 6.48125,4.109375 8,4.109375 C9.51875,4.109375 10.75,5.340625 10.75,6.859375 C10.75,8.378125 9.51875,9.609375 8,9.609375 Z" id="形状" fill="#000000"></path>
        </g>
    </g>
</svg>