<?xml version="1.0" standalone="no"?><!DOCTYPE svg PUBLIC "-//W3C//DTD SVG 1.1//EN" "http://www.w3.org/Graphics/SVG/1.1/DTD/svg11.dtd"><svg class="icon" width="200px" height="200.00px" viewBox="0 0 1024 1024" version="1.1" xmlns="http://www.w3.org/2000/svg"><path fill="#000000" d="M143.744 383.04v378.24l167.36-72.128 406.72 168.576 162.496-65.28V383.104h73.6v459.2l-236.672 94.976-405.44-168.192-241.664 104.32V383.04h73.6zM514.432 54.528a246.912 246.912 0 0 1 246.848 246.912c0 90.368-67.008 190.784-196.288 313.28a73.6 73.6 0 0 1-101.184 0C334.528 492.16 267.52 391.808 267.52 301.44A246.912 246.912 0 0 1 514.432 54.528z m0 73.6A173.312 173.312 0 0 0 341.12 301.44c0 63.808 57.728 150.4 173.312 259.84 115.52-109.44 173.248-196.032 173.248-259.84a173.312 173.312 0 0 0-173.248-173.312z m0 99.2a72.448 72.448 0 1 1 0 144.832 72.448 72.448 0 0 1 0-144.896z" /></svg>