<?xml version="1.0" encoding="UTF-8"?>
<svg width="16px" height="16px" viewBox="0 0 16 16" version="1.1" xmlns="http://www.w3.org/2000/svg" xmlns:xlink="http://www.w3.org/1999/xlink">
    <title>mail</title>
    <g id="mail" stroke="none" stroke-width="1" fill="none" fill-rule="evenodd">
        <g fill-rule="nonzero">
            <rect id="矩形" opacity="0" x="0" y="0" width="16" height="16"></rect>
            <path d="M14.5,2.5 L1.5,2.5 C1.2234375,2.5 1,2.7234375 1,3 L1,13 C1,13.2765625 1.2234375,13.5 1.5,13.5 L14.5,13.5 C14.7765625,13.5 15,13.2765625 15,13 L15,3 C15,2.7234375 14.7765625,2.5 14.5,2.5 Z M13.875,4.23125 L13.875,12.375 L2.125,12.375 L2.125,4.23125 L1.69375,3.8953125 L2.3078125,3.10625 L2.9765625,3.6265625 L13.025,3.6265625 L13.69375,3.10625 L14.3078125,3.8953125 L13.875,4.23125 L13.875,4.23125 Z M13.025,3.625 L8,7.53125 L2.975,3.625 L2.30625,3.1046875 L1.6921875,3.89375 L2.1234375,4.2296875 L7.4609375,8.3796875 C7.7765625,8.625 8.21875,8.625 8.534375,8.3796875 L13.875,4.23125 L14.30625,3.8953125 L13.6921875,3.10625 L13.025,3.625 Z" id="形状" fill="#000000"></path>
        </g>
    </g>
</svg>