<?xml version="1.0" standalone="no"?><!DOCTYPE svg PUBLIC "-//W3C//DTD SVG 1.1//EN" "http://www.w3.org/Graphics/SVG/1.1/DTD/svg11.dtd"><svg class="icon" width="200px" height="200.00px" viewBox="0 0 1024 1024" version="1.1" xmlns="http://www.w3.org/2000/svg"><path fill="#000000" d="M518.912 105.28l319.296 61.312c17.28 3.328 29.824 18.496 29.824 36.096l-0.384 375.296c-13.376 89.984-62.08 168.512-143.552 233.792-43.904 37.44-103.168 69.632-178.176 97.152l-21.632 7.68a36.8 36.8 0 0 1-24.128 0.128c-85.248-29.056-152-63.872-199.36-104.32l-15.04-12.48c-73.28-63.36-116.928-137.92-129.792-227.328v-369.92c0-17.6 12.48-32.768 29.824-36.096l319.296-61.312h13.824zM512 178.88l-282.496 54.208-0.384 334.08c9.856 65.92 44.16 124.672 105.088 177.408l13.44 11.2c40.32 34.368 99.136 65.024 176.192 91.264L512 842.88l8.96-3.136c59.52-21.824 107.072-46.464 143.232-74.112l12.992-10.56c68.48-54.848 107.2-117.12 117.248-182.4l0.064-339.584L512 178.88zM544 320v140.8h144v64H544v147.2h-64V524.8H336v-64H480V320h64z" /></svg>