<?xml version="1.0" encoding="UTF-8"?>
<svg width="16px" height="16px" viewBox="0 0 16 16" version="1.1" xmlns="http://www.w3.org/2000/svg" xmlns:xlink="http://www.w3.org/1999/xlink">
    <title>phone-fill</title>
    <g id="phone-fill" stroke="none" stroke-width="1" fill="none" fill-rule="evenodd">
        <g fill-rule="nonzero">
            <rect id="矩形" opacity="0" x="0" y="0" width="16" height="16"></rect>
            <path d="M13.8375,3.596875 L12.1734375,1.934375 C11.934375,1.6953125 11.6140625,1.5625 11.278125,1.5625 C10.9390625,1.5625 10.6203125,1.6953125 10.38125,1.934375 L8.590625,3.725 C8.3515625,3.9640625 8.21875,4.284375 8.21875,4.6203125 C8.21875,4.959375 8.3515625,5.278125 8.590625,5.5171875 L9.9,6.8265625 C9.5921875,7.5046875 9.16875,8.1140625 8.6421875,8.640625 C8.1171875,9.16875 7.50625,9.5921875 6.828125,9.903125 L5.51875,8.59375 C5.2796875,8.3546875 4.959375,8.221875 4.6234375,8.221875 C4.284375,8.221875 3.965625,8.3546875 3.7265625,8.59375 L1.934375,10.3828125 C1.6953125,10.621875 1.5625,10.9421875 1.5625,11.2796875 C1.5625,11.61875 1.6953125,11.9375 1.934375,12.1765625 L3.5953125,13.8375 C3.9765625,14.2203125 4.503125,14.4375 5.04375,14.4375 C5.1578125,14.4375 5.2671875,14.428125 5.375,14.409375 C7.48125,14.0625 9.5703125,12.9421875 11.25625,11.2578125 C12.940625,9.575 14.059375,7.4875 14.4109375,5.375 C14.5171875,4.7296875 14.303125,4.065625 13.8375,3.596875 Z" id="路径" fill="#000000"></path>
        </g>
    </g>
</svg>