<?xml version="1.0" encoding="UTF-8"?>
<svg width="16px" height="16px" viewBox="0 0 16 16" version="1.1" xmlns="http://www.w3.org/2000/svg" xmlns:xlink="http://www.w3.org/1999/xlink">
    <title>pie-chart-circle-fil</title>
    <g id="pie-chart-circle-fil" stroke="none" stroke-width="1" fill="none" fill-rule="evenodd">
        <g fill-rule="nonzero">
            <rect id="矩形" opacity="0" x="0" y="0" width="16" height="16"></rect>
            <path d="M13.4859375,8.1015625 L7.8984375,8.1015625 L7.8984375,2.5140625 C7.8984375,2.4453125 7.8421875,2.3890625 7.7734375,2.3890625 L7.3671875,2.3890625 C6.525,2.3890625 5.70625,2.5546875 4.9375,2.8796875 C4.1953125,3.19375 3.5265625,3.64375 2.953125,4.2171875 C2.3796875,4.790625 1.9296875,5.4578125 1.615625,6.2015625 C1.290625,6.971875 1.125,7.7890625 1.125,8.6328125 C1.125,9.4765625 1.290625,10.2921875 1.615625,11.0625 C1.9296875,11.8046875 2.3796875,12.4734375 2.953125,13.046875 C3.5265625,13.6203125 4.19375,14.0703125 4.9375,14.384375 C5.7078125,14.7109375 6.5265625,14.8765625 7.36875,14.8765625 C8.2109375,14.8765625 9.0296875,14.7109375 9.7984375,14.3859375 C10.540625,14.071875 11.209375,13.621875 11.7828125,13.0484375 C12.35625,12.475 12.80625,11.8078125 13.1203125,11.0640625 C13.446875,10.29375 13.6125,9.475 13.6125,8.6328125 L13.6125,8.2265625 C13.6109375,8.1578125 13.5546875,8.1015625 13.4859375,8.1015625 Z M14.859375,7.234375 L14.81875,6.79375 C14.6859375,5.35625 14.0484375,4 13.0203125,2.9765625 C11.99375,1.95 10.6359375,1.3140625 9.19375,1.18125 L8.7515625,1.140625 C8.678125,1.134375 8.615625,1.190625 8.615625,1.2640625 L8.615625,7.259375 C8.615625,7.328125 8.671875,7.384375 8.740625,7.384375 L14.734375,7.36875 C14.8078125,7.3671875 14.865625,7.30625 14.859375,7.234375 Z" id="形状" fill="#000000"></path>
        </g>
    </g>
</svg>