<?xml version="1.0" encoding="UTF-8"?>
<svg width="16px" height="16px" viewBox="0 0 16 16" version="1.1" xmlns="http://www.w3.org/2000/svg" xmlns:xlink="http://www.w3.org/1999/xlink">
    <title>play-square-fill</title>
    <g id="play-square-fill" stroke="none" stroke-width="1" fill="none" fill-rule="evenodd">
        <g fill-rule="nonzero">
            <rect id="矩形" opacity="0" x="0" y="0" width="16" height="16"></rect>
            <path d="M13.75,1.75 L2.25,1.75 C1.9734375,1.75 1.75,1.9734375 1.75,2.25 L1.75,13.75 C1.75,14.0265625 1.9734375,14.25 2.25,14.25 L13.75,14.25 C14.0265625,14.25 14.25,14.0265625 14.25,13.75 L14.25,2.25 C14.25,1.9734375 14.0265625,1.75 13.75,1.75 Z M10.0265625,8.1375 L6.9109375,10.5875 C6.7953125,10.678125 6.625,10.596875 6.625,10.45 L6.625,5.5515625 C6.625,5.4046875 6.7953125,5.321875 6.9109375,5.4140625 L10.0265625,7.8625 C10.115625,7.9328125 10.115625,8.0671875 10.0265625,8.1375 Z" id="形状" fill="#000000"></path>
        </g>
    </g>
</svg>