<?xml version="1.0" encoding="UTF-8"?>
<svg width="16px" height="16px" viewBox="0 0 16 16" version="1.1" xmlns="http://www.w3.org/2000/svg" xmlns:xlink="http://www.w3.org/1999/xlink">
    <title>point-map</title>
    <g id="point-map" stroke="none" stroke-width="1" fill="none" fill-rule="evenodd">
        <g fill-rule="nonzero">
            <rect id="矩形" opacity="0" x="0" y="0" width="16" height="16"></rect>
            <path d="M13.875,12.375 L3.125,12.375 L3.125,2.625 C3.125,2.55625 3.06875,2.5 3,2.5 L2.125,2.5 C2.05625,2.5 2,2.55625 2,2.625 L2,13.375 C2,13.44375 2.05625,13.5 2.125,13.5 L13.875,13.5 C13.94375,13.5 14,13.44375 14,13.375 L14,12.5 C14,12.43125 13.94375,12.375 13.875,12.375 Z M4.5,9.4375 C4.5,9.98978475 4.94771525,10.4375 5.5,10.4375 C6.05228475,10.4375 6.5,9.98978475 6.5,9.4375 C6.5,8.88521525 6.05228475,8.4375 5.5,8.4375 C4.94771525,8.4375 4.5,8.88521525 4.5,9.4375 Z M6.34375,5.9375 C6.34375,6.35171356 6.67953644,6.6875 7.09375,6.6875 C7.50796356,6.6875 7.84375,6.35171356 7.84375,5.9375 C7.84375,5.52328644 7.50796356,5.1875 7.09375,5.1875 C6.67953644,5.1875 6.34375,5.52328644 6.34375,5.9375 L6.34375,5.9375 Z M8.8125,9.5 C8.8125,10.3284271 9.48407288,11 10.3125,11 C11.1409271,11 11.8125,10.3284271 11.8125,9.5 C11.8125,8.67157288 11.1409271,8 10.3125,8 C9.48407288,8 8.8125,8.67157288 8.8125,9.5 Z M11.125,4.59375 C11.125,5.07699916 11.5167508,5.46875 12,5.46875 C12.4832492,5.46875 12.875,5.07699916 12.875,4.59375 C12.875,4.11050084 12.4832492,3.71875 12,3.71875 C11.5167508,3.71875 11.125,4.11050084 11.125,4.59375 Z" id="形状" fill="#000000"></path>
        </g>
    </g>
</svg>