<?xml version="1.0" encoding="UTF-8"?>
<svg width="16px" height="16px" viewBox="0 0 16 16" version="1.1" xmlns="http://www.w3.org/2000/svg" xmlns:xlink="http://www.w3.org/1999/xlink">
    <title>preview</title>
    <g id="preview" stroke="none" stroke-width="1" fill="none" fill-rule="evenodd">
        <g fill-rule="nonzero">
            <rect id="矩形" opacity="0" x="0" y="0" width="16" height="16"></rect>
            <path d="M13.75,1.75 C14.0265625,1.75 14.25,1.9734375 14.25,2.25 L14.25,2.25 L14.25,7.875 C14.25,7.94375 14.19375,8 14.125,8 L14.125,8 L13.25,8 C13.18125,8 13.125,7.94375 13.125,7.875 L13.125,7.875 L13.125,2.875 L2.875,2.875 L2.875,13.125 L7.875,13.125 C7.94375,13.125 8,13.18125 8,13.25 L8,13.25 L8,14.125 C8,14.19375 7.94375,14.25 7.875,14.25 L7.875,14.25 L2.25,14.25 C1.9734375,14.25 1.75,14.0265625 1.75,13.75 L1.75,13.75 L1.75,2.25 C1.75,1.9734375 1.9734375,1.75 2.25,1.75 L2.25,1.75 Z M8.4,4.9 C10.3329966,4.9 11.9,6.46700338 11.9,8.4 C11.9,9.15883178 11.6585102,9.8612606 11.2481897,10.4346274 L14.2131728,13.4 L13.4,14.2131728 L10.4346274,11.2481897 C9.8612606,11.6585102 9.15883178,11.9 8.4,11.9 C6.46700338,11.9 4.9,10.3329966 4.9,8.4 C4.9,6.46700338 6.46700338,4.9 8.4,4.9 Z M8.4,6.05 C7.10213084,6.05 6.05,7.10213084 6.05,8.4 C6.05,9.69786916 7.10213084,10.75 8.4,10.75 C9.69786916,10.75 10.75,9.69786916 10.75,8.4 C10.75,7.10213084 9.69786916,6.05 8.4,6.05 Z" id="形状结合" fill="#000000"></path>
        </g>
    </g>
</svg>