<?xml version="1.0" encoding="UTF-8"?>
<svg width="16px" height="16px" viewBox="0 0 16 16" version="1.1" xmlns="http://www.w3.org/2000/svg" xmlns:xlink="http://www.w3.org/1999/xlink">
    <title>printer-fill</title>
    <g id="printer-fill" stroke="none" stroke-width="1" fill="none" fill-rule="evenodd">
        <g fill-rule="nonzero">
            <rect id="矩形" opacity="0" x="0" y="0" width="16" height="16"></rect>
            <path d="M11.4375,1.875 C11.4375,1.80625 11.38125,1.75 11.3125,1.75 L4.6875,1.75 C4.61875,1.75 4.5625,1.80625 4.5625,1.875 L4.5625,4.1875 L11.4375,4.1875 L11.4375,1.875 Z M13.3125,5.1875 L2.6875,5.1875 C1.996875,5.1875 1.4375,5.746875 1.4375,6.4375 L1.4375,11.5625 C1.4375,11.8390625 1.6609375,12.0625 1.9375,12.0625 L4.5625,12.0625 L4.5625,14.125 C4.5625,14.19375 4.61875,14.25 4.6875,14.25 L11.3125,14.25 C11.38125,14.25 11.4375,14.19375 11.4375,14.125 L11.4375,12.0625 L14.0625,12.0625 C14.3390625,12.0625 14.5625,11.8390625 14.5625,11.5625 L14.5625,6.4375 C14.5625,5.746875 14.003125,5.1875 13.3125,5.1875 Z M10.375,13.1875 L5.625,13.1875 L5.625,8.875 L10.375,8.875 L10.375,13.1875 Z M12.9375,7.5625 C12.9375,7.63125 12.88125,7.6875 12.8125,7.6875 L12.1875,7.6875 C12.11875,7.6875 12.0625,7.63125 12.0625,7.5625 L12.0625,6.9375 C12.0625,6.86875 12.11875,6.8125 12.1875,6.8125 L12.8125,6.8125 C12.88125,6.8125 12.9375,6.86875 12.9375,6.9375 L12.9375,7.5625 Z" id="形状" fill="#000000"></path>
        </g>
    </g>
</svg>