<?xml version="1.0" standalone="no"?><!DOCTYPE svg PUBLIC "-//W3C//DTD SVG 1.1//EN" "http://www.w3.org/Graphics/SVG/1.1/DTD/svg11.dtd"><svg class="icon" width="200px" height="200.00px" viewBox="0 0 1024 1024" version="1.1" xmlns="http://www.w3.org/2000/svg"><path fill="#000000" d="M847.168 537.088v327.424a31.36 31.36 0 0 1-31.296 31.488H95.36a31.36 31.36 0 0 1-31.296-31.488L64 537.088h783.168z m-73.664 73.6H137.536l0.064 211.712h635.968l-0.064-211.712zM949.952 121.6a9.6 9.6 0 0 1 9.6 9.6v658.56a9.6 9.6 0 0 1-9.6 9.6h-54.4a9.6 9.6 0 0 1-9.6-9.6V204.8a9.6 9.6 0 0 0-9.6-9.6H243.2a9.6 9.6 0 0 1-9.088-6.592L233.6 185.6v-54.4a9.6 9.6 0 0 1 9.6-9.6h706.752z m-134.08 113.408c17.28 0 31.36 14.08 31.36 31.488l-0.064 207.68H64l0.064-207.68a31.36 31.36 0 0 1 31.36-31.488h720.448z m-42.304 73.6H137.6l-0.064 91.904h635.968l0.064-91.904z m-71.488 22.912c13.248 0 24 10.816 24 24.128a24.064 24.064 0 1 1-24-24.128z m-149.312 0v48H176.832v-48h375.936z" /></svg>