<?xml version="1.0" encoding="UTF-8"?>
<svg width="16px" height="16px" viewBox="0 0 16 16" version="1.1" xmlns="http://www.w3.org/2000/svg" xmlns:xlink="http://www.w3.org/1999/xlink">
    <title>project</title>
    <g id="project" stroke="none" stroke-width="1" fill="none" fill-rule="evenodd">
        <g fill-rule="nonzero">
            <rect id="矩形" opacity="0" x="0" y="0" width="16" height="16"></rect>
            <path d="M4.375,11.75 L5.625,11.75 C5.69375,11.75 5.75,11.69375 5.75,11.625 L5.75,4.375 C5.75,4.30625 5.69375,4.25 5.625,4.25 L4.375,4.25 C4.30625,4.25 4.25,4.30625 4.25,4.375 L4.25,11.625 C4.25,11.69375 4.30625,11.75 4.375,11.75 Z M7.375,7.375 L8.625,7.375 C8.69375,7.375 8.75,7.31875 8.75,7.25 L8.75,4.375 C8.75,4.30625 8.69375,4.25 8.625,4.25 L7.375,4.25 C7.30625,4.25 7.25,4.30625 7.25,4.375 L7.25,7.25 C7.25,7.31875 7.30625,7.375 7.375,7.375 Z M10.375,8.5 L11.625,8.5 C11.69375,8.5 11.75,8.44375 11.75,8.375 L11.75,4.375 C11.75,4.30625 11.69375,4.25 11.625,4.25 L10.375,4.25 C10.30625,4.25 10.25,4.30625 10.25,4.375 L10.25,8.375 C10.25,8.44375 10.30625,8.5 10.375,8.5 Z M13.75,1.75 L2.25,1.75 C1.9734375,1.75 1.75,1.9734375 1.75,2.25 L1.75,13.75 C1.75,14.0265625 1.9734375,14.25 2.25,14.25 L13.75,14.25 C14.0265625,14.25 14.25,14.0265625 14.25,13.75 L14.25,2.25 C14.25,1.9734375 14.0265625,1.75 13.75,1.75 Z M13.125,13.125 L2.875,13.125 L2.875,2.875 L13.125,2.875 L13.125,13.125 Z" id="形状" fill="#000000"></path>
        </g>
    </g>
</svg>