<?xml version="1.0" encoding="UTF-8"?>
<svg width="16px" height="16px" viewBox="0 0 16 16" version="1.1" xmlns="http://www.w3.org/2000/svg" xmlns:xlink="http://www.w3.org/1999/xlink">
    <title>property-safety-fill</title>
    <g id="property-safety-fill" stroke="none" stroke-width="1" fill="none" fill-rule="evenodd">
        <g fill-rule="nonzero">
            <rect id="矩形" opacity="0" x="0" y="0" width="16" height="16"></rect>
            <path d="M13.5453125,2.6546875 L8.2359375,0.8453125 C8.171875,0.8234375 8.0859375,0.8125 8,0.8125 C7.9140625,0.8125 7.828125,0.8234375 7.7640625,0.8453125 L2.4546875,2.6546875 C2.325,2.6984375 2.21875,2.8484375 2.21875,2.9859375 L2.21875,10.5234375 C2.21875,10.6609375 2.3078125,10.8421875 2.415625,10.928125 L7.8015625,15.125 C7.85625,15.1671875 7.9265625,15.1890625 7.9984375,15.1890625 C8.0703125,15.1890625 8.1421875,15.1671875 8.1953125,15.125 L13.58125,10.928125 C13.6890625,10.84375 13.7781922,10.6625 13.7781922,10.5234375 L13.7781922,2.9859375 C13.78125,2.8484375 13.675,2.7 13.5453125,2.6546875 Z M10.1296875,5.2 L8.759375,7.7171875 L9.4734375,7.7171875 C9.559375,7.7171875 9.6296875,7.7875 9.6296875,7.8734375 L9.6296875,8.20625 C9.6296875,8.2921875 9.559375,8.3625 9.4734375,8.3625 L8.4828125,8.3625 L8.4828125,8.8265625 L9.4734375,8.8265625 C9.559375,8.8265625 9.6296875,8.896875 9.6296875,8.9828125 L9.6296875,9.315625 C9.6296875,9.4015625 9.559375,9.471875 9.4734375,9.471875 L8.4828125,9.471875 L8.4828125,10.28125 C8.4828125,10.3671875 8.4125,10.4375 8.3265625,10.4375 L7.68125,10.4375 C7.5953125,10.4375 7.525,10.3671875 7.525,10.28125 L7.525,9.471875 L6.5390625,9.471875 C6.453125,9.471875 6.3828125,9.4015625 6.3828125,9.315625 L6.3828125,8.9828125 C6.3828125,8.896875 6.453125,8.8265625 6.5390625,8.8265625 L7.525,8.8265625 L7.525,8.3625 L6.5390625,8.3625 C6.453125,8.3625 6.3828125,8.2921875 6.3828125,8.20625 L6.3828125,7.8734375 C6.3828125,7.7875 6.453125,7.7171875 6.5390625,7.7171875 L7.2453125,7.7171875 L5.8703125,5.2 C5.8296875,5.125 5.85625,5.0296875 5.9328125,4.9875 C5.95625,4.975 5.98125,4.96875 6.0078125,4.96875 L6.7265625,4.96875 C6.7859375,4.96875 6.8390625,5.0015625 6.865625,5.0546875 L8.0046875,7.309375 L9.1484375,5.0546875 C9.175,5.0015625 9.2296875,4.96875 9.2875,4.96875 L9.990625,4.96875 C10.0765625,4.96875 10.146875,5.0390625 10.146875,5.125 C10.1484375,5.1515625 10.1421875,5.1765625 10.1296875,5.2 Z" id="形状" fill="#000000"></path>
        </g>
    </g>
</svg>