<?xml version="1.0" encoding="UTF-8"?>
<svg width="16px" height="16px" viewBox="0 0 16 16" version="1.1" xmlns="http://www.w3.org/2000/svg" xmlns:xlink="http://www.w3.org/1999/xlink">
    <title>right-circle-fill</title>
    <g id="right-circle-fill" stroke="none" stroke-width="1" fill="none" fill-rule="evenodd">
        <g fill-rule="nonzero">
            <rect id="矩形" opacity="0" x="0" y="0" width="16" height="16"></rect>
            <path d="M8,1 C4.134375,1 1,4.134375 1,8 C1,11.865625 4.134375,15 8,15 C11.865625,15 15,11.865625 15,8 C15,4.134375 11.865625,1 8,1 Z M10.4171875,8.1015625 L6.5734375,10.8828125 C6.490625,10.9421875 6.375,10.8828125 6.375,10.78125 L6.375,10.0484375 C6.375,9.8890625 6.4515625,9.7375 6.58125,9.64375 L8.853125,8 L6.58125,6.35625 C6.4515625,6.2625 6.375,6.1125 6.375,5.9515625 L6.375,5.21875 C6.375,5.1171875 6.490625,5.0578125 6.5734375,5.1171875 L10.4171875,7.8984375 C10.4859375,7.9484375 10.4859375,8.0515625 10.4171875,8.1015625 Z" id="形状" fill="#000000"></path>
        </g>
    </g>
</svg>