<?xml version="1.0" encoding="UTF-8"?>
<svg width="16px" height="16px" viewBox="0 0 16 16" version="1.1" xmlns="http://www.w3.org/2000/svg" xmlns:xlink="http://www.w3.org/1999/xlink">
    <title>rise</title>
    <g id="rise" stroke="none" stroke-width="1" fill="none" fill-rule="evenodd">
        <g fill-rule="nonzero">
            <rect id="矩形" opacity="0" x="0" y="0" width="16" height="16"></rect>
            <path d="M14.328125,3.2984375 L11.215625,3.6734375 C11.1125,3.6859375 11.06875,3.8125 11.1421875,3.8859375 L12.06875,4.8125 L8.5375,8.34375 L6.946875,6.7546875 C6.8484375,6.65625 6.690625,6.6578125 6.59375,6.7546875 L1.5671875,11.7828125 C1.51875,11.83125 1.51875,11.9109375 1.5671875,11.959375 L2.2703125,12.665625 C2.31875,12.7140625 2.3984375,12.7140625 2.446875,12.665625 L6.7703125,8.34375 L8.359375,9.9328125 C8.4578125,10.0296875 8.615625,10.0296875 8.7125,9.9328125 L12.953125,5.6953125 L13.8796875,6.621875 C13.953125,6.6953125 14.0796875,6.6515625 14.0921875,6.5484375 L14.4671875,3.4359375 C14.478125,3.35625 14.409375,3.2875 14.328125,3.2984375 Z" id="路径" fill="#000000"></path>
        </g>
    </g>
</svg>