<?xml version="1.0" encoding="UTF-8"?>
<svg width="16px" height="16px" viewBox="0 0 16 16" version="1.1" xmlns="http://www.w3.org/2000/svg" xmlns:xlink="http://www.w3.org/1999/xlink">
    <title>rocket-fill</title>
    <g id="rocket-fill" stroke="none" stroke-width="1" fill="none" fill-rule="evenodd">
        <g fill-rule="nonzero">
            <rect id="矩形" opacity="0" x="0" y="0" width="16" height="16"></rect>
            <path d="M13.5,11.5 C13.5,9.75625 12.478125,8.25 11,7.5484375 L11,4.9578125 C11,4.721875 10.9171875,4.49375 10.7640625,4.3140625 L8.3828125,1.490625 C8.2828125,1.371875 8.140625,1.3125 8,1.3125 C7.859375,1.3125 7.7171875,1.371875 7.6171875,1.490625 L5.2359375,4.3140625 C5.084375,4.49375 5,4.721875 5,4.9578125 L5,7.5484375 C3.521875,8.25 2.5,9.75625 2.5,11.5 L4.9453125,11.5 C4.909375,11.6125 4.890625,11.734375 4.890625,11.871875 C4.890625,12.2171875 5.009375,12.5546875 5.225,12.821875 C5.4015625,13.040625 5.634375,13.20625 5.8984375,13.3 C6.259375,14.14375 7.0796875,14.6875 8,14.6875 C8.4546875,14.6875 8.8953125,14.553125 9.271875,14.3 C9.640625,14.053125 9.9265625,13.7078125 10.1,13.3 C10.3640625,13.20625 10.596875,13.0421875 10.7734375,12.8234375 C10.9890625,12.5546875 11.1078125,12.2171875 11.1078125,11.8734375 C11.1078125,11.7421875 11.090625,11.6171875 11.059375,11.5015625 L13.5,11.5 Z M8,5.5 C8.4140625,5.5 8.75,5.8359375 8.75,6.25 C8.75,6.6640625 8.4140625,7 8,7 C7.5859375,7 7.25,6.6640625 7.25,6.25 C7.25,5.8359375 7.5859375,5.5 8,5.5 Z M9.8140625,12.253125 C9.7328125,12.3 9.6390625,12.31875 9.546875,12.30625 L9.2421875,12.26875 L9.1984375,12.571875 C9.1140625,13.1640625 8.5984375,13.6109375 8,13.6109375 C7.4015625,13.6109375 6.8859375,13.1640625 6.8015625,12.571875 L6.7578125,12.2671875 L6.453125,12.30625 C6.4375,12.3078125 6.4203125,12.309375 6.4015625,12.309375 C6.325,12.309375 6.2515625,12.2890625 6.1859375,12.2515625 C6.05,12.1734375 5.965625,12.028125 5.965625,11.8703125 C5.965625,11.7046875 6.0578125,11.5671875 6.19375,11.4984375 L9.8078125,11.4984375 C9.9453125,11.56875 10.0359375,11.70625 10.0359375,11.8703125 C10.034375,12.0296875 9.95,12.1765625 9.8140625,12.253125 Z" id="形状" fill="#000000"></path>
        </g>
    </g>
</svg>