<?xml version="1.0" encoding="UTF-8"?>
<svg width="16px" height="16px" viewBox="0 0 16 16" version="1.1" xmlns="http://www.w3.org/2000/svg" xmlns:xlink="http://www.w3.org/1999/xlink">
    <title>rollback</title>
    <g id="rollback" stroke="none" stroke-width="1" fill="none" fill-rule="evenodd">
        <g fill-rule="nonzero">
            <rect id="矩形" opacity="0" x="0" y="0" width="16" height="16"></rect>
            <path d="M12.390625,3.78125 L5.71875,3.78125 L5.71875,2.625 C5.71875,2.5203125 5.5984375,2.4625 5.5171875,2.5265625 L3.2984375,4.2765625 C3.234375,4.3265625 3.234375,4.4234375 3.2984375,4.4734375 L5.5171875,6.2234375 C5.5984375,6.2875 5.71875,6.2296875 5.71875,6.125 L5.71875,4.96875 L12.203125,4.96875 L12.203125,12.3125 L2.734375,12.3125 C2.665625,12.3125 2.609375,12.36875 2.609375,12.4375 L2.609375,13.375 C2.609375,13.44375 2.665625,13.5 2.734375,13.5 L12.390625,13.5 C12.9421875,13.5 13.390625,13.0515625 13.390625,12.5 L13.390625,4.78125 C13.390625,4.2296875 12.9421875,3.78125 12.390625,3.78125 Z" id="路径" fill="#000000"></path>
        </g>
    </g>
</svg>