<?xml version="1.0" encoding="UTF-8"?>
<svg width="16px" height="16px" viewBox="0 0 16 16" version="1.1" xmlns="http://www.w3.org/2000/svg" xmlns:xlink="http://www.w3.org/1999/xlink">
    <title>same</title>
    <g id="same" stroke="none" stroke-width="1" fill="none" fill-rule="evenodd">
        <g fill-rule="nonzero">
            <rect id="矩形" opacity="0" x="0" y="0" width="16" height="16"></rect>
            <path d="M14.4,1.025 C14.6858074,1.025 14.9229115,1.23352338 14.9674742,1.50673201 L14.975,1.6 L14.975,10.6 C14.975,10.8858074 14.7664766,11.1229115 14.493268,11.1674742 L14.4,11.175 L12.975,11.175 L12.975,12.6 C12.975,12.8858074 12.7664766,13.1229115 12.493268,13.1674742 L12.4,13.175 L11.075,13.175 L11.075,14.5 C11.075,14.7858074 10.8664766,15.0229115 10.593268,15.0674742 L10.5,15.075 L1.5,15.075 C1.21419264,15.075 0.977088528,14.8664766 0.932525779,14.593268 L0.925,14.5 L0.925,5.5 C0.925,5.21419264 1.13352338,4.97708853 1.40673201,4.93252578 L1.5,4.925 L2.825,4.925 L2.825,3.6 C2.825,3.31419264 3.03352338,3.07708853 3.30673201,3.03252578 L3.4,3.025 L4.825,3.025 L4.825,1.6 C4.825,1.31419264 5.03352338,1.07708853 5.30673201,1.03252578 L5.4,1.025 L14.4,1.025 Z M9.925,6.075 L2.075,6.075 L2.075,13.925 L9.925,13.925 L9.925,6.075 Z M6.65,7.5 L6.65,12.65 L5.5,12.65 L5.5,7.5 L6.65,7.5 Z M11.825,4.174 L3.975,4.174 L3.975,4.925 L10.5,4.925 C10.7858074,4.925 11.0229115,5.13352338 11.0674742,5.40673201 L11.075,5.5 L11.075,12.024 L11.825,12.024 L11.825,4.174 Z M13.825,2.174 L5.975,2.174 L5.975,3.025 L12.4,3.025 C12.6858074,3.025 12.9229115,3.23352338 12.9674742,3.50673201 L12.975,3.6 L12.975,10.024 L13.825,10.024 L13.825,2.174 Z" id="形状结合" fill="#000000"></path>
        </g>
    </g>
</svg>