<?xml version="1.0" encoding="UTF-8"?>
<svg width="16px" height="16px" viewBox="0 0 16 16" version="1.1" xmlns="http://www.w3.org/2000/svg" xmlns:xlink="http://www.w3.org/1999/xlink">
    <title>save</title>
    <g id="save" stroke="none" stroke-width="1" fill="none" fill-rule="evenodd">
        <g fill-rule="nonzero">
            <rect id="矩形" opacity="0" x="0" y="0" width="16" height="16"></rect>
            <path d="M13.9578125,4.5828125 L11.4171875,2.0421875 C11.3,1.925 11.15625,1.8390625 11,1.7921875 L11,1.75 L2.25,1.75 C1.9734375,1.75 1.75,1.9734375 1.75,2.25 L1.75,13.75 C1.75,14.0265625 1.9734375,14.25 2.25,14.25 L13.75,14.25 C14.0265625,14.25 14.25,14.0265625 14.25,13.75 L14.25,5.2890625 C14.25,5.0234375 14.1453125,4.7703125 13.9578125,4.5828125 Z M6,2.875 L10,2.875 L10,4.5 L6,4.5 L6,2.875 Z M13.125,13.125 L2.875,13.125 L2.875,2.875 L5,2.875 L5,5 C5,5.2765625 5.2234375,5.5 5.5,5.5 L10.5,5.5 C10.7765625,5.5 11,5.2765625 11,5 L11,3.215625 L13.125,5.340625 L13.125,13.125 Z M8,6.90625 C6.7578125,6.90625 5.75,7.9140625 5.75,9.15625 C5.75,10.3984375 6.7578125,11.40625 8,11.40625 C9.2421875,11.40625 10.25,10.3984375 10.25,9.15625 C10.25,7.9140625 9.2421875,6.90625 8,6.90625 Z M8,10.40625 C7.309375,10.40625 6.75,9.846875 6.75,9.15625 C6.75,8.465625 7.309375,7.90625 8,7.90625 C8.690625,7.90625 9.25,8.465625 9.25,9.15625 C9.25,9.846875 8.690625,10.40625 8,10.40625 Z" id="形状" fill="#000000"></path>
        </g>
    </g>
</svg>