<?xml version="1.0" encoding="UTF-8"?>
<svg width="16px" height="16px" viewBox="0 0 16 16" version="1.1" xmlns="http://www.w3.org/2000/svg" xmlns:xlink="http://www.w3.org/1999/xlink">
    <title>security-scan-fill</title>
    <g id="security-scan-fill" stroke="none" stroke-width="1" fill="none" fill-rule="evenodd">
        <g fill-rule="nonzero">
            <rect id="矩形" opacity="0" x="0" y="0" width="16" height="16"></rect>
            <path d="M13.5453125,2.6546875 L8.2359375,0.8453125 C8.171875,0.8234375 8.0859375,0.8125 8,0.8125 C7.9140625,0.8125 7.828125,0.8234375 7.7640625,0.8453125 L2.4546875,2.6546875 C2.325,2.6984375 2.21875,2.8484375 2.21875,2.9859375 L2.21875,10.5234375 C2.21875,10.6609375 2.3078125,10.8421875 2.415625,10.928125 L7.8015625,15.125 C7.85625,15.1671875 7.9265625,15.1890625 7.9984375,15.1890625 C8.0703125,15.1890625 8.1421875,15.1671875 8.1953125,15.125 L13.58125,10.928125 C13.6890625,10.84375 13.7781922,10.6625 13.7781922,10.5234375 L13.7781922,2.9859375 C13.78125,2.8484375 13.675,2.7 13.5453125,2.6546875 Z M9.79375,8.65625 C9.0359375,9.4140625 7.871875,9.51875 7.003125,8.9703125 L5.7921875,10.18125 C5.74375,10.2296875 5.6640625,10.2296875 5.615625,10.18125 L5.084375,9.65 C5.0359375,9.6015625 5.0359375,9.521875 5.084375,9.4734375 L6.2953125,8.2625 C5.746875,7.3921875 5.8515625,6.2296875 6.609375,5.471875 C7.4890625,4.5921875 8.9140625,4.5921875 9.79375,5.471875 C10.6734375,6.3515625 10.6734375,7.7765625 9.79375,8.65625 Z M7.31648781,7.94891428 C7.8052619,8.43767131 8.59770745,8.43765748 9.08646448,7.94888339 C9.57522152,7.4601093 9.57520769,6.66766375 9.08643359,6.17890672 C8.5976595,5.69014969 7.80521395,5.69016352 7.31645692,6.17893761 C6.82769989,6.6677117 6.82771372,7.46015725 7.31648781,7.94891428 L7.31648781,7.94891428 Z" id="形状" fill="#000000"></path>
        </g>
    </g>
</svg>