<?xml version="1.0" encoding="UTF-8"?>
<svg width="16px" height="16px" viewBox="0 0 16 16" version="1.1" xmlns="http://www.w3.org/2000/svg" xmlns:xlink="http://www.w3.org/1999/xlink">
    <title>shortcut</title>
    <g id="shortcut" stroke="none" stroke-width="1" fill="none" fill-rule="evenodd">
        <g fill-rule="nonzero">
            <rect id="矩形" opacity="0" x="0" y="0" width="16" height="16"></rect>
            <path d="M13.75,1.75 L2.25,1.75 C1.9734375,1.75 1.75,1.9734375 1.75,2.25 L1.75,13.75 C1.75,14.0265625 1.9734375,14.25 2.25,14.25 L13.75,14.25 C14.0265625,14.25 14.25,14.0265625 14.25,13.75 L14.25,2.25 C14.25,1.9734375 14.0265625,1.75 13.75,1.75 Z M13.125,13.125 L2.875,13.125 L2.875,2.875 L13.125,2.875 L13.125,13.125 Z M5.79375,8.6625 C4.940625,8.6625 4.25,9.353125 4.25,10.20625 C4.25,11.059375 4.940625,11.75 5.79375,11.75 C6.646875,11.75 7.3375,11.059375 7.3375,10.20625 L7.3375,9.54375 L8.6609375,9.54375 L8.6609375,10.20625 C8.6609375,11.059375 9.3515625,11.75 10.2046875,11.75 C11.0578125,11.75 11.7484375,11.059375 11.7484375,10.20625 C11.7484375,9.353125 11.0578125,8.6625 10.2046875,8.6625 L9.5421875,8.6625 L9.5421875,7.3390625 L10.2046875,7.3390625 C11.0578125,7.3390625 11.7484375,6.6484375 11.7484375,5.7953125 C11.7484375,4.9421875 11.0578125,4.2515625 10.2046875,4.2515625 C9.3515625,4.2515625 8.6609375,4.9421875 8.6609375,5.7953125 L8.6609375,6.4578125 L7.3375,6.4578125 L7.3375,5.7953125 C7.3375,4.9421875 6.646875,4.2515625 5.79375,4.2515625 C4.940625,4.2515625 4.25,4.940625 4.25,5.79375 C4.25,6.646875 4.940625,7.3375 5.79375,7.3375 L6.45625,7.3375 L6.45625,8.6609375 L5.79375,8.6609375 L5.79375,8.6625 Z M6.45625,10.20625 C6.45625,10.571875 6.159375,10.86875 5.79375,10.86875 C5.428125,10.86875 5.13125,10.571875 5.13125,10.20625 C5.13125,9.840625 5.428125,9.54375 5.79375,9.54375 L6.45625,9.54375 L6.45625,10.20625 Z M9.54375,5.79375 C9.54375,5.428125 9.840625,5.13125 10.20625,5.13125 C10.571875,5.13125 10.86875,5.428125 10.86875,5.79375 C10.86875,6.159375 10.571875,6.45625 10.20625,6.45625 L9.54375,6.45625 L9.54375,5.79375 Z M9.54375,9.54375 L10.20625,9.54375 C10.571875,9.54375 10.86875,9.840625 10.86875,10.20625 C10.86875,10.571875 10.571875,10.86875 10.20625,10.86875 C9.840625,10.86875 9.54375,10.571875 9.54375,10.20625 L9.54375,9.54375 Z M7.3375,7.3375 L8.6609375,7.3375 L8.6609375,8.6609375 L7.3375,8.6609375 L7.3375,7.3375 L7.3375,7.3375 Z M5.79375,6.45625 C5.428125,6.45625 5.13125,6.159375 5.13125,5.79375 C5.13125,5.428125 5.428125,5.13125 5.79375,5.13125 C6.159375,5.13125 6.45625,5.428125 6.45625,5.79375 L6.45625,6.45625 L5.79375,6.45625 Z" id="形状" fill="#000000"></path>
        </g>
    </g>
</svg>