<?xml version="1.0" encoding="UTF-8"?>
<svg width="16px" height="16px" viewBox="0 0 16 16" version="1.1" xmlns="http://www.w3.org/2000/svg" xmlns:xlink="http://www.w3.org/1999/xlink">
    <title>signal-fill</title>
    <g id="signal-fill" stroke="none" stroke-width="1" fill="none" fill-rule="evenodd">
        <g fill-rule="nonzero">
            <rect id="矩形" opacity="0" x="0" y="0" width="16" height="16"></rect>
            <path d="M9.125,5.5 L6.875,5.5 C6.5984375,5.5 6.375,5.7234375 6.375,6 L6.375,14.5 C6.375,14.7765625 6.5984375,15 6.875,15 L9.125,15 C9.4015625,15 9.625,14.7765625 9.625,14.5 L9.625,6 C9.625,5.7234375 9.4015625,5.5 9.125,5.5 Z M13.9375,1 L11.6875,1 C11.4109375,1 11.1875,1.2234375 11.1875,1.5 L11.1875,14.5 C11.1875,14.7765625 11.4109375,15 11.6875,15 L13.9375,15 C14.2140625,15 14.4375,14.7765625 14.4375,14.5 L14.4375,1.5 C14.4375,1.2234375 14.2140625,1 13.9375,1 Z M4.3125,10 L2.0625,10 C1.7859375,10 1.5625,10.2234375 1.5625,10.5 L1.5625,14.5 C1.5625,14.7765625 1.7859375,15 2.0625,15 L4.3125,15 C4.5890625,15 4.8125,14.7765625 4.8125,14.5 L4.8125,10.5 C4.8125,10.2234375 4.5890625,10 4.3125,10 Z" id="形状" fill="#000000"></path>
        </g>
    </g>
</svg>