<?xml version="1.0" encoding="UTF-8"?>
<svg width="16px" height="16px" viewBox="0 0 16 16" version="1.1" xmlns="http://www.w3.org/2000/svg" xmlns:xlink="http://www.w3.org/1999/xlink">
    <title>step-backward</title>
    <g id="step-backward" stroke="none" stroke-width="1" fill="none" fill-rule="evenodd">
        <g fill-rule="nonzero">
            <rect id="矩形" opacity="0" x="0" y="0" width="16" height="16"></rect>
            <path d="M5.43110938,8.26484375 L11.4187656,12.9683437 C11.6414062,13.1432187 11.96875,12.9855937 11.96875,12.7035 L11.96875,3.29646875 C11.96875,3.0144375 11.6414062,2.85678125 11.4187656,3.03165625 L5.43110938,7.73514062 C5.25907813,7.87029687 5.25907813,8.12970312 5.43110938,8.26484375 M5.15625,13.5 L4.15625,13.5 C4.08721441,13.5 4.03125,13.4440356 4.03125,13.375 L4.03125,2.625 C4.03125,2.55596441 4.08721441,2.5 4.15625,2.5 L5.15625,2.5 C5.22528559,2.5 5.28125,2.55596441 5.28125,2.625 L5.28125,13.375 C5.28125,13.4440356 5.22528559,13.5 5.15625,13.5" id="形状" fill="#000000"></path>
        </g>
    </g>
</svg>