<?xml version="1.0" encoding="UTF-8"?>
<svg width="16px" height="16px" viewBox="0 0 16 16" version="1.1" xmlns="http://www.w3.org/2000/svg" xmlns:xlink="http://www.w3.org/1999/xlink">
    <title>stock</title>
    <g id="stock" stroke="none" stroke-width="1" fill="none" fill-rule="evenodd">
        <g fill-rule="nonzero">
            <rect id="矩形" opacity="0" x="0" y="0" width="16" height="16"></rect>
            <path d="M14.125,11.671875 L1.875,11.671875 C1.80625,11.671875 1.75,11.728125 1.75,11.796875 L1.75,12.671875 C1.75,12.740625 1.80625,12.796875 1.875,12.796875 L14.125,12.796875 C14.19375,12.796875 14.25,12.740625 14.25,12.671875 L14.25,11.796875 C14.25,11.728125 14.19375,11.671875 14.125,11.671875 Z M2.5890625,9.715625 L3.209375,10.3328125 C3.2578125,10.38125 3.3375,10.38125 3.3859375,10.3328125 L7.053125,6.678125 L8.578125,8.1984375 C8.7734375,8.3921875 9.0890625,8.3921875 9.284375,8.1984375 L13.4125,4.0859375 C13.4609375,4.0375 13.4609375,3.9578125 13.4125,3.909375 L12.7921875,3.290625 C12.74375,3.2421875 12.6640625,3.2421875 12.615625,3.290625 L8.9328125,6.9625 L7.40625,5.4421875 C7.2109375,5.2484375 6.8953125,5.2484375 6.7,5.4421875 L2.5890625,9.5390625 C2.540625,9.5875 2.5390625,9.6671875 2.5890625,9.715625 Z" id="形状" fill="#000000"></path>
        </g>
    </g>
</svg>