<?xml version="1.0" encoding="UTF-8"?>
<svg width="16px" height="16px" viewBox="0 0 16 16" version="1.1" xmlns="http://www.w3.org/2000/svg" xmlns:xlink="http://www.w3.org/1999/xlink">
    <title>stored-procedure</title>
    <g id="stored-procedure" stroke="none" stroke-width="1" fill="none" fill-rule="evenodd">
        <g fill-rule="nonzero">
            <rect id="矩形" opacity="0" x="0" y="0" width="16" height="16"></rect>
            <path d="M9.875,10.9109375 L12.0921875,9.1609375 C12.15625,9.1109375 12.15625,9.0140625 12.0921875,8.9640625 L9.875,7.2140625 C9.7921875,7.1484375 9.671875,7.2078125 9.671875,7.3125 L9.671875,8.5 L4.609375,8.5 C4.540625,8.5 4.484375,8.55625 4.484375,8.625 L4.484375,9.5 C4.484375,9.56875 4.540625,9.625 4.609375,9.625 L9.671875,9.625 L9.671875,10.8125 C9.671875,10.9171875 9.79375,10.975 9.875,10.9109375 Z M13.9578125,4.5828125 L11.4171875,2.0421875 C11.3,1.925 11.15625,1.8390625 11,1.7921875 L11,1.75 L2.25,1.75 C1.9734375,1.75 1.75,1.9734375 1.75,2.25 L1.75,6.59375 C1.75,6.6625 1.80625,6.71875 1.875,6.71875 L2.75,6.71875 C2.81875,6.71875 2.875,6.6625 2.875,6.59375 L2.875,2.875 L5,2.875 L5,5 C5,5.2765625 5.2234375,5.5 5.5,5.5 L10.5,5.5 C10.7765625,5.5 11,5.2765625 11,5 L11,3.215625 L13.125,5.340625 L13.125,6.59375 C13.125,6.6625 13.18125,6.71875 13.25,6.71875 L14.125,6.71875 C14.19375,6.71875 14.25,6.6625 14.25,6.59375 L14.25,5.2890625 C14.25,5.0234375 14.1453125,4.7703125 13.9578125,4.5828125 Z M10,4.5 L6,4.5 L6,2.875 L10,2.875 L10,4.5 Z M14.125,11.3125 L13.25,11.3125 C13.18125,11.3125 13.125,11.36875 13.125,11.4375 L13.125,13.125 L2.875,13.125 L2.875,11.4375 C2.875,11.36875 2.81875,11.3125 2.75,11.3125 L1.875,11.3125 C1.80625,11.3125 1.75,11.36875 1.75,11.4375 L1.75,13.75 C1.75,14.0265625 1.9734375,14.25 2.25,14.25 L13.75,14.25 C14.0265625,14.25 14.25,14.0265625 14.25,13.75 L14.25,11.4375 C14.25,11.36875 14.19375,11.3125 14.125,11.3125 Z" id="形状" fill="#000000"></path>
        </g>
    </g>
</svg>