<?xml version="1.0" encoding="UTF-8"?>
<svg width="16px" height="16px" viewBox="0 0 16 16" version="1.1" xmlns="http://www.w3.org/2000/svg" xmlns:xlink="http://www.w3.org/1999/xlink">
    <title>tags-fill</title>
    <g id="tags-fill" stroke="none" stroke-width="1" fill="none" fill-rule="evenodd">
        <g fill-rule="nonzero">
            <rect id="矩形" opacity="0" x="0" y="0" width="16" height="16"></rect>
            <path d="M7.55,12.3484375 L13.459375,6.4375 C13.4859375,6.4109375 13.4984375,6.375 13.4953125,6.3390625 L13.096875,1.6296875 C13.0859375,1.5078125 12.990625,1.4125 12.86875,1.4015625 L8.159375,1.0046875 C8.1234375,1.0015625 8.0859375,1.0140625 8.0609375,1.040625 L2.1515625,6.95 C2.103125,6.9984375 2.103125,7.078125 2.1515625,7.1265625 L7.3734375,12.3484375 C7.421875,12.3984375 7.5015625,12.3984375 7.55,12.3484375 Z M9.4671875,4.0140625 C9.759375,3.721875 10.234375,3.721875 10.528125,4.0140625 C10.8203125,4.30625 10.8203125,4.78125 10.528125,5.075 C10.2359375,5.3671875 9.7609375,5.3671875 9.4671875,5.075 C9.175,4.7828125 9.175,4.3078125 9.4671875,4.0140625 Z M13.9015625,8.434375 L13.2828125,7.8171875 C13.234375,7.76875 13.1546875,7.76875 13.10625,7.8171875 L7.45,13.4625 L3.7375,9.759375 C3.6890625,9.7109375 3.609375,9.7109375 3.5609375,9.759375 L2.9421875,10.3765625 C2.89375,10.425 2.89375,10.5046875 2.9421875,10.553125 L6.7421875,14.346875 L7.3609375,14.9640625 C7.409375,15.0125 7.4890625,15.0125 7.5375,14.9640625 L13.9015625,8.6109375 C13.95,8.5625 13.95,8.4828125 13.9015625,8.434375 L13.9015625,8.434375 Z" id="形状" fill="#000000"></path>
        </g>
    </g>
</svg>