<?xml version="1.0" standalone="no"?><!DOCTYPE svg PUBLIC "-//W3C//DTD SVG 1.1//EN" "http://www.w3.org/Graphics/SVG/1.1/DTD/svg11.dtd"><svg class="icon" width="200px" height="200.00px" viewBox="0 0 1024 1024" version="1.1" xmlns="http://www.w3.org/2000/svg"><path fill="#000000" d="M376 112c4.416 0 8 3.584 8 8v64h256v-64c0-4.416 3.584-8 8-8H704c4.416 0 8 3.584 8 8v64h168a32 32 0 0 1 32 32V880a32 32 0 0 1-32 32H144a32 32 0 0 1-32-32V216a32 32 0 0 1 32-32h168v-64c0-4.416 3.584-8 8-8z m464 348.032H184v379.968h656V459.968z m-193.408 102.912a36.8 36.8 0 0 1 0.32 47.168l-4.672 4.672-144 121.6a36.8 36.8 0 0 1-45.056 1.792l-4.8-4.032-60.16-60.8a36.8 36.8 0 0 1 47.232-56.064l5.056 4.288 36.288 36.544 117.952-99.52a36.8 36.8 0 0 1 51.84 4.352zM312 256h-128v136h656V256h-128v48a8 8 0 0 1-8 8h-56A8 8 0 0 1 640 304V256H384v48a8 8 0 0 1-8 8H320a8 8 0 0 1-8-8V256z" /></svg>