<?xml version="1.0" encoding="UTF-8"?>
<svg width="16px" height="16px" viewBox="0 0 16 16" version="1.1" xmlns="http://www.w3.org/2000/svg" xmlns:xlink="http://www.w3.org/1999/xlink">
    <title>thunderbolt</title>
    <g id="thunderbolt" stroke="none" stroke-width="1" fill="none" fill-rule="evenodd">
        <g fill-rule="nonzero">
            <rect id="矩形" opacity="0" x="0" y="0" width="16" height="16"></rect>
            <path d="M13.25,5.6140625 L9.8078125,5.6140625 L12.903125,1.703125 C12.9671875,1.6203125 12.909375,1.5 12.8046875,1.5 L6.8125,1.5 C6.76875,1.5 6.7265625,1.5234375 6.7046875,1.5625 L2.65625,8.5546875 C2.6078125,8.6375 2.6671875,8.7421875 2.7640625,8.7421875 L5.4890625,8.7421875 L4.0921875,14.3296875 C4.0625,14.4515625 4.209375,14.5375 4.3,14.45 L13.3359375,5.828125 C13.4171875,5.7515625 13.3625,5.6140625 13.25,5.6140625 Z M5.909375,11.4453125 L6.8515625,7.6796875 L4.3921875,7.6796875 L7.3546875,2.5640625 L10.8640625,2.5640625 L7.609375,6.678125 L10.90625,6.678125 L5.909375,11.4453125 Z" id="形状" fill="#000000"></path>
        </g>
    </g>
</svg>