<?xml version="1.0" encoding="UTF-8"?>
<svg width="16px" height="16px" viewBox="0 0 16 16" version="1.1" xmlns="http://www.w3.org/2000/svg" xmlns:xlink="http://www.w3.org/1999/xlink">
    <title>time-circle-fill</title>
    <g id="time-circle-fill" stroke="none" stroke-width="1" fill="none" fill-rule="evenodd">
        <g fill-rule="nonzero">
            <rect id="矩形" opacity="0" x="0" y="0" width="16" height="16"></rect>
            <path d="M8,1 C4.134375,1 1,4.134375 1,8 C1,11.865625 4.134375,15 8,15 C11.865625,15 15,11.865625 15,8 C15,4.134375 11.865625,1 8,1 Z M10.7578125,10.1515625 L10.3109375,10.7609375 C10.2703125,10.8171875 10.1921875,10.828125 10.1359375,10.7875 L7.5515625,8.903125 C7.51875,8.8796875 7.5,8.8421875 7.5,8.8015625 L7.5,4.5 C7.5,4.43125 7.55625,4.375 7.625,4.375 L8.3765625,4.375 C8.4453125,4.375 8.5015625,4.43125 8.5015625,4.5 L8.5015625,8.3671875 L10.7296875,9.978125 C10.7859375,10.0171875 10.7984375,10.0953125 10.7578125,10.1515625 Z" id="形状" fill="#000000"></path>
        </g>
    </g>
</svg>