<?xml version="1.0" encoding="UTF-8"?>
<svg width="16px" height="16px" viewBox="0 0 16 16" version="1.1" xmlns="http://www.w3.org/2000/svg" xmlns:xlink="http://www.w3.org/1999/xlink">
    <title>to-top</title>
    <g id="to-top" stroke="none" stroke-width="1" fill="none" fill-rule="evenodd">
        <g fill-rule="nonzero">
            <rect id="矩形" opacity="0" x="0" y="0" width="16" height="16"></rect>
            <path d="M13.828125,12.1875 L2.578125,12.1875 C2.509375,12.1875 2.453125,12.24375 2.453125,12.3125 L2.453125,13.25 C2.453125,13.31875 2.509375,13.375 2.578125,13.375 L13.828125,13.375 C13.896875,13.375 13.953125,13.31875 13.953125,13.25 L13.953125,12.3125 C13.953125,12.24375 13.896875,12.1875 13.828125,12.1875 Z M6.25,5.0890625 L7.4046875,5.0890625 L7.4046875,10.375 C7.4046875,10.44375 7.4609375,10.5 7.5296875,10.5 L8.4671875,10.5 C8.5359375,10.5 8.5921875,10.44375 8.5921875,10.375 L8.5921875,5.0890625 L9.75,5.0890625 C9.8546875,5.0890625 9.9125,4.96875 9.8484375,4.8875 L8.0984375,2.671875 C8.0484375,2.6078125 7.9515625,2.6078125 7.9015625,2.671875 L6.1515625,4.8859375 C6.0875,4.96875 6.1453125,5.0890625 6.25,5.0890625 L6.25,5.0890625 Z" id="形状" fill="#000000"></path>
        </g>
    </g>
</svg>