<?xml version="1.0" standalone="no"?><!DOCTYPE svg PUBLIC "-//W3C//DTD SVG 1.1//EN" "http://www.w3.org/Graphics/SVG/1.1/DTD/svg11.dtd"><svg class="icon" width="200px" height="200.00px" viewBox="0 0 1024 1024" version="1.1" xmlns="http://www.w3.org/2000/svg"><path fill="#000000" d="M490.368 956.032s-153.6-16.64-72-335.552l-217.856-0.064c-9.536 0-27.072-4.48-37.888-9.28-30.016-13.44-50.56-38.144-50.56-71.36 0-15.808-2.048-31.296 14.72-53.504a128.64 128.64 0 0 1 20.48-114.816 128.384 128.384 0 0 1 20.8-114.688 128.64 128.64 0 0 1 72.96-155.392c8.192-3.584 17.216-5.376 26.432-5.376h472.32l-0.32 461.824c-9.92 5.952-19.2 12.8-27.968 20.48-54.784 54.08-161.92 172.672-161.92 316.608-5.12 8.768 9.024 61.056-59.2 61.056z m410.368-464V128a32 32 0 0 0-32-32h-65.024v428.032h65.024a32 32 0 0 0 32-32z" /></svg>