<?xml version="1.0" encoding="UTF-8"?>
<svg width="16px" height="16px" viewBox="0 0 16 16" version="1.1" xmlns="http://www.w3.org/2000/svg" xmlns:xlink="http://www.w3.org/1999/xlink">
    <title>vertical-align-top</title>
    <g id="vertical-align-top" stroke="none" stroke-width="1" fill="none" fill-rule="evenodd">
        <g fill-rule="nonzero">
            <rect id="矩形" opacity="0" x="0" y="0" width="16" height="16"></rect>
            <path d="M13.4359375,2.625 L2.5640625,2.625 C2.49375,2.625 2.4375,2.68125 2.4375,2.75 L2.4375,3.6875 C2.4375,3.75625 2.49375,3.8125 2.5640625,3.8125 L13.4359375,3.8125 C13.50625,3.8125 13.5625,3.75625 13.5625,3.6875 L13.5625,2.75 C13.5625,2.68125 13.50625,2.625 13.4359375,2.625 Z M8.0984375,5.546875 C8.0484375,5.4828125 7.9515625,5.4828125 7.9015625,5.546875 L6.1515625,7.7609375 C6.0875,7.8421875 6.1453125,7.9625 6.25,7.9625 L7.4046875,7.9625 L7.4046875,13.25 C7.4046875,13.31875 7.4609375,13.375 7.5296875,13.375 L8.4671875,13.375 C8.5359375,13.375 8.5921875,13.31875 8.5921875,13.25 L8.5921875,7.9640625 L9.75,7.9640625 C9.8546875,7.9640625 9.9125,7.84375 9.8484375,7.7625 L8.0984375,5.546875 Z" id="形状" fill="#000000"></path>
        </g>
    </g>
</svg>