<?xml version="1.0" encoding="UTF-8"?>
<svg width="16px" height="16px" viewBox="0 0 16 16" version="1.1" xmlns="http://www.w3.org/2000/svg" xmlns:xlink="http://www.w3.org/1999/xlink">
    <title>view</title>
    <g id="view" stroke="none" stroke-width="1" fill="none" fill-rule="evenodd">
        <g fill-rule="nonzero">
            <rect id="矩形" opacity="0" x="0" y="0" width="16" height="16"></rect>
            <path d="M14.9375,10.7265625 L14.9359375,10.725 L14.934375,10.7234375 C14.2453125,9.265625 13.178125,8.515625 11.7578125,8.515625 C10.3375,8.515625 9.2703125,9.2671875 8.5796875,10.7234375 L8.5796875,10.725 C8.4953125,10.9046875 8.4953125,11.1140625 8.5796875,11.29375 C9.2703125,12.75 10.3375,13.5 11.7578125,13.5 C13.178125,13.5 14.2453125,12.7484375 14.9359375,11.2921875 C15.0203125,11.1125 15.0203125,10.9046875 14.9375,10.7265625 Z M11.7578125,12.5 C10.7875,12.5 10.0796875,12.03125 9.553125,11.0078125 C10.078125,9.984375 10.7875,9.515625 11.7578125,9.515625 C12.728125,9.515625 13.4359375,9.984375 13.9625,11.0078125 C13.4375,12.03125 12.728125,12.5 11.7578125,12.5 Z M10.890625,11.015625 C10.890625,11.4988742 11.2823758,11.890625 11.765625,11.890625 C12.2488742,11.890625 12.640625,11.4988742 12.640625,11.015625 C12.640625,10.5323758 12.2488742,10.140625 11.765625,10.140625 C11.2823758,10.140625 10.890625,10.5323758 10.890625,11.015625 Z M2.125,3.625 L13.125,3.625 L13.125,7.578125 L14.25,7.578125 L14.25,3 C14.25,2.7234375 14.0265625,2.5 13.75,2.5 L1.5,2.5 C1.2234375,2.5 1,2.7234375 1,3 L1,11.125 C1,11.4015625 1.2234375,11.625 1.5,11.625 L7,11.625 L7,10.5 L2.125,10.5 L2.125,3.625 Z M11.3265625,5.2828125 L10.7515625,4.7078125 C10.703125,4.659375 10.6234375,4.659375 10.575,4.7078125 L7.703125,7.5828125 L6.3578125,6.2359375 C6.309375,6.1875 6.2296875,6.1875 6.18125,6.2359375 L3.9265625,8.490625 C3.878125,8.5390625 3.878125,8.61875 3.9265625,8.6671875 L4.5015625,9.2421875 C4.55,9.290625 4.6296875,9.290625 4.678125,9.2421875 L6.26875,7.6515625 L7.6140625,8.9984375 C7.6625,9.046875 7.7421875,9.046875 7.790625,8.9984375 L11.3265625,5.459375 C11.3765625,5.4109375 11.3765625,5.33125 11.3265625,5.2828125 L11.3265625,5.2828125 Z" id="形状" fill="#000000"></path>
        </g>
    </g>
</svg>