<?xml version="1.0" encoding="UTF-8"?>
<svg width="16px" height="16px" viewBox="0 0 16 16" version="1.1" xmlns="http://www.w3.org/2000/svg" xmlns:xlink="http://www.w3.org/1999/xlink">
    <title>wrench-fill</title>
    <g id="wrench-fill" stroke="none" stroke-width="1" fill="none" fill-rule="evenodd">
        <g fill-rule="nonzero">
            <rect id="矩形" opacity="0" x="0" y="0" width="16" height="16"></rect>
            <path d="M13.5203125,3.8234375 C13.515625,3.81875 12.565625,4.7578125 10.675,6.6453125 L9.3484375,5.31875 L12.175,2.4921875 C10.6875,1.596875 8.7765625,1.8265625 7.5375,3.065625 C6.5640625,4.0390625 6.2,5.44375 6.546875,6.75 L6.575,6.8546875 L2.1453125,11.2828125 C2.0484375,11.3796875 2.0484375,11.5390625 2.1453125,11.6359375 L4.3546875,13.8453125 C4.4515625,13.9421875 4.6109375,13.9421875 4.7078125,13.8453125 L9.134375,9.41875 L9.2390625,9.446875 C10.546875,9.7953125 11.9515625,9.4328125 12.9265625,8.4578125 C14.1671875,7.21875 14.396875,5.3078125 13.5203125,3.8234375 Z" id="路径" fill="#000000"></path>
        </g>
    </g>
</svg>