<?xml version="1.0" standalone="no"?><!DOCTYPE svg PUBLIC "-//W3C//DTD SVG 1.1//EN" "http://www.w3.org/Graphics/SVG/1.1/DTD/svg11.dtd"><svg class="icon" width="200px" height="200.00px" viewBox="0 0 1024 1024" version="1.1" xmlns="http://www.w3.org/2000/svg"><path fill="#000000" d="M672 64a32 32 0 0 1 31.488 26.24L704 96v64h128a32 32 0 0 1 32 32v128h64a32 32 0 0 1 5.76 63.488L928 384h-64v96h64a32 32 0 0 1 5.76 63.488l-5.76 0.512h-64V640h64a32 32 0 0 1 5.76 63.488L928 704h-64v128a32 32 0 0 1-32 32h-128v64a32 32 0 0 1-63.488 5.76L640 928v-64H544v64a32 32 0 0 1-63.488 5.76L480 928v-64H384v64a32 32 0 0 1-63.488 5.76L320 928v-64H192a32 32 0 0 1-32-32v-128.064h-64a32 32 0 0 1-5.76-63.424L96 640l64-0.064v-96h-64a32 32 0 0 1-5.76-63.36L96 480h64V384h-64a32 32 0 0 1-5.76-63.488L96 320h64V192a32 32 0 0 1 32-32h128v-64a32 32 0 0 1 63.488-5.76L384 96v64h96v-64a32 32 0 0 1 63.488-5.76l0.512 5.76v64H640v-64a32 32 0 0 1 32-32zM576 576a63.936 63.936 0 0 0-51.392 25.856l-4.032 6.144H352l-5.76 0.512a32 32 0 0 0 0 62.976l5.76 0.512h168.576a64 64 0 0 0 106.752 6.208l4.096-6.144 40.576-0.064 5.76-0.512a32 32 0 0 0 0-62.976L672 608h-40.576A64 64 0 0 0 576 576zM448 320a63.936 63.936 0 0 0-51.328 25.792l-4.096 6.144L352 352l-5.76 0.512a32 32 0 0 0 0 62.976l5.76 0.512h40.576a64 64 0 0 0 106.88 6.144l3.968-6.144H672l5.76-0.512a32 32 0 0 0 0-62.976L672 352H503.424A64 64 0 0 0 448 320z" /></svg>