<?xml version="1.0" encoding="UTF-8"?>
<svg width="16px" height="16px" viewBox="0 0 16 16" version="1.1" xmlns="http://www.w3.org/2000/svg" xmlns:xlink="http://www.w3.org/1999/xlink">
    <title>1v1</title>
    <g id="1v1" stroke="none" stroke-width="1" fill="none" fill-rule="evenodd">
        <g id="1:1" fill-rule="nonzero">
            <rect id="矩形" opacity="0" x="0" y="0" width="16" height="16"></rect>
            <path d="M4.9375,10.5 L5.875,10.5 C5.94375,10.5 6,10.44375 6,10.375 L6,5.625 C6,5.55625 5.94375,5.5 5.875,5.5 L4.9375,5.5 C4.86875,5.5 4.8125,5.55625 4.8125,5.625 L4.8125,10.375 C4.8125,10.44375 4.86875,10.5 4.9375,10.5 Z M8,9.71875 C8.3453125,9.71875 8.625,9.4390625 8.625,9.109375 C8.625,8.7484375 8.3453125,8.46875 8,8.46875 C7.6546875,8.46875 7.375,8.7484375 7.375,9.109375 C7.375,9.4390625 7.6546875,9.71875 8,9.71875 Z M8,7.53125 C8.3453125,7.53125 8.625,7.2515625 8.625,6.921875 C8.625,6.5609375 8.3453125,6.28125 8,6.28125 C7.6546875,6.28125 7.375,6.5609375 7.375,6.921875 C7.375,7.2515625 7.6546875,7.53125 8,7.53125 Z M13.75,1.75 L2.25,1.75 C1.9734375,1.75 1.75,1.9734375 1.75,2.25 L1.75,13.75 C1.75,14.0265625 1.9734375,14.25 2.25,14.25 L13.75,14.25 C14.0265625,14.25 14.25,14.0265625 14.25,13.75 L14.25,2.25 C14.25,1.9734375 14.0265625,1.75 13.75,1.75 Z M13.125,13.125 L2.875,13.125 L2.875,2.875 L13.125,2.875 L13.125,13.125 Z M10.125,10.5 L11.0625,10.5 C11.13125,10.5 11.1875,10.44375 11.1875,10.375 L11.1875,5.625 C11.1875,5.55625 11.13125,5.5 11.0625,5.5 L10.125,5.5 C10.05625,5.5 10,5.55625 10,5.625 L10,10.375 C10,10.44375 10.05625,10.5 10.125,10.5 Z" id="形状" fill="#000000"></path>
        </g>
    </g>
</svg>