<?xml version="1.0" encoding="UTF-8"?>
<svg width="16px" height="16px" viewBox="0 0 16 16" version="1.1" xmlns="http://www.w3.org/2000/svg" xmlns:xlink="http://www.w3.org/1999/xlink">
    <title>async</title>
    <g id="async" stroke="none" stroke-width="1" fill="none" fill-rule="evenodd">
        <g fill-rule="nonzero">
            <g id="alert" opacity="0">
                <rect id="矩形" x="0" y="0" width="16" height="16"></rect>
                <g id="warning-circle">
                    <rect id="矩形" x="0" y="0" width="16" height="16"></rect>
                </g>
            </g>
            <path d="M2.57649301,5.50063476 L4.21493506,5.50063476 L6.23770905,7.59335937 L7.03165393,6.77754882 L4.84452408,4.52014648 C4.74056328,4.4120915 4.5973497,4.3508481 4.44756138,4.35039062 L2.57649301,4.35039062 C2.25810471,4.35039062 2,4.60901614 2,4.92804687 C2,5.2470776 2.25810471,5.50570312 2.57649301,5.50570312 L2.57649301,5.50063476 Z M11.7447125,5.50063476 L12.0759484,5.50063476 L11.7244896,5.86293945 C11.618624,5.97216815 11.5596306,6.11857869 11.5601337,6.27083984 C11.5587844,6.42290413 11.6181271,6.56920524 11.7249654,6.67720912 C11.8318037,6.78521301 11.9772803,6.84596564 12.1290444,6.84595703 C12.2788347,6.84550474 12.4220521,6.78426474 12.5260168,6.67621093 L13.8281745,5.33088867 C14.0471716,5.103217 14.0471716,4.74274002 13.8281745,4.51506836 L12.5184247,3.16976562 C12.4164669,3.06334069 12.2762559,3.00221022 12.1290444,3 C11.9781565,3.00200164 11.8342438,3.06398981 11.728973,3.17232461 C11.6237022,3.28065941 11.5656988,3.42646428 11.5677258,3.57765625 C11.5672175,3.7299194 11.6262075,3.87633372 11.7320719,3.98556641 L12.0835307,4.34533203 L10.4349724,4.34533203 C10.2844353,4.34710508 10.1411076,4.41021866 10.0379999,4.52013672 L4.21493506,10.5019141 L2.57649301,10.5019141 C2.25903267,10.503222 2.00237032,10.7614619 2.00237032,11.0795654 C2.00237032,11.397669 2.25903267,11.6559089 2.57649301,11.6572168 L4.44756138,11.6572168 C4.59740816,11.6570539 4.74073062,11.5957675 4.84452408,11.4874707 L10.6600066,5.50064453 L11.7447125,5.50063476 Z M12.5184247,9.33392577 C12.4181787,9.22376518 12.2777468,9.15888957 12.1290444,9.15404296 C11.9781565,9.1560446 11.8342438,9.21803277 11.728973,9.32636757 C11.6237022,9.43470237 11.5656988,9.58050724 11.5677258,9.73169919 C11.5672201,9.88395899 11.6262099,10.0303693 11.7320719,10.1395996 L12.0835307,10.5019043 L10.6675889,10.5019043 L8.63217446,8.40916991 L7.83064722,9.22499022 L10.0304079,11.4874609 C10.1343727,11.5955147 10.27759,11.6567547 10.4273803,11.657207 L12.0683563,11.657207 L11.7244896,12.0169727 C11.6186216,12.1262038 11.559628,12.2726183 11.5601337,12.4248828 C11.5587844,12.5769471 11.6181271,12.7232482 11.7249654,12.8312521 C11.8318037,12.939256 11.9772803,13 12.1290444,13 C12.2788347,12.9995477 12.4220521,12.9383077 12.5260168,12.8302539 L13.8357569,11.4849219 C14.0547477,11.2572515 14.0547477,10.8967817 13.8357569,10.6691113 L12.5184247,9.33392577 Z" id="Shape" fill="#000000"></path>
        </g>
    </g>
</svg>