<?xml version="1.0" encoding="UTF-8"?>
<svg width="16px" height="16px" viewBox="0 0 16 16" version="1.1" xmlns="http://www.w3.org/2000/svg" xmlns:xlink="http://www.w3.org/1999/xlink">
    <title>bug</title>
    <g id="bug" stroke="none" stroke-width="1" fill="none" fill-rule="evenodd">
        <g fill-rule="nonzero">
            <rect id="矩形" opacity="0" x="0" y="0" width="16" height="16"></rect>
            <path d="M14.6875,8 L12.375,8 L12.375,6.4375 C13.575,6.4375 14.546875,5.465625 14.546875,4.265625 C14.546875,4.196875 14.490625,4.140625 14.421875,4.140625 L13.484375,4.140625 C13.415625,4.140625 13.359375,4.196875 13.359375,4.265625 C13.359375,4.809375 12.91875,5.25 12.375,5.25 L3.625,5.25 C3.08125,5.25 2.640625,4.809375 2.640625,4.265625 C2.640625,4.196875 2.584375,4.140625 2.515625,4.140625 L1.578125,4.140625 C1.509375,4.140625 1.453125,4.196875 1.453125,4.265625 C1.453125,5.465625 2.425,6.4375 3.625,6.4375 L3.625,8 L1.3125,8 C1.24375,8 1.1875,8.05625 1.1875,8.125 L1.1875,9 C1.1875,9.06875 1.24375,9.125 1.3125,9.125 L3.625,9.125 L3.625,10.625 C3.625,10.7265625 3.628125,10.828125 3.6359375,10.9265625 C2.5640625,11.384375 1.8125,12.4484375 1.8125,13.6875 C1.8125,13.75625 1.86875,13.8125 1.9375,13.8125 L2.8125,13.8125 C2.88125,13.8125 2.9375,13.75625 2.9375,13.6875 C2.9375,12.996875 3.3109375,12.3921875 3.86875,12.0671875 C3.9625,12.3359375 4.08125,12.5921875 4.2234375,12.8328125 C4.603125,13.48125 5.1453125,14.0234375 5.79375,14.403125 C6.4421875,14.7828125 7.1953125,15 8,15 C8.8046875,15 9.559375,14.7828125 10.2078125,14.403125 C10.85625,14.0234375 11.3984375,13.48125 11.778125,12.8328125 C11.9203125,12.590625 12.0390625,12.334375 12.1328125,12.0671875 C12.6890625,12.3921875 13.0625,12.996875 13.0625,13.6875 C13.0625,13.75625 13.11875,13.8125 13.1875,13.8125 L14.0625,13.8125 C14.13125,13.8125 14.1875,13.75625 14.1875,13.6875 C14.1875,12.4484375 13.4359375,11.384375 12.3640625,10.9265625 C12.3703125,10.8265625 12.375,10.7265625 12.375,10.625 L12.375,9.125 L14.6875,9.125 C14.75625,9.125 14.8125,9.06875 14.8125,9 L14.8125,8.125 C14.8125,8.05625 14.75625,8 14.6875,8 Z M11.1875,10.625 C11.1875,11.2 11.0359375,11.75 10.753125,12.2328125 C10.4765625,12.70625 10.08125,13.1015625 9.6078125,13.378125 C9.29375,13.5625 8.9515625,13.690625 8.59375,13.7578125 L8.59375,7.5625 C8.59375,7.49375 8.5375,7.4375 8.46875,7.4375 L7.53125,7.4375 C7.4625,7.4375 7.40625,7.49375 7.40625,7.5625 L7.40625,13.7578125 C7.0484375,13.690625 6.70625,13.5625 6.3921875,13.378125 C5.91875,13.1015625 5.5234375,12.70625 5.246875,12.2328125 C4.9640625,11.75 4.8125,11.2 4.8125,10.625 L4.8125,6.4375 L11.1875,6.4375 L11.1875,10.625 Z M4.75,4.375 L5.625,4.375 C5.69375,4.375 5.75,4.31875 5.75,4.25 C5.75,3.8078125 5.8421875,3.41875 6.0171875,3.1015625 C6.1828125,2.7984375 6.4234375,2.5578125 6.7265625,2.3921875 C7.0453125,2.21875 7.4328125,2.125 7.875,2.125 L8.125,2.125 C8.5671875,2.125 8.95625,2.2171875 9.2734375,2.3921875 C9.5765625,2.5578125 9.8171875,2.7984375 9.9828125,3.1015625 C10.15625,3.4203125 10.25,3.8078125 10.25,4.25 C10.25,4.31875 10.30625,4.375 10.375,4.375 L11.25,4.375 C11.31875,4.375 11.375,4.31875 11.375,4.25 C11.375,3.625 11.2375,3.0515625 10.9703125,2.5609375 C10.7015625,2.06875 10.30625,1.6734375 9.8140625,1.4046875 C9.3234375,1.1375 8.75,1 8.125,1 L7.875,1 C7.25,1 6.6765625,1.1375 6.1859375,1.4046875 C5.69375,1.6734375 5.2984375,2.06875 5.0296875,2.5609375 C4.7625,3.0515625 4.625,3.625 4.625,4.25 C4.625,4.31875 4.68125,4.375 4.75,4.375 Z" id="形状" fill="#000000"></path>
        </g>
    </g>
</svg>