<?xml version="1.0" encoding="UTF-8"?>
<svg width="16px" height="16px" viewBox="0 0 16 16" version="1.1" xmlns="http://www.w3.org/2000/svg" xmlns:xlink="http://www.w3.org/1999/xlink">
    <title>bulb</title>
    <g id="bulb" stroke="none" stroke-width="1" fill="none" fill-rule="evenodd">
        <g fill-rule="nonzero">
            <rect id="矩形" opacity="0" x="0" y="0" width="16" height="16"></rect>
            <path d="M9.875,13.875 L6.125,13.875 C6.05625,13.875 6,13.93125 6,14 L6,14.5 C6,14.7765625 6.2234375,15 6.5,15 L9.5,15 C9.7765625,15 10,14.7765625 10,14.5 L10,14 C10,13.93125 9.94375,13.875 9.875,13.875 Z M8,1 C5.1703125,1 2.875,3.2953125 2.875,6.125 C2.875,8.021875 3.90625,9.678125 5.4375,10.5640625 L5.4375,12.375 C5.4375,12.6515625 5.6609375,12.875 5.9375,12.875 L10.0625,12.875 C10.3390625,12.875 10.5625,12.6515625 10.5625,12.375 L10.5625,10.5640625 C12.09375,9.678125 13.125,8.021875 13.125,6.125 C13.125,3.2953125 10.8296875,1 8,1 Z M9.9984375,9.590625 L9.4375,9.915625 L9.4375,11.75 L6.5625,11.75 L6.5625,9.915625 L6.0015625,9.590625 C4.771875,8.8796875 4,7.5703125 4,6.125 C4,3.915625 5.790625,2.125 8,2.125 C10.209375,2.125 12,3.915625 12,6.125 C12,7.5703125 11.228125,8.8796875 9.9984375,9.590625 Z" id="形状" fill="#000000"></path>
        </g>
    </g>
</svg>