<?xml version="1.0" encoding="UTF-8"?>
<svg width="16px" height="16px" viewBox="0 0 16 16" version="1.1" xmlns="http://www.w3.org/2000/svg" xmlns:xlink="http://www.w3.org/1999/xlink">
    <title>compress</title>
    <g id="compress" stroke="none" stroke-width="1" fill="none" fill-rule="evenodd">
        <g fill-rule="nonzero">
            <rect id="矩形" opacity="0" x="0" y="0" width="16" height="16"></rect>
            <path d="M5.09375,10.375 L1.625,10.375 C1.4875,10.375 1.375,10.4875 1.375,10.625 L1.375,11.375 C1.375,11.5125 1.4875,11.625 1.625,11.625 L4.34375,11.625 L4.34375,14.375 C4.34375,14.5125 4.45625,14.625 4.59375,14.625 L5.34375,14.625 C5.48125,14.625 5.59375,14.5125 5.59375,14.375 L5.59375,10.875 C5.59375,10.5984375 5.3703125,10.375 5.09375,10.375 Z M5.34375,1.375 L4.59375,1.375 C4.45625,1.375 4.34375,1.4875 4.34375,1.625 L4.34375,4.375 L1.625,4.375 C1.4875,4.375 1.375,4.4875 1.375,4.625 L1.375,5.375 C1.375,5.5125 1.4875,5.625 1.625,5.625 L5.09375,5.625 C5.3703125,5.625 5.59375,5.4015625 5.59375,5.125 L5.59375,1.625 C5.59375,1.4875 5.48125,1.375 5.34375,1.375 Z M14.375,10.375 L10.90625,10.375 C10.6296875,10.375 10.40625,10.5984375 10.40625,10.875 L10.40625,14.375 C10.40625,14.5125 10.51875,14.625 10.65625,14.625 L11.40625,14.625 C11.54375,14.625 11.65625,14.5125 11.65625,14.375 L11.65625,11.625 L14.375,11.625 C14.5125,11.625 14.625,11.5125 14.625,11.375 L14.625,10.625 C14.625,10.4875 14.5125,10.375 14.375,10.375 Z M14.375,4.375 L11.65625,4.375 L11.65625,1.625 C11.65625,1.4875 11.54375,1.375 11.40625,1.375 L10.65625,1.375 C10.51875,1.375 10.40625,1.4875 10.40625,1.625 L10.40625,5.125 C10.40625,5.4015625 10.6296875,5.625 10.90625,5.625 L14.375,5.625 C14.5125,5.625 14.625,5.5125 14.625,5.375 L14.625,4.625 C14.625,4.4875 14.5125,4.375 14.375,4.375 Z" id="形状" fill="#000000"></path>
        </g>
    </g>
</svg>