<?xml version="1.0" encoding="UTF-8"?>
<svg width="16px" height="16px" viewBox="0 0 16 16" version="1.1" xmlns="http://www.w3.org/2000/svg" xmlns:xlink="http://www.w3.org/1999/xlink">
    <title>deployment-unit</title>
    <g id="deployment-unit" stroke="none" stroke-width="1" fill="none" fill-rule="evenodd">
        <g fill-rule="nonzero">
            <rect id="矩形" opacity="0" x="0" y="0" width="16" height="16"></rect>
            <path d="M13.8796875,10.83125 C13.215625,10.446875 12.40625,10.55 11.8609375,11.03125 L11.0328125,10.5515625 L11.0328125,8.18125 C11.0328125,7.9359375 10.9015625,7.7078125 10.6890625,7.5859375 L8.5640625,6.3625 L8.5640625,5.3140625 C9.2546875,5.0796875 9.7515625,4.4265625 9.7515625,3.65625 C9.7515625,2.6890625 8.96875,1.90625 8.0015625,1.90625 C7.034375,1.90625 6.2515625,2.6890625 6.2515625,3.65625 C6.2515625,4.4265625 6.7484375,5.0796875 7.4390625,5.3140625 L7.4390625,6.3625 L5.3140625,7.5859375 C5.1015625,7.7078125 4.9703125,7.9359375 4.9703125,8.18125 L4.9703125,10.55 L4.1421875,11.0296875 C3.596875,10.5484375 2.7859375,10.4453125 2.1234375,10.8296875 C1.2875,11.3140625 1.003125,12.3828125 1.4828125,13.21875 C1.9640625,14.0546875 3.028125,14.3421875 3.8609375,13.859375 C4.525,13.475 4.840625,12.71875 4.6984375,12.003125 L5.459375,11.5609375 L7.65625,12.8265625 C7.7625,12.8875 7.88125,12.91875 8,12.91875 C8.11875,12.91875 8.2375,12.8875 8.34375,12.8265625 L10.5390625,11.5625 L11.3,12.0046875 C11.1578125,12.71875 11.475,13.4765625 12.1375,13.8609375 C12.9703125,14.34375 14.0359375,14.0578125 14.515625,13.2203125 C14.996875,12.3828125 14.7125,11.3140625 13.8796875,10.83125 Z M3.3640625,12.99375 C3.0078125,13.2 2.55,13.078125 2.3453125,12.71875 C2.1390625,12.3609375 2.2609375,11.9015625 2.61875,11.6953125 C2.975,11.4890625 3.4328125,11.6109375 3.6375,11.9703125 C3.84375,12.328125 3.721875,12.7875 3.3640625,12.99375 Z M7.25,3.65625 C7.25,3.2421875 7.5859375,2.90625 8,2.90625 C8.4140625,2.90625 8.75,3.2421875 8.75,3.65625 C8.75,4.0703125 8.4140625,4.40625 8,4.40625 C7.5859375,4.40625 7.25,4.0703125 7.25,3.65625 Z M9.90625,10.628125 L8,11.7265625 L6.09375,10.628125 L6.09375,8.434375 L8,7.3359375 L9.90625,8.434375 L9.90625,10.628125 L9.90625,10.628125 Z M13.6546875,12.7203125 C13.4484375,13.078125 12.9921875,13.2015625 12.6359375,12.9953125 C12.2796875,12.7890625 12.15625,12.3296875 12.3625,11.971875 C12.56875,11.6140625 13.025,11.490625 13.38125,11.696875 C13.7390625,11.903125 13.8609375,12.3609375 13.6546875,12.7203125 Z" id="形状" fill="#000000"></path>
        </g>
    </g>
</svg>