<?xml version="1.0" encoding="UTF-8"?>
<svg width="16px" height="16px" viewBox="0 0 16 16" version="1.1" xmlns="http://www.w3.org/2000/svg" xmlns:xlink="http://www.w3.org/1999/xlink">
    <title>desktop</title>
    <g id="desktop" stroke="none" stroke-width="1" fill="none" fill-rule="evenodd">
        <g fill-rule="nonzero">
            <rect id="矩形" opacity="0" x="0" y="0" width="16" height="16"></rect>
            <path d="M14.5,2.1875 L1.5,2.1875 C1.2234375,2.1875 1,2.4109375 1,2.6875 L1,10.4375 C1,10.7140625 1.2234375,10.9375 1.5,10.9375 L7.4375,10.9375 L7.4375,12.6875 L4.75,12.6875 C4.6125,12.6875 4.5,12.8 4.5,12.9375 L4.5,13.6875 C4.5,13.75625 4.55625,13.8125 4.625,13.8125 L11.375,13.8125 C11.44375,13.8125 11.5,13.75625 11.5,13.6875 L11.5,12.9375 C11.5,12.8 11.3875,12.6875 11.25,12.6875 L8.5625,12.6875 L8.5625,10.9375 L14.5,10.9375 C14.7765625,10.9375 15,10.7140625 15,10.4375 L15,2.6875 C15,2.4109375 14.7765625,2.1875 14.5,2.1875 Z M13.875,9.8125 L2.125,9.8125 L2.125,3.3125 L13.875,3.3125 L13.875,9.8125 Z" id="形状" fill="#000000"></path>
        </g>
    </g>
</svg>