<?xml version="1.0" encoding="UTF-8"?>
<svg width="16px" height="16px" viewBox="0 0 16 16" version="1.1" xmlns="http://www.w3.org/2000/svg" xmlns:xlink="http://www.w3.org/1999/xlink">
    <title>down-square-fill</title>
    <g id="down-square-fill" stroke="none" stroke-width="1" fill="none" fill-rule="evenodd">
        <g fill-rule="nonzero">
            <rect id="矩形" opacity="0" x="0" y="0" width="16" height="16"></rect>
            <path d="M13.75,1.75 L2.25,1.75 C1.9734375,1.75 1.75,1.9734375 1.75,2.25 L1.75,13.75 C1.75,14.0265625 1.9734375,14.25 2.25,14.25 L13.75,14.25 C14.0265625,14.25 14.25,14.0265625 14.25,13.75 L14.25,2.25 C14.25,1.9734375 14.0265625,1.75 13.75,1.75 Z M10.8828125,6.4484375 L8.1015625,10.2921875 C8.0515625,10.3609375 7.95,10.3609375 7.9,10.2921875 L5.11875,6.4484375 C5.059375,6.365625 5.11875,6.25 5.2203125,6.25 L5.953125,6.25 C6.1125,6.25 6.2640625,6.3265625 6.3578125,6.45625 L8,8.728125 L9.64375,6.45625 C9.7375,6.3265625 9.8875,6.25 10.0484375,6.25 L10.78125,6.25 C10.8828125,6.25 10.9421875,6.365625 10.8828125,6.4484375 Z" id="形状" fill="#000000"></path>
        </g>
    </g>
</svg>