<?xml version="1.0" encoding="UTF-8"?>
<svg width="16px" height="16px" viewBox="0 0 16 16" version="1.1" xmlns="http://www.w3.org/2000/svg" xmlns:xlink="http://www.w3.org/1999/xlink">
    <title>error</title>
    <g id="error" stroke="none" stroke-width="1" fill="none" fill-rule="evenodd">
        <g fill-rule="nonzero">
            <rect id="矩形" opacity="0" x="0" y="0" width="16" height="16"></rect>
            <path d="M7.25,11.25 C7.25,11.6642136 7.58578644,12 8,12 C8.41421356,12 8.75,11.6642136 8.75,11.25 C8.75,10.8357864 8.41421356,10.5 8,10.5 C7.58578644,10.5 7.25,10.8357864 7.25,11.25 Z M7.5,6.5 L7.5,9.375 C7.5,9.44375 7.55625,9.5 7.625,9.5 L8.375,9.5 C8.44375,9.5 8.5,9.44375 8.5,9.375 L8.5,6.5 C8.5,6.43125 8.44375,6.375 8.375,6.375 L7.625,6.375 C7.55625,6.375 7.5,6.43125 7.5,6.5 Z M14.9328125,13.375 L8.4328125,2.125 C8.3359375,1.9578125 8.16875,1.875 8,1.875 C7.83125,1.875 7.6625,1.9578125 7.5671875,2.125 L1.0671875,13.375 C0.875,13.709375 1.115625,14.125 1.5,14.125 L14.5,14.125 C14.884375,14.125 15.125,13.709375 14.9328125,13.375 Z M2.690625,12.9390625 L8,3.7484375 L13.309375,12.9390625 L2.690625,12.9390625 Z" id="形状" fill="#000000"></path>
        </g>
    </g>
</svg>