<?xml version="1.0" encoding="UTF-8"?>
<svg width="16px" height="16px" viewBox="0 0 16 16" version="1.1" xmlns="http://www.w3.org/2000/svg" xmlns:xlink="http://www.w3.org/1999/xlink">
    <title>file-done</title>
    <g id="file-done" stroke="none" stroke-width="1" fill="none" fill-rule="evenodd">
        <g fill-rule="nonzero">
            <rect id="矩形" opacity="0" x="0" y="0" width="16" height="16"></rect>
            <path d="M10.75,4.875 L10.75,4.125 C10.75,4.05625 10.69375,4 10.625,4 L4.625,4 C4.55625,4 4.5,4.05625 4.5,4.125 L4.5,4.875 C4.5,4.94375 4.55625,5 4.625,5 L10.625,5 C10.69375,5 10.75,4.94375 10.75,4.875 Z M4.625,6.25 C4.55625,6.25 4.5,6.30625 4.5,6.375 L4.5,7.125 C4.5,7.19375 4.55625,7.25 4.625,7.25 L7.5,7.25 C7.56875,7.25 7.625,7.19375 7.625,7.125 L7.625,6.375 C7.625,6.30625 7.56875,6.25 7.5,6.25 L4.625,6.25 Z M10.5,8.0625 C8.6359375,8.0625 7.125,9.5734375 7.125,11.4375 C7.125,13.3015625 8.6359375,14.8125 10.5,14.8125 C12.3640625,14.8125 13.875,13.3015625 13.875,11.4375 C13.875,9.5734375 12.3640625,8.0625 10.5,8.0625 Z M12.1796875,13.1171875 C11.73125,13.565625 11.134375,13.8125 10.5,13.8125 C9.865625,13.8125 9.26875,13.565625 8.8203125,13.1171875 C8.371875,12.66875 8.125,12.071875 8.125,11.4375 C8.125,10.803125 8.371875,10.20625 8.8203125,9.7578125 C9.26875,9.309375 9.865625,9.0625 10.5,9.0625 C11.134375,9.0625 11.73125,9.309375 12.1796875,9.7578125 C12.628125,10.20625 12.875,10.803125 12.875,11.4375 C12.875,12.071875 12.628125,12.66875 12.1796875,13.1171875 Z M11.890625,10.25 L11.1984375,10.25 C11.1578125,10.25 11.1203125,10.26875 11.096875,10.3015625 L10.1046875,11.6734375 L9.74375,11.175 C9.7203125,11.1421875 9.6828125,11.1234375 9.6421875,11.1234375 L8.953125,11.1234375 C8.8515625,11.1234375 8.7921875,11.2390625 8.8515625,11.321875 L10.0046875,12.9171875 C10.0546875,12.9859375 10.15625,12.9859375 10.20625,12.9171875 L11.990625,10.4484375 C12.0515625,10.365625 11.9921875,10.25 11.890625,10.25 Z M6.875,13.3125 L3.25,13.3125 L3.25,2.3125 L12,2.3125 L12,7.6875 C12,7.75625 12.05625,7.8125 12.125,7.8125 L13,7.8125 C13.06875,7.8125 13.125,7.75625 13.125,7.6875 L13.125,1.6875 C13.125,1.4109375 12.9015625,1.1875 12.625,1.1875 L2.625,1.1875 C2.3484375,1.1875 2.125,1.4109375 2.125,1.6875 L2.125,13.9375 C2.125,14.2140625 2.3484375,14.4375 2.625,14.4375 L6.875,14.4375 C6.94375,14.4375 7,14.38125 7,14.3125 L7,13.4375 C7,13.36875 6.94375,13.3125 6.875,13.3125 Z" id="形状" fill="#000000"></path>
        </g>
    </g>
</svg>