<?xml version="1.0" encoding="UTF-8"?>
<svg width="16px" height="16px" viewBox="0 0 16 16" version="1.1" xmlns="http://www.w3.org/2000/svg" xmlns:xlink="http://www.w3.org/1999/xlink">
    <title>file-excel-fill</title>
    <g id="file-excel-fill" stroke="none" stroke-width="1" fill="none" fill-rule="evenodd">
        <g fill-rule="nonzero">
            <rect id="矩形" opacity="0" x="0" y="0" width="16" height="16"></rect>
            <path d="M13.353125,4.5109375 C13.446875,4.6046875 13.5,4.73125 13.5,4.8640625 L13.5,14.5 C13.5,14.7765625 13.2765625,15 13,15 L3,15 C2.7234375,15 2.5,14.7765625 2.5,14.5 L2.5,1.5 C2.5,1.2234375 2.7234375,1 3,1 L9.6359375,1 C9.76875,1 9.896875,1.053125 9.990625,1.146875 L13.353125,4.5109375 Z M12.346875,5.09375 L9.40625,2.153125 L9.40625,5.09375 L12.346875,5.09375 Z M8.98970313,7.46623437 L8.03320312,9.06478125 L7.06696875,7.46554687 C7.0330206,7.40935204 6.97215315,7.375 6.9065,7.375 L6.30592187,7.375 C6.27049191,7.375 6.23578711,7.38503907 6.20582812,7.40395312 C6.11826562,7.45923437 6.09209375,7.57503125 6.147375,7.66259375 L7.43382812,9.7004375 L6.1299375,11.7752344 C6.11115436,11.8051204 6.1011875,11.8397015 6.1011875,11.875 C6.1011875,11.9785469 6.18514062,12.0625 6.2886875,12.0625 L6.82721875,12.0625 C6.89220551,12.0625 6.95255738,12.0288461 6.98671875,11.9735625 L7.96651562,10.3880312 L8.93979687,11.9731094 C8.97390653,12.0286613 9.03442131,12.0625 9.09960938,12.0625 L9.68532812,12.0625 C9.72125003,12.0625 9.75641534,12.0521774 9.78664063,12.0327656 C9.87378125,11.9768281 9.8990625,11.8608281 9.84310938,11.7737031 L8.53325,9.73384375 L9.866,7.664 C9.88548476,7.63373283 9.89584375,7.59849663 9.89584375,7.5625 C9.89584375,7.45895312 9.81190625,7.375 9.70834375,7.375 L9.15060938,7.375 C9.08466726,7.375 9.02357453,7.40964684 8.98971875,7.46623437 L8.98970313,7.46623437 Z" id="形状" fill="#000000"></path>
        </g>
    </g>
</svg>