<?xml version="1.0" encoding="UTF-8"?>
<svg width="16px" height="16px" viewBox="0 0 16 16" version="1.1" xmlns="http://www.w3.org/2000/svg" xmlns:xlink="http://www.w3.org/1999/xlink">
    <title>id-card-fill</title>
    <g id="id-card-fill" stroke="none" stroke-width="1" fill="none" fill-rule="evenodd">
        <g fill-rule="nonzero">
            <rect id="矩形" opacity="0" x="0" y="0" width="16" height="16"></rect>
            <path d="M5.828125,6.421875 C5.3828125,6.421875 5.0203125,6.7859375 5.0203125,7.234375 C5.0203125,7.6828125 5.3828125,8.046875 5.828125,8.046875 C6.2734375,8.046875 6.6359375,7.6828125 6.6359375,7.234375 C6.6359375,6.7859375 6.2734375,6.421875 5.828125,6.421875 Z M14.5,2.5 L1.5,2.5 C1.2234375,2.5 1,2.7234375 1,3 L1,13 C1,13.2765625 1.2234375,13.5 1.5,13.5 L14.5,13.5 C14.7765625,13.5 15,13.2765625 15,13 L15,3 C15,2.7234375 14.7765625,2.5 14.5,2.5 Z M9.5,6.5625 C9.5,6.49375 9.515625,6.4375 9.5359375,6.4375 L11.4640625,6.4375 C11.484375,6.4375 11.5,6.49375 11.5,6.5625 L11.5,7.3125 C11.5,7.38125 11.484375,7.4375 11.4640625,7.4375 L9.5359375,7.4375 C9.515625,7.4375 9.5,7.38125 9.5,7.3125 L9.5,6.5625 Z M8.15625,10.515625 L7.4703125,10.515625 C7.4046875,10.515625 7.3515625,10.4640625 7.346875,10.3984375 C7.2875,9.609375 6.628125,8.984375 5.828125,8.984375 C5.028125,8.984375 4.36875,9.609375 4.309375,10.3984375 C4.3046875,10.4640625 4.2515625,10.515625 4.1859375,10.515625 L3.5,10.515625 C3.428125,10.515625 3.371875,10.45625 3.375,10.384375 C3.41875,9.5515625 3.875,8.8265625 4.540625,8.4140625 C4.2578125,8.103125 4.0859375,7.6890625 4.0859375,7.234375 C4.0859375,6.2671875 4.865625,5.484375 5.8265625,5.484375 C6.7875,5.484375 7.5671875,6.2671875 7.5671875,7.234375 C7.5671875,7.6890625 7.3953125,8.1015625 7.1125,8.4140625 C7.7796875,8.828125 8.234375,9.5515625 8.278125,10.384375 C8.284375,10.45625 8.228125,10.515625 8.15625,10.515625 Z M12.5140625,9.6875 L9.6109375,9.6875 C9.55,9.6875 9.5,9.63125 9.5,9.5625 L9.5,8.8125 C9.5,8.74375 9.55,8.6875 9.6109375,8.6875 L12.5125,8.6875 C12.5734375,8.6875 12.6234375,8.74375 12.6234375,8.8125 L12.6234375,9.5625 L12.625,9.5625 C12.625,9.63125 12.575,9.6875 12.5140625,9.6875 Z" id="形状" fill="#000000"></path>
        </g>
    </g>
</svg>