<?xml version="1.0" encoding="UTF-8"?>
<svg width="16px" height="16px" viewBox="0 0 16 16" version="1.1" xmlns="http://www.w3.org/2000/svg" xmlns:xlink="http://www.w3.org/1999/xlink">
    <title>image-fill</title>
    <g id="image-fill" stroke="none" stroke-width="1" fill="none" fill-rule="evenodd">
        <g fill-rule="nonzero">
            <rect id="矩形" opacity="0" x="0" y="0" width="16" height="16"></rect>
            <path d="M14.5,2.5 L1.5,2.5 C1.2234375,2.5 1,2.7234375 1,3 L1,13 C1,13.2765625 1.2234375,13.5 1.5,13.5 L14.5,13.5 C14.7765625,13.5 15,13.2765625 15,13 L15,3 C15,2.7234375 14.7765625,2.5 14.5,2.5 Z M5.28125,4.75 C5.8328125,4.75 6.28125,5.1984375 6.28125,5.75 C6.28125,6.3015625 5.8328125,6.75 5.28125,6.75 C4.7296875,6.75 4.28125,6.3015625 4.28125,5.75 C4.28125,5.1984375 4.7296875,4.75 5.28125,4.75 Z M13.3109375,11.5796875 C13.2890625,11.5984375 13.259375,11.609375 13.2296875,11.609375 L2.76875,11.609375 C2.7,11.609375 2.64375,11.553125 2.64375,11.484375 C2.64375,11.4546875 2.6546875,11.4265625 2.6734375,11.403125 L5.334375,8.246875 C5.378125,8.19375 5.4578125,8.1875 5.5109375,8.23125 C5.515625,8.2359375 5.521875,8.240625 5.5265625,8.246875 L7.0796875,10.090625 L9.55,7.1609375 C9.59375,7.1078125 9.6734375,7.1015625 9.7265625,7.1453125 C9.73125,7.15 9.7375,7.1546875 9.7421875,7.1609375 L13.3296875,11.4046875 C13.3703125,11.45625 13.3640625,11.5359375 13.3109375,11.5796875 Z" id="形状" fill="#000000"></path>
        </g>
    </g>
</svg>