<?xml version="1.0" encoding="UTF-8"?>
<svg width="16px" height="16px" viewBox="0 0 16 16" version="1.1" xmlns="http://www.w3.org/2000/svg" xmlns:xlink="http://www.w3.org/1999/xlink">
    <title>inconsistent-fill</title>
    <g id="inconsistent-fill" stroke="none" stroke-width="1" fill="none" fill-rule="evenodd">
        <g>
            <rect id="矩形" opacity="0" fill-rule="nonzero" x="0" y="0" width="16" height="16"></rect>
            <path d="M8,1 C11.865625,1 15,4.134375 15,8 C15,11.865625 11.865625,15 8,15 C4.134375,15 1,11.865625 1,8 C1,4.134375 4.134375,1 8,1 Z M9.99645567,3.84434709 L9.95540234,3.84846652 L9.24755982,4.03813235 C9.09210613,4.07978604 8.96743749,4.19407186 8.91044754,4.34360465 L8.91044754,4.34360465 L8.2920729,5.9680736 L5.1720729,5.96875 L5.1326729,5.97515 C5.0830729,5.99175 5.0470729,6.03875 5.0470729,6.09375 L5.0470729,6.09375 L5.0470729,6.84375 L5.0534729,6.88315 C5.0700729,6.93275 5.1170729,6.96875 5.1720729,6.96875 L5.1720729,6.96875 L7.9060729,6.9680736 L7.1470729,8.9680736 L5.1720729,8.96875 L5.1326729,8.97515 C5.0830729,8.99175 5.0470729,9.03875 5.0470729,9.09375 L5.0470729,9.09375 L5.0470729,9.84375 L5.0534729,9.88315 C5.0700729,9.93275 5.1170729,9.96875 5.1720729,9.96875 L5.1720729,9.96875 L6.7670729,9.9680736 L5.98928221,12.0176283 C5.95336382,12.1129864 6.04064161,12.2093042 6.13874346,12.1830179 L6.13874346,12.1830179 L6.84658598,11.993352 C7.00203966,11.9516983 7.1267083,11.8374125 7.18369825,11.6878797 L7.18369825,11.6878797 L7.8350729,9.9680736 L10.9220729,9.96875 L10.9614729,9.96235 C11.0110729,9.94575 11.0470729,9.89875 11.0470729,9.84375 L11.0470729,9.84375 L11.0470729,9.09375 L11.0406729,9.05435 C11.0240729,9.00475 10.9770729,8.96875 10.9220729,8.96875 L10.9220729,8.96875 L8.22307873,8.96759027 C8.50675699,8.22081697 8.75999701,7.55417129 8.98279879,6.96765324 L8.98279879,6.96765324 L10.9220729,6.96875 L10.9614729,6.96235 C11.0110729,6.94575 11.0470729,6.89875 11.0470729,6.84375 L11.0470729,6.84375 L11.0470729,6.09375 L11.0406729,6.05435 C11.0240729,6.00475 10.9770729,5.96875 10.9220729,5.96875 L10.9220729,5.96875 L9.36227936,5.96868365 C9.48117517,5.6556945 9.58750422,5.37578691 9.68126652,5.12896086 C9.7753992,4.88115981 9.91659822,4.50945823 10.1048636,4.01385612 C10.140782,3.91849801 10.0535042,3.82218021 9.95540234,3.84846652 Z" id="形状" fill="#000000"></path>
        </g>
    </g>
</svg>