<?xml version="1.0" encoding="UTF-8"?>
<svg width="16px" height="16px" viewBox="0 0 16 16" version="1.1" xmlns="http://www.w3.org/2000/svg" xmlns:xlink="http://www.w3.org/1999/xlink">
    <title>left-square-fill</title>
    <g id="left-square-fill" stroke="none" stroke-width="1" fill="none" fill-rule="evenodd">
        <g fill-rule="nonzero">
            <rect id="矩形" opacity="0" x="0" y="0" width="16" height="16"></rect>
            <path d="M13.75,1.75 L2.25,1.75 C1.9734375,1.75 1.75,1.9734375 1.75,2.25 L1.75,13.75 C1.75,14.0265625 1.9734375,14.25 2.25,14.25 L13.75,14.25 C14.0265625,14.25 14.25,14.0265625 14.25,13.75 L14.25,2.25 C14.25,1.9734375 14.0265625,1.75 13.75,1.75 Z M9.75,5.9515625 C9.75,6.1109375 9.6734375,6.2625 9.54375,6.35625 L7.271875,8 L9.54375,9.64375 C9.6734375,9.7375 9.75,9.8875 9.75,10.0484375 L9.75,10.78125 C9.75,10.8828125 9.634375,10.9421875 9.5515625,10.8828125 L5.7078125,8.1015625 C5.6390625,8.0515625 5.6390625,7.95 5.7078125,7.9 L9.5515625,5.11875 C9.634375,5.059375 9.75,5.11875 9.75,5.2203125 L9.75,5.9515625 Z" id="形状" fill="#000000"></path>
        </g>
    </g>
</svg>