<?xml version="1.0" standalone="no"?><!DOCTYPE svg PUBLIC "-//W3C//DTD SVG 1.1//EN" "http://www.w3.org/Graphics/SVG/1.1/DTD/svg11.dtd"><svg class="icon" width="200px" height="200.00px" viewBox="0 0 1024 1024" version="1.1" xmlns="http://www.w3.org/2000/svg"><path fill="#000000" d="M774.4 500.096l163.072 94.08a44.8 44.8 0 0 1 22.4 38.848v188.288a44.8 44.8 0 0 1-22.4 38.784l-163.072 94.08a44.8 44.8 0 0 1-44.8 0l-163.072-94.08a44.8 44.8 0 0 1-22.4-38.784V632.96a44.8 44.8 0 0 1 22.4-38.784L729.6 500.096a44.8 44.8 0 0 1 44.8 0z m-480-0.128l163.072 94.08a44.8 44.8 0 0 1 22.4 38.848v188.288a44.8 44.8 0 0 1-22.4 38.784L294.4 954.048a44.8 44.8 0 0 1-44.8 0l-163.072-94.08a44.8 44.8 0 0 1-22.4-38.784V632.896a44.8 44.8 0 0 1 22.4-38.784L249.6 500.032a44.8 44.8 0 0 1 44.8 0z m457.6 72.128l-134.272 77.44v155.136l134.272 77.44 134.208-77.44V649.6L752 572.096z m-480-0.128l-134.272 77.504v155.072l134.272 77.504 134.208-77.504v-155.072L272 571.968z m262.784-501.952l163.072 94.08a44.8 44.8 0 0 1 22.4 38.848v188.288a44.8 44.8 0 0 1-22.4 38.784l-163.072 94.08a44.8 44.8 0 0 1-44.8 0L326.912 430.08a44.8 44.8 0 0 1-22.4-38.784V202.88a44.8 44.8 0 0 1 22.4-38.784l163.072-94.144a44.8 44.8 0 0 1 44.8 0z m-22.4 72l-134.272 77.44v155.136l134.272 77.44 134.208-77.44V219.52L512.384 142.016z" /></svg>