<?xml version="1.0" encoding="UTF-8"?>
<svg width="16px" height="16px" viewBox="0 0 16 16" version="1.1" xmlns="http://www.w3.org/2000/svg" xmlns:xlink="http://www.w3.org/1999/xlink">
    <title>power-off</title>
    <g id="power-off" stroke="none" stroke-width="1" fill="none" fill-rule="evenodd">
        <g fill-rule="nonzero">
            <rect id="矩形" opacity="0" x="0" y="0" width="16" height="16"></rect>
            <path d="M11.025,1.9515625 C10.9421875,1.909375 10.84375,1.9703125 10.84375,2.0640625 L10.84375,3.0671875 C10.84375,3.153125 10.8890625,3.2328125 10.9609375,3.2796875 C11.3109375,3.5 11.6359375,3.759375 11.9328125,4.0578125 C12.44375,4.5703125 12.8453125,5.165625 13.125,5.828125 C13.4140625,6.5140625 13.5609375,7.2421875 13.5609375,7.9953125 C13.5609375,8.746875 13.4140625,9.4765625 13.125,10.1625 C12.8453125,10.825 12.44375,11.4203125 11.9328125,11.9328125 C11.421875,12.4453125 10.8265625,12.846875 10.1640625,13.1265625 C9.4796875,13.4171875 8.75,13.5640625 8,13.5640625 C7.25,13.5640625 6.5203125,13.4171875 5.8359375,13.1265625 C5.1734375,12.846875 4.578125,12.4453125 4.0671875,11.9328125 C3.55625,11.4203125 3.1546875,10.825 2.875,10.1625 C2.5859375,9.4765625 2.4390625,8.7484375 2.4390625,7.9953125 C2.4390625,7.24375 2.5859375,6.5140625 2.875,5.828125 C3.1546875,5.165625 3.55625,4.5703125 4.0671875,4.0578125 C4.3640625,3.7609375 4.6890625,3.5015625 5.0390625,3.2796875 C5.1125,3.234375 5.15625,3.153125 5.15625,3.0671875 L5.15625,2.0625 C5.15625,1.96875 5.0578125,1.909375 4.975,1.95 C2.7890625,3.05 1.28125,5.3015625 1.25,7.9109375 C1.20625,11.6421875 4.2578125,14.7421875 7.9875,14.7500151 C11.721875,14.7578125 14.75,11.7296875 14.75,7.99375 C14.75,5.35 13.234375,3.0609375 11.025,1.9515625 Z M7.5,8.75 L8.5,8.75 C8.56875,8.75 8.625,8.69375 8.625,8.625 L8.625,1.375 C8.625,1.30625 8.56875,1.25 8.5,1.25 L7.5,1.25 C7.43125,1.25 7.375,1.30625 7.375,1.375 L7.375,8.625 C7.375,8.69375 7.43125,8.75 7.5,8.75 Z" id="形状" fill="#000000"></path>
        </g>
    </g>
</svg>