<?xml version="1.0" encoding="UTF-8"?>
<svg width="16px" height="16px" viewBox="0 0 16 16" version="1.1" xmlns="http://www.w3.org/2000/svg" xmlns:xlink="http://www.w3.org/1999/xlink">
    <title>pushpin-fill</title>
    <g id="pushpin-fill" stroke="none" stroke-width="1" fill="none" fill-rule="evenodd">
        <g fill-rule="nonzero">
            <rect id="矩形" opacity="0" x="0" y="0" width="16" height="16"></rect>
            <path d="M13.7234375,6.1265625 L9.8734375,2.2765625 C9.771875,2.175 9.6390625,2.125 9.50625,2.125 C9.3734375,2.125 9.240625,2.175 9.1390625,2.2765625 L6.621875,4.7953125 C6.43125,4.7734375 6.2390625,4.7640625 6.046875,4.7640625 C4.903125,4.7640625 3.759375,5.140625 2.8203125,5.89375 C2.5796875,6.0859375 2.5609375,6.446875 2.778125,6.665625 L5.6171875,9.5046875 L2.2515625,12.8671875 C2.2109375,12.9078125 2.184375,12.9625 2.1796875,13.0203125 L2.1265625,13.6015625 C2.1125,13.7484375 2.2296875,13.8734375 2.375,13.8734375 C2.3828125,13.8734375 2.390625,13.8734375 2.3984375,13.871875 L2.9796875,13.81875 C3.0375,13.8140625 3.0921875,13.7875 3.1328125,13.746875 L6.4984375,10.38125 L9.3375,13.2203125 C9.4390625,13.321875 9.571875,13.371875 9.7046875,13.371875 C9.85625,13.371875 10.00625,13.30625 10.109375,13.178125 C10.9890625,12.0796875 11.3546875,10.7046875 11.20625,9.375 L13.7234375,6.8578125 C13.925,6.6578125 13.925,6.3296875 13.7234375,6.1265625 Z" id="路径" fill="#000000"></path>
        </g>
    </g>
</svg>