<?xml version="1.0" encoding="UTF-8"?>
<svg width="16px" height="16px" viewBox="0 0 16 16" version="1.1" xmlns="http://www.w3.org/2000/svg" xmlns:xlink="http://www.w3.org/1999/xlink">
    <title>question</title>
    <g id="question" stroke="none" stroke-width="1" fill="none" fill-rule="evenodd">
        <g fill-rule="nonzero">
            <rect id="矩形" opacity="0" x="0" y="0" width="16" height="16"></rect>
            <path d="M11.9375,4.3890625 C11.71875,3.9109375 11.4078125,3.48125 11.0109375,3.1140625 C10.2046875,2.365625 9.134375,1.953125 8,1.953125 C6.865625,1.953125 5.7953125,2.365625 4.9890625,3.1125 C4.5921875,3.48125 4.28125,3.909375 4.0625,4.3890625 C3.834375,4.8890625 3.71875,5.41875 3.71875,5.965625 L3.71875,6.3875 C3.71875,6.484375 3.796875,6.5625 3.89375,6.5625 L4.7375,6.5625 C4.834375,6.5625 4.9125,6.484375 4.9125,6.3875 L4.9125,5.965625 C4.9125,4.4109375 6.296875,3.146875 8,3.146875 C9.703125,3.146875 11.0875,4.4109375 11.0875,5.965625 C11.0875,6.603125 10.8609375,7.203125 10.43125,7.703125 C10.00625,8.1984375 9.40625,8.553125 8.7421875,8.703125 C8.3625,8.7890625 8.0203125,9.003125 7.778125,9.309375 C7.5375,9.6125 7.4046875,9.99375 7.4046875,10.38125 L7.4046875,10.871875 C7.4046875,10.96875 7.4828125,11.046875 7.5796875,11.046875 L8.4234375,11.046875 C8.5203125,11.046875 8.5984375,10.96875 8.5984375,10.871875 L8.5984375,10.38125 C8.5984375,10.1359375 8.76875,9.9203125 9.0046875,9.8671875 C9.9171875,9.6609375 10.7453125,9.16875 11.3375,8.48125 C11.6359375,8.1328125 11.86875,7.7453125 12.0296875,7.325 C12.196875,6.8890625 12.28125,6.43125 12.28125,5.965625 C12.28125,5.41875 12.165625,4.8875 11.9375,4.3890625 L11.9375,4.3890625 Z M8,12.296875 C7.5171875,12.296875 7.125,12.6890625 7.125,13.171875 C7.125,13.6546875 7.5171875,14.046875 8,14.046875 C8.4828125,14.046875 8.875,13.6546875 8.875,13.171875 C8.875,12.6890625 8.4828125,12.296875 8,12.296875 Z" id="形状" fill="#000000"></path>
        </g>
    </g>
</svg>