<?xml version="1.0" encoding="UTF-8"?>
<svg width="16px" height="16px" viewBox="0 0 16 16" version="1.1" xmlns="http://www.w3.org/2000/svg" xmlns:xlink="http://www.w3.org/1999/xlink">
    <title>retweet</title>
    <g id="retweet" stroke="none" stroke-width="1" fill="none" fill-rule="evenodd">
        <g fill-rule="nonzero">
            <rect id="矩形" opacity="0" x="0" y="0" width="16" height="16"></rect>
            <path d="M2.125,8.625 L3.11875,8.625 C3.1875,8.625 3.24375,8.56875 3.24375,8.5 L3.24375,4.5109375 L11.503125,4.5109375 L11.503125,5.6453125 C11.503125,5.675 11.5125,5.703125 11.53125,5.7265625 C11.5765625,5.7828125 11.6578125,5.79375 11.7140625,5.7484375 L13.953125,3.990625 C14.0203125,3.9125 14.009375,3.8296875 13.953125,3.784375 L11.7140625,2.028125 C11.690625,2.009375 11.6625,2 11.6328125,2 C11.5609375,2 11.5015625,2.059375 11.5015625,2.13125 L11.5015625,3.265625 L3.1203125,3.265625 C2.503125,3.265625 2,3.76875 2,4.3875 L2,8.5 C2,8.56875 2.05625,8.625 2.125,8.625 Z M13.875,7.375 L12.88125,7.375 C12.8125,7.375 12.75625,7.43125 12.75625,7.5 L12.75625,11.4890625 L4.496875,11.4890625 L4.496875,10.3546875 C4.496875,10.325 4.4875,10.296875 4.46875,10.2734375 C4.4234375,10.2171875 4.3421875,10.20625 4.2859375,10.2515625 L2.046875,12.009375 C1.9796875,12.0875 1.990625,12.1703125 2.046875,12.215625 L4.2859375,13.971875 C4.309375,13.990625 4.3375,14 4.3671875,14 C4.4390625,14 4.4984375,13.940625 4.4984375,13.86875 L4.4984375,12.734375 L12.8828125,12.734375 C13.5,12.734375 14.003125,12.23125 14.003125,11.6125 L14.003125,7.5 C14,7.43125 13.94375,7.375 13.875,7.375 Z" id="形状" fill="#000000"></path>
        </g>
    </g>
</svg>