<?xml version="1.0" encoding="UTF-8"?>
<svg width="16px" height="16px" viewBox="0 0 16 16" version="1.1" xmlns="http://www.w3.org/2000/svg" xmlns:xlink="http://www.w3.org/1999/xlink">
    <title>sever</title>
    <g id="sever" stroke="none" stroke-width="1" fill="none" fill-rule="evenodd">
        <g fill-rule="nonzero">
            <rect id="矩形" opacity="0" x="0" y="0" width="16" height="16"></rect>
            <path d="M13,1 L3,1 C2.7234375,1 2.5,1.2234375 2.5,1.5 L2.5,14.5 C2.5,14.7765625 2.7234375,15 3,15 L13,15 C13.2765625,15 13.5,14.7765625 13.5,14.5 L13.5,1.5 C13.5,1.2234375 13.2765625,1 13,1 Z M3.625,2.125 L12.375,2.125 L12.375,5.375 L3.625,5.375 L3.625,2.125 Z M12.375,9.625 L3.625,9.625 L3.625,6.375 L12.375,6.375 L12.375,9.625 Z M12.375,13.875 L3.625,13.875 L3.625,10.625 L12.375,10.625 L12.375,13.875 Z M7.75,3.25 L4.875,3.25 C4.80625,3.25 4.75,3.30625 4.75,3.375 L4.75,4.125 C4.75,4.19375 4.80625,4.25 4.875,4.25 L7.75,4.25 C7.81875,4.25 7.875,4.19375 7.875,4.125 L7.875,3.375 C7.875,3.30625 7.81875,3.25 7.75,3.25 Z M4.875,8.5 L7.75,8.5 C7.81875,8.5 7.875,8.44375 7.875,8.375 L7.875,7.625 C7.875,7.55625 7.81875,7.5 7.75,7.5 L4.875,7.5 C4.80625,7.5 4.75,7.55625 4.75,7.625 L4.75,8.375 C4.75,8.44375 4.80625,8.5 4.875,8.5 Z M10,12.3125 C10,12.657678 10.279822,12.9375 10.625,12.9375 C10.970178,12.9375 11.25,12.657678 11.25,12.3125 C11.25,11.967322 10.970178,11.6875 10.625,11.6875 C10.279822,11.6875 10,11.967322 10,12.3125 L10,12.3125 Z" id="形状" fill="#000000"></path>
        </g>
    </g>
</svg>