<?xml version="1.0" encoding="UTF-8"?>
<svg width="16px" height="16px" viewBox="0 0 16 16" version="1.1" xmlns="http://www.w3.org/2000/svg" xmlns:xlink="http://www.w3.org/1999/xlink">
    <title>step-forward</title>
    <g id="step-forward" stroke="none" stroke-width="1" fill="none" fill-rule="evenodd">
        <g fill-rule="nonzero">
            <rect id="矩形" opacity="0" x="0" y="0" width="16" height="16"></rect>
            <path d="M10.5688906,8.26484375 L4.58123438,12.9683437 C4.35859375,13.1432187 4.03125,12.9855937 4.03125,12.7035 L4.03125,3.29646875 C4.03125,3.0144375 4.35859375,2.85678125 4.58123438,3.03165625 L10.5688906,7.73514062 C10.7409219,7.87029687 10.7409219,8.12970312 10.5688906,8.26484375 M10.84375,13.5 L11.84375,13.5 C11.9127856,13.5 11.96875,13.4440356 11.96875,13.375 L11.96875,2.625 C11.96875,2.55596441 11.9127856,2.5 11.84375,2.5 L10.84375,2.5 C10.7747144,2.5 10.71875,2.55596441 10.71875,2.625 L10.71875,13.375 C10.71875,13.4440356 10.7747144,13.5 10.84375,13.5" id="形状" fill="#000000"></path>
        </g>
    </g>
</svg>