<?xml version="1.0" standalone="no"?><!DOCTYPE svg PUBLIC "-//W3C//DTD SVG 1.1//EN" "http://www.w3.org/Graphics/SVG/1.1/DTD/svg11.dtd"><svg class="icon" width="200px" height="200.00px" viewBox="0 0 1024 1024" version="1.1" xmlns="http://www.w3.org/2000/svg"><path fill="#000000" d="M512 82.176a106.944 106.944 0 0 1 101.632 140.416l190.72 157.952a106.944 106.944 0 1 1 56.256 202.688l-4.736 0.192-65.344 179.84a106.944 106.944 0 1 1-179.904 108.48l-198.08 2.304a107.008 107.008 0 1 1-171.264-118.592l-62.528-172.16-6.144 0.32a106.944 106.944 0 0 1-106.56-97.728l-0.384-9.216a106.944 106.944 0 0 1 160.064-92.864l186.88-154.944A106.944 106.944 0 0 1 512 82.176z m-199.04 719.36a33.344 33.344 0 1 0 0 66.688 33.344 33.344 0 0 0 0-66.688z m398.08 0a33.344 33.344 0 1 0 0 66.688 33.344 33.344 0 0 0 0-66.688zM567.872 280.32a106.432 106.432 0 0 1-105.92 3.328l-188.8 156.416a106.752 106.752 0 0 1-26.688 113.92l63.296 174.016 3.2-0.064c47.04 0 86.912 30.336 101.312 72.512l196.288-2.368a107.008 107.008 0 0 1 114.176-69.312l60.928-167.68a106.752 106.752 0 0 1-32.384-127.104l-185.408-153.6zM172.608 443.264a33.344 33.344 0 1 0 0 66.752 33.344 33.344 0 0 0 0-66.752z m678.784 0a33.216 33.216 0 0 0-16.896 4.608l-14.528 17.536a33.28 33.28 0 1 0 31.36-22.144zM512 155.776a33.344 33.344 0 1 0 0 66.688 33.344 33.344 0 0 0 0-66.688z" /></svg>