<?xml version="1.0" encoding="UTF-8"?>
<svg width="16px" height="16px" viewBox="0 0 16 16" version="1.1" xmlns="http://www.w3.org/2000/svg" xmlns:xlink="http://www.w3.org/1999/xlink">
    <title>up-square</title>
    <g id="up-square" stroke="none" stroke-width="1" fill="none" fill-rule="evenodd">
        <g fill-rule="nonzero">
            <rect id="矩形" opacity="0" x="0" y="0" width="16" height="16"></rect>
            <path d="M5.21875,9.75 L5.9515625,9.75 C6.1109375,9.75 6.2625,9.6734375 6.35625,9.54375 L8,7.271875 L9.64375,9.54375 C9.7375,9.6734375 9.8875,9.75 10.0484375,9.75 L10.78125,9.75 C10.8828125,9.75 10.9421875,9.634375 10.8828125,9.5515625 L8.1015625,5.7078125 C8.0515625,5.6390625 7.95,5.6390625 7.9,5.7078125 L5.11875,9.5515625 C5.0578125,9.634375 5.1171875,9.75 5.21875,9.75 Z" id="路径" fill="#000000"></path>
            <path d="M13.75,1.75 L2.25,1.75 C1.9734375,1.75 1.75,1.9734375 1.75,2.25 L1.75,13.75 C1.75,14.0265625 1.9734375,14.25 2.25,14.25 L13.75,14.25 C14.0265625,14.25 14.25,14.0265625 14.25,13.75 L14.25,2.25 C14.25,1.9734375 14.0265625,1.75 13.75,1.75 Z M13.125,13.125 L2.875,13.125 L2.875,2.875 L13.125,2.875 L13.125,13.125 Z" id="形状" fill="#000000"></path>
        </g>
    </g>
</svg>