<?xml version="1.0" encoding="UTF-8"?>
<svg width="16px" height="16px" viewBox="0 0 16 16" version="1.1" xmlns="http://www.w3.org/2000/svg" xmlns:xlink="http://www.w3.org/1999/xlink">
    <title>usb-fill</title>
    <g id="usb-fill" stroke="none" stroke-width="1" fill="none" fill-rule="evenodd">
        <g fill-rule="nonzero">
            <rect id="矩形" opacity="0" x="0" y="0" width="16" height="16"></rect>
            <path d="M6.375,4.875 L7.125,4.875 C7.19375,4.875 7.25,4.81875 7.25,4.75 L7.25,4 C7.25,3.93125 7.19375,3.875 7.125,3.875 L6.375,3.875 C6.30625,3.875 6.25,3.93125 6.25,4 L6.25,4.75 C6.25,4.81875 6.30625,4.875 6.375,4.875 Z M11.875,6.75 L11.875,2.25 C11.875,1.9734375 11.6515625,1.75 11.375,1.75 L4.625,1.75 C4.3484375,1.75 4.125,1.9734375 4.125,2.25 L4.125,6.75 C3.090625,6.75 2.25,7.5640625 2.25,8.5625 L2.25,14.125 C2.25,14.19375 2.30625,14.25 2.375,14.25 L13.625,14.25 C13.69375,14.25 13.75,14.19375 13.75,14.125 L13.75,8.5625 C13.75,7.5640625 12.909375,6.75 11.875,6.75 Z M10.75,6.75 L5.25,6.75 L5.25,2.875 L10.75,2.875 L10.75,6.75 Z M8.875,4.875 L9.625,4.875 C9.69375,4.875 9.75,4.81875 9.75,4.75 L9.75,4 C9.75,3.93125 9.69375,3.875 9.625,3.875 L8.875,3.875 C8.80625,3.875 8.75,3.93125 8.75,4 L8.75,4.75 C8.75,4.81875 8.80625,4.875 8.875,4.875 Z" id="形状" fill="#000000"></path>
        </g>
    </g>
</svg>