<?xml version="1.0" encoding="UTF-8"?>
<svg width="16px" height="16px" viewBox="0 0 16 16" version="1.1" xmlns="http://www.w3.org/2000/svg" xmlns:xlink="http://www.w3.org/1999/xlink">
    <title>wechat-fill</title>
    <g id="wechat-fill" stroke="none" stroke-width="1" fill="none" fill-rule="evenodd">
        <g fill-rule="nonzero">
            <rect id="矩形" opacity="0" x="0" y="0" width="16" height="16"></rect>
            <path d="M6.059375,2.35625 C8.584375,2.35625 10.6765625,3.89375 11.0578125,5.9046875 C10.9671875,5.9 10.875,5.896875 10.7828125,5.896875 C8.234375,5.896875 6.16875,7.615625 6.16875,9.7375 C6.16875,10.0953125 6.228125,10.440625 6.3390625,10.76875 C6.246875,10.7734375 6.1546875,10.775 6.0609375,10.775 C5.484375,10.775 4.9265625,10.6921875 4.409375,10.54375 C4.3609375,10.5296875 4.3109375,10.521875 4.2609375,10.521875 C4.1640625,10.521875 4.075,10.5515625 3.9921875,10.6 L3.9921875,10.6 L2.884375,11.2390625 C2.853125,11.25625 2.8234375,11.2703125 2.7875,11.2703125 C2.69375,11.2703125 2.61875,11.19375 2.61875,11.1015625 C2.61875,11.059375 2.634375,11.01875 2.6453125,10.978125 C2.6515625,10.9546875 2.7875,10.446875 2.8734375,10.1296875 C2.8828125,10.09375 2.890625,10.059375 2.890625,10.021875 C2.890625,9.9078125 2.834375,9.8078125 2.7484375,9.746875 C1.68125,8.975 1,7.8328125 1,6.565625 C1,4.240625 3.265625,2.35625 6.059375,2.35625 Z M7.746875,4.5453125 C7.375,4.5453125 7.071875,4.846875 7.071875,5.21875 C7.071875,5.590625 7.375,5.8921875 7.746875,5.8921875 C8.1203125,5.8921875 8.421875,5.590625 8.421875,5.21875 C8.421875,4.846875 8.11875,4.5453125 7.746875,4.5453125 Z M4.3734375,4.5453125 C4,4.5453125 3.6984375,4.846875 3.6984375,5.21875 C3.6984375,5.590625 4.0015625,5.8921875 4.3734375,5.8921875 C4.7453125,5.8921875 5.0484375,5.590625 5.0484375,5.21875 C5.0484375,4.846875 4.746875,4.5453125 4.3734375,4.5453125 Z M13.5421875,12.3859375 C14.43125,11.7421875 14.9984375,10.7921875 14.9984375,9.734375 C14.9984375,7.796875 13.1109375,6.2265625 10.78125,6.2265625 C8.453125,6.2265625 6.5640625,7.796875 6.5640625,9.734375 C6.5640625,11.671875 8.4515625,13.2421875 10.78125,13.2421875 C11.2625,13.2421875 11.728125,13.1734375 12.1578125,13.05 C12.1984375,13.0375 12.2390625,13.03125 12.28125,13.03125 C12.3625,13.03125 12.4359375,13.05625 12.5046875,13.0953125 L13.428125,13.6265625 C13.4546875,13.6421875 13.4796875,13.653125 13.509375,13.653125 C13.546875,13.653125 13.5828125,13.6390625 13.609375,13.6125 C13.6359375,13.5859375 13.65,13.55 13.65,13.5125 C13.65,13.478125 13.6359375,13.44375 13.628125,13.409375 C13.6234375,13.390625 13.509375,12.9671875 13.4375,12.7015625 C13.4296875,12.671875 13.4234375,12.6421875 13.4234375,12.6125 C13.425,12.5203125 13.471875,12.4375 13.5421875,12.3859375 Z M9.378125,9.175 C9.0671875,9.175 8.815625,8.9234375 8.815625,8.6140625 C8.815625,8.3046875 9.0671875,8.053125 9.378125,8.053125 C9.6890625,8.053125 9.940625,8.3046875 9.940625,8.6140625 C9.940625,8.9234375 9.6875,9.175 9.378125,9.175 Z M12.1890625,9.175 C11.878125,9.175 11.6265625,8.9234375 11.6265625,8.6140625 C11.6265625,8.3046875 11.878125,8.053125 12.1890625,8.053125 C12.5,8.053125 12.7515625,8.3046875 12.7515625,8.6140625 C12.75,8.9234375 12.4984375,9.175 12.1890625,9.175 Z" id="形状" fill="#000000"></path>
        </g>
    </g>
</svg>