<?xml version="1.0" encoding="UTF-8"?>
<svg width="16px" height="16px" viewBox="0 0 16 16" version="1.1" xmlns="http://www.w3.org/2000/svg" xmlns:xlink="http://www.w3.org/1999/xlink">
    <title>attachment</title>
    <g id="attachment" stroke="none" stroke-width="1" fill="none" fill-rule="evenodd">
        <g fill-rule="nonzero">
            <rect id="矩形" opacity="0" x="0" y="0" width="16" height="16"></rect>
            <path d="M12.1765625,3.071875 C10.7046875,1.6 8.3078125,1.6 6.8375,3.071875 L2.759375,7.146875 C2.7328125,7.1734375 2.71875,7.209375 2.71875,7.246875 C2.71875,7.284375 2.7328125,7.3203125 2.759375,7.346875 L3.3359375,7.9234375 C3.390625,7.978125 3.4796875,7.978125 3.534375,7.9234375 L7.6125,3.8484375 C8.11875,3.3421875 8.7921875,3.0640625 9.5078125,3.0640625 C10.2234375,3.0640625 10.896875,3.3421875 11.4015625,3.8484375 C11.9078125,4.3546875 12.1859375,5.028125 12.1859375,5.7421875 C12.1859375,6.4578125 11.9078125,7.1296875 11.4015625,7.6359375 L7.2453125,11.790625 L6.571875,12.4640625 C5.9421875,13.09375 4.91875,13.09375 4.2890625,12.4640625 C3.984375,12.159375 3.8171875,11.7546875 3.8171875,11.3234375 C3.8171875,10.8921875 3.984375,10.4875 4.2890625,10.1828125 L8.4125,6.0609375 C8.5171875,5.9578125 8.6546875,5.9 8.8015625,5.9 L8.803125,5.9 C8.95,5.9 9.0859375,5.9578125 9.1890625,6.0609375 C9.29375,6.165625 9.35,6.303125 9.35,6.45 C9.35,6.5953125 9.2921875,6.7328125 9.1890625,6.8359375 L5.81875,10.203125 C5.7921875,10.2296875 5.778125,10.265625 5.778125,10.303125 C5.778125,10.340625 5.7921875,10.3765625 5.81875,10.403125 L6.3953125,10.9796875 C6.45,11.034375 6.5390625,11.034375 6.59375,10.9796875 L9.9625,7.6109375 C10.2734375,7.3 10.44375,6.8875 10.44375,6.4484375 C10.44375,6.009375 10.271875,5.5953125 9.9625,5.2859375 C9.3203125,4.64375 8.2765625,4.6453125 7.634375,5.2859375 L7.234375,5.6875 L3.5125,9.4078125 C3,9.9203125 2.71875,10.6 2.71875,11.325 C2.71875,12.0484375 3.0015625,12.728125 3.5125,13.2390625 C4.0421875,13.7671875 4.7359375,14.03125 5.4296875,14.03125 C6.1234375,14.03125 6.8171875,13.7671875 7.3453125,13.2390625 L12.1765625,8.4109375 C12.8875,7.6984375 13.2812546,6.75 13.2812546,5.7421875 C13.2828125,4.7328125 12.8890625,3.784375 12.1765625,3.071875 Z" id="路径" fill="#000000"></path>
        </g>
    </g>
</svg>