<?xml version="1.0" encoding="UTF-8"?>
<svg width="16px" height="16px" viewBox="0 0 16 16" version="1.1" xmlns="http://www.w3.org/2000/svg" xmlns:xlink="http://www.w3.org/1999/xlink">
    <title>block</title>
    <g id="block" stroke="none" stroke-width="1" fill="none" fill-rule="evenodd">
        <g fill-rule="nonzero">
            <rect id="矩形" opacity="0" x="0" y="0" width="16" height="16"></rect>
            <path d="M13.375,5.875 L10.125,5.875 L10.125,2.625 C10.125,2.4875 10.0125,2.375 9.875,2.375 L2.625,2.375 C2.4875,2.375 2.375,2.4875 2.375,2.625 L2.375,9.875 C2.375,10.0125 2.4875,10.125 2.625,10.125 L5.875,10.125 L5.875,13.375 C5.875,13.5125 5.9875,13.625 6.125,13.625 L13.375,13.625 C13.5125,13.625 13.625,13.5125 13.625,13.375 L13.625,6.125 C13.625,5.9875 13.5125,5.875 13.375,5.875 Z M5.875,6.125 L5.875,9.0625 L3.4375,9.0625 L3.4375,3.4375 L9.0625,3.4375 L9.0625,5.875 L6.125,5.875 C5.9875,5.875 5.875,5.9875 5.875,6.125 Z M9.0625,6.9375 L9.0625,9.0625 L6.9375,9.0625 L6.9375,6.9375 L9.0625,6.9375 Z M12.5625,12.5625 L6.9375,12.5625 L6.9375,10.125 L9.875,10.125 C10.0125,10.125 10.125,10.0125 10.125,9.875 L10.125,6.9375 L12.5625,6.9375 L12.5625,12.5625 Z" id="形状" fill="#000000"></path>
        </g>
    </g>
</svg>