<?xml version="1.0" encoding="UTF-8"?>
<svg width="16px" height="16px" viewBox="0 0 16 16" version="1.1" xmlns="http://www.w3.org/2000/svg" xmlns:xlink="http://www.w3.org/1999/xlink">
    <title>fast-backward</title>
    <g id="fast-backward" stroke="none" stroke-width="1" fill="none" fill-rule="evenodd">
        <g fill-rule="nonzero">
            <rect id="矩形" opacity="0" x="0" y="0" width="16" height="16"></rect>
            <path d="M8.0875,4.2734375 L3.596875,7.8015625 C3.5328125,7.8515625 3.5,7.9265625 3.5,8 C3.5,8.0734375 3.5328125,8.1484375 3.596875,8.1984375 L8.0875,11.7265625 C8.2546875,11.8578125 8.5,11.7390625 8.5,11.528125 L8.5,4.471875 C8.5,4.2609375 8.2546875,4.1421875 8.0875,4.2734375 L8.0875,4.2734375 Z M13.0875,4.2734375 L8.596875,7.8015625 C8.5328125,7.8515625 8.5,7.9265625 8.5,8 C8.5,8.0734375 8.5328125,8.1484375 8.596875,8.1984375 L13.0875,11.7265625 C13.2546875,11.8578125 13.5,11.7390625 13.5,11.528125 L13.5,4.471875 C13.5,4.2609375 13.2546875,4.1421875 13.0875,4.2734375 Z M3.4,3.875 L2.6,3.875 C2.5453125,3.875 2.5,3.9171875 2.5,3.96875 L2.5,12.03125 C2.5,12.0828125 2.5453125,12.125 2.6,12.125 L3.4,12.125 C3.4546875,12.125 3.5,12.0828125 3.5,12.03125 L3.5,3.96875 C3.5,3.9171875 3.4546875,3.875 3.4,3.875 Z" id="形状" fill="#000000"></path>
        </g>
    </g>
</svg>