<?xml version="1.0" encoding="UTF-8"?>
<svg width="16px" height="16px" viewBox="0 0 16 16" version="1.1" xmlns="http://www.w3.org/2000/svg" xmlns:xlink="http://www.w3.org/1999/xlink">
    <title>ipc</title>
    <g id="ipc" stroke="none" stroke-width="1" fill="none" fill-rule="evenodd">
        <g fill-rule="nonzero">
            <rect id="矩形" opacity="0" x="0" y="0" width="16" height="16"></rect>
            <path d="M1.53846153,8.54615384 C1.53846153,8.35507692 1.68184614,8.26153845 1.85723077,8.33876923 L3.20707692,8.93138461 C3.38246153,9.00830769 3.52584616,9.22738461 3.52584616,9.41846153 L3.52584616,10.1898462 L5.78738461,10.1898462 L6.22430769,9.24553847 L7.56092308,9.86707692 L6.92892308,11.2332308 C6.80772374,11.4937257 6.54638655,11.6602276 6.25907692,11.66 L3.52523077,11.66 L3.52523077,12.4313846 C3.52523077,12.6227692 3.38215384,12.8415385 3.20646153,12.9184615 L1.85723077,13.5116923 C1.68184616,13.5883077 1.53846153,13.4953846 1.53846153,13.304 L1.53846153,8.54615384 Z M14.2676923,8.59815384 L13.3461538,10.568 L12.0276923,9.95507692 L14.2676923,8.59815384 Z M5.64830769,2.52615384 L14.8061538,6.78338461 C15.1529231,6.94523077 15.1692308,7.23938461 14.8418462,7.43753847 L10.7350769,9.92553847 C10.4076923,10.1236923 9.85569231,10.1538462 9.50830769,9.99261539 L3.46923077,7.18523077 C3.12182045,7.02289035 2.97105571,6.61021313 3.132,6.26215384 L4.72215384,2.86215384 C4.88633448,2.51495036 5.29969503,2.364987 5.64830769,2.52615384 Z" id="形状" fill="#000000"></path>
        </g>
    </g>
</svg>