<?xml version="1.0" encoding="UTF-8"?>
<svg width="16px" height="16px" viewBox="0 0 16 16" version="1.1" xmlns="http://www.w3.org/2000/svg" xmlns:xlink="http://www.w3.org/1999/xlink">
    <title>message-fill</title>
    <g id="message-fill" stroke="none" stroke-width="1" fill="none" fill-rule="evenodd">
        <g fill-rule="nonzero">
            <rect id="矩形" opacity="0" x="0" y="0" width="16" height="16"></rect>
            <path d="M14.4421875,5.2875 C14.090625,4.4484375 13.584375,3.6953125 12.940625,3.0484375 C12.296875,2.403125 11.5453125,1.8953125 10.70625,1.54375 C9.8484375,1.1828125 8.9390625,1 8,1 L7.96875,1 C7.0234375,1.0046875 6.109375,1.1921875 5.2484375,1.5609375 C4.4171875,1.9171875 3.671875,2.4234375 3.034375,3.06875 C2.396875,3.7140625 1.896875,4.4640625 1.55,5.3 C1.1921875,6.165625 1.0109375,7.0859375 1.01553635,8.0328125 C1.0203125,9.1171875 1.2796875,10.19375 1.7640625,11.15625 L1.7640625,13.53125 C1.7640625,13.928125 2.0859375,14.25 2.48125,14.25 L4.853125,14.25 C5.8140625,14.7359375 6.8875,14.9953125 7.9703125,15 L8.003125,15 C8.9375,15 9.8421875,14.81875 10.6953125,14.4640625 C11.5296875,14.115625 12.2796875,13.615625 12.921875,12.9765625 C13.565625,12.3375 14.071875,11.590625 14.4265625,10.7578125 C14.79375,9.8953125 14.98125,8.978125 14.9859766,8.03125 C14.9890625,7.0796875 14.8046875,6.15625 14.4421875,5.2875 Z M4.88125,8.75 C4.46875,8.75 4.1328125,8.4140625 4.1328125,8 C4.1328125,7.5859375 4.46875,7.25 4.88125,7.25 C5.29375,7.25 5.6296875,7.5859375 5.6296875,8 C5.6296875,8.4140625 5.2953125,8.75 4.88125,8.75 Z M8,8.75 C7.5875,8.75 7.2515625,8.4140625 7.2515625,8 C7.2515625,7.5859375 7.5875,7.25 8,7.25 C8.4125,7.25 8.7484375,7.5859375 8.7484375,8 C8.7484375,8.4140625 8.4125,8.75 8,8.75 Z M11.11875,8.75 C10.70625,8.75 10.3703125,8.4140625 10.3703125,8 C10.3703125,7.5859375 10.70625,7.25 11.11875,7.25 C11.53125,7.25 11.8671875,7.5859375 11.8671875,8 C11.8671875,8.4140625 11.53125,8.75 11.11875,8.75 Z" id="形状" fill="#000000"></path>
        </g>
    </g>
</svg>