<?xml version="1.0" encoding="UTF-8"?>
<svg width="16px" height="16px" viewBox="0 0 16 16" version="1.1" xmlns="http://www.w3.org/2000/svg" xmlns:xlink="http://www.w3.org/1999/xlink">
    <title>QQ</title>
    <g id="QQ" stroke="none" stroke-width="1" fill="none" fill-rule="evenodd">
        <g fill-rule="nonzero">
            <rect id="矩形" opacity="0" x="0" y="0" width="16" height="16"></rect>
            <path d="M12.8875,9.58125 C12.6375,8.778125 12.35,8.103125 11.9078125,6.9984375 C11.9765625,4.096875 10.7703125,1.75 7.9921875,1.75 C5.1828125,1.75 4.003125,4.14375 4.078125,6.9984375 C3.634375,8.1046875 3.3484375,8.775 3.0984375,9.58125 C2.5671875,11.2921875 2.7390625,12 2.8703125,12.015625 C3.1515625,12.05 3.965625,10.728125 3.965625,10.728125 C3.965625,11.49375 4.359375,12.4921875 5.2125,13.2125 C4.8,13.3390625 3.8734375,13.6796875 4.09375,14.053125 C4.271875,14.3546875 7.159375,14.2453125 7.9921875,14.1515625 C8.825,14.2453125 11.7125,14.3546875 11.890625,14.053125 C12.1109375,13.68125 11.1828125,13.3390625 10.771875,13.2125 C11.625,12.490625 12.01875,11.4921875 12.01875,10.728125 C12.01875,10.728125 12.8328125,12.05 13.1140625,12.015625 C13.246875,11.9984375 13.41875,11.290625 12.8875,9.58125 Z" id="路径" fill="#000000"></path>
        </g>
    </g>
</svg>