<?xml version="1.0" encoding="UTF-8"?>
<svg width="16px" height="16px" viewBox="0 0 16 16" version="1.1" xmlns="http://www.w3.org/2000/svg" xmlns:xlink="http://www.w3.org/1999/xlink">
    <title>shrink</title>
    <g id="shrink" stroke="none" stroke-width="1" fill="none" fill-rule="evenodd">
        <g fill-rule="nonzero">
            <rect id="矩形" opacity="0" x="0" y="0" width="16" height="16"></rect>
            <path d="M13.7765625,2.928125 L13.071875,2.2234375 C13.0234375,2.175 12.94375,2.175 12.8953125,2.2234375 L10.434375,4.6859375 L9.5796875,3.83125 C9.50625,3.7578125 9.38125,3.8015625 9.36875,3.9046875 L9.0015625,6.859375 C8.9921875,6.940625 9.059375,7.0078125 9.140625,6.9984375 L12.096875,6.63125 C12.2,6.61875 12.2421875,6.49375 12.1703125,6.4203125 L11.315625,5.565625 L13.778125,3.103125 C13.825,3.05625 13.825,2.9765625 13.7765625,2.928125 Z M6.859375,9.0015625 L3.903125,9.36875 C3.8,9.38125 3.7578125,9.5078125 3.8296875,9.5796875 L4.684375,10.434375 L2.2234375,12.8953125 C2.175,12.94375 2.175,13.0234375 2.2234375,13.071875 L2.928125,13.7765625 C2.9765625,13.825 3.05625,13.825 3.1046875,13.7765625 L5.5671875,11.3140625 L6.421875,12.16875 C6.4953125,12.2421875 6.6203125,12.1984375 6.6328125,12.0953125 L6.9984375,9.140625 C7.009375,9.059375 6.940625,8.990625 6.859375,9.0015625 Z" id="形状" fill="#000000"></path>
        </g>
    </g>
</svg>