<?xml version="1.0" standalone="no"?><!DOCTYPE svg PUBLIC "-//W3C//DTD SVG 1.1//EN" "http://www.w3.org/Graphics/SVG/1.1/DTD/svg11.dtd"><svg t="1681192874870" class="icon" viewBox="0 0 1024 1024" version="1.1" xmlns="http://www.w3.org/2000/svg" p-id="22528" xmlns:xlink="http://www.w3.org/1999/xlink" width="200" height="200"><path d="M320 192a64 64 0 1 0 0-128 64 64 0 0 0 0 128zM704 192a64 64 0 1 0 0-128 64 64 0 0 0 0 128zM384 384a64 64 0 1 1-128 0 64 64 0 0 1 128 0zM704 448a64 64 0 1 0 0-128 64 64 0 0 0 0 128zM384 640a64 64 0 1 1-128 0 64 64 0 0 1 128 0zM320 960a64 64 0 1 0 0-128 64 64 0 0 0 0 128zM768 640a64 64 0 1 1-128 0 64 64 0 0 1 128 0zM704 960a64 64 0 1 0 0-128 64 64 0 0 0 0 128z" p-id="22529" fill="#666666"></path></svg>