<?xml version="1.0" encoding="UTF-8"?>
<svg width="16px" height="16px" viewBox="0 0 16 16" version="1.1" xmlns="http://www.w3.org/2000/svg" xmlns:xlink="http://www.w3.org/1999/xlink">
    <title>tag-fill</title>
    <g id="tag-fill" stroke="none" stroke-width="1" fill="none" fill-rule="evenodd">
        <g fill-rule="nonzero">
            <rect id="矩形" opacity="0" x="0" y="0" width="16" height="16"></rect>
            <path d="M14.65625,7.16875 L14.19375,2.284375 C14.1703125,2.03125 13.96875,1.83125 13.715625,1.80625 L8.83125,1.34375 L8.825,1.34375 C8.775,1.34375 8.7359375,1.359375 8.70625,1.3890625 L1.3890625,8.70625 C1.328125,8.7671875 1.328125,8.865625 1.3890625,8.9265625 L7.0734375,14.6109375 C7.103125,14.640625 7.1421875,14.65625 7.184375,14.65625 C7.2265625,14.65625 7.265625,14.640625 7.2953125,14.6109375 L14.6125,7.29375 C14.64375,7.2609375 14.659375,7.215625 14.65625,7.16875 Z M10.921875,6.046875 C10.3703125,6.046875 9.921875,5.5984375 9.921875,5.046875 C9.921875,4.4953125 10.3703125,4.046875 10.921875,4.046875 C11.4734375,4.046875 11.921875,4.4953125 11.921875,5.046875 C11.921875,5.5984375 11.4734375,6.046875 10.921875,6.046875 Z" id="形状" fill="#000000"></path>
        </g>
    </g>
</svg>