<?xml version="1.0" standalone="no"?><!DOCTYPE svg PUBLIC "-//W3C//DTD SVG 1.1//EN" "http://www.w3.org/Graphics/SVG/1.1/DTD/svg11.dtd"><svg t="1650966141793" class="icon" viewBox="0 0 1024 1024" version="1.1" xmlns="http://www.w3.org/2000/svg" p-id="84339" xmlns:xlink="http://www.w3.org/1999/xlink" width="200" height="200"><defs><style type="text/css">@font-face { font-family: feedback-iconfont; src: url("//at.alicdn.com/t/font_1031158_u69w8yhxdu.woff2?t=1630033759944") format("woff2"), url("//at.alicdn.com/t/font_1031158_u69w8yhxdu.woff?t=1630033759944") format("woff"), url("//at.alicdn.com/t/font_1031158_u69w8yhxdu.ttf?t=1630033759944") format("truetype"); }
</style></defs><path d="M549.312 878.912V145.088a6.4 6.4 0 0 1 6.4-6.4h24.576a6.4 6.4 0 0 0 6.4-6.4V70.4a6.4 6.4 0 0 0-6.4-6.4H443.712a6.4 6.4 0 0 0-6.4 6.4v61.888a6.4 6.4 0 0 0 6.4 6.4h24.576a6.4 6.4 0 0 1 6.4 6.4v733.824a6.4 6.4 0 0 1-6.4 6.4h-24.576a6.4 6.4 0 0 0-6.4 6.4v61.888a6.4 6.4 0 0 0 6.4 6.4h136.576a6.4 6.4 0 0 0 6.4-6.4v-61.888a6.4 6.4 0 0 0-6.4-6.4h-24.576a6.4 6.4 0 0 1-6.4-6.4z m-317.312-130.624v-61.888a6.4 6.4 0 0 0-6.4-6.4H145.088a6.4 6.4 0 0 0-6.4 6.4v61.888a6.4 6.4 0 0 0 6.4 6.4h80.512a6.4 6.4 0 0 0 6.4-6.4z m81.088 6.4H393.6a6.4 6.4 0 0 1 6.4 6.4v61.824a6.4 6.4 0 0 1-6.4 6.4H70.4a6.4 6.4 0 0 1-6.4-6.4V201.088a6.4 6.4 0 0 1 6.4-6.4h323.2a6.4 6.4 0 0 1 6.4 6.4v61.824a6.4 6.4 0 0 1-6.4 6.4H313.088a6.4 6.4 0 0 0-6.4 6.4v61.888a6.4 6.4 0 0 0 6.4 6.4H393.6a6.4 6.4 0 0 1 6.4 6.4v61.888a6.4 6.4 0 0 1-6.4 6.4H145.088a6.4 6.4 0 0 0-6.4 6.4v173.824a6.4 6.4 0 0 0 6.4 6.4H393.6a6.4 6.4 0 0 1 6.4 6.4v61.888a6.4 6.4 0 0 1-6.4 6.4H313.088a6.4 6.4 0 0 0-6.4 6.4v61.888a6.4 6.4 0 0 0 6.4 6.4z m485.312 0h80.512a6.4 6.4 0 0 0 6.4-6.4v-61.888a6.4 6.4 0 0 0-6.4-6.4h-80.512a6.4 6.4 0 0 0-6.4 6.4v61.888a6.4 6.4 0 0 0 6.4 6.4z m-81.088-6.4v-61.888a6.4 6.4 0 0 0-6.4-6.4H630.4a6.4 6.4 0 0 1-6.4-6.4v-61.888a6.4 6.4 0 0 1 6.4-6.4h248.512a6.4 6.4 0 0 0 6.4-6.4V425.088a6.4 6.4 0 0 0-6.4-6.4H630.4a6.4 6.4 0 0 1-6.4-6.4v-61.888a6.4 6.4 0 0 1 6.4-6.4h80.512a6.4 6.4 0 0 0 6.4-6.4v-61.888a6.4 6.4 0 0 0-6.4-6.4H630.4a6.4 6.4 0 0 1-6.4-6.4v-61.824a6.4 6.4 0 0 1 6.4-6.4h323.2a6.4 6.4 0 0 1 6.4 6.4v621.824a6.4 6.4 0 0 1-6.4 6.4H630.4a6.4 6.4 0 0 1-6.4-6.4v-61.824a6.4 6.4 0 0 1 6.4-6.4h80.512a6.4 6.4 0 0 0 6.4-6.4zM232 269.312H145.088a6.4 6.4 0 0 0-6.4 6.4v61.888a6.4 6.4 0 0 0 6.4 6.4h80.512a6.4 6.4 0 0 0 6.4-6.4V269.312z m560 0v68.288a6.4 6.4 0 0 0 6.4 6.4h80.512a6.4 6.4 0 0 0 6.4-6.4v-61.888a6.4 6.4 0 0 0-6.4-6.4h-86.912z" p-id="84340"></path></svg>